<svg width="384" height="210" viewBox="0 0 384 210" fill="none" xmlns="http://www.w3.org/2000/svg">
<mask id="mask0" mask-type="alpha" maskUnits="userSpaceOnUse" x="0" y="0" width="384" height="210">
<path d="M0 8C0 3.58172 3.58172 0 8 0H376C380.418 0 384 3.58172 384 8V210H0V8Z" fill="#E3FFF1"/>
</mask>
<g mask="url(#mask0)">
<path d="M0 8C0 3.58172 3.58172 0 8 0H376C380.418 0 384 3.58172 384 8V210H0V8Z" fill="#FFCC00"/>
<g opacity="0.65">
<path d="M-27.3052 8.83545L-56.969 -8.95544V-44.5372L-27.3052 -62.3281L2.35853 -44.5372V-8.95544L-27.3052 8.83545ZM-56.1884 -9.42363L-27.3052 7.89909L1.5779 -9.42363V-44.069L-27.3052 -61.3918L-56.1884 -44.069V-9.42363Z" fill="white"/>
<path d="M31.2416 8.83545L1.57788 -8.95544V-44.5372L31.2416 -62.3281L60.9054 -44.5372V-8.95544L60.7493 -8.87741L31.2416 8.83545ZM2.35851 -9.42363L31.2416 7.89909L60.1248 -9.42363V-44.069L31.2416 -61.3918L2.35851 -44.069V-9.42363Z" fill="white"/>
<path d="M31.6319 -26.75H30.8513V8.36361H31.6319V-26.75Z" fill="white"/>
<path d="M89.7888 8.83545L60.125 -8.95544V-44.5372L60.2811 -44.6153L89.7888 -62.3281L119.453 -44.5372V-8.95544L119.296 -8.87741L89.7888 8.83545ZM60.9056 -9.42363L89.7888 7.89909L118.672 -9.42363V-44.069L89.7888 -61.3918L60.9056 -44.069V-9.42363Z" fill="white"/>
<path d="M90.1788 -26.75H89.3982V8.36361H90.1788V-26.75Z" fill="white"/>
<path d="M148.336 8.83545L118.672 -8.95544V-44.5372L118.828 -44.6153L148.336 -62.3281L177.999 -44.5372V-8.95544L177.843 -8.87741L148.336 8.83545ZM119.453 -9.42363L148.336 7.89909L177.219 -9.42363V-44.069L148.336 -61.3918L119.453 -44.069V-9.42363Z" fill="white"/>
<path d="M148.726 -26.75H147.945V8.36361H148.726V-26.75Z" fill="white"/>
<path d="M1.9682 61.5034L-27.6956 43.7125V8.13074L1.9682 -9.66016L31.632 8.13074V43.7125L31.4758 43.7906L1.9682 61.5034ZM-26.9149 43.2443L1.9682 60.567L30.8513 43.2443V8.59892L1.9682 -8.72379L-26.9149 8.59892V43.2443Z" fill="white"/>
<path d="M1.96814 26.3898L-28.0859 8.36483L1.96814 -9.66016L32.0222 8.36483L1.96814 26.3898ZM-26.5247 8.36483L1.96814 25.4534L30.461 8.36483L1.96814 -8.72379L-26.5247 8.36483Z" fill="white"/>
<path d="M2.35851 25.9219H1.57788V61.0355H2.35851V25.9219Z" fill="white"/>
<path d="M60.5151 61.5034L30.8513 43.7125V8.13074L31.0075 8.05271L60.5151 -9.66016L90.1788 8.13074V43.7125L90.0227 43.7906L60.5151 61.5034ZM31.6319 43.2443L60.5151 60.567L89.3982 43.2443V8.59892L60.5151 -8.72379L31.6319 8.59892V43.2443Z" fill="white"/>
<path d="M60.515 26.3898L30.4609 8.36483L60.515 -9.66016L90.5691 8.36483L60.515 26.3898ZM32.0222 8.36483L60.515 25.4534L89.0078 8.36483L60.515 -8.72379L32.0222 8.36483Z" fill="white"/>
<path d="M60.9056 25.9219H60.125V61.0355H60.9056V25.9219Z" fill="white"/>
<path d="M119.062 61.5034L89.3982 43.7125V8.13074L89.5543 8.05271L119.062 -9.66016L148.726 8.13074V43.7125L148.57 43.7906L119.062 61.5034ZM90.1788 43.2443L119.062 60.567L147.945 43.2443V8.59892L119.062 -8.72379L90.1788 8.59892V43.2443Z" fill="white"/>
<path d="M119.062 26.3898L89.0081 8.36483L119.062 -9.66016L149.116 8.36483L119.062 26.3898ZM90.5693 8.36483L119.062 25.4534L147.555 8.36483L119.062 -8.72379L90.5693 8.36483Z" fill="white"/>
<path d="M119.453 25.9219H118.672V61.0355H119.453V25.9219Z" fill="white"/>
<path d="M177.609 61.5034L147.945 43.7125V8.13074L148.101 8.05271L177.609 -9.66016L207.273 8.13074V43.7125L207.116 43.7906L177.609 61.5034ZM148.726 43.2443L177.609 60.567L206.492 43.2443V8.59892L177.609 -8.72379L148.726 8.59892V43.2443Z" fill="white"/>
<path d="M177.609 26.3898L147.555 8.36483L177.609 -9.66016L207.663 8.36483L177.609 26.3898ZM149.116 8.36483L177.609 25.4534L206.102 8.36483L177.609 -8.72379L149.116 8.36483Z" fill="white"/>
<path d="M177.999 25.9219H177.219V61.0355H177.999V25.9219Z" fill="white"/>
<path d="M-27.3052 114.175L-56.969 96.3844V60.8026L-27.3052 43.0117L2.35853 60.8026V96.3844L-27.3052 114.175ZM-56.1884 95.9162L-27.3052 113.239L1.5779 95.9162V61.2708L-27.3052 43.9481L-56.1884 61.2708V95.9162Z" fill="white"/>
<path d="M-27.3053 79.0617L-57.3594 61.0367L-27.3053 43.0117L2.74878 61.0367L-27.3053 79.0617ZM-55.7981 61.0367L-27.3053 78.1253L1.18753 61.0367L-27.3053 43.9481L-55.7981 61.0367Z" fill="white"/>
<path d="M31.2416 114.175L1.57788 96.3844V60.8026L31.2416 43.0117L60.9054 60.8026V96.3844L60.7493 96.4624L31.2416 114.175ZM2.35851 95.9162L31.2416 113.239L60.1248 95.9162V61.2708L31.2416 43.9481L2.35851 61.2708V95.9162Z" fill="white"/>
<path d="M31.2416 79.0617L1.1875 61.0367L31.2416 43.0117L61.2957 61.0367L31.2416 79.0617ZM2.74875 61.0367L31.2416 78.1253L59.7344 61.0367L31.2416 43.9481L2.74875 61.0367Z" fill="white"/>
<path d="M31.6319 78.5938H30.8513V113.707H31.6319V78.5938Z" fill="white"/>
<path d="M89.7888 114.175L60.125 96.3844V60.8026L60.2811 60.7246L89.7888 43.0117L119.453 60.8026V96.3844L119.296 96.4624L89.7888 114.175ZM60.9056 95.9162L89.7888 113.239L118.672 95.9162V61.2708L89.7888 43.9481L60.9056 61.2708V95.9162Z" fill="white"/>
<path d="M89.7885 79.0617L59.7344 61.0367L89.7885 43.0117L119.843 61.0367L89.7885 79.0617ZM61.2956 61.0367L89.7885 78.1253L118.281 61.0367L89.7885 43.9481L61.2956 61.0367Z" fill="white"/>
<path d="M90.1788 78.5938H89.3982V113.707H90.1788V78.5938Z" fill="white"/>
<path d="M148.336 114.175L118.672 96.3844V60.8026L118.828 60.7246L148.336 43.0117L177.999 60.8026V96.3844L177.843 96.4624L148.336 114.175ZM119.453 95.9162L148.336 113.239L177.219 95.9162V61.2708L148.336 43.9481L119.453 61.2708V95.9162Z" fill="white"/>
<path d="M148.335 79.0617L118.281 61.0367L148.335 43.0117L178.389 61.0367L148.335 79.0617ZM119.843 61.0367L148.335 78.1253L176.828 61.0367L148.335 43.9481L119.843 61.0367Z" fill="white"/>
<path d="M148.726 78.5938H147.945V113.707H148.726V78.5938Z" fill="white"/>
<path d="M1.9682 166.843L-27.6956 149.052V113.471L1.9682 95.6797L31.632 113.471V149.052L31.4758 149.13L1.9682 166.843ZM-26.9149 148.584L1.9682 165.907L30.8513 148.584V113.939L1.9682 96.6161L-26.9149 113.939V148.584Z" fill="white"/>
<path d="M1.96814 131.73L-28.0859 113.705L1.96814 95.6797L32.0222 113.705L1.96814 131.73ZM-26.5247 113.705L1.96814 130.793L30.461 113.705L1.96814 96.6161L-26.5247 113.705Z" fill="white"/>
<path d="M2.35851 131.262H1.57788V166.375H2.35851V131.262Z" fill="white"/>
<path d="M60.5151 166.843L30.8513 149.052V113.471L31.0075 113.393L60.5151 95.6797L90.1788 113.471V149.052L90.0227 149.13L60.5151 166.843ZM31.6319 148.584L60.5151 165.907L89.3982 148.584V113.939L60.5151 96.6161L31.6319 113.939V148.584Z" fill="white"/>
<path d="M60.515 131.73L30.4609 113.705L60.515 95.6797L90.5691 113.705L60.515 131.73ZM32.0222 113.705L60.515 130.793L89.0078 113.705L60.515 96.6161L32.0222 113.705Z" fill="white"/>
<path d="M60.9056 131.262H60.125V166.375H60.9056V131.262Z" fill="white"/>
<path d="M119.062 166.843L89.3982 149.052V113.471L89.5543 113.393L119.062 95.6797L148.726 113.471V149.052L148.57 149.13L119.062 166.843ZM90.1788 148.584L119.062 165.907L147.945 148.584V113.939L119.062 96.6161L90.1788 113.939V148.584Z" fill="white"/>
<path d="M119.062 131.73L89.0081 113.705L119.062 95.6797L149.116 113.705L119.062 131.73ZM90.5693 113.705L119.062 130.793L147.555 113.705L119.062 96.6161L90.5693 113.705Z" fill="white"/>
<path d="M119.453 131.262H118.672V166.375H119.453V131.262Z" fill="white"/>
<path d="M177.609 166.843L147.945 149.052V113.471L148.101 113.393L177.609 95.6797L207.273 113.471V149.052L207.116 149.13L177.609 166.843ZM148.726 148.584L177.609 165.907L206.492 148.584V113.939L177.609 96.6161L148.726 113.939V148.584Z" fill="white"/>
<path d="M177.609 131.73L147.555 113.705L177.609 95.6797L207.663 113.705L177.609 131.73ZM149.116 113.705L177.609 130.793L206.102 113.705L177.609 96.6161L149.116 113.705Z" fill="white"/>
<path d="M177.999 131.262H177.219V166.375H177.999V131.262Z" fill="white"/>
<path d="M-27.3052 219.515L-56.969 201.724V166.142L-27.3052 148.352L2.35853 166.142V201.724L-27.3052 219.515ZM-56.1884 201.256L-27.3052 218.579L1.5779 201.256V166.611L-27.3052 149.288L-56.1884 166.611V201.256Z" fill="white"/>
<path d="M-27.3053 184.402L-57.3594 166.377L-27.3053 148.352L2.74878 166.377L-27.3053 184.402ZM-55.7981 166.377L-27.3053 183.465L1.18753 166.377L-27.3053 149.288L-55.7981 166.377Z" fill="white"/>
<path d="M31.2416 219.515L1.57788 201.724V166.142L31.2416 148.352L60.9054 166.142V201.724L60.7493 201.802L31.2416 219.515ZM2.35851 201.256L31.2416 218.579L60.1248 201.256V166.611L31.2416 149.288L2.35851 166.611V201.256Z" fill="white"/>
<path d="M31.2416 184.402L1.1875 166.377L31.2416 148.352L61.2957 166.377L31.2416 184.402ZM2.74875 166.377L31.2416 183.465L59.7344 166.377L31.2416 149.288L2.74875 166.377Z" fill="white"/>
<path d="M31.6319 183.934H30.8513V219.047H31.6319V183.934Z" fill="white"/>
<path d="M89.7888 219.515L60.125 201.724V166.142L60.2811 166.064L89.7888 148.352L119.453 166.142V201.724L119.296 201.802L89.7888 219.515ZM60.9056 201.256L89.7888 218.579L118.672 201.256V166.611L89.7888 149.288L60.9056 166.611V201.256Z" fill="white"/>
<path d="M89.7885 184.402L59.7344 166.377L89.7885 148.352L119.843 166.377L89.7885 184.402ZM61.2956 166.377L89.7885 183.465L118.281 166.377L89.7885 149.288L61.2956 166.377Z" fill="white"/>
<path d="M90.1788 183.934H89.3982V219.047H90.1788V183.934Z" fill="white"/>
<path d="M148.336 219.515L118.672 201.724V166.142L118.828 166.064L148.336 148.352L177.999 166.142V201.724L177.843 201.802L148.336 219.515ZM119.453 201.256L148.336 218.579L177.219 201.256V166.611L148.336 149.288L119.453 166.611V201.256Z" fill="white"/>
<path d="M148.335 184.402L118.281 166.377L148.335 148.352L178.389 166.377L148.335 184.402ZM119.843 166.377L148.335 183.465L176.828 166.377L148.335 149.288L119.843 166.377Z" fill="white"/>
<path d="M148.726 183.934H147.945V219.047H148.726V183.934Z" fill="white"/>
<path d="M1.9682 272.187L-27.6956 254.396V218.814L1.9682 201.023L31.632 218.814V254.396L31.4758 254.474L1.9682 272.187ZM-26.9149 253.928L1.9682 271.251L30.8513 253.928V219.283L1.9682 201.96L-26.9149 219.283V253.928Z" fill="white"/>
<path d="M1.96814 237.073L-28.0859 219.048L1.96814 201.023L32.0222 219.048L1.96814 237.073ZM-26.5247 219.048L1.96814 236.137L30.461 219.048L1.96814 201.96L-26.5247 219.048Z" fill="white"/>
<path d="M60.5151 272.187L30.8513 254.396V218.814L31.0075 218.736L60.5151 201.023L90.1788 218.814V254.396L90.0227 254.474L60.5151 272.187ZM31.6319 253.928L60.5151 271.251L89.3982 253.928V219.283L60.5151 201.96L31.6319 219.283V253.928Z" fill="white"/>
<path d="M60.515 237.073L30.4609 219.048L60.515 201.023L90.5691 219.048L60.515 237.073ZM32.0222 219.048L60.515 236.137L89.0078 219.048L60.515 201.96L32.0222 219.048Z" fill="white"/>
<path d="M119.062 272.187L89.3982 254.396V218.814L89.5543 218.736L119.062 201.023L148.726 218.814V254.396L148.57 254.474L119.062 272.187ZM90.1788 253.928L119.062 271.251L147.945 253.928V219.283L119.062 201.96L90.1788 219.283V253.928Z" fill="white"/>
<path d="M119.062 237.073L89.0081 219.048L119.062 201.023L149.116 219.048L119.062 237.073ZM90.5693 219.048L119.062 236.137L147.555 219.048L119.062 201.96L90.5693 219.048Z" fill="white"/>
<path d="M177.609 272.187L147.945 254.396V218.814L148.101 218.736L177.609 201.023L207.273 218.814V254.396L207.116 254.474L177.609 272.187ZM148.726 253.928L177.609 271.251L206.492 253.928V219.283L177.609 201.96L148.726 219.283V253.928Z" fill="white"/>
<path d="M177.609 237.073L147.555 219.048L177.609 201.023L207.663 219.048L177.609 237.073ZM149.116 219.048L177.609 236.137L206.102 219.048L177.609 201.96L149.116 219.048Z" fill="white"/>
<path d="M207.054 8.83545L177.39 -8.95544V-44.5372L207.054 -62.3281L236.718 -44.5372V-8.95544L207.054 8.83545ZM178.171 -9.42363L207.054 7.89909L235.937 -9.42363V-44.069L207.054 -61.3918L178.171 -44.069V-9.42363Z" fill="white"/>
<path d="M207.444 -26.75H206.664V8.36361H207.444V-26.75Z" fill="white"/>
<path d="M265.601 8.83545L235.937 -8.95544V-44.5372L265.601 -62.3281L295.265 -44.5372V-8.95544L265.601 8.83545ZM236.718 -9.42363L265.601 7.89909L294.484 -9.42363V-44.069L265.601 -61.3918L236.718 -44.069V-9.42363Z" fill="white"/>
<path d="M265.991 -26.75H265.21V8.36361H265.991V-26.75Z" fill="white"/>
<path d="M324.148 8.83545L294.484 -8.95544V-44.5372L324.148 -62.3281L353.812 -44.5372V-8.95544L324.148 8.83545ZM295.265 -9.42363L324.148 7.89909L353.031 -9.42363V-44.069L324.148 -61.3918L295.265 -44.069V-9.42363Z" fill="white"/>
<path d="M324.538 -26.75H323.758V8.36361H324.538V-26.75Z" fill="white"/>
<path d="M382.695 8.83545L353.031 -8.95544V-44.5372L382.695 -62.3281L412.359 -44.5372V-8.95544L382.695 8.83545ZM353.812 -9.42363L382.695 7.89909L411.578 -9.42363V-44.069L382.695 -61.3918L353.812 -44.069V-9.42363Z" fill="white"/>
<path d="M383.085 -26.75H382.304V8.36361H383.085V-26.75Z" fill="white"/>
<path d="M236.328 61.5034L206.664 43.7125V8.13074L236.328 -9.66016L265.991 8.13074V43.7125L236.328 61.5034ZM207.444 43.2443L236.328 60.567L265.211 43.2443V8.59892L236.328 -8.72379L207.444 8.59892V43.2443Z" fill="white"/>
<path d="M236.328 26.3898L206.273 8.36483L236.328 -9.66016L266.382 8.36483L236.328 26.3898ZM207.835 8.36483L236.328 25.4534L264.82 8.36483L236.328 -8.72379L207.835 8.36483Z" fill="white"/>
<path d="M236.718 25.9219H235.937V61.0355H236.718V25.9219Z" fill="white"/>
<path d="M294.874 61.5034L265.21 43.7125V8.13074L294.874 -9.66016L324.538 8.13074V43.7125L294.874 61.5034ZM265.991 43.2443L294.874 60.567L323.757 43.2443V8.59892L294.874 -8.72379L265.991 8.59892V43.2443Z" fill="white"/>
<path d="M294.874 26.3898L264.82 8.36483L294.874 -9.66016L324.928 8.36483L294.874 26.3898ZM266.382 8.36483L294.874 25.4534L323.367 8.36483L294.874 -8.72379L266.382 8.36483Z" fill="white"/>
<path d="M295.265 25.9219H294.484V61.0355H295.265V25.9219Z" fill="white"/>
<path d="M353.422 61.5034L323.758 43.7125V8.13074L353.422 -9.66016L383.085 8.13074V43.7125L353.422 61.5034ZM324.538 43.2443L353.422 60.567L382.305 43.2443V8.59892L353.422 -8.72379L324.538 8.59892V43.2443Z" fill="white"/>
<path d="M353.421 26.3898L323.367 8.36483L353.421 -9.66016L383.475 8.36483L353.421 26.3898ZM324.928 8.36483L353.421 25.4534L381.914 8.36483L353.421 -8.72379L324.928 8.36483Z" fill="white"/>
<path d="M353.812 25.9219H353.031V61.0355H353.812V25.9219Z" fill="white"/>
<path d="M411.968 61.5034L382.304 43.7125V8.13074L411.968 -9.66016L441.632 8.13074V43.7125L441.476 43.7906L411.968 61.5034ZM383.085 43.2443L411.968 60.567L440.851 43.2443V8.59892L411.968 -8.72379L383.085 8.59892V43.2443Z" fill="white"/>
<path d="M411.968 26.3898L381.914 8.36483L411.968 -9.66016L442.022 8.36483L411.968 26.3898ZM383.475 8.36483L411.968 25.4534L440.461 8.36483L411.968 -8.72379L383.475 8.36483Z" fill="white"/>
<path d="M207.054 114.175L177.39 96.3844V60.8026L207.054 43.0117L236.718 60.8026V96.3844L207.054 114.175ZM178.171 95.9162L207.054 113.239L235.937 95.9162V61.2708L207.054 43.9481L178.171 61.2708V95.9162Z" fill="white"/>
<path d="M207.054 79.0617L177 61.0367L207.054 43.0117L237.108 61.0367L207.054 79.0617ZM178.561 61.0367L207.054 78.1253L235.547 61.0367L207.054 43.9481L178.561 61.0367Z" fill="white"/>
<path d="M207.444 78.5938H206.664V113.707H207.444V78.5938Z" fill="white"/>
<path d="M265.601 114.175L235.937 96.3844V60.8026L265.601 43.0117L295.265 60.8026V96.3844L265.601 114.175ZM236.718 95.9162L265.601 113.239L294.484 95.9162V61.2708L265.601 43.9481L236.718 61.2708V95.9162Z" fill="white"/>
<path d="M265.601 79.0617L235.547 61.0367L265.601 43.0117L295.655 61.0367L265.601 79.0617ZM237.108 61.0367L265.601 78.1253L294.094 61.0367L265.601 43.9481L237.108 61.0367Z" fill="white"/>
<path d="M265.991 78.5938H265.21V113.707H265.991V78.5938Z" fill="white"/>
<path d="M324.148 114.175L294.484 96.3844V60.8026L324.148 43.0117L353.812 60.8026V96.3844L324.148 114.175ZM295.265 95.9162L324.148 113.239L353.031 95.9162V61.2708L324.148 43.9481L295.265 61.2708V95.9162Z" fill="white"/>
<path d="M324.148 79.0617L294.094 61.0367L324.148 43.0117L354.202 61.0367L324.148 79.0617ZM295.655 61.0367L324.148 78.1253L352.641 61.0367L324.148 43.9481L295.655 61.0367Z" fill="white"/>
<path d="M324.538 78.5938H323.758V113.707H324.538V78.5938Z" fill="white"/>
<path d="M382.695 114.175L353.031 96.3844V60.8026L382.695 43.0117L412.359 60.8026V96.3844L382.695 114.175ZM353.812 95.9162L382.695 113.239L411.578 95.9162V61.2708L382.695 43.9481L353.812 61.2708V95.9162Z" fill="white"/>
<path d="M382.695 79.0617L352.641 61.0367L382.695 43.0117L412.749 61.0367L382.695 79.0617ZM354.202 61.0367L382.695 78.1253L411.188 61.0367L382.695 43.9481L354.202 61.0367Z" fill="white"/>
<path d="M383.085 78.5938H382.304V113.707H383.085V78.5938Z" fill="white"/>
<path d="M236.328 166.843L206.664 149.052V113.471L236.328 95.6797L265.991 113.471V149.052L236.328 166.843ZM207.444 148.584L236.328 165.907L265.211 148.584V113.939L236.328 96.6161L207.444 113.939V148.584Z" fill="white"/>
<path d="M236.328 131.73L206.273 113.705L236.328 95.6797L266.382 113.705L236.328 131.73ZM207.835 113.705L236.328 130.793L264.82 113.705L236.328 96.6161L207.835 113.705Z" fill="white"/>
<path d="M236.718 131.262H235.937V166.375H236.718V131.262Z" fill="white"/>
<path d="M294.874 166.843L265.21 149.052V113.471L294.874 95.6797L324.538 113.471V149.052L294.874 166.843ZM265.991 148.584L294.874 165.907L323.757 148.584V113.939L294.874 96.6161L265.991 113.939V148.584Z" fill="white"/>
<path d="M294.874 131.73L264.82 113.705L294.874 95.6797L324.928 113.705L294.874 131.73ZM266.382 113.705L294.874 130.793L323.367 113.705L294.874 96.6161L266.382 113.705Z" fill="white"/>
<path d="M295.265 131.262H294.484V166.375H295.265V131.262Z" fill="white"/>
<path d="M353.422 166.843L323.758 149.052V113.471L353.422 95.6797L383.085 113.471V149.052L353.422 166.843ZM324.538 148.584L353.422 165.907L382.305 148.584V113.939L353.422 96.6161L324.538 113.939V148.584Z" fill="white"/>
<path d="M353.421 131.73L323.367 113.705L353.421 95.6797L383.475 113.705L353.421 131.73ZM324.928 113.705L353.421 130.793L381.914 113.705L353.421 96.6161L324.928 113.705Z" fill="white"/>
<path d="M353.812 131.262H353.031V166.375H353.812V131.262Z" fill="white"/>
<path d="M411.968 166.843L382.304 149.052V113.471L411.968 95.6797L441.632 113.471V149.052L441.476 149.13L411.968 166.843ZM383.085 148.584L411.968 165.907L440.851 148.584V113.939L411.968 96.6161L383.085 113.939V148.584Z" fill="white"/>
<path d="M411.968 131.73L381.914 113.705L411.968 95.6797L442.022 113.705L411.968 131.73ZM383.475 113.705L411.968 130.793L440.461 113.705L411.968 96.6161L383.475 113.705Z" fill="white"/>
<path d="M207.054 219.515L177.39 201.724V166.142L207.054 148.352L236.718 166.142V201.724L207.054 219.515ZM178.171 201.256L207.054 218.579L235.937 201.256V166.611L207.054 149.288L178.171 166.611V201.256Z" fill="white"/>
<path d="M207.054 184.402L177 166.377L207.054 148.352L237.108 166.377L207.054 184.402ZM178.561 166.377L207.054 183.465L235.547 166.377L207.054 149.288L178.561 166.377Z" fill="white"/>
<path d="M207.444 183.934H206.664V219.047H207.444V183.934Z" fill="white"/>
<path d="M265.601 219.515L235.937 201.724V166.142L265.601 148.352L295.265 166.142V201.724L265.601 219.515ZM236.718 201.256L265.601 218.579L294.484 201.256V166.611L265.601 149.288L236.718 166.611V201.256Z" fill="white"/>
<path d="M265.601 184.402L235.547 166.377L265.601 148.352L295.655 166.377L265.601 184.402ZM237.108 166.377L265.601 183.465L294.094 166.377L265.601 149.288L237.108 166.377Z" fill="white"/>
<path d="M265.991 183.934H265.21V219.047H265.991V183.934Z" fill="white"/>
<path d="M324.148 219.515L294.484 201.724V166.142L324.148 148.352L353.812 166.142V201.724L324.148 219.515ZM295.265 201.256L324.148 218.579L353.031 201.256V166.611L324.148 149.288L295.265 166.611V201.256Z" fill="white"/>
<path d="M324.148 184.402L294.094 166.377L324.148 148.352L354.202 166.377L324.148 184.402ZM295.655 166.377L324.148 183.465L352.641 166.377L324.148 149.288L295.655 166.377Z" fill="white"/>
<path d="M324.538 183.934H323.758V219.047H324.538V183.934Z" fill="white"/>
<path d="M382.695 219.515L353.031 201.724V166.142L382.695 148.352L412.359 166.142V201.724L382.695 219.515ZM353.812 201.256L382.695 218.579L411.578 201.256V166.611L382.695 149.288L353.812 166.611V201.256Z" fill="white"/>
<path d="M382.695 184.402L352.641 166.377L382.695 148.352L412.749 166.377L382.695 184.402ZM354.202 166.377L382.695 183.465L411.188 166.377L382.695 149.288L354.202 166.377Z" fill="white"/>
<path d="M383.085 183.934H382.304V219.047H383.085V183.934Z" fill="white"/>
<path d="M236.328 272.187L206.664 254.396V218.814L236.328 201.023L265.991 218.814V254.396L236.328 272.187ZM207.444 253.928L236.328 271.251L265.211 253.928V219.283L236.328 201.96L207.444 219.283V253.928Z" fill="white"/>
<path d="M236.328 237.073L206.273 219.048L236.328 201.023L266.382 219.048L236.328 237.073ZM207.835 219.048L236.328 236.137L264.82 219.048L236.328 201.96L207.835 219.048Z" fill="white"/>
<path d="M294.874 272.187L265.21 254.396V218.814L294.874 201.023L324.538 218.814V254.396L294.874 272.187ZM265.991 253.928L294.874 271.251L323.757 253.928V219.283L294.874 201.96L265.991 219.283V253.928Z" fill="white"/>
<path d="M294.874 237.073L264.82 219.048L294.874 201.023L324.928 219.048L294.874 237.073ZM266.382 219.048L294.874 236.137L323.367 219.048L294.874 201.96L266.382 219.048Z" fill="white"/>
<path d="M353.422 272.187L323.758 254.396V218.814L353.422 201.023L383.085 218.814V254.396L353.422 272.187ZM324.538 253.928L353.422 271.251L382.305 253.928V219.283L353.422 201.96L324.538 219.283V253.928Z" fill="white"/>
<path d="M353.421 237.073L323.367 219.048L353.421 201.023L383.475 219.048L353.421 237.073ZM324.928 219.048L353.421 236.137L381.914 219.048L353.421 201.96L324.928 219.048Z" fill="white"/>
<path d="M411.968 272.187L382.304 254.396V218.814L411.968 201.023L441.632 218.814V254.396L441.476 254.474L411.968 272.187ZM383.085 253.928L411.968 271.251L440.851 253.928V219.283L411.968 201.96L383.085 219.283V253.928Z" fill="white"/>
<path d="M411.968 237.073L381.914 219.048L411.968 201.023L442.022 219.048L411.968 237.073ZM383.475 219.048L411.968 236.137L440.461 219.048L411.968 201.96L383.475 219.048Z" fill="white"/>
</g>
</g>
</svg>
