<svg width="24" height="24" viewBox="0 0 24 24" fill="none" xmlns="http://www.w3.org/2000/svg">
<path d="M8.27273 15.2759C6.46525 15.2759 5 13.8107 5 12.0032C5 10.1957 6.46525 8.73047 8.27273 8.73047C10.0433 8.77285 11.5455 10.2224 11.5455 12.0032C11.5455 13.784 10.0433 15.2335 8.27273 15.2759Z" fill="#555770"/>
<path fill-rule="evenodd" clip-rule="evenodd" d="M13.5234 12C13.5234 9.44048 11.6918 7.30875 9.2678 6.84404C8.7254 6.74006 8.27344 6.30229 8.27344 5.75V1C8.27344 0.447715 8.72272 -0.00434558 9.27314 0.041049C15.4328 0.549057 20.2734 5.70923 20.2734 12C20.2734 18.2908 15.4328 23.4509 9.27314 23.959C8.72272 24.0043 8.27344 23.5523 8.27344 23V18.25C8.27344 17.6977 8.7254 17.2599 9.2678 17.156C11.6918 16.6913 13.5234 14.5595 13.5234 12Z" fill="#555770"/>
</svg>
