<svg width="24" height="24" viewBox="0 0 24 24" fill="none" xmlns="http://www.w3.org/2000/svg">
<path d="M21.7031 3.84375H2.20312C1.78828 3.84375 1.45312 4.17891 1.45312 4.59375V19.5938C1.45312 20.0086 1.78828 20.3438 2.20312 20.3438H21.7031C22.118 20.3438 22.4531 20.0086 22.4531 19.5938V4.59375C22.4531 4.17891 22.118 3.84375 21.7031 3.84375ZM19.5398 8.4L12.5789 15.3656C12.5437 15.4005 12.4961 15.4201 12.4465 15.4201C12.3969 15.4201 12.3493 15.4005 12.3141 15.3656L9.63047 12.682L5.5875 16.7273C5.55226 16.7622 5.50467 16.7818 5.45508 16.7818C5.40549 16.7818 5.3579 16.7622 5.32266 16.7273L4.46016 15.8648C4.42526 15.8296 4.40569 15.782 4.40569 15.7324C4.40569 15.6828 4.42526 15.6352 4.46016 15.6L9.49688 10.5609C9.56953 10.4883 9.68906 10.4883 9.76172 10.5609L12.4453 13.2422L18.4102 7.275C18.4828 7.20234 18.6023 7.20234 18.675 7.275L19.5375 8.1375C19.6125 8.20781 19.6125 8.32734 19.5398 8.4Z" fill="#555770"/>
</svg>
