<svg width="24" height="24" viewBox="0 0 24 24" fill="none" xmlns="http://www.w3.org/2000/svg">
<path d="M21.675 9.0375C21.1479 7.78994 20.3838 6.6565 19.425 5.7C18.4685 4.74119 17.3351 3.97707 16.0875 3.45C14.7914 2.90156 13.418 2.625 12 2.625C10.582 2.625 9.20859 2.90156 7.9125 3.45C6.66494 3.97707 5.5315 4.74119 4.575 5.7C3.61619 6.6565 2.85207 7.78994 2.325 9.0375C1.77656 10.3336 1.5 11.707 1.5 13.125C1.5 16.2352 2.86641 19.1648 5.24766 21.1664L5.2875 21.1992C5.42344 21.3117 5.59453 21.375 5.77031 21.375H18.232C18.4078 21.375 18.5789 21.3117 18.7148 21.1992L18.7547 21.1664C21.1336 19.1648 22.5 16.2352 22.5 13.125C22.5 11.707 22.2211 10.3336 21.675 9.0375ZM11.2969 5.4375C11.2969 5.33437 11.3813 5.25 11.4844 5.25H12.5156C12.6187 5.25 12.7031 5.33437 12.7031 5.4375V7.3125C12.7031 7.41563 12.6187 7.5 12.5156 7.5H11.4844C11.3813 7.5 11.2969 7.41563 11.2969 7.3125V5.4375ZM6.32812 13.6406C6.32812 13.7437 6.24375 13.8281 6.14062 13.8281H4.26562C4.1625 13.8281 4.07812 13.7437 4.07812 13.6406V12.6094C4.07812 12.5063 4.1625 12.4219 4.26562 12.4219H6.14062C6.24375 12.4219 6.32812 12.5063 6.32812 12.6094V13.6406ZM8.45391 8.84766L7.725 9.57656C7.68976 9.61146 7.64217 9.63103 7.59258 9.63103C7.54299 9.63103 7.4954 9.61146 7.46016 9.57656L6.13359 8.25C6.0987 8.21476 6.07913 8.16717 6.07913 8.11758C6.07913 8.06799 6.0987 8.0204 6.13359 7.98516L6.8625 7.25625C6.93516 7.18359 7.05469 7.18359 7.12734 7.25625L8.45391 8.58281C8.52656 8.65547 8.52656 8.775 8.45391 8.84766ZM15.2766 10.807L13.2961 12.7875C13.4133 13.2258 13.3008 13.7109 12.9562 14.0555C12.8344 14.1775 12.6898 14.2743 12.5305 14.3404C12.3713 14.4064 12.2005 14.4404 12.0281 14.4404C11.8557 14.4404 11.685 14.4064 11.5257 14.3404C11.3665 14.2743 11.2218 14.1775 11.1 14.0555C10.978 13.9337 10.8812 13.789 10.8151 13.6297C10.749 13.4705 10.715 13.2998 10.715 13.1273C10.715 12.9549 10.749 12.7842 10.8151 12.6249C10.8812 12.4657 10.978 12.321 11.1 12.1992C11.2627 12.036 11.4657 11.9186 11.6883 11.8589C11.911 11.7993 12.1454 11.7994 12.368 11.8594L14.3484 9.87891C14.4211 9.80625 14.5406 9.80625 14.6133 9.87891L15.2766 10.5422C15.3492 10.6148 15.3492 10.732 15.2766 10.807ZM16.2844 9.57891L15.5555 8.85C15.5206 8.81476 15.501 8.76717 15.501 8.71758C15.501 8.66799 15.5206 8.6204 15.5555 8.58516L16.882 7.25859C16.9547 7.18594 17.0742 7.18594 17.1469 7.25859L17.8758 7.9875C17.9484 8.06016 17.9484 8.17969 17.8758 8.25234L16.5492 9.57891C16.514 9.6138 16.4664 9.63338 16.4168 9.63338C16.3672 9.63338 16.3196 9.6138 16.2844 9.57891ZM19.8281 13.6406C19.8281 13.7437 19.7437 13.8281 19.6406 13.8281H17.7656C17.6625 13.8281 17.5781 13.7437 17.5781 13.6406V12.6094C17.5781 12.5063 17.6625 12.4219 17.7656 12.4219H19.6406C19.7437 12.4219 19.8281 12.5063 19.8281 12.6094V13.6406Z" fill="#555770"/>
</svg>
