<svg width="815" height="471" viewBox="0 0 815 471" fill="none" xmlns="http://www.w3.org/2000/svg">
<g opacity="0.45">
<mask id="mask0" mask-type="alpha" maskUnits="userSpaceOnUse" x="119" y="68" width="577" height="334">
<circle r="235.199" transform="matrix(0.866044 -0.499967 0.866044 0.499967 407.386 235.184)" fill="url(#paint0_radial)"/>
</mask>
<g mask="url(#mask0)">
<path opacity="0.15" d="M452.573 445.102L453.446 444.598L497.98 418.889L498.853 418.385L543.386 392.676L544.26 392.172L588.793 366.462L589.666 365.958L634.2 340.249L635.073 339.745L679.607 314.036L680.48 313.532L725.014 287.822L725.887 287.318L770.42 261.609L771.294 261.105L815.827 235.396L816.7 234.892L815.828 234.388L771.332 208.701L770.46 208.197L725.965 182.51L725.092 182.006L680.597 156.319L679.724 155.815L635.229 130.128L634.356 129.625L589.861 103.937L588.988 103.434L544.493 77.7465L543.621 77.2428L499.125 51.5556L498.253 51.0519L453.757 25.3647L452.885 24.8611L408.389 -0.826123L407.517 -1.32979L406.644 -0.825686L271.296 77.3102L270.423 77.8143L135.076 155.95L134.203 156.454L-2.01758 235.094L134.086 313.667L134.959 314.171L270.19 392.239L271.062 392.743L406.293 470.812L407.166 471.316L408.039 470.812L452.573 445.102ZM362.982 25.3872L407.516 -0.322016L452.012 25.3652L407.478 51.0744L362.982 25.3872ZM408.35 51.5781L452.884 25.8688L497.379 51.556L452.846 77.2653L408.35 51.5781ZM453.718 77.7689L498.252 52.0597L542.747 77.7469L498.214 103.456L453.718 77.7689ZM499.086 103.96L543.62 78.2506L588.115 103.938L543.582 129.647L499.086 103.96ZM544.454 130.151L588.988 104.441L633.483 130.129L588.949 155.838L544.454 130.151ZM589.822 156.342L634.356 130.632L678.851 156.32L634.317 182.029L589.822 156.342ZM635.19 182.532L679.723 156.823L724.219 182.51L679.685 208.22L635.19 182.532ZM680.558 208.723L725.091 183.014L769.587 208.701L725.053 234.41L680.558 208.723ZM725.926 234.914L770.459 209.205L814.955 234.892L770.421 260.601L725.926 234.914ZM317.576 51.6005L362.109 25.8913L406.605 51.5785L362.071 77.2877L317.576 51.6005ZM362.944 77.7914L407.477 52.0822L451.973 77.7694L407.439 103.479L362.944 77.7914ZM408.311 103.982L452.845 78.273L497.341 103.96L452.807 129.669L408.311 103.982ZM453.679 130.173L498.213 104.464L542.708 130.151L498.175 155.86L453.679 130.173ZM499.047 156.364L543.581 130.655L588.076 156.342L543.543 182.051L499.047 156.364ZM544.415 182.555L588.949 156.846L633.444 182.533L588.911 208.242L544.415 182.555ZM589.783 208.746L634.317 183.036L678.812 208.724L634.278 234.433L589.783 208.746ZM635.151 234.937L679.685 209.227L724.18 234.915L679.646 260.624L635.151 234.937ZM680.519 261.127L725.052 235.418L769.548 261.105L725.014 286.815L680.519 261.127ZM272.169 77.8139L316.702 52.1046L361.198 77.7918L316.664 103.501L272.169 77.8139ZM317.537 104.005L362.07 78.2955L406.566 103.983L362.032 129.692L317.537 104.005ZM362.905 130.196L407.438 104.486L451.934 130.174L407.4 155.883L362.905 130.196ZM408.273 156.386L452.806 130.677L497.302 156.364L452.768 182.074L408.273 156.386ZM453.64 182.577L498.174 156.868L542.669 182.555L498.136 208.265L453.64 182.577ZM499.008 208.768L543.542 183.059L588.037 208.746L543.504 234.455L499.008 208.768ZM544.376 234.959L588.91 209.25L633.405 234.937L588.872 260.646L544.376 234.959ZM589.744 261.15L634.278 235.441L678.773 261.128L634.24 286.837L589.744 261.15ZM635.112 287.341L679.646 261.632L724.141 287.319L679.607 313.028L635.112 287.341ZM226.762 104.027L271.296 78.318L315.791 104.005L271.258 129.714L226.762 104.027ZM272.13 130.218L316.664 104.509L361.159 130.196L316.625 155.905L272.13 130.218ZM317.498 156.409L362.031 130.7L406.527 156.387L361.993 182.096L317.498 156.409ZM362.866 182.6L407.399 156.891L451.895 182.578L407.361 208.287L362.866 182.6ZM408.234 208.791L452.767 183.081L497.263 208.769L452.729 234.478L408.234 208.791ZM453.602 234.982L498.135 209.272L542.631 234.959L498.097 260.669L453.602 234.982ZM498.969 261.172L543.503 235.463L587.998 261.15L543.465 286.86L498.969 261.172ZM544.337 287.363L588.871 261.654L633.366 287.341L588.833 313.05L544.337 287.363ZM589.705 313.554L634.239 287.845L678.734 313.532L634.201 339.241L589.705 313.554ZM181.355 130.241L225.889 104.531L270.384 130.218L225.851 155.928L181.355 130.241ZM226.723 156.431L271.257 130.722L315.752 156.409L271.219 182.119L226.723 156.431ZM272.091 182.622L316.625 156.913L361.12 182.6L316.587 208.309L272.091 182.622ZM317.459 208.813L361.993 183.104L406.488 208.791L361.954 234.5L317.459 208.813ZM362.827 235.004L407.36 209.295L451.856 234.982L407.322 260.691L362.827 235.004ZM408.195 261.195L452.728 235.486L497.224 261.173L452.69 286.882L408.195 261.195ZM453.563 287.386L498.096 261.676L542.592 287.364L498.058 313.073L453.563 287.386ZM498.931 313.577L543.464 287.867L587.96 313.555L543.426 339.264L498.931 313.577ZM544.298 339.767L588.832 314.058L633.327 339.745L588.794 365.455L544.298 339.767ZM135.948 156.454L180.482 130.745L224.978 156.432L180.444 182.141L135.948 156.454ZM181.316 182.645L225.85 156.935L270.345 182.623L225.812 208.332L181.316 182.645ZM226.684 208.836L271.218 183.126L315.713 208.814L271.18 234.523L226.684 208.836ZM272.052 235.026L316.586 209.317L361.081 235.004L316.548 260.714L272.052 235.026ZM317.42 261.217L361.954 235.508L406.449 261.195L361.915 286.904L317.42 261.217ZM362.788 287.408L407.322 261.699L451.817 287.386L407.283 313.095L362.788 287.408ZM408.156 313.599L452.689 287.89L497.185 313.577L452.651 339.286L408.156 313.599ZM453.524 339.79L498.057 314.081L542.553 339.768L498.019 365.477L453.524 339.79ZM498.892 365.981L543.425 340.272L587.921 365.959L543.387 391.668L498.892 365.981ZM90.5417 182.667L135.075 156.958L179.571 182.645L135.037 208.354L90.5417 182.667ZM135.91 208.858L180.443 183.149L224.939 208.836L180.405 234.545L135.91 208.858ZM181.277 235.049L225.811 209.34L270.307 235.027L225.773 260.736L181.277 235.049ZM226.645 261.24L271.179 235.531L315.674 261.218L271.141 286.927L226.645 261.24ZM272.013 287.431L316.547 261.721L361.042 287.409L316.509 313.118L272.013 287.431ZM317.381 313.621L361.915 287.912L406.41 313.599L361.877 339.309L317.381 313.621ZM362.749 339.812L407.283 314.103L451.778 339.79L407.244 365.5L362.749 339.812ZM408.117 366.003L452.651 340.294L497.146 365.981L452.612 391.69L408.117 366.003ZM453.485 392.194L498.018 366.485L542.514 392.172L497.98 417.881L453.485 392.194ZM45.1349 208.88L89.6685 183.171L134.164 208.858L89.6303 234.568L45.1349 208.88ZM90.5028 235.071L135.036 209.362L179.532 235.049L134.998 260.759L90.5028 235.071ZM135.871 261.262L180.404 235.553L224.9 261.24L180.366 286.949L135.871 261.262ZM181.239 287.453L225.772 261.744L270.268 287.431L225.734 313.14L181.239 287.453ZM226.606 313.644L271.14 287.935L315.635 313.622L271.102 339.331L226.606 313.644ZM271.974 339.835L316.508 314.126L361.003 339.813L316.47 365.522L271.974 339.835ZM317.342 366.026L361.876 340.316L406.371 366.004L361.838 391.713L317.342 366.026ZM362.71 392.217L407.244 366.507L451.739 392.194L407.206 417.904L362.71 392.217ZM408.078 418.407L452.612 392.698L497.107 418.385L452.573 444.095L408.078 418.407ZM-0.271911 235.094L44.2617 209.385L88.7571 235.072L44.2235 260.781L-0.271911 235.094ZM45.096 261.285L89.6296 235.575L134.125 261.263L89.5914 286.972L45.096 261.285ZM90.4639 287.476L134.997 261.766L179.493 287.454L134.959 313.163L90.4639 287.476ZM135.832 313.666L180.365 287.957L224.861 313.644L180.327 339.354L135.832 313.666ZM181.2 339.857L225.733 314.148L270.229 339.835L225.695 365.544L181.2 339.857ZM226.568 366.048L271.101 340.339L315.597 366.026L271.063 391.735L226.568 366.048ZM271.935 392.239L316.469 366.53L360.964 392.217L316.431 417.926L271.935 392.239ZM317.303 418.43L361.837 392.721L406.332 418.408L361.799 444.117L317.303 418.43ZM362.671 444.621L407.205 418.911L451.7 444.599L407.167 470.308L362.671 444.621Z" fill="#8F90A6"/>
<path d="M133.252 261.262L134.999 260.254L136.744 261.261L134.997 262.269L133.252 261.262ZM44.2616 209.888L46.008 208.879L44.2631 207.872L42.5166 208.88L44.2616 209.888ZM180.385 262.258L182.131 261.25L180.386 260.243L178.64 261.251L180.385 262.258ZM89.6295 236.079L91.3759 235.07L89.6309 234.063L87.8845 235.071L89.6295 236.079ZM135.017 236.067L136.763 235.059L135.018 234.052L133.272 235.06L135.017 236.067ZM44.2421 236.09L45.9885 235.082L44.2436 234.074L42.4972 235.082L44.2421 236.09ZM89.5905 288.483L91.337 287.475L89.592 286.467L87.8456 287.475L89.5905 288.483ZM134.978 288.472L136.724 287.463L134.979 286.456L133.233 287.464L134.978 288.472ZM44.2241 260.276L42.4777 261.285L44.2227 262.292L45.9691 261.284L44.2241 260.276ZM89.61 262.281L91.3564 261.272L89.6115 260.265L87.8651 261.273L89.61 262.281ZM135.056 183.663L136.802 182.655L135.057 181.648L133.311 182.656L135.056 183.663ZM89.6489 209.876L91.3953 208.868L89.6504 207.861L87.904 208.869L89.6489 209.876ZM180.424 209.854L182.17 208.846L180.425 207.838L178.679 208.847L180.424 209.854ZM225.791 236.045L227.538 235.037L225.793 234.029L224.047 235.038L225.791 236.045ZM180.404 236.056L182.151 235.048L180.406 234.041L178.659 235.049L180.404 236.056ZM135.036 209.865L136.783 208.857L135.038 207.85L133.291 208.858L135.036 209.865ZM89.6684 183.674L91.4148 182.666L89.6699 181.659L87.9234 182.667L89.6684 183.674ZM-4.63396 232.575L-5.50717 233.079L-2.01733 235.093L-5.51016 237.11L-4.6377 237.614L-1.14487 235.597L2.34497 237.612L3.21817 237.108L-0.271664 235.093L3.22117 233.077L2.34871 232.573L-1.14412 234.589L-4.63396 232.575ZM271.218 183.629L272.964 182.621L271.219 181.614L269.473 182.622L271.218 183.629ZM180.482 131.248L182.228 130.239L180.483 129.232L178.737 130.24L180.482 131.248ZM316.605 183.618L318.352 182.61L316.607 181.603L314.86 182.611L316.605 183.618ZM225.85 157.439L227.596 156.43L225.851 155.423L224.105 156.431L225.85 157.439ZM271.237 157.427L272.984 156.419L271.239 155.412L269.492 156.42L271.237 157.427ZM180.463 157.45L182.209 156.442L180.464 155.434L178.718 156.442L180.463 157.45ZM225.811 209.843L227.557 208.835L225.812 207.827L224.066 208.835L225.811 209.843ZM271.198 209.832L272.945 208.823L271.2 207.816L269.453 208.824L271.198 209.832ZM180.445 181.636L178.698 182.645L180.443 183.652L182.189 182.644L180.445 181.636ZM225.83 183.641L227.577 182.632L225.832 181.625L224.085 182.633L225.83 183.641ZM271.276 105.023L273.023 104.015L271.278 103.008L269.531 104.016L271.276 105.023ZM225.869 131.236L227.616 130.228L225.871 129.221L224.124 130.229L225.869 131.236ZM316.644 131.214L318.39 130.206L316.645 129.198L314.899 130.207L316.644 131.214ZM362.012 157.405L363.758 156.397L362.013 155.389L360.267 156.398L362.012 157.405ZM316.625 157.416L318.371 156.408L316.626 155.401L314.88 156.409L316.625 157.416ZM271.257 131.225L273.003 130.217L271.258 129.21L269.512 130.218L271.257 131.225ZM225.889 105.034L227.635 104.026L225.89 103.019L224.144 104.027L225.889 105.034ZM131.586 153.935L130.713 154.439L134.203 156.453L130.71 158.47L131.583 158.974L135.076 156.957L138.565 158.972L139.439 158.468L135.949 156.453L139.442 154.437L138.569 153.933L135.076 155.949L131.586 153.935ZM407.438 104.989L409.185 103.981L407.44 102.974L405.693 103.982L407.438 104.989ZM316.702 52.6076L318.449 51.5994L316.704 50.5921L314.957 51.6003L316.702 52.6076ZM452.826 104.978L454.572 103.97L452.827 102.963L451.081 103.971L452.826 104.978ZM362.07 78.7985L363.817 77.7903L362.072 76.783L360.325 77.7912L362.07 78.7985ZM407.458 78.7873L409.204 77.7791L407.459 76.7717L405.713 77.7799L407.458 78.7873ZM316.683 78.8097L318.429 77.8015L316.684 76.7942L314.938 77.8024L316.683 78.8097ZM362.031 131.203L363.778 130.195L362.033 129.187L360.286 130.195L362.031 131.203ZM407.419 131.192L409.165 130.183L407.42 129.176L405.674 130.184L407.419 131.192ZM316.665 102.996L314.919 104.005L316.663 105.012L318.41 104.004L316.665 102.996ZM362.051 105.001L363.797 103.992L362.052 102.985L360.306 103.993L362.051 105.001ZM407.497 26.383L409.243 25.3748L407.498 24.3675L405.752 25.3757L407.497 26.383ZM498.252 52.5627L499.998 51.5545L498.253 50.5472L496.507 51.5554L498.252 52.5627ZM452.885 24.3563L451.139 25.3645L452.884 26.3718L454.63 25.3636L452.885 24.3563ZM362.09 52.5964L363.836 51.5882L362.091 50.5809L360.345 51.5891L362.09 52.5964ZM452.864 52.5739L454.611 51.5657L452.866 50.5584L451.119 51.5666L452.864 52.5739ZM498.232 78.7648L499.979 77.7566L498.234 76.7493L496.487 77.7575L498.232 78.7648ZM452.845 78.7761L454.591 77.7679L452.846 76.7605L451.1 77.7687L452.845 78.7761ZM407.477 52.5852L409.223 51.577L407.479 50.5696L405.732 51.5778L407.477 52.5852ZM362.109 26.3943L363.856 25.3861L362.111 24.3787L360.364 25.3869L362.109 26.3943ZM407.517 -1.33072L404.027 -3.34541L403.154 -2.8413L406.644 -0.826614L403.151 1.18979L404.024 1.69346L407.516 -0.322943L411.006 1.69174L411.879 1.18763L408.39 -0.827051L411.882 -2.84347L411.01 -3.34714L407.517 -1.33072ZM267.807 75.2946L266.934 75.7987L270.423 77.8134L266.931 79.8298L267.803 80.3335L271.296 78.3171L274.786 80.3318L275.659 79.8277L272.169 77.813L275.662 75.7966L274.79 75.2929L271.297 77.3093L267.807 75.2946ZM271.101 340.842L272.847 339.834L271.103 338.827L269.356 339.835L271.101 340.842ZM180.365 288.46L182.112 287.452L180.367 286.445L178.62 287.453L180.365 288.46ZM316.488 340.831L318.235 339.823L316.49 338.815L314.743 339.824L316.488 340.831ZM225.733 314.651L227.48 313.643L225.735 312.636L223.988 313.644L225.733 314.651ZM271.12 314.64L272.867 313.632L271.122 312.624L269.376 313.633L271.12 314.64ZM180.346 314.662L182.092 313.654L180.347 312.647L178.601 313.655L180.346 314.662ZM225.694 367.055L227.441 366.047L225.696 365.04L223.949 366.048L225.694 367.055ZM271.082 367.044L272.828 366.036L271.083 365.029L269.337 366.037L271.082 367.044ZM180.328 338.849L178.581 339.857L180.326 340.865L182.073 339.856L180.328 338.849ZM225.714 340.853L227.46 339.845L225.715 338.838L223.969 339.846L225.714 340.853ZM271.159 262.236L272.906 261.228L271.161 260.22L269.414 261.228L271.159 262.236ZM225.753 288.449L227.499 287.441L225.754 286.434L224.008 287.442L225.753 288.449ZM316.527 288.427L318.274 287.418L316.529 286.411L314.782 287.419L316.527 288.427ZM361.895 314.618L363.642 313.609L361.897 312.602L360.15 313.61L361.895 314.618ZM316.508 314.629L318.254 313.621L316.509 312.613L314.763 313.621L316.508 314.629ZM271.14 288.438L272.886 287.43L271.141 286.422L269.395 287.431L271.14 288.438ZM225.772 262.247L227.518 261.239L225.774 260.231L224.027 261.24L225.772 262.247ZM131.47 311.147L130.597 311.651L134.086 313.666L130.594 315.683L131.466 316.186L134.959 314.17L138.449 316.184L139.322 315.68L135.832 313.666L139.325 311.649L138.452 311.146L134.96 313.162L131.47 311.147ZM407.321 262.202L409.068 261.194L407.323 260.187L405.577 261.195L407.321 262.202ZM316.586 209.82L318.332 208.812L316.587 207.805L314.841 208.813L316.586 209.82ZM452.709 262.191L454.455 261.183L452.71 260.175L450.964 261.184L452.709 262.191ZM361.954 236.011L363.7 235.003L361.955 233.996L360.209 235.004L361.954 236.011ZM407.341 236L409.087 234.992L407.342 233.984L405.596 234.993L407.341 236ZM316.566 236.022L318.313 235.014L316.568 234.007L314.821 235.015L316.566 236.022ZM361.915 288.415L363.661 287.407L361.916 286.4L360.17 287.408L361.915 288.415ZM407.302 288.404L409.048 287.396L407.303 286.389L405.557 287.397L407.302 288.404ZM316.548 260.209L314.802 261.217L316.547 262.225L318.293 261.216L316.548 260.209ZM361.934 262.213L363.681 261.205L361.936 260.198L360.189 261.206L361.934 262.213ZM407.38 183.596L409.126 182.588L407.381 181.58L405.635 182.588L407.38 183.596ZM361.973 209.809L363.719 208.801L361.974 207.794L360.228 208.802L361.973 209.809ZM452.748 209.787L454.494 208.778L452.749 207.771L451.003 208.779L452.748 209.787ZM498.116 235.978L499.862 234.969L498.117 233.962L496.371 234.97L498.116 235.978ZM452.728 235.989L454.475 234.981L452.73 233.973L450.983 234.981L452.728 235.989ZM407.36 209.798L409.107 208.79L407.362 207.782L405.615 208.791L407.36 209.798ZM361.992 183.607L363.739 182.599L361.994 181.591L360.248 182.6L361.992 183.607ZM267.69 232.507L266.817 233.011L270.307 235.026L266.814 237.043L267.686 237.546L271.179 235.53L274.669 237.544L275.542 237.04L272.052 235.026L275.545 233.009L274.673 232.506L271.18 234.522L267.69 232.507ZM543.542 183.562L545.288 182.554L543.543 181.547L541.797 182.555L543.542 183.562ZM452.806 131.18L454.552 130.172L452.808 129.165L451.061 130.173L452.806 131.18ZM588.929 183.551L590.676 182.543L588.931 181.535L587.184 182.543L588.929 183.551ZM498.174 157.371L499.92 156.363L498.175 155.356L496.429 156.364L498.174 157.371ZM543.561 157.36L545.308 156.352L543.563 155.344L541.816 156.353L543.561 157.36ZM452.787 157.382L454.533 156.374L452.788 155.367L451.042 156.375L452.787 157.382ZM498.135 209.775L499.881 208.767L498.137 207.76L496.39 208.768L498.135 209.775ZM543.522 209.764L545.269 208.756L543.524 207.749L541.777 208.757L543.522 209.764ZM452.769 181.569L451.022 182.577L452.767 183.585L454.514 182.576L452.769 181.569ZM498.154 183.573L499.901 182.565L498.156 181.558L496.41 182.566L498.154 183.573ZM543.6 104.956L545.347 103.948L543.602 102.94L541.855 103.948L543.6 104.956ZM634.355 131.135L636.102 130.127L634.357 129.12L632.611 130.128L634.355 131.135ZM588.989 102.929L587.243 103.937L588.988 104.944L590.734 103.936L588.989 102.929ZM498.193 131.169L499.94 130.161L498.195 129.154L496.448 130.162L498.193 131.169ZM588.968 131.147L590.715 130.138L588.97 129.131L587.223 130.139L588.968 131.147ZM634.336 157.337L636.082 156.329L634.337 155.322L632.591 156.33L634.336 157.337ZM588.949 157.349L590.695 156.341L588.95 155.333L587.204 156.341L588.949 157.349ZM543.581 131.158L545.327 130.15L543.582 129.142L541.836 130.15L543.581 131.158ZM498.213 104.967L499.959 103.959L498.214 102.951L496.468 103.96L498.213 104.967ZM540.131 75.2273L539.258 75.7314L542.748 77.746L539.255 79.7624L540.127 80.2661L543.62 78.2497L547.11 80.2644L547.983 79.7603L544.493 77.7456L547.986 75.7292L547.114 75.2255L543.621 77.2419L540.131 75.2273ZM403.911 153.867L403.037 154.371L406.527 156.386L403.034 158.402L403.907 158.906L407.4 156.89L410.889 158.904L411.763 158.4L408.273 156.386L411.766 154.369L410.893 153.866L407.4 155.882L403.911 153.867ZM452.573 445.606L454.319 444.597L452.574 443.59L450.828 444.598L452.573 445.606ZM407.205 419.415L408.951 418.407L407.206 417.399L405.46 418.407L407.205 419.415ZM316.469 367.033L318.215 366.025L316.47 365.017L314.724 366.026L316.469 367.033ZM452.592 419.404L454.338 418.395L452.594 417.388L450.847 418.396L452.592 419.404ZM361.837 393.224L363.583 392.216L361.838 391.208L360.092 392.217L361.837 393.224ZM407.224 393.213L408.971 392.204L407.226 391.197L405.479 392.205L407.224 393.213ZM316.449 393.235L318.196 392.227L316.451 391.22L314.705 392.228L316.449 393.235ZM361.798 445.628L363.544 444.62L361.799 443.613L360.053 444.621L361.798 445.628ZM407.185 445.617L408.932 444.609L407.187 443.601L405.44 444.61L407.185 445.617ZM316.432 417.422L314.685 418.43L316.43 419.437L318.176 418.429L316.432 417.422ZM361.817 419.426L363.564 418.418L361.819 417.41L360.072 418.419L361.817 419.426ZM407.263 340.808L409.01 339.8L407.265 338.793L405.518 339.801L407.263 340.808ZM361.856 367.022L363.603 366.014L361.858 365.006L360.111 366.014L361.856 367.022ZM452.631 366.999L454.377 365.991L452.632 364.984L450.886 365.992L452.631 366.999ZM497.999 393.19L499.745 392.182L498 391.175L496.254 392.183L497.999 393.19ZM497.979 419.392L499.726 418.384L497.981 417.377L496.235 418.385L497.979 419.392ZM452.612 393.201L454.358 392.193L452.613 391.186L450.867 392.194L452.612 393.201ZM407.244 367.011L408.99 366.002L407.245 364.995L405.499 366.003L407.244 367.011ZM361.876 340.82L363.622 339.811L361.877 338.804L360.131 339.812L361.876 340.82ZM267.573 389.72L266.7 390.224L270.19 392.239L266.697 394.255L267.57 394.759L271.063 392.742L274.552 394.757L275.426 394.253L271.936 392.238L275.429 390.222L274.556 389.718L271.063 391.735L267.573 389.72ZM403.677 468.293L402.804 468.797L406.294 470.811L402.801 472.828L403.673 473.332L407.166 471.315L410.656 473.33L411.529 472.826L408.039 470.811L411.532 468.795L410.66 468.291L407.167 470.307L403.677 468.293ZM588.793 366.966L590.539 365.957L588.795 364.95L587.048 365.958L588.793 366.966ZM543.425 340.775L545.172 339.767L543.427 338.759L541.68 339.767L543.425 340.775ZM452.689 288.393L454.436 287.385L452.691 286.377L450.944 287.386L452.689 288.393ZM588.812 340.764L590.559 339.755L588.814 338.748L587.068 339.756L588.812 340.764ZM498.057 314.584L499.804 313.576L498.059 312.568L496.312 313.577L498.057 314.584ZM543.445 314.573L545.191 313.564L543.446 312.557L541.7 313.565L543.445 314.573ZM452.67 314.595L454.416 313.587L452.671 312.58L450.925 313.588L452.67 314.595ZM498.018 366.988L499.765 365.98L498.02 364.973L496.273 365.981L498.018 366.988ZM543.406 366.977L545.152 365.969L543.407 364.961L541.661 365.97L543.406 366.977ZM452.652 338.782L450.905 339.79L452.65 340.797L454.397 339.789L452.652 338.782ZM498.038 340.786L499.784 339.778L498.039 338.77L496.293 339.779L498.038 340.786ZM543.483 262.168L545.23 261.16L543.485 260.153L541.739 261.161L543.483 262.168ZM498.077 288.382L499.823 287.374L498.078 286.366L496.332 287.374L498.077 288.382ZM588.851 288.359L590.598 287.351L588.853 286.344L587.106 287.352L588.851 288.359ZM634.219 314.55L635.966 313.542L634.221 312.535L632.474 313.543L634.219 314.55ZM634.2 340.752L635.946 339.744L634.201 338.737L632.455 339.745L634.2 340.752ZM588.832 314.561L590.578 313.553L588.833 312.546L587.087 313.554L588.832 314.561ZM543.464 288.371L545.21 287.362L543.466 286.355L541.719 287.363L543.464 288.371ZM498.096 262.18L499.843 261.171L498.098 260.164L496.351 261.172L498.096 262.18ZM403.794 311.08L402.921 311.584L406.41 313.599L402.918 315.615L403.79 316.119L407.283 314.102L410.773 316.117L411.646 315.613L408.156 313.598L411.649 311.582L410.776 311.078L407.284 313.095L403.794 311.08ZM539.897 389.653L539.024 390.157L542.514 392.171L539.021 394.188L539.894 394.692L543.387 392.675L546.876 394.69L547.75 394.186L544.26 392.171L547.753 390.155L546.88 389.651L543.387 391.667L539.897 389.653ZM725.013 288.326L726.76 287.317L725.015 286.31L723.269 287.318L725.013 288.326ZM679.646 262.135L681.392 261.127L679.647 260.119L677.901 261.127L679.646 262.135ZM588.91 209.753L590.656 208.745L588.911 207.737L587.165 208.746L588.91 209.753ZM725.033 262.123L726.779 261.115L725.034 260.108L723.288 261.116L725.033 262.123ZM634.278 235.944L636.024 234.936L634.279 233.928L632.533 234.936L634.278 235.944ZM679.665 235.933L681.411 234.924L679.666 233.917L677.92 234.925L679.665 235.933ZM588.89 235.955L590.637 234.947L588.892 233.94L587.145 234.948L588.89 235.955ZM634.239 288.348L635.985 287.34L634.24 286.333L632.494 287.341L634.239 288.348ZM679.626 288.337L681.372 287.329L679.628 286.321L677.881 287.329L679.626 288.337ZM588.872 260.142L587.126 261.15L588.871 262.157L590.617 261.149L588.872 260.142ZM634.258 262.146L636.005 261.138L634.26 260.13L632.513 261.139L634.258 262.146ZM679.704 183.528L681.45 182.52L679.705 181.513L677.959 182.521L679.704 183.528ZM770.459 209.708L772.206 208.7L770.461 207.692L768.714 208.701L770.459 209.708ZM725.093 181.502L723.346 182.51L725.091 183.517L726.838 182.509L725.093 181.502ZM634.297 209.742L636.044 208.734L634.299 207.726L632.552 208.734L634.297 209.742ZM725.072 209.719L726.818 208.711L725.073 207.704L723.327 208.712L725.072 209.719ZM770.44 235.91L772.186 234.902L770.441 233.895L768.695 234.903L770.44 235.91ZM770.42 262.112L772.167 261.104L770.422 260.097L768.675 261.105L770.42 262.112ZM725.052 235.921L726.799 234.913L725.054 233.906L723.307 234.914L725.052 235.921ZM679.684 209.73L681.431 208.722L679.686 207.715L677.94 208.723L679.684 209.73ZM634.317 183.54L636.063 182.531L634.318 181.524L632.572 182.532L634.317 183.54ZM812.338 232.373L811.465 232.877L814.955 234.891L811.462 236.908L812.335 237.411L815.827 235.395L819.317 237.41L820.19 236.906L816.701 234.891L820.193 232.875L819.321 232.371L815.828 234.387L812.338 232.373ZM676.235 153.8L675.361 154.304L678.851 156.319L675.358 158.335L676.231 158.839L679.724 156.822L683.214 158.837L684.087 158.333L680.597 156.318L684.09 154.302L683.217 153.798L679.724 155.815L676.235 153.8ZM540.014 232.44L539.141 232.944L542.631 234.959L539.138 236.975L540.01 237.479L543.503 235.462L546.993 237.477L547.866 236.973L544.377 234.958L547.869 232.942L546.997 232.438L543.504 234.455L540.014 232.44ZM676.118 311.013L675.245 311.517L678.735 313.531L675.242 315.548L676.114 316.051L679.607 314.035L683.097 316.05L683.97 315.546L680.48 313.531L683.973 311.515L683.101 311.011L679.608 313.027L676.118 311.013Z" fill="#8F90A6"/>
</g>
</g>
<g filter="url(#filter0_dd)">
<rect width="84.0609" height="84.0609" rx="18" transform="matrix(0.866045 0.499966 -0.866045 0.499966 575.801 177.674)" fill="url(#paint1_linear)"/>
<rect width="84.0609" height="84.0609" rx="18" transform="matrix(0.866045 0.499966 -0.866045 0.499966 575.801 175)" fill="white"/>
<g clip-path="url(#clip0)">
<path d="M553.394 203.977C540.625 211.348 540.617 223.296 553.378 230.663C566.138 238.029 586.835 238.025 599.604 230.654C612.372 223.282 612.379 211.334 599.619 203.968C586.858 196.601 566.162 196.606 553.394 203.977ZM596.637 228.941C593.004 231.038 587.633 231.339 584.643 229.612L597.799 222.017C600.789 223.743 600.27 226.844 596.637 228.941ZM600.292 218.506L578.561 231.052L574.623 228.779L596.355 216.233L600.293 218.506L600.292 218.506ZM594.25 215.108L572.658 227.573C572.503 227.566 572.348 227.562 572.195 227.553C567.271 227.279 565.338 226.768 563.393 226.233C563.338 226.21 566.643 224.995 568.994 224.136C568.994 224.136 570.209 223.698 571.916 223.016C568.906 222.879 566.019 222.162 563.91 220.945C559.278 218.271 558.785 213.882 554.232 212.734C555.581 212.072 559.447 212.763 563.494 214.995C562.989 213.171 560.198 210.919 558.146 209.734C556.022 208.508 554.955 206.275 556.271 205.417C557.08 207.326 560.415 207.436 566.188 209.154C568.355 209.8 571.054 211.435 573.212 212.214C569.704 210.034 565.016 206.604 565.494 204.21C566.784 206.133 570.847 207.126 573.038 207.466C576.572 208.015 579.055 208.543 582.268 210.398C584.423 211.642 585.655 213.273 585.898 214.963C587.139 213.917 587.935 213.159 587.935 213.159L591.926 209.739C591.926 209.738 594.167 211.864 594.25 215.108Z" fill="#E6522C"/>
</g>
</g>
<g filter="url(#filter1_dd)">
<path d="M345.058 195.809L472.161 194.5L472.161 202.151C472.161 205.526 469.839 208.763 465.704 211.15L424.199 235.111C415.589 240.082 401.631 240.082 393.021 235.111L351.516 211.15C347.381 208.763 345.058 205.526 345.058 202.151L345.058 195.809Z" fill="url(#paint2_linear)"/>
<rect width="84.0609" height="84.0609" rx="18" transform="matrix(0.866045 0.499966 -0.866045 0.499966 408.609 153)" fill="white"/>
</g>
<g opacity="0.45">
<path d="M472 159.644L408.752 196.539L345.252 159.644L408.501 123L472 159.644Z" fill="url(#paint3_linear)"/>
<path d="M471.999 159.644V189.604L408.75 226.499L408.75 196.539L471.999 159.644Z" fill="url(#paint4_linear)"/>
<path d="M408.751 196.539V226.499L345 189.604L345.251 159.644L408.751 196.539Z" fill="url(#paint5_linear)"/>
</g>
<g filter="url(#filter2_dd)">
<rect width="84.0609" height="84.0609" rx="18" transform="matrix(0.866045 0.499967 -0.866045 0.499967 408.801 117.674)" fill="url(#paint6_linear)"/>
<rect width="84.0609" height="84.0609" rx="18" transform="matrix(0.866045 0.499967 -0.866045 0.499967 408.801 115)" fill="white"/>
<path d="M384.793 142.86C384.358 143.096 384.357 143.494 384.78 143.739L395.139 149.719C395.558 149.961 396.234 149.962 396.682 149.738C403.811 146.182 414.598 146.359 421.37 150.268C428.141 154.177 428.447 160.404 422.287 164.52C421.9 164.779 421.902 165.169 422.321 165.411L432.297 171.17C432.72 171.414 433.409 171.414 433.819 171.162C446.596 163.317 446.339 150.974 433.051 143.303C419.764 135.632 398.382 135.483 384.793 142.86Z" fill="#39D98A"/>
<path d="M400.499 152.812C400.434 152.848 400.369 152.884 400.305 152.921C395.969 155.425 395.969 159.484 400.305 161.987C404.641 164.49 411.672 164.49 416.009 161.987C416.073 161.95 416.136 161.913 416.198 161.875L400.499 152.812Z" fill="#223C37"/>
<path d="M416.197 161.875C420.343 159.364 420.28 155.388 416.008 152.921C411.735 150.455 404.848 150.418 400.498 152.812L416.197 161.875Z" fill="#376C66"/>
</g>
<g filter="url(#filter3_dd)">
<rect width="58.8609" height="58.8609" rx="12" transform="matrix(0.866045 0.499967 -0.866045 0.499967 334.977 121.857)" fill="url(#paint7_linear)"/>
<rect width="58.8609" height="58.8609" rx="12" transform="matrix(0.866045 0.499967 -0.866045 0.499967 334.977 120)" fill="white"/>
<rect width="6.65975" height="2.72444" rx="1.36222" transform="matrix(0.878695 -0.507263 0.878695 0.507263 333.242 170.304)" fill="#3BC882"/>
<rect width="6.65975" height="2.72444" rx="1.36222" transform="matrix(0.878695 -0.507263 0.878695 0.507263 339.627 166.62)" fill="#39D98A"/>
<rect width="6.66007" height="2.72457" rx="1.36229" transform="matrix(0.878653 -0.507291 0.878653 0.507291 346.012 162.935)" fill="#23A966"/>
<rect width="6.65975" height="2.72444" rx="1.36222" transform="matrix(0.878695 -0.507263 0.878695 0.507263 352.395 159.247)" fill="#23A966"/>
<rect width="6.66007" height="2.72457" rx="1.36229" transform="matrix(0.878653 -0.507291 0.878653 0.507291 358.779 155.562)" fill="#23A966"/>
<rect width="6.65975" height="2.72444" rx="1.36222" transform="matrix(0.878695 -0.507263 0.878695 0.507263 365.164 151.877)" fill="#23A966"/>
<rect width="6.6601" height="2.72459" rx="1.36229" transform="matrix(0.878649 -0.507288 0.878649 0.507288 330.316 168.62)" fill="#39D98A"/>
<rect width="6.65978" height="2.72446" rx="1.36223" transform="matrix(0.878691 -0.507261 0.878691 0.507261 336.701 164.935)" fill="#57EBA1"/>
<rect width="6.65978" height="2.72446" rx="1.36223" transform="matrix(0.878691 -0.507261 0.878691 0.507261 343.086 161.247)" fill="#3BC882"/>
<rect width="6.65973" height="2.72443" rx="1.36222" transform="matrix(0.878685 -0.507265 0.878685 0.507265 349.469 157.562)" fill="#23A966"/>
<rect width="6.65978" height="2.72446" rx="1.36223" transform="matrix(0.878691 -0.507261 0.878691 0.507261 355.854 153.877)" fill="#23A966"/>
<rect width="6.6601" height="2.72459" rx="1.36229" transform="matrix(0.878649 -0.507288 0.878649 0.507288 362.236 150.196)" fill="#23A966"/>
<rect width="6.65978" height="2.72445" rx="1.36223" transform="matrix(0.878692 -0.507261 0.878692 0.507261 327.391 166.926)" fill="#39D98A"/>
<rect width="6.65973" height="2.72443" rx="1.36222" transform="matrix(0.878686 -0.507265 0.878686 0.507265 340.156 159.556)" fill="#39D98A"/>
<rect width="6.65973" height="2.72443" rx="1.36222" transform="matrix(0.878686 -0.507265 0.878686 0.507265 346.541 155.872)" fill="#3BC882"/>
<rect width="6.65978" height="2.72445" rx="1.36223" transform="matrix(0.878692 -0.507261 0.878692 0.507261 352.924 152.184)" fill="#3BC882"/>
<rect width="6.6601" height="2.72459" rx="1.36229" transform="matrix(0.87865 -0.507289 0.87865 0.507289 359.309 148.499)" fill="#3BC882"/>
<rect width="6.66008" height="2.72458" rx="1.36229" transform="matrix(0.878652 -0.50729 0.878652 0.50729 324.463 165.24)" fill="#57EBA1"/>
<rect width="6.65976" height="2.72445" rx="1.36222" transform="matrix(0.878694 -0.507262 0.878694 0.507262 330.848 161.555)" fill="#57EBA1"/>
<rect width="6.65971" height="2.72443" rx="1.36221" transform="matrix(0.878688 -0.507266 0.878688 0.507266 337.232 157.87)" fill="#57EBA1"/>
<rect width="6.65971" height="2.72443" rx="1.36221" transform="matrix(0.878688 -0.507266 0.878688 0.507266 343.615 154.182)" fill="#3BC882"/>
<rect width="6.65976" height="2.72445" rx="1.36222" transform="matrix(0.878694 -0.507262 0.878694 0.507262 350 150.497)" fill="#3BC882"/>
<rect width="6.66008" height="2.72458" rx="1.36229" transform="matrix(0.878652 -0.50729 0.878652 0.50729 356.385 146.812)" fill="#3BC882"/>
<rect width="6.65978" height="2.72445" rx="1.36223" transform="matrix(0.878692 -0.507261 0.878692 0.507261 321.537 163.55)" fill="#E3FFF1"/>
<rect width="6.6601" height="2.72458" rx="1.36229" transform="matrix(0.87865 -0.507289 0.87865 0.507289 327.92 159.868)" fill="#E3FFF1"/>
<rect width="6.65978" height="2.72445" rx="1.36223" transform="matrix(0.878692 -0.507261 0.878692 0.507261 334.305 156.18)" fill="#57EBA1"/>
<rect width="6.65983" height="2.72447" rx="1.36224" transform="matrix(0.878698 -0.507257 0.878698 0.507257 347.072 148.808)" fill="#39D98A"/>
<rect width="6.6601" height="2.72458" rx="1.36229" transform="matrix(0.87865 -0.507289 0.87865 0.507289 353.457 145.123)" fill="#39D98A"/>
<rect width="6.65977" height="2.72445" rx="1.36222" transform="matrix(0.878693 -0.507262 0.878693 0.507262 318.611 161.86)" fill="#E3FFF1"/>
<rect width="6.65977" height="2.72445" rx="1.36222" transform="matrix(0.878693 -0.507262 0.878693 0.507262 331.381 154.488)" fill="#E3FFF1"/>
<rect width="6.65977" height="2.72445" rx="1.36222" transform="matrix(0.878693 -0.507262 0.878693 0.507262 337.764 150.809)" fill="#39D98A"/>
<rect width="6.66009" height="2.72458" rx="1.36229" transform="matrix(0.878651 -0.507289 0.878651 0.507289 344.148 147.121)" fill="#39D98A"/>
<rect width="6.65977" height="2.72445" rx="1.36222" transform="matrix(0.878693 -0.507262 0.878693 0.507262 350.533 143.436)" fill="#39D98A"/>
<rect width="6.65977" height="2.72445" rx="1.36223" transform="matrix(0.878693 -0.507261 0.878693 0.507261 315.686 160.166)" fill="#57EBA1"/>
<rect width="6.65977" height="2.72445" rx="1.36223" transform="matrix(0.878693 -0.507261 0.878693 0.507261 322.068 156.487)" fill="#57EBA1"/>
<rect width="6.65977" height="2.72445" rx="1.36223" transform="matrix(0.878693 -0.507261 0.878693 0.507261 334.838 149.112)" fill="#57EBA1"/>
<rect width="6.66009" height="2.72458" rx="1.36229" transform="matrix(0.878651 -0.507289 0.878651 0.507289 341.221 145.424)" fill="#57EBA1"/>
<rect width="6.65977" height="2.72445" rx="1.36223" transform="matrix(0.878693 -0.507261 0.878693 0.507261 347.605 141.739)" fill="#57EBA1"/>
<rect width="6.65977" height="2.72445" rx="1.36223" transform="matrix(0.878692 -0.507261 0.878692 0.507261 312.76 158.48)" fill="#57EBA1"/>
<rect width="6.65977" height="2.72445" rx="1.36223" transform="matrix(0.878692 -0.507261 0.878692 0.507261 319.143 154.798)" fill="#57EBA1"/>
<rect width="6.65977" height="2.72445" rx="1.36223" transform="matrix(0.878692 -0.507261 0.878692 0.507261 331.912 147.428)" fill="#57EBA1"/>
<rect width="6.66009" height="2.72458" rx="1.36229" transform="matrix(0.87865 -0.507289 0.87865 0.507289 338.295 143.738)" fill="#57EBA1"/>
<rect width="6.65977" height="2.72445" rx="1.36223" transform="matrix(0.878692 -0.507261 0.878692 0.507261 344.68 140.056)" fill="#57EBA1"/>
<rect width="6.65976" height="2.72445" rx="1.36222" transform="matrix(0.878694 -0.507262 0.878694 0.507262 309.832 156.79)" fill="#E3FFF1"/>
<rect width="6.65976" height="2.72445" rx="1.36222" transform="matrix(0.878694 -0.507262 0.878694 0.507262 316.217 153.105)" fill="#E3FFF1"/>
<rect width="6.65981" height="2.72447" rx="1.36223" transform="matrix(0.8787 -0.507258 0.8787 0.507258 328.986 145.732)" fill="#E3FFF1"/>
<rect width="6.66008" height="2.72458" rx="1.36229" transform="matrix(0.878652 -0.50729 0.878652 0.50729 335.369 142.048)" fill="#E3FFF1"/>
<rect width="6.65976" height="2.72445" rx="1.36222" transform="matrix(0.878694 -0.507262 0.878694 0.507262 341.754 138.363)" fill="#E3FFF1"/>
<rect width="6.66009" height="2.72458" rx="1.36229" transform="matrix(0.87865 -0.507289 0.87865 0.507289 306.908 155.102)" fill="#E3FFF1"/>
<rect width="6.65977" height="2.72445" rx="1.36223" transform="matrix(0.878692 -0.507261 0.878692 0.507261 326.061 144.044)" fill="#E3FFF1"/>
<rect width="6.65977" height="2.72445" rx="1.36223" transform="matrix(0.878692 -0.507261 0.878692 0.507261 338.828 136.675)" fill="#E3FFF1"/>
<rect width="6.65977" height="2.72445" rx="1.36223" transform="matrix(0.878692 -0.507261 0.878692 0.507261 303.98 153.414)" fill="#E3FFF1"/>
<rect width="6.65977" height="2.72445" rx="1.36223" transform="matrix(0.878692 -0.507261 0.878692 0.507261 316.748 146.047)" fill="#E3FFF1"/>
<rect width="6.65972" height="2.72443" rx="1.36222" transform="matrix(0.878686 -0.507265 0.878686 0.507265 323.133 142.359)" fill="#E3FFF1"/>
<rect width="6.65977" height="2.72445" rx="1.36223" transform="matrix(0.878692 -0.507261 0.878692 0.507261 335.9 134.989)" fill="#E3FFF1"/>
<rect width="6.65971" height="2.72443" rx="1.36221" transform="matrix(0.878688 -0.507266 0.878688 0.507266 313.822 144.352)" fill="#E3FFF1"/>
<rect width="6.66008" height="2.72458" rx="1.36229" transform="matrix(0.878652 -0.50729 0.878652 0.50729 332.975 133.295)" fill="#E3FFF1"/>
<rect width="6.65977" height="2.72445" rx="1.36223" transform="matrix(0.878693 -0.507261 0.878693 0.507261 302.387 145.126)" fill="#E3FFF1"/>
<rect width="6.65972" height="2.72443" rx="1.36222" transform="matrix(0.878687 -0.507265 0.878687 0.507265 327.924 130.381)" fill="#E3FFF1"/>
</g>
<g filter="url(#filter4_dd)">
<rect width="58.8609" height="58.8609" rx="12" transform="matrix(0.866045 0.499967 -0.866045 0.499967 427.977 75.8574)" fill="url(#paint8_linear)"/>
<rect width="58.8609" height="58.8609" rx="12" transform="matrix(0.866045 0.499967 -0.866045 0.499967 427.977 74)" fill="white"/>
<g filter="url(#filter5_dd)">
<rect width="48.9848" height="19.8587" rx="8" transform="matrix(0.878685 -0.507264 0.878685 0.507264 408 115.848)" fill="white"/>
<path fill-rule="evenodd" clip-rule="evenodd" d="M430.686 118.87C433.577 117.2 433.577 114.494 430.686 112.825C427.795 111.156 423.107 111.156 420.216 112.825C417.324 114.494 417.324 117.2 420.216 118.87C423.107 120.539 427.795 120.539 430.686 118.87Z" fill="#FFE6E6"/>
<path d="M427.09 113.738C426.653 113.641 426.186 113.597 425.718 113.609L425.332 113.618C425.319 113.619 425.306 113.621 425.295 113.625C425.284 113.629 425.275 113.634 425.268 113.641C425.261 113.647 425.258 113.654 425.257 113.662C425.256 113.669 425.259 113.677 425.265 113.684L425.433 113.885C425.539 114.011 425.601 114.166 425.618 114.344C425.618 114.356 425.61 114.364 425.603 114.369C425.596 114.373 425.583 114.379 425.563 114.38C425.545 114.381 425.528 114.376 425.516 114.369C425.125 114.113 424.53 113.914 423.745 113.776C423.094 113.66 422.448 113.65 421.825 113.743L421.371 113.811C421.311 113.82 421.293 113.864 421.338 113.888L421.686 114.071C421.923 114.196 422.098 114.327 422.203 114.46C422.331 114.622 422.411 114.794 422.442 114.974C422.463 115.098 422.459 115.224 422.432 115.348C422.364 115.646 422.415 115.949 422.579 116.235C422.746 116.522 423.026 116.782 423.397 116.996C423.724 117.185 424.104 117.331 424.53 117.43C424.941 117.524 425.379 117.572 425.821 117.571C426.267 117.569 426.702 117.52 427.114 117.422C427.54 117.322 427.923 117.174 428.252 116.984C428.581 116.795 428.836 116.574 429.011 116.328C429.18 116.091 429.267 115.838 429.268 115.582C429.271 115.324 429.188 115.073 429.023 114.836C428.853 114.591 428.598 114.368 428.273 114.182C427.935 113.987 427.538 113.837 427.09 113.738Z" fill="#FF3B3B"/>
<rect width="10.5914" height="1.32392" rx="0.661962" transform="matrix(0.878657 -0.507283 0.878657 0.507283 436.064 111.902)" fill="#EBEBF0"/>
<rect width="23.8308" height="1.32393" rx="0.661966" transform="matrix(0.878674 -0.507271 0.878674 0.507271 433.883 110.643)" fill="#EBEBF0"/>
<rect width="11.2529" height="2.64774" rx="1.32387" transform="matrix(0.878689 -0.507262 0.878689 0.507262 430.395 108.627)" fill="#C7C9D9"/>
</g>
<g filter="url(#filter6_dd)">
<rect width="48.9845" height="19.8586" rx="8" transform="matrix(0.878692 -0.507268 0.878692 0.507268 387 102.848)" fill="white"/>
<path fill-rule="evenodd" clip-rule="evenodd" d="M409.686 105.87C412.577 104.2 412.577 101.494 409.686 99.8248C406.795 98.1556 402.107 98.1556 399.216 99.8248C396.324 101.494 396.324 104.2 399.216 105.87C402.107 107.539 406.795 107.539 409.686 105.87Z" fill="#E3FFF1"/>
<path d="M401.205 100.872C399.414 101.907 399.414 103.584 401.205 104.619C402.997 105.653 405.903 105.653 407.694 104.619C409.486 103.584 409.486 101.907 407.694 100.872C405.903 99.838 402.997 99.838 401.205 100.872ZM404.792 101.325L405.381 103.426C405.39 103.456 405.386 103.486 405.37 103.514C405.354 103.543 405.327 103.569 405.29 103.59C405.254 103.611 405.209 103.627 405.159 103.636C405.11 103.645 405.058 103.647 405.007 103.642L402.852 103.441C402.786 103.435 402.76 103.388 402.807 103.361L403.147 103.165C403.221 103.122 403.327 103.102 403.431 103.112L404.662 103.228L404.222 101.659C404.205 101.599 404.238 101.538 404.313 101.495L404.653 101.299C404.7 101.272 404.781 101.287 404.792 101.325Z" fill="#39D98A"/>
<rect width="10.5909" height="1.32386" rx="0.661932" transform="matrix(0.878697 -0.507265 0.878697 0.507265 415.064 98.9019)" fill="#EBEBF0"/>
<rect width="23.8306" height="1.32392" rx="0.661961" transform="matrix(0.878681 -0.507275 0.878681 0.507275 412.883 97.6426)" fill="#EBEBF0"/>
<rect width="11.2528" height="2.64771" rx="1.32385" transform="matrix(0.878692 -0.507268 0.878692 0.507268 409.395 95.6274)" fill="#C7C9D9"/>
</g>
</g>
<g filter="url(#filter7_dd)">
<rect width="84.0609" height="84.0609" rx="18" transform="matrix(0.866045 0.499966 -0.866045 0.499966 359.801 264.674)" fill="url(#paint9_linear)"/>
<rect width="84.0609" height="84.0609" rx="18" transform="matrix(0.866045 0.499966 -0.866045 0.499966 359.801 262)" fill="white"/>
<path d="M377.912 301.432L358.255 298.329L385.478 314.045L396.509 295.594L336.052 287.308L350.406 322.21L382.367 315.842L355.144 300.125L360.518 311.474L367.589 310.167L371.124 312.208L357.336 315.107L348.85 294.696L384.206 299.595L379.185 307.555L375.65 305.514L377.912 301.432Z" fill="#FE7139"/>
</g>
<defs>
<filter id="filter0_dd" x="496.133" y="172.271" width="159.338" height="108.186" filterUnits="userSpaceOnUse" color-interpolation-filters="sRGB">
<feFlood flood-opacity="0" result="BackgroundImageFix"/>
<feColorMatrix in="SourceAlpha" type="matrix" values="0 0 0 0 0 0 0 0 0 0 0 0 0 0 0 0 0 0 127 0"/>
<feOffset dy="8"/>
<feGaussianBlur stdDeviation="8"/>
<feColorMatrix type="matrix" values="0 0 0 0 0.376471 0 0 0 0 0.380392 0 0 0 0 0.439216 0 0 0 0.16 0"/>
<feBlend mode="normal" in2="BackgroundImageFix" result="effect1_dropShadow"/>
<feColorMatrix in="SourceAlpha" type="matrix" values="0 0 0 0 0 0 0 0 0 0 0 0 0 0 0 0 0 0 127 0"/>
<feOffset dy="2"/>
<feGaussianBlur stdDeviation="2"/>
<feColorMatrix type="matrix" values="0 0 0 0 0.156863 0 0 0 0 0.160784 0 0 0 0 0.239216 0 0 0 0.04 0"/>
<feBlend mode="normal" in2="effect1_dropShadow" result="effect2_dropShadow"/>
<feBlend mode="normal" in="SourceGraphic" in2="effect2_dropShadow" result="shape"/>
</filter>
<filter id="filter1_dd" x="342.941" y="156.771" width="131.338" height="84.5675" filterUnits="userSpaceOnUse" color-interpolation-filters="sRGB">
<feFlood flood-opacity="0" result="BackgroundImageFix"/>
<feColorMatrix in="SourceAlpha" type="matrix" values="0 0 0 0 0 0 0 0 0 0 0 0 0 0 0 0 0 0 127 0"/>
<feOffset dy="0.5"/>
<feGaussianBlur stdDeviation="1"/>
<feColorMatrix type="matrix" values="0 0 0 0 0.376471 0 0 0 0 0.380392 0 0 0 0 0.439216 0 0 0 0.16 0"/>
<feBlend mode="normal" in2="BackgroundImageFix" result="effect1_dropShadow"/>
<feColorMatrix in="SourceAlpha" type="matrix" values="0 0 0 0 0 0 0 0 0 0 0 0 0 0 0 0 0 0 127 0"/>
<feOffset/>
<feGaussianBlur stdDeviation="0.5"/>
<feColorMatrix type="matrix" values="0 0 0 0 0.156863 0 0 0 0 0.160784 0 0 0 0 0.239216 0 0 0 0.08 0"/>
<feBlend mode="normal" in2="effect1_dropShadow" result="effect2_dropShadow"/>
<feBlend mode="normal" in="SourceGraphic" in2="effect2_dropShadow" result="shape"/>
</filter>
<filter id="filter2_dd" x="319" y="107" width="179.078" height="116.908" filterUnits="userSpaceOnUse" color-interpolation-filters="sRGB">
<feFlood flood-opacity="0" result="BackgroundImageFix"/>
<feColorMatrix in="SourceAlpha" type="matrix" values="0 0 0 0 0 0 0 0 0 0 0 0 0 0 0 0 0 0 127 0"/>
<feOffset dy="8"/>
<feGaussianBlur stdDeviation="8"/>
<feColorMatrix type="matrix" values="0 0 0 0 0.376471 0 0 0 0 0.380392 0 0 0 0 0.439216 0 0 0 0.16 0"/>
<feBlend mode="normal" in2="BackgroundImageFix" result="effect1_dropShadow"/>
<feColorMatrix in="SourceAlpha" type="matrix" values="0 0 0 0 0 0 0 0 0 0 0 0 0 0 0 0 0 0 127 0"/>
<feOffset dy="2"/>
<feGaussianBlur stdDeviation="2"/>
<feColorMatrix type="matrix" values="0 0 0 0 0.156863 0 0 0 0 0.160784 0 0 0 0 0.239216 0 0 0 0.04 0"/>
<feBlend mode="normal" in2="effect1_dropShadow" result="effect2_dropShadow"/>
<feBlend mode="normal" in="SourceGraphic" in2="effect2_dropShadow" result="shape"/>
</filter>
<filter id="filter3_dd" x="286.088" y="121.515" width="97.7767" height="61.6854" filterUnits="userSpaceOnUse" color-interpolation-filters="sRGB">
<feFlood flood-opacity="0" result="BackgroundImageFix"/>
<feColorMatrix in="SourceAlpha" type="matrix" values="0 0 0 0 0 0 0 0 0 0 0 0 0 0 0 0 0 0 127 0"/>
<feOffset dy="2"/>
<feGaussianBlur stdDeviation="2"/>
<feColorMatrix type="matrix" values="0 0 0 0 0.376471 0 0 0 0 0.380392 0 0 0 0 0.439216 0 0 0 0.16 0"/>
<feBlend mode="normal" in2="BackgroundImageFix" result="effect1_dropShadow"/>
<feColorMatrix in="SourceAlpha" type="matrix" values="0 0 0 0 0 0 0 0 0 0 0 0 0 0 0 0 0 0 127 0"/>
<feOffset/>
<feGaussianBlur stdDeviation="0.5"/>
<feColorMatrix type="matrix" values="0 0 0 0 0.156863 0 0 0 0 0.160784 0 0 0 0 0.239216 0 0 0 0.04 0"/>
<feBlend mode="normal" in2="effect1_dropShadow" result="effect2_dropShadow"/>
<feBlend mode="normal" in="SourceGraphic" in2="effect2_dropShadow" result="shape"/>
</filter>
<filter id="filter4_dd" x="381.088" y="76.0146" width="93.7767" height="57.6854" filterUnits="userSpaceOnUse" color-interpolation-filters="sRGB">
<feFlood flood-opacity="0" result="BackgroundImageFix"/>
<feColorMatrix in="SourceAlpha" type="matrix" values="0 0 0 0 0 0 0 0 0 0 0 0 0 0 0 0 0 0 127 0"/>
<feOffset dy="0.5"/>
<feGaussianBlur stdDeviation="1"/>
<feColorMatrix type="matrix" values="0 0 0 0 0.376471 0 0 0 0 0.380392 0 0 0 0 0.439216 0 0 0 0.16 0"/>
<feBlend mode="normal" in2="BackgroundImageFix" result="effect1_dropShadow"/>
<feColorMatrix in="SourceAlpha" type="matrix" values="0 0 0 0 0 0 0 0 0 0 0 0 0 0 0 0 0 0 127 0"/>
<feOffset/>
<feGaussianBlur stdDeviation="0.5"/>
<feColorMatrix type="matrix" values="0 0 0 0 0.156863 0 0 0 0 0.160784 0 0 0 0 0.239216 0 0 0 0.08 0"/>
<feBlend mode="normal" in2="effect1_dropShadow" result="effect2_dropShadow"/>
<feBlend mode="normal" in="SourceGraphic" in2="effect2_dropShadow" result="shape"/>
</filter>
<filter id="filter5_dd" x="410.117" y="91.877" width="56.2563" height="34.1675" filterUnits="userSpaceOnUse" color-interpolation-filters="sRGB">
<feFlood flood-opacity="0" result="BackgroundImageFix"/>
<feColorMatrix in="SourceAlpha" type="matrix" values="0 0 0 0 0 0 0 0 0 0 0 0 0 0 0 0 0 0 127 0"/>
<feOffset dy="0.5"/>
<feGaussianBlur stdDeviation="1"/>
<feColorMatrix type="matrix" values="0 0 0 0 0.376471 0 0 0 0 0.380392 0 0 0 0 0.439216 0 0 0 0.16 0"/>
<feBlend mode="normal" in2="BackgroundImageFix" result="effect1_dropShadow"/>
<feColorMatrix in="SourceAlpha" type="matrix" values="0 0 0 0 0 0 0 0 0 0 0 0 0 0 0 0 0 0 127 0"/>
<feOffset/>
<feGaussianBlur stdDeviation="0.5"/>
<feColorMatrix type="matrix" values="0 0 0 0 0.156863 0 0 0 0 0.160784 0 0 0 0 0.239216 0 0 0 0.08 0"/>
<feBlend mode="normal" in2="effect1_dropShadow" result="effect2_dropShadow"/>
<feBlend mode="normal" in="SourceGraphic" in2="effect2_dropShadow" result="shape"/>
</filter>
<filter id="filter6_dd" x="389.117" y="78.877" width="56.2562" height="34.1675" filterUnits="userSpaceOnUse" color-interpolation-filters="sRGB">
<feFlood flood-opacity="0" result="BackgroundImageFix"/>
<feColorMatrix in="SourceAlpha" type="matrix" values="0 0 0 0 0 0 0 0 0 0 0 0 0 0 0 0 0 0 127 0"/>
<feOffset dy="0.5"/>
<feGaussianBlur stdDeviation="1"/>
<feColorMatrix type="matrix" values="0 0 0 0 0.376471 0 0 0 0 0.380392 0 0 0 0 0.439216 0 0 0 0.16 0"/>
<feBlend mode="normal" in2="BackgroundImageFix" result="effect1_dropShadow"/>
<feColorMatrix in="SourceAlpha" type="matrix" values="0 0 0 0 0 0 0 0 0 0 0 0 0 0 0 0 0 0 127 0"/>
<feOffset/>
<feGaussianBlur stdDeviation="0.5"/>
<feColorMatrix type="matrix" values="0 0 0 0 0.156863 0 0 0 0 0.160784 0 0 0 0 0.239216 0 0 0 0.08 0"/>
<feBlend mode="normal" in2="effect1_dropShadow" result="effect2_dropShadow"/>
<feBlend mode="normal" in="SourceGraphic" in2="effect2_dropShadow" result="shape"/>
</filter>
<filter id="filter7_dd" x="292.133" y="265.271" width="135.338" height="84.1861" filterUnits="userSpaceOnUse" color-interpolation-filters="sRGB">
<feFlood flood-opacity="0" result="BackgroundImageFix"/>
<feColorMatrix in="SourceAlpha" type="matrix" values="0 0 0 0 0 0 0 0 0 0 0 0 0 0 0 0 0 0 127 0"/>
<feOffset dy="2"/>
<feGaussianBlur stdDeviation="2"/>
<feColorMatrix type="matrix" values="0 0 0 0 0.376471 0 0 0 0 0.380392 0 0 0 0 0.439216 0 0 0 0.16 0"/>
<feBlend mode="normal" in2="BackgroundImageFix" result="effect1_dropShadow"/>
<feColorMatrix in="SourceAlpha" type="matrix" values="0 0 0 0 0 0 0 0 0 0 0 0 0 0 0 0 0 0 127 0"/>
<feOffset/>
<feGaussianBlur stdDeviation="0.5"/>
<feColorMatrix type="matrix" values="0 0 0 0 0.156863 0 0 0 0 0.160784 0 0 0 0 0.239216 0 0 0 0.04 0"/>
<feBlend mode="normal" in2="effect1_dropShadow" result="effect2_dropShadow"/>
<feBlend mode="normal" in="SourceGraphic" in2="effect2_dropShadow" result="shape"/>
</filter>
<radialGradient id="paint0_radial" cx="0" cy="0" r="1" gradientUnits="userSpaceOnUse" gradientTransform="translate(250.701 226.18) rotate(93.632) scale(244.71 229.238)">
<stop offset="0.744792" stop-color="#C4C4C4"/>
<stop offset="1" stop-color="#C4C4C4" stop-opacity="0"/>
</radialGradient>
<linearGradient id="paint1_linear" x1="-0.383015" y1="13.1213" x2="87.3745" y2="24.5005" gradientUnits="userSpaceOnUse">
<stop stop-color="#E4E4EB"/>
<stop offset="1" stop-color="#EDF0F4"/>
</linearGradient>
<linearGradient id="paint2_linear" x1="398.4" y1="176.293" x2="424.003" y2="233.857" gradientUnits="userSpaceOnUse">
<stop stop-color="#E4E4EB"/>
<stop offset="1" stop-color="#EDF0F4"/>
</linearGradient>
<linearGradient id="paint3_linear" x1="408.626" y1="123" x2="408.626" y2="196.539" gradientUnits="userSpaceOnUse">
<stop stop-color="#39D98A"/>
<stop offset="1" stop-color="#47FFA4" stop-opacity="0.42"/>
</linearGradient>
<linearGradient id="paint4_linear" x1="429.499" y1="173.499" x2="447.999" y2="199.999" gradientUnits="userSpaceOnUse">
<stop stop-color="#39D98A"/>
<stop offset="1" stop-color="#47FFA4" stop-opacity="0"/>
</linearGradient>
<linearGradient id="paint5_linear" x1="383.5" y1="173.999" x2="366" y2="201.999" gradientUnits="userSpaceOnUse">
<stop stop-color="#39D98A"/>
<stop offset="1" stop-color="#47FFA4" stop-opacity="0"/>
</linearGradient>
<linearGradient id="paint6_linear" x1="-0.383015" y1="13.1213" x2="87.3745" y2="24.5005" gradientUnits="userSpaceOnUse">
<stop stop-color="#E4E4EB"/>
<stop offset="1" stop-color="#EDF0F4"/>
</linearGradient>
<linearGradient id="paint7_linear" x1="7.59227" y1="58.8857" x2="37.9142" y2="-1.76219" gradientUnits="userSpaceOnUse">
<stop stop-color="#E4E4EB"/>
<stop offset="1" stop-color="#EDF0F4"/>
</linearGradient>
<linearGradient id="paint8_linear" x1="7.59227" y1="58.8857" x2="37.9142" y2="-1.76219" gradientUnits="userSpaceOnUse">
<stop stop-color="#E4E4EB"/>
<stop offset="1" stop-color="#EDF0F4"/>
</linearGradient>
<linearGradient id="paint9_linear" x1="-0.383015" y1="13.1213" x2="87.3745" y2="24.5005" gradientUnits="userSpaceOnUse">
<stop stop-color="#E4E4EB"/>
<stop offset="1" stop-color="#EDF0F4"/>
</linearGradient>
<clipPath id="clip0">
<rect width="53.553" height="52.8999" fill="white" transform="matrix(0.878688 -0.507266 0.878688 0.507266 530 217.167)"/>
</clipPath>
</defs>
</svg>