<svg width="24" height="24" viewBox="0 0 24 24" fill="none" xmlns="http://www.w3.org/2000/svg">
<path d="M6.9375 8.625H9V15.375H6.9375V8.625ZM10.5 8.625H17.0625V15.375H10.5V8.625Z" fill="#E5F6FF"/>
<path d="M22.3125 5.25H21.0938C20.9906 5.25 20.9062 5.33437 20.9062 5.4375V11.25H18.75V7.125C18.75 7.02188 18.6656 6.9375 18.5625 6.9375H5.4375C5.33437 6.9375 5.25 7.02188 5.25 7.125V11.25H3.09375V5.4375C3.09375 5.33437 3.00937 5.25 2.90625 5.25H1.6875C1.58437 5.25 1.5 5.33437 1.5 5.4375V18.5625C1.5 18.6656 1.58437 18.75 1.6875 18.75H2.90625C3.00937 18.75 3.09375 18.6656 3.09375 18.5625V12.8438H5.25V16.875C5.25 16.9781 5.33437 17.0625 5.4375 17.0625H18.5625C18.6656 17.0625 18.75 16.9781 18.75 16.875V12.8438H20.9062V18.5625C20.9062 18.6656 20.9906 18.75 21.0938 18.75H22.3125C22.4156 18.75 22.5 18.6656 22.5 18.5625V5.4375C22.5 5.33437 22.4156 5.25 22.3125 5.25ZM9 15.375H6.9375V8.625H9V15.375ZM17.0625 15.375H10.5V8.625H17.0625V15.375Z" fill="#0E95F6"/>
</svg>
