<svg width="52" height="52" viewBox="0 0 52 52" fill="none" xmlns="http://www.w3.org/2000/svg">
<rect y="-0.000976562" width="52" height="52" rx="8" fill="#E5F6FF"/>
<path d="M39 14.999H13C12.4469 14.999 12 15.4459 12 15.999V35.999C12 36.5521 12.4469 36.999 13 36.999H39C39.5531 36.999 40 36.5521 40 35.999V15.999C40 15.4459 39.5531 14.999 39 14.999ZM37.75 34.749H14.25V17.249H37.75V34.749Z" fill="#0E95F6"/>
<path d="M14.25 34.749H37.75V17.249H14.25V34.749ZM16.0125 30.6709L22.7281 23.9521C22.825 23.8553 22.9844 23.8553 23.0813 23.9521L26.6562 27.5303L34.6094 19.574C34.7062 19.4771 34.8656 19.4771 34.9625 19.574L36.1125 20.724C36.2094 20.8209 36.2094 20.9803 36.1125 21.0771L26.8312 30.3646C26.7843 30.4112 26.7208 30.4373 26.6547 30.4373C26.5886 30.4373 26.5251 30.4112 26.4781 30.3646L22.9031 26.7865L17.5125 32.1771C17.4655 32.2237 17.4021 32.2498 17.3359 32.2498C17.2698 32.2498 17.2064 32.2237 17.1594 32.1771L16.0125 31.024C15.966 30.977 15.9399 30.9136 15.9399 30.8475C15.9399 30.7813 15.966 30.7179 16.0125 30.6709Z" fill="#E5F6FF"/>
<path d="M17.159 32.1767C17.2558 32.2736 17.4152 32.2736 17.5121 32.1767L22.9027 26.7861L26.4777 30.3642C26.5746 30.4611 26.734 30.4611 26.8308 30.3642L36.1121 21.0767C36.209 20.9799 36.209 20.8205 36.1121 20.7236L34.9621 19.5736C34.9151 19.5271 34.8516 19.501 34.7855 19.501C34.7194 19.501 34.6559 19.5271 34.609 19.5736L26.6558 27.5299L23.0808 23.9517C23.0338 23.9052 22.9704 23.8791 22.9043 23.8791C22.8381 23.8791 22.7747 23.9052 22.7277 23.9517L16.0121 30.6705C15.9656 30.7175 15.9395 30.7809 15.9395 30.847C15.9395 30.9132 15.9656 30.9766 16.0121 31.0236L17.159 32.1767Z" fill="#0E95F6"/>
</svg>
