<svg width="155" height="154" viewBox="0 0 155 154" fill="none" xmlns="http://www.w3.org/2000/svg">
<circle cx="77" cy="77" r="77" fill="#E3FFF1"/>
<path fill-rule="evenodd" clip-rule="evenodd" d="M102.5 43H51.5C46.8052 43 43 47.5662 43 53.2V100.8C43 106.434 46.8052 111 51.5 111H102.5C107.195 111 111 106.434 111 100.8V53.2C111 47.5662 107.195 43 102.5 43Z" fill="url(#paint0_linear)"/>
<g opacity="0.65" filter="url(#filter0_dd)">
<circle cx="111" cy="51" r="40" fill="#376C66"/>
</g>
<path d="M123.653 59.3668C123.531 59.2456 123.367 59.1777 123.196 59.1777C123.025 59.1777 122.86 59.2456 122.739 59.3668L121.51 60.5961L119.049 58.1353C118.797 57.8829 118.388 57.8829 118.136 58.1353C117.884 58.3875 117.884 58.7964 118.136 59.0485L120.597 61.5093L119.368 62.7387C119.246 62.8598 119.178 63.0241 119.178 63.1954C119.178 63.3667 119.247 63.531 119.368 63.6521L122.739 67.0238C122.861 67.1449 123.025 67.2129 123.196 67.2129C123.368 67.2129 123.532 67.1449 123.653 67.0238L127.025 63.6521C127.277 63.4 127.277 62.9911 127.025 62.7389L123.653 59.3668ZM123.196 65.6536L120.737 63.1951L123.196 60.7367L125.654 63.1951L123.196 65.6536Z" fill="white"/>
<path d="M99.608 51.6952C99.9924 51.6952 100.304 51.3838 100.304 50.9994C100.304 50.6151 99.9924 50.3036 99.608 50.3036H93.03C92.6983 48.3894 91.0301 46.9273 89.0221 46.9273C86.7765 46.9273 84.95 48.7541 84.95 50.9994C84.95 53.2448 86.7768 55.0715 89.0221 55.0715C91.0301 55.0715 92.6983 53.6094 93.03 51.6952H99.608ZM89.0221 53.6799C87.544 53.6799 86.3416 52.4773 86.3416 50.9994C86.3416 49.5213 87.5442 48.3189 89.0221 48.3189C90.5 48.3189 91.7029 49.5215 91.7029 50.9994C91.7029 52.4776 90.5003 53.6799 89.0221 53.6799Z" fill="white" stroke="white" stroke-width="0.1"/>
<path d="M118.593 44.053C118.758 44.053 118.923 43.99 119.05 43.8639L121.51 41.4031L122.74 42.6325C122.861 42.7536 123.025 42.8216 123.196 42.8216C123.368 42.8216 123.532 42.7536 123.653 42.6325L127.025 39.2606C127.277 39.0084 127.277 38.5995 127.025 38.3474L123.653 34.9757C123.532 34.8546 123.367 34.7866 123.196 34.7866C123.025 34.7866 122.861 34.8546 122.739 34.9757L119.368 38.3474C119.246 38.4685 119.178 38.6326 119.178 38.8041C119.178 38.9754 119.247 39.1397 119.368 39.2608L120.597 40.4902L118.136 42.9507C117.884 43.2029 117.884 43.6118 118.136 43.8639C118.262 43.99 118.428 44.053 118.593 44.053ZM123.196 36.3456L125.655 38.8041L123.196 41.2626L120.737 38.8041L123.196 36.3456Z" fill="white"/>
<path d="M102.951 58.1354L100.49 60.5959L99.2607 59.3665C99.0184 59.1242 98.5896 59.1242 98.3476 59.3665L94.9759 62.7385C94.7235 62.9906 94.7235 63.3995 94.9759 63.6516L98.3476 67.0233C98.4736 67.1494 98.639 67.2124 98.8043 67.2124C98.9696 67.2124 99.1349 67.1494 99.261 67.0233L102.633 63.6516C102.754 63.5305 102.822 63.3662 102.822 63.1949C102.822 63.0237 102.754 62.8594 102.633 62.7382L101.404 61.5088L103.864 59.0483C104.116 58.7962 104.116 58.3872 103.864 58.1351C103.612 57.883 103.203 57.883 102.951 58.1354ZM98.804 65.6537L96.3455 63.1952L98.804 60.7367L101.263 63.1952L98.804 65.6537Z" fill="white"/>
<path d="M101.404 40.4894L102.633 39.26C102.754 39.1389 102.822 38.9748 102.822 38.8033C102.822 38.632 102.754 38.4677 102.633 38.3466L99.261 34.9749C99.0089 34.7225 98.5997 34.7225 98.3478 34.9749L94.9759 38.3469C94.7235 38.599 94.7235 39.0079 94.9759 39.26L98.3476 42.6319C98.4687 42.7531 98.6328 42.821 98.8043 42.821C98.9758 42.821 99.1399 42.7531 99.261 42.6319L100.49 41.4026L102.951 43.8631C103.077 43.9892 103.242 44.0522 103.408 44.0522C103.573 44.0522 103.738 43.9892 103.864 43.8631C104.117 43.611 104.117 43.2021 103.864 42.9499L101.404 40.4894ZM98.8043 41.2618L96.3458 38.8033L98.8043 36.3448L101.263 38.8033L98.8043 41.2618Z" fill="white"/>
<path d="M111 24.9498C108.754 24.9498 106.928 26.7765 106.928 29.0219C106.928 31.0299 108.39 32.6981 110.304 33.0297V39.6129C110.304 39.9973 110.615 40.3088 111 40.3088C111.384 40.3088 111.695 39.9973 111.695 39.6129V33.0297C113.61 32.6981 115.072 31.0299 115.072 29.0219C115.072 26.7765 113.245 24.9498 111 24.9498ZM111 31.7026C109.522 31.7026 108.319 30.5 108.319 29.0219C108.319 27.5437 109.522 26.3414 111 26.3414C112.478 26.3414 113.68 27.544 113.68 29.0219C113.68 30.5 112.478 31.7026 111 31.7026Z" fill="white" stroke="white" stroke-width="0.1"/>
<path d="M115.072 72.9766C115.072 70.9686 113.61 69.3004 111.695 68.9688V62.3856C111.695 62.0012 111.384 61.6897 111 61.6897C110.615 61.6897 110.304 62.0012 110.304 62.3856V68.9688C108.39 69.3004 106.928 70.9686 106.928 72.9766C106.928 75.222 108.754 77.0488 111 77.0488C113.245 77.0488 115.072 75.222 115.072 72.9766ZM111 75.6571C109.522 75.6571 108.319 74.4545 108.319 72.9766C108.319 71.4985 109.522 70.2959 111 70.2959C112.478 70.2959 113.68 71.4985 113.68 72.9766C113.68 74.4545 112.478 75.6571 111 75.6571Z" fill="white" stroke="white" stroke-width="0.1"/>
<path d="M132.978 46.9273C130.97 46.9273 129.302 48.3894 128.97 50.3036H122.21C121.825 50.3036 121.514 50.6151 121.514 50.9994C121.514 51.3838 121.825 51.6952 122.21 51.6952H128.97C129.302 53.6094 130.97 55.0715 132.978 55.0715C135.223 55.0715 137.05 53.2448 137.05 50.9994C137.05 48.7541 135.223 46.9273 132.978 46.9273ZM132.978 53.6799C131.5 53.6799 130.297 52.4773 130.297 50.9994C130.297 49.5213 131.5 48.3189 132.978 48.3189C134.456 48.3189 135.658 49.5215 135.658 50.9994C135.658 52.4776 134.456 53.6799 132.978 53.6799Z" fill="white" stroke="white" stroke-width="0.1"/>
<path d="M115.857 57.6073H106.143C105.178 57.6073 104.393 56.822 104.393 55.857V46.1436C104.393 45.1785 105.178 44.3933 106.143 44.3933H115.857C116.822 44.3933 117.607 45.1783 117.607 46.1436V55.857C117.607 56.822 116.822 57.6073 115.857 57.6073ZM106.143 45.5856C105.835 45.5856 105.585 45.836 105.585 46.1436V55.857C105.585 56.1646 105.835 56.415 106.143 56.415H115.857C116.164 56.415 116.415 56.1646 116.415 55.857V46.1436C116.415 45.836 116.164 45.5856 115.857 45.5856H106.143Z" fill="white"/>
<path d="M111 48.7179H108.234C107.905 48.7179 107.638 48.4511 107.638 48.1218C107.638 47.7925 107.905 47.5256 108.234 47.5256H111C111.329 47.5256 111.596 47.7925 111.596 48.1218C111.596 48.4511 111.329 48.7179 111 48.7179Z" fill="white"/>
<path d="M113.766 51.5958H108.235C107.906 51.5958 107.639 51.329 107.639 50.9997C107.639 50.6704 107.906 50.4036 108.235 50.4036H113.766C114.095 50.4036 114.362 50.6704 114.362 50.9997C114.362 51.329 114.095 51.5958 113.766 51.5958Z" fill="white"/>
<path d="M113.766 54.4745H108.235C107.906 54.4745 107.639 54.2077 107.639 53.8784C107.639 53.5491 107.906 53.2822 108.235 53.2822H113.766C114.095 53.2822 114.362 53.5491 114.362 53.8784C114.362 54.2077 114.095 54.4745 113.766 54.4745Z" fill="white"/>
<defs>
<filter id="filter0_dd" x="67" y="9" width="88" height="88" filterUnits="userSpaceOnUse" color-interpolation-filters="sRGB">
<feFlood flood-opacity="0" result="BackgroundImageFix"/>
<feColorMatrix in="SourceAlpha" type="matrix" values="0 0 0 0 0 0 0 0 0 0 0 0 0 0 0 0 0 0 127 0"/>
<feOffset dy="2"/>
<feGaussianBlur stdDeviation="2"/>
<feColorMatrix type="matrix" values="0 0 0 0 0.376471 0 0 0 0 0.380392 0 0 0 0 0.439216 0 0 0 0.16 0"/>
<feBlend mode="normal" in2="BackgroundImageFix" result="effect1_dropShadow"/>
<feColorMatrix in="SourceAlpha" type="matrix" values="0 0 0 0 0 0 0 0 0 0 0 0 0 0 0 0 0 0 127 0"/>
<feOffset/>
<feGaussianBlur stdDeviation="0.5"/>
<feColorMatrix type="matrix" values="0 0 0 0 0.156863 0 0 0 0 0.160784 0 0 0 0 0.239216 0 0 0 0.04 0"/>
<feBlend mode="normal" in2="effect1_dropShadow" result="effect2_dropShadow"/>
<feBlend mode="normal" in="SourceGraphic" in2="effect2_dropShadow" result="shape"/>
</filter>
<linearGradient id="paint0_linear" x1="77" y1="43" x2="77" y2="111" gradientUnits="userSpaceOnUse">
<stop stop-color="#3BC882" stop-opacity="0"/>
<stop offset="1" stop-color="#3BC882"/>
</linearGradient>
</defs>
</svg>
