<svg width="155" height="154" viewBox="0 0 155 154" fill="none" xmlns="http://www.w3.org/2000/svg">
<circle cx="77" cy="77" r="77" fill="#E3FFF1"/>
<path fill-rule="evenodd" clip-rule="evenodd" d="M102.5 43H51.5C46.8052 43 43 47.5662 43 53.2V100.8C43 106.434 46.8052 111 51.5 111H102.5C107.195 111 111 106.434 111 100.8V53.2C111 47.5662 107.195 43 102.5 43Z" fill="url(#paint0_linear)"/>
<g opacity="0.65" filter="url(#filter0_dd)">
<circle cx="111" cy="51" r="40" fill="#376C66"/>
</g>
<path d="M121.51 60.5254L122.704 59.3314C122.834 59.2009 123.011 59.1277 123.196 59.1277C123.38 59.1277 123.557 59.2009 123.688 59.3314L127.06 62.7036C127.332 62.9752 127.332 63.4158 127.06 63.6875M121.51 60.5254L119.368 62.7387L119.332 62.7033C119.202 62.8339 119.128 63.0109 119.128 63.1954C119.128 63.38 119.202 63.5569 119.332 63.6874L119.332 63.6875L122.704 67.0591C122.835 67.1897 123.011 67.2629 123.196 67.2629C123.381 67.2629 123.558 67.1897 123.688 67.0591L127.06 63.6875M121.51 60.5254L119.085 58.1L119.085 58.1C118.813 57.8281 118.372 57.8281 118.101 58.1M121.51 60.5254L120.526 61.5093L118.101 59.0839C117.829 58.8122 117.829 58.3716 118.101 58.1M127.06 63.6875L127.025 63.6521L127.06 63.6875L127.06 63.6875ZM118.101 58.1C118.101 58.1 118.101 58.1 118.101 58.1L118.136 58.1353L118.101 58.1C118.101 58.1 118.101 58.1 118.101 58.1ZM123.196 65.5829L120.808 63.1951L123.196 60.8074L125.584 63.1951L123.196 65.5829Z" fill="white" stroke="white" stroke-width="0.1"/>
<path d="M99.608 51.6952C99.9924 51.6952 100.304 51.3838 100.304 50.9994C100.304 50.6151 99.9924 50.3036 99.608 50.3036H93.03C92.6983 48.3894 91.0301 46.9273 89.0221 46.9273C86.7765 46.9273 84.95 48.7541 84.95 50.9994C84.95 53.2448 86.7768 55.0715 89.0221 55.0715C91.0301 55.0715 92.6983 53.6094 93.03 51.6952H99.608ZM89.0221 53.6799C87.544 53.6799 86.3416 52.4773 86.3416 50.9994C86.3416 49.5213 87.5442 48.3189 89.0221 48.3189C90.5 48.3189 91.7029 49.5215 91.7029 50.9994C91.7029 52.4776 90.5003 53.6799 89.0221 53.6799Z" fill="white" stroke="white" stroke-width="0.1"/>
<path d="M119.085 43.8993L119.085 43.8993C118.949 44.0351 118.771 44.103 118.593 44.103C118.415 44.103 118.237 44.0351 118.101 43.8993L118.101 43.8993C117.829 43.6276 117.829 43.187 118.101 42.9154L120.526 40.4902L119.332 39.2962L119.332 39.2961C119.202 39.1656 119.128 38.9887 119.128 38.8041C119.128 38.6193 119.202 38.4426 119.332 38.312L119.332 38.312L122.704 34.9404C122.835 34.8098 123.012 34.7366 123.196 34.7366C123.381 34.7366 123.558 34.8098 123.688 34.9404L127.06 38.312C127.332 38.5837 127.332 39.0243 127.06 39.2959M119.085 43.8993L127.025 39.2606M119.085 43.8993L121.51 41.4738L119.085 43.8993ZM127.06 39.2959L127.025 39.2606M127.06 39.2959L127.06 39.2959L127.025 39.2606M127.06 39.2959L123.688 42.6678L123.653 42.6325L127.025 39.2606M120.808 38.8041L123.196 36.4163L125.584 38.8041L123.196 41.1919L120.808 38.8041Z" fill="white" stroke="white" stroke-width="0.1"/>
<path d="M100.49 60.5252L102.915 58.1L102.915 58.1L102.951 58.1354L100.49 60.5252ZM100.49 60.5252L99.2961 59.3312C99.0343 59.0694 98.5738 59.0693 98.3122 59.3312C98.3122 59.3312 98.3122 59.3312 98.3122 59.3312L94.9406 62.7031L100.49 60.5252ZM94.9406 63.687C94.6686 63.4153 94.6686 62.9748 94.9406 62.7031L94.9406 63.687ZM94.9406 63.687C94.9406 63.687 94.9406 63.687 94.9406 63.687M94.9406 63.687L94.9406 63.687M94.9406 63.687L98.3122 67.0587C98.448 67.1945 98.6263 67.2624 98.8043 67.2624C98.9823 67.2624 99.1605 67.1945 99.2964 67.0587L102.668 63.687C102.799 63.5565 102.872 63.3794 102.872 63.1949C102.872 63.0104 102.799 62.8334 102.668 62.7028L101.474 61.5088L103.899 59.0837L103.899 59.0836L103.864 59.0483L94.9406 63.687ZM98.804 65.583L96.4163 63.1952L98.804 60.8074L101.192 63.1952L98.804 65.583Z" fill="white" stroke="white" stroke-width="0.1"/>
<path d="M99.2964 34.9396L102.668 38.3112L102.633 38.3466L102.668 38.3112C102.799 38.4418 102.872 38.6188 102.872 38.8033C102.872 38.9881 102.799 39.1648 102.668 39.2954L101.474 40.4894L103.9 42.9146C103.9 42.9146 103.9 42.9146 103.9 42.9146C104.172 43.1862 104.172 43.6268 103.9 43.8985L99.2964 34.9396ZM99.2964 34.9396C99.2964 34.9396 99.2964 34.9396 99.2964 34.9396L99.2964 34.9396ZM100.49 41.4733L102.916 43.8985C103.051 44.0343 103.23 44.1022 103.408 44.1022C103.586 44.1022 103.764 44.0343 103.9 43.8985L100.49 41.4733ZM100.49 41.4733L99.2964 42.6673C99.1658 42.7978 98.9891 42.871 98.8043 42.871C98.6195 42.871 98.4427 42.7978 98.3122 42.6673L94.9406 39.2954C94.9406 39.2954 94.9406 39.2954 94.9406 39.2954C94.6686 39.0237 94.6686 38.5831 94.9406 38.3115M100.49 41.4733L94.9406 38.3115M94.9406 38.3115L98.3124 34.9396M94.9406 38.3115L98.3124 34.9396M98.3124 34.9396L98.3125 34.9396L98.3478 34.9749L98.3124 34.9396ZM98.8043 41.1911L96.4165 38.8033L98.8043 36.4155L101.192 38.8033L98.8043 41.1911Z" fill="white" stroke="white" stroke-width="0.1"/>
<path d="M111 24.9498C108.754 24.9498 106.928 26.7765 106.928 29.0219C106.928 31.0299 108.39 32.6981 110.304 33.0297V39.6129C110.304 39.9973 110.615 40.3088 111 40.3088C111.384 40.3088 111.695 39.9973 111.695 39.6129V33.0297C113.61 32.6981 115.072 31.0299 115.072 29.0219C115.072 26.7765 113.245 24.9498 111 24.9498ZM111 31.7026C109.522 31.7026 108.319 30.5 108.319 29.0219C108.319 27.5437 109.522 26.3414 111 26.3414C112.478 26.3414 113.68 27.544 113.68 29.0219C113.68 30.5 112.478 31.7026 111 31.7026Z" fill="white" stroke="white" stroke-width="0.1"/>
<path d="M115.072 72.9766C115.072 70.9686 113.61 69.3004 111.695 68.9688V62.3856C111.695 62.0012 111.384 61.6897 111 61.6897C110.615 61.6897 110.304 62.0012 110.304 62.3856V68.9688C108.39 69.3004 106.928 70.9686 106.928 72.9766C106.928 75.222 108.754 77.0488 111 77.0488C113.245 77.0488 115.072 75.222 115.072 72.9766ZM111 75.6571C109.522 75.6571 108.319 74.4545 108.319 72.9766C108.319 71.4985 109.522 70.2959 111 70.2959C112.478 70.2959 113.68 71.4985 113.68 72.9766C113.68 74.4545 112.478 75.6571 111 75.6571Z" fill="white" stroke="white" stroke-width="0.1"/>
<path d="M132.978 46.9273C130.97 46.9273 129.302 48.3894 128.97 50.3036H122.21C121.825 50.3036 121.514 50.6151 121.514 50.9994C121.514 51.3838 121.825 51.6952 122.21 51.6952H128.97C129.302 53.6094 130.97 55.0715 132.978 55.0715C135.223 55.0715 137.05 53.2448 137.05 50.9994C137.05 48.7541 135.223 46.9273 132.978 46.9273ZM132.978 53.6799C131.5 53.6799 130.297 52.4773 130.297 50.9994C130.297 49.5213 131.5 48.3189 132.978 48.3189C134.456 48.3189 135.658 49.5215 135.658 50.9994C135.658 52.4776 134.456 53.6799 132.978 53.6799Z" fill="white" stroke="white" stroke-width="0.1"/>
<path d="M115.857 57.6073H106.143C105.178 57.6073 104.393 56.822 104.393 55.857V46.1436C104.393 45.1785 105.178 44.3933 106.143 44.3933H115.857C116.822 44.3933 117.607 45.1783 117.607 46.1436V55.857C117.607 56.822 116.822 57.6073 115.857 57.6073ZM106.143 45.5856C105.835 45.5856 105.585 45.836 105.585 46.1436V55.857C105.585 56.1646 105.835 56.415 106.143 56.415H115.857C116.164 56.415 116.415 56.1646 116.415 55.857V46.1436C116.415 45.836 116.164 45.5856 115.857 45.5856H106.143Z" fill="white"/>
<path d="M111 48.7179H108.234C107.905 48.7179 107.638 48.4511 107.638 48.1218C107.638 47.7925 107.905 47.5256 108.234 47.5256H111C111.329 47.5256 111.596 47.7925 111.596 48.1218C111.596 48.4511 111.329 48.7179 111 48.7179Z" fill="white"/>
<path d="M113.766 51.5958H108.235C107.906 51.5958 107.639 51.329 107.639 50.9997C107.639 50.6704 107.906 50.4036 108.235 50.4036H113.766C114.095 50.4036 114.362 50.6704 114.362 50.9997C114.362 51.329 114.095 51.5958 113.766 51.5958Z" fill="white"/>
<path d="M113.766 54.4745H108.235C107.906 54.4745 107.639 54.2077 107.639 53.8784C107.639 53.5491 107.906 53.2822 108.235 53.2822H113.766C114.095 53.2822 114.362 53.5491 114.362 53.8784C114.362 54.2077 114.095 54.4745 113.766 54.4745Z" fill="white"/>
<defs>
<filter id="filter0_dd" x="67" y="9" width="88" height="88" filterUnits="userSpaceOnUse" color-interpolation-filters="sRGB">
<feFlood flood-opacity="0" result="BackgroundImageFix"/>
<feColorMatrix in="SourceAlpha" type="matrix" values="0 0 0 0 0 0 0 0 0 0 0 0 0 0 0 0 0 0 127 0"/>
<feOffset dy="2"/>
<feGaussianBlur stdDeviation="2"/>
<feColorMatrix type="matrix" values="0 0 0 0 0.376471 0 0 0 0 0.380392 0 0 0 0 0.439216 0 0 0 0.16 0"/>
<feBlend mode="normal" in2="BackgroundImageFix" result="effect1_dropShadow"/>
<feColorMatrix in="SourceAlpha" type="matrix" values="0 0 0 0 0 0 0 0 0 0 0 0 0 0 0 0 0 0 127 0"/>
<feOffset/>
<feGaussianBlur stdDeviation="0.5"/>
<feColorMatrix type="matrix" values="0 0 0 0 0.156863 0 0 0 0 0.160784 0 0 0 0 0.239216 0 0 0 0.04 0"/>
<feBlend mode="normal" in2="effect1_dropShadow" result="effect2_dropShadow"/>
<feBlend mode="normal" in="SourceGraphic" in2="effect2_dropShadow" result="shape"/>
</filter>
<linearGradient id="paint0_linear" x1="77" y1="43" x2="77" y2="111" gradientUnits="userSpaceOnUse">
<stop stop-color="#3BC882" stop-opacity="0"/>
<stop offset="1" stop-color="#3BC882"/>
</linearGradient>
</defs>
</svg>
