<svg width="52" height="52" viewBox="0 0 52 52" fill="none" xmlns="http://www.w3.org/2000/svg">
<rect width="52" height="52" rx="8" fill="#E3FFF1"/>
<path d="M17.9667 28.1965C17.1854 28.9777 16.7573 30.0121 16.7573 31.1152C16.7573 32.2184 17.1886 33.2559 17.9667 34.034C18.7479 34.8152 19.7823 35.2434 20.8854 35.2434C21.9886 35.2434 23.0261 34.8121 23.8042 34.034L25.6604 32.1777L19.8229 26.3402L17.9667 28.1965ZM31.1167 16.7559C30.0136 16.7559 28.9761 17.1871 28.1979 17.9652L26.3417 19.8215L32.1792 25.659L34.0354 23.8027C34.8136 23.0215 35.2448 21.9871 35.2448 20.884C35.2448 19.7809 34.8136 18.7434 34.0354 17.9652C33.2542 17.184 32.2198 16.7559 31.1167 16.7559Z" fill="#E3FFF1"/>
<path d="M28.0902 27.0852C28.0432 27.0386 27.9798 27.0125 27.9136 27.0125C27.8475 27.0125 27.7841 27.0386 27.7371 27.0852L25.6558 29.1664L22.834 26.3445L24.9183 24.2602C25.0152 24.1633 25.0152 24.0039 24.9183 23.907L23.7808 22.7695C23.7338 22.723 23.6704 22.6969 23.6043 22.6969C23.5381 22.6969 23.4747 22.723 23.4277 22.7695L21.3433 24.8539L19.9996 23.5102C19.9763 23.4868 19.9485 23.4684 19.9178 23.4561C19.8872 23.4437 19.8545 23.4377 19.8215 23.4383C19.759 23.4383 19.6933 23.4633 19.6433 23.5102L16.4621 26.6945C15.2959 27.8576 14.6376 29.435 14.6308 31.082C14.6246 32.3164 14.9808 33.5539 15.7027 34.6164L13.3246 36.9945C13.2781 37.0415 13.252 37.105 13.252 37.1711C13.252 37.2372 13.2781 37.3007 13.3246 37.3477L14.6496 38.6727C14.6996 38.7227 14.7621 38.7445 14.8277 38.7445C14.8933 38.7445 14.9558 38.7195 15.0058 38.6727L17.384 36.2945C18.4371 37.0102 19.6621 37.3664 20.8871 37.3664C22.4871 37.3664 24.0871 36.757 25.309 35.5352L28.4933 32.3508C28.5902 32.2539 28.5902 32.0945 28.4933 31.9977L27.1496 30.6539L29.234 28.5695C29.3308 28.4727 29.3308 28.3133 29.234 28.2164L28.0902 27.0852ZM23.8027 34.0352C23.4202 34.4196 22.9654 34.7244 22.4644 34.932C21.9634 35.1396 21.4262 35.2458 20.884 35.2445C19.7808 35.2445 18.7465 34.8164 17.9652 34.0352C17.1871 33.257 16.7558 32.2195 16.7558 31.1164C16.7558 30.0133 17.184 28.9789 17.9652 28.1977L19.8215 26.3414L25.659 32.1789L23.8027 34.0352ZM38.6777 14.6508L37.3527 13.3258C37.3027 13.2758 37.2402 13.2539 37.1746 13.2539C37.109 13.2539 37.0465 13.2789 36.9965 13.3258L34.6183 15.7039C33.5845 15.0034 32.364 14.63 31.1152 14.632C29.5152 14.632 27.9152 15.2414 26.6933 16.4633L23.509 19.6477C23.4624 19.6946 23.4363 19.7581 23.4363 19.8242C23.4363 19.8903 23.4624 19.9538 23.509 20.0008L31.9996 28.4914C32.0496 28.5414 32.1121 28.5633 32.1777 28.5633C32.2402 28.5633 32.3058 28.5383 32.3558 28.4914L35.5402 25.307C37.6933 23.1508 37.9465 19.8164 36.2996 17.3852L38.6777 15.007C38.7746 14.907 38.7746 14.7477 38.6777 14.6508ZM34.034 23.8039L32.1777 25.6602L26.3402 19.8227L28.1965 17.9664C28.9746 17.1883 30.0121 16.757 31.1152 16.757C32.2183 16.757 33.2527 17.1852 34.034 17.9664C34.8121 18.7445 35.2433 19.782 35.2433 20.8852C35.2433 21.9883 34.8121 23.0227 34.034 23.8039Z" fill="#3BC882"/>
</svg>
