<svg width="24" height="24" viewBox="0 0 24 24" fill="none" xmlns="http://www.w3.org/2000/svg">
<path d="M11.9906 1.78711C6.19453 1.78477 1.5 6.47695 1.5 12.2684C1.5 16.848 4.43672 20.741 8.52656 22.1707C9.07734 22.309 8.99297 21.9176 8.99297 21.6504V19.834C5.8125 20.2066 5.68359 18.102 5.47031 17.7504C5.03906 17.0145 4.01953 16.827 4.32422 16.4754C5.04844 16.1027 5.78672 16.5691 6.64219 17.8324C7.26094 18.7488 8.46797 18.5941 9.07969 18.4418C9.21328 17.891 9.49922 17.3988 9.89297 17.0168C6.59766 16.4262 5.22422 14.4152 5.22422 12.0246C5.22422 10.8645 5.60625 9.79805 6.35625 8.93789C5.87812 7.51992 6.40078 6.30586 6.47109 6.12539C7.83281 6.00352 9.24844 7.10039 9.35859 7.18711C10.132 6.97852 11.0156 6.86836 12.0047 6.86836C12.9984 6.86836 13.8844 6.9832 14.6648 7.19414C14.9297 6.99258 16.2422 6.05039 17.5078 6.16524C17.5758 6.3457 18.0867 7.53164 17.6367 8.93086C18.3961 9.79336 18.7828 10.8691 18.7828 12.0316C18.7828 14.427 17.4 16.4402 14.0953 17.0215C14.3784 17.2999 14.6031 17.6318 14.7564 17.998C14.9098 18.3642 14.9886 18.7573 14.9883 19.1543V21.791C15.007 22.002 14.9883 22.2105 15.3398 22.2105C19.4906 20.8113 22.4789 16.8902 22.4789 12.2707C22.4789 6.47695 17.782 1.78711 11.9906 1.78711Z" fill="#555770"/>
</svg>
