<svg width="1672" height="479" viewBox="0 0 1672 479" fill="none" xmlns="http://www.w3.org/2000/svg">
<g opacity="0.45">
<mask id="mask0" mask-type="alpha" maskUnits="userSpaceOnUse" x="976" y="68" width="577" height="334">
<circle r="235.199" transform="matrix(0.866044 -0.499967 0.866044 0.499967 1264.39 235.184)" fill="url(#paint0_radial)"/>
</mask>
<g mask="url(#mask0)">
<path opacity="0.15" d="M1309.57 445.102L1310.45 444.598L1354.98 418.889L1355.85 418.385L1400.39 392.676L1401.26 392.172L1445.79 366.462L1446.67 365.958L1491.2 340.249L1492.07 339.745L1536.61 314.036L1537.48 313.532L1582.01 287.822L1582.89 287.318L1627.42 261.609L1628.29 261.105L1672.83 235.396L1673.7 234.892L1672.83 234.388L1628.33 208.701L1627.46 208.197L1582.96 182.51L1582.09 182.006L1537.6 156.319L1536.72 155.815L1492.23 130.128L1491.36 129.625L1446.86 103.937L1445.99 103.434L1401.49 77.7465L1400.62 77.2428L1356.13 51.5556L1355.25 51.0519L1310.76 25.3647L1309.88 24.8611L1265.39 -0.82613L1264.52 -1.3298L1263.64 -0.825702L1128.3 77.3102L1127.42 77.8143L992.076 155.95L991.203 156.454L854.982 235.094L991.086 313.667L991.959 314.171L1127.19 392.239L1128.06 392.743L1263.29 470.812L1264.17 471.316L1265.04 470.812L1309.57 445.102ZM1219.98 25.3872L1264.52 -0.322032L1309.01 25.3652L1264.48 51.0744L1219.98 25.3872ZM1265.35 51.5781L1309.88 25.8688L1354.38 51.556L1309.85 77.2653L1265.35 51.5781ZM1310.72 77.7689L1355.25 52.0597L1399.75 77.7469L1355.21 103.456L1310.72 77.7689ZM1356.09 103.96L1400.62 78.2506L1445.12 103.938L1400.58 129.647L1356.09 103.96ZM1401.45 130.151L1445.99 104.441L1490.48 130.129L1445.95 155.838L1401.45 130.151ZM1446.82 156.342L1491.36 130.632L1535.85 156.319L1491.32 182.029L1446.82 156.342ZM1492.19 182.532L1536.72 156.823L1581.22 182.51L1536.69 208.22L1492.19 182.532ZM1537.56 208.723L1582.09 183.014L1626.59 208.701L1582.05 234.41L1537.56 208.723ZM1582.93 234.914L1627.46 209.205L1671.95 234.892L1627.42 260.601L1582.93 234.914ZM1174.58 51.6005L1219.11 25.8913L1263.6 51.5785L1219.07 77.2877L1174.58 51.6005ZM1219.94 77.7914L1264.48 52.0822L1308.97 77.7694L1264.44 103.479L1219.94 77.7914ZM1265.31 103.982L1309.85 78.273L1354.34 103.96L1309.81 129.669L1265.31 103.982ZM1310.68 130.173L1355.21 104.464L1399.71 130.151L1355.17 155.86L1310.68 130.173ZM1356.05 156.364L1400.58 130.655L1445.08 156.342L1400.54 182.051L1356.05 156.364ZM1401.42 182.555L1445.95 156.846L1490.44 182.533L1445.91 208.242L1401.42 182.555ZM1446.78 208.746L1491.32 183.036L1535.81 208.724L1491.28 234.433L1446.78 208.746ZM1492.15 234.937L1536.68 209.227L1581.18 234.915L1536.65 260.624L1492.15 234.937ZM1537.52 261.127L1582.05 235.418L1626.55 261.105L1582.01 286.815L1537.52 261.127ZM1129.17 77.8138L1173.7 52.1046L1218.2 77.7918L1173.66 103.501L1129.17 77.8138ZM1174.54 104.005L1219.07 78.2955L1263.57 103.983L1219.03 129.692L1174.54 104.005ZM1219.9 130.196L1264.44 104.486L1308.93 130.174L1264.4 155.883L1219.9 130.196ZM1265.27 156.386L1309.81 130.677L1354.3 156.364L1309.77 182.074L1265.27 156.386ZM1310.64 182.577L1355.17 156.868L1399.67 182.555L1355.14 208.265L1310.64 182.577ZM1356.01 208.768L1400.54 183.059L1445.04 208.746L1400.5 234.455L1356.01 208.768ZM1401.38 234.959L1445.91 209.25L1490.41 234.937L1445.87 260.646L1401.38 234.959ZM1446.74 261.15L1491.28 235.441L1535.77 261.128L1491.24 286.837L1446.74 261.15ZM1492.11 287.341L1536.65 261.632L1581.14 287.319L1536.61 313.028L1492.11 287.341ZM1083.76 104.027L1128.3 78.318L1172.79 104.005L1128.26 129.714L1083.76 104.027ZM1129.13 130.218L1173.66 104.509L1218.16 130.196L1173.63 155.905L1129.13 130.218ZM1174.5 156.409L1219.03 130.7L1263.53 156.387L1218.99 182.096L1174.5 156.409ZM1219.87 182.6L1264.4 156.891L1308.89 182.578L1264.36 208.287L1219.87 182.6ZM1265.23 208.791L1309.77 183.081L1354.26 208.769L1309.73 234.478L1265.23 208.791ZM1310.6 234.981L1355.14 209.272L1399.63 234.959L1355.1 260.669L1310.6 234.981ZM1355.97 261.172L1400.5 235.463L1445 261.15L1400.46 286.86L1355.97 261.172ZM1401.34 287.363L1445.87 261.654L1490.37 287.341L1445.83 313.05L1401.34 287.363ZM1446.71 313.554L1491.24 287.845L1535.73 313.532L1491.2 339.241L1446.71 313.554ZM1038.36 130.241L1082.89 104.531L1127.38 130.218L1082.85 155.928L1038.36 130.241ZM1083.72 156.431L1128.26 130.722L1172.75 156.409L1128.22 182.119L1083.72 156.431ZM1129.09 182.622L1173.62 156.913L1218.12 182.6L1173.59 208.309L1129.09 182.622ZM1174.46 208.813L1218.99 183.104L1263.49 208.791L1218.95 234.5L1174.46 208.813ZM1219.83 235.004L1264.36 209.295L1308.86 234.982L1264.32 260.691L1219.83 235.004ZM1265.19 261.195L1309.73 235.486L1354.22 261.173L1309.69 286.882L1265.19 261.195ZM1310.56 287.386L1355.1 261.676L1399.59 287.364L1355.06 313.073L1310.56 287.386ZM1355.93 313.577L1400.46 287.867L1444.96 313.555L1400.43 339.264L1355.93 313.577ZM1401.3 339.767L1445.83 314.058L1490.33 339.745L1445.79 365.455L1401.3 339.767ZM992.948 156.454L1037.48 130.745L1081.98 156.432L1037.44 182.141L992.948 156.454ZM1038.32 182.645L1082.85 156.935L1127.35 182.623L1082.81 208.332L1038.32 182.645ZM1083.68 208.836L1128.22 183.126L1172.71 208.814L1128.18 234.523L1083.68 208.836ZM1129.05 235.026L1173.59 209.317L1218.08 235.004L1173.55 260.714L1129.05 235.026ZM1174.42 261.217L1218.95 235.508L1263.45 261.195L1218.92 286.904L1174.42 261.217ZM1219.79 287.408L1264.32 261.699L1308.82 287.386L1264.28 313.095L1219.79 287.408ZM1265.16 313.599L1309.69 287.89L1354.18 313.577L1309.65 339.286L1265.16 313.599ZM1310.52 339.79L1355.06 314.081L1399.55 339.768L1355.02 365.477L1310.52 339.79ZM1355.89 365.981L1400.43 340.272L1444.92 365.959L1400.39 391.668L1355.89 365.981ZM947.542 182.667L992.075 156.958L1036.57 182.645L992.037 208.354L947.542 182.667ZM992.91 208.858L1037.44 183.149L1081.94 208.836L1037.41 234.545L992.91 208.858ZM1038.28 235.049L1082.81 209.34L1127.31 235.027L1082.77 260.736L1038.28 235.049ZM1083.65 261.24L1128.18 235.531L1172.67 261.218L1128.14 286.927L1083.65 261.24ZM1129.01 287.431L1173.55 261.721L1218.04 287.409L1173.51 313.118L1129.01 287.431ZM1174.38 313.621L1218.91 287.912L1263.41 313.599L1218.88 339.309L1174.38 313.621ZM1219.75 339.812L1264.28 314.103L1308.78 339.79L1264.24 365.5L1219.75 339.812ZM1265.12 366.003L1309.65 340.294L1354.15 365.981L1309.61 391.69L1265.12 366.003ZM1310.48 392.194L1355.02 366.485L1399.51 392.172L1354.98 417.881L1310.48 392.194ZM902.135 208.88L946.668 183.171L991.164 208.858L946.63 234.568L902.135 208.88ZM947.503 235.071L992.036 209.362L1036.53 235.049L991.998 260.759L947.503 235.071ZM992.871 261.262L1037.4 235.553L1081.9 261.24L1037.37 286.949L992.871 261.262ZM1038.24 287.453L1082.77 261.744L1127.27 287.431L1082.73 313.14L1038.24 287.453ZM1083.61 313.644L1128.14 287.935L1172.64 313.622L1128.1 339.331L1083.61 313.644ZM1128.97 339.835L1173.51 314.126L1218 339.813L1173.47 365.522L1128.97 339.835ZM1174.34 366.026L1218.88 340.316L1263.37 366.004L1218.84 391.713L1174.34 366.026ZM1219.71 392.217L1264.24 366.507L1308.74 392.195L1264.21 417.904L1219.71 392.217ZM1265.08 418.407L1309.61 392.698L1354.11 418.385L1309.57 444.095L1265.08 418.407ZM856.728 235.094L901.262 209.385L945.757 235.072L901.224 260.781L856.728 235.094ZM902.096 261.285L946.63 235.575L991.125 261.263L946.591 286.972L902.096 261.285ZM947.464 287.476L991.997 261.766L1036.49 287.454L991.959 313.163L947.464 287.476ZM992.832 313.666L1037.37 287.957L1081.86 313.644L1037.33 339.354L992.832 313.666ZM1038.2 339.857L1082.73 314.148L1127.23 339.835L1082.7 365.544L1038.2 339.857ZM1083.57 366.048L1128.1 340.339L1172.6 366.026L1128.06 391.735L1083.57 366.048ZM1128.94 392.239L1173.47 366.53L1217.96 392.217L1173.43 417.926L1128.94 392.239ZM1174.3 418.43L1218.84 392.721L1263.33 418.408L1218.8 444.117L1174.3 418.43ZM1219.67 444.621L1264.2 418.912L1308.7 444.599L1264.17 470.308L1219.67 444.621Z" fill="#8F90A6"/>
<path d="M990.252 261.262L991.999 260.254L993.744 261.261L991.997 262.269L990.252 261.262ZM901.262 209.888L903.008 208.879L901.263 207.872L899.517 208.88L901.262 209.888ZM1037.38 262.258L1039.13 261.25L1037.39 260.243L1035.64 261.251L1037.38 262.258ZM946.629 236.079L948.376 235.07L946.631 234.063L944.885 235.071L946.629 236.079ZM992.017 236.067L993.763 235.059L992.018 234.052L990.272 235.06L992.017 236.067ZM901.242 236.09L902.989 235.082L901.244 234.074L899.497 235.082L901.242 236.09ZM946.591 288.483L948.337 287.475L946.592 286.467L944.846 287.475L946.591 288.483ZM991.978 288.472L993.724 287.463L991.979 286.456L990.233 287.464L991.978 288.472ZM901.224 260.276L899.478 261.285L901.223 262.292L902.969 261.284L901.224 260.276ZM946.61 262.281L948.356 261.272L946.611 260.265L944.865 261.273L946.61 262.281ZM992.056 183.663L993.802 182.655L992.057 181.648L990.311 182.656L992.056 183.663ZM946.649 209.876L948.395 208.868L946.65 207.861L944.904 208.869L946.649 209.876ZM1037.42 209.854L1039.17 208.846L1037.43 207.838L1035.68 208.847L1037.42 209.854ZM1082.79 236.045L1084.54 235.037L1082.79 234.029L1081.05 235.038L1082.79 236.045ZM1037.4 236.056L1039.15 235.048L1037.41 234.041L1035.66 235.049L1037.4 236.056ZM992.036 209.865L993.783 208.857L992.038 207.85L990.291 208.858L992.036 209.865ZM946.668 183.674L948.415 182.666L946.67 181.659L944.923 182.667L946.668 183.674ZM852.366 232.575L851.493 233.079L854.983 235.093L851.49 237.11L852.362 237.614L855.855 235.597L859.345 237.612L860.218 237.108L856.728 235.093L860.221 233.077L859.349 232.573L855.856 234.589L852.366 232.575ZM1128.22 183.629L1129.96 182.621L1128.22 181.614L1126.47 182.622L1128.22 183.629ZM1037.48 131.248L1039.23 130.239L1037.48 129.232L1035.74 130.24L1037.48 131.248ZM1173.61 183.618L1175.35 182.61L1173.61 181.603L1171.86 182.611L1173.61 183.618ZM1082.85 157.439L1084.6 156.43L1082.85 155.423L1081.1 156.431L1082.85 157.439ZM1128.24 157.427L1129.98 156.419L1128.24 155.412L1126.49 156.42L1128.24 157.427ZM1037.46 157.45L1039.21 156.442L1037.46 155.434L1035.72 156.442L1037.46 157.45ZM1082.81 209.843L1084.56 208.835L1082.81 207.827L1081.07 208.835L1082.81 209.843ZM1128.2 209.832L1129.94 208.823L1128.2 207.816L1126.45 208.824L1128.2 209.832ZM1037.44 181.636L1035.7 182.645L1037.44 183.652L1039.19 182.644L1037.44 181.636ZM1082.83 183.641L1084.58 182.632L1082.83 181.625L1081.09 182.633L1082.83 183.641ZM1128.28 105.023L1130.02 104.015L1128.28 103.008L1126.53 104.016L1128.28 105.023ZM1082.87 131.236L1084.62 130.228L1082.87 129.221L1081.12 130.229L1082.87 131.236ZM1173.64 131.214L1175.39 130.206L1173.65 129.198L1171.9 130.207L1173.64 131.214ZM1219.01 157.405L1220.76 156.397L1219.01 155.389L1217.27 156.398L1219.01 157.405ZM1173.62 157.416L1175.37 156.408L1173.63 155.401L1171.88 156.409L1173.62 157.416ZM1128.26 131.225L1130 130.217L1128.26 129.21L1126.51 130.218L1128.26 131.225ZM1082.89 105.034L1084.64 104.026L1082.89 103.019L1081.14 104.027L1082.89 105.034ZM988.586 153.935L987.713 154.439L991.203 156.453L987.71 158.47L988.583 158.974L992.076 156.957L995.565 158.972L996.439 158.468L992.949 156.453L996.442 154.437L995.569 153.933L992.076 155.949L988.586 153.935ZM1264.44 104.989L1266.18 103.981L1264.44 102.974L1262.69 103.982L1264.44 104.989ZM1173.7 52.6076L1175.45 51.5995L1173.7 50.5921L1171.96 51.6003L1173.7 52.6076ZM1309.83 104.978L1311.57 103.97L1309.83 102.963L1308.08 103.971L1309.83 104.978ZM1219.07 78.7985L1220.82 77.7903L1219.07 76.783L1217.33 77.7912L1219.07 78.7985ZM1264.46 78.7873L1266.2 77.7791L1264.46 76.7718L1262.71 77.78L1264.46 78.7873ZM1173.68 78.8098L1175.43 77.8016L1173.68 76.7942L1171.94 77.8024L1173.68 78.8098ZM1219.03 131.203L1220.78 130.195L1219.03 129.187L1217.29 130.195L1219.03 131.203ZM1264.42 131.192L1266.17 130.183L1264.42 129.176L1262.67 130.184L1264.42 131.192ZM1173.66 102.996L1171.92 104.005L1173.66 105.012L1175.41 104.004L1173.66 102.996ZM1219.05 105.001L1220.8 103.992L1219.05 102.985L1217.31 103.993L1219.05 105.001ZM1264.5 26.3831L1266.24 25.3749L1264.5 24.3675L1262.75 25.3757L1264.5 26.3831ZM1355.25 52.5627L1357 51.5545L1355.25 50.5472L1353.51 51.5554L1355.25 52.5627ZM1309.89 24.3563L1308.14 25.3645L1309.88 26.3719L1311.63 25.3636L1309.89 24.3563ZM1219.09 52.5964L1220.84 51.5882L1219.09 50.5809L1217.34 51.5891L1219.09 52.5964ZM1309.86 52.574L1311.61 51.5658L1309.87 50.5584L1308.12 51.5666L1309.86 52.574ZM1355.23 78.7649L1356.98 77.7567L1355.23 76.7493L1353.49 77.7575L1355.23 78.7649ZM1309.84 78.7761L1311.59 77.7679L1309.85 76.7605L1308.1 77.7687L1309.84 78.7761ZM1264.48 52.5852L1266.22 51.577L1264.48 50.5697L1262.73 51.5779L1264.48 52.5852ZM1219.11 26.3943L1220.86 25.3861L1219.11 24.3788L1217.36 25.387L1219.11 26.3943ZM1264.52 -1.33069L1261.03 -3.34537L1260.15 -2.84127L1263.64 -0.826592L1260.15 1.18983L1261.02 1.6935L1264.52 -0.322921L1268.01 1.69176L1268.88 1.18766L1265.39 -0.827019L1268.88 -2.84343L1268.01 -3.3471L1264.52 -1.33069ZM1124.81 75.2947L1123.93 75.7988L1127.42 77.8134L1123.93 79.8298L1124.8 80.3335L1128.3 78.3171L1131.79 80.3318L1132.66 79.8277L1129.17 77.813L1132.66 75.7966L1131.79 75.2929L1128.3 77.3093L1124.81 75.2947ZM1128.1 340.842L1129.85 339.834L1128.1 338.827L1126.36 339.835L1128.1 340.842ZM1037.37 288.46L1039.11 287.452L1037.37 286.445L1035.62 287.453L1037.37 288.46ZM1173.49 340.831L1175.23 339.823L1173.49 338.815L1171.74 339.824L1173.49 340.831ZM1082.73 314.651L1084.48 313.643L1082.73 312.636L1080.99 313.644L1082.73 314.651ZM1128.12 314.64L1129.87 313.632L1128.12 312.624L1126.38 313.633L1128.12 314.64ZM1037.35 314.662L1039.09 313.654L1037.35 312.647L1035.6 313.655L1037.35 314.662ZM1082.69 367.055L1084.44 366.047L1082.7 365.04L1080.95 366.048L1082.69 367.055ZM1128.08 367.044L1129.83 366.036L1128.08 365.029L1126.34 366.037L1128.08 367.044ZM1037.33 338.849L1035.58 339.857L1037.33 340.865L1039.07 339.856L1037.33 338.849ZM1082.71 340.853L1084.46 339.845L1082.72 338.838L1080.97 339.846L1082.71 340.853ZM1128.16 262.236L1129.91 261.228L1128.16 260.22L1126.41 261.228L1128.16 262.236ZM1082.75 288.449L1084.5 287.441L1082.75 286.434L1081.01 287.442L1082.75 288.449ZM1173.53 288.427L1175.27 287.418L1173.53 286.411L1171.78 287.419L1173.53 288.427ZM1218.9 314.618L1220.64 313.609L1218.9 312.602L1217.15 313.61L1218.9 314.618ZM1173.51 314.629L1175.25 313.621L1173.51 312.613L1171.76 313.621L1173.51 314.629ZM1128.14 288.438L1129.89 287.43L1128.14 286.422L1126.39 287.431L1128.14 288.438ZM1082.77 262.247L1084.52 261.239L1082.77 260.231L1081.03 261.24L1082.77 262.247ZM988.47 311.147L987.597 311.651L991.086 313.666L987.594 315.683L988.466 316.186L991.959 314.17L995.449 316.184L996.322 315.68L992.832 313.666L996.325 311.649L995.452 311.146L991.96 313.162L988.47 311.147ZM1264.32 262.202L1266.07 261.194L1264.32 260.187L1262.58 261.195L1264.32 262.202ZM1173.59 209.82L1175.33 208.812L1173.59 207.805L1171.84 208.813L1173.59 209.82ZM1309.71 262.191L1311.46 261.183L1309.71 260.175L1307.96 261.184L1309.71 262.191ZM1218.95 236.011L1220.7 235.003L1218.95 233.996L1217.21 235.004L1218.95 236.011ZM1264.34 236L1266.09 234.992L1264.34 233.984L1262.6 234.993L1264.34 236ZM1173.57 236.022L1175.31 235.014L1173.57 234.007L1171.82 235.015L1173.57 236.022ZM1218.91 288.415L1220.66 287.407L1218.92 286.4L1217.17 287.408L1218.91 288.415ZM1264.3 288.404L1266.05 287.396L1264.3 286.389L1262.56 287.397L1264.3 288.404ZM1173.55 260.209L1171.8 261.217L1173.55 262.225L1175.29 261.216L1173.55 260.209ZM1218.93 262.213L1220.68 261.205L1218.94 260.198L1217.19 261.206L1218.93 262.213ZM1264.38 183.596L1266.13 182.588L1264.38 181.58L1262.63 182.588L1264.38 183.596ZM1218.97 209.809L1220.72 208.801L1218.97 207.794L1217.23 208.802L1218.97 209.809ZM1309.75 209.787L1311.49 208.778L1309.75 207.771L1308 208.779L1309.75 209.787ZM1355.12 235.978L1356.86 234.969L1355.12 233.962L1353.37 234.97L1355.12 235.978ZM1309.73 235.989L1311.47 234.981L1309.73 233.973L1307.98 234.981L1309.73 235.989ZM1264.36 209.798L1266.11 208.79L1264.36 207.782L1262.62 208.791L1264.36 209.798ZM1218.99 183.607L1220.74 182.599L1218.99 181.591L1217.25 182.6L1218.99 183.607ZM1124.69 232.507L1123.82 233.011L1127.31 235.026L1123.81 237.043L1124.69 237.546L1128.18 235.53L1131.67 237.544L1132.54 237.04L1129.05 235.026L1132.55 233.009L1131.67 232.506L1128.18 234.522L1124.69 232.507ZM1400.54 183.562L1402.29 182.554L1400.54 181.547L1398.8 182.555L1400.54 183.562ZM1309.81 131.18L1311.55 130.172L1309.81 129.165L1308.06 130.173L1309.81 131.18ZM1445.93 183.551L1447.68 182.543L1445.93 181.535L1444.18 182.544L1445.93 183.551ZM1355.17 157.371L1356.92 156.363L1355.18 155.356L1353.43 156.364L1355.17 157.371ZM1400.56 157.36L1402.31 156.352L1400.56 155.344L1398.82 156.353L1400.56 157.36ZM1309.79 157.382L1311.53 156.374L1309.79 155.367L1308.04 156.375L1309.79 157.382ZM1355.13 209.775L1356.88 208.767L1355.14 207.76L1353.39 208.768L1355.13 209.775ZM1400.52 209.764L1402.27 208.756L1400.52 207.749L1398.78 208.757L1400.52 209.764ZM1309.77 181.569L1308.02 182.577L1309.77 183.585L1311.51 182.576L1309.77 181.569ZM1355.15 183.573L1356.9 182.565L1355.16 181.558L1353.41 182.566L1355.15 183.573ZM1400.6 104.956L1402.35 103.948L1400.6 102.94L1398.86 103.948L1400.6 104.956ZM1491.36 131.135L1493.1 130.127L1491.36 129.12L1489.61 130.128L1491.36 131.135ZM1445.99 102.929L1444.24 103.937L1445.99 104.945L1447.73 103.936L1445.99 102.929ZM1355.19 131.169L1356.94 130.161L1355.19 129.154L1353.45 130.162L1355.19 131.169ZM1445.97 131.147L1447.71 130.138L1445.97 129.131L1444.22 130.139L1445.97 131.147ZM1491.34 157.337L1493.08 156.329L1491.34 155.322L1489.59 156.33L1491.34 157.337ZM1445.95 157.349L1447.69 156.341L1445.95 155.333L1444.2 156.341L1445.95 157.349ZM1400.58 131.158L1402.33 130.15L1400.58 129.142L1398.84 130.151L1400.58 131.158ZM1355.21 104.967L1356.96 103.959L1355.21 102.951L1353.47 103.96L1355.21 104.967ZM1397.13 75.2273L1396.26 75.7314L1399.75 77.7461L1396.25 79.7625L1397.13 80.2661L1400.62 78.2497L1404.11 80.2644L1404.98 79.7603L1401.49 77.7456L1404.99 75.7292L1404.11 75.2256L1400.62 77.242L1397.13 75.2273ZM1260.91 153.867L1260.04 154.371L1263.53 156.386L1260.03 158.402L1260.91 158.906L1264.4 156.89L1267.89 158.904L1268.76 158.4L1265.27 156.386L1268.77 154.369L1267.89 153.866L1264.4 155.882L1260.91 153.867ZM1309.57 445.606L1311.32 444.597L1309.57 443.59L1307.83 444.598L1309.57 445.606ZM1264.2 419.415L1265.95 418.407L1264.21 417.399L1262.46 418.407L1264.2 419.415ZM1173.47 367.033L1175.22 366.025L1173.47 365.017L1171.72 366.026L1173.47 367.033ZM1309.59 419.404L1311.34 418.395L1309.59 417.388L1307.85 418.396L1309.59 419.404ZM1218.84 393.224L1220.58 392.216L1218.84 391.208L1217.09 392.217L1218.84 393.224ZM1264.22 393.213L1265.97 392.204L1264.23 391.197L1262.48 392.205L1264.22 393.213ZM1173.45 393.235L1175.2 392.227L1173.45 391.22L1171.7 392.228L1173.45 393.235ZM1218.8 445.628L1220.54 444.62L1218.8 443.613L1217.05 444.621L1218.8 445.628ZM1264.19 445.617L1265.93 444.609L1264.19 443.601L1262.44 444.61L1264.19 445.617ZM1173.43 417.422L1171.69 418.43L1173.43 419.437L1175.18 418.429L1173.43 417.422ZM1218.82 419.426L1220.56 418.418L1218.82 417.41L1217.07 418.419L1218.82 419.426ZM1264.26 340.808L1266.01 339.8L1264.26 338.793L1262.52 339.801L1264.26 340.808ZM1218.86 367.022L1220.6 366.014L1218.86 365.006L1217.11 366.014L1218.86 367.022ZM1309.63 366.999L1311.38 365.991L1309.63 364.984L1307.89 365.992L1309.63 366.999ZM1355 393.19L1356.75 392.182L1355 391.175L1353.25 392.183L1355 393.19ZM1354.98 419.392L1356.73 418.384L1354.98 417.377L1353.23 418.385L1354.98 419.392ZM1309.61 393.201L1311.36 392.193L1309.61 391.186L1307.87 392.194L1309.61 393.201ZM1264.24 367.011L1265.99 366.002L1264.25 364.995L1262.5 366.003L1264.24 367.011ZM1218.88 340.82L1220.62 339.811L1218.88 338.804L1217.13 339.812L1218.88 340.82ZM1124.57 389.72L1123.7 390.224L1127.19 392.239L1123.7 394.255L1124.57 394.759L1128.06 392.742L1131.55 394.757L1132.43 394.253L1128.94 392.238L1132.43 390.222L1131.56 389.718L1128.06 391.735L1124.57 389.72ZM1260.68 468.293L1259.8 468.797L1263.29 470.811L1259.8 472.828L1260.67 473.332L1264.17 471.315L1267.66 473.33L1268.53 472.826L1265.04 470.811L1268.53 468.795L1267.66 468.291L1264.17 470.307L1260.68 468.293ZM1445.79 366.966L1447.54 365.957L1445.79 364.95L1444.05 365.958L1445.79 366.966ZM1400.43 340.775L1402.17 339.767L1400.43 338.759L1398.68 339.767L1400.43 340.775ZM1309.69 288.393L1311.44 287.385L1309.69 286.377L1307.94 287.386L1309.69 288.393ZM1445.81 340.764L1447.56 339.755L1445.81 338.748L1444.07 339.756L1445.81 340.764ZM1355.06 314.584L1356.8 313.576L1355.06 312.568L1353.31 313.577L1355.06 314.584ZM1400.44 314.573L1402.19 313.564L1400.45 312.557L1398.7 313.565L1400.44 314.573ZM1309.67 314.595L1311.42 313.587L1309.67 312.58L1307.92 313.588L1309.67 314.595ZM1355.02 366.988L1356.76 365.98L1355.02 364.973L1353.27 365.981L1355.02 366.988ZM1400.41 366.977L1402.15 365.969L1400.41 364.961L1398.66 365.97L1400.41 366.977ZM1309.65 338.782L1307.91 339.79L1309.65 340.797L1311.4 339.789L1309.65 338.782ZM1355.04 340.786L1356.78 339.778L1355.04 338.77L1353.29 339.779L1355.04 340.786ZM1400.48 262.168L1402.23 261.16L1400.48 260.153L1398.74 261.161L1400.48 262.168ZM1355.08 288.382L1356.82 287.374L1355.08 286.366L1353.33 287.374L1355.08 288.382ZM1445.85 288.359L1447.6 287.351L1445.85 286.344L1444.11 287.352L1445.85 288.359ZM1491.22 314.55L1492.97 313.542L1491.22 312.535L1489.47 313.543L1491.22 314.55ZM1491.2 340.752L1492.95 339.744L1491.2 338.737L1489.45 339.745L1491.2 340.752ZM1445.83 314.561L1447.58 313.553L1445.83 312.546L1444.09 313.554L1445.83 314.561ZM1400.46 288.371L1402.21 287.362L1400.47 286.355L1398.72 287.363L1400.46 288.371ZM1355.1 262.18L1356.84 261.171L1355.1 260.164L1353.35 261.172L1355.1 262.18ZM1260.79 311.08L1259.92 311.584L1263.41 313.599L1259.92 315.615L1260.79 316.119L1264.28 314.102L1267.77 316.117L1268.65 315.613L1265.16 313.598L1268.65 311.582L1267.78 311.078L1264.28 313.095L1260.79 311.08ZM1396.9 389.653L1396.02 390.157L1399.51 392.171L1396.02 394.188L1396.89 394.691L1400.39 392.675L1403.88 394.69L1404.75 394.186L1401.26 392.171L1404.75 390.155L1403.88 389.651L1400.39 391.667L1396.9 389.653ZM1582.01 288.326L1583.76 287.317L1582.01 286.31L1580.27 287.318L1582.01 288.326ZM1536.65 262.135L1538.39 261.127L1536.65 260.119L1534.9 261.127L1536.65 262.135ZM1445.91 209.753L1447.66 208.745L1445.91 207.737L1444.16 208.746L1445.91 209.753ZM1582.03 262.123L1583.78 261.115L1582.03 260.108L1580.29 261.116L1582.03 262.123ZM1491.28 235.944L1493.02 234.936L1491.28 233.928L1489.53 234.936L1491.28 235.944ZM1536.66 235.933L1538.41 234.924L1536.67 233.917L1534.92 234.925L1536.66 235.933ZM1445.89 235.955L1447.64 234.947L1445.89 233.94L1444.15 234.948L1445.89 235.955ZM1491.24 288.348L1492.99 287.34L1491.24 286.333L1489.49 287.341L1491.24 288.348ZM1536.63 288.337L1538.37 287.329L1536.63 286.321L1534.88 287.329L1536.63 288.337ZM1445.87 260.142L1444.13 261.15L1445.87 262.157L1447.62 261.149L1445.87 260.142ZM1491.26 262.146L1493 261.138L1491.26 260.13L1489.51 261.139L1491.26 262.146ZM1536.7 183.528L1538.45 182.52L1536.71 181.513L1534.96 182.521L1536.7 183.528ZM1627.46 209.708L1629.21 208.7L1627.46 207.692L1625.71 208.701L1627.46 209.708ZM1582.09 181.502L1580.35 182.51L1582.09 183.517L1583.84 182.509L1582.09 181.502ZM1491.3 209.742L1493.04 208.734L1491.3 207.726L1489.55 208.734L1491.3 209.742ZM1582.07 209.719L1583.82 208.711L1582.07 207.704L1580.33 208.712L1582.07 209.719ZM1627.44 235.91L1629.19 234.902L1627.44 233.895L1625.69 234.903L1627.44 235.91ZM1627.42 262.112L1629.17 261.104L1627.42 260.097L1625.68 261.105L1627.42 262.112ZM1582.05 235.921L1583.8 234.913L1582.05 233.906L1580.31 234.914L1582.05 235.921ZM1536.68 209.731L1538.43 208.722L1536.69 207.715L1534.94 208.723L1536.68 209.731ZM1491.32 183.54L1493.06 182.531L1491.32 181.524L1489.57 182.532L1491.32 183.54ZM1669.34 232.373L1668.47 232.877L1671.95 234.891L1668.46 236.908L1669.33 237.411L1672.83 235.395L1676.32 237.41L1677.19 236.906L1673.7 234.891L1677.19 232.875L1676.32 232.371L1672.83 234.387L1669.34 232.373ZM1533.23 153.8L1532.36 154.304L1535.85 156.319L1532.36 158.335L1533.23 158.839L1536.72 156.822L1540.21 158.837L1541.09 158.333L1537.6 156.318L1541.09 154.302L1540.22 153.798L1536.72 155.815L1533.23 153.8ZM1397.01 232.44L1396.14 232.944L1399.63 234.959L1396.14 236.975L1397.01 237.479L1400.5 235.462L1403.99 237.477L1404.87 236.973L1401.38 234.958L1404.87 232.942L1404 232.438L1400.5 234.455L1397.01 232.44ZM1533.12 311.013L1532.24 311.517L1535.73 313.531L1532.24 315.548L1533.11 316.051L1536.61 314.035L1540.1 316.05L1540.97 315.546L1537.48 313.531L1540.97 311.515L1540.1 311.011L1536.61 313.027L1533.12 311.013Z" fill="#8F90A6"/>
</g>
</g>
<g filter="url(#filter0_dd)">
<rect width="84.0609" height="84.0609" rx="18" transform="matrix(0.866045 0.499966 -0.866045 0.499966 1432.8 177.674)" fill="url(#paint1_linear)"/>
<rect width="84.0609" height="84.0609" rx="18" transform="matrix(0.866045 0.499966 -0.866045 0.499966 1432.8 175)" fill="white"/>
<g clip-path="url(#clip0)">
<path d="M1410.39 203.976C1397.62 211.348 1397.62 223.295 1410.38 230.662C1423.14 238.029 1443.83 238.024 1456.6 230.653C1469.37 223.282 1469.38 211.334 1456.62 203.967C1443.86 196.601 1423.16 196.605 1410.39 203.976ZM1453.63 228.941C1450 231.038 1444.63 231.338 1441.64 229.611L1454.8 222.016C1457.79 223.743 1457.27 226.843 1453.63 228.941ZM1457.29 218.506L1435.56 231.052L1431.62 228.778L1453.35 216.232L1457.29 218.506L1457.29 218.506ZM1451.25 215.107L1429.66 227.572C1429.5 227.566 1429.35 227.561 1429.19 227.553C1424.27 227.279 1422.34 226.768 1420.39 226.232C1420.34 226.21 1423.64 224.994 1425.99 224.135C1425.99 224.135 1427.21 223.697 1428.91 223.016C1425.9 222.878 1423.02 222.162 1420.91 220.944C1416.28 218.27 1415.78 213.882 1411.23 212.734C1412.58 212.072 1416.45 212.762 1420.49 214.994C1419.99 213.171 1417.2 210.918 1415.14 209.734C1413.02 208.507 1411.95 206.274 1413.27 205.417C1414.08 207.325 1417.41 207.435 1423.19 209.154C1425.35 209.8 1428.05 211.435 1430.21 212.214C1426.7 210.033 1422.01 206.604 1422.49 204.21C1423.78 206.132 1427.84 207.125 1430.04 207.466C1433.57 208.014 1436.05 208.543 1439.27 210.398C1441.42 211.642 1442.65 213.272 1442.9 214.963C1444.14 213.916 1444.93 213.159 1444.93 213.159L1448.92 209.738C1448.92 209.738 1451.16 211.863 1451.25 215.107Z" fill="#E6522C"/>
</g>
</g>
<g filter="url(#filter1_dd)">
<path d="M1202.06 195.809L1329.16 194.5L1329.16 202.151C1329.16 205.526 1326.84 208.763 1322.7 211.15L1281.2 235.111C1272.59 240.082 1258.63 240.082 1250.02 235.111L1208.52 211.15C1204.38 208.763 1202.06 205.526 1202.06 202.151L1202.06 195.809Z" fill="url(#paint2_linear)"/>
<rect width="84.0609" height="84.0609" rx="18" transform="matrix(0.866045 0.499966 -0.866045 0.499966 1265.61 153)" fill="white"/>
</g>
<g opacity="0.45">
<path d="M1329 159.644L1265.75 196.539L1202.25 159.644L1265.5 123L1329 159.644Z" fill="url(#paint3_linear)"/>
<path d="M1329 159.644V189.604L1265.75 226.499L1265.75 196.539L1329 159.644Z" fill="url(#paint4_linear)"/>
<path d="M1265.75 196.539V226.499L1202 189.604L1202.25 159.644L1265.75 196.539Z" fill="url(#paint5_linear)"/>
</g>
<g filter="url(#filter2_dd)">
<rect width="84.0609" height="84.0609" rx="18" transform="matrix(0.866045 0.499967 -0.866045 0.499967 1265.8 117.674)" fill="url(#paint6_linear)"/>
<rect width="84.0609" height="84.0609" rx="18" transform="matrix(0.866045 0.499967 -0.866045 0.499967 1265.8 115)" fill="white"/>
<path d="M1241.79 142.86C1241.36 143.096 1241.36 143.494 1241.78 143.739L1252.14 149.719C1252.56 149.961 1253.23 149.962 1253.68 149.738C1260.81 146.182 1271.6 146.359 1278.37 150.268C1285.14 154.177 1285.45 160.404 1279.29 164.52C1278.9 164.779 1278.9 165.169 1279.32 165.411L1289.3 171.17C1289.72 171.414 1290.41 171.414 1290.82 171.162C1303.6 163.317 1303.34 150.974 1290.05 143.303C1276.76 135.632 1255.38 135.483 1241.79 142.86Z" fill="#39D98A"/>
<path d="M1257.5 152.812C1257.43 152.848 1257.37 152.884 1257.3 152.921C1252.97 155.425 1252.97 159.484 1257.3 161.987C1261.64 164.49 1268.67 164.49 1273.01 161.987C1273.07 161.95 1273.14 161.913 1273.2 161.875L1257.5 152.812Z" fill="#223C37"/>
<path d="M1273.2 161.875C1277.34 159.364 1277.28 155.388 1273.01 152.921C1268.74 150.455 1261.85 150.418 1257.5 152.812L1273.2 161.875Z" fill="#376C66"/>
</g>
<g filter="url(#filter3_dd)">
<rect width="58.8609" height="58.8609" rx="12" transform="matrix(0.866045 0.499967 -0.866045 0.499967 1191.98 121.857)" fill="url(#paint7_linear)"/>
<rect width="58.8609" height="58.8609" rx="12" transform="matrix(0.866045 0.499967 -0.866045 0.499967 1191.98 120)" fill="white"/>
<rect width="6.57182" height="2.68847" rx="1.34424" transform="matrix(0.89032 -0.513997 0.89032 0.513997 1190.24 170.304)" fill="#3BC882"/>
<rect width="6.57182" height="2.68847" rx="1.34424" transform="matrix(0.89032 -0.513997 0.89032 0.513997 1196.62 166.62)" fill="#39D98A"/>
<rect width="6.57182" height="2.68847" rx="1.34424" transform="matrix(0.89032 -0.513997 0.89032 0.513997 1203.01 162.935)" fill="#23A966"/>
<rect width="6.57161" height="2.68839" rx="1.34419" transform="matrix(0.890349 -0.513961 0.890349 0.513961 1209.39 159.247)" fill="#23A966"/>
<rect width="6.57203" height="2.68856" rx="1.34428" transform="matrix(0.890292 -0.514034 0.890292 0.514034 1215.78 155.562)" fill="#23A966"/>
<rect width="6.57161" height="2.68839" rx="1.34419" transform="matrix(0.890349 -0.513961 0.890349 0.513961 1222.16 151.877)" fill="#23A966"/>
<rect width="6.57218" height="2.68862" rx="1.34431" transform="matrix(0.890271 -0.514022 0.890271 0.514022 1187.31 168.619)" fill="#39D98A"/>
<rect width="6.57197" height="2.68853" rx="1.34427" transform="matrix(0.8903 -0.513985 0.8903 0.513985 1193.7 164.935)" fill="#57EBA1"/>
<rect width="6.57176" height="2.68845" rx="1.34422" transform="matrix(0.890328 -0.513949 0.890328 0.513949 1200.08 161.247)" fill="#3BC882"/>
<rect width="6.5717" height="2.68842" rx="1.34421" transform="matrix(0.890324 -0.513954 0.890324 0.513954 1206.47 157.562)" fill="#23A966"/>
<rect width="6.57191" height="2.68851" rx="1.34425" transform="matrix(0.890296 -0.513991 0.890296 0.513991 1212.85 153.877)" fill="#23A966"/>
<rect width="6.57218" height="2.68862" rx="1.34431" transform="matrix(0.890271 -0.514022 0.890271 0.514022 1219.23 150.195)" fill="#23A966"/>
<rect width="6.57176" height="2.68845" rx="1.34422" transform="matrix(0.890329 -0.513949 0.890329 0.513949 1184.39 166.925)" fill="#39D98A"/>
<rect width="6.5719" height="2.68851" rx="1.34425" transform="matrix(0.890296 -0.513991 0.890296 0.513991 1197.16 159.556)" fill="#39D98A"/>
<rect width="6.5719" height="2.68851" rx="1.34425" transform="matrix(0.890296 -0.513991 0.890296 0.513991 1203.54 155.872)" fill="#3BC882"/>
<rect width="6.57197" height="2.68853" rx="1.34427" transform="matrix(0.8903 -0.513986 0.8903 0.513986 1209.92 152.184)" fill="#3BC882"/>
<rect width="6.57218" height="2.68862" rx="1.34431" transform="matrix(0.890272 -0.514022 0.890272 0.514022 1216.31 148.499)" fill="#3BC882"/>
<rect width="6.57206" height="2.68857" rx="1.34429" transform="matrix(0.890288 -0.514031 0.890288 0.514031 1181.46 165.24)" fill="#57EBA1"/>
<rect width="6.57185" height="2.68849" rx="1.34424" transform="matrix(0.890316 -0.513995 0.890316 0.513995 1187.85 161.555)" fill="#57EBA1"/>
<rect width="6.57179" height="2.68846" rx="1.34423" transform="matrix(0.890312 -0.514 0.890312 0.514 1194.23 157.87)" fill="#57EBA1"/>
<rect width="6.57185" height="2.68849" rx="1.34424" transform="matrix(0.890316 -0.513995 0.890316 0.513995 1200.62 154.182)" fill="#3BC882"/>
<rect width="6.57185" height="2.68849" rx="1.34424" transform="matrix(0.890316 -0.513995 0.890316 0.513995 1207 150.497)" fill="#3BC882"/>
<rect width="6.57206" height="2.68857" rx="1.34429" transform="matrix(0.890288 -0.514031 0.890288 0.514031 1213.38 146.812)" fill="#3BC882"/>
<rect width="6.57194" height="2.68852" rx="1.34426" transform="matrix(0.890305 -0.513988 0.890305 0.513988 1178.54 163.55)" fill="#E3FFF1"/>
<rect width="6.57215" height="2.68861" rx="1.3443" transform="matrix(0.890276 -0.514024 0.890276 0.514024 1184.92 159.868)" fill="#E3FFF1"/>
<rect width="6.57194" height="2.68852" rx="1.34426" transform="matrix(0.890305 -0.513988 0.890305 0.513988 1191.3 156.18)" fill="#57EBA1"/>
<rect width="6.57201" height="2.68855" rx="1.34427" transform="matrix(0.890309 -0.513983 0.890309 0.513983 1204.07 148.808)" fill="#39D98A"/>
<rect width="6.57215" height="2.68861" rx="1.3443" transform="matrix(0.890276 -0.514024 0.890276 0.514024 1210.46 145.123)" fill="#39D98A"/>
<rect width="6.57189" height="2.6885" rx="1.34425" transform="matrix(0.890312 -0.513992 0.890312 0.513992 1175.61 161.86)" fill="#E3FFF1"/>
<rect width="6.57189" height="2.6885" rx="1.34425" transform="matrix(0.890312 -0.513992 0.890312 0.513992 1188.38 154.488)" fill="#E3FFF1"/>
<rect width="6.57189" height="2.6885" rx="1.34425" transform="matrix(0.890312 -0.513992 0.890312 0.513992 1194.76 150.809)" fill="#39D98A"/>
<rect width="6.57209" height="2.68858" rx="1.34429" transform="matrix(0.890283 -0.514029 0.890283 0.514029 1201.15 147.121)" fill="#39D98A"/>
<rect width="6.57189" height="2.6885" rx="1.34425" transform="matrix(0.890312 -0.513992 0.890312 0.513992 1207.53 143.436)" fill="#39D98A"/>
<rect width="6.57192" height="2.68851" rx="1.34426" transform="matrix(0.890308 -0.51399 0.890308 0.51399 1172.69 160.166)" fill="#57EBA1"/>
<rect width="6.57192" height="2.68851" rx="1.34426" transform="matrix(0.890308 -0.51399 0.890308 0.51399 1179.07 156.487)" fill="#57EBA1"/>
<rect width="6.57185" height="2.68848" rx="1.34424" transform="matrix(0.890303 -0.513995 0.890303 0.513995 1191.84 149.112)" fill="#57EBA1"/>
<rect width="6.57213" height="2.6886" rx="1.3443" transform="matrix(0.890279 -0.514026 0.890279 0.514026 1198.22 145.424)" fill="#57EBA1"/>
<rect width="6.57192" height="2.68851" rx="1.34426" transform="matrix(0.890308 -0.51399 0.890308 0.51399 1204.61 141.739)" fill="#57EBA1"/>
<rect width="6.57191" height="2.68851" rx="1.34425" transform="matrix(0.890308 -0.51399 0.890308 0.51399 1169.76 158.48)" fill="#57EBA1"/>
<rect width="6.57191" height="2.68851" rx="1.34425" transform="matrix(0.890308 -0.51399 0.890308 0.51399 1176.14 154.798)" fill="#57EBA1"/>
<rect width="6.57185" height="2.68848" rx="1.34424" transform="matrix(0.890304 -0.513995 0.890304 0.513995 1188.91 147.428)" fill="#57EBA1"/>
<rect width="6.57191" height="2.68851" rx="1.34425" transform="matrix(0.890308 -0.51399 0.890308 0.51399 1195.29 143.737)" fill="#57EBA1"/>
<rect width="6.57191" height="2.68851" rx="1.34425" transform="matrix(0.890308 -0.51399 0.890308 0.51399 1201.68 140.056)" fill="#57EBA1"/>
<rect width="6.57165" height="2.6884" rx="1.3442" transform="matrix(0.890343 -0.513958 0.890343 0.513958 1166.83 156.79)" fill="#E3FFF1"/>
<rect width="6.57165" height="2.6884" rx="1.3442" transform="matrix(0.890343 -0.513958 0.890343 0.513958 1173.22 153.104)" fill="#E3FFF1"/>
<rect width="6.57172" height="2.68843" rx="1.34422" transform="matrix(0.890347 -0.513952 0.890347 0.513952 1185.99 145.732)" fill="#E3FFF1"/>
<rect width="6.57207" height="2.68857" rx="1.34429" transform="matrix(0.890287 -0.51403 0.890287 0.51403 1192.37 142.047)" fill="#E3FFF1"/>
<rect width="6.57165" height="2.6884" rx="1.3442" transform="matrix(0.890343 -0.513958 0.890343 0.513958 1198.75 138.362)" fill="#E3FFF1"/>
<rect width="6.57214" height="2.6886" rx="1.3443" transform="matrix(0.890278 -0.514025 0.890278 0.514025 1163.91 155.102)" fill="#E3FFF1"/>
<rect width="6.57186" height="2.68849" rx="1.34424" transform="matrix(0.890302 -0.513994 0.890302 0.513994 1183.06 144.044)" fill="#E3FFF1"/>
<rect width="6.57186" height="2.68849" rx="1.34424" transform="matrix(0.890302 -0.513994 0.890302 0.513994 1195.83 136.674)" fill="#E3FFF1"/>
<rect width="6.57174" height="2.68844" rx="1.34422" transform="matrix(0.890331 -0.513951 0.890331 0.513951 1160.98 153.413)" fill="#E3FFF1"/>
<rect width="6.57195" height="2.68853" rx="1.34426" transform="matrix(0.890303 -0.513987 0.890303 0.513987 1173.75 146.047)" fill="#E3FFF1"/>
<rect width="6.57182" height="2.68847" rx="1.34423" transform="matrix(0.890295 -0.513998 0.890295 0.513998 1180.13 142.359)" fill="#E3FFF1"/>
<rect width="6.57195" height="2.68853" rx="1.34426" transform="matrix(0.890303 -0.513987 0.890303 0.513987 1192.9 134.989)" fill="#E3FFF1"/>
<rect width="6.57179" height="2.68846" rx="1.34423" transform="matrix(0.890311 -0.514 0.890311 0.514 1170.82 144.352)" fill="#E3FFF1"/>
<rect width="6.57186" height="2.68849" rx="1.34424" transform="matrix(0.890315 -0.513994 0.890315 0.513994 1189.97 133.294)" fill="#E3FFF1"/>
<rect width="6.57173" height="2.68844" rx="1.34422" transform="matrix(0.890332 -0.513951 0.890332 0.513951 1159.38 145.125)" fill="#E3FFF1"/>
<rect width="6.57167" height="2.68841" rx="1.3442" transform="matrix(0.890328 -0.513957 0.890328 0.513957 1184.92 130.38)" fill="#E3FFF1"/>
</g>
<g filter="url(#filter4_dd)">
<rect width="58.8609" height="58.8609" rx="12" transform="matrix(0.866045 0.499967 -0.866045 0.499967 1284.98 75.8574)" fill="url(#paint8_linear)"/>
<rect width="58.8609" height="58.8609" rx="12" transform="matrix(0.866045 0.499967 -0.866045 0.499967 1284.98 74)" fill="white"/>
<g filter="url(#filter5_dd)">
<rect width="48.3448" height="19.5992" rx="8" transform="matrix(0.890319 -0.51398 0.890319 0.51398 1265 115.848)" fill="white"/>
<path fill-rule="evenodd" clip-rule="evenodd" d="M1287.69 118.87C1290.58 117.2 1290.58 114.494 1287.69 112.825C1284.79 111.156 1280.11 111.156 1277.22 112.825C1274.32 114.494 1274.32 117.2 1277.22 118.87C1280.11 120.539 1284.79 120.539 1287.69 118.87Z" fill="#FFE6E6"/>
<path d="M1284.09 113.738C1283.65 113.641 1283.19 113.597 1282.72 113.609L1282.33 113.618C1282.32 113.619 1282.31 113.621 1282.3 113.625C1282.28 113.629 1282.27 113.634 1282.27 113.641C1282.26 113.647 1282.26 113.654 1282.26 113.662C1282.26 113.669 1282.26 113.677 1282.26 113.684L1282.43 113.885C1282.54 114.011 1282.6 114.166 1282.62 114.344C1282.62 114.356 1282.61 114.364 1282.6 114.369C1282.6 114.373 1282.58 114.379 1282.56 114.38C1282.55 114.381 1282.53 114.376 1282.52 114.369C1282.12 114.113 1281.53 113.914 1280.74 113.776C1280.09 113.66 1279.45 113.65 1278.83 113.743L1278.37 113.811C1278.31 113.82 1278.29 113.864 1278.34 113.888L1278.69 114.071C1278.92 114.196 1279.1 114.327 1279.2 114.46C1279.33 114.622 1279.41 114.794 1279.44 114.974C1279.46 115.098 1279.46 115.224 1279.43 115.348C1279.36 115.646 1279.41 115.949 1279.58 116.235C1279.75 116.522 1280.03 116.782 1280.4 116.996C1280.72 117.185 1281.1 117.331 1281.53 117.43C1281.94 117.524 1282.38 117.572 1282.82 117.571C1283.27 117.569 1283.7 117.52 1284.11 117.422C1284.54 117.322 1284.92 117.174 1285.25 116.984C1285.58 116.795 1285.84 116.574 1286.01 116.328C1286.18 116.091 1286.27 115.838 1286.27 115.582C1286.27 115.324 1286.19 115.073 1286.02 114.836C1285.85 114.591 1285.6 114.368 1285.27 114.182C1284.94 113.987 1284.54 113.837 1284.09 113.738Z" fill="#FF3B3B"/>
<rect width="10.4529" height="1.30661" rx="0.653305" transform="matrix(0.8903 -0.514004 0.8903 0.514004 1293.06 111.902)" fill="#EBEBF0"/>
<rect width="23.5193" height="1.30663" rx="0.653313" transform="matrix(0.890312 -0.51399 0.890312 0.51399 1290.88 110.643)" fill="#EBEBF0"/>
<rect width="11.1059" height="2.61315" rx="1.30658" transform="matrix(0.890321 -0.513977 0.890321 0.513977 1287.39 108.627)" fill="#C7C9D9"/>
</g>
<g filter="url(#filter6_dd)">
<rect width="48.345" height="19.5993" rx="8" transform="matrix(0.890315 -0.513978 0.890315 0.513978 1244 102.848)" fill="white"/>
<path fill-rule="evenodd" clip-rule="evenodd" d="M1266.69 105.87C1269.58 104.2 1269.58 101.494 1266.69 99.8248C1263.79 98.1556 1259.11 98.1556 1256.22 99.8248C1253.32 101.494 1253.32 104.2 1256.22 105.87C1259.11 107.539 1263.79 107.539 1266.69 105.87Z" fill="#E3FFF1"/>
<path d="M1258.21 100.872C1256.41 101.907 1256.41 103.584 1258.21 104.619C1260 105.653 1262.9 105.653 1264.69 104.619C1266.49 103.584 1266.49 101.907 1264.69 100.872C1262.9 99.838 1260 99.838 1258.21 100.872ZM1261.79 101.325L1262.38 103.426C1262.39 103.456 1262.39 103.486 1262.37 103.514C1262.35 103.543 1262.33 103.569 1262.29 103.59C1262.25 103.611 1262.21 103.627 1262.16 103.636C1262.11 103.645 1262.06 103.647 1262.01 103.642L1259.85 103.441C1259.79 103.435 1259.76 103.388 1259.81 103.361L1260.15 103.165C1260.22 103.122 1260.33 103.102 1260.43 103.112L1261.66 103.228L1261.22 101.659C1261.21 101.599 1261.24 101.538 1261.31 101.495L1261.65 101.299C1261.7 101.272 1261.78 101.287 1261.79 101.325Z" fill="#39D98A"/>
<rect width="10.4527" height="1.30658" rx="0.653292" transform="matrix(0.890319 -0.513974 0.890319 0.513974 1272.06 98.9019)" fill="#EBEBF0"/>
<rect width="23.5194" height="1.30663" rx="0.653316" transform="matrix(0.890308 -0.513987 0.890308 0.513987 1269.88 97.6426)" fill="#EBEBF0"/>
<rect width="11.1059" height="2.61314" rx="1.30657" transform="matrix(0.890315 -0.513978 0.890315 0.513978 1266.39 95.6274)" fill="#C7C9D9"/>
</g>
</g>
<g filter="url(#filter7_dd)">
<rect width="84.0609" height="84.0609" rx="18" transform="matrix(0.866045 0.499966 -0.866045 0.499966 1216.8 264.674)" fill="url(#paint9_linear)"/>
<rect width="84.0609" height="84.0609" rx="18" transform="matrix(0.866045 0.499966 -0.866045 0.499966 1216.8 262)" fill="white"/>
<path d="M1234.91 301.432L1215.25 298.329L1242.48 314.045L1253.51 295.594L1193.05 287.308L1207.41 322.21L1239.37 315.842L1212.14 300.125L1217.52 311.474L1224.59 310.167L1228.12 312.208L1214.34 315.107L1205.85 294.696L1241.21 299.595L1236.19 307.555L1232.65 305.514L1234.91 301.432Z" fill="#FE7139"/>
</g>
<g opacity="0.45">
<mask id="mask1" mask-type="alpha" maskUnits="userSpaceOnUse" x="119" y="76" width="577" height="334">
<circle r="235.199" transform="matrix(0.866044 -0.499967 0.866044 0.499967 407.386 243.184)" fill="url(#paint10_radial)"/>
</mask>
<g mask="url(#mask1)">
<path opacity="0.15" d="M452.573 453.102L453.446 452.598L497.98 426.889L498.853 426.385L543.386 400.676L544.26 400.172L588.793 374.462L589.666 373.958L634.2 348.249L635.073 347.745L679.607 322.036L680.48 321.532L725.014 295.822L725.887 295.318L770.42 269.609L771.294 269.105L815.827 243.396L816.7 242.892L815.828 242.388L771.332 216.701L770.46 216.197L725.965 190.51L725.092 190.006L680.597 164.319L679.724 163.815L635.229 138.128L634.356 137.625L589.861 111.937L588.988 111.434L544.493 85.7464L543.621 85.2428L499.125 59.5556L498.253 59.0519L453.757 33.3647L452.885 32.861L408.389 7.17385L407.517 6.67018L406.644 7.1743L271.296 85.3102L270.423 85.8143L135.076 163.95L134.203 164.454L-2.01758 243.094L134.086 321.667L134.959 322.171L270.19 400.239L271.062 400.743L406.293 478.812L407.166 479.316L408.039 478.812L452.573 453.102ZM362.982 33.3872L407.516 7.67797L452.012 33.3652L407.478 59.0744L362.982 33.3872ZM408.35 59.578L452.884 33.8688L497.379 59.556L452.846 85.2652L408.35 59.578ZM453.718 85.7689L498.252 60.0597L542.747 85.7469L498.214 111.456L453.718 85.7689ZM499.086 111.96L543.62 86.2506L588.115 111.938L543.582 137.647L499.086 111.96ZM544.454 138.151L588.988 112.441L633.483 138.129L588.949 163.838L544.454 138.151ZM589.822 164.342L634.356 138.632L678.851 164.319L634.317 190.029L589.822 164.342ZM635.19 190.532L679.723 164.823L724.219 190.51L679.685 216.22L635.19 190.532ZM680.558 216.723L725.091 191.014L769.587 216.701L725.053 242.41L680.558 216.723ZM725.926 242.914L770.459 217.205L814.955 242.892L770.421 268.601L725.926 242.914ZM317.576 59.6005L362.109 33.8913L406.605 59.5785L362.071 85.2877L317.576 59.6005ZM362.944 85.7914L407.477 60.0821L451.973 85.7693L407.439 111.479L362.944 85.7914ZM408.311 111.982L452.845 86.273L497.341 111.96L452.807 137.669L408.311 111.982ZM453.679 138.173L498.213 112.464L542.708 138.151L498.175 163.86L453.679 138.173ZM499.047 164.364L543.581 138.655L588.076 164.342L543.543 190.051L499.047 164.364ZM544.415 190.555L588.949 164.846L633.444 190.533L588.911 216.242L544.415 190.555ZM589.783 216.746L634.317 191.036L678.812 216.724L634.278 242.433L589.783 216.746ZM635.151 242.937L679.685 217.227L724.18 242.915L679.646 268.624L635.151 242.937ZM680.519 269.127L725.052 243.418L769.548 269.105L725.014 294.815L680.519 269.127ZM272.169 85.8138L316.702 60.1046L361.198 85.7918L316.664 111.501L272.169 85.8138ZM317.537 112.005L362.07 86.2955L406.566 111.983L362.032 137.692L317.537 112.005ZM362.905 138.196L407.438 112.486L451.934 138.174L407.4 163.883L362.905 138.196ZM408.273 164.386L452.806 138.677L497.302 164.364L452.768 190.074L408.273 164.386ZM453.64 190.577L498.174 164.868L542.669 190.555L498.136 216.265L453.64 190.577ZM499.008 216.768L543.542 191.059L588.037 216.746L543.504 242.455L499.008 216.768ZM544.376 242.959L588.91 217.25L633.405 242.937L588.872 268.646L544.376 242.959ZM589.744 269.15L634.278 243.441L678.773 269.128L634.24 294.837L589.744 269.15ZM635.112 295.341L679.646 269.632L724.141 295.319L679.607 321.028L635.112 295.341ZM226.762 112.027L271.296 86.3179L315.791 112.005L271.258 137.714L226.762 112.027ZM272.13 138.218L316.664 112.509L361.159 138.196L316.625 163.905L272.13 138.218ZM317.498 164.409L362.031 138.7L406.527 164.387L361.993 190.096L317.498 164.409ZM362.866 190.6L407.399 164.891L451.895 190.578L407.361 216.287L362.866 190.6ZM408.234 216.791L452.767 191.081L497.263 216.769L452.729 242.478L408.234 216.791ZM453.602 242.981L498.135 217.272L542.631 242.959L498.097 268.669L453.602 242.981ZM498.969 269.172L543.503 243.463L587.998 269.15L543.465 294.86L498.969 269.172ZM544.337 295.363L588.871 269.654L633.366 295.341L588.833 321.05L544.337 295.363ZM589.705 321.554L634.239 295.845L678.734 321.532L634.201 347.241L589.705 321.554ZM181.355 138.24L225.889 112.531L270.384 138.218L225.851 163.928L181.355 138.24ZM226.723 164.431L271.257 138.722L315.752 164.409L271.219 190.119L226.723 164.431ZM272.091 190.622L316.625 164.913L361.12 190.6L316.587 216.309L272.091 190.622ZM317.459 216.813L361.993 191.104L406.488 216.791L361.954 242.5L317.459 216.813ZM362.827 243.004L407.36 217.295L451.856 242.982L407.322 268.691L362.827 243.004ZM408.195 269.195L452.728 243.486L497.224 269.173L452.69 294.882L408.195 269.195ZM453.563 295.386L498.096 269.676L542.592 295.364L498.058 321.073L453.563 295.386ZM498.931 321.577L543.464 295.867L587.96 321.555L543.426 347.264L498.931 321.577ZM544.298 347.767L588.832 322.058L633.327 347.745L588.794 373.455L544.298 347.767ZM135.948 164.454L180.482 138.745L224.978 164.432L180.444 190.141L135.948 164.454ZM181.316 190.645L225.85 164.935L270.345 190.623L225.812 216.332L181.316 190.645ZM226.684 216.836L271.218 191.126L315.713 216.814L271.18 242.523L226.684 216.836ZM272.052 243.026L316.586 217.317L361.081 243.004L316.548 268.714L272.052 243.026ZM317.42 269.217L361.954 243.508L406.449 269.195L361.915 294.904L317.42 269.217ZM362.788 295.408L407.322 269.699L451.817 295.386L407.283 321.095L362.788 295.408ZM408.156 321.599L452.689 295.89L497.185 321.577L452.651 347.286L408.156 321.599ZM453.524 347.79L498.057 322.081L542.553 347.768L498.019 373.477L453.524 347.79ZM498.892 373.981L543.425 348.272L587.921 373.959L543.387 399.668L498.892 373.981ZM90.5417 190.667L135.075 164.958L179.571 190.645L135.037 216.354L90.5417 190.667ZM135.91 216.858L180.443 191.149L224.939 216.836L180.405 242.545L135.91 216.858ZM181.277 243.049L225.811 217.34L270.307 243.027L225.773 268.736L181.277 243.049ZM226.645 269.24L271.179 243.531L315.674 269.218L271.141 294.927L226.645 269.24ZM272.013 295.431L316.547 269.721L361.042 295.409L316.509 321.118L272.013 295.431ZM317.381 321.621L361.915 295.912L406.41 321.599L361.877 347.309L317.381 321.621ZM362.749 347.812L407.283 322.103L451.778 347.79L407.244 373.5L362.749 347.812ZM408.117 374.003L452.651 348.294L497.146 373.981L452.612 399.69L408.117 374.003ZM453.485 400.194L498.018 374.485L542.514 400.172L497.98 425.881L453.485 400.194ZM45.1349 216.88L89.6685 191.171L134.164 216.858L89.6303 242.568L45.1349 216.88ZM90.5028 243.071L135.036 217.362L179.532 243.049L134.998 268.759L90.5028 243.071ZM135.871 269.262L180.404 243.553L224.9 269.24L180.366 294.949L135.871 269.262ZM181.239 295.453L225.772 269.744L270.268 295.431L225.734 321.14L181.239 295.453ZM226.606 321.644L271.14 295.935L315.635 321.622L271.102 347.331L226.606 321.644ZM271.974 347.835L316.508 322.126L361.003 347.813L316.47 373.522L271.974 347.835ZM317.342 374.026L361.876 348.316L406.371 374.004L361.838 399.713L317.342 374.026ZM362.71 400.217L407.244 374.507L451.739 400.194L407.206 425.904L362.71 400.217ZM408.078 426.407L452.612 400.698L497.107 426.385L452.573 452.095L408.078 426.407ZM-0.271911 243.094L44.2617 217.385L88.7571 243.072L44.2235 268.781L-0.271911 243.094ZM45.096 269.285L89.6296 243.575L134.125 269.263L89.5914 294.972L45.096 269.285ZM90.4639 295.476L134.997 269.766L179.493 295.454L134.959 321.163L90.4639 295.476ZM135.832 321.666L180.365 295.957L224.861 321.644L180.327 347.354L135.832 321.666ZM181.2 347.857L225.733 322.148L270.229 347.835L225.695 373.544L181.2 347.857ZM226.568 374.048L271.101 348.339L315.597 374.026L271.063 399.735L226.568 374.048ZM271.935 400.239L316.469 374.53L360.964 400.217L316.431 425.926L271.935 400.239ZM317.303 426.43L361.837 400.721L406.332 426.408L361.799 452.117L317.303 426.43ZM362.671 452.621L407.205 426.912L451.7 452.599L407.167 478.308L362.671 452.621Z" fill="#8F90A6"/>
<path d="M133.252 269.262L134.999 268.254L136.744 269.261L134.997 270.269L133.252 269.262ZM44.2616 217.888L46.008 216.879L44.2631 215.872L42.5166 216.88L44.2616 217.888ZM180.385 270.258L182.131 269.25L180.386 268.243L178.64 269.251L180.385 270.258ZM89.6294 244.079L91.3759 243.07L89.6309 242.063L87.8845 243.071L89.6294 244.079ZM135.017 244.067L136.763 243.059L135.018 242.052L133.272 243.06L135.017 244.067ZM44.2421 244.09L45.9885 243.082L44.2436 242.074L42.4972 243.082L44.2421 244.09ZM89.5905 296.483L91.337 295.475L89.592 294.467L87.8456 295.475L89.5905 296.483ZM134.978 296.472L136.724 295.463L134.979 294.456L133.233 295.464L134.978 296.472ZM44.2241 268.276L42.4777 269.285L44.2226 270.292L45.9691 269.284L44.2241 268.276ZM89.61 270.281L91.3564 269.272L89.6115 268.265L87.8651 269.273L89.61 270.281ZM135.056 191.663L136.802 190.655L135.057 189.648L133.311 190.656L135.056 191.663ZM89.6489 217.876L91.3953 216.868L89.6504 215.861L87.904 216.869L89.6489 217.876ZM180.424 217.854L182.17 216.846L180.425 215.838L178.679 216.847L180.424 217.854ZM225.791 244.045L227.538 243.037L225.793 242.029L224.047 243.038L225.791 244.045ZM180.404 244.056L182.151 243.048L180.406 242.041L178.659 243.049L180.404 244.056ZM135.036 217.865L136.783 216.857L135.038 215.85L133.291 216.858L135.036 217.865ZM89.6684 191.674L91.4148 190.666L89.6698 189.659L87.9234 190.667L89.6684 191.674ZM-4.63396 240.575L-5.50717 241.079L-2.01733 243.093L-5.51016 245.11L-4.6377 245.614L-1.14487 243.597L2.34497 245.612L3.21817 245.108L-0.271664 243.093L3.22117 241.077L2.34871 240.573L-1.14412 242.589L-4.63396 240.575ZM271.218 191.629L272.964 190.621L271.219 189.614L269.473 190.622L271.218 191.629ZM180.482 139.248L182.228 138.239L180.483 137.232L178.737 138.24L180.482 139.248ZM316.605 191.618L318.351 190.61L316.607 189.603L314.86 190.611L316.605 191.618ZM225.85 165.439L227.596 164.43L225.851 163.423L224.105 164.431L225.85 165.439ZM271.237 165.427L272.984 164.419L271.239 163.412L269.492 164.42L271.237 165.427ZM180.463 165.45L182.209 164.442L180.464 163.434L178.718 164.442L180.463 165.45ZM225.811 217.843L227.557 216.835L225.812 215.827L224.066 216.835L225.811 217.843ZM271.198 217.832L272.945 216.823L271.2 215.816L269.453 216.824L271.198 217.832ZM180.445 189.636L178.698 190.645L180.443 191.652L182.189 190.644L180.445 189.636ZM225.83 191.641L227.577 190.632L225.832 189.625L224.085 190.633L225.83 191.641ZM271.276 113.023L273.023 112.015L271.278 111.008L269.531 112.016L271.276 113.023ZM225.869 139.236L227.616 138.228L225.871 137.221L224.124 138.229L225.869 139.236ZM316.644 139.214L318.39 138.206L316.645 137.198L314.899 138.207L316.644 139.214ZM362.012 165.405L363.758 164.397L362.013 163.389L360.267 164.398L362.012 165.405ZM316.625 165.416L318.371 164.408L316.626 163.401L314.88 164.409L316.625 165.416ZM271.257 139.225L273.003 138.217L271.258 137.21L269.512 138.218L271.257 139.225ZM225.889 113.034L227.635 112.026L225.89 111.019L224.144 112.027L225.889 113.034ZM131.586 161.935L130.713 162.439L134.203 164.453L130.71 166.47L131.583 166.974L135.076 164.957L138.565 166.972L139.439 166.468L135.949 164.453L139.442 162.437L138.569 161.933L135.076 163.949L131.586 161.935ZM407.438 112.989L409.185 111.981L407.44 110.974L405.693 111.982L407.438 112.989ZM316.702 60.6076L318.449 59.5994L316.704 58.5921L314.957 59.6003L316.702 60.6076ZM452.825 112.978L454.572 111.97L452.827 110.963L451.081 111.971L452.825 112.978ZM362.07 86.7985L363.817 85.7903L362.072 84.783L360.325 85.7912L362.07 86.7985ZM407.458 86.7873L409.204 85.7791L407.459 84.7717L405.713 85.7799L407.458 86.7873ZM316.683 86.8098L318.429 85.8015L316.684 84.7942L314.938 85.8024L316.683 86.8098ZM362.031 139.203L363.778 138.195L362.033 137.187L360.286 138.195L362.031 139.203ZM407.419 139.192L409.165 138.183L407.42 137.176L405.674 138.184L407.419 139.192ZM316.665 110.996L314.919 112.005L316.663 113.012L318.41 112.004L316.665 110.996ZM362.051 113.001L363.797 111.992L362.052 110.985L360.306 111.993L362.051 113.001ZM407.497 34.3831L409.243 33.3749L407.498 32.3675L405.752 33.3757L407.497 34.3831ZM498.252 60.5627L499.998 59.5545L498.253 58.5472L496.507 59.5554L498.252 60.5627ZM452.885 32.3563L451.139 33.3645L452.884 34.3718L454.63 33.3636L452.885 32.3563ZM362.09 60.5964L363.836 59.5882L362.091 58.5809L360.345 59.5891L362.09 60.5964ZM452.864 60.5739L454.611 59.5657L452.866 58.5584L451.119 59.5666L452.864 60.5739ZM498.232 86.7648L499.979 85.7566L498.234 84.7493L496.487 85.7575L498.232 86.7648ZM452.845 86.7761L454.591 85.7678L452.846 84.7605L451.1 85.7687L452.845 86.7761ZM407.477 60.5852L409.223 59.577L407.479 58.5696L405.732 59.5778L407.477 60.5852ZM362.109 34.3943L363.856 33.3861L362.111 32.3787L360.364 33.3869L362.109 34.3943ZM407.517 6.66928L404.027 4.6546L403.154 5.15871L406.644 7.17339L403.151 9.1898L404.023 9.69347L407.516 7.67706L411.006 9.69175L411.879 9.18763L408.39 7.17295L411.882 5.15654L411.01 4.65287L407.517 6.66928ZM267.807 83.2946L266.934 83.7987L270.423 85.8134L266.931 87.8298L267.803 88.3335L271.296 86.3171L274.786 88.3318L275.659 87.8277L272.169 85.813L275.662 83.7966L274.789 83.2929L271.297 85.3093L267.807 83.2946ZM271.101 348.842L272.847 347.834L271.103 346.827L269.356 347.835L271.101 348.842ZM180.365 296.46L182.112 295.452L180.367 294.445L178.62 295.453L180.365 296.46ZM316.488 348.831L318.235 347.823L316.49 346.815L314.743 347.824L316.488 348.831ZM225.733 322.651L227.48 321.643L225.735 320.636L223.988 321.644L225.733 322.651ZM271.12 322.64L272.867 321.632L271.122 320.624L269.376 321.633L271.12 322.64ZM180.346 322.662L182.092 321.654L180.347 320.647L178.601 321.655L180.346 322.662ZM225.694 375.055L227.441 374.047L225.696 373.04L223.949 374.048L225.694 375.055ZM271.082 375.044L272.828 374.036L271.083 373.029L269.337 374.037L271.082 375.044ZM180.328 346.849L178.581 347.857L180.326 348.865L182.073 347.856L180.328 346.849ZM225.714 348.853L227.46 347.845L225.715 346.838L223.969 347.846L225.714 348.853ZM271.159 270.236L272.906 269.228L271.161 268.22L269.414 269.228L271.159 270.236ZM225.753 296.449L227.499 295.441L225.754 294.434L224.008 295.442L225.753 296.449ZM316.527 296.427L318.274 295.418L316.529 294.411L314.782 295.419L316.527 296.427ZM361.895 322.618L363.642 321.609L361.897 320.602L360.15 321.61L361.895 322.618ZM316.508 322.629L318.254 321.621L316.509 320.613L314.763 321.621L316.508 322.629ZM271.14 296.438L272.886 295.43L271.141 294.422L269.395 295.431L271.14 296.438ZM225.772 270.247L227.518 269.239L225.774 268.231L224.027 269.24L225.772 270.247ZM131.47 319.147L130.597 319.651L134.086 321.666L130.594 323.683L131.466 324.186L134.959 322.17L138.449 324.184L139.322 323.68L135.832 321.666L139.325 319.649L138.452 319.146L134.96 321.162L131.47 319.147ZM407.321 270.202L409.068 269.194L407.323 268.187L405.577 269.195L407.321 270.202ZM316.586 217.82L318.332 216.812L316.587 215.805L314.841 216.813L316.586 217.82ZM452.709 270.191L454.455 269.183L452.71 268.175L450.964 269.184L452.709 270.191ZM361.954 244.011L363.7 243.003L361.955 241.996L360.209 243.004L361.954 244.011ZM407.341 244L409.087 242.992L407.342 241.984L405.596 242.993L407.341 244ZM316.566 244.022L318.313 243.014L316.568 242.007L314.821 243.015L316.566 244.022ZM361.915 296.415L363.661 295.407L361.916 294.4L360.17 295.408L361.915 296.415ZM407.302 296.404L409.048 295.396L407.303 294.389L405.557 295.397L407.302 296.404ZM316.548 268.209L314.802 269.217L316.547 270.225L318.293 269.216L316.548 268.209ZM361.934 270.213L363.68 269.205L361.936 268.198L360.189 269.206L361.934 270.213ZM407.38 191.596L409.126 190.588L407.381 189.58L405.635 190.588L407.38 191.596ZM361.973 217.809L363.719 216.801L361.974 215.794L360.228 216.802L361.973 217.809ZM452.748 217.787L454.494 216.778L452.749 215.771L451.003 216.779L452.748 217.787ZM498.116 243.978L499.862 242.969L498.117 241.962L496.371 242.97L498.116 243.978ZM452.728 243.989L454.475 242.981L452.73 241.973L450.983 242.981L452.728 243.989ZM407.36 217.798L409.107 216.79L407.362 215.782L405.615 216.791L407.36 217.798ZM361.992 191.607L363.739 190.599L361.994 189.591L360.248 190.6L361.992 191.607ZM267.69 240.507L266.817 241.011L270.307 243.026L266.814 245.043L267.686 245.546L271.179 243.53L274.669 245.544L275.542 245.04L272.052 243.026L275.545 241.009L274.673 240.506L271.18 242.522L267.69 240.507ZM543.542 191.562L545.288 190.554L543.543 189.547L541.797 190.555L543.542 191.562ZM452.806 139.18L454.552 138.172L452.808 137.165L451.061 138.173L452.806 139.18ZM588.929 191.551L590.676 190.543L588.931 189.535L587.184 190.543L588.929 191.551ZM498.174 165.371L499.92 164.363L498.175 163.356L496.429 164.364L498.174 165.371ZM543.561 165.36L545.308 164.352L543.563 163.344L541.816 164.353L543.561 165.36ZM452.787 165.382L454.533 164.374L452.788 163.367L451.042 164.375L452.787 165.382ZM498.135 217.775L499.881 216.767L498.137 215.76L496.39 216.768L498.135 217.775ZM543.522 217.764L545.269 216.756L543.524 215.749L541.777 216.757L543.522 217.764ZM452.769 189.569L451.022 190.577L452.767 191.585L454.514 190.576L452.769 189.569ZM498.154 191.573L499.901 190.565L498.156 189.558L496.41 190.566L498.154 191.573ZM543.6 112.956L545.347 111.948L543.602 110.94L541.855 111.948L543.6 112.956ZM634.355 139.135L636.102 138.127L634.357 137.12L632.611 138.128L634.355 139.135ZM588.989 110.929L587.243 111.937L588.988 112.944L590.734 111.936L588.989 110.929ZM498.193 139.169L499.94 138.161L498.195 137.154L496.448 138.162L498.193 139.169ZM588.968 139.147L590.714 138.138L588.97 137.131L587.223 138.139L588.968 139.147ZM634.336 165.337L636.082 164.329L634.337 163.322L632.591 164.33L634.336 165.337ZM588.949 165.349L590.695 164.34L588.95 163.333L587.204 164.341L588.949 165.349ZM543.581 139.158L545.327 138.15L543.582 137.142L541.836 138.15L543.581 139.158ZM498.213 112.967L499.959 111.959L498.214 110.951L496.468 111.96L498.213 112.967ZM540.131 83.2272L539.258 83.7314L542.748 85.746L539.255 87.7625L540.127 88.2661L543.62 86.2497L547.11 88.2644L547.983 87.7603L544.493 85.7456L547.986 83.7292L547.114 83.2255L543.621 85.2419L540.131 83.2272ZM403.911 161.867L403.037 162.371L406.527 164.386L403.034 166.402L403.907 166.906L407.4 164.89L410.889 166.904L411.763 166.4L408.273 164.386L411.766 162.369L410.893 161.866L407.4 163.882L403.911 161.867ZM452.573 453.606L454.319 452.597L452.574 451.59L450.828 452.598L452.573 453.606ZM407.205 427.415L408.951 426.407L407.206 425.399L405.46 426.407L407.205 427.415ZM316.469 375.033L318.215 374.025L316.47 373.017L314.724 374.026L316.469 375.033ZM452.592 427.404L454.338 426.395L452.594 425.388L450.847 426.396L452.592 427.404ZM361.837 401.224L363.583 400.216L361.838 399.208L360.092 400.217L361.837 401.224ZM407.224 401.213L408.971 400.204L407.226 399.197L405.479 400.205L407.224 401.213ZM316.449 401.235L318.196 400.227L316.451 399.22L314.705 400.228L316.449 401.235ZM361.798 453.628L363.544 452.62L361.799 451.613L360.053 452.621L361.798 453.628ZM407.185 453.617L408.932 452.609L407.187 451.601L405.44 452.61L407.185 453.617ZM316.432 425.422L314.685 426.43L316.43 427.437L318.176 426.429L316.432 425.422ZM361.817 427.426L363.564 426.418L361.819 425.41L360.072 426.419L361.817 427.426ZM407.263 348.808L409.009 347.8L407.265 346.793L405.518 347.801L407.263 348.808ZM361.856 375.022L363.603 374.014L361.858 373.006L360.111 374.014L361.856 375.022ZM452.631 374.999L454.377 373.991L452.632 372.984L450.886 373.992L452.631 374.999ZM497.999 401.19L499.745 400.182L498 399.175L496.254 400.183L497.999 401.19ZM497.979 427.392L499.726 426.384L497.981 425.377L496.234 426.385L497.979 427.392ZM452.612 401.201L454.358 400.193L452.613 399.186L450.867 400.194L452.612 401.201ZM407.244 375.011L408.99 374.002L407.245 372.995L405.499 374.003L407.244 375.011ZM361.876 348.82L363.622 347.811L361.877 346.804L360.131 347.812L361.876 348.82ZM267.573 397.72L266.7 398.224L270.19 400.239L266.697 402.255L267.57 402.759L271.062 400.742L274.552 402.757L275.426 402.253L271.936 400.238L275.429 398.222L274.556 397.718L271.063 399.735L267.573 397.72ZM403.677 476.293L402.804 476.797L406.294 478.811L402.801 480.828L403.673 481.332L407.166 479.315L410.656 481.33L411.529 480.826L408.039 478.811L411.532 476.795L410.66 476.291L407.167 478.307L403.677 476.293ZM588.793 374.966L590.539 373.957L588.794 372.95L587.048 373.958L588.793 374.966ZM543.425 348.775L545.172 347.767L543.427 346.759L541.68 347.767L543.425 348.775ZM452.689 296.393L454.436 295.385L452.691 294.377L450.944 295.386L452.689 296.393ZM588.812 348.764L590.559 347.755L588.814 346.748L587.068 347.756L588.812 348.764ZM498.057 322.584L499.804 321.576L498.059 320.568L496.312 321.577L498.057 322.584ZM543.445 322.573L545.191 321.564L543.446 320.557L541.7 321.565L543.445 322.573ZM452.67 322.595L454.416 321.587L452.671 320.58L450.925 321.588L452.67 322.595ZM498.018 374.988L499.765 373.98L498.02 372.973L496.273 373.981L498.018 374.988ZM543.406 374.977L545.152 373.969L543.407 372.961L541.661 373.97L543.406 374.977ZM452.652 346.782L450.905 347.79L452.65 348.797L454.397 347.789L452.652 346.782ZM498.038 348.786L499.784 347.778L498.039 346.77L496.293 347.779L498.038 348.786ZM543.483 270.168L545.23 269.16L543.485 268.153L541.739 269.161L543.483 270.168ZM498.077 296.382L499.823 295.374L498.078 294.366L496.332 295.374L498.077 296.382ZM588.851 296.359L590.598 295.351L588.853 294.344L587.106 295.352L588.851 296.359ZM634.219 322.55L635.966 321.542L634.221 320.535L632.474 321.543L634.219 322.55ZM634.2 348.752L635.946 347.744L634.201 346.737L632.455 347.745L634.2 348.752ZM588.832 322.561L590.578 321.553L588.833 320.546L587.087 321.554L588.832 322.561ZM543.464 296.371L545.21 295.362L543.465 294.355L541.719 295.363L543.464 296.371ZM498.096 270.18L499.843 269.171L498.098 268.164L496.351 269.172L498.096 270.18ZM403.794 319.08L402.921 319.584L406.41 321.599L402.918 323.615L403.79 324.119L407.283 322.102L410.773 324.117L411.646 323.613L408.156 321.598L411.649 319.582L410.776 319.078L407.284 321.095L403.794 319.08ZM539.897 397.653L539.024 398.157L542.514 400.171L539.021 402.188L539.894 402.691L543.387 400.675L546.876 402.69L547.75 402.186L544.26 400.171L547.753 398.155L546.88 397.651L543.387 399.667L539.897 397.653ZM725.013 296.326L726.76 295.317L725.015 294.31L723.268 295.318L725.013 296.326ZM679.646 270.135L681.392 269.126L679.647 268.119L677.901 269.127L679.646 270.135ZM588.91 217.753L590.656 216.745L588.911 215.737L587.165 216.746L588.91 217.753ZM725.033 270.123L726.779 269.115L725.034 268.108L723.288 269.116L725.033 270.123ZM634.278 243.944L636.024 242.936L634.279 241.928L632.533 242.936L634.278 243.944ZM679.665 243.933L681.411 242.924L679.666 241.917L677.92 242.925L679.665 243.933ZM588.89 243.955L590.637 242.947L588.892 241.939L587.145 242.948L588.89 243.955ZM634.239 296.348L635.985 295.34L634.24 294.333L632.494 295.341L634.239 296.348ZM679.626 296.337L681.372 295.329L679.628 294.321L677.881 295.329L679.626 296.337ZM588.872 268.142L587.126 269.15L588.871 270.157L590.617 269.149L588.872 268.142ZM634.258 270.146L636.005 269.138L634.26 268.13L632.513 269.139L634.258 270.146ZM679.704 191.528L681.45 190.52L679.705 189.513L677.959 190.521L679.704 191.528ZM770.459 217.708L772.206 216.7L770.461 215.692L768.714 216.701L770.459 217.708ZM725.093 189.502L723.346 190.51L725.091 191.517L726.838 190.509L725.093 189.502ZM634.297 217.742L636.043 216.734L634.299 215.726L632.552 216.734L634.297 217.742ZM725.072 217.719L726.818 216.711L725.073 215.704L723.327 216.712L725.072 217.719ZM770.44 243.91L772.186 242.902L770.441 241.895L768.695 242.903L770.44 243.91ZM770.42 270.112L772.167 269.104L770.422 268.097L768.675 269.105L770.42 270.112ZM725.052 243.921L726.799 242.913L725.054 241.906L723.307 242.914L725.052 243.921ZM679.684 217.73L681.431 216.722L679.686 215.715L677.939 216.723L679.684 217.73ZM634.317 191.54L636.063 190.531L634.318 189.524L632.572 190.532L634.317 191.54ZM812.338 240.373L811.465 240.877L814.955 242.891L811.462 244.908L812.335 245.411L815.827 243.395L819.317 245.41L820.19 244.906L816.701 242.891L820.193 240.875L819.321 240.371L815.828 242.387L812.338 240.373ZM676.235 161.8L675.361 162.304L678.851 164.319L675.358 166.335L676.231 166.839L679.724 164.822L683.214 166.837L684.087 166.333L680.597 164.318L684.09 162.302L683.217 161.798L679.724 163.815L676.235 161.8ZM540.014 240.44L539.141 240.944L542.631 242.959L539.138 244.975L540.01 245.479L543.503 243.462L546.993 245.477L547.866 244.973L544.376 242.958L547.869 240.942L546.997 240.438L543.504 242.455L540.014 240.44ZM676.118 319.013L675.245 319.517L678.735 321.531L675.242 323.548L676.114 324.051L679.607 322.035L683.097 324.05L683.97 323.546L680.48 321.531L683.973 319.515L683.101 319.011L679.608 321.027L676.118 319.013Z" fill="#8F90A6"/>
</g>
</g>
<g filter="url(#filter8_dd)">
<path d="M344.058 237.808L471.161 236.499L471.161 244.15C471.161 247.525 468.839 250.763 464.704 253.149L423.199 277.11C414.589 282.081 400.631 282.081 392.021 277.11L350.516 253.149C346.381 250.763 344.058 247.525 344.058 244.15L344.058 237.808Z" fill="url(#paint11_linear)"/>
<rect width="84.0609" height="84.0609" rx="18" transform="matrix(0.866045 0.499966 -0.866045 0.499966 407.609 194.999)" fill="url(#paint12_linear)"/>
<path fill-rule="evenodd" clip-rule="evenodd" d="M391.99 236.752C390.773 236.749 389.794 237.314 389.8 238.016L389.86 245.205C389.866 245.907 390.854 246.478 392.071 246.481L404.522 246.516C405.129 246.517 405.679 246.377 406.076 246.148C406.472 245.919 406.716 245.602 406.713 245.251C406.707 244.549 405.718 243.978 404.501 243.975L394.251 243.946L394.202 238.028C394.196 237.326 393.208 236.755 391.99 236.752Z" fill="#C7C9D9"/>
<path fill-rule="evenodd" clip-rule="evenodd" d="M407.478 227.812C406.261 227.808 405.282 228.374 405.288 229.076C405.294 229.779 406.282 230.349 407.499 230.353L417.75 230.381L417.799 236.299C417.805 237.001 418.793 237.572 420.01 237.575C420.617 237.577 421.167 237.437 421.563 237.208C421.96 236.979 422.203 236.661 422.2 236.311L422.141 229.123C422.135 228.42 421.147 227.85 419.93 227.846L407.478 227.812Z" fill="#C7C9D9"/>
<path fill-rule="evenodd" clip-rule="evenodd" d="M397.072 227.943C396.023 228.276 395.636 229.052 396.232 229.669L411.93 245.884C412.525 246.499 413.867 246.723 414.927 246.386C415.11 246.327 415.273 246.256 415.415 246.174C416.087 245.786 416.26 245.168 415.767 244.66L400.069 228.445C399.474 227.829 398.133 227.606 397.072 227.943Z" fill="#C7C9D9"/>
</g>
<g opacity="0.45">
<path d="M471 187.643L407.752 224.538L344.252 187.643L407.501 150.999L471 187.643Z" fill="url(#paint13_linear)"/>
<path d="M470.999 187.643V217.603L407.75 254.498L407.75 224.538L470.999 187.643Z" fill="url(#paint14_linear)"/>
<path d="M407.751 224.538V254.498L344 217.603L344.251 187.643L407.751 224.538Z" fill="url(#paint15_linear)"/>
</g>
<g filter="url(#filter9_dd)">
<rect width="84.0609" height="84.0609" rx="18" transform="matrix(0.866045 0.499966 -0.866045 0.499966 407.801 145.674)" fill="url(#paint16_linear)"/>
<rect width="84.0609" height="84.0609" rx="18" transform="matrix(0.866043 0.499969 -0.866043 0.499969 407.801 143)" fill="white"/>
<path d="M420.672 184.985C421.166 184.698 421.889 184.587 422.568 184.693L438.816 187.057C440.273 187.284 440.838 188.376 439.778 188.991L405.395 208.84C404.33 209.458 402.499 209.172 402.107 208.326L398.037 198.892C397.856 198.503 398.047 198.088 398.537 197.804L420.672 184.985Z" fill="#223C37"/>
<path d="M411.342 184.7C411.529 185.091 411.337 185.509 410.84 185.796L398.492 192.924C397.431 193.537 395.621 193.258 395.235 192.421L384.949 170.138C384.563 169.301 385.894 168.535 387.342 168.761L403.961 171.352C404.625 171.456 405.144 171.754 405.327 172.136L411.342 184.7Z" fill="#39D98A"/>
<path d="M438.428 188.973C439.094 189.071 439.494 189.155 439.979 188.875L454.718 180.366C455.796 179.743 455.305 178.698 453.82 178.495L415.933 172.998C414.476 172.799 413.192 173.582 413.619 174.411L419.327 185.761L438.428 188.973Z" fill="#376C66"/>
</g>
<defs>
<filter id="filter0_dd" x="1353.13" y="172.271" width="159.338" height="108.186" filterUnits="userSpaceOnUse" color-interpolation-filters="sRGB">
<feFlood flood-opacity="0" result="BackgroundImageFix"/>
<feColorMatrix in="SourceAlpha" type="matrix" values="0 0 0 0 0 0 0 0 0 0 0 0 0 0 0 0 0 0 127 0"/>
<feOffset dy="8"/>
<feGaussianBlur stdDeviation="8"/>
<feColorMatrix type="matrix" values="0 0 0 0 0.376471 0 0 0 0 0.380392 0 0 0 0 0.439216 0 0 0 0.16 0"/>
<feBlend mode="normal" in2="BackgroundImageFix" result="effect1_dropShadow"/>
<feColorMatrix in="SourceAlpha" type="matrix" values="0 0 0 0 0 0 0 0 0 0 0 0 0 0 0 0 0 0 127 0"/>
<feOffset dy="2"/>
<feGaussianBlur stdDeviation="2"/>
<feColorMatrix type="matrix" values="0 0 0 0 0.156863 0 0 0 0 0.160784 0 0 0 0 0.239216 0 0 0 0.04 0"/>
<feBlend mode="normal" in2="effect1_dropShadow" result="effect2_dropShadow"/>
<feBlend mode="normal" in="SourceGraphic" in2="effect2_dropShadow" result="shape"/>
</filter>
<filter id="filter1_dd" x="1199.94" y="156.771" width="131.338" height="84.5675" filterUnits="userSpaceOnUse" color-interpolation-filters="sRGB">
<feFlood flood-opacity="0" result="BackgroundImageFix"/>
<feColorMatrix in="SourceAlpha" type="matrix" values="0 0 0 0 0 0 0 0 0 0 0 0 0 0 0 0 0 0 127 0"/>
<feOffset dy="0.5"/>
<feGaussianBlur stdDeviation="1"/>
<feColorMatrix type="matrix" values="0 0 0 0 0.376471 0 0 0 0 0.380392 0 0 0 0 0.439216 0 0 0 0.16 0"/>
<feBlend mode="normal" in2="BackgroundImageFix" result="effect1_dropShadow"/>
<feColorMatrix in="SourceAlpha" type="matrix" values="0 0 0 0 0 0 0 0 0 0 0 0 0 0 0 0 0 0 127 0"/>
<feOffset/>
<feGaussianBlur stdDeviation="0.5"/>
<feColorMatrix type="matrix" values="0 0 0 0 0.156863 0 0 0 0 0.160784 0 0 0 0 0.239216 0 0 0 0.08 0"/>
<feBlend mode="normal" in2="effect1_dropShadow" result="effect2_dropShadow"/>
<feBlend mode="normal" in="SourceGraphic" in2="effect2_dropShadow" result="shape"/>
</filter>
<filter id="filter2_dd" x="1176" y="107" width="179.078" height="116.908" filterUnits="userSpaceOnUse" color-interpolation-filters="sRGB">
<feFlood flood-opacity="0" result="BackgroundImageFix"/>
<feColorMatrix in="SourceAlpha" type="matrix" values="0 0 0 0 0 0 0 0 0 0 0 0 0 0 0 0 0 0 127 0"/>
<feOffset dy="8"/>
<feGaussianBlur stdDeviation="8"/>
<feColorMatrix type="matrix" values="0 0 0 0 0.376471 0 0 0 0 0.380392 0 0 0 0 0.439216 0 0 0 0.16 0"/>
<feBlend mode="normal" in2="BackgroundImageFix" result="effect1_dropShadow"/>
<feColorMatrix in="SourceAlpha" type="matrix" values="0 0 0 0 0 0 0 0 0 0 0 0 0 0 0 0 0 0 127 0"/>
<feOffset dy="2"/>
<feGaussianBlur stdDeviation="2"/>
<feColorMatrix type="matrix" values="0 0 0 0 0.156863 0 0 0 0 0.160784 0 0 0 0 0.239216 0 0 0 0.04 0"/>
<feBlend mode="normal" in2="effect1_dropShadow" result="effect2_dropShadow"/>
<feBlend mode="normal" in="SourceGraphic" in2="effect2_dropShadow" result="shape"/>
</filter>
<filter id="filter3_dd" x="1143.09" y="121.515" width="97.7767" height="61.6854" filterUnits="userSpaceOnUse" color-interpolation-filters="sRGB">
<feFlood flood-opacity="0" result="BackgroundImageFix"/>
<feColorMatrix in="SourceAlpha" type="matrix" values="0 0 0 0 0 0 0 0 0 0 0 0 0 0 0 0 0 0 127 0"/>
<feOffset dy="2"/>
<feGaussianBlur stdDeviation="2"/>
<feColorMatrix type="matrix" values="0 0 0 0 0.376471 0 0 0 0 0.380392 0 0 0 0 0.439216 0 0 0 0.16 0"/>
<feBlend mode="normal" in2="BackgroundImageFix" result="effect1_dropShadow"/>
<feColorMatrix in="SourceAlpha" type="matrix" values="0 0 0 0 0 0 0 0 0 0 0 0 0 0 0 0 0 0 127 0"/>
<feOffset/>
<feGaussianBlur stdDeviation="0.5"/>
<feColorMatrix type="matrix" values="0 0 0 0 0.156863 0 0 0 0 0.160784 0 0 0 0 0.239216 0 0 0 0.04 0"/>
<feBlend mode="normal" in2="effect1_dropShadow" result="effect2_dropShadow"/>
<feBlend mode="normal" in="SourceGraphic" in2="effect2_dropShadow" result="shape"/>
</filter>
<filter id="filter4_dd" x="1238.09" y="76.0146" width="93.7767" height="57.6854" filterUnits="userSpaceOnUse" color-interpolation-filters="sRGB">
<feFlood flood-opacity="0" result="BackgroundImageFix"/>
<feColorMatrix in="SourceAlpha" type="matrix" values="0 0 0 0 0 0 0 0 0 0 0 0 0 0 0 0 0 0 127 0"/>
<feOffset dy="0.5"/>
<feGaussianBlur stdDeviation="1"/>
<feColorMatrix type="matrix" values="0 0 0 0 0.376471 0 0 0 0 0.380392 0 0 0 0 0.439216 0 0 0 0.16 0"/>
<feBlend mode="normal" in2="BackgroundImageFix" result="effect1_dropShadow"/>
<feColorMatrix in="SourceAlpha" type="matrix" values="0 0 0 0 0 0 0 0 0 0 0 0 0 0 0 0 0 0 127 0"/>
<feOffset/>
<feGaussianBlur stdDeviation="0.5"/>
<feColorMatrix type="matrix" values="0 0 0 0 0.156863 0 0 0 0 0.160784 0 0 0 0 0.239216 0 0 0 0.08 0"/>
<feBlend mode="normal" in2="effect1_dropShadow" result="effect2_dropShadow"/>
<feBlend mode="normal" in="SourceGraphic" in2="effect2_dropShadow" result="shape"/>
</filter>
<filter id="filter5_dd" x="1267.17" y="91.9087" width="56.1472" height="34.1045" filterUnits="userSpaceOnUse" color-interpolation-filters="sRGB">
<feFlood flood-opacity="0" result="BackgroundImageFix"/>
<feColorMatrix in="SourceAlpha" type="matrix" values="0 0 0 0 0 0 0 0 0 0 0 0 0 0 0 0 0 0 127 0"/>
<feOffset dy="0.5"/>
<feGaussianBlur stdDeviation="1"/>
<feColorMatrix type="matrix" values="0 0 0 0 0.376471 0 0 0 0 0.380392 0 0 0 0 0.439216 0 0 0 0.16 0"/>
<feBlend mode="normal" in2="BackgroundImageFix" result="effect1_dropShadow"/>
<feColorMatrix in="SourceAlpha" type="matrix" values="0 0 0 0 0 0 0 0 0 0 0 0 0 0 0 0 0 0 127 0"/>
<feOffset/>
<feGaussianBlur stdDeviation="0.5"/>
<feColorMatrix type="matrix" values="0 0 0 0 0.156863 0 0 0 0 0.160784 0 0 0 0 0.239216 0 0 0 0.08 0"/>
<feBlend mode="normal" in2="effect1_dropShadow" result="effect2_dropShadow"/>
<feBlend mode="normal" in="SourceGraphic" in2="effect2_dropShadow" result="shape"/>
</filter>
<filter id="filter6_dd" x="1246.17" y="78.9087" width="56.1473" height="34.1046" filterUnits="userSpaceOnUse" color-interpolation-filters="sRGB">
<feFlood flood-opacity="0" result="BackgroundImageFix"/>
<feColorMatrix in="SourceAlpha" type="matrix" values="0 0 0 0 0 0 0 0 0 0 0 0 0 0 0 0 0 0 127 0"/>
<feOffset dy="0.5"/>
<feGaussianBlur stdDeviation="1"/>
<feColorMatrix type="matrix" values="0 0 0 0 0.376471 0 0 0 0 0.380392 0 0 0 0 0.439216 0 0 0 0.16 0"/>
<feBlend mode="normal" in2="BackgroundImageFix" result="effect1_dropShadow"/>
<feColorMatrix in="SourceAlpha" type="matrix" values="0 0 0 0 0 0 0 0 0 0 0 0 0 0 0 0 0 0 127 0"/>
<feOffset/>
<feGaussianBlur stdDeviation="0.5"/>
<feColorMatrix type="matrix" values="0 0 0 0 0.156863 0 0 0 0 0.160784 0 0 0 0 0.239216 0 0 0 0.08 0"/>
<feBlend mode="normal" in2="effect1_dropShadow" result="effect2_dropShadow"/>
<feBlend mode="normal" in="SourceGraphic" in2="effect2_dropShadow" result="shape"/>
</filter>
<filter id="filter7_dd" x="1149.13" y="265.271" width="135.338" height="84.1861" filterUnits="userSpaceOnUse" color-interpolation-filters="sRGB">
<feFlood flood-opacity="0" result="BackgroundImageFix"/>
<feColorMatrix in="SourceAlpha" type="matrix" values="0 0 0 0 0 0 0 0 0 0 0 0 0 0 0 0 0 0 127 0"/>
<feOffset dy="2"/>
<feGaussianBlur stdDeviation="2"/>
<feColorMatrix type="matrix" values="0 0 0 0 0.376471 0 0 0 0 0.380392 0 0 0 0 0.439216 0 0 0 0.16 0"/>
<feBlend mode="normal" in2="BackgroundImageFix" result="effect1_dropShadow"/>
<feColorMatrix in="SourceAlpha" type="matrix" values="0 0 0 0 0 0 0 0 0 0 0 0 0 0 0 0 0 0 127 0"/>
<feOffset/>
<feGaussianBlur stdDeviation="0.5"/>
<feColorMatrix type="matrix" values="0 0 0 0 0.156863 0 0 0 0 0.160784 0 0 0 0 0.239216 0 0 0 0.04 0"/>
<feBlend mode="normal" in2="effect1_dropShadow" result="effect2_dropShadow"/>
<feBlend mode="normal" in="SourceGraphic" in2="effect2_dropShadow" result="shape"/>
</filter>
<filter id="filter8_dd" x="341.941" y="198.771" width="131.338" height="84.5675" filterUnits="userSpaceOnUse" color-interpolation-filters="sRGB">
<feFlood flood-opacity="0" result="BackgroundImageFix"/>
<feColorMatrix in="SourceAlpha" type="matrix" values="0 0 0 0 0 0 0 0 0 0 0 0 0 0 0 0 0 0 127 0"/>
<feOffset dy="0.5"/>
<feGaussianBlur stdDeviation="1"/>
<feColorMatrix type="matrix" values="0 0 0 0 0.376471 0 0 0 0 0.380392 0 0 0 0 0.439216 0 0 0 0.16 0"/>
<feBlend mode="normal" in2="BackgroundImageFix" result="effect1_dropShadow"/>
<feColorMatrix in="SourceAlpha" type="matrix" values="0 0 0 0 0 0 0 0 0 0 0 0 0 0 0 0 0 0 127 0"/>
<feOffset/>
<feGaussianBlur stdDeviation="0.5"/>
<feColorMatrix type="matrix" values="0 0 0 0 0.156863 0 0 0 0 0.160784 0 0 0 0 0.239216 0 0 0 0.08 0"/>
<feBlend mode="normal" in2="effect1_dropShadow" result="effect2_dropShadow"/>
<feBlend mode="normal" in="SourceGraphic" in2="effect2_dropShadow" result="shape"/>
</filter>
<filter id="filter9_dd" x="308" y="130" width="195.078" height="134.458" filterUnits="userSpaceOnUse" color-interpolation-filters="sRGB">
<feFlood flood-opacity="0" result="BackgroundImageFix"/>
<feColorMatrix in="SourceAlpha" type="matrix" values="0 0 0 0 0 0 0 0 0 0 0 0 0 0 0 0 0 0 127 0"/>
<feOffset dy="16"/>
<feGaussianBlur stdDeviation="12"/>
<feColorMatrix type="matrix" values="0 0 0 0 0.376471 0 0 0 0 0.380392 0 0 0 0 0.439216 0 0 0 0.16 0"/>
<feBlend mode="normal" in2="BackgroundImageFix" result="effect1_dropShadow"/>
<feColorMatrix in="SourceAlpha" type="matrix" values="0 0 0 0 0 0 0 0 0 0 0 0 0 0 0 0 0 0 127 0"/>
<feOffset dy="2"/>
<feGaussianBlur stdDeviation="4"/>
<feColorMatrix type="matrix" values="0 0 0 0 0.156863 0 0 0 0 0.160784 0 0 0 0 0.239216 0 0 0 0.04 0"/>
<feBlend mode="normal" in2="effect1_dropShadow" result="effect2_dropShadow"/>
<feBlend mode="normal" in="SourceGraphic" in2="effect2_dropShadow" result="shape"/>
</filter>
<radialGradient id="paint0_radial" cx="0" cy="0" r="1" gradientUnits="userSpaceOnUse" gradientTransform="translate(250.701 226.18) rotate(93.632) scale(244.71 229.238)">
<stop offset="0.744792" stop-color="#C4C4C4"/>
<stop offset="1" stop-color="#C4C4C4" stop-opacity="0"/>
</radialGradient>
<linearGradient id="paint1_linear" x1="-0.383015" y1="13.1213" x2="87.3745" y2="24.5005" gradientUnits="userSpaceOnUse">
<stop stop-color="#E4E4EB"/>
<stop offset="1" stop-color="#EDF0F4"/>
</linearGradient>
<linearGradient id="paint2_linear" x1="1255.4" y1="176.293" x2="1281" y2="233.857" gradientUnits="userSpaceOnUse">
<stop stop-color="#E4E4EB"/>
<stop offset="1" stop-color="#EDF0F4"/>
</linearGradient>
<linearGradient id="paint3_linear" x1="1265.63" y1="123" x2="1265.63" y2="196.539" gradientUnits="userSpaceOnUse">
<stop stop-color="#39D98A"/>
<stop offset="1" stop-color="#47FFA4" stop-opacity="0.42"/>
</linearGradient>
<linearGradient id="paint4_linear" x1="1286.5" y1="173.499" x2="1305" y2="199.999" gradientUnits="userSpaceOnUse">
<stop stop-color="#39D98A"/>
<stop offset="1" stop-color="#47FFA4" stop-opacity="0"/>
</linearGradient>
<linearGradient id="paint5_linear" x1="1240.5" y1="173.999" x2="1223" y2="201.999" gradientUnits="userSpaceOnUse">
<stop stop-color="#39D98A"/>
<stop offset="1" stop-color="#47FFA4" stop-opacity="0"/>
</linearGradient>
<linearGradient id="paint6_linear" x1="-0.383015" y1="13.1213" x2="87.3745" y2="24.5005" gradientUnits="userSpaceOnUse">
<stop stop-color="#E4E4EB"/>
<stop offset="1" stop-color="#EDF0F4"/>
</linearGradient>
<linearGradient id="paint7_linear" x1="7.59227" y1="58.8857" x2="37.9142" y2="-1.76219" gradientUnits="userSpaceOnUse">
<stop stop-color="#E4E4EB"/>
<stop offset="1" stop-color="#EDF0F4"/>
</linearGradient>
<linearGradient id="paint8_linear" x1="7.59227" y1="58.8857" x2="37.9142" y2="-1.76219" gradientUnits="userSpaceOnUse">
<stop stop-color="#E4E4EB"/>
<stop offset="1" stop-color="#EDF0F4"/>
</linearGradient>
<linearGradient id="paint9_linear" x1="-0.383015" y1="13.1213" x2="87.3745" y2="24.5005" gradientUnits="userSpaceOnUse">
<stop stop-color="#E4E4EB"/>
<stop offset="1" stop-color="#EDF0F4"/>
</linearGradient>
<radialGradient id="paint10_radial" cx="0" cy="0" r="1" gradientUnits="userSpaceOnUse" gradientTransform="translate(250.701 226.18) rotate(93.632) scale(244.71 229.238)">
<stop offset="0.744792" stop-color="#C4C4C4"/>
<stop offset="1" stop-color="#C4C4C4" stop-opacity="0"/>
</radialGradient>
<linearGradient id="paint11_linear" x1="391.631" y1="208.484" x2="391.837" y2="303.887" gradientUnits="userSpaceOnUse">
<stop stop-color="#8B90A4"/>
<stop offset="1" stop-color="#28293D"/>
</linearGradient>
<linearGradient id="paint12_linear" x1="19.6297" y1="24.3751" x2="86.1719" y2="75.5019" gradientUnits="userSpaceOnUse">
<stop stop-color="#40415A"/>
<stop offset="1" stop-color="#28293D"/>
</linearGradient>
<linearGradient id="paint13_linear" x1="407.626" y1="150.999" x2="407.626" y2="224.538" gradientUnits="userSpaceOnUse">
<stop stop-color="#39D98A"/>
<stop offset="1" stop-color="#47FFA4" stop-opacity="0.42"/>
</linearGradient>
<linearGradient id="paint14_linear" x1="428.499" y1="201.498" x2="446.999" y2="227.998" gradientUnits="userSpaceOnUse">
<stop stop-color="#39D98A"/>
<stop offset="1" stop-color="#47FFA4" stop-opacity="0"/>
</linearGradient>
<linearGradient id="paint15_linear" x1="382.5" y1="201.998" x2="365" y2="229.998" gradientUnits="userSpaceOnUse">
<stop stop-color="#39D98A"/>
<stop offset="1" stop-color="#47FFA4" stop-opacity="0"/>
</linearGradient>
<linearGradient id="paint16_linear" x1="-0.383015" y1="13.1213" x2="87.3745" y2="24.5005" gradientUnits="userSpaceOnUse">
<stop stop-color="#E4E4EB"/>
<stop offset="1" stop-color="#EDF0F4"/>
</linearGradient>
<clipPath id="clip0">
<rect width="52.8536" height="52.209" fill="white" transform="matrix(0.890317 -0.51398 0.890317 0.51398 1387 217.167)"/>
</clipPath>
</defs>
</svg>
