<svg width="154" height="154" viewBox="0 0 154 154" fill="none" xmlns="http://www.w3.org/2000/svg">
<circle cx="77" cy="77" r="77" fill="#E3FFF1"/>
<path fill-rule="evenodd" clip-rule="evenodd" d="M102.5 43H51.5C46.8052 43 43 47.5662 43 53.2V100.8C43 106.434 46.8052 111 51.5 111H102.5C107.195 111 111 106.434 111 100.8V53.2C111 47.5662 107.195 43 102.5 43Z" fill="url(#paint0_linear)"/>
<g opacity="0.65" filter="url(#filter0_dd)">
<circle cx="109" cy="49" r="40" fill="#376C66"/>
</g>
<path fill-rule="evenodd" clip-rule="evenodd" d="M125.868 33.1309C121.922 29.1794 116.673 27.0023 111.081 27C99.5578 27 90.18 36.3776 90.1754 47.9035C90.1738 51.5879 91.1363 55.1846 92.9658 58.3548L90.4575 67.5166C90.2542 68.2591 90.931 68.9433 91.6757 68.7479L101.082 66.2804C104.136 67.9461 107.574 68.8239 111.072 68.8249H111.081C122.602 68.8249 131.981 59.4466 131.986 47.9202C131.988 42.3342 129.815 37.0821 125.868 33.1309ZM111.081 65.2945H111.073C107.956 65.2932 104.898 64.4553 102.23 62.8725L101.596 62.4958L96.695 63.7814C95.9503 63.9768 95.2734 63.2926 95.4767 62.5501L96.7746 57.8092L96.3613 57.1518C94.622 54.3853 93.7035 51.1878 93.7051 47.9047C93.7087 38.3248 101.503 30.5307 111.088 30.5307C115.729 30.5323 120.091 32.3419 123.372 35.6262C126.652 38.9106 128.458 43.2761 128.456 47.9189C128.452 57.4997 120.658 65.2945 111.081 65.2945Z" fill="white"/>
<path d="M108.9 55.1673C108.9 55.6016 109.068 56.0181 109.368 56.3251C109.668 56.6322 110.075 56.8047 110.5 56.8047C110.924 56.8047 111.331 56.6322 111.631 56.3251C111.931 56.0181 112.1 55.6016 112.1 55.1673C112.1 54.7331 111.931 54.3166 111.631 54.0096C111.331 53.7025 110.924 53.53 110.5 53.53C110.075 53.53 109.668 53.7025 109.368 54.0096C109.068 54.3166 108.9 54.7331 108.9 55.1673ZM105 45.1898C105 45.4661 105.22 45.6759 105.49 45.6759H107.11C107.38 45.6759 107.6 45.461 107.6 45.1949C107.6 43.752 108.89 42.5547 110.5 42.5547C112.11 42.5547 113.4 43.752 113.4 45.1898C113.4 46.4843 112.35 47.6049 110.935 47.7942C109.97 47.9374 109.21 48.8329 109.2 49.846V51.4833C109.2 51.7647 109.425 51.995 109.7 51.995H111.3C111.575 51.995 111.8 51.7647 111.8 51.4833V50.8591C111.8 50.5521 112 50.2707 112.285 50.1786C114.514 49.4418 116.034 47.4155 115.999 45.1181C115.959 42.2784 113.54 39.9605 110.575 39.9196C107.505 39.8838 105 42.2528 105 45.1898Z" fill="white"/>
<defs>
<filter id="filter0_dd" x="65" y="7" width="88" height="88" filterUnits="userSpaceOnUse" color-interpolation-filters="sRGB">
<feFlood flood-opacity="0" result="BackgroundImageFix"/>
<feColorMatrix in="SourceAlpha" type="matrix" values="0 0 0 0 0 0 0 0 0 0 0 0 0 0 0 0 0 0 127 0"/>
<feOffset dy="2"/>
<feGaussianBlur stdDeviation="2"/>
<feColorMatrix type="matrix" values="0 0 0 0 0.376471 0 0 0 0 0.380392 0 0 0 0 0.439216 0 0 0 0.16 0"/>
<feBlend mode="normal" in2="BackgroundImageFix" result="effect1_dropShadow"/>
<feColorMatrix in="SourceAlpha" type="matrix" values="0 0 0 0 0 0 0 0 0 0 0 0 0 0 0 0 0 0 127 0"/>
<feOffset/>
<feGaussianBlur stdDeviation="0.5"/>
<feColorMatrix type="matrix" values="0 0 0 0 0.156863 0 0 0 0 0.160784 0 0 0 0 0.239216 0 0 0 0.04 0"/>
<feBlend mode="normal" in2="effect1_dropShadow" result="effect2_dropShadow"/>
<feBlend mode="normal" in="SourceGraphic" in2="effect2_dropShadow" result="shape"/>
</filter>
<linearGradient id="paint0_linear" x1="77" y1="43" x2="77" y2="111" gradientUnits="userSpaceOnUse">
<stop stop-color="#3BC882" stop-opacity="0"/>
<stop offset="1" stop-color="#3BC882"/>
</linearGradient>
</defs>
</svg>
