<svg width="713" height="456" viewBox="0 0 713 456" fill="none" xmlns="http://www.w3.org/2000/svg">
<mask id="mask0" mask-type="alpha" maskUnits="userSpaceOnUse" x="0" y="83" width="713" height="373">
<ellipse cx="356.5" cy="269.085" rx="356.5" ry="186.085" fill="url(#paint0_radial)"/>
</mask>
<g mask="url(#mask0)">
<path opacity="0.15" d="M416.013 543.269L417.153 542.611L475.308 509.038L476.448 508.38L534.603 474.807L535.743 474.149L593.897 440.576L595.038 439.918L653.192 406.345L654.333 405.687L712.487 372.114L713.628 371.456L771.782 337.883L772.923 337.225L831.077 303.652L832.218 302.994L890.372 269.421L891.513 268.763L890.373 268.105L832.268 234.561L831.129 233.904L773.024 200.36L771.885 199.702L713.78 166.158L712.641 165.5L654.536 131.956L653.397 131.299L595.292 97.7548L594.152 97.0971L536.048 63.5532L534.908 62.8954L476.803 29.3515L475.664 28.6938L417.559 -4.85016L416.42 -5.50788L358.315 -39.0518L357.176 -39.7095L356.036 -39.0513L179.291 62.9834L178.151 63.6417L1.40602 165.676L0.265742 166.335L-177.619 269.028L0.113362 371.633L1.25268 372.29L177.846 474.238L178.985 474.895L355.578 576.843L356.718 577.5L357.858 576.842L416.013 543.269ZM299.02 -4.82083L357.175 -38.3935L415.28 -4.8496L357.125 28.7231L299.02 -4.82083ZM358.264 29.3808L416.419 -4.19188L474.524 29.3521L416.369 62.9248L358.264 29.3808ZM417.508 63.5825L475.663 30.0098L533.768 63.5537L475.613 97.1264L417.508 63.5825ZM476.753 97.7841L534.907 64.2114L593.012 97.7554L534.858 131.328L476.753 97.7841ZM535.997 131.986L594.151 98.4131L652.256 131.957L594.102 165.53L535.997 131.986ZM595.241 166.187L653.396 132.615L711.501 166.159L653.346 199.731L595.241 166.187ZM654.485 200.389L712.64 166.816L770.745 200.36L712.59 233.933L654.485 200.389ZM713.729 234.591L771.884 201.018L829.989 234.562L771.834 268.135L713.729 234.591ZM772.973 268.792L831.128 235.22L889.233 268.764L831.078 302.336L772.973 268.792ZM239.725 29.4101L297.88 -4.16255L355.985 29.3814L297.83 62.9541L239.725 29.4101ZM298.969 63.6118L357.124 30.0391L415.229 63.583L357.074 97.1557L298.969 63.6118ZM358.214 97.8135L416.368 64.2408L474.473 97.7847L416.318 131.357L358.214 97.8135ZM417.458 132.015L475.612 98.4424L533.717 131.986L475.563 165.559L417.458 132.015ZM476.702 166.217L534.857 132.644L592.961 166.188L534.807 199.761L476.702 166.217ZM535.946 200.418L594.101 166.846L652.206 200.39L594.051 233.962L535.946 200.418ZM595.19 234.62L653.345 201.047L711.45 234.591L653.295 268.164L595.19 234.62ZM654.434 268.822L712.589 235.249L770.694 268.793L712.539 302.366L654.434 268.822ZM713.678 303.023L771.833 269.451L829.938 302.995L771.783 336.567L713.678 303.023ZM180.43 63.6411L238.585 30.0684L296.69 63.6124L238.535 97.1851L180.43 63.6411ZM239.674 97.8428L297.829 64.2701L355.934 97.814L297.779 131.387L239.674 97.8428ZM298.919 132.044L357.073 98.4717L415.178 132.016L357.023 165.588L298.919 132.044ZM358.163 166.246L416.317 132.673L474.422 166.217L416.268 199.79L358.163 166.246ZM417.407 200.448L475.562 166.875L533.666 200.419L475.512 233.992L417.407 200.448ZM476.651 234.649L534.806 201.077L592.911 234.621L534.756 268.193L476.651 234.649ZM535.895 268.851L594.05 235.278L652.155 268.822L594 302.395L535.895 268.851ZM595.139 303.053L653.294 269.48L711.399 303.024L653.244 336.597L595.139 303.053ZM654.384 337.254L712.538 303.682L770.643 337.226L712.488 370.798L654.384 337.254ZM121.135 97.8721L179.29 64.2994L237.395 97.8434L179.24 131.416L121.135 97.8721ZM180.379 132.074L238.534 98.5011L296.639 132.045L238.484 165.618L180.379 132.074ZM239.624 166.275L297.778 132.703L355.883 166.247L297.728 199.819L239.624 166.275ZM298.868 200.477L357.022 166.904L415.127 200.448L356.973 234.021L298.868 200.477ZM358.112 234.679L416.267 201.106L474.371 234.65L416.217 268.223L358.112 234.679ZM417.356 268.88L475.511 235.308L533.616 268.852L475.461 302.424L417.356 268.88ZM476.6 303.082L534.755 269.509L592.86 303.053L534.705 336.626L476.6 303.082ZM535.844 337.284L593.999 303.711L652.104 337.255L593.949 370.828L535.844 337.284ZM595.089 371.485L653.243 337.913L711.348 371.457L653.193 405.029L595.089 371.485ZM61.8403 132.103L119.995 98.5304L178.1 132.074L119.945 165.647L61.8403 132.103ZM121.084 166.305L179.239 132.732L237.344 166.276L179.189 199.849L121.084 166.305ZM180.329 200.506L238.483 166.934L296.588 200.478L238.433 234.05L180.329 200.506ZM239.573 234.708L297.727 201.135L355.832 234.679L297.678 268.252L239.573 234.708ZM298.817 268.91L356.972 235.337L415.077 268.881L356.922 302.454L298.817 268.91ZM358.061 303.111L416.216 269.539L474.321 303.083L416.166 336.655L358.061 303.111ZM417.305 337.313L475.46 303.74L533.565 337.284L475.41 370.857L417.305 337.313ZM476.549 371.515L534.704 337.942L592.809 371.486L534.654 405.059L476.549 371.515ZM535.794 405.716L593.948 372.144L652.053 405.688L593.899 439.26L535.794 405.716ZM2.54533 166.334L60.7 132.761L118.805 166.305L60.6502 199.878L2.54533 166.334ZM61.7895 200.536L119.944 166.963L178.049 200.507L119.894 234.08L61.7895 200.536ZM121.034 234.737L179.188 201.165L237.293 234.709L179.139 268.281L121.034 234.737ZM180.278 268.939L238.433 235.366L296.537 268.91L238.383 302.483L180.278 268.939ZM239.522 303.141L297.677 269.568L355.782 303.112L297.627 336.685L239.522 303.141ZM298.766 337.342L356.921 303.77L415.026 337.314L356.871 370.886L298.766 337.342ZM358.01 371.544L416.165 337.971L474.27 371.515L416.115 405.088L358.01 371.544ZM417.255 405.746L475.409 372.173L533.514 405.717L475.359 439.29L417.255 405.746ZM476.499 439.947L534.653 406.375L592.758 439.919L534.604 473.491L476.499 439.947ZM-56.7496 200.565L1.40505 166.992L59.5099 200.536L1.35523 234.109L-56.7496 200.565ZM2.49453 234.767L60.6492 201.194L118.754 234.738L60.5994 268.311L2.49453 234.767ZM61.7387 268.968L119.893 235.396L177.998 268.94L119.844 302.512L61.7387 268.968ZM120.983 303.17L179.138 269.597L237.242 303.141L179.088 336.714L120.983 303.17ZM180.227 337.372L238.382 303.799L296.487 337.343L238.332 370.916L180.227 337.372ZM239.471 371.573L297.626 338.001L355.731 371.545L297.576 405.117L239.471 371.573ZM298.715 405.775L356.87 372.202L414.975 405.746L356.82 439.319L298.715 405.775ZM357.96 439.977L416.114 406.404L474.219 439.948L416.064 473.521L357.96 439.977ZM417.204 474.178L475.358 440.606L533.463 474.15L475.309 507.722L417.204 474.178ZM-116.045 234.796L-57.8899 201.223L0.214951 234.767L-57.9397 268.34L-116.045 234.796ZM-56.8004 268.998L1.35426 235.425L59.4591 268.969L1.30445 302.542L-56.8004 268.998ZM2.44375 303.199L60.5984 269.627L118.703 303.171L60.5486 336.743L2.44375 303.199ZM61.6879 337.401L119.843 303.828L177.947 337.372L119.793 370.945L61.6879 337.401ZM120.932 371.603L179.087 338.03L237.192 371.574L179.037 405.147L120.932 371.603ZM180.176 405.804L238.331 372.232L296.436 405.776L238.281 439.348L180.176 405.804ZM239.42 440.006L297.575 406.433L355.68 439.977L297.525 473.55L239.42 440.006ZM298.665 474.208L356.819 440.635L414.924 474.179L356.769 507.752L298.665 474.208ZM357.909 508.409L416.063 474.837L474.168 508.381L416.014 541.953L357.909 508.409ZM-175.34 269.027L-117.185 235.454L-59.08 268.998L-117.235 302.571L-175.34 269.027ZM-116.095 303.229L-57.9407 269.656L0.16416 303.2L-57.9905 336.773L-116.095 303.229ZM-56.8512 337.43L1.30346 303.858L59.4083 337.402L1.25365 370.974L-56.8512 337.43ZM2.39296 371.632L60.5476 338.059L118.652 371.603L60.4978 405.176L2.39296 371.632ZM61.6371 405.834L119.792 372.261L177.897 405.805L119.742 439.378L61.6371 405.834ZM120.881 440.035L179.036 406.463L237.141 440.007L178.986 473.579L120.881 440.035ZM180.125 474.237L238.28 440.664L296.385 474.208L238.23 507.781L180.125 474.237ZM239.37 508.439L297.524 474.866L355.629 508.41L297.475 541.983L239.37 508.439ZM298.614 542.64L356.768 509.068L414.873 542.612L356.719 576.184L298.614 542.64Z" fill="url(#paint1_radial)"/>
<path d="M-0.975082 303.199L1.30548 301.883L3.58411 303.198L1.30353 304.515L-0.975082 303.199ZM-117.185 236.111L-114.904 234.795L-117.183 233.479L-119.463 234.796L-117.185 236.111ZM60.5731 304.5L62.8537 303.183L60.575 301.868L58.2945 303.184L60.5731 304.5ZM-57.9406 270.313L-55.66 268.996L-57.9387 267.681L-60.2192 268.997L-57.9406 270.313ZM1.32893 270.298L3.60951 268.982L1.33089 267.666L-0.949677 268.983L1.32893 270.298ZM-117.21 270.328L-114.93 269.011L-117.208 267.696L-119.489 269.012L-117.21 270.328ZM-57.9914 338.746L-55.7108 337.429L-57.9895 336.114L-60.27 337.43L-57.9914 338.746ZM1.27812 338.731L3.5587 337.414L1.28008 336.099L-1.00049 337.415L1.27812 338.731ZM-117.234 301.912L-119.514 303.228L-117.236 304.544L-114.955 303.227L-117.234 301.912ZM-57.966 304.529L-55.6854 303.213L-57.9641 301.897L-60.2446 303.214L-57.966 304.529ZM1.37975 201.866L3.66032 200.549L1.3817 199.234L-0.898865 200.55L1.37975 201.866ZM-57.9152 236.097L-55.6346 234.78L-57.9133 233.465L-60.1938 234.781L-57.9152 236.097ZM60.6239 236.067L62.9045 234.751L60.6259 233.435L58.3453 234.752L60.6239 236.067ZM119.868 270.269L122.149 268.952L119.87 267.637L117.589 268.953L119.868 270.269ZM60.5985 270.284L62.8791 268.967L60.6004 267.652L58.3199 268.968L60.5985 270.284ZM1.35434 236.082L3.63492 234.765L1.35629 233.45L-0.924271 234.767L1.35434 236.082ZM-57.8898 201.88L-55.6092 200.564L-57.8878 199.248L-60.1684 200.565L-57.8898 201.88ZM-181.035 265.737L-182.176 266.396L-177.619 269.027L-182.18 271.66L-181.04 272.317L-176.479 269.684L-171.922 272.315L-170.782 271.657L-175.339 269.026L-170.778 266.393L-171.917 265.735L-176.478 268.368L-181.035 265.737ZM179.188 201.822L181.469 200.505L179.19 199.19L176.91 200.506L179.188 201.822ZM60.7001 133.418L62.9807 132.102L60.702 130.786L58.4215 132.103L60.7001 133.418ZM238.458 201.807L240.739 200.49L238.46 199.175L236.179 200.492L238.458 201.807ZM119.944 167.62L122.225 166.303L119.946 164.988L117.666 166.305L119.944 167.62ZM179.214 167.605L181.494 166.289L179.216 164.973L176.935 166.29L179.214 167.605ZM60.6747 167.635L62.9553 166.318L60.6767 165.003L58.3961 166.319L60.6747 167.635ZM119.893 236.053L122.174 234.736L119.895 233.421L117.615 234.737L119.893 236.053ZM179.163 236.038L181.444 234.721L179.165 233.406L176.884 234.723L179.163 236.038ZM60.6513 199.219L58.3707 200.536L60.6493 201.851L62.9299 200.534L60.6513 199.219ZM119.919 201.836L122.199 200.52L119.921 199.204L117.64 200.521L119.919 201.836ZM179.265 99.1727L181.545 97.8561L179.267 96.5407L176.986 97.8572L179.265 99.1727ZM119.97 133.404L122.25 132.087L119.972 130.772L117.691 132.088L119.97 133.404ZM238.509 133.374L240.789 132.058L238.511 130.742L236.23 132.059L238.509 133.374ZM297.753 167.576L300.033 166.259L297.755 164.944L295.474 166.261L297.753 167.576ZM238.483 167.591L240.764 166.274L238.485 164.959L236.205 166.275L238.483 167.591ZM179.239 133.389L181.52 132.072L179.241 130.757L176.961 132.074L179.239 133.389ZM119.995 99.1873L122.276 97.8708L119.997 96.5553L117.716 97.8719L119.995 99.1873ZM-3.15063 163.044L-4.29091 163.703L0.266327 166.334L-4.29483 168.967L-3.15552 169.624L1.40564 166.991L5.96288 169.622L7.10316 168.964L2.54593 166.333L7.10707 163.7L5.96776 163.042L1.40662 165.675L-3.15063 163.044ZM357.073 99.1287L359.354 97.8121L357.075 96.4967L354.795 97.8132L357.073 99.1287ZM238.585 30.7254L240.866 29.4088L238.587 28.0934L236.306 29.4099L238.585 30.7254ZM416.343 99.114L418.623 97.7975L416.345 96.482L414.064 97.7986L416.343 99.114ZM297.829 64.927L300.11 63.6105L297.831 62.295L295.55 63.6116L297.829 64.927ZM357.099 64.9124L359.379 63.5958L357.101 62.2803L354.82 63.5969L357.099 64.9124ZM238.56 64.9417L240.84 63.6251L238.562 62.3097L236.281 63.6263L238.56 64.9417ZM297.778 133.36L300.059 132.043L297.78 130.728L295.5 132.044L297.778 133.36ZM357.048 133.345L359.328 132.028L357.05 130.713L354.769 132.03L357.048 133.345ZM238.536 96.526L236.256 97.8426L238.534 99.158L240.815 97.8414L238.536 96.526ZM297.804 99.1434L300.084 97.8268L297.806 96.5113L295.525 97.8279L297.804 99.1434ZM357.149 -3.52026L359.43 -4.83684L357.151 -6.15229L354.871 -4.83571L357.149 -3.52026ZM475.663 30.6667L477.944 29.3502L475.665 28.0347L473.385 29.3513L475.663 30.6667ZM416.421 -6.16695L414.14 -4.85038L416.419 -3.53493L418.7 -4.85151L416.421 -6.16695ZM297.854 30.7107L300.135 29.3941L297.856 28.0787L295.576 29.3953L297.854 30.7107ZM416.394 30.6814L418.674 29.3648L416.396 28.0494L414.115 29.3659L416.394 30.6814ZM475.638 64.883L477.918 63.5665L475.64 62.251L473.359 63.5676L475.638 64.883ZM416.368 64.8977L418.649 63.5811L416.37 62.2657L414.09 63.5823L416.368 64.8977ZM357.124 30.6961L359.405 29.3795L357.126 28.064L354.845 29.3806L357.124 30.6961ZM297.88 -3.5056L300.16 -4.82217L297.882 -6.13762L295.601 -4.82104L297.88 -3.5056ZM357.176 -39.7106L352.619 -42.3415L351.479 -41.6832L356.036 -39.0523L351.475 -36.4192L352.614 -35.7614L357.175 -38.3946L361.733 -35.7637L362.873 -36.422L358.316 -39.0529L362.877 -41.686L361.737 -42.3438L357.176 -39.7106ZM174.734 60.3514L173.594 61.0097L178.151 63.6406L173.59 66.2738L174.729 66.9315L179.29 64.2984L183.848 66.9293L184.988 66.271L180.431 63.6401L184.992 61.0069L183.853 60.3492L179.291 62.9824L174.734 60.3514ZM179.036 407.12L181.317 405.803L179.038 404.488L176.757 405.804L179.036 407.12ZM60.5477 338.716L62.8282 337.4L60.5496 336.084L58.2691 337.401L60.5477 338.716ZM238.306 407.105L240.586 405.788L238.307 404.473L236.027 405.789L238.306 407.105ZM119.792 372.918L122.072 371.601L119.794 370.286L117.513 371.602L119.792 372.918ZM179.061 372.903L181.342 371.587L179.063 370.271L176.783 371.588L179.061 372.903ZM60.5223 372.933L62.8028 371.616L60.5242 370.301L58.2437 371.617L60.5223 372.933ZM119.741 441.351L122.022 440.034L119.743 438.719L117.462 440.035L119.741 441.351ZM179.011 441.336L181.291 440.019L179.013 438.704L176.732 440.02L179.011 441.336ZM60.4988 404.517L58.2183 405.833L60.4969 407.149L62.7775 405.832L60.4988 404.517ZM119.766 407.134L122.047 405.818L119.768 404.502L117.488 405.819L119.766 407.134ZM179.112 304.471L181.393 303.154L179.114 301.839L176.834 303.155L179.112 304.471ZM119.817 338.702L122.098 337.385L119.819 336.07L117.539 337.386L119.817 338.702ZM238.356 338.672L240.637 337.356L238.358 336.04L236.078 337.357L238.356 338.672ZM297.6 372.874L299.881 371.557L297.602 370.242L295.322 371.558L297.6 372.874ZM238.331 372.889L240.612 371.572L238.333 370.257L236.052 371.573L238.331 372.889ZM179.087 338.687L181.367 337.37L179.089 336.055L176.808 337.371L179.087 338.687ZM119.843 304.485L122.123 303.169L119.845 301.853L117.564 303.17L119.843 304.485ZM-3.30304 368.342L-4.44334 369.001L0.113907 371.631L-4.44725 374.265L-3.30792 374.922L1.25322 372.289L5.81046 374.92L6.95076 374.262L2.39349 371.631L6.95467 368.998L5.81534 368.34L1.2542 370.973L-3.30304 368.342ZM356.921 304.427L359.201 303.11L356.923 301.795L354.642 303.111L356.921 304.427ZM238.433 236.023L240.713 234.707L238.434 233.391L236.154 234.708L238.433 236.023ZM416.19 304.412L418.471 303.095L416.192 301.78L413.912 303.096L416.19 304.412ZM297.677 270.225L299.957 268.908L297.679 267.593L295.398 268.909L297.677 270.225ZM356.946 270.21L359.227 268.894L356.948 267.578L354.668 268.895L356.946 270.21ZM238.407 270.24L240.688 268.923L238.409 267.608L236.129 268.924L238.407 270.24ZM297.626 338.658L299.906 337.341L297.628 336.026L295.347 337.342L297.626 338.658ZM356.895 338.643L359.176 337.326L356.897 336.011L354.617 337.327L356.895 338.643ZM238.384 301.824L236.103 303.14L238.382 304.456L240.662 303.139L238.384 301.824ZM297.651 304.441L299.932 303.125L297.653 301.809L295.373 303.126L297.651 304.441ZM356.997 201.778L359.278 200.461L356.999 199.146L354.718 200.462L356.997 201.778ZM297.702 236.009L299.983 234.692L297.704 233.377L295.423 234.693L297.702 236.009ZM416.241 235.979L418.522 234.663L416.243 233.347L413.963 234.664L416.241 235.979ZM475.485 270.181L477.766 268.864L475.487 267.549L473.207 268.866L475.485 270.181ZM416.216 270.196L418.496 268.879L416.218 267.564L413.937 268.88L416.216 270.196ZM356.972 235.994L359.252 234.677L356.974 233.362L354.693 234.678L356.972 235.994ZM297.727 201.792L300.008 200.476L297.729 199.16L295.449 200.477L297.727 201.792ZM174.582 265.649L173.442 266.308L177.999 268.939L173.438 271.572L174.577 272.229L179.138 269.596L183.695 272.227L184.836 271.569L180.278 268.938L184.84 266.305L183.7 265.647L179.139 268.28L174.582 265.649ZM534.806 201.734L537.086 200.417L534.808 199.102L532.527 200.418L534.806 201.734ZM416.317 133.33L418.598 132.014L416.319 130.698L414.039 132.015L416.317 133.33ZM594.075 201.719L596.356 200.402L594.077 199.087L591.797 200.404L594.075 201.719ZM475.562 167.532L477.842 166.215L475.563 164.9L473.283 166.217L475.562 167.532ZM534.831 167.517L537.112 166.201L534.833 164.885L532.552 166.202L534.831 167.517ZM416.292 167.547L418.573 166.23L416.294 164.915L414.013 166.231L416.292 167.547ZM475.511 235.965L477.791 234.648L475.513 233.333L473.232 234.649L475.511 235.965ZM534.78 235.95L537.061 234.633L534.782 233.318L532.502 234.635L534.78 235.95ZM416.269 199.131L413.988 200.448L416.267 201.763L418.547 200.446L416.269 199.131ZM475.536 201.748L477.817 200.432L475.538 199.116L473.258 200.433L475.536 201.748ZM534.882 99.0847L537.163 97.7681L534.884 96.4527L532.603 97.7692L534.882 99.0847ZM653.396 133.272L655.676 131.955L653.398 130.64L651.117 131.956L653.396 133.272ZM594.153 96.438L591.873 97.7546L594.151 99.07L596.432 97.7535L594.153 96.438ZM475.587 133.316L477.868 131.999L475.589 130.684L473.308 132L475.587 133.316ZM594.126 133.286L596.407 131.97L594.128 130.654L591.847 131.971L594.126 133.286ZM653.37 167.488L655.651 166.171L653.372 164.856L651.092 166.173L653.37 167.488ZM594.101 167.503L596.381 166.186L594.103 164.871L591.822 166.187L594.101 167.503ZM534.857 133.301L537.137 131.984L534.858 130.669L532.578 131.986L534.857 133.301ZM475.612 99.0994L477.893 97.7828L475.614 96.4673L473.334 97.7839L475.612 99.0994ZM530.352 60.2635L529.211 60.9217L533.768 63.5527L529.207 66.1858L530.347 66.8435L534.908 64.2104L539.465 66.8413L540.605 66.183L536.048 63.5521L540.609 60.9189L539.47 60.2612L534.909 62.8944L530.352 60.2635ZM352.467 162.956L351.326 163.615L355.884 166.246L351.323 168.879L352.462 169.536L357.023 166.903L361.58 169.534L362.72 168.876L358.163 166.245L362.724 163.612L361.585 162.954L357.024 165.587L352.467 162.956ZM416.013 543.926L418.293 542.61L416.015 541.294L413.734 542.611L416.013 543.926ZM356.768 509.724L359.049 508.408L356.77 507.092L354.49 508.409L356.768 509.724ZM238.28 441.321L240.561 440.005L238.282 438.689L236.001 440.006L238.28 441.321ZM416.038 509.71L418.319 508.393L416.04 507.078L413.759 508.394L416.038 509.71ZM297.524 475.523L299.805 474.206L297.526 472.891L295.246 474.207L297.524 475.523ZM356.794 475.508L359.074 474.192L356.796 472.876L354.515 474.193L356.794 475.508ZM238.255 475.538L240.535 474.221L238.257 472.905L235.976 474.222L238.255 475.538ZM297.473 543.955L299.754 542.639L297.475 541.323L295.195 542.64L297.473 543.955ZM356.743 543.941L359.024 542.624L356.745 541.309L354.464 542.625L356.743 543.941ZM238.231 507.122L235.951 508.438L238.229 509.754L240.51 508.437L238.231 507.122ZM297.499 509.739L299.779 508.423L297.501 507.107L295.22 508.424L297.499 509.739ZM356.845 407.076L359.125 405.759L356.847 404.444L354.566 405.76L356.845 407.076ZM297.55 441.307L299.83 439.99L297.552 438.674L295.271 439.991L297.55 441.307ZM416.089 441.277L418.369 439.961L416.091 438.645L413.81 439.962L416.089 441.277ZM475.333 475.479L477.614 474.162L475.335 472.847L473.054 474.163L475.333 475.479ZM475.308 509.695L477.588 508.379L475.31 507.063L473.029 508.38L475.308 509.695ZM416.063 475.494L418.344 474.177L416.065 472.862L413.785 474.178L416.063 475.494ZM356.819 441.292L359.1 439.975L356.821 438.66L354.541 439.976L356.819 441.292ZM297.575 407.09L299.856 405.774L297.577 404.458L295.296 405.775L297.575 407.09ZM174.429 470.947L173.289 471.606L177.846 474.236L173.285 476.87L174.424 477.527L178.986 474.894L183.543 477.525L184.683 476.867L180.126 474.236L184.687 471.603L183.548 470.945L178.987 473.578L174.429 470.947ZM352.162 573.552L351.022 574.211L355.579 576.841L351.018 579.475L352.157 580.132L356.718 577.499L361.275 580.13L362.416 579.472L357.858 576.841L362.42 574.208L361.28 573.55L356.719 576.183L352.162 573.552ZM593.897 441.233L596.178 439.917L593.899 438.601L591.619 439.918L593.897 441.233ZM534.653 407.032L536.934 405.715L534.655 404.4L532.375 405.716L534.653 407.032ZM416.165 338.628L418.446 337.312L416.167 335.996L413.886 337.313L416.165 338.628ZM593.923 407.017L596.203 405.7L593.925 404.385L591.644 405.701L593.923 407.017ZM475.409 372.83L477.69 371.513L475.411 370.198L473.13 371.514L475.409 372.83ZM534.679 372.815L536.959 371.499L534.681 370.183L532.4 371.5L534.679 372.815ZM416.14 372.845L418.42 371.528L416.142 370.213L413.861 371.529L416.14 372.845ZM475.358 441.263L477.639 439.946L475.36 438.63L473.08 439.947L475.358 441.263ZM534.628 441.248L536.908 439.931L534.63 438.616L532.349 439.932L534.628 441.248ZM416.116 404.429L413.836 405.745L416.114 407.061L418.395 405.744L416.116 404.429ZM475.384 407.046L477.664 405.73L475.386 404.414L473.105 405.731L475.384 407.046ZM534.729 304.383L537.01 303.066L534.731 301.751L532.451 303.067L534.729 304.383ZM475.435 338.614L477.715 337.297L475.437 335.982L473.156 337.298L475.435 338.614ZM593.974 338.584L596.254 337.268L593.976 335.952L591.695 337.269L593.974 338.584ZM653.218 372.786L655.498 371.469L653.22 370.154L650.939 371.47L653.218 372.786ZM653.192 407.002L655.473 405.686L653.194 404.37L650.914 405.687L653.192 407.002ZM593.948 372.801L596.229 371.484L593.95 370.169L591.67 371.485L593.948 372.801ZM534.704 338.599L536.985 337.282L534.706 335.967L532.425 337.283L534.704 338.599ZM475.46 304.397L477.741 303.081L475.462 301.765L473.181 303.082L475.46 304.397ZM352.314 368.254L351.174 368.913L355.731 371.543L351.17 374.177L352.309 374.834L356.871 372.201L361.428 374.832L362.568 374.174L358.011 371.543L362.572 368.91L361.433 368.252L356.871 370.885L352.314 368.254ZM530.047 470.859L528.906 471.518L533.464 474.148L528.903 476.782L530.042 477.439L534.603 474.806L539.16 477.437L540.301 476.779L535.743 474.148L540.304 471.515L539.165 470.857L534.604 473.49L530.047 470.859ZM771.782 338.54L774.063 337.224L771.784 335.908L769.504 337.225L771.782 338.54ZM712.538 304.339L714.819 303.022L712.54 301.707L710.26 303.023L712.538 304.339ZM594.05 235.935L596.33 234.619L594.052 233.303L591.771 234.62L594.05 235.935ZM771.808 304.324L774.088 303.007L771.81 301.692L769.529 303.008L771.808 304.324ZM653.294 270.137L655.575 268.82L653.296 267.505L651.015 268.822L653.294 270.137ZM712.564 270.122L714.844 268.806L712.565 267.49L710.285 268.807L712.564 270.122ZM594.024 270.152L596.305 268.835L594.026 267.52L591.746 268.836L594.024 270.152ZM653.243 338.57L655.524 337.253L653.245 335.938L650.965 337.254L653.243 338.57ZM712.513 338.555L714.793 337.238L712.515 335.923L710.234 337.239L712.513 338.555ZM594.001 301.736L591.72 303.052L593.999 304.368L596.28 303.051L594.001 301.736ZM653.269 304.353L655.549 303.037L653.271 301.721L650.99 303.038L653.269 304.353ZM712.614 201.69L714.895 200.373L712.616 199.058L710.336 200.374L712.614 201.69ZM831.128 235.877L833.409 234.56L831.13 233.245L828.849 234.561L831.128 235.877ZM771.886 199.043L769.605 200.36L771.884 201.675L774.164 200.358L771.886 199.043ZM653.319 235.921L655.6 234.604L653.321 233.289L651.041 234.605L653.319 235.921ZM771.858 235.891L774.139 234.575L771.86 233.259L769.58 234.576L771.858 235.891ZM831.103 270.093L833.383 268.776L831.105 267.461L828.824 268.777L831.103 270.093ZM831.077 304.309L833.358 302.993L831.079 301.677L828.799 302.994L831.077 304.309ZM771.833 270.108L774.114 268.791L771.835 267.476L769.555 268.792L771.833 270.108ZM712.589 235.906L714.87 234.589L712.591 233.274L710.31 234.591L712.589 235.906ZM653.345 201.704L655.625 200.388L653.347 199.072L651.066 200.389L653.345 201.704ZM885.816 265.473L884.676 266.132L889.233 268.763L884.672 271.396L885.812 272.053L890.373 269.42L894.93 272.051L896.07 271.393L891.513 268.762L896.074 266.129L894.935 265.471L890.374 268.104L885.816 265.473ZM708.084 162.868L706.944 163.527L711.501 166.158L706.94 168.791L708.079 169.448L712.64 166.815L717.197 169.446L718.338 168.788L713.781 166.157L718.342 163.524L717.202 162.866L712.641 165.499L708.084 162.868ZM530.199 265.561L529.059 266.22L533.616 268.851L529.055 271.484L530.194 272.141L534.755 269.508L539.313 272.139L540.453 271.481L535.896 268.85L540.457 266.217L539.318 265.559L534.756 268.192L530.199 265.561ZM707.932 368.166L706.791 368.825L711.349 371.456L706.787 374.089L707.927 374.746L712.488 372.113L717.045 374.744L718.185 374.086L713.628 371.455L718.189 368.822L717.05 368.164L712.489 370.797L707.932 368.166Z" fill="url(#paint2_radial)"/>
</g>
<path d="M531.638 302.693L355.361 201.119L446.285 150" stroke="#39D98A" stroke-width="2" stroke-linecap="round" stroke-linejoin="round" stroke-dasharray="1 4"/>
<path d="M516.947 35L90.2852 277.853L186.785 333.458" stroke="#C7C9D9" stroke-width="2" stroke-linecap="round" stroke-linejoin="round" stroke-dasharray="1 4"/>
<path fill-rule="evenodd" clip-rule="evenodd" d="M74.7213 186.495C72.8948 185.436 71.8695 184.001 71.8695 182.506L71.8695 177.404L459.207 144.028V147.292C459.207 148.782 458.188 150.212 456.373 151.271L242.715 275.902C238.887 278.135 232.641 278.14 228.804 275.913L74.7213 186.495Z" fill="url(#paint3_linear)"/>
<path fill-rule="evenodd" clip-rule="evenodd" d="M75.2135 181.572C71.3871 179.363 71.3871 175.781 75.2135 173.572L289.274 49.9946C293.101 47.7856 299.305 47.7856 303.131 49.9946L456.489 138.528C460.315 140.737 460.315 144.318 456.489 146.527L242.428 270.105C238.601 272.314 232.397 272.314 228.571 270.105L75.2135 181.572Z" fill="#28293D"/>
<rect width="52.1848" height="3.7724" rx="1.5" transform="matrix(0.866044 -0.499967 0.866044 0.499967 192.285 231.384)" fill="#555770"/>
<rect width="54.6997" height="3.7724" rx="1.5" transform="matrix(0.866044 -0.499967 0.866044 0.499967 205.354 238.928)" fill="#555770"/>
<rect width="23.2631" height="3.7724" rx="1.5" transform="matrix(0.866044 -0.499967 0.866044 0.499967 275.596 190.833)" fill="#555770"/>
<rect width="31.4366" height="3.7724" rx="1.5" transform="matrix(0.866044 -0.499967 0.866044 0.499967 198.82 235.156)" fill="#555770"/>
<rect width="47.1549" height="3.7724" rx="1.5" transform="matrix(0.866044 -0.499967 0.866044 0.499967 230.4 216.924)" fill="#555770"/>
<rect width="31.4366" height="3.7724" rx="1.5" transform="matrix(0.866044 -0.499967 0.866044 0.499967 241.836 202.778)" fill="#555770"/>
<rect width="37.0952" height="3.7724" rx="1.5" transform="matrix(0.866044 -0.499967 0.866044 0.499967 273.418 184.547)" fill="#555770"/>
<rect width="52.1848" height="3.7724" rx="1.5" transform="matrix(0.866044 -0.499967 0.866044 0.499967 211.889 242.7)" fill="#555770"/>
<rect width="54.6997" height="3.7724" rx="1.5" transform="matrix(0.866044 -0.499967 0.866044 0.499967 224.957 250.244)" fill="#555770"/>
<rect width="8.17352" height="3.7724" rx="1.5" transform="matrix(0.866044 -0.499967 0.866044 0.499967 295.199 202.15)" fill="#555770"/>
<rect width="31.4366" height="3.7724" rx="1.5" transform="matrix(0.866044 -0.499967 0.866044 0.499967 218.422 246.472)" fill="#555770"/>
<rect width="47.1549" height="3.7724" rx="1.5" transform="matrix(0.866044 -0.499967 0.866044 0.499967 250.004 228.24)" fill="#555770"/>
<rect width="11.3172" height="3.7724" rx="1.5" transform="matrix(0.866044 -0.499967 0.866044 0.499967 261.438 214.094)" fill="#555770"/>
<rect width="6.28733" height="3.7724" rx="1.5" transform="matrix(0.866044 -0.499967 0.866044 0.499967 275.596 205.922)" fill="#555770"/>
<path fill-rule="evenodd" clip-rule="evenodd" d="M90.3862 177.919C91.7394 177.138 91.7394 175.872 90.3862 175.09C89.0329 174.309 86.8388 174.309 85.4855 175.09C84.1322 175.872 84.1322 177.138 85.4855 177.919C86.8388 178.701 89.0329 178.701 90.3862 177.919Z" fill="#FF5C5C"/>
<path fill-rule="evenodd" clip-rule="evenodd" d="M98.5541 173.204C99.9074 172.423 99.9074 171.156 98.5541 170.375C97.2008 169.594 95.0067 169.594 93.6535 170.375C92.3002 171.156 92.3002 172.423 93.6535 173.204C95.0067 173.986 97.2008 173.986 98.5541 173.204Z" fill="#FDDD48"/>
<path fill-rule="evenodd" clip-rule="evenodd" d="M106.722 168.489C108.075 167.708 108.075 166.441 106.722 165.66C105.369 164.879 103.175 164.879 101.821 165.66C100.468 166.441 100.468 167.708 101.821 168.489C103.175 169.271 105.369 169.271 106.722 168.489Z" fill="#39D98A"/>
<rect y="0.499967" width="81.3637" height="81.3637" rx="17.5" transform="matrix(0.866044 0.499967 -0.866044 0.499967 173.54 141.623)" stroke="#57EBA1"/>
<g filter="url(#filter0_dd)">
<rect width="84.0609" height="84.0609" rx="18" transform="matrix(0.866044 0.499968 -0.866044 0.499968 511.086 2.67407)" fill="url(#paint4_linear)"/>
<rect width="84.0609" height="84.0609" rx="18" transform="matrix(0.866044 0.499968 -0.866044 0.499968 511.086 0)" fill="white"/>
<g clip-path="url(#clip0)">
<path d="M488.677 28.9761C475.909 36.3473 475.901 48.2951 488.661 55.6618C501.422 63.0283 522.118 63.0242 534.887 55.653C547.655 48.2817 547.662 36.3338 534.902 28.9672C522.141 21.6005 501.445 21.6051 488.677 28.9761ZM531.92 53.9403C528.287 56.0375 522.917 56.3378 519.926 54.6112L533.082 47.016C536.073 48.7423 535.553 51.843 531.92 53.9403ZM535.576 43.5057L513.844 56.0513L509.906 53.7779L531.638 41.2321L535.576 43.5054L535.576 43.5057ZM529.533 40.1072L507.941 52.572C507.787 52.5657 507.632 52.561 507.478 52.5525C502.555 52.2784 500.622 51.7673 498.677 51.232C498.621 51.2097 501.926 49.9938 504.277 49.1351C504.277 49.1351 505.492 48.6969 507.199 48.0154C504.189 47.8782 501.302 47.1618 499.193 45.9439C494.561 43.2701 494.068 38.8816 489.515 37.7333C490.864 37.0714 494.73 37.7618 498.778 39.9942C498.272 38.1704 495.481 35.918 493.429 34.7335C491.305 33.5071 490.238 31.2739 491.555 30.4164C492.363 32.3249 495.699 32.4352 501.471 34.1537C503.639 34.7996 506.337 36.4347 508.495 37.2134C504.987 35.0332 500.3 31.6034 500.777 29.2093C502.068 31.1321 506.13 32.1252 508.321 32.4653C511.855 33.014 514.338 33.5426 517.551 35.3977C519.706 36.6415 520.938 38.2721 521.181 39.9627C522.422 38.9161 523.218 38.1584 523.218 38.1584L527.209 34.738C527.209 34.7376 529.45 36.8629 529.533 40.1072Z" fill="#E6522C"/>
</g>
</g>
<g filter="url(#filter1_dd)">
<rect width="84.0609" height="84.0609" rx="18" transform="matrix(0.866045 0.499966 -0.866045 0.499966 187.086 296.674)" fill="url(#paint5_linear)"/>
<rect width="84.0609" height="84.0609" rx="18" transform="matrix(0.866044 0.499968 -0.866044 0.499968 187.086 294)" fill="white"/>
<path d="M205.198 333.431L185.54 330.329L212.764 346.045L223.794 327.594L163.337 319.307L177.691 354.209L209.652 347.841L182.429 332.125L187.803 343.473L194.874 342.167L198.409 344.208L184.621 347.107L176.135 326.696L211.491 331.594L206.47 339.555L202.935 337.514L205.198 333.431Z" fill="#FE7139"/>
</g>
<g filter="url(#filter2_dd)">
<path d="M111.344 144.808L238.446 143.499L238.446 151.15C238.446 154.525 236.124 157.763 231.989 160.149L190.484 184.11C181.874 189.081 167.916 189.081 159.306 184.11L117.801 160.149C113.666 157.763 111.344 154.525 111.344 151.15L111.344 144.808Z" fill="url(#paint6_linear)"/>
<rect width="84.0609" height="84.0609" rx="18" transform="matrix(0.866044 0.499968 -0.866044 0.499968 174.895 101.999)" fill="url(#paint7_linear)"/>
<path fill-rule="evenodd" clip-rule="evenodd" d="M159.274 143.753C158.057 143.749 157.078 144.314 157.083 145.017L157.143 152.205C157.149 152.908 158.137 153.478 159.354 153.482L171.806 153.516C172.413 153.518 172.963 153.377 173.359 153.148C173.756 152.919 173.999 152.602 173.996 152.252C173.99 151.549 173.002 150.978 171.785 150.975L161.534 150.947L161.485 145.029C161.479 144.326 160.491 143.756 159.274 143.753Z" fill="#C7C9D9"/>
<path fill-rule="evenodd" clip-rule="evenodd" d="M174.763 134.812C173.546 134.808 172.567 135.374 172.573 136.076C172.579 136.779 173.567 137.35 174.784 137.353L185.035 137.381L185.084 143.299C185.09 144.002 186.078 144.572 187.295 144.576C187.902 144.577 188.452 144.437 188.849 144.208C189.245 143.979 189.488 143.662 189.486 143.311L189.426 136.123C189.42 135.42 188.432 134.85 187.215 134.846L174.763 134.812Z" fill="#C7C9D9"/>
<path fill-rule="evenodd" clip-rule="evenodd" d="M164.357 134.943C163.308 135.276 162.921 136.052 163.517 136.668L179.215 152.884C179.81 153.499 181.152 153.723 182.212 153.386C182.395 153.327 182.558 153.256 182.7 153.174C183.373 152.786 183.545 152.168 183.052 151.66L167.354 135.444C166.76 134.829 165.418 134.605 164.357 134.943Z" fill="#C7C9D9"/>
</g>
<g filter="url(#filter3_dd)">
<path d="M437.344 287.809L564.446 286.5L564.446 294.151C564.446 297.526 562.124 300.764 557.989 303.15L516.484 327.111C507.874 332.082 493.916 332.082 485.306 327.111L443.801 303.15C439.666 300.764 437.344 297.526 437.344 294.151L437.344 287.809Z" fill="url(#paint8_linear)"/>
<rect width="84.0609" height="84.0609" rx="18" transform="matrix(0.866044 0.499968 -0.866044 0.499968 500.895 245)" fill="white"/>
</g>
<g opacity="0.45">
<path d="M564.285 251.644L501.037 288.539L437.537 251.644L500.786 215L564.285 251.644Z" fill="url(#paint9_linear)"/>
<path d="M564.284 251.644V281.604L501.035 318.499L501.035 288.539L564.284 251.644Z" fill="url(#paint10_linear)"/>
<path d="M501.036 288.539V318.499L437.285 281.604L437.536 251.644L501.036 288.539Z" fill="url(#paint11_linear)"/>
</g>
<g filter="url(#filter4_dd)">
<rect width="84.0609" height="84.0609" rx="18" transform="matrix(0.866044 0.499968 -0.866044 0.499968 501.086 209.674)" fill="url(#paint12_linear)"/>
<rect width="84.0609" height="84.0609" rx="18" transform="matrix(0.866044 0.499968 -0.866044 0.499968 501.086 207)" fill="white"/>
<path d="M477.079 234.86C476.643 235.096 476.642 235.494 477.066 235.739L487.424 241.719C487.843 241.961 488.519 241.962 488.967 241.738C496.096 238.182 506.883 238.359 513.655 242.268C520.426 246.177 520.733 252.404 514.572 256.52C514.185 256.779 514.187 257.169 514.606 257.411L524.582 263.17C525.005 263.414 525.694 263.414 526.104 263.162C538.881 255.317 538.624 242.974 525.337 235.303C512.049 227.632 490.667 227.483 477.079 234.86Z" fill="#39D98A"/>
<path d="M492.784 244.812C492.719 244.848 492.654 244.884 492.59 244.921C488.254 247.425 488.254 251.484 492.59 253.987C496.927 256.49 503.957 256.49 508.294 253.987C508.358 253.95 508.421 253.913 508.483 253.875L492.784 244.812Z" fill="#223C37"/>
<path d="M508.482 253.875C512.629 251.364 512.565 247.388 508.293 244.921C504.021 242.455 497.133 242.418 492.783 244.812L508.482 253.875Z" fill="#376C66"/>
</g>
<g filter="url(#filter5_dd)">
<rect width="58.8609" height="58.8609" rx="12" transform="matrix(0.866044 0.499967 -0.866044 0.499967 408.262 253.857)" fill="url(#paint13_linear)"/>
<rect width="58.8609" height="58.8609" rx="12" transform="matrix(0.866044 0.499967 -0.866044 0.499967 408.262 252)" fill="white"/>
<rect width="6.75722" height="2.76431" rx="1.38216" transform="matrix(0.866044 -0.499967 0.866044 0.499967 406.525 302.304)" fill="#3BC882"/>
<rect width="6.75722" height="2.76431" rx="1.38216" transform="matrix(0.866044 -0.499967 0.866044 0.499967 412.91 298.619)" fill="#39D98A"/>
<rect width="6.75722" height="2.76431" rx="1.38216" transform="matrix(0.866044 -0.499967 0.866044 0.499967 419.295 294.934)" fill="#23A966"/>
<rect width="6.75722" height="2.76431" rx="1.38216" transform="matrix(0.866044 -0.499967 0.866044 0.499967 425.678 291.247)" fill="#23A966"/>
<rect width="6.75722" height="2.76431" rx="1.38216" transform="matrix(0.866044 -0.499967 0.866044 0.499967 432.062 287.562)" fill="#23A966"/>
<rect width="6.75722" height="2.76431" rx="1.38216" transform="matrix(0.866044 -0.499967 0.866044 0.499967 438.447 283.877)" fill="#23A966"/>
<rect width="6.75722" height="2.76431" rx="1.38216" transform="matrix(0.866044 -0.499967 0.866044 0.499967 403.6 300.619)" fill="#39D98A"/>
<rect width="6.75722" height="2.76431" rx="1.38216" transform="matrix(0.866044 -0.499967 0.866044 0.499967 409.984 296.935)" fill="#57EBA1"/>
<rect width="6.75722" height="2.76431" rx="1.38216" transform="matrix(0.866044 -0.499967 0.866044 0.499967 416.369 293.247)" fill="#3BC882"/>
<rect width="6.75722" height="2.76431" rx="1.38216" transform="matrix(0.866044 -0.499967 0.866044 0.499967 422.754 289.562)" fill="#23A966"/>
<rect width="6.75722" height="2.76431" rx="1.38216" transform="matrix(0.866044 -0.499967 0.866044 0.499967 429.137 285.877)" fill="#23A966"/>
<rect width="6.75722" height="2.76431" rx="1.38216" transform="matrix(0.866044 -0.499967 0.866044 0.499967 435.521 282.195)" fill="#23A966"/>
<rect width="6.75722" height="2.76431" rx="1.38216" transform="matrix(0.866044 -0.499967 0.866044 0.499967 400.676 298.926)" fill="#39D98A"/>
<rect width="6.75722" height="2.76431" rx="1.38216" transform="matrix(0.866044 -0.499967 0.866044 0.499967 413.441 291.556)" fill="#39D98A"/>
<rect width="6.75722" height="2.76431" rx="1.38216" transform="matrix(0.866044 -0.499967 0.866044 0.499967 419.824 287.871)" fill="#3BC882"/>
<rect width="6.75722" height="2.76431" rx="1.38216" transform="matrix(0.866044 -0.499967 0.866044 0.499967 426.209 284.183)" fill="#3BC882"/>
<rect width="6.75722" height="2.76431" rx="1.38216" transform="matrix(0.866044 -0.499967 0.866044 0.499967 432.594 280.499)" fill="#3BC882"/>
<rect width="6.75722" height="2.76431" rx="1.38216" transform="matrix(0.866044 -0.499967 0.866044 0.499967 397.748 297.24)" fill="#57EBA1"/>
<rect width="6.75722" height="2.76431" rx="1.38216" transform="matrix(0.866044 -0.499967 0.866044 0.499967 404.133 293.555)" fill="#57EBA1"/>
<rect width="6.75722" height="2.76431" rx="1.38216" transform="matrix(0.866044 -0.499967 0.866044 0.499967 410.518 289.87)" fill="#57EBA1"/>
<rect width="6.75722" height="2.76431" rx="1.38216" transform="matrix(0.866044 -0.499967 0.866044 0.499967 416.9 286.182)" fill="#3BC882"/>
<rect width="6.75722" height="2.76431" rx="1.38216" transform="matrix(0.866044 -0.499967 0.866044 0.499967 423.285 282.497)" fill="#3BC882"/>
<rect width="6.75722" height="2.76431" rx="1.38216" transform="matrix(0.866044 -0.499967 0.866044 0.499967 429.67 278.812)" fill="#3BC882"/>
<rect width="6.75722" height="2.76431" rx="1.38216" transform="matrix(0.866044 -0.499967 0.866044 0.499967 394.822 295.55)" fill="#E3FFF1"/>
<rect width="6.75722" height="2.76431" rx="1.38216" transform="matrix(0.866044 -0.499967 0.866044 0.499967 401.205 291.868)" fill="#E3FFF1"/>
<rect width="6.75722" height="2.76431" rx="1.38216" transform="matrix(0.866044 -0.499967 0.866044 0.499967 407.59 288.18)" fill="#57EBA1"/>
<rect width="6.75722" height="2.76431" rx="1.38216" transform="matrix(0.866044 -0.499967 0.866044 0.499967 420.357 280.807)" fill="#39D98A"/>
<rect width="6.75722" height="2.76431" rx="1.38216" transform="matrix(0.866044 -0.499967 0.866044 0.499967 426.742 277.122)" fill="#39D98A"/>
<rect width="6.75722" height="2.76431" rx="1.38216" transform="matrix(0.866044 -0.499967 0.866044 0.499967 391.896 293.859)" fill="#E3FFF1"/>
<rect width="6.75722" height="2.76431" rx="1.38216" transform="matrix(0.866044 -0.499967 0.866044 0.499967 404.666 286.487)" fill="#E3FFF1"/>
<rect width="6.75722" height="2.76431" rx="1.38216" transform="matrix(0.866044 -0.499967 0.866044 0.499967 411.051 282.808)" fill="#39D98A"/>
<rect width="6.75722" height="2.76431" rx="1.38216" transform="matrix(0.866044 -0.499967 0.866044 0.499967 417.434 279.12)" fill="#39D98A"/>
<rect width="6.75722" height="2.76431" rx="1.38216" transform="matrix(0.866044 -0.499967 0.866044 0.499967 423.818 275.436)" fill="#39D98A"/>
<rect width="6.75722" height="2.76431" rx="1.38216" transform="matrix(0.866044 -0.499967 0.866044 0.499967 388.971 292.166)" fill="#57EBA1"/>
<rect width="6.75722" height="2.76431" rx="1.38216" transform="matrix(0.866044 -0.499967 0.866044 0.499967 395.354 288.487)" fill="#57EBA1"/>
<rect width="6.75722" height="2.76431" rx="1.38216" transform="matrix(0.866044 -0.499967 0.866044 0.499967 408.123 281.111)" fill="#57EBA1"/>
<rect width="6.75722" height="2.76431" rx="1.38216" transform="matrix(0.866044 -0.499967 0.866044 0.499967 414.506 277.424)" fill="#57EBA1"/>
<rect width="6.75722" height="2.76431" rx="1.38216" transform="matrix(0.866044 -0.499967 0.866044 0.499967 420.891 273.739)" fill="#57EBA1"/>
<rect width="6.75722" height="2.76431" rx="1.38216" transform="matrix(0.866044 -0.499967 0.866044 0.499967 386.045 290.479)" fill="#57EBA1"/>
<rect width="6.75722" height="2.76431" rx="1.38216" transform="matrix(0.866044 -0.499967 0.866044 0.499967 392.43 286.798)" fill="#57EBA1"/>
<rect width="6.75722" height="2.76431" rx="1.38216" transform="matrix(0.866044 -0.499967 0.866044 0.499967 405.197 279.428)" fill="#57EBA1"/>
<rect width="6.75722" height="2.76431" rx="1.38216" transform="matrix(0.866044 -0.499967 0.866044 0.499967 411.58 275.737)" fill="#57EBA1"/>
<rect width="6.75722" height="2.76431" rx="1.38216" transform="matrix(0.866044 -0.499967 0.866044 0.499967 417.965 272.055)" fill="#57EBA1"/>
<rect width="6.75722" height="2.76431" rx="1.38216" transform="matrix(0.866044 -0.499967 0.866044 0.499967 383.117 288.79)" fill="#E3FFF1"/>
<rect width="6.75722" height="2.76431" rx="1.38216" transform="matrix(0.866044 -0.499967 0.866044 0.499967 389.504 285.104)" fill="#E3FFF1"/>
<rect width="6.75722" height="2.76431" rx="1.38216" transform="matrix(0.866044 -0.499967 0.866044 0.499967 402.271 277.732)" fill="#E3FFF1"/>
<rect width="6.75722" height="2.76431" rx="1.38216" transform="matrix(0.866044 -0.499967 0.866044 0.499967 408.654 274.047)" fill="#E3FFF1"/>
<rect width="6.75722" height="2.76431" rx="1.38216" transform="matrix(0.866044 -0.499967 0.866044 0.499967 415.039 270.362)" fill="#E3FFF1"/>
<rect width="6.75722" height="2.76431" rx="1.38216" transform="matrix(0.866044 -0.499967 0.866044 0.499967 380.191 287.101)" fill="#E3FFF1"/>
<rect width="6.75722" height="2.76431" rx="1.38216" transform="matrix(0.866044 -0.499967 0.866044 0.499967 399.344 276.044)" fill="#E3FFF1"/>
<rect width="6.75722" height="2.76431" rx="1.38216" transform="matrix(0.866044 -0.499967 0.866044 0.499967 412.113 268.674)" fill="#E3FFF1"/>
<rect width="6.75722" height="2.76431" rx="1.38216" transform="matrix(0.866044 -0.499967 0.866044 0.499967 377.266 285.413)" fill="#E3FFF1"/>
<rect width="6.75722" height="2.76431" rx="1.38216" transform="matrix(0.866044 -0.499967 0.866044 0.499967 390.033 278.046)" fill="#E3FFF1"/>
<rect width="6.75722" height="2.76431" rx="1.38216" transform="matrix(0.866044 -0.499967 0.866044 0.499967 396.418 274.359)" fill="#E3FFF1"/>
<rect width="6.75722" height="2.76431" rx="1.38216" transform="matrix(0.866044 -0.499967 0.866044 0.499967 409.186 266.989)" fill="#E3FFF1"/>
<rect width="6.75722" height="2.76431" rx="1.38216" transform="matrix(0.866044 -0.499967 0.866044 0.499967 387.105 276.352)" fill="#E3FFF1"/>
<rect width="6.75722" height="2.76431" rx="1.38216" transform="matrix(0.866044 -0.499967 0.866044 0.499967 406.258 265.294)" fill="#E3FFF1"/>
<rect width="6.75722" height="2.76431" rx="1.38216" transform="matrix(0.866044 -0.499967 0.866044 0.499967 375.67 277.125)" fill="#E3FFF1"/>
<rect width="6.75722" height="2.76431" rx="1.38216" transform="matrix(0.866044 -0.499967 0.866044 0.499967 401.207 262.38)" fill="#E3FFF1"/>
</g>
<g filter="url(#filter6_dd)">
<rect width="58.8609" height="58.8609" rx="12" transform="matrix(0.866044 0.499967 -0.866044 0.499967 513.262 163.857)" fill="url(#paint14_linear)"/>
<rect width="58.8609" height="58.8609" rx="12" transform="matrix(0.866044 0.499967 -0.866044 0.499967 513.262 162)" fill="white"/>
<g filter="url(#filter7_dd)">
<rect width="49.6999" height="20.1486" rx="8" transform="matrix(0.866044 -0.499967 0.866044 0.499967 493.285 203.848)" fill="white"/>
<path fill-rule="evenodd" clip-rule="evenodd" d="M515.97 206.87C518.861 205.2 518.861 202.494 515.97 200.825C513.079 199.156 508.392 199.156 505.5 200.825C502.609 202.494 502.609 205.2 505.5 206.87C508.392 208.539 513.079 208.539 515.97 206.87Z" fill="#FFE6E6"/>
<path d="M512.376 201.738C511.939 201.641 511.471 201.597 511.004 201.609L510.617 201.619C510.604 201.619 510.592 201.621 510.58 201.625C510.569 201.629 510.56 201.635 510.553 201.641C510.547 201.647 510.543 201.655 510.542 201.662C510.542 201.67 510.544 201.677 510.55 201.684L510.718 201.885C510.824 202.011 510.886 202.166 510.903 202.344C510.904 202.356 510.896 202.364 510.889 202.369C510.882 202.374 510.868 202.38 510.848 202.38C510.83 202.381 510.813 202.376 510.801 202.369C510.41 202.113 509.815 201.914 509.03 201.776C508.379 201.661 507.734 201.65 507.11 201.743L506.656 201.811C506.596 201.82 506.578 201.864 506.623 201.888L506.971 202.071C507.209 202.197 507.383 202.328 507.488 202.46C507.616 202.622 507.696 202.795 507.727 202.974C507.748 203.098 507.745 203.224 507.717 203.348C507.65 203.646 507.7 203.949 507.864 204.235C508.031 204.522 508.311 204.782 508.682 204.997C509.009 205.185 509.39 205.331 509.816 205.43C510.226 205.525 510.665 205.573 511.107 205.571C511.553 205.57 511.988 205.52 512.399 205.422C512.826 205.322 513.208 205.175 513.537 204.985C513.866 204.795 514.121 204.574 514.296 204.328C514.465 204.091 514.553 203.838 514.554 203.582C514.557 203.324 514.474 203.073 514.309 202.837C514.138 202.591 513.883 202.369 513.559 202.182C513.221 201.987 512.823 201.837 512.376 201.738Z" fill="#FF3B3B"/>
<rect width="10.7459" height="1.34324" rx="0.67162" transform="matrix(0.866044 -0.499967 0.866044 0.499967 521.35 199.902)" fill="#EBEBF0"/>
<rect width="24.1783" height="1.34324" rx="0.67162" transform="matrix(0.866044 -0.499967 0.866044 0.499967 519.168 198.643)" fill="#EBEBF0"/>
<rect width="11.4175" height="2.68648" rx="1.34324" transform="matrix(0.866044 -0.499967 0.866044 0.499967 515.68 196.628)" fill="#C7C9D9"/>
</g>
<g filter="url(#filter8_dd)">
<rect width="49.6999" height="20.1486" rx="8" transform="matrix(0.866044 -0.499967 0.866044 0.499967 472.285 190.848)" fill="white"/>
<path fill-rule="evenodd" clip-rule="evenodd" d="M494.97 193.87C497.861 192.2 497.861 189.494 494.97 187.825C492.079 186.156 487.392 186.156 484.5 187.825C481.609 189.494 481.609 192.2 484.5 193.87C487.392 195.539 492.079 195.539 494.97 193.87Z" fill="#E3FFF1"/>
<path d="M486.491 188.873C484.699 189.907 484.699 191.585 486.491 192.619C488.282 193.653 491.188 193.653 492.98 192.619C494.771 191.585 494.771 189.907 492.98 188.873C491.188 187.838 488.282 187.838 486.491 188.873ZM490.077 189.325L490.667 191.427C490.675 191.456 490.671 191.486 490.655 191.515C490.639 191.543 490.612 191.569 490.575 191.59C490.539 191.611 490.494 191.627 490.445 191.636C490.396 191.645 490.343 191.648 490.292 191.643L488.138 191.442C488.072 191.435 488.046 191.388 488.093 191.361L488.432 191.165C488.506 191.123 488.612 191.102 488.716 191.113L489.947 191.228L489.507 189.659C489.49 189.599 489.524 189.538 489.598 189.495L489.938 189.299C489.985 189.272 490.066 189.287 490.077 189.325Z" fill="#39D98A"/>
<rect width="10.7459" height="1.34324" rx="0.67162" transform="matrix(0.866044 -0.499967 0.866044 0.499967 500.35 186.902)" fill="#EBEBF0"/>
<rect width="24.1783" height="1.34324" rx="0.67162" transform="matrix(0.866044 -0.499967 0.866044 0.499967 498.168 185.643)" fill="#EBEBF0"/>
<rect width="11.4175" height="2.68648" rx="1.34324" transform="matrix(0.866044 -0.499967 0.866044 0.499967 494.68 183.628)" fill="#C7C9D9"/>
</g>
</g>
<g opacity="0.45">
<path d="M238.285 98.6431L175.037 135.538L111.537 98.6431L174.786 61.999L238.285 98.6431Z" fill="url(#paint15_linear)"/>
<path d="M238.284 98.6428V128.603L175.035 165.498L175.035 135.538L238.284 98.6428Z" fill="url(#paint16_linear)"/>
<path d="M175.036 135.538V165.498L111.285 128.603L111.536 98.6428L175.036 135.538Z" fill="url(#paint17_linear)"/>
</g>
<g filter="url(#filter9_dd)">
<rect width="84.0609" height="84.0609" rx="18" transform="matrix(0.866044 0.499968 -0.866044 0.499968 175.086 52.6741)" fill="url(#paint18_linear)"/>
<rect width="84.0609" height="84.0609" rx="18" transform="matrix(0.866044 0.499968 -0.866044 0.499968 175.086 50)" fill="white"/>
<path d="M187.958 91.9844C188.452 91.6981 189.175 91.5869 189.853 91.6929L206.101 94.0565C207.559 94.2842 208.124 95.3754 207.063 95.9905L172.68 115.84C171.615 116.458 169.784 116.171 169.392 115.326L165.322 105.892C165.141 105.502 165.332 105.088 165.823 104.804L187.958 91.9844Z" fill="#223C37"/>
<path d="M178.627 91.7C178.814 92.0903 178.622 92.5088 178.126 92.7955L165.778 99.924C164.716 100.537 162.906 100.257 162.52 99.4211L152.235 77.1375C151.848 76.3006 153.179 75.535 154.627 75.7608L171.246 78.3518C171.91 78.4553 172.429 78.7533 172.612 79.1359L178.627 91.7Z" fill="#39D98A"/>
<path d="M205.714 95.9733C206.379 96.0705 206.779 96.1544 207.264 95.8747L222.003 87.3655C223.081 86.7432 222.59 85.698 221.105 85.4945L183.218 79.998C181.761 79.7984 180.477 80.5821 180.904 81.4111L186.613 92.7608L205.714 95.9733Z" fill="#376C66"/>
</g>
<defs>
<filter id="filter0_dd" x="443.418" y="3.27173" width="135.337" height="84.186" filterUnits="userSpaceOnUse" color-interpolation-filters="sRGB">
<feFlood flood-opacity="0" result="BackgroundImageFix"/>
<feColorMatrix in="SourceAlpha" type="matrix" values="0 0 0 0 0 0 0 0 0 0 0 0 0 0 0 0 0 0 127 0"/>
<feOffset dy="2"/>
<feGaussianBlur stdDeviation="2"/>
<feColorMatrix type="matrix" values="0 0 0 0 0.376471 0 0 0 0 0.380392 0 0 0 0 0.439216 0 0 0 0.16 0"/>
<feBlend mode="normal" in2="BackgroundImageFix" result="effect1_dropShadow"/>
<feColorMatrix in="SourceAlpha" type="matrix" values="0 0 0 0 0 0 0 0 0 0 0 0 0 0 0 0 0 0 127 0"/>
<feOffset/>
<feGaussianBlur stdDeviation="0.5"/>
<feColorMatrix type="matrix" values="0 0 0 0 0.156863 0 0 0 0 0.160784 0 0 0 0 0.239216 0 0 0 0.04 0"/>
<feBlend mode="normal" in2="effect1_dropShadow" result="effect2_dropShadow"/>
<feBlend mode="normal" in="SourceGraphic" in2="effect2_dropShadow" result="shape"/>
</filter>
<filter id="filter1_dd" x="119.418" y="297.271" width="135.338" height="84.1861" filterUnits="userSpaceOnUse" color-interpolation-filters="sRGB">
<feFlood flood-opacity="0" result="BackgroundImageFix"/>
<feColorMatrix in="SourceAlpha" type="matrix" values="0 0 0 0 0 0 0 0 0 0 0 0 0 0 0 0 0 0 127 0"/>
<feOffset dy="2"/>
<feGaussianBlur stdDeviation="2"/>
<feColorMatrix type="matrix" values="0 0 0 0 0.376471 0 0 0 0 0.380392 0 0 0 0 0.439216 0 0 0 0.16 0"/>
<feBlend mode="normal" in2="BackgroundImageFix" result="effect1_dropShadow"/>
<feColorMatrix in="SourceAlpha" type="matrix" values="0 0 0 0 0 0 0 0 0 0 0 0 0 0 0 0 0 0 127 0"/>
<feOffset/>
<feGaussianBlur stdDeviation="0.5"/>
<feColorMatrix type="matrix" values="0 0 0 0 0.156863 0 0 0 0 0.160784 0 0 0 0 0.239216 0 0 0 0.04 0"/>
<feBlend mode="normal" in2="effect1_dropShadow" result="effect2_dropShadow"/>
<feBlend mode="normal" in="SourceGraphic" in2="effect2_dropShadow" result="shape"/>
</filter>
<filter id="filter2_dd" x="109.227" y="105.771" width="131.337" height="84.5675" filterUnits="userSpaceOnUse" color-interpolation-filters="sRGB">
<feFlood flood-opacity="0" result="BackgroundImageFix"/>
<feColorMatrix in="SourceAlpha" type="matrix" values="0 0 0 0 0 0 0 0 0 0 0 0 0 0 0 0 0 0 127 0"/>
<feOffset dy="0.5"/>
<feGaussianBlur stdDeviation="1"/>
<feColorMatrix type="matrix" values="0 0 0 0 0.376471 0 0 0 0 0.380392 0 0 0 0 0.439216 0 0 0 0.16 0"/>
<feBlend mode="normal" in2="BackgroundImageFix" result="effect1_dropShadow"/>
<feColorMatrix in="SourceAlpha" type="matrix" values="0 0 0 0 0 0 0 0 0 0 0 0 0 0 0 0 0 0 127 0"/>
<feOffset/>
<feGaussianBlur stdDeviation="0.5"/>
<feColorMatrix type="matrix" values="0 0 0 0 0.156863 0 0 0 0 0.160784 0 0 0 0 0.239216 0 0 0 0.08 0"/>
<feBlend mode="normal" in2="effect1_dropShadow" result="effect2_dropShadow"/>
<feBlend mode="normal" in="SourceGraphic" in2="effect2_dropShadow" result="shape"/>
</filter>
<filter id="filter3_dd" x="435.227" y="248.772" width="131.337" height="84.5675" filterUnits="userSpaceOnUse" color-interpolation-filters="sRGB">
<feFlood flood-opacity="0" result="BackgroundImageFix"/>
<feColorMatrix in="SourceAlpha" type="matrix" values="0 0 0 0 0 0 0 0 0 0 0 0 0 0 0 0 0 0 127 0"/>
<feOffset dy="0.5"/>
<feGaussianBlur stdDeviation="1"/>
<feColorMatrix type="matrix" values="0 0 0 0 0.376471 0 0 0 0 0.380392 0 0 0 0 0.439216 0 0 0 0.16 0"/>
<feBlend mode="normal" in2="BackgroundImageFix" result="effect1_dropShadow"/>
<feColorMatrix in="SourceAlpha" type="matrix" values="0 0 0 0 0 0 0 0 0 0 0 0 0 0 0 0 0 0 127 0"/>
<feOffset/>
<feGaussianBlur stdDeviation="0.5"/>
<feColorMatrix type="matrix" values="0 0 0 0 0.156863 0 0 0 0 0.160784 0 0 0 0 0.239216 0 0 0 0.08 0"/>
<feBlend mode="normal" in2="effect1_dropShadow" result="effect2_dropShadow"/>
<feBlend mode="normal" in="SourceGraphic" in2="effect2_dropShadow" result="shape"/>
</filter>
<filter id="filter4_dd" x="411.285" y="199" width="179.078" height="116.908" filterUnits="userSpaceOnUse" color-interpolation-filters="sRGB">
<feFlood flood-opacity="0" result="BackgroundImageFix"/>
<feColorMatrix in="SourceAlpha" type="matrix" values="0 0 0 0 0 0 0 0 0 0 0 0 0 0 0 0 0 0 127 0"/>
<feOffset dy="8"/>
<feGaussianBlur stdDeviation="8"/>
<feColorMatrix type="matrix" values="0 0 0 0 0.376471 0 0 0 0 0.380392 0 0 0 0 0.439216 0 0 0 0.16 0"/>
<feBlend mode="normal" in2="BackgroundImageFix" result="effect1_dropShadow"/>
<feColorMatrix in="SourceAlpha" type="matrix" values="0 0 0 0 0 0 0 0 0 0 0 0 0 0 0 0 0 0 127 0"/>
<feOffset dy="2"/>
<feGaussianBlur stdDeviation="2"/>
<feColorMatrix type="matrix" values="0 0 0 0 0.156863 0 0 0 0 0.160784 0 0 0 0 0.239216 0 0 0 0.04 0"/>
<feBlend mode="normal" in2="effect1_dropShadow" result="effect2_dropShadow"/>
<feBlend mode="normal" in="SourceGraphic" in2="effect2_dropShadow" result="shape"/>
</filter>
<filter id="filter5_dd" x="359.373" y="253.514" width="97.7766" height="61.6855" filterUnits="userSpaceOnUse" color-interpolation-filters="sRGB">
<feFlood flood-opacity="0" result="BackgroundImageFix"/>
<feColorMatrix in="SourceAlpha" type="matrix" values="0 0 0 0 0 0 0 0 0 0 0 0 0 0 0 0 0 0 127 0"/>
<feOffset dy="2"/>
<feGaussianBlur stdDeviation="2"/>
<feColorMatrix type="matrix" values="0 0 0 0 0.376471 0 0 0 0 0.380392 0 0 0 0 0.439216 0 0 0 0.16 0"/>
<feBlend mode="normal" in2="BackgroundImageFix" result="effect1_dropShadow"/>
<feColorMatrix in="SourceAlpha" type="matrix" values="0 0 0 0 0 0 0 0 0 0 0 0 0 0 0 0 0 0 127 0"/>
<feOffset/>
<feGaussianBlur stdDeviation="0.5"/>
<feColorMatrix type="matrix" values="0 0 0 0 0.156863 0 0 0 0 0.160784 0 0 0 0 0.239216 0 0 0 0.04 0"/>
<feBlend mode="normal" in2="effect1_dropShadow" result="effect2_dropShadow"/>
<feBlend mode="normal" in="SourceGraphic" in2="effect2_dropShadow" result="shape"/>
</filter>
<filter id="filter6_dd" x="466.373" y="164.014" width="93.7766" height="57.6855" filterUnits="userSpaceOnUse" color-interpolation-filters="sRGB">
<feFlood flood-opacity="0" result="BackgroundImageFix"/>
<feColorMatrix in="SourceAlpha" type="matrix" values="0 0 0 0 0 0 0 0 0 0 0 0 0 0 0 0 0 0 127 0"/>
<feOffset dy="0.5"/>
<feGaussianBlur stdDeviation="1"/>
<feColorMatrix type="matrix" values="0 0 0 0 0.376471 0 0 0 0 0.380392 0 0 0 0 0.439216 0 0 0 0.16 0"/>
<feBlend mode="normal" in2="BackgroundImageFix" result="effect1_dropShadow"/>
<feColorMatrix in="SourceAlpha" type="matrix" values="0 0 0 0 0 0 0 0 0 0 0 0 0 0 0 0 0 0 127 0"/>
<feOffset/>
<feGaussianBlur stdDeviation="0.5"/>
<feColorMatrix type="matrix" values="0 0 0 0 0.156863 0 0 0 0 0.160784 0 0 0 0 0.239216 0 0 0 0.08 0"/>
<feBlend mode="normal" in2="effect1_dropShadow" result="effect2_dropShadow"/>
<feBlend mode="normal" in="SourceGraphic" in2="effect2_dropShadow" result="shape"/>
</filter>
<filter id="filter7_dd" x="495.344" y="179.843" width="56.3748" height="34.236" filterUnits="userSpaceOnUse" color-interpolation-filters="sRGB">
<feFlood flood-opacity="0" result="BackgroundImageFix"/>
<feColorMatrix in="SourceAlpha" type="matrix" values="0 0 0 0 0 0 0 0 0 0 0 0 0 0 0 0 0 0 127 0"/>
<feOffset dy="0.5"/>
<feGaussianBlur stdDeviation="1"/>
<feColorMatrix type="matrix" values="0 0 0 0 0.376471 0 0 0 0 0.380392 0 0 0 0 0.439216 0 0 0 0.16 0"/>
<feBlend mode="normal" in2="BackgroundImageFix" result="effect1_dropShadow"/>
<feColorMatrix in="SourceAlpha" type="matrix" values="0 0 0 0 0 0 0 0 0 0 0 0 0 0 0 0 0 0 127 0"/>
<feOffset/>
<feGaussianBlur stdDeviation="0.5"/>
<feColorMatrix type="matrix" values="0 0 0 0 0.156863 0 0 0 0 0.160784 0 0 0 0 0.239216 0 0 0 0.08 0"/>
<feBlend mode="normal" in2="effect1_dropShadow" result="effect2_dropShadow"/>
<feBlend mode="normal" in="SourceGraphic" in2="effect2_dropShadow" result="shape"/>
</filter>
<filter id="filter8_dd" x="474.344" y="166.843" width="56.3748" height="34.236" filterUnits="userSpaceOnUse" color-interpolation-filters="sRGB">
<feFlood flood-opacity="0" result="BackgroundImageFix"/>
<feColorMatrix in="SourceAlpha" type="matrix" values="0 0 0 0 0 0 0 0 0 0 0 0 0 0 0 0 0 0 127 0"/>
<feOffset dy="0.5"/>
<feGaussianBlur stdDeviation="1"/>
<feColorMatrix type="matrix" values="0 0 0 0 0.376471 0 0 0 0 0.380392 0 0 0 0 0.439216 0 0 0 0.16 0"/>
<feBlend mode="normal" in2="BackgroundImageFix" result="effect1_dropShadow"/>
<feColorMatrix in="SourceAlpha" type="matrix" values="0 0 0 0 0 0 0 0 0 0 0 0 0 0 0 0 0 0 127 0"/>
<feOffset/>
<feGaussianBlur stdDeviation="0.5"/>
<feColorMatrix type="matrix" values="0 0 0 0 0.156863 0 0 0 0 0.160784 0 0 0 0 0.239216 0 0 0 0.08 0"/>
<feBlend mode="normal" in2="effect1_dropShadow" result="effect2_dropShadow"/>
<feBlend mode="normal" in="SourceGraphic" in2="effect2_dropShadow" result="shape"/>
</filter>
<filter id="filter9_dd" x="75.2852" y="37" width="195.078" height="134.458" filterUnits="userSpaceOnUse" color-interpolation-filters="sRGB">
<feFlood flood-opacity="0" result="BackgroundImageFix"/>
<feColorMatrix in="SourceAlpha" type="matrix" values="0 0 0 0 0 0 0 0 0 0 0 0 0 0 0 0 0 0 127 0"/>
<feOffset dy="16"/>
<feGaussianBlur stdDeviation="12"/>
<feColorMatrix type="matrix" values="0 0 0 0 0.376471 0 0 0 0 0.380392 0 0 0 0 0.439216 0 0 0 0.16 0"/>
<feBlend mode="normal" in2="BackgroundImageFix" result="effect1_dropShadow"/>
<feColorMatrix in="SourceAlpha" type="matrix" values="0 0 0 0 0 0 0 0 0 0 0 0 0 0 0 0 0 0 127 0"/>
<feOffset dy="2"/>
<feGaussianBlur stdDeviation="4"/>
<feColorMatrix type="matrix" values="0 0 0 0 0.156863 0 0 0 0 0.160784 0 0 0 0 0.239216 0 0 0 0.04 0"/>
<feBlend mode="normal" in2="effect1_dropShadow" result="effect2_dropShadow"/>
<feBlend mode="normal" in="SourceGraphic" in2="effect2_dropShadow" result="shape"/>
</filter>
<radialGradient id="paint0_radial" cx="0" cy="0" r="1" gradientUnits="userSpaceOnUse" gradientTransform="translate(356.5 269.085) rotate(90) scale(186.085 356.5)">
<stop stop-color="#8F90A6"/>
<stop offset="0.317708" stop-color="#8F90A6"/>
<stop offset="1" stop-color="#8F90A6" stop-opacity="0"/>
</radialGradient>
<radialGradient id="paint1_radial" cx="0" cy="0" r="1" gradientUnits="userSpaceOnUse" gradientTransform="translate(356.947 268.895) rotate(29.9978) scale(308.493 267.38)">
<stop stop-color="#8F90A6"/>
<stop offset="0.317708" stop-color="#8F90A6"/>
<stop offset="1" stop-color="#8F90A6" stop-opacity="0"/>
</radialGradient>
<radialGradient id="paint2_radial" cx="0" cy="0" r="1" gradientUnits="userSpaceOnUse" gradientTransform="translate(356.947 268.894) rotate(90) scale(311.238 539.127)">
<stop stop-color="#8F90A6"/>
<stop offset="0.317708" stop-color="#8F90A6"/>
<stop offset="1" stop-color="#8F90A6" stop-opacity="0"/>
</radialGradient>
<linearGradient id="paint3_linear" x1="95.3934" y1="204.715" x2="503.663" y2="311.109" gradientUnits="userSpaceOnUse">
<stop stop-color="#8B90A4"/>
<stop offset="1" stop-color="#28293D"/>
</linearGradient>
<linearGradient id="paint4_linear" x1="-0.383015" y1="13.1213" x2="87.3745" y2="24.5005" gradientUnits="userSpaceOnUse">
<stop stop-color="#E4E4EB"/>
<stop offset="1" stop-color="#EDF0F4"/>
</linearGradient>
<linearGradient id="paint5_linear" x1="-0.383015" y1="13.1213" x2="87.3745" y2="24.5005" gradientUnits="userSpaceOnUse">
<stop stop-color="#E4E4EB"/>
<stop offset="1" stop-color="#EDF0F4"/>
</linearGradient>
<linearGradient id="paint6_linear" x1="158.916" y1="115.484" x2="159.122" y2="210.887" gradientUnits="userSpaceOnUse">
<stop stop-color="#8B90A4"/>
<stop offset="1" stop-color="#28293D"/>
</linearGradient>
<linearGradient id="paint7_linear" x1="19.6297" y1="24.3751" x2="86.1719" y2="75.5019" gradientUnits="userSpaceOnUse">
<stop stop-color="#40415A"/>
<stop offset="1" stop-color="#28293D"/>
</linearGradient>
<linearGradient id="paint8_linear" x1="490.686" y1="268.293" x2="516.288" y2="325.857" gradientUnits="userSpaceOnUse">
<stop stop-color="#E4E4EB"/>
<stop offset="1" stop-color="#EDF0F4"/>
</linearGradient>
<linearGradient id="paint9_linear" x1="500.911" y1="215" x2="500.911" y2="288.539" gradientUnits="userSpaceOnUse">
<stop stop-color="#39D98A"/>
<stop offset="1" stop-color="#47FFA4" stop-opacity="0.42"/>
</linearGradient>
<linearGradient id="paint10_linear" x1="521.785" y1="265.499" x2="540.285" y2="291.999" gradientUnits="userSpaceOnUse">
<stop stop-color="#39D98A"/>
<stop offset="1" stop-color="#47FFA4" stop-opacity="0"/>
</linearGradient>
<linearGradient id="paint11_linear" x1="475.785" y1="265.999" x2="458.285" y2="293.999" gradientUnits="userSpaceOnUse">
<stop stop-color="#39D98A"/>
<stop offset="1" stop-color="#47FFA4" stop-opacity="0"/>
</linearGradient>
<linearGradient id="paint12_linear" x1="-0.383015" y1="13.1213" x2="87.3745" y2="24.5005" gradientUnits="userSpaceOnUse">
<stop stop-color="#E4E4EB"/>
<stop offset="1" stop-color="#EDF0F4"/>
</linearGradient>
<linearGradient id="paint13_linear" x1="7.59227" y1="58.8857" x2="37.9142" y2="-1.76219" gradientUnits="userSpaceOnUse">
<stop stop-color="#E4E4EB"/>
<stop offset="1" stop-color="#EDF0F4"/>
</linearGradient>
<linearGradient id="paint14_linear" x1="7.59227" y1="58.8857" x2="37.9142" y2="-1.76219" gradientUnits="userSpaceOnUse">
<stop stop-color="#E4E4EB"/>
<stop offset="1" stop-color="#EDF0F4"/>
</linearGradient>
<linearGradient id="paint15_linear" x1="174.911" y1="61.999" x2="174.911" y2="135.538" gradientUnits="userSpaceOnUse">
<stop stop-color="#39D98A"/>
<stop offset="1" stop-color="#47FFA4" stop-opacity="0.42"/>
</linearGradient>
<linearGradient id="paint16_linear" x1="195.785" y1="112.498" x2="214.285" y2="138.998" gradientUnits="userSpaceOnUse">
<stop stop-color="#39D98A"/>
<stop offset="1" stop-color="#47FFA4" stop-opacity="0"/>
</linearGradient>
<linearGradient id="paint17_linear" x1="149.785" y1="112.998" x2="132.285" y2="140.998" gradientUnits="userSpaceOnUse">
<stop stop-color="#39D98A"/>
<stop offset="1" stop-color="#47FFA4" stop-opacity="0"/>
</linearGradient>
<linearGradient id="paint18_linear" x1="-0.383015" y1="13.1213" x2="87.3745" y2="24.5005" gradientUnits="userSpaceOnUse">
<stop stop-color="#E4E4EB"/>
<stop offset="1" stop-color="#EDF0F4"/>
</linearGradient>
<clipPath id="clip0">
<rect width="54.3348" height="53.6722" fill="white" transform="matrix(0.866044 -0.499967 0.866044 0.499967 465.285 42.1665)"/>
</clipPath>
</defs>
</svg>