<svg width="815" height="492" viewBox="0 0 815 492" fill="none" xmlns="http://www.w3.org/2000/svg">
<g opacity="0.45">
<mask id="mask0" mask-type="alpha" maskUnits="userSpaceOnUse" x="119" y="89" width="577" height="334">
<circle r="235.199" transform="matrix(0.866044 -0.499967 0.866044 0.499967 407.386 256.184)" fill="url(#paint0_radial)"/>
</mask>
<g mask="url(#mask0)">
<path opacity="0.15" d="M452.572 466.102L453.446 465.598L497.979 439.889L498.852 439.385L543.386 413.675L544.259 413.171L588.793 387.462L589.666 386.958L634.2 361.249L635.073 360.745L679.606 335.035L680.48 334.531L725.013 308.822L725.886 308.318L770.42 282.609L771.293 282.105L815.827 256.395L816.7 255.891L815.828 255.388L771.332 229.7L770.46 229.197L725.964 203.509L725.092 203.006L680.596 177.319L679.724 176.815L635.228 151.128L634.356 150.624L589.86 124.937L588.988 124.433L544.493 98.7458L543.62 98.2422L499.125 72.5549L498.252 72.0513L453.757 46.364L452.884 45.8604L408.389 20.1731L407.516 19.6695L406.643 20.1736L271.296 98.3095L270.423 98.8136L135.076 176.95L134.202 177.454L-2.01807 256.094L134.086 334.666L134.958 335.17L270.189 413.239L271.062 413.743L406.293 491.812L407.166 492.315L408.039 491.811L452.572 466.102ZM362.982 46.3865L407.516 20.6773L452.011 46.3645L407.478 72.0737L362.982 46.3865ZM408.35 72.5774L452.884 46.8681L497.379 72.5554L452.845 98.2646L408.35 72.5774ZM453.718 98.7683L498.251 73.059L542.747 98.7463L498.213 124.456L453.718 98.7683ZM499.086 124.959L543.619 99.2499L588.115 124.937L543.581 150.646L499.086 124.959ZM544.454 151.15L588.987 125.441L633.483 151.128L588.949 176.837L544.454 151.15ZM589.822 177.341L634.355 151.632L678.851 177.319L634.317 203.028L589.822 177.341ZM635.189 203.532L679.723 177.823L724.219 203.51L679.685 229.219L635.189 203.532ZM680.557 229.723L725.091 204.014L769.586 229.701L725.053 255.41L680.557 229.723ZM725.925 255.914L770.459 230.204L814.954 255.892L770.421 281.601L725.925 255.914ZM317.575 72.5999L362.109 46.8906L406.604 72.5778L362.071 98.2871L317.575 72.5999ZM362.943 98.7907L407.477 73.0815L451.972 98.7687L407.439 124.478L362.943 98.7907ZM408.311 124.982L452.845 99.2724L497.34 124.96L452.807 150.669L408.311 124.982ZM453.679 151.173L498.213 125.463L542.708 151.151L498.174 176.86L453.679 151.173ZM499.047 177.363L543.58 151.654L588.076 177.341L543.542 203.051L499.047 177.363ZM544.415 203.554L588.948 177.845L633.444 203.532L588.91 229.242L544.415 203.554ZM589.783 229.745L634.316 204.036L678.812 229.723L634.278 255.432L589.783 229.745ZM635.151 255.936L679.684 230.227L724.18 255.914L679.646 281.623L635.151 255.936ZM680.518 282.127L725.052 256.418L769.548 282.105L725.014 307.814L680.518 282.127ZM272.168 98.8132L316.702 73.104L361.197 98.7912L316.664 124.5L272.168 98.8132ZM317.536 125.004L362.07 99.2949L406.565 124.982L362.032 150.691L317.536 125.004ZM362.904 151.195L407.438 125.486L451.933 151.173L407.4 176.882L362.904 151.195ZM408.272 177.386L452.806 151.677L497.301 177.364L452.768 203.073L408.272 177.386ZM453.64 203.577L498.174 177.868L542.669 203.555L498.136 229.264L453.64 203.577ZM499.008 229.768L543.542 204.058L588.037 229.746L543.503 255.455L499.008 229.768ZM544.376 255.959L588.909 230.249L633.405 255.937L588.871 281.646L544.376 255.959ZM589.744 282.149L634.277 256.44L678.773 282.127L634.239 307.837L589.744 282.149ZM635.112 308.34L679.645 282.631L724.141 308.318L679.607 334.028L635.112 308.34ZM226.762 125.027L271.295 99.3173L315.791 125.005L271.257 150.714L226.762 125.027ZM272.13 151.217L316.663 125.508L361.159 151.195L316.625 176.905L272.13 151.217ZM317.497 177.408L362.031 151.699L406.526 177.386L361.993 203.096L317.497 177.408ZM362.865 203.599L407.399 177.89L451.894 203.577L407.361 229.286L362.865 203.599ZM408.233 229.79L452.767 204.081L497.262 229.768L452.729 255.477L408.233 229.79ZM453.601 255.981L498.135 230.272L542.63 255.959L498.097 281.668L453.601 255.981ZM498.969 282.172L543.503 256.463L587.998 282.15L543.465 307.859L498.969 282.172ZM544.337 308.363L588.871 282.654L633.366 308.341L588.832 334.05L544.337 308.363ZM589.705 334.554L634.238 308.844L678.734 334.532L634.2 360.241L589.705 334.554ZM181.355 151.24L225.888 125.531L270.384 151.218L225.85 176.927L181.355 151.24ZM226.723 177.431L271.256 151.722L315.752 177.409L271.218 203.118L226.723 177.431ZM272.091 203.622L316.624 177.912L361.12 203.6L316.586 229.309L272.091 203.622ZM317.459 229.813L361.992 204.103L406.488 229.791L361.954 255.5L317.459 229.813ZM362.826 256.003L407.36 230.294L451.855 255.981L407.322 281.691L362.826 256.003ZM408.194 282.194L452.728 256.485L497.223 282.172L452.69 307.882L408.194 282.194ZM453.562 308.385L498.096 282.676L542.591 308.363L498.058 334.072L453.562 308.385ZM498.93 334.576L543.464 308.867L587.959 334.554L543.426 360.263L498.93 334.576ZM544.298 360.767L588.832 335.058L633.327 360.745L588.793 386.454L544.298 360.767ZM135.948 177.453L180.482 151.744L224.977 177.431L180.443 203.14L135.948 177.453ZM181.316 203.644L225.85 177.935L270.345 203.622L225.811 229.331L181.316 203.644ZM226.684 229.835L271.217 204.126L315.713 229.813L271.179 255.522L226.684 229.835ZM272.052 256.026L316.585 230.317L361.081 256.004L316.547 281.713L272.052 256.026ZM317.42 282.217L361.953 256.508L406.449 282.195L361.915 307.904L317.42 282.217ZM362.788 308.408L407.321 282.698L451.817 308.386L407.283 334.095L362.788 308.408ZM408.155 334.599L452.689 308.889L497.184 334.577L452.651 360.286L408.155 334.599ZM453.523 360.79L498.057 335.08L542.552 360.767L498.019 386.477L453.523 360.79ZM498.891 386.98L543.425 361.271L587.92 386.958L543.387 412.668L498.891 386.98ZM90.5412 203.667L135.075 177.957L179.57 203.645L135.037 229.354L90.5412 203.667ZM135.909 229.858L180.443 204.148L224.938 229.835L180.405 255.545L135.909 229.858ZM181.277 256.048L225.811 230.339L270.306 256.026L225.772 281.736L181.277 256.048ZM226.645 282.239L271.179 256.53L315.674 282.217L271.14 307.927L226.645 282.239ZM272.013 308.43L316.546 282.721L361.042 308.408L316.508 334.117L272.013 308.43ZM317.381 334.621L361.914 308.912L406.41 334.599L361.876 360.308L317.381 334.621ZM362.749 360.812L407.282 335.103L451.778 360.79L407.244 386.499L362.749 360.812ZM408.117 387.003L452.65 361.294L497.146 386.981L452.612 412.69L408.117 387.003ZM453.484 413.194L498.018 387.484L542.513 413.172L497.98 438.881L453.484 413.194ZM45.1344 229.88L89.668 204.171L134.163 229.858L89.6299 255.567L45.1344 229.88ZM90.5023 256.071L135.036 230.362L179.531 256.049L134.998 281.758L90.5023 256.071ZM135.87 282.262L180.404 256.553L224.899 282.24L180.366 307.949L135.87 282.262ZM181.238 308.453L225.772 282.743L270.267 308.431L225.734 334.14L181.238 308.453ZM226.606 334.644L271.14 308.934L315.635 334.622L271.101 360.331L226.606 334.644ZM271.974 360.834L316.508 335.125L361.003 360.812L316.469 386.522L271.974 360.834ZM317.342 387.025L361.875 361.316L406.371 387.003L361.837 412.713L317.342 387.025ZM362.71 413.216L407.243 387.507L451.739 413.194L407.205 438.903L362.71 413.216ZM408.078 439.407L452.611 413.698L497.107 439.385L452.573 465.094L408.078 439.407ZM-0.272399 256.093L44.2612 230.384L88.7566 256.071L44.223 281.781L-0.272399 256.093ZM45.0955 282.284L89.6291 256.575L134.125 282.262L89.5909 307.971L45.0955 282.284ZM90.4634 308.475L134.997 282.766L179.492 308.453L134.959 334.162L90.4634 308.475ZM135.831 334.666L180.365 308.957L224.86 334.644L180.327 360.353L135.831 334.666ZM181.199 360.857L225.733 335.148L270.228 360.835L225.695 386.544L181.199 360.857ZM226.567 387.048L271.101 361.339L315.596 387.026L271.063 412.735L226.567 387.048ZM271.935 413.239L316.469 387.529L360.964 413.217L316.43 438.926L271.935 413.239ZM317.303 439.43L361.837 413.72L406.332 439.408L361.798 465.117L317.303 439.43ZM362.671 465.62L407.204 439.911L451.7 465.598L407.166 491.308L362.671 465.62Z" fill="#8F90A6"/>
<path d="M133.252 282.262L134.999 281.253L136.744 282.261L134.997 283.269L133.252 282.262ZM44.2616 230.887L46.008 229.879L44.2631 228.872L42.5166 229.88L44.2616 230.887ZM180.385 283.258L182.131 282.25L180.386 281.242L178.64 282.25L180.385 283.258ZM89.6294 257.078L91.3759 256.07L89.6309 255.063L87.8845 256.071L89.6294 257.078ZM135.017 257.067L136.763 256.059L135.018 255.051L133.272 256.06L135.017 257.067ZM44.2421 257.089L45.9885 256.081L44.2436 255.074L42.4972 256.082L44.2421 257.089ZM89.5905 309.482L91.337 308.474L89.592 307.467L87.8456 308.475L89.5905 309.482ZM134.978 309.471L136.724 308.463L134.979 307.456L133.233 308.464L134.978 309.471ZM44.2241 281.276L42.4777 282.284L44.2226 283.291L45.9691 282.283L44.2241 281.276ZM89.61 283.28L91.3564 282.272L89.6115 281.265L87.8651 282.273L89.61 283.28ZM135.056 204.663L136.802 203.654L135.057 202.647L133.311 203.655L135.056 204.663ZM89.6489 230.876L91.3953 229.868L89.6504 228.86L87.904 229.869L89.6489 230.876ZM180.424 230.854L182.17 229.845L180.425 228.838L178.679 229.846L180.424 230.854ZM225.791 257.044L227.538 256.036L225.793 255.029L224.047 256.037L225.791 257.044ZM180.404 257.056L182.151 256.047L180.406 255.04L178.659 256.048L180.404 257.056ZM135.036 230.865L136.783 229.857L135.038 228.849L133.291 229.857L135.036 230.865ZM89.6684 204.674L91.4148 203.666L89.6699 202.658L87.9234 203.667L89.6684 204.674ZM-4.63396 253.574L-5.50717 254.078L-2.01733 256.093L-5.51016 258.109L-4.6377 258.613L-1.14487 256.597L2.34497 258.611L3.21817 258.107L-0.271664 256.093L3.22117 254.076L2.34871 253.572L-1.14412 255.589L-4.63396 253.574ZM271.218 204.629L272.964 203.621L271.219 202.613L269.473 203.622L271.218 204.629ZM180.482 152.247L182.228 151.239L180.483 150.232L178.737 151.24L180.482 152.247ZM316.605 204.618L318.352 203.61L316.607 202.602L314.86 203.61L316.605 204.618ZM225.85 178.438L227.596 177.43L225.851 176.422L224.105 177.431L225.85 178.438ZM271.237 178.427L272.984 177.419L271.239 176.411L269.492 177.419L271.237 178.427ZM180.463 178.449L182.209 177.441L180.464 176.434L178.718 177.442L180.463 178.449ZM225.811 230.842L227.557 229.834L225.812 228.827L224.066 229.835L225.811 230.842ZM271.198 230.831L272.945 229.823L271.2 228.816L269.453 229.824L271.198 230.831ZM180.445 202.636L178.698 203.644L180.443 204.651L182.189 203.643L180.445 202.636ZM225.83 204.64L227.577 203.632L225.832 202.625L224.085 203.633L225.83 204.64ZM271.276 126.023L273.023 125.014L271.278 124.007L269.531 125.015L271.276 126.023ZM225.869 152.236L227.616 151.228L225.871 150.22L224.124 151.229L225.869 152.236ZM316.644 152.213L318.39 151.205L316.645 150.198L314.899 151.206L316.644 152.213ZM362.012 178.404L363.758 177.396L362.013 176.389L360.267 177.397L362.012 178.404ZM316.625 178.416L318.371 177.407L316.626 176.4L314.88 177.408L316.625 178.416ZM271.257 152.225L273.003 151.216L271.258 150.209L269.512 151.217L271.257 152.225ZM225.889 126.034L227.635 125.026L225.89 124.018L224.144 125.026L225.889 126.034ZM131.586 174.934L130.713 175.438L134.203 177.453L130.71 179.469L131.583 179.973L135.076 177.957L138.565 179.971L139.439 179.467L135.949 177.453L139.442 175.436L138.569 174.932L135.076 176.949L131.586 174.934ZM407.438 125.989L409.185 124.981L407.44 123.973L405.693 124.982L407.438 125.989ZM316.702 73.6071L318.449 72.5989L316.704 71.5916L314.957 72.5998L316.702 73.6071ZM452.826 125.978L454.572 124.969L452.827 123.962L451.081 124.97L452.826 125.978ZM362.07 99.798L363.817 98.7898L362.072 97.7825L360.325 98.7907L362.07 99.798ZM407.458 99.7868L409.204 98.7786L407.459 97.7712L405.713 98.7794L407.458 99.7868ZM316.683 99.8092L318.429 98.801L316.684 97.7937L314.938 98.8019L316.683 99.8092ZM362.031 152.202L363.778 151.194L362.033 150.187L360.286 151.195L362.031 152.202ZM407.419 152.191L409.165 151.183L407.42 150.175L405.674 151.184L407.419 152.191ZM316.665 123.996L314.919 125.004L316.663 126.011L318.41 125.003L316.665 123.996ZM362.051 126L363.797 124.992L362.052 123.985L360.306 124.993L362.051 126ZM407.497 47.3825L409.243 46.3743L407.498 45.367L405.752 46.3752L407.497 47.3825ZM498.252 73.5622L499.998 72.554L498.253 71.5466L496.507 72.5548L498.252 73.5622ZM452.885 45.3558L451.139 46.364L452.884 47.3713L454.63 46.3631L452.885 45.3558ZM362.09 73.5959L363.836 72.5877L362.091 71.5803L360.345 72.5885L362.09 73.5959ZM452.864 73.5734L454.611 72.5652L452.866 71.5579L451.119 72.5661L452.864 73.5734ZM498.232 99.7643L499.979 98.7561L498.234 97.7488L496.487 98.757L498.232 99.7643ZM452.845 99.7755L454.591 98.7673L452.846 97.76L451.1 98.7682L452.845 99.7755ZM407.477 73.5847L409.223 72.5765L407.479 71.5691L405.732 72.5773L407.477 73.5847ZM362.109 47.3938L363.856 46.3856L362.111 45.3782L360.364 46.3864L362.109 47.3938ZM407.517 19.6688L404.027 17.6541L403.154 18.1582L406.644 20.1729L403.151 22.1893L404.024 22.6929L407.516 20.6765L411.006 22.6912L411.879 22.1871L408.39 20.1724L411.882 18.156L411.01 17.6523L407.517 19.6688ZM267.807 96.2941L266.934 96.7982L270.423 98.8129L266.931 100.829L267.803 101.333L271.296 99.3166L274.786 101.331L275.659 100.827L272.169 98.8125L275.662 96.7961L274.79 96.2924L271.297 98.3088L267.807 96.2941ZM271.101 361.842L272.847 360.833L271.103 359.826L269.356 360.834L271.101 361.842ZM180.365 309.46L182.112 308.452L180.367 307.444L178.62 308.453L180.365 309.46ZM316.488 361.83L318.235 360.822L316.49 359.815L314.743 360.823L316.488 361.83ZM225.733 335.651L227.48 334.643L225.735 333.635L223.988 334.643L225.733 335.651ZM271.12 335.64L272.867 334.631L271.122 333.624L269.376 334.632L271.12 335.64ZM180.346 335.662L182.092 334.654L180.347 333.646L178.601 334.655L180.346 335.662ZM225.694 388.055L227.441 387.047L225.696 386.039L223.949 387.048L225.694 388.055ZM271.082 388.044L272.828 387.036L271.083 386.028L269.337 387.036L271.082 388.044ZM180.328 359.849L178.581 360.857L180.326 361.864L182.073 360.856L180.328 359.849ZM225.714 361.853L227.46 360.845L225.715 359.837L223.969 360.846L225.714 361.853ZM271.159 283.235L272.906 282.227L271.161 281.22L269.414 282.228L271.159 283.235ZM225.753 309.449L227.499 308.44L225.754 307.433L224.008 308.441L225.753 309.449ZM316.527 309.426L318.274 308.418L316.529 307.411L314.782 308.419L316.527 309.426ZM361.895 335.617L363.642 334.609L361.897 333.602L360.15 334.61L361.895 335.617ZM316.508 335.628L318.254 334.62L316.509 333.613L314.763 334.621L316.508 335.628ZM271.14 309.437L272.886 308.429L271.141 307.422L269.395 308.43L271.14 309.437ZM225.772 283.247L227.518 282.238L225.774 281.231L224.027 282.239L225.772 283.247ZM131.47 332.147L130.597 332.651L134.086 334.666L130.594 336.682L131.466 337.186L134.959 335.169L138.449 337.184L139.322 336.68L135.832 334.665L139.325 332.649L138.452 332.145L134.96 334.162L131.47 332.147ZM407.321 283.202L409.068 282.193L407.323 281.186L405.577 282.194L407.321 283.202ZM316.586 230.82L318.332 229.812L316.587 228.804L314.841 229.812L316.586 230.82ZM452.709 283.19L454.455 282.182L452.71 281.175L450.964 282.183L452.709 283.19ZM361.954 257.011L363.7 256.002L361.955 254.995L360.209 256.003L361.954 257.011ZM407.341 256.999L409.087 255.991L407.342 254.984L405.596 255.992L407.341 256.999ZM316.566 257.022L318.313 256.014L316.568 255.006L314.821 256.015L316.566 257.022ZM361.915 309.415L363.661 308.407L361.916 307.399L360.17 308.408L361.915 309.415ZM407.302 309.404L409.048 308.396L407.303 307.388L405.557 308.396L407.302 309.404ZM316.548 281.209L314.802 282.217L316.547 283.224L318.293 282.216L316.548 281.209ZM361.934 283.213L363.68 282.205L361.936 281.197L360.189 282.205L361.934 283.213ZM407.38 204.595L409.126 203.587L407.381 202.58L405.635 203.588L407.38 204.595ZM361.973 230.809L363.719 229.8L361.974 228.793L360.228 229.801L361.973 230.809ZM452.748 230.786L454.494 229.778L452.749 228.771L451.003 229.779L452.748 230.786ZM498.116 256.977L499.862 255.969L498.117 254.961L496.371 255.97L498.116 256.977ZM452.728 256.988L454.475 255.98L452.73 254.973L450.983 255.981L452.728 256.988ZM407.36 230.797L409.107 229.789L407.362 228.782L405.615 229.79L407.36 230.797ZM361.992 204.606L363.739 203.598L361.994 202.591L360.248 203.599L361.992 204.606ZM267.69 253.507L266.817 254.011L270.307 256.026L266.814 258.042L267.686 258.546L271.179 256.529L274.669 258.544L275.542 258.04L272.052 256.025L275.545 254.009L274.673 253.505L271.18 255.522L267.69 253.507ZM543.542 204.562L545.288 203.553L543.543 202.546L541.797 203.554L543.542 204.562ZM452.806 152.18L454.552 151.172L452.808 150.164L451.061 151.172L452.806 152.18ZM588.929 204.55L590.676 203.542L588.931 202.535L587.184 203.543L588.929 204.55ZM498.174 178.371L499.92 177.362L498.175 176.355L496.429 177.363L498.174 178.371ZM543.561 178.359L545.308 177.351L543.563 176.344L541.816 177.352L543.561 178.359ZM452.787 178.382L454.533 177.374L452.788 176.366L451.042 177.375L452.787 178.382ZM498.135 230.775L499.881 229.767L498.137 228.759L496.39 229.768L498.135 230.775ZM543.522 230.764L545.269 229.755L543.524 228.748L541.777 229.756L543.522 230.764ZM452.769 202.568L451.022 203.577L452.767 204.584L454.514 203.576L452.769 202.568ZM498.154 204.573L499.901 203.565L498.156 202.557L496.41 203.565L498.154 204.573ZM543.6 125.955L545.347 124.947L543.602 123.94L541.855 124.948L543.6 125.955ZM634.355 152.135L636.102 151.127L634.357 150.119L632.611 151.127L634.355 152.135ZM588.989 123.928L587.243 124.937L588.988 125.944L590.734 124.936L588.989 123.928ZM498.193 152.169L499.94 151.16L498.195 150.153L496.448 151.161L498.193 152.169ZM588.968 152.146L590.714 151.138L588.97 150.131L587.223 151.139L588.968 152.146ZM634.336 178.337L636.082 177.329L634.337 176.321L632.591 177.33L634.336 178.337ZM588.949 178.348L590.695 177.34L588.95 176.333L587.204 177.341L588.949 178.348ZM543.581 152.157L545.327 151.149L543.582 150.142L541.836 151.15L543.581 152.157ZM498.213 125.966L499.959 124.958L498.214 123.951L496.468 124.959L498.213 125.966ZM540.131 96.2267L539.258 96.7308L542.748 98.7455L539.255 100.762L540.127 101.266L543.62 99.2492L547.11 101.264L547.983 100.76L544.493 98.7451L547.986 96.7287L547.114 96.225L543.621 98.2414L540.131 96.2267ZM403.911 174.867L403.037 175.371L406.527 177.386L403.034 179.402L403.907 179.906L407.4 177.889L410.889 179.904L411.763 179.4L408.273 177.385L411.766 175.369L410.893 174.865L407.4 176.881L403.911 174.867ZM452.573 466.605L454.319 465.597L452.574 464.59L450.828 465.598L452.573 466.605ZM407.205 440.414L408.951 439.406L407.206 438.399L405.46 439.407L407.205 440.414ZM316.469 388.033L318.215 387.024L316.47 386.017L314.724 387.025L316.469 388.033ZM452.592 440.403L454.338 439.395L452.594 438.388L450.847 439.396L452.592 440.403ZM361.837 414.223L363.583 413.215L361.838 412.208L360.092 413.216L361.837 414.223ZM407.224 414.212L408.971 413.204L407.226 412.197L405.479 413.205L407.224 414.212ZM316.449 414.235L318.196 413.226L316.451 412.219L314.705 413.227L316.449 414.235ZM361.798 466.628L363.544 465.619L361.799 464.612L360.053 465.62L361.798 466.628ZM407.185 466.616L408.932 465.608L407.187 464.601L405.44 465.609L407.185 466.616ZM316.431 438.421L314.685 439.429L316.43 440.437L318.176 439.429L316.431 438.421ZM361.817 440.426L363.564 439.417L361.819 438.41L360.072 439.418L361.817 440.426ZM407.263 361.808L409.009 360.8L407.265 359.792L405.518 360.801L407.263 361.808ZM361.856 388.021L363.603 387.013L361.858 386.006L360.111 387.014L361.856 388.021ZM452.631 387.999L454.377 386.991L452.632 385.983L450.886 386.991L452.631 387.999ZM497.999 414.19L499.745 413.182L498 412.174L496.254 413.182L497.999 414.19ZM497.979 440.392L499.726 439.384L497.981 438.376L496.234 439.384L497.979 440.392ZM452.611 414.201L454.358 413.193L452.613 412.185L450.867 413.194L452.611 414.201ZM407.244 388.01L408.99 387.002L407.245 385.995L405.499 387.003L407.244 388.01ZM361.876 361.819L363.622 360.811L361.877 359.804L360.131 360.812L361.876 361.819ZM267.573 410.72L266.7 411.224L270.19 413.238L266.697 415.255L267.57 415.758L271.062 413.742L274.552 415.757L275.426 415.253L271.936 413.238L275.429 411.221L274.556 410.718L271.063 412.734L267.573 410.72ZM403.677 489.292L402.804 489.796L406.294 491.811L402.801 493.827L403.673 494.331L407.166 492.315L410.656 494.329L411.529 493.825L408.039 491.811L411.532 489.794L410.66 489.29L407.167 491.307L403.677 489.292ZM588.793 387.965L590.539 386.957L588.794 385.95L587.048 386.958L588.793 387.965ZM543.425 361.774L545.172 360.766L543.427 359.759L541.68 360.767L543.425 361.774ZM452.689 309.392L454.436 308.384L452.691 307.377L450.944 308.385L452.689 309.392ZM588.812 361.763L590.559 360.755L588.814 359.747L587.068 360.756L588.812 361.763ZM498.057 335.583L499.804 334.575L498.059 333.568L496.312 334.576L498.057 335.583ZM543.445 335.572L545.191 334.564L543.446 333.557L541.7 334.565L543.445 335.572ZM452.67 335.595L454.416 334.586L452.671 333.579L450.925 334.587L452.67 335.595ZM498.018 387.988L499.765 386.979L498.02 385.972L496.273 386.98L498.018 387.988ZM543.406 387.976L545.152 386.968L543.407 385.961L541.661 386.969L543.406 387.976ZM452.652 359.781L450.905 360.789L452.65 361.797L454.397 360.789L452.652 359.781ZM498.038 361.785L499.784 360.777L498.039 359.77L496.293 360.778L498.038 361.785ZM543.483 283.168L545.23 282.16L543.485 281.152L541.739 282.161L543.483 283.168ZM498.077 309.381L499.823 308.373L498.078 307.366L496.332 308.374L498.077 309.381ZM588.851 309.359L590.598 308.351L588.853 307.343L587.106 308.351L588.851 309.359ZM634.219 335.55L635.966 334.541L634.221 333.534L632.474 334.542L634.219 335.55ZM634.2 361.752L635.946 360.744L634.201 359.736L632.455 360.744L634.2 361.752ZM588.832 335.561L590.578 334.553L588.833 333.545L587.087 334.554L588.832 335.561ZM543.464 309.37L545.21 308.362L543.465 307.354L541.719 308.363L543.464 309.37ZM498.096 283.179L499.843 282.171L498.098 281.164L496.351 282.172L498.096 283.179ZM403.794 332.079L402.921 332.584L406.41 334.598L402.918 336.615L403.79 337.118L407.283 335.102L410.773 337.117L411.646 336.613L408.156 334.598L411.649 332.581L410.776 332.078L407.284 334.094L403.794 332.079ZM539.897 410.652L539.024 411.156L542.514 413.171L539.021 415.187L539.894 415.691L543.387 413.675L546.876 415.689L547.75 415.185L544.26 413.17L547.753 411.154L546.88 410.65L543.387 412.667L539.897 410.652ZM725.013 309.325L726.76 308.317L725.015 307.31L723.268 308.318L725.013 309.325ZM679.645 283.134L681.392 282.126L679.647 281.119L677.901 282.127L679.645 283.134ZM588.91 230.752L590.656 229.744L588.911 228.737L587.165 229.745L588.91 230.752ZM725.033 283.123L726.779 282.115L725.034 281.107L723.288 282.116L725.033 283.123ZM634.278 256.943L636.024 255.935L634.279 254.928L632.533 255.936L634.278 256.943ZM679.665 256.932L681.411 255.924L679.666 254.917L677.92 255.925L679.665 256.932ZM588.89 256.955L590.637 255.946L588.892 254.939L587.145 255.947L588.89 256.955ZM634.239 309.348L635.985 308.339L634.24 307.332L632.494 308.34L634.239 309.348ZM679.626 309.336L681.372 308.328L679.628 307.321L677.881 308.329L679.626 309.336ZM588.872 281.141L587.126 282.149L588.871 283.157L590.617 282.148L588.872 281.141ZM634.258 283.145L636.005 282.137L634.26 281.13L632.513 282.138L634.258 283.145ZM679.704 204.528L681.45 203.52L679.705 202.512L677.959 203.521L679.704 204.528ZM770.459 230.708L772.206 229.699L770.461 228.692L768.714 229.7L770.459 230.708ZM725.093 202.501L723.346 203.509L725.091 204.517L726.838 203.508L725.093 202.501ZM634.297 230.741L636.043 229.733L634.299 228.726L632.552 229.734L634.297 230.741ZM725.072 230.719L726.818 229.711L725.073 228.703L723.327 229.711L725.072 230.719ZM770.44 256.91L772.186 255.901L770.441 254.894L768.695 255.902L770.44 256.91ZM770.42 283.112L772.167 282.104L770.422 281.096L768.675 282.104L770.42 283.112ZM725.052 256.921L726.799 255.913L725.054 254.905L723.307 255.914L725.052 256.921ZM679.684 230.73L681.431 229.722L679.686 228.714L677.939 229.723L679.684 230.73ZM634.317 204.539L636.063 203.531L634.318 202.524L632.572 203.532L634.317 204.539ZM812.338 253.372L811.465 253.876L814.955 255.891L811.462 257.907L812.335 258.411L815.827 256.395L819.317 258.409L820.19 257.905L816.701 255.89L820.193 253.874L819.321 253.37L815.828 255.387L812.338 253.372ZM676.235 174.799L675.361 175.303L678.851 177.318L675.358 179.335L676.231 179.838L679.724 177.822L683.214 179.837L684.087 179.332L680.597 177.318L684.09 175.301L683.217 174.798L679.724 176.814L676.235 174.799ZM540.014 253.439L539.141 253.944L542.631 255.958L539.138 257.975L540.01 258.478L543.503 256.462L546.993 258.477L547.866 257.972L544.377 255.958L547.869 253.941L546.997 253.438L543.504 255.454L540.014 253.439ZM676.118 332.012L675.245 332.516L678.735 334.531L675.242 336.547L676.114 337.051L679.607 335.035L683.097 337.049L683.97 336.545L680.48 334.53L683.973 332.514L683.101 332.01L679.608 334.027L676.118 332.012Z" fill="#8F90A6"/>
</g>
</g>
<path d="M446.655 224.652C448.954 223.319 452.319 222.802 455.477 223.295L531.091 234.295C537.873 235.354 540.502 240.433 535.568 243.295L375.559 335.668C370.603 338.543 362.081 337.211 360.256 333.275L341.316 289.372C340.476 287.56 341.363 285.632 343.646 284.309L446.655 224.652Z" fill="url(#paint1_linear)"/>
<path d="M403.236 223.328C404.105 225.144 403.214 227.092 400.903 228.426L343.439 261.6C338.5 264.451 330.076 263.151 328.279 259.26L280.414 155.558C278.616 151.663 284.808 148.101 291.548 149.151L368.887 161.209C371.976 161.691 374.392 163.078 375.245 164.858L403.236 223.328Z" fill="url(#paint2_linear)"/>
<path d="M529.288 243.214C532.384 243.667 534.246 244.057 536.501 242.756L605.095 203.156C610.112 200.26 607.827 195.396 600.914 194.449L424.601 168.87C417.819 167.941 411.845 171.588 413.83 175.446L440.397 228.264L529.288 243.214Z" fill="#28293D"/>
<circle opacity="0.25" r="104.575" transform="matrix(0.866044 -0.499967 0.866044 0.499967 603 173.068)" fill="#E3FFF1" stroke="#57EBA1"/>
<circle opacity="0.5" r="82.0235" transform="matrix(0.866044 -0.499967 0.866044 0.499967 602.584 168.813)" fill="#E3FFF1" stroke="#57EBA1"/>
<circle opacity="0.75" r="58.2571" transform="matrix(0.866044 -0.499967 0.866044 0.499967 603.032 168.813)" fill="#E3FFF1" stroke="#57EBA1"/>
<circle r="37.0012" transform="matrix(0.866044 -0.499967 0.866044 0.499967 602.696 168.813)" fill="#E3FFF1" stroke="#57EBA1"/>
<circle opacity="0.25" r="127.38" transform="matrix(0.866044 -0.499967 0.866044 0.499967 288.5 127.872)" fill="#E3FFF1" stroke="#57EBA1"/>
<circle opacity="0.5" r="99.9338" transform="matrix(0.866044 -0.499967 0.866044 0.499967 287.994 122.692)" fill="#E3FFF1" stroke="#57EBA1"/>
<circle opacity="0.75" r="71.0094" transform="matrix(0.866044 -0.499967 0.866044 0.499967 288.538 122.692)" fill="#E3FFF1" stroke="#57EBA1"/>
<circle r="45.1402" transform="matrix(0.866044 -0.499967 0.866044 0.499967 288.13 122.692)" fill="#E3FFF1" stroke="#57EBA1"/>
<g filter="url(#filter0_dd)">
<rect width="84.0609" height="84.0609" rx="18" transform="matrix(0.866044 0.499968 -0.866044 0.499968 678.8 186.674)" fill="url(#paint3_linear)"/>
<rect width="84.0609" height="84.0609" rx="18" transform="matrix(0.866044 0.499968 -0.866044 0.499968 678.8 184)" fill="white"/>
<g clip-path="url(#clip0)">
<path d="M656.392 212.977C643.623 220.348 643.615 232.296 656.376 239.663C669.136 247.029 689.833 247.025 702.602 239.654C715.37 232.282 715.377 220.334 702.617 212.968C689.856 205.601 669.16 205.606 656.392 212.977ZM699.635 237.941C696.002 240.038 690.631 240.339 687.641 238.612L700.797 231.017C703.788 232.743 703.268 235.844 699.635 237.941ZM703.29 227.506L681.559 240.052L677.621 237.779L699.353 225.233L703.291 227.506L703.29 227.506ZM697.248 224.108L675.656 236.573C675.501 236.566 675.346 236.562 675.193 236.553C670.269 236.279 668.336 235.768 666.392 235.233C666.336 235.21 669.641 233.995 671.992 233.136C671.992 233.136 673.207 232.698 674.914 232.016C671.904 231.879 669.017 231.162 666.908 229.945C662.276 227.271 661.783 222.882 657.23 221.734C658.579 221.072 662.445 221.763 666.492 223.995C665.987 222.171 663.196 219.919 661.144 218.734C659.02 217.508 657.953 215.275 659.269 214.417C660.078 216.326 663.414 216.436 669.186 218.154C671.353 218.8 674.052 220.435 676.21 221.214C672.702 219.034 668.014 215.604 668.492 213.21C669.782 215.133 673.845 216.126 676.036 216.466C679.57 217.015 682.053 217.543 685.266 219.398C687.421 220.642 688.653 222.273 688.896 223.963C690.137 222.917 690.933 222.159 690.933 222.159L694.924 218.739C694.924 218.738 697.165 220.864 697.248 224.108Z" fill="#E6522C"/>
</g>
</g>
<g filter="url(#filter1_dd)">
<path d="M111.058 253.81L238.161 252.5L238.161 260.151C238.161 263.527 235.839 266.764 231.704 269.151L190.199 293.112C181.589 298.082 167.631 298.082 159.021 293.112L117.516 269.151C113.381 266.764 111.058 263.527 111.058 260.151L111.058 253.81Z" fill="url(#paint4_linear)"/>
<rect width="84.0609" height="84.0609" rx="18" transform="matrix(0.866044 0.499967 -0.866044 0.499967 174.61 211)" fill="white"/>
</g>
<g opacity="0.45">
<path d="M238 217.644L174.751 254.539L111.251 217.644L174.5 181L238 217.644Z" fill="url(#paint5_linear)"/>
<path d="M237.999 217.644V247.604L174.75 284.499L174.75 254.539L237.999 217.644Z" fill="url(#paint6_linear)"/>
<path d="M174.751 254.539V284.499L111 247.604L111.251 217.644L174.751 254.539Z" fill="url(#paint7_linear)"/>
</g>
<g filter="url(#filter2_dd)">
<rect width="84.0609" height="84.0609" rx="18" transform="matrix(0.866044 0.499968 -0.866044 0.499968 174.8 175.674)" fill="url(#paint8_linear)"/>
<rect width="84.0609" height="84.0609" rx="18" transform="matrix(0.866044 0.499967 -0.866044 0.499967 174.8 173)" fill="white"/>
<path d="M150.794 200.86C150.358 201.096 150.358 201.494 150.781 201.739L161.14 207.719C161.559 207.961 162.234 207.962 162.682 207.738C169.812 204.182 180.599 204.359 187.37 208.268C194.141 212.177 194.448 218.404 188.288 222.52C187.901 222.779 187.903 223.169 188.321 223.411L198.297 229.17C198.72 229.414 199.409 229.414 199.819 229.162C212.597 221.317 212.339 208.974 199.052 201.303C185.764 193.632 164.383 193.483 150.794 200.86Z" fill="#39D98A"/>
<path d="M166.498 210.812C166.433 210.848 166.368 210.884 166.304 210.921C161.968 213.425 161.968 217.484 166.304 219.987C170.641 222.49 177.672 222.49 182.008 219.987C182.072 219.95 182.135 219.913 182.197 219.875L166.498 210.812Z" fill="#223C37"/>
<path d="M182.198 219.876C186.344 217.365 186.281 213.388 182.008 210.922C177.736 208.455 170.848 208.419 166.499 210.812L182.198 219.876Z" fill="#376C66"/>
</g>
<g filter="url(#filter3_dd)">
<rect width="58.8609" height="58.8609" rx="12" transform="matrix(0.866044 0.499967 -0.866044 0.499967 100.976 179.857)" fill="url(#paint9_linear)"/>
<rect width="58.8609" height="58.8609" rx="12" transform="matrix(0.866044 0.499967 -0.866044 0.499967 100.976 178)" fill="white"/>
<rect width="6.75552" height="2.76362" rx="1.38181" transform="matrix(0.866262 -0.500093 0.866262 0.500093 99.2412 228.304)" fill="#3BC882"/>
<rect width="6.75552" height="2.76362" rx="1.38181" transform="matrix(0.866262 -0.500093 0.866262 0.500093 105.626 224.619)" fill="#39D98A"/>
<rect width="6.75552" height="2.76362" rx="1.38181" transform="matrix(0.866262 -0.500093 0.866262 0.500093 112.01 220.935)" fill="#23A966"/>
<rect width="6.75552" height="2.76362" rx="1.38181" transform="matrix(0.866262 -0.500093 0.866262 0.500093 118.394 217.246)" fill="#23A966"/>
<rect width="6.75552" height="2.76362" rx="1.38181" transform="matrix(0.866262 -0.500093 0.866262 0.500093 124.778 213.562)" fill="#23A966"/>
<rect width="6.75552" height="2.76362" rx="1.38181" transform="matrix(0.866263 -0.500092 0.866263 0.500092 131.162 209.877)" fill="#23A966"/>
<rect width="6.75552" height="2.76362" rx="1.38181" transform="matrix(0.866262 -0.500093 0.866262 0.500093 96.3154 226.619)" fill="#39D98A"/>
<rect width="6.75552" height="2.76362" rx="1.38181" transform="matrix(0.866262 -0.500093 0.866262 0.500093 102.7 222.935)" fill="#57EBA1"/>
<rect width="6.75552" height="2.76362" rx="1.38181" transform="matrix(0.866262 -0.500093 0.866262 0.500093 109.084 219.247)" fill="#3BC882"/>
<rect width="6.75552" height="2.76362" rx="1.38181" transform="matrix(0.866262 -0.500093 0.866262 0.500093 115.468 215.562)" fill="#23A966"/>
<rect width="6.75552" height="2.76362" rx="1.38181" transform="matrix(0.866262 -0.500093 0.866262 0.500093 121.852 211.877)" fill="#23A966"/>
<rect width="6.75552" height="2.76362" rx="1.38181" transform="matrix(0.866263 -0.500092 0.866263 0.500092 128.236 208.195)" fill="#23A966"/>
<rect width="6.75552" height="2.76362" rx="1.38181" transform="matrix(0.866262 -0.500093 0.866262 0.500093 93.3901 224.926)" fill="#39D98A"/>
<rect width="6.75552" height="2.76362" rx="1.38181" transform="matrix(0.866262 -0.500093 0.866262 0.500093 106.156 217.557)" fill="#39D98A"/>
<rect width="6.75552" height="2.76362" rx="1.38181" transform="matrix(0.866262 -0.500093 0.866262 0.500093 112.54 213.871)" fill="#3BC882"/>
<rect width="6.75552" height="2.76362" rx="1.38181" transform="matrix(0.866262 -0.500093 0.866262 0.500093 118.924 210.184)" fill="#3BC882"/>
<rect width="6.75552" height="2.76362" rx="1.38181" transform="matrix(0.866262 -0.500093 0.866262 0.500093 125.309 206.499)" fill="#3BC882"/>
<rect width="6.75552" height="2.76362" rx="1.38181" transform="matrix(0.866262 -0.500093 0.866262 0.500093 90.4634 223.24)" fill="#57EBA1"/>
<rect width="6.75552" height="2.76362" rx="1.38181" transform="matrix(0.866262 -0.500093 0.866262 0.500093 96.8481 219.556)" fill="#57EBA1"/>
<rect width="6.75552" height="2.76362" rx="1.38181" transform="matrix(0.866262 -0.500093 0.866262 0.500093 103.232 215.87)" fill="#57EBA1"/>
<rect width="6.75552" height="2.76362" rx="1.38181" transform="matrix(0.866262 -0.500093 0.866262 0.500093 109.616 212.183)" fill="#3BC882"/>
<rect width="6.75552" height="2.76362" rx="1.38181" transform="matrix(0.866262 -0.500093 0.866262 0.500093 116 208.498)" fill="#3BC882"/>
<rect width="6.75552" height="2.76362" rx="1.38181" transform="matrix(0.866262 -0.500093 0.866262 0.500093 122.384 204.813)" fill="#3BC882"/>
<rect width="6.75552" height="2.76362" rx="1.38181" transform="matrix(0.866262 -0.500093 0.866262 0.500093 87.5381 221.55)" fill="#E3FFF1"/>
<rect width="6.75552" height="2.76362" rx="1.38181" transform="matrix(0.866262 -0.500093 0.866262 0.500093 93.9209 217.868)" fill="#E3FFF1"/>
<rect width="6.75552" height="2.76362" rx="1.38181" transform="matrix(0.866262 -0.500093 0.866262 0.500093 100.305 214.18)" fill="#57EBA1"/>
<rect width="6.75552" height="2.76362" rx="1.38181" transform="matrix(0.866262 -0.500093 0.866262 0.500093 113.073 206.808)" fill="#39D98A"/>
<rect width="6.75552" height="2.76362" rx="1.38181" transform="matrix(0.866262 -0.500093 0.866262 0.500093 119.457 203.123)" fill="#39D98A"/>
<rect width="6.75552" height="2.76362" rx="1.38181" transform="matrix(0.866262 -0.500093 0.866262 0.500093 84.6113 219.86)" fill="#E3FFF1"/>
<rect width="6.75552" height="2.76362" rx="1.38181" transform="matrix(0.866262 -0.500093 0.866262 0.500093 97.3804 212.488)" fill="#E3FFF1"/>
<rect width="6.75552" height="2.76362" rx="1.38181" transform="matrix(0.866262 -0.500093 0.866262 0.500093 103.765 208.809)" fill="#39D98A"/>
<rect width="6.75553" height="2.76363" rx="1.38181" transform="matrix(0.866261 -0.500093 0.866261 0.500093 110.148 205.121)" fill="#39D98A"/>
<rect width="6.75553" height="2.76362" rx="1.38181" transform="matrix(0.86626 -0.500094 0.86626 0.500094 116.533 201.437)" fill="#39D98A"/>
<rect width="6.75552" height="2.76362" rx="1.38181" transform="matrix(0.866262 -0.500093 0.866262 0.500093 81.6855 218.166)" fill="#57EBA1"/>
<rect width="6.75552" height="2.76362" rx="1.38181" transform="matrix(0.866262 -0.500093 0.866262 0.500093 88.0688 214.487)" fill="#57EBA1"/>
<rect width="6.75552" height="2.76362" rx="1.38181" transform="matrix(0.866262 -0.500093 0.866262 0.500093 100.837 207.111)" fill="#57EBA1"/>
<rect width="6.75552" height="2.76362" rx="1.38181" transform="matrix(0.866262 -0.500093 0.866262 0.500093 107.221 203.424)" fill="#57EBA1"/>
<rect width="6.75552" height="2.76362" rx="1.38181" transform="matrix(0.866262 -0.500093 0.866262 0.500093 113.605 199.739)" fill="#57EBA1"/>
<rect width="6.75553" height="2.76362" rx="1.38181" transform="matrix(0.86626 -0.500094 0.86626 0.500094 78.7603 216.479)" fill="#57EBA1"/>
<rect width="6.75552" height="2.76362" rx="1.38181" transform="matrix(0.866262 -0.500093 0.866262 0.500093 85.1436 212.798)" fill="#57EBA1"/>
<rect width="6.75552" height="2.76362" rx="1.38181" transform="matrix(0.866262 -0.500093 0.866262 0.500093 97.9116 205.428)" fill="#57EBA1"/>
<rect width="6.75553" height="2.76362" rx="1.38181" transform="matrix(0.86626 -0.500094 0.86626 0.500094 104.296 201.737)" fill="#57EBA1"/>
<rect width="6.75552" height="2.76362" rx="1.38181" transform="matrix(0.866262 -0.500093 0.866262 0.500093 110.68 198.056)" fill="#57EBA1"/>
<rect width="6.75552" height="2.76362" rx="1.38181" transform="matrix(0.866262 -0.500093 0.866262 0.500093 75.832 214.79)" fill="#E3FFF1"/>
<rect width="6.75553" height="2.76362" rx="1.38181" transform="matrix(0.86626 -0.500094 0.86626 0.500094 82.2178 211.105)" fill="#E3FFF1"/>
<rect width="6.75552" height="2.76362" rx="1.38181" transform="matrix(0.866262 -0.500093 0.866262 0.500093 94.9858 203.732)" fill="#E3FFF1"/>
<rect width="6.75553" height="2.76362" rx="1.38181" transform="matrix(0.86626 -0.500094 0.86626 0.500094 101.37 200.048)" fill="#E3FFF1"/>
<rect width="6.75553" height="2.76363" rx="1.38181" transform="matrix(0.866261 -0.500094 0.866261 0.500094 107.754 196.362)" fill="#E3FFF1"/>
<rect width="6.75552" height="2.76362" rx="1.38181" transform="matrix(0.866262 -0.500093 0.866262 0.500093 72.9072 213.102)" fill="#E3FFF1"/>
<rect width="6.75552" height="2.76362" rx="1.38181" transform="matrix(0.866262 -0.500093 0.866262 0.500093 92.0591 202.044)" fill="#E3FFF1"/>
<rect width="6.75552" height="2.76362" rx="1.38181" transform="matrix(0.866262 -0.500093 0.866262 0.500093 104.827 194.675)" fill="#E3FFF1"/>
<rect width="6.75552" height="2.76362" rx="1.38181" transform="matrix(0.866262 -0.500093 0.866262 0.500093 69.9814 211.413)" fill="#E3FFF1"/>
<rect width="6.75552" height="2.76362" rx="1.38181" transform="matrix(0.866262 -0.500093 0.866262 0.500093 82.7495 204.046)" fill="#E3FFF1"/>
<rect width="6.75552" height="2.76362" rx="1.38181" transform="matrix(0.866262 -0.500093 0.866262 0.500093 89.1338 200.358)" fill="#E3FFF1"/>
<rect width="6.75552" height="2.76362" rx="1.38181" transform="matrix(0.866262 -0.500093 0.866262 0.500093 101.902 192.989)" fill="#E3FFF1"/>
<rect width="6.75552" height="2.76362" rx="1.38181" transform="matrix(0.866262 -0.500093 0.866262 0.500093 79.8218 202.352)" fill="#E3FFF1"/>
<rect width="6.75552" height="2.76362" rx="1.38181" transform="matrix(0.866262 -0.500093 0.866262 0.500093 98.9741 191.294)" fill="#E3FFF1"/>
<rect width="6.75552" height="2.76362" rx="1.38181" transform="matrix(0.866262 -0.500093 0.866262 0.500093 68.3857 203.126)" fill="#E3FFF1"/>
<rect width="6.75553" height="2.76362" rx="1.38181" transform="matrix(0.86626 -0.500094 0.86626 0.500094 93.9219 188.381)" fill="#E3FFF1"/>
</g>
<g filter="url(#filter4_dd)">
<rect width="58.8609" height="58.8609" rx="12" transform="matrix(0.866044 0.499967 -0.866044 0.499967 193.976 133.857)" fill="url(#paint10_linear)"/>
<rect width="58.8609" height="58.8609" rx="12" transform="matrix(0.866044 0.499967 -0.866044 0.499967 193.976 132)" fill="white"/>
<g filter="url(#filter5_dd)">
<rect width="49.6874" height="20.1435" rx="8" transform="matrix(0.866262 -0.500093 0.866262 0.500093 174 173.849)" fill="white"/>
<path fill-rule="evenodd" clip-rule="evenodd" d="M196.685 176.87C199.576 175.201 199.576 172.495 196.685 170.826C193.793 169.157 189.106 169.157 186.215 170.826C183.324 172.495 183.324 175.201 186.215 176.87C189.106 178.539 193.793 178.539 196.685 176.87Z" fill="#FFE6E6"/>
<path d="M193.089 171.738C192.652 171.641 192.185 171.597 191.717 171.609L191.331 171.619C191.318 171.619 191.305 171.621 191.294 171.625C191.283 171.629 191.274 171.634 191.267 171.641C191.261 171.647 191.257 171.655 191.256 171.662C191.256 171.669 191.258 171.677 191.264 171.684L191.432 171.885C191.538 172.011 191.6 172.166 191.617 172.344C191.618 172.356 191.609 172.364 191.602 172.369C191.596 172.373 191.582 172.379 191.562 172.38C191.544 172.381 191.527 172.376 191.515 172.369C191.124 172.113 190.529 171.914 189.744 171.776C189.093 171.66 188.448 171.65 187.824 171.743L187.37 171.811C187.31 171.82 187.292 171.864 187.337 171.888L187.685 172.071C187.923 172.196 188.097 172.327 188.202 172.46C188.33 172.622 188.41 172.794 188.441 172.974C188.462 173.098 188.458 173.224 188.431 173.348C188.363 173.646 188.414 173.949 188.578 174.235C188.745 174.522 189.025 174.782 189.396 174.996C189.723 175.185 190.104 175.331 190.53 175.429C190.94 175.524 191.378 175.572 191.821 175.571C192.267 175.569 192.702 175.52 193.113 175.422C193.54 175.321 193.922 175.174 194.251 174.984C194.58 174.794 194.835 174.574 195.01 174.328C195.179 174.091 195.267 173.838 195.268 173.582C195.271 173.324 195.187 173.073 195.023 172.836C194.852 172.591 194.597 172.368 194.272 172.182C193.934 171.987 193.537 171.837 193.089 171.738Z" fill="#FF3B3B"/>
<rect width="10.7432" height="1.3429" rx="0.671451" transform="matrix(0.866262 -0.500093 0.866262 0.500093 202.065 169.902)" fill="#EBEBF0"/>
<rect width="24.1722" height="1.3429" rx="0.671451" transform="matrix(0.866262 -0.500093 0.866262 0.500093 199.883 168.643)" fill="#EBEBF0"/>
<rect width="11.4147" height="2.68581" rx="1.3429" transform="matrix(0.866262 -0.500093 0.866262 0.500093 196.394 166.628)" fill="#C7C9D9"/>
</g>
<g filter="url(#filter6_dd)">
<rect width="49.6874" height="20.1435" rx="8" transform="matrix(0.866262 -0.500093 0.866262 0.500093 153 160.849)" fill="white"/>
<path fill-rule="evenodd" clip-rule="evenodd" d="M175.685 163.87C178.576 162.201 178.576 159.495 175.685 157.826C172.793 156.157 168.106 156.157 165.215 157.826C162.324 159.495 162.324 162.201 165.215 163.87C168.106 165.539 172.793 165.539 175.685 163.87Z" fill="#E3FFF1"/>
<path d="M167.205 158.873C165.413 159.907 165.413 161.585 167.205 162.619C168.997 163.654 171.902 163.654 173.694 162.619C175.486 161.585 175.486 159.907 173.694 158.873C171.902 157.839 168.997 157.839 167.205 158.873ZM170.791 159.325L171.381 161.427C171.389 161.456 171.385 161.486 171.37 161.515C171.354 161.543 171.326 161.569 171.29 161.59C171.253 161.611 171.208 161.627 171.159 161.636C171.11 161.646 171.058 161.648 171.006 161.643L168.852 161.442C168.786 161.436 168.76 161.389 168.807 161.362L169.147 161.165C169.221 161.123 169.326 161.103 169.431 161.113L170.662 161.228L170.221 159.659C170.205 159.6 170.238 159.539 170.313 159.496L170.652 159.299C170.699 159.272 170.78 159.287 170.791 159.325Z" fill="#39D98A"/>
<rect width="10.7432" height="1.3429" rx="0.67145" transform="matrix(0.866262 -0.500093 0.866262 0.500093 181.065 156.902)" fill="#EBEBF0"/>
<rect width="24.1722" height="1.3429" rx="0.671451" transform="matrix(0.866262 -0.500093 0.866262 0.500093 178.883 155.643)" fill="#EBEBF0"/>
<rect width="11.4147" height="2.6858" rx="1.3429" transform="matrix(0.866262 -0.500093 0.866262 0.500093 175.394 153.628)" fill="#C7C9D9"/>
</g>
</g>
<g filter="url(#filter7_dd)">
<rect width="84.0609" height="84.0609" rx="18" transform="matrix(0.866044 0.499967 -0.866044 0.499967 498.8 290.674)" fill="url(#paint11_linear)"/>
<rect width="84.0609" height="84.0609" rx="18" transform="matrix(0.866044 0.499967 -0.866044 0.499967 498.8 288)" fill="white"/>
<path d="M516.912 327.432L497.255 324.329L524.478 340.045L535.509 321.594L475.052 313.308L489.406 348.21L521.367 341.842L494.144 326.125L499.518 337.474L506.589 336.167L510.124 338.208L496.336 341.107L487.85 320.696L523.206 325.595L518.185 333.555L514.65 331.514L516.912 327.432Z" fill="#FE7139"/>
</g>
<g filter="url(#filter8_dd)">
<path d="M447.159 192.054C449.458 190.722 452.823 190.204 455.981 190.698L531.595 201.697C538.377 202.757 541.006 207.835 536.072 210.697L376.063 303.071C371.107 305.945 362.585 304.613 360.76 300.678L341.82 256.775C340.98 254.963 341.867 253.035 344.149 251.711L447.159 192.054Z" fill="url(#paint12_linear)"/>
<path d="M447.196 190.201C449.495 188.868 452.859 188.351 456.018 188.844L531.632 199.843C538.414 200.903 541.043 205.982 536.108 208.844L376.099 301.217C371.143 304.092 362.622 302.759 360.797 298.824L341.857 254.921C341.016 253.109 341.903 251.181 344.186 249.858L447.196 190.201Z" fill="url(#paint13_linear)"/>
<path d="M403.776 188.877C404.646 190.693 403.754 192.641 401.443 193.975L343.979 227.149C339.04 230 330.616 228.7 328.819 224.809L280.954 121.107C279.156 117.212 285.348 113.649 292.089 114.7L369.427 126.758C372.516 127.24 374.932 128.627 375.785 130.407L403.776 188.877Z" fill="#39D98A"/>
<path d="M404.774 178.819C405.644 180.635 404.752 182.583 402.441 183.917L344.977 217.091C340.038 219.943 331.614 218.642 329.818 214.751L281.952 111.049C280.154 107.155 286.346 103.592 293.087 104.643L370.425 116.7C373.514 117.182 375.93 118.569 376.783 120.349L404.774 178.819Z" fill="#57EBA1"/>
<path d="M529.276 210.763C532.372 211.215 534.235 211.606 536.49 210.304L605.083 170.705C610.1 167.809 607.815 162.945 600.902 161.998L424.589 136.419C417.807 135.49 411.833 139.137 413.818 142.995L440.01 195.067C440.244 195.532 440.873 195.895 441.678 196.03L529.276 210.763Z" fill="url(#paint14_linear)"/>
<path d="M529.828 208.763C532.924 209.215 534.786 209.606 537.041 208.304L605.635 168.705C610.652 165.809 608.367 160.945 601.454 159.998L425.141 134.419C418.359 133.49 412.385 137.137 414.37 140.995L440.937 193.813L529.828 208.763Z" fill="#376C66"/>
</g>
<defs>
<filter id="filter0_dd" x="599.131" y="181.271" width="159.337" height="108.186" filterUnits="userSpaceOnUse" color-interpolation-filters="sRGB">
<feFlood flood-opacity="0" result="BackgroundImageFix"/>
<feColorMatrix in="SourceAlpha" type="matrix" values="0 0 0 0 0 0 0 0 0 0 0 0 0 0 0 0 0 0 127 0"/>
<feOffset dy="8"/>
<feGaussianBlur stdDeviation="8"/>
<feColorMatrix type="matrix" values="0 0 0 0 0.376471 0 0 0 0 0.380392 0 0 0 0 0.439216 0 0 0 0.16 0"/>
<feBlend mode="normal" in2="BackgroundImageFix" result="effect1_dropShadow"/>
<feColorMatrix in="SourceAlpha" type="matrix" values="0 0 0 0 0 0 0 0 0 0 0 0 0 0 0 0 0 0 127 0"/>
<feOffset dy="2"/>
<feGaussianBlur stdDeviation="2"/>
<feColorMatrix type="matrix" values="0 0 0 0 0.156863 0 0 0 0 0.160784 0 0 0 0 0.239216 0 0 0 0.04 0"/>
<feBlend mode="normal" in2="effect1_dropShadow" result="effect2_dropShadow"/>
<feBlend mode="normal" in="SourceGraphic" in2="effect2_dropShadow" result="shape"/>
</filter>
<filter id="filter1_dd" x="108.941" y="214.771" width="131.337" height="84.568" filterUnits="userSpaceOnUse" color-interpolation-filters="sRGB">
<feFlood flood-opacity="0" result="BackgroundImageFix"/>
<feColorMatrix in="SourceAlpha" type="matrix" values="0 0 0 0 0 0 0 0 0 0 0 0 0 0 0 0 0 0 127 0"/>
<feOffset dy="0.5"/>
<feGaussianBlur stdDeviation="1"/>
<feColorMatrix type="matrix" values="0 0 0 0 0.376471 0 0 0 0 0.380392 0 0 0 0 0.439216 0 0 0 0.16 0"/>
<feBlend mode="normal" in2="BackgroundImageFix" result="effect1_dropShadow"/>
<feColorMatrix in="SourceAlpha" type="matrix" values="0 0 0 0 0 0 0 0 0 0 0 0 0 0 0 0 0 0 127 0"/>
<feOffset/>
<feGaussianBlur stdDeviation="0.5"/>
<feColorMatrix type="matrix" values="0 0 0 0 0.156863 0 0 0 0 0.160784 0 0 0 0 0.239216 0 0 0 0.08 0"/>
<feBlend mode="normal" in2="effect1_dropShadow" result="effect2_dropShadow"/>
<feBlend mode="normal" in="SourceGraphic" in2="effect2_dropShadow" result="shape"/>
</filter>
<filter id="filter2_dd" x="85" y="165" width="179.078" height="116.908" filterUnits="userSpaceOnUse" color-interpolation-filters="sRGB">
<feFlood flood-opacity="0" result="BackgroundImageFix"/>
<feColorMatrix in="SourceAlpha" type="matrix" values="0 0 0 0 0 0 0 0 0 0 0 0 0 0 0 0 0 0 127 0"/>
<feOffset dy="8"/>
<feGaussianBlur stdDeviation="8"/>
<feColorMatrix type="matrix" values="0 0 0 0 0.376471 0 0 0 0 0.380392 0 0 0 0 0.439216 0 0 0 0.16 0"/>
<feBlend mode="normal" in2="BackgroundImageFix" result="effect1_dropShadow"/>
<feColorMatrix in="SourceAlpha" type="matrix" values="0 0 0 0 0 0 0 0 0 0 0 0 0 0 0 0 0 0 127 0"/>
<feOffset dy="2"/>
<feGaussianBlur stdDeviation="2"/>
<feColorMatrix type="matrix" values="0 0 0 0 0.156863 0 0 0 0 0.160784 0 0 0 0 0.239216 0 0 0 0.04 0"/>
<feBlend mode="normal" in2="effect1_dropShadow" result="effect2_dropShadow"/>
<feBlend mode="normal" in="SourceGraphic" in2="effect2_dropShadow" result="shape"/>
</filter>
<filter id="filter3_dd" x="52.0879" y="179.515" width="97.7767" height="61.6855" filterUnits="userSpaceOnUse" color-interpolation-filters="sRGB">
<feFlood flood-opacity="0" result="BackgroundImageFix"/>
<feColorMatrix in="SourceAlpha" type="matrix" values="0 0 0 0 0 0 0 0 0 0 0 0 0 0 0 0 0 0 127 0"/>
<feOffset dy="2"/>
<feGaussianBlur stdDeviation="2"/>
<feColorMatrix type="matrix" values="0 0 0 0 0.376471 0 0 0 0 0.380392 0 0 0 0 0.439216 0 0 0 0.16 0"/>
<feBlend mode="normal" in2="BackgroundImageFix" result="effect1_dropShadow"/>
<feColorMatrix in="SourceAlpha" type="matrix" values="0 0 0 0 0 0 0 0 0 0 0 0 0 0 0 0 0 0 127 0"/>
<feOffset/>
<feGaussianBlur stdDeviation="0.5"/>
<feColorMatrix type="matrix" values="0 0 0 0 0.156863 0 0 0 0 0.160784 0 0 0 0 0.239216 0 0 0 0.04 0"/>
<feBlend mode="normal" in2="effect1_dropShadow" result="effect2_dropShadow"/>
<feBlend mode="normal" in="SourceGraphic" in2="effect2_dropShadow" result="shape"/>
</filter>
<filter id="filter4_dd" x="147.088" y="134.015" width="93.7767" height="57.6855" filterUnits="userSpaceOnUse" color-interpolation-filters="sRGB">
<feFlood flood-opacity="0" result="BackgroundImageFix"/>
<feColorMatrix in="SourceAlpha" type="matrix" values="0 0 0 0 0 0 0 0 0 0 0 0 0 0 0 0 0 0 127 0"/>
<feOffset dy="0.5"/>
<feGaussianBlur stdDeviation="1"/>
<feColorMatrix type="matrix" values="0 0 0 0 0.376471 0 0 0 0 0.380392 0 0 0 0 0.439216 0 0 0 0.16 0"/>
<feBlend mode="normal" in2="BackgroundImageFix" result="effect1_dropShadow"/>
<feColorMatrix in="SourceAlpha" type="matrix" values="0 0 0 0 0 0 0 0 0 0 0 0 0 0 0 0 0 0 127 0"/>
<feOffset/>
<feGaussianBlur stdDeviation="0.5"/>
<feColorMatrix type="matrix" values="0 0 0 0 0.156863 0 0 0 0 0.160784 0 0 0 0 0.239216 0 0 0 0.08 0"/>
<feBlend mode="normal" in2="effect1_dropShadow" result="effect2_dropShadow"/>
<feBlend mode="normal" in="SourceGraphic" in2="effect2_dropShadow" result="shape"/>
</filter>
<filter id="filter5_dd" x="176.06" y="149.844" width="56.3727" height="34.2348" filterUnits="userSpaceOnUse" color-interpolation-filters="sRGB">
<feFlood flood-opacity="0" result="BackgroundImageFix"/>
<feColorMatrix in="SourceAlpha" type="matrix" values="0 0 0 0 0 0 0 0 0 0 0 0 0 0 0 0 0 0 127 0"/>
<feOffset dy="0.5"/>
<feGaussianBlur stdDeviation="1"/>
<feColorMatrix type="matrix" values="0 0 0 0 0.376471 0 0 0 0 0.380392 0 0 0 0 0.439216 0 0 0 0.16 0"/>
<feBlend mode="normal" in2="BackgroundImageFix" result="effect1_dropShadow"/>
<feColorMatrix in="SourceAlpha" type="matrix" values="0 0 0 0 0 0 0 0 0 0 0 0 0 0 0 0 0 0 127 0"/>
<feOffset/>
<feGaussianBlur stdDeviation="0.5"/>
<feColorMatrix type="matrix" values="0 0 0 0 0.156863 0 0 0 0 0.160784 0 0 0 0 0.239216 0 0 0 0.08 0"/>
<feBlend mode="normal" in2="effect1_dropShadow" result="effect2_dropShadow"/>
<feBlend mode="normal" in="SourceGraphic" in2="effect2_dropShadow" result="shape"/>
</filter>
<filter id="filter6_dd" x="155.06" y="136.844" width="56.3727" height="34.2348" filterUnits="userSpaceOnUse" color-interpolation-filters="sRGB">
<feFlood flood-opacity="0" result="BackgroundImageFix"/>
<feColorMatrix in="SourceAlpha" type="matrix" values="0 0 0 0 0 0 0 0 0 0 0 0 0 0 0 0 0 0 127 0"/>
<feOffset dy="0.5"/>
<feGaussianBlur stdDeviation="1"/>
<feColorMatrix type="matrix" values="0 0 0 0 0.376471 0 0 0 0 0.380392 0 0 0 0 0.439216 0 0 0 0.16 0"/>
<feBlend mode="normal" in2="BackgroundImageFix" result="effect1_dropShadow"/>
<feColorMatrix in="SourceAlpha" type="matrix" values="0 0 0 0 0 0 0 0 0 0 0 0 0 0 0 0 0 0 127 0"/>
<feOffset/>
<feGaussianBlur stdDeviation="0.5"/>
<feColorMatrix type="matrix" values="0 0 0 0 0.156863 0 0 0 0 0.160784 0 0 0 0 0.239216 0 0 0 0.08 0"/>
<feBlend mode="normal" in2="effect1_dropShadow" result="effect2_dropShadow"/>
<feBlend mode="normal" in="SourceGraphic" in2="effect2_dropShadow" result="shape"/>
</filter>
<filter id="filter7_dd" x="431.131" y="291.271" width="135.337" height="84.1857" filterUnits="userSpaceOnUse" color-interpolation-filters="sRGB">
<feFlood flood-opacity="0" result="BackgroundImageFix"/>
<feColorMatrix in="SourceAlpha" type="matrix" values="0 0 0 0 0 0 0 0 0 0 0 0 0 0 0 0 0 0 127 0"/>
<feOffset dy="2"/>
<feGaussianBlur stdDeviation="2"/>
<feColorMatrix type="matrix" values="0 0 0 0 0.376471 0 0 0 0 0.380392 0 0 0 0 0.439216 0 0 0 0.16 0"/>
<feBlend mode="normal" in2="BackgroundImageFix" result="effect1_dropShadow"/>
<feColorMatrix in="SourceAlpha" type="matrix" values="0 0 0 0 0 0 0 0 0 0 0 0 0 0 0 0 0 0 127 0"/>
<feOffset/>
<feGaussianBlur stdDeviation="0.5"/>
<feColorMatrix type="matrix" values="0 0 0 0 0.156863 0 0 0 0 0.160784 0 0 0 0 0.239216 0 0 0 0.04 0"/>
<feBlend mode="normal" in2="effect1_dropShadow" result="effect2_dropShadow"/>
<feBlend mode="normal" in="SourceGraphic" in2="effect2_dropShadow" result="shape"/>
</filter>
<filter id="filter8_dd" x="276.639" y="102.456" width="335.702" height="208.159" filterUnits="userSpaceOnUse" color-interpolation-filters="sRGB">
<feFlood flood-opacity="0" result="BackgroundImageFix"/>
<feColorMatrix in="SourceAlpha" type="matrix" values="0 0 0 0 0 0 0 0 0 0 0 0 0 0 0 0 0 0 127 0"/>
<feOffset dy="2"/>
<feGaussianBlur stdDeviation="2"/>
<feColorMatrix type="matrix" values="0 0 0 0 0.376471 0 0 0 0 0.380392 0 0 0 0 0.439216 0 0 0 0.16 0"/>
<feBlend mode="normal" in2="BackgroundImageFix" result="effect1_dropShadow"/>
<feColorMatrix in="SourceAlpha" type="matrix" values="0 0 0 0 0 0 0 0 0 0 0 0 0 0 0 0 0 0 127 0"/>
<feOffset/>
<feGaussianBlur stdDeviation="0.5"/>
<feColorMatrix type="matrix" values="0 0 0 0 0.156863 0 0 0 0 0.160784 0 0 0 0 0.239216 0 0 0 0.04 0"/>
<feBlend mode="normal" in2="effect1_dropShadow" result="effect2_dropShadow"/>
<feBlend mode="normal" in="SourceGraphic" in2="effect2_dropShadow" result="shape"/>
</filter>
<radialGradient id="paint0_radial" cx="0" cy="0" r="1" gradientUnits="userSpaceOnUse" gradientTransform="translate(250.701 226.18) rotate(93.632) scale(244.71 229.238)">
<stop offset="0.744792" stop-color="#C4C4C4"/>
<stop offset="1" stop-color="#C4C4C4" stop-opacity="0"/>
</radialGradient>
<linearGradient id="paint1_linear" x1="513.737" y1="218.834" x2="533.99" y2="293.299" gradientUnits="userSpaceOnUse">
<stop stop-color="#28293D"/>
<stop offset="1" stop-color="#577CA4"/>
</linearGradient>
<linearGradient id="paint2_linear" x1="379.304" y1="163.497" x2="373.607" y2="265.742" gradientUnits="userSpaceOnUse">
<stop stop-color="#28293D"/>
<stop offset="1" stop-color="#577CA4"/>
</linearGradient>
<linearGradient id="paint3_linear" x1="-0.383015" y1="13.1213" x2="87.3745" y2="24.5005" gradientUnits="userSpaceOnUse">
<stop stop-color="#E4E4EB"/>
<stop offset="1" stop-color="#EDF0F4"/>
</linearGradient>
<linearGradient id="paint4_linear" x1="164.4" y1="234.294" x2="190.003" y2="291.857" gradientUnits="userSpaceOnUse">
<stop stop-color="#E4E4EB"/>
<stop offset="1" stop-color="#EDF0F4"/>
</linearGradient>
<linearGradient id="paint5_linear" x1="174.626" y1="181" x2="174.626" y2="254.539" gradientUnits="userSpaceOnUse">
<stop stop-color="#39D98A"/>
<stop offset="1" stop-color="#47FFA4" stop-opacity="0.42"/>
</linearGradient>
<linearGradient id="paint6_linear" x1="195.5" y1="231.499" x2="214" y2="257.999" gradientUnits="userSpaceOnUse">
<stop stop-color="#39D98A"/>
<stop offset="1" stop-color="#47FFA4" stop-opacity="0"/>
</linearGradient>
<linearGradient id="paint7_linear" x1="149.5" y1="231.999" x2="132" y2="259.999" gradientUnits="userSpaceOnUse">
<stop stop-color="#39D98A"/>
<stop offset="1" stop-color="#47FFA4" stop-opacity="0"/>
</linearGradient>
<linearGradient id="paint8_linear" x1="-0.383015" y1="13.1213" x2="87.3745" y2="24.5005" gradientUnits="userSpaceOnUse">
<stop stop-color="#E4E4EB"/>
<stop offset="1" stop-color="#EDF0F4"/>
</linearGradient>
<linearGradient id="paint9_linear" x1="7.59227" y1="58.8857" x2="37.9142" y2="-1.76219" gradientUnits="userSpaceOnUse">
<stop stop-color="#E4E4EB"/>
<stop offset="1" stop-color="#EDF0F4"/>
</linearGradient>
<linearGradient id="paint10_linear" x1="7.59227" y1="58.8857" x2="37.9142" y2="-1.76219" gradientUnits="userSpaceOnUse">
<stop stop-color="#E4E4EB"/>
<stop offset="1" stop-color="#EDF0F4"/>
</linearGradient>
<linearGradient id="paint11_linear" x1="-0.383015" y1="13.1213" x2="87.3745" y2="24.5005" gradientUnits="userSpaceOnUse">
<stop stop-color="#E4E4EB"/>
<stop offset="1" stop-color="#EDF0F4"/>
</linearGradient>
<linearGradient id="paint12_linear" x1="395.449" y1="221.907" x2="425.746" y2="274.388" gradientUnits="userSpaceOnUse">
<stop stop-color="#EFF4F8"/>
<stop offset="1" stop-color="#7695AD"/>
</linearGradient>
<linearGradient id="paint13_linear" x1="395.485" y1="220.053" x2="425.783" y2="272.535" gradientUnits="userSpaceOnUse">
<stop stop-color="#EFF4F8"/>
<stop offset="1" stop-color="#C2D8EA"/>
</linearGradient>
<linearGradient id="paint14_linear" x1="458.5" y1="193.5" x2="426.326" y2="134.921" gradientUnits="userSpaceOnUse">
<stop stop-color="#223C37"/>
<stop offset="1" stop-color="#223C37" stop-opacity="0"/>
</linearGradient>
<clipPath id="clip0">
<rect width="54.3212" height="53.6588" fill="white" transform="matrix(0.866262 -0.500092 0.866262 0.500092 633 226.167)"/>
</clipPath>
</defs>
</svg>
