<svg width="815" height="492" viewBox="0 0 815 492" fill="none" xmlns="http://www.w3.org/2000/svg">
<g opacity="0.45">
<mask id="mask0" mask-type="alpha" maskUnits="userSpaceOnUse" x="16" y="28" width="792" height="457">
<rect width="443.348" height="470.631" transform="matrix(0.866044 0.499967 -0.866044 0.499967 423.587 28)" fill="url(#paint0_radial)"/>
</mask>
<g mask="url(#mask0)">
<path opacity="0.15" d="M449.572 470.706L450.445 470.202L494.979 444.493L495.852 443.989L540.385 418.279L541.259 417.775L585.792 392.066L586.665 391.562L631.199 365.853L632.072 365.349L676.606 339.639L677.479 339.135L722.013 313.426L722.886 312.922L767.419 287.213L768.293 286.709L812.826 260.999L813.7 260.495L812.827 259.991L768.332 234.304L767.459 233.801L722.964 208.113L722.091 207.61L677.596 181.923L676.723 181.419L632.228 155.732L631.355 155.228L586.86 129.541L585.988 129.037L541.492 103.35L540.62 102.846L496.124 77.1589L495.252 76.6553L450.756 50.968L449.884 50.4644L405.388 24.7771L404.516 24.2735L403.643 24.7776L268.296 102.914L267.422 103.418L132.075 181.554L131.202 182.058L-5.01855 260.698L131.085 339.27L131.958 339.774L267.189 417.843L268.061 418.347L403.293 496.416L404.165 496.919L405.038 496.415L449.572 470.706ZM359.982 50.9905L404.515 25.2813L449.011 50.9685L404.477 76.6777L359.982 50.9905ZM405.349 77.1814L449.883 51.4721L494.379 77.1594L449.845 102.869L405.349 77.1814ZM450.717 103.372L495.251 77.663L539.746 103.35L495.213 129.06L450.717 103.372ZM496.085 129.563L540.619 103.854L585.114 129.541L540.581 155.25L496.085 129.563ZM541.453 155.754L585.987 130.045L630.482 155.732L585.949 181.441L541.453 155.754ZM586.821 181.945L631.355 156.236L675.85 181.923L631.317 207.632L586.821 181.945ZM632.189 208.136L676.723 182.427L721.218 208.114L676.684 233.823L632.189 208.136ZM677.557 234.327L722.09 208.617L766.586 234.305L722.052 260.014L677.557 234.327ZM722.925 260.518L767.458 234.808L811.954 260.496L767.42 286.205L722.925 260.518ZM314.575 77.2038L359.108 51.4946L403.604 77.1818L359.07 102.891L314.575 77.2038ZM359.943 103.395L404.476 77.6855L448.972 103.373L404.438 129.082L359.943 103.395ZM405.311 129.586L449.844 103.876L494.34 129.564L449.806 155.273L405.311 129.586ZM450.678 155.777L495.212 130.067L539.708 155.755L495.174 181.464L450.678 155.777ZM496.046 181.967L540.58 156.258L585.075 181.945L540.542 207.655L496.046 181.967ZM541.414 208.158L585.948 182.449L630.443 208.136L585.91 233.846L541.414 208.158ZM586.782 234.349L631.316 208.64L675.811 234.327L631.278 260.036L586.782 234.349ZM632.15 260.54L676.684 234.831L721.179 260.518L676.646 286.227L632.15 260.54ZM677.518 286.731L722.052 261.022L766.547 286.709L722.013 312.418L677.518 286.731ZM269.168 103.417L313.702 77.708L358.197 103.395L313.663 129.104L269.168 103.417ZM314.536 129.608L359.069 103.899L403.565 129.586L359.031 155.295L314.536 129.608ZM359.904 155.799L404.437 130.09L448.933 155.777L404.399 181.486L359.904 155.799ZM405.272 181.99L449.805 156.281L494.301 181.968L449.767 207.677L405.272 181.99ZM450.64 208.181L495.173 182.472L539.669 208.159L495.135 233.868L450.64 208.181ZM496.007 234.372L540.541 208.662L585.037 234.35L540.503 260.059L496.007 234.372ZM541.375 260.563L585.909 234.853L630.404 260.541L585.871 286.25L541.375 260.563ZM586.743 286.753L631.277 261.044L675.772 286.731L631.239 312.441L586.743 286.753ZM632.111 312.944L676.645 287.235L721.14 312.922L676.607 338.632L632.111 312.944ZM223.761 129.631L268.295 103.921L312.79 129.609L268.257 155.318L223.761 129.631ZM269.129 155.821L313.663 130.112L358.158 155.799L313.625 181.509L269.129 155.821ZM314.497 182.012L359.031 156.303L403.526 181.99L358.992 207.7L314.497 182.012ZM359.865 208.203L404.398 182.494L448.894 208.181L404.36 233.89L359.865 208.203ZM405.233 234.394L449.766 208.685L494.262 234.372L449.728 260.081L405.233 234.394ZM450.601 260.585L495.134 234.876L539.63 260.563L495.096 286.272L450.601 260.585ZM495.969 286.776L540.502 261.067L584.998 286.754L540.464 312.463L495.969 286.776ZM541.336 312.967L585.87 287.258L630.366 312.945L585.832 338.654L541.336 312.967ZM586.704 339.158L631.238 313.448L675.733 339.136L631.2 364.845L586.704 339.158ZM178.354 155.844L222.888 130.135L267.383 155.822L222.85 181.531L178.354 155.844ZM223.722 182.035L268.256 156.326L312.751 182.013L268.218 207.722L223.722 182.035ZM269.09 208.226L313.624 182.516L358.119 208.204L313.586 233.913L269.09 208.226ZM314.458 234.417L358.992 208.707L403.487 234.395L358.954 260.104L314.458 234.417ZM359.826 260.607L404.36 234.898L448.855 260.585L404.321 286.295L359.826 260.607ZM405.194 286.798L449.727 261.089L494.223 286.776L449.689 312.486L405.194 286.798ZM450.562 312.989L495.095 287.28L539.591 312.967L495.057 338.676L450.562 312.989ZM495.93 339.18L540.463 313.471L584.959 339.158L540.425 364.867L495.93 339.18ZM541.298 365.371L585.831 339.662L630.327 365.349L585.793 391.058L541.298 365.371ZM132.948 182.057L177.481 156.348L221.977 182.035L177.443 207.744L132.948 182.057ZM178.315 208.248L222.849 182.539L267.344 208.226L222.811 233.935L178.315 208.248ZM223.683 234.439L268.217 208.73L312.712 234.417L268.179 260.126L223.683 234.439ZM269.051 260.63L313.585 234.921L358.08 260.608L313.547 286.317L269.051 260.63ZM314.419 286.821L358.953 261.112L403.448 286.799L358.915 312.508L314.419 286.821ZM359.787 313.012L404.321 287.302L448.816 312.99L404.282 338.699L359.787 313.012ZM405.155 339.203L449.689 313.493L494.184 339.181L449.65 364.89L405.155 339.203ZM450.523 365.394L495.056 339.684L539.552 365.371L495.018 391.081L450.523 365.394ZM495.891 391.584L540.424 365.875L584.92 391.562L540.386 417.272L495.891 391.584ZM87.5407 208.271L132.074 182.561L176.57 208.249L132.036 233.958L87.5407 208.271ZM132.909 234.462L177.442 208.752L221.938 234.439L177.404 260.149L132.909 234.462ZM178.277 260.652L222.81 234.943L267.306 260.63L222.772 286.34L178.277 260.652ZM223.644 286.843L268.178 261.134L312.673 286.821L268.14 312.531L223.644 286.843ZM269.012 313.034L313.546 287.325L358.041 313.012L313.508 338.721L269.012 313.034ZM314.38 339.225L358.914 313.516L403.409 339.203L358.876 364.912L314.38 339.225ZM359.748 365.416L404.282 339.707L448.777 365.394L404.244 391.103L359.748 365.416ZM405.116 391.607L449.65 365.898L494.145 391.585L449.611 417.294L405.116 391.607ZM450.484 417.798L495.018 392.088L539.513 417.776L494.979 443.485L450.484 417.798ZM42.1339 234.484L86.6675 208.775L131.163 234.462L86.6294 260.171L42.1339 234.484ZM87.5018 260.675L132.035 234.966L176.531 260.653L131.997 286.362L87.5018 260.675ZM132.87 286.866L177.403 261.156L221.899 286.844L177.365 312.553L132.87 286.866ZM178.238 313.057L222.771 287.347L267.267 313.035L222.733 338.744L178.238 313.057ZM223.606 339.248L268.139 313.538L312.635 339.226L268.101 364.935L223.606 339.248ZM268.973 365.438L313.507 339.729L358.002 365.416L313.469 391.126L268.973 365.438ZM314.341 391.629L358.875 365.92L403.37 391.607L358.837 417.317L314.341 391.629ZM359.709 417.82L404.243 392.111L448.738 417.798L404.205 443.507L359.709 417.82ZM405.077 444.011L449.611 418.302L494.106 443.989L449.573 469.698L405.077 444.011ZM-3.27289 260.697L41.2607 234.988L85.7562 260.675L41.2226 286.385L-3.27289 260.697ZM42.095 286.888L86.6286 261.179L131.124 286.866L86.5905 312.575L42.095 286.888ZM87.4629 313.079L131.997 287.37L176.492 313.057L131.958 338.766L87.4629 313.079ZM132.831 339.27L177.364 313.561L221.86 339.248L177.326 364.957L132.831 339.27ZM178.199 365.461L222.732 339.752L267.228 365.439L222.694 391.148L178.199 365.461ZM223.567 391.652L268.1 365.943L312.596 391.63L268.062 417.339L223.567 391.652ZM268.935 417.843L313.468 392.133L357.964 417.821L313.43 443.53L268.935 417.843ZM314.302 444.034L358.836 418.324L403.331 444.012L358.798 469.721L314.302 444.034ZM359.67 470.224L404.204 444.515L448.699 470.202L404.166 495.912L359.67 470.224Z" fill="#8F90A6"/>
<path d="M130.252 286.866L131.999 285.858L133.744 286.865L131.997 287.873L130.252 286.866ZM41.2616 235.491L43.008 234.483L41.2631 233.476L39.5166 234.484L41.2616 235.491ZM177.385 287.862L179.131 286.854L177.386 285.846L175.64 286.855L177.385 287.862ZM86.6294 261.682L88.3759 260.674L86.6309 259.667L84.8845 260.675L86.6294 261.682ZM132.017 261.671L133.763 260.663L132.018 259.655L130.272 260.664L132.017 261.671ZM41.2421 261.693L42.9885 260.685L41.2436 259.678L39.4972 260.686L41.2421 261.693ZM86.5905 314.086L88.337 313.078L86.592 312.071L84.8456 313.079L86.5905 314.086ZM131.978 314.075L133.724 313.067L131.979 312.06L130.233 313.068L131.978 314.075ZM41.2241 285.88L39.4777 286.888L41.2226 287.896L42.9691 286.887L41.2241 285.88ZM86.61 287.884L88.3564 286.876L86.6115 285.869L84.8651 286.877L86.61 287.884ZM132.056 209.267L133.802 208.259L132.057 207.251L130.311 208.259L132.056 209.267ZM86.6489 235.48L88.3953 234.472L86.6504 233.465L84.904 234.473L86.6489 235.48ZM177.424 235.458L179.17 234.449L177.425 233.442L175.679 234.45L177.424 235.458ZM222.791 261.649L224.538 260.64L222.793 259.633L221.047 260.641L222.791 261.649ZM177.404 261.66L179.151 260.652L177.406 259.644L175.659 260.652L177.404 261.66ZM132.036 235.469L133.783 234.461L132.038 233.453L130.291 234.462L132.036 235.469ZM86.6684 209.278L88.4148 208.27L86.6699 207.262L84.9234 208.271L86.6684 209.278ZM-7.63396 258.178L-8.50717 258.682L-5.01733 260.697L-8.51016 262.714L-7.6377 263.217L-4.14487 261.201L-0.655034 263.216L0.218174 262.711L-3.27166 260.697L0.221167 258.68L-0.651292 258.177L-4.14412 260.193L-7.63396 258.178ZM268.218 209.233L269.964 208.225L268.219 207.218L266.473 208.226L268.218 209.233ZM177.482 156.851L179.228 155.843L177.483 154.836L175.737 155.844L177.482 156.851ZM313.605 209.222L315.352 208.214L313.607 207.206L311.86 208.215L313.605 209.222ZM222.85 183.042L224.596 182.034L222.851 181.027L221.105 182.035L222.85 183.042ZM268.237 183.031L269.984 182.023L268.239 181.015L266.492 182.024L268.237 183.031ZM177.463 183.053L179.209 182.045L177.464 181.038L175.718 182.046L177.463 183.053ZM222.811 235.446L224.557 234.438L222.812 233.431L221.066 234.439L222.811 235.446ZM268.198 235.435L269.945 234.427L268.2 233.42L266.453 234.428L268.198 235.435ZM177.445 207.24L175.698 208.248L177.443 209.256L179.189 208.247L177.445 207.24ZM222.83 209.244L224.577 208.236L222.832 207.229L221.085 208.237L222.83 209.244ZM268.276 130.627L270.023 129.619L268.278 128.611L266.531 129.619L268.276 130.627ZM222.869 156.84L224.616 155.832L222.871 154.825L221.124 155.833L222.869 156.84ZM313.644 156.818L315.39 155.809L313.645 154.802L311.899 155.81L313.644 156.818ZM359.012 183.009L360.758 182L359.013 180.993L357.267 182.001L359.012 183.009ZM313.625 183.02L315.371 182.012L313.626 181.004L311.88 182.012L313.625 183.02ZM268.257 156.829L270.003 155.821L268.258 154.813L266.512 155.822L268.257 156.829ZM222.889 130.638L224.635 129.63L222.89 128.622L221.144 129.631L222.889 130.638ZM128.586 179.538L127.713 180.042L131.203 182.057L127.71 184.074L128.583 184.577L132.076 182.561L135.565 184.575L136.439 184.071L132.949 182.057L136.442 180.04L135.569 179.537L132.076 181.553L128.586 179.538ZM404.438 130.593L406.185 129.585L404.44 128.577L402.693 129.586L404.438 130.593ZM313.702 78.2113L315.449 77.2031L313.704 76.1957L311.957 77.2039L313.702 78.2113ZM449.826 130.582L451.572 129.574L449.827 128.566L448.081 129.574L449.826 130.582ZM359.07 104.402L360.817 103.394L359.072 102.387L357.325 103.395L359.07 104.402ZM404.458 104.391L406.204 103.383L404.459 102.375L402.713 103.384L404.458 104.391ZM313.683 104.413L315.429 103.405L313.684 102.398L311.938 103.406L313.683 104.413ZM359.031 156.806L360.778 155.798L359.033 154.791L357.286 155.799L359.031 156.806ZM404.419 156.795L406.165 155.787L404.42 154.78L402.674 155.788L404.419 156.795ZM313.665 128.6L311.919 129.608L313.663 130.616L315.41 129.607L313.665 128.6ZM359.051 130.604L360.797 129.596L359.052 128.589L357.306 129.597L359.051 130.604ZM404.497 51.9867L406.243 50.9785L404.498 49.9711L402.752 50.9794L404.497 51.9867ZM495.252 78.1663L496.998 77.1581L495.253 76.1508L493.507 77.159L495.252 78.1663ZM449.885 49.9599L448.139 50.9681L449.884 51.9755L451.63 50.9673L449.885 49.9599ZM359.09 78.2L360.836 77.1918L359.091 76.1845L357.345 77.1927L359.09 78.2ZM449.864 78.1776L451.611 77.1694L449.866 76.162L448.119 77.1702L449.864 78.1776ZM495.232 104.368L496.979 103.36L495.234 102.353L493.487 103.361L495.232 104.368ZM449.845 104.38L451.591 103.371L449.846 102.364L448.1 103.372L449.845 104.38ZM404.477 78.1888L406.223 77.1806L404.479 76.1733L402.732 77.1815L404.477 78.1888ZM359.109 51.9979L360.856 50.9897L359.111 49.9824L357.364 50.9906L359.109 51.9979ZM404.517 24.2729L401.027 22.2582L400.154 22.7623L403.644 24.777L400.151 26.7934L401.024 27.2971L404.516 25.2807L408.006 27.2954L408.879 26.7913L405.39 24.7766L408.882 22.7602L408.01 22.2565L404.517 24.2729ZM264.807 100.898L263.934 101.402L267.423 103.417L263.931 105.433L264.803 105.937L268.296 103.921L271.786 105.935L272.659 105.431L269.169 103.417L272.662 101.4L271.79 100.897L268.297 102.913L264.807 100.898ZM268.101 366.446L269.847 365.438L268.103 364.43L266.356 365.438L268.101 366.446ZM177.365 314.064L179.112 313.056L177.367 312.048L175.62 313.057L177.365 314.064ZM313.488 366.435L315.235 365.426L313.49 364.419L311.743 365.427L313.488 366.435ZM222.733 340.255L224.48 339.247L222.735 338.239L220.988 339.248L222.733 340.255ZM268.12 340.244L269.867 339.235L268.122 338.228L266.376 339.236L268.12 340.244ZM177.346 340.266L179.092 339.258L177.347 338.251L175.601 339.259L177.346 340.266ZM222.694 392.659L224.441 391.651L222.696 390.644L220.949 391.652L222.694 392.659ZM268.082 392.648L269.828 391.64L268.083 390.632L266.337 391.641L268.082 392.648ZM177.328 364.453L175.581 365.461L177.326 366.468L179.073 365.46L177.328 364.453ZM222.714 366.457L224.46 365.449L222.715 364.441L220.969 365.45L222.714 366.457ZM268.159 287.839L269.906 286.831L268.161 285.824L266.414 286.832L268.159 287.839ZM222.753 314.053L224.499 313.045L222.754 312.037L221.008 313.045L222.753 314.053ZM313.527 314.03L315.274 313.022L313.529 312.015L311.782 313.023L313.527 314.03ZM358.895 340.221L360.642 339.213L358.897 338.206L357.15 339.214L358.895 340.221ZM313.508 340.232L315.254 339.224L313.509 338.217L311.763 339.225L313.508 340.232ZM268.14 314.042L269.886 313.033L268.141 312.026L266.395 313.034L268.14 314.042ZM222.772 287.851L224.518 286.842L222.774 285.835L221.027 286.843L222.772 287.851ZM128.47 336.751L127.597 337.255L131.086 339.27L127.594 341.286L128.466 341.79L131.959 339.773L135.449 341.788L136.322 341.284L132.832 339.269L136.325 337.253L135.452 336.749L131.96 338.766L128.47 336.751ZM404.321 287.806L406.068 286.798L404.323 285.79L402.577 286.798L404.321 287.806ZM313.586 235.424L315.332 234.416L313.587 233.408L311.841 234.417L313.586 235.424ZM449.709 287.795L451.455 286.786L449.71 285.779L447.964 286.787L449.709 287.795ZM358.954 261.615L360.7 260.607L358.955 259.599L357.209 260.608L358.954 261.615ZM404.341 261.604L406.087 260.595L404.342 259.588L402.596 260.596L404.341 261.604ZM313.566 261.626L315.313 260.618L313.568 259.611L311.821 260.619L313.566 261.626ZM358.915 314.019L360.661 313.011L358.916 312.004L357.17 313.012L358.915 314.019ZM404.302 314.008L406.048 313L404.303 311.992L402.557 313.001L404.302 314.008ZM313.548 285.813L311.802 286.821L313.547 287.828L315.293 286.82L313.548 285.813ZM358.934 287.817L360.68 286.809L358.936 285.801L357.189 286.81L358.934 287.817ZM404.38 209.199L406.126 208.191L404.381 207.184L402.635 208.192L404.38 209.199ZM358.973 235.413L360.719 234.405L358.974 233.397L357.228 234.405L358.973 235.413ZM449.748 235.39L451.494 234.382L449.749 233.375L448.003 234.383L449.748 235.39ZM495.116 261.581L496.862 260.573L495.117 259.566L493.371 260.574L495.116 261.581ZM449.728 261.592L451.475 260.584L449.73 259.577L447.983 260.585L449.728 261.592ZM404.36 235.402L406.107 234.393L404.362 233.386L402.615 234.394L404.36 235.402ZM358.992 209.211L360.739 208.202L358.994 207.195L357.248 208.203L358.992 209.211ZM264.69 258.111L263.817 258.615L267.307 260.63L263.814 262.646L264.686 263.15L268.179 261.133L271.669 263.148L272.542 262.644L269.052 260.629L272.545 258.613L271.673 258.109L268.18 260.126L264.69 258.111ZM540.542 209.166L542.288 208.157L540.543 207.15L538.797 208.158L540.542 209.166ZM449.806 156.784L451.552 155.776L449.808 154.768L448.061 155.777L449.806 156.784ZM585.929 209.154L587.676 208.146L585.931 207.139L584.184 208.147L585.929 209.154ZM495.174 182.975L496.92 181.967L495.175 180.959L493.429 181.967L495.174 182.975ZM540.561 182.964L542.308 181.955L540.563 180.948L538.816 181.956L540.561 182.964ZM449.787 182.986L451.533 181.978L449.788 180.971L448.042 181.979L449.787 182.986ZM495.135 235.379L496.881 234.371L495.137 233.363L493.39 234.372L495.135 235.379ZM540.522 235.368L542.269 234.36L540.524 233.352L538.777 234.36L540.522 235.368ZM449.769 207.173L448.022 208.181L449.767 209.188L451.514 208.18L449.769 207.173ZM495.154 209.177L496.901 208.169L495.156 207.161L493.41 208.17L495.154 209.177ZM540.6 130.559L542.347 129.551L540.602 128.544L538.855 129.552L540.6 130.559ZM631.355 156.739L633.102 155.731L631.357 154.723L629.611 155.732L631.355 156.739ZM585.989 128.533L584.243 129.541L585.988 130.548L587.734 129.54L585.989 128.533ZM495.193 156.773L496.94 155.764L495.195 154.757L493.448 155.765L495.193 156.773ZM585.968 156.75L587.714 155.742L585.97 154.735L584.223 155.743L585.968 156.75ZM631.336 182.941L633.082 181.933L631.337 180.926L629.591 181.934L631.336 182.941ZM585.949 182.952L587.695 181.944L585.95 180.937L584.204 181.945L585.949 182.952ZM540.581 156.761L542.327 155.753L540.582 154.746L538.836 155.754L540.581 156.761ZM495.213 130.571L496.959 129.562L495.214 128.555L493.468 129.563L495.213 130.571ZM537.131 100.831L536.258 101.335L539.748 103.35L536.255 105.366L537.127 105.87L540.62 103.853L544.11 105.868L544.983 105.364L541.493 103.349L544.986 101.333L544.114 100.829L540.621 102.846L537.131 100.831ZM400.911 179.471L400.037 179.975L403.527 181.99L400.034 184.006L400.907 184.51L404.4 182.493L407.889 184.508L408.763 184.004L405.273 181.989L408.766 179.973L407.893 179.469L404.4 181.486L400.911 179.471ZM449.573 471.209L451.319 470.201L449.574 469.194L447.828 470.202L449.573 471.209ZM404.205 445.018L405.951 444.01L404.206 443.003L402.46 444.011L404.205 445.018ZM313.469 392.637L315.215 391.628L313.47 390.621L311.724 391.629L313.469 392.637ZM449.592 445.007L451.338 443.999L449.594 442.992L447.847 444L449.592 445.007ZM358.837 418.828L360.583 417.819L358.838 416.812L357.092 417.82L358.837 418.828ZM404.224 418.816L405.971 417.808L404.226 416.801L402.479 417.809L404.224 418.816ZM313.449 418.839L315.196 417.831L313.451 416.823L311.705 417.831L313.449 418.839ZM358.798 471.232L360.544 470.224L358.799 469.216L357.053 470.224L358.798 471.232ZM404.185 471.221L405.932 470.212L404.187 469.205L402.44 470.213L404.185 471.221ZM313.431 443.025L311.685 444.034L313.43 445.041L315.176 444.033L313.431 443.025ZM358.817 445.03L360.564 444.021L358.819 443.014L357.072 444.022L358.817 445.03ZM404.263 366.412L406.009 365.404L404.265 364.397L402.518 365.405L404.263 366.412ZM358.856 392.625L360.603 391.617L358.858 390.61L357.111 391.618L358.856 392.625ZM449.631 392.603L451.377 391.595L449.632 390.587L447.886 391.596L449.631 392.603ZM494.999 418.794L496.745 417.786L495 416.778L493.254 417.787L494.999 418.794ZM494.979 444.996L496.726 443.988L494.981 442.98L493.234 443.989L494.979 444.996ZM449.611 418.805L451.358 417.797L449.613 416.79L447.867 417.798L449.611 418.805ZM404.244 392.614L405.99 391.606L404.245 390.599L402.499 391.607L404.244 392.614ZM358.876 366.423L360.622 365.415L358.877 364.408L357.131 365.416L358.876 366.423ZM264.573 415.324L263.7 415.828L267.19 417.842L263.697 419.859L264.57 420.363L268.062 418.346L271.552 420.361L272.426 419.857L268.936 417.842L272.429 415.826L271.556 415.322L268.063 417.338L264.573 415.324ZM400.677 493.896L399.804 494.4L403.294 496.415L399.801 498.432L400.673 498.935L404.166 496.919L407.656 498.933L408.529 498.429L405.039 496.415L408.532 494.398L407.66 493.895L404.167 495.911L400.677 493.896ZM585.793 392.569L587.539 391.561L585.794 390.554L584.048 391.562L585.793 392.569ZM540.425 366.378L542.172 365.37L540.427 364.363L538.68 365.371L540.425 366.378ZM449.689 313.997L451.436 312.988L449.691 311.981L447.944 312.989L449.689 313.997ZM585.812 366.367L587.559 365.359L585.814 364.352L584.068 365.36L585.812 366.367ZM495.057 340.188L496.804 339.179L495.059 338.172L493.312 339.18L495.057 340.188ZM540.445 340.176L542.191 339.168L540.446 338.161L538.7 339.169L540.445 340.176ZM449.67 340.199L451.416 339.191L449.671 338.183L447.925 339.191L449.67 340.199ZM495.018 392.592L496.765 391.584L495.02 390.576L493.273 391.584L495.018 392.592ZM540.406 392.581L542.152 391.572L540.407 390.565L538.661 391.573L540.406 392.581ZM449.652 364.385L447.905 365.394L449.65 366.401L451.397 365.393L449.652 364.385ZM495.038 366.39L496.784 365.381L495.039 364.374L493.293 365.382L495.038 366.39ZM540.483 287.772L542.23 286.764L540.485 285.757L538.739 286.765L540.483 287.772ZM495.077 313.985L496.823 312.977L495.078 311.97L493.332 312.978L495.077 313.985ZM585.851 313.963L587.598 312.955L585.853 311.947L584.106 312.956L585.851 313.963ZM631.219 340.154L632.966 339.146L631.221 338.138L629.474 339.146L631.219 340.154ZM631.2 366.356L632.946 365.348L631.201 364.34L629.455 365.349L631.2 366.356ZM585.832 340.165L587.578 339.157L585.833 338.15L584.087 339.158L585.832 340.165ZM540.464 313.974L542.21 312.966L540.465 311.959L538.719 312.967L540.464 313.974ZM495.096 287.783L496.843 286.775L495.098 285.768L493.351 286.776L495.096 287.783ZM400.794 336.684L399.921 337.188L403.41 339.202L399.918 341.219L400.79 341.723L404.283 339.706L407.773 341.721L408.646 341.217L405.156 339.202L408.649 337.186L407.776 336.682L404.284 338.698L400.794 336.684ZM536.897 415.256L536.024 415.76L539.514 417.775L536.021 419.791L536.894 420.295L540.387 418.279L543.876 420.293L544.75 419.789L541.26 417.775L544.753 415.758L543.88 415.255L540.387 417.271L536.897 415.256ZM722.013 313.929L723.76 312.921L722.015 311.914L720.268 312.922L722.013 313.929ZM676.645 287.738L678.392 286.73L676.647 285.723L674.901 286.731L676.645 287.738ZM585.91 235.357L587.656 234.348L585.911 233.341L584.165 234.349L585.91 235.357ZM722.033 287.727L723.779 286.719L722.034 285.712L720.288 286.72L722.033 287.727ZM631.278 261.547L633.024 260.539L631.279 259.532L629.533 260.54L631.278 261.547ZM676.665 261.536L678.411 260.528L676.666 259.521L674.92 260.529L676.665 261.536ZM585.89 261.559L587.637 260.551L585.892 259.543L584.145 260.551L585.89 261.559ZM631.239 313.952L632.985 312.943L631.24 311.936L629.494 312.944L631.239 313.952ZM676.626 313.94L678.372 312.932L676.628 311.925L674.881 312.933L676.626 313.94ZM585.872 285.745L584.126 286.753L585.871 287.761L587.617 286.753L585.872 285.745ZM631.258 287.75L633.005 286.741L631.26 285.734L629.513 286.742L631.258 287.75ZM676.704 209.132L678.45 208.124L676.705 207.116L674.959 208.125L676.704 209.132ZM767.459 235.312L769.206 234.303L767.461 233.296L765.714 234.304L767.459 235.312ZM722.093 207.105L720.346 208.113L722.091 209.121L723.838 208.113L722.093 207.105ZM631.297 235.345L633.043 234.337L631.299 233.33L629.552 234.338L631.297 235.345ZM722.072 235.323L723.818 234.315L722.073 233.307L720.327 234.316L722.072 235.323ZM767.44 261.514L769.186 260.506L767.441 259.498L765.695 260.506L767.44 261.514ZM767.42 287.716L769.167 286.708L767.422 285.7L765.675 286.709L767.42 287.716ZM722.052 261.525L723.799 260.517L722.054 259.509L720.307 260.518L722.052 261.525ZM676.684 235.334L678.431 234.326L676.686 233.319L674.939 234.327L676.684 235.334ZM631.317 209.143L633.063 208.135L631.318 207.128L629.572 208.136L631.317 209.143ZM809.338 257.976L808.465 258.48L811.955 260.495L808.462 262.511L809.335 263.015L812.827 260.999L816.317 263.013L817.19 262.509L813.701 260.495L817.193 258.478L816.321 257.974L812.828 259.991L809.338 257.976ZM673.235 179.404L672.361 179.908L675.851 181.922L672.358 183.939L673.231 184.442L676.724 182.426L680.214 184.441L681.087 183.937L677.597 181.922L681.09 179.905L680.217 179.402L676.724 181.418L673.235 179.404ZM537.014 258.044L536.141 258.548L539.631 260.562L536.138 262.579L537.01 263.082L540.503 261.066L543.993 263.081L544.866 262.577L541.377 260.562L544.869 258.546L543.997 258.042L540.504 260.058L537.014 258.044ZM673.118 336.616L672.245 337.12L675.735 339.135L672.242 341.151L673.114 341.655L676.607 339.639L680.097 341.653L680.97 341.149L677.48 339.135L680.973 337.118L680.101 336.615L676.608 338.631L673.118 336.616Z" fill="#8F90A6"/>
</g>
</g>
<path d="M446.655 224.652C448.954 223.32 452.319 222.802 455.477 223.296L531.091 234.295C537.873 235.355 540.502 240.433 535.568 243.296L375.559 335.669C370.603 338.544 362.081 337.211 360.256 333.276L341.316 289.373C340.476 287.561 341.363 285.633 343.646 284.309L446.655 224.652Z" fill="url(#paint1_linear)"/>
<path d="M403.236 223.328C404.105 225.145 403.214 227.092 400.903 228.427L343.439 261.6C338.5 264.452 330.076 263.151 328.279 259.26L280.414 155.559C278.616 151.664 284.808 148.101 291.548 149.152L368.887 161.21C371.976 161.691 374.392 163.078 375.245 164.858L403.236 223.328Z" fill="url(#paint2_linear)"/>
<path d="M529.288 243.215C532.384 243.667 534.246 244.058 536.501 242.756L605.095 203.157C610.112 200.261 607.827 195.397 600.914 194.45L424.601 168.871C417.819 167.942 411.845 171.589 413.83 175.446L440.397 228.265L529.288 243.215Z" fill="#28293D"/>
<circle opacity="0.25" r="104.575" transform="matrix(0.866044 -0.499967 0.866044 0.499967 603 173.069)" fill="#E3FFF1" stroke="#57EBA1"/>
<circle opacity="0.5" r="82.0235" transform="matrix(0.866044 -0.499967 0.866044 0.499967 602.584 168.813)" fill="#E3FFF1" stroke="#57EBA1"/>
<circle opacity="0.75" r="58.2571" transform="matrix(0.866044 -0.499967 0.866044 0.499967 603.031 168.813)" fill="#E3FFF1" stroke="#57EBA1"/>
<circle r="37.0012" transform="matrix(0.866044 -0.499967 0.866044 0.499967 602.696 168.813)" fill="#E3FFF1" stroke="#57EBA1"/>
<circle opacity="0.25" r="127.38" transform="matrix(0.866044 -0.499967 0.866044 0.499967 288.5 127.872)" fill="#E3FFF1" stroke="#57EBA1"/>
<circle opacity="0.5" r="99.9338" transform="matrix(0.866044 -0.499967 0.866044 0.499967 287.994 122.692)" fill="#E3FFF1" stroke="#57EBA1"/>
<circle opacity="0.75" r="71.0094" transform="matrix(0.866044 -0.499967 0.866044 0.499967 288.538 122.692)" fill="#E3FFF1" stroke="#57EBA1"/>
<circle r="45.1402" transform="matrix(0.866044 -0.499967 0.866044 0.499967 288.13 122.692)" fill="#E3FFF1" stroke="#57EBA1"/>
<g filter="url(#filter0_dd)">
<rect width="84.0609" height="84.0609" rx="18" transform="matrix(0.866044 0.499968 -0.866044 0.499968 678.801 186.674)" fill="url(#paint3_linear)"/>
<rect width="84.0609" height="84.0609" rx="18" transform="matrix(0.866044 0.499968 -0.866044 0.499968 678.801 184)" fill="white"/>
<g clip-path="url(#clip0)">
<path d="M656.393 212.976C643.624 220.348 643.616 232.295 656.377 239.662C669.137 247.029 689.834 247.024 702.603 239.653C715.371 232.282 715.378 220.334 702.618 212.967C689.857 205.601 669.161 205.605 656.393 212.976ZM699.636 237.941C696.003 240.038 690.632 240.338 687.642 238.611L700.798 231.016C703.789 232.743 703.269 235.843 699.636 237.941ZM703.291 227.506L681.56 240.052L677.622 237.778L699.354 225.232L703.292 227.506L703.291 227.506ZM697.249 224.107L675.657 236.572C675.502 236.566 675.347 236.561 675.194 236.553C670.27 236.279 668.337 235.768 666.392 235.232C666.337 235.21 669.642 233.994 671.993 233.135C671.993 233.135 673.208 232.697 674.915 232.016C671.905 231.878 669.018 231.162 666.909 229.944C662.277 227.27 661.784 222.882 657.231 221.734C658.58 221.072 662.446 221.762 666.493 223.994C665.988 222.171 663.197 219.918 661.145 218.734C659.021 217.507 657.954 215.274 659.27 214.417C660.079 216.325 663.415 216.435 669.187 218.154C671.354 218.8 674.053 220.435 676.211 221.214C672.703 219.033 668.015 215.604 668.493 213.21C669.783 215.132 673.846 216.125 676.037 216.466C679.571 217.014 682.054 217.543 685.267 219.398C687.422 220.642 688.654 222.272 688.897 223.963C690.138 222.916 690.934 222.159 690.934 222.159L694.925 218.738C694.925 218.738 697.166 220.863 697.249 224.107Z" fill="#E6522C"/>
</g>
</g>
<g filter="url(#filter1_dd)">
<path d="M111.058 253.809L238.161 252.5L238.161 260.151C238.161 263.526 235.839 266.763 231.704 269.15L190.199 293.111C181.589 298.082 167.631 298.082 159.021 293.111L117.516 269.15C113.381 266.763 111.058 263.526 111.058 260.151L111.058 253.809Z" fill="url(#paint4_linear)"/>
<rect width="84.0609" height="84.0609" rx="18" transform="matrix(0.866044 0.499967 -0.866044 0.499967 174.609 211)" fill="white"/>
</g>
<g opacity="0.45">
<path d="M238 217.644L174.752 254.539L111.252 217.644L174.501 181L238 217.644Z" fill="url(#paint5_linear)"/>
<path d="M238 217.644V247.604L174.751 284.499L174.751 254.539L238 217.644Z" fill="url(#paint6_linear)"/>
<path d="M174.751 254.539V284.499L111 247.604L111.251 217.644L174.751 254.539Z" fill="url(#paint7_linear)"/>
</g>
<g filter="url(#filter2_dd)">
<rect width="84.0609" height="84.0609" rx="18" transform="matrix(0.866044 0.499968 -0.866044 0.499968 174.801 175.674)" fill="url(#paint8_linear)"/>
<rect width="84.0609" height="84.0609" rx="18" transform="matrix(0.866044 0.499967 -0.866044 0.499967 174.801 173)" fill="white"/>
<path d="M150.794 200.86C150.359 201.096 150.358 201.494 150.781 201.739L161.14 207.719C161.559 207.961 162.235 207.962 162.683 207.738C169.812 204.182 180.599 204.359 187.371 208.268C194.142 212.177 194.448 218.404 188.288 222.52C187.901 222.779 187.903 223.169 188.322 223.411L198.297 229.17C198.721 229.414 199.41 229.414 199.82 229.162C212.597 221.317 212.34 208.974 199.052 201.303C185.765 193.632 164.383 193.483 150.794 200.86Z" fill="#39D98A"/>
<path d="M182.009 219.987C177.672 222.49 170.641 222.49 166.305 219.987C161.969 217.484 161.969 213.425 166.305 210.921C170.655 208.528 177.736 208.455 182.009 210.921C186.281 213.388 186.155 217.476 182.009 219.987Z" fill="#376C66"/>
<path d="M166.499 210.812C166.434 210.848 166.369 210.884 166.305 210.921C161.969 213.425 161.969 217.484 166.305 219.987C170.641 222.49 177.672 222.49 182.009 219.987C182.073 219.95 182.136 219.913 182.198 219.875L166.499 210.812Z" fill="#223C37"/>
</g>
<g filter="url(#filter3_dd)">
<rect width="58.8609" height="58.8609" rx="12" transform="matrix(0.866044 0.499967 -0.866044 0.499967 100.977 179.857)" fill="url(#paint9_linear)"/>
<rect width="58.8609" height="58.8609" rx="12" transform="matrix(0.866044 0.499967 -0.866044 0.499967 100.977 178)" fill="white"/>
<rect width="6.75552" height="2.76362" rx="1.38181" transform="matrix(0.866262 -0.500093 0.866262 0.500093 99.2412 228.304)" fill="#3BC882"/>
<rect width="6.75552" height="2.76362" rx="1.38181" transform="matrix(0.866262 -0.500093 0.866262 0.500093 105.626 224.62)" fill="#39D98A"/>
<rect width="6.75552" height="2.76362" rx="1.38181" transform="matrix(0.866262 -0.500093 0.866262 0.500093 112.01 220.935)" fill="#23A966"/>
<rect width="6.75552" height="2.76362" rx="1.38181" transform="matrix(0.866262 -0.500093 0.866262 0.500093 118.395 217.247)" fill="#23A966"/>
<rect width="6.75552" height="2.76362" rx="1.38181" transform="matrix(0.866262 -0.500093 0.866262 0.500093 124.778 213.562)" fill="#23A966"/>
<rect width="6.75552" height="2.76362" rx="1.38181" transform="matrix(0.866263 -0.500092 0.866263 0.500092 131.162 209.877)" fill="#23A966"/>
<rect width="6.75552" height="2.76362" rx="1.38181" transform="matrix(0.866262 -0.500093 0.866262 0.500093 96.3154 226.619)" fill="#39D98A"/>
<rect width="6.75552" height="2.76362" rx="1.38181" transform="matrix(0.866262 -0.500093 0.866262 0.500093 102.7 222.935)" fill="#57EBA1"/>
<rect width="6.75552" height="2.76362" rx="1.38181" transform="matrix(0.866262 -0.500093 0.866262 0.500093 109.084 219.247)" fill="#3BC882"/>
<rect width="6.75552" height="2.76362" rx="1.38181" transform="matrix(0.866262 -0.500093 0.866262 0.500093 115.468 215.562)" fill="#23A966"/>
<rect width="6.75552" height="2.76362" rx="1.38181" transform="matrix(0.866262 -0.500093 0.866262 0.500093 121.853 211.877)" fill="#23A966"/>
<rect width="6.75552" height="2.76362" rx="1.38181" transform="matrix(0.866263 -0.500092 0.866263 0.500092 128.236 208.195)" fill="#23A966"/>
<rect width="6.75552" height="2.76362" rx="1.38181" transform="matrix(0.866262 -0.500093 0.866262 0.500093 93.3906 224.926)" fill="#39D98A"/>
<rect width="6.75552" height="2.76362" rx="1.38181" transform="matrix(0.866262 -0.500093 0.866262 0.500093 106.156 217.556)" fill="#39D98A"/>
<rect width="6.75552" height="2.76362" rx="1.38181" transform="matrix(0.866262 -0.500093 0.866262 0.500093 112.541 213.871)" fill="#3BC882"/>
<rect width="6.75552" height="2.76362" rx="1.38181" transform="matrix(0.866262 -0.500093 0.866262 0.500093 118.925 210.184)" fill="#3BC882"/>
<rect width="6.75552" height="2.76362" rx="1.38181" transform="matrix(0.866262 -0.500093 0.866262 0.500093 125.309 206.499)" fill="#3BC882"/>
<rect width="6.75552" height="2.76362" rx="1.38181" transform="matrix(0.866262 -0.500093 0.866262 0.500093 90.4639 223.24)" fill="#57EBA1"/>
<rect width="6.75552" height="2.76362" rx="1.38181" transform="matrix(0.866262 -0.500093 0.866262 0.500093 96.8486 219.555)" fill="#57EBA1"/>
<rect width="6.75552" height="2.76362" rx="1.38181" transform="matrix(0.866262 -0.500093 0.866262 0.500093 103.232 215.87)" fill="#57EBA1"/>
<rect width="6.75552" height="2.76362" rx="1.38181" transform="matrix(0.866262 -0.500093 0.866262 0.500093 109.617 212.182)" fill="#3BC882"/>
<rect width="6.75552" height="2.76362" rx="1.38181" transform="matrix(0.866262 -0.500093 0.866262 0.500093 116.001 208.498)" fill="#3BC882"/>
<rect width="6.75552" height="2.76362" rx="1.38181" transform="matrix(0.866262 -0.500093 0.866262 0.500093 122.385 204.813)" fill="#3BC882"/>
<rect width="6.75552" height="2.76362" rx="1.38181" transform="matrix(0.866262 -0.500093 0.866262 0.500093 87.5381 221.55)" fill="#E3FFF1"/>
<rect width="6.75552" height="2.76362" rx="1.38181" transform="matrix(0.866262 -0.500093 0.866262 0.500093 93.9209 217.868)" fill="#E3FFF1"/>
<rect width="6.75552" height="2.76362" rx="1.38181" transform="matrix(0.866262 -0.500093 0.866262 0.500093 100.305 214.18)" fill="#57EBA1"/>
<rect width="6.75552" height="2.76362" rx="1.38181" transform="matrix(0.866262 -0.500093 0.866262 0.500093 113.073 206.808)" fill="#39D98A"/>
<rect width="6.75552" height="2.76362" rx="1.38181" transform="matrix(0.866262 -0.500093 0.866262 0.500093 119.457 203.123)" fill="#39D98A"/>
<rect width="6.75552" height="2.76362" rx="1.38181" transform="matrix(0.866262 -0.500093 0.866262 0.500093 84.6113 219.86)" fill="#E3FFF1"/>
<rect width="6.75552" height="2.76362" rx="1.38181" transform="matrix(0.866262 -0.500093 0.866262 0.500093 97.3809 212.488)" fill="#E3FFF1"/>
<rect width="6.75552" height="2.76362" rx="1.38181" transform="matrix(0.866262 -0.500093 0.866262 0.500093 103.765 208.808)" fill="#39D98A"/>
<rect width="6.75553" height="2.76363" rx="1.38181" transform="matrix(0.866261 -0.500093 0.866261 0.500093 110.148 205.121)" fill="#39D98A"/>
<rect width="6.75553" height="2.76362" rx="1.38181" transform="matrix(0.86626 -0.500094 0.86626 0.500094 116.532 201.436)" fill="#39D98A"/>
<rect width="6.75552" height="2.76362" rx="1.38181" transform="matrix(0.866262 -0.500093 0.866262 0.500093 81.6855 218.166)" fill="#57EBA1"/>
<rect width="6.75552" height="2.76362" rx="1.38181" transform="matrix(0.866262 -0.500093 0.866262 0.500093 88.0693 214.487)" fill="#57EBA1"/>
<rect width="6.75552" height="2.76362" rx="1.38181" transform="matrix(0.866262 -0.500093 0.866262 0.500093 100.837 207.112)" fill="#57EBA1"/>
<rect width="6.75552" height="2.76362" rx="1.38181" transform="matrix(0.866262 -0.500093 0.866262 0.500093 107.221 203.424)" fill="#57EBA1"/>
<rect width="6.75552" height="2.76362" rx="1.38181" transform="matrix(0.866262 -0.500093 0.866262 0.500093 113.605 199.739)" fill="#57EBA1"/>
<rect width="6.75553" height="2.76362" rx="1.38181" transform="matrix(0.86626 -0.500094 0.86626 0.500094 78.7598 216.48)" fill="#57EBA1"/>
<rect width="6.75552" height="2.76362" rx="1.38181" transform="matrix(0.866262 -0.500093 0.866262 0.500093 85.1436 212.798)" fill="#57EBA1"/>
<rect width="6.75552" height="2.76362" rx="1.38181" transform="matrix(0.866262 -0.500093 0.866262 0.500093 97.9111 205.428)" fill="#57EBA1"/>
<rect width="6.75553" height="2.76362" rx="1.38181" transform="matrix(0.86626 -0.500094 0.86626 0.500094 104.295 201.738)" fill="#57EBA1"/>
<rect width="6.75552" height="2.76362" rx="1.38181" transform="matrix(0.866262 -0.500093 0.866262 0.500093 110.68 198.056)" fill="#57EBA1"/>
<rect width="6.75552" height="2.76362" rx="1.38181" transform="matrix(0.866262 -0.500093 0.866262 0.500093 75.832 214.79)" fill="#E3FFF1"/>
<rect width="6.75553" height="2.76362" rx="1.38181" transform="matrix(0.86626 -0.500094 0.86626 0.500094 82.2178 211.105)" fill="#E3FFF1"/>
<rect width="6.75552" height="2.76362" rx="1.38181" transform="matrix(0.866262 -0.500093 0.866262 0.500093 94.9863 203.732)" fill="#E3FFF1"/>
<rect width="6.75553" height="2.76362" rx="1.38181" transform="matrix(0.86626 -0.500094 0.86626 0.500094 101.37 200.047)" fill="#E3FFF1"/>
<rect width="6.75553" height="2.76363" rx="1.38181" transform="matrix(0.866261 -0.500094 0.866261 0.500094 107.754 196.363)" fill="#E3FFF1"/>
<rect width="6.75552" height="2.76362" rx="1.38181" transform="matrix(0.866262 -0.500093 0.866262 0.500093 72.9072 213.102)" fill="#E3FFF1"/>
<rect width="6.75552" height="2.76362" rx="1.38181" transform="matrix(0.866262 -0.500093 0.866262 0.500093 92.0596 202.044)" fill="#E3FFF1"/>
<rect width="6.75552" height="2.76362" rx="1.38181" transform="matrix(0.866262 -0.500093 0.866262 0.500093 104.827 194.675)" fill="#E3FFF1"/>
<rect width="6.75552" height="2.76362" rx="1.38181" transform="matrix(0.866262 -0.500093 0.866262 0.500093 69.9814 211.413)" fill="#E3FFF1"/>
<rect width="6.75552" height="2.76362" rx="1.38181" transform="matrix(0.866262 -0.500093 0.866262 0.500093 82.75 204.047)" fill="#E3FFF1"/>
<rect width="6.75552" height="2.76362" rx="1.38181" transform="matrix(0.866262 -0.500093 0.866262 0.500093 89.1338 200.359)" fill="#E3FFF1"/>
<rect width="6.75552" height="2.76362" rx="1.38181" transform="matrix(0.866262 -0.500093 0.866262 0.500093 101.901 192.989)" fill="#E3FFF1"/>
<rect width="6.75552" height="2.76362" rx="1.38181" transform="matrix(0.866262 -0.500093 0.866262 0.500093 79.8213 202.352)" fill="#E3FFF1"/>
<rect width="6.75552" height="2.76362" rx="1.38181" transform="matrix(0.866262 -0.500093 0.866262 0.500093 98.9736 191.294)" fill="#E3FFF1"/>
<rect width="6.75552" height="2.76362" rx="1.38181" transform="matrix(0.866262 -0.500093 0.866262 0.500093 68.3857 203.126)" fill="#E3FFF1"/>
<rect width="6.75553" height="2.76362" rx="1.38181" transform="matrix(0.86626 -0.500094 0.86626 0.500094 93.9219 188.381)" fill="#E3FFF1"/>
</g>
<g filter="url(#filter4_dd)">
<rect width="58.8609" height="58.8609" rx="12" transform="matrix(0.866044 0.499967 -0.866044 0.499967 193.977 133.857)" fill="url(#paint10_linear)"/>
<rect width="58.8609" height="58.8609" rx="12" transform="matrix(0.866044 0.499967 -0.866044 0.499967 193.977 132)" fill="white"/>
<g filter="url(#filter5_dd)">
<rect width="49.6874" height="20.1435" rx="8" transform="matrix(0.866262 -0.500093 0.866262 0.500093 174 173.848)" fill="white"/>
<path fill-rule="evenodd" clip-rule="evenodd" d="M196.684 176.869C199.575 175.2 199.575 172.494 196.684 170.825C193.793 169.156 189.106 169.156 186.214 170.825C183.323 172.494 183.323 175.2 186.214 176.869C189.106 178.539 193.793 178.539 196.684 176.869Z" fill="#FFE6E6"/>
<path d="M193.088 171.738C192.651 171.641 192.184 171.597 191.716 171.609L191.33 171.619C191.317 171.619 191.304 171.621 191.293 171.625C191.282 171.629 191.273 171.635 191.266 171.641C191.26 171.647 191.256 171.655 191.255 171.662C191.255 171.67 191.257 171.677 191.263 171.684L191.431 171.885C191.537 172.011 191.599 172.166 191.616 172.344C191.617 172.356 191.608 172.364 191.601 172.369C191.595 172.374 191.581 172.38 191.561 172.38C191.543 172.381 191.526 172.376 191.514 172.369C191.123 172.113 190.528 171.914 189.743 171.776C189.092 171.661 188.447 171.65 187.823 171.743L187.369 171.811C187.309 171.82 187.291 171.864 187.336 171.888L187.684 172.071C187.922 172.196 188.096 172.328 188.201 172.46C188.329 172.622 188.409 172.795 188.44 172.974C188.461 173.098 188.457 173.224 188.43 173.348C188.362 173.646 188.413 173.949 188.577 174.235C188.744 174.522 189.024 174.782 189.395 174.997C189.722 175.185 190.103 175.331 190.529 175.43C190.939 175.525 191.377 175.573 191.82 175.571C192.266 175.57 192.701 175.52 193.112 175.422C193.539 175.322 193.921 175.175 194.25 174.985C194.579 174.795 194.834 174.574 195.009 174.328C195.178 174.091 195.266 173.838 195.267 173.582C195.27 173.324 195.186 173.073 195.022 172.837C194.851 172.591 194.596 172.369 194.271 172.182C193.933 171.987 193.536 171.837 193.088 171.738Z" fill="#FF3B3B"/>
<rect width="10.7432" height="1.3429" rx="0.671451" transform="matrix(0.866262 -0.500093 0.866262 0.500093 202.064 169.902)" fill="#EBEBF0"/>
<rect width="24.1722" height="1.3429" rx="0.671451" transform="matrix(0.866262 -0.500093 0.866262 0.500093 199.884 168.643)" fill="#EBEBF0"/>
<rect width="11.4147" height="2.68581" rx="1.3429" transform="matrix(0.866262 -0.500093 0.866262 0.500093 196.394 166.628)" fill="#C7C9D9"/>
</g>
<g filter="url(#filter6_dd)">
<rect width="49.6874" height="20.1435" rx="8" transform="matrix(0.866262 -0.500093 0.866262 0.500093 153 160.848)" fill="white"/>
<path fill-rule="evenodd" clip-rule="evenodd" d="M175.684 163.869C178.575 162.2 178.575 159.494 175.684 157.825C172.793 156.156 168.106 156.156 165.214 157.825C162.323 159.494 162.323 162.2 165.214 163.869C168.106 165.539 172.793 165.539 175.684 163.869Z" fill="#E3FFF1"/>
<path d="M167.204 158.873C165.413 159.907 165.413 161.585 167.204 162.619C168.996 163.653 171.902 163.653 173.694 162.619C175.485 161.585 175.485 159.907 173.694 158.873C171.902 157.838 168.996 157.838 167.204 158.873ZM170.791 159.325L171.38 161.427C171.389 161.456 171.385 161.486 171.369 161.515C171.353 161.543 171.326 161.569 171.289 161.59C171.253 161.611 171.208 161.627 171.159 161.636C171.109 161.645 171.057 161.648 171.006 161.643L168.851 161.442C168.785 161.435 168.759 161.389 168.806 161.361L169.146 161.165C169.22 161.123 169.326 161.103 169.43 161.113L170.661 161.228L170.221 159.659C170.204 159.599 170.238 159.538 170.312 159.495L170.652 159.299C170.699 159.272 170.78 159.287 170.791 159.325Z" fill="#39D98A"/>
<rect width="10.7432" height="1.3429" rx="0.67145" transform="matrix(0.866262 -0.500093 0.866262 0.500093 181.064 156.902)" fill="#EBEBF0"/>
<rect width="24.1722" height="1.3429" rx="0.671451" transform="matrix(0.866262 -0.500093 0.866262 0.500093 178.884 155.643)" fill="#EBEBF0"/>
<rect width="11.4147" height="2.6858" rx="1.3429" transform="matrix(0.866262 -0.500093 0.866262 0.500093 175.394 153.628)" fill="#C7C9D9"/>
</g>
</g>
<g filter="url(#filter7_dd)">
<rect width="84.0609" height="84.0609" rx="18" transform="matrix(0.866044 0.499967 -0.866044 0.499967 498.801 290.674)" fill="url(#paint11_linear)"/>
<rect width="84.0609" height="84.0609" rx="18" transform="matrix(0.866044 0.499967 -0.866044 0.499967 498.801 288)" fill="white"/>
<path d="M516.912 327.432L497.255 324.329L524.478 340.045L535.509 321.594L475.052 313.307L489.406 348.21L521.367 341.842L494.144 326.125L499.518 337.474L506.589 336.167L510.124 338.208L496.336 341.107L487.85 320.696L523.206 325.595L518.185 333.555L514.65 331.514L516.912 327.432Z" fill="#FE7139"/>
</g>
<g filter="url(#filter8_dd)">
<path d="M447.159 192.054C449.458 190.722 452.823 190.204 455.981 190.698L531.595 201.697C538.377 202.757 541.006 207.835 536.072 210.697L376.063 303.071C371.107 305.945 362.585 304.613 360.76 300.678L341.82 256.775C340.98 254.963 341.867 253.035 344.149 251.711L447.159 192.054Z" fill="url(#paint12_linear)"/>
<path d="M447.195 190.201C449.494 188.868 452.859 188.351 456.017 188.845L531.631 199.844C538.413 200.904 541.042 205.982 536.108 208.844L376.099 301.218C371.143 304.092 362.621 302.76 360.796 298.825L341.856 254.922C341.016 253.11 341.903 251.182 344.186 249.858L447.195 190.201Z" fill="url(#paint13_linear)"/>
<path d="M403.776 188.877C404.646 190.693 403.754 192.641 401.443 193.975L343.979 227.149C339.04 230.001 330.616 228.7 328.819 224.809L280.954 121.107C279.156 117.213 285.348 113.65 292.089 114.701L369.427 126.759C372.516 127.24 374.932 128.627 375.785 130.407L403.776 188.877Z" fill="#39D98A"/>
<path d="M404.774 178.819C405.644 180.635 404.752 182.583 402.441 183.917L344.977 217.091C340.038 219.943 331.614 218.642 329.818 214.751L281.952 111.049C280.154 107.155 286.346 103.592 293.087 104.643L370.425 116.701C373.514 117.182 375.93 118.569 376.783 120.349L404.774 178.819Z" fill="#57EBA1"/>
<path d="M529.276 210.763C532.372 211.216 534.235 211.607 536.49 210.305L605.083 170.706C610.1 167.81 607.815 162.946 600.902 161.998L424.589 136.419C417.807 135.49 411.833 139.138 413.818 142.995L440.01 195.068C440.244 195.532 440.873 195.896 441.678 196.031L529.276 210.763Z" fill="url(#paint14_linear)"/>
<path d="M529.828 208.763C532.924 209.216 534.786 209.607 537.041 208.305L605.635 168.706C610.652 165.81 608.367 160.946 601.454 159.998L425.141 134.419C418.359 133.49 412.385 137.138 414.37 140.995L440.937 193.814L529.828 208.763Z" fill="#376C66"/>
</g>
<defs>
<filter id="filter0_dd" x="599.132" y="181.272" width="159.337" height="108.186" filterUnits="userSpaceOnUse" color-interpolation-filters="sRGB">
<feFlood flood-opacity="0" result="BackgroundImageFix"/>
<feColorMatrix in="SourceAlpha" type="matrix" values="0 0 0 0 0 0 0 0 0 0 0 0 0 0 0 0 0 0 127 0"/>
<feOffset dy="8"/>
<feGaussianBlur stdDeviation="8"/>
<feColorMatrix type="matrix" values="0 0 0 0 0.376471 0 0 0 0 0.380392 0 0 0 0 0.439216 0 0 0 0.16 0"/>
<feBlend mode="normal" in2="BackgroundImageFix" result="effect1_dropShadow"/>
<feColorMatrix in="SourceAlpha" type="matrix" values="0 0 0 0 0 0 0 0 0 0 0 0 0 0 0 0 0 0 127 0"/>
<feOffset dy="2"/>
<feGaussianBlur stdDeviation="2"/>
<feColorMatrix type="matrix" values="0 0 0 0 0.156863 0 0 0 0 0.160784 0 0 0 0 0.239216 0 0 0 0.04 0"/>
<feBlend mode="normal" in2="effect1_dropShadow" result="effect2_dropShadow"/>
<feBlend mode="normal" in="SourceGraphic" in2="effect2_dropShadow" result="shape"/>
</filter>
<filter id="filter1_dd" x="108.94" y="214.772" width="131.337" height="84.5673" filterUnits="userSpaceOnUse" color-interpolation-filters="sRGB">
<feFlood flood-opacity="0" result="BackgroundImageFix"/>
<feColorMatrix in="SourceAlpha" type="matrix" values="0 0 0 0 0 0 0 0 0 0 0 0 0 0 0 0 0 0 127 0"/>
<feOffset dy="0.5"/>
<feGaussianBlur stdDeviation="1"/>
<feColorMatrix type="matrix" values="0 0 0 0 0.376471 0 0 0 0 0.380392 0 0 0 0 0.439216 0 0 0 0.16 0"/>
<feBlend mode="normal" in2="BackgroundImageFix" result="effect1_dropShadow"/>
<feColorMatrix in="SourceAlpha" type="matrix" values="0 0 0 0 0 0 0 0 0 0 0 0 0 0 0 0 0 0 127 0"/>
<feOffset/>
<feGaussianBlur stdDeviation="0.5"/>
<feColorMatrix type="matrix" values="0 0 0 0 0.156863 0 0 0 0 0.160784 0 0 0 0 0.239216 0 0 0 0.08 0"/>
<feBlend mode="normal" in2="effect1_dropShadow" result="effect2_dropShadow"/>
<feBlend mode="normal" in="SourceGraphic" in2="effect2_dropShadow" result="shape"/>
</filter>
<filter id="filter2_dd" x="85" y="165" width="179.078" height="116.908" filterUnits="userSpaceOnUse" color-interpolation-filters="sRGB">
<feFlood flood-opacity="0" result="BackgroundImageFix"/>
<feColorMatrix in="SourceAlpha" type="matrix" values="0 0 0 0 0 0 0 0 0 0 0 0 0 0 0 0 0 0 127 0"/>
<feOffset dy="8"/>
<feGaussianBlur stdDeviation="8"/>
<feColorMatrix type="matrix" values="0 0 0 0 0.376471 0 0 0 0 0.380392 0 0 0 0 0.439216 0 0 0 0.16 0"/>
<feBlend mode="normal" in2="BackgroundImageFix" result="effect1_dropShadow"/>
<feColorMatrix in="SourceAlpha" type="matrix" values="0 0 0 0 0 0 0 0 0 0 0 0 0 0 0 0 0 0 127 0"/>
<feOffset dy="2"/>
<feGaussianBlur stdDeviation="2"/>
<feColorMatrix type="matrix" values="0 0 0 0 0.156863 0 0 0 0 0.160784 0 0 0 0 0.239216 0 0 0 0.04 0"/>
<feBlend mode="normal" in2="effect1_dropShadow" result="effect2_dropShadow"/>
<feBlend mode="normal" in="SourceGraphic" in2="effect2_dropShadow" result="shape"/>
</filter>
<filter id="filter3_dd" x="52.0879" y="179.514" width="97.7767" height="61.6855" filterUnits="userSpaceOnUse" color-interpolation-filters="sRGB">
<feFlood flood-opacity="0" result="BackgroundImageFix"/>
<feColorMatrix in="SourceAlpha" type="matrix" values="0 0 0 0 0 0 0 0 0 0 0 0 0 0 0 0 0 0 127 0"/>
<feOffset dy="2"/>
<feGaussianBlur stdDeviation="2"/>
<feColorMatrix type="matrix" values="0 0 0 0 0.376471 0 0 0 0 0.380392 0 0 0 0 0.439216 0 0 0 0.16 0"/>
<feBlend mode="normal" in2="BackgroundImageFix" result="effect1_dropShadow"/>
<feColorMatrix in="SourceAlpha" type="matrix" values="0 0 0 0 0 0 0 0 0 0 0 0 0 0 0 0 0 0 127 0"/>
<feOffset/>
<feGaussianBlur stdDeviation="0.5"/>
<feColorMatrix type="matrix" values="0 0 0 0 0.156863 0 0 0 0 0.160784 0 0 0 0 0.239216 0 0 0 0.04 0"/>
<feBlend mode="normal" in2="effect1_dropShadow" result="effect2_dropShadow"/>
<feBlend mode="normal" in="SourceGraphic" in2="effect2_dropShadow" result="shape"/>
</filter>
<filter id="filter4_dd" x="147.088" y="134.014" width="93.7767" height="57.6855" filterUnits="userSpaceOnUse" color-interpolation-filters="sRGB">
<feFlood flood-opacity="0" result="BackgroundImageFix"/>
<feColorMatrix in="SourceAlpha" type="matrix" values="0 0 0 0 0 0 0 0 0 0 0 0 0 0 0 0 0 0 127 0"/>
<feOffset dy="0.5"/>
<feGaussianBlur stdDeviation="1"/>
<feColorMatrix type="matrix" values="0 0 0 0 0.376471 0 0 0 0 0.380392 0 0 0 0 0.439216 0 0 0 0.16 0"/>
<feBlend mode="normal" in2="BackgroundImageFix" result="effect1_dropShadow"/>
<feColorMatrix in="SourceAlpha" type="matrix" values="0 0 0 0 0 0 0 0 0 0 0 0 0 0 0 0 0 0 127 0"/>
<feOffset/>
<feGaussianBlur stdDeviation="0.5"/>
<feColorMatrix type="matrix" values="0 0 0 0 0.156863 0 0 0 0 0.160784 0 0 0 0 0.239216 0 0 0 0.08 0"/>
<feBlend mode="normal" in2="effect1_dropShadow" result="effect2_dropShadow"/>
<feBlend mode="normal" in="SourceGraphic" in2="effect2_dropShadow" result="shape"/>
</filter>
<filter id="filter5_dd" x="176.06" y="149.844" width="56.3727" height="34.2348" filterUnits="userSpaceOnUse" color-interpolation-filters="sRGB">
<feFlood flood-opacity="0" result="BackgroundImageFix"/>
<feColorMatrix in="SourceAlpha" type="matrix" values="0 0 0 0 0 0 0 0 0 0 0 0 0 0 0 0 0 0 127 0"/>
<feOffset dy="0.5"/>
<feGaussianBlur stdDeviation="1"/>
<feColorMatrix type="matrix" values="0 0 0 0 0.376471 0 0 0 0 0.380392 0 0 0 0 0.439216 0 0 0 0.16 0"/>
<feBlend mode="normal" in2="BackgroundImageFix" result="effect1_dropShadow"/>
<feColorMatrix in="SourceAlpha" type="matrix" values="0 0 0 0 0 0 0 0 0 0 0 0 0 0 0 0 0 0 127 0"/>
<feOffset/>
<feGaussianBlur stdDeviation="0.5"/>
<feColorMatrix type="matrix" values="0 0 0 0 0.156863 0 0 0 0 0.160784 0 0 0 0 0.239216 0 0 0 0.08 0"/>
<feBlend mode="normal" in2="effect1_dropShadow" result="effect2_dropShadow"/>
<feBlend mode="normal" in="SourceGraphic" in2="effect2_dropShadow" result="shape"/>
</filter>
<filter id="filter6_dd" x="155.06" y="136.844" width="56.3727" height="34.2348" filterUnits="userSpaceOnUse" color-interpolation-filters="sRGB">
<feFlood flood-opacity="0" result="BackgroundImageFix"/>
<feColorMatrix in="SourceAlpha" type="matrix" values="0 0 0 0 0 0 0 0 0 0 0 0 0 0 0 0 0 0 127 0"/>
<feOffset dy="0.5"/>
<feGaussianBlur stdDeviation="1"/>
<feColorMatrix type="matrix" values="0 0 0 0 0.376471 0 0 0 0 0.380392 0 0 0 0 0.439216 0 0 0 0.16 0"/>
<feBlend mode="normal" in2="BackgroundImageFix" result="effect1_dropShadow"/>
<feColorMatrix in="SourceAlpha" type="matrix" values="0 0 0 0 0 0 0 0 0 0 0 0 0 0 0 0 0 0 127 0"/>
<feOffset/>
<feGaussianBlur stdDeviation="0.5"/>
<feColorMatrix type="matrix" values="0 0 0 0 0.156863 0 0 0 0 0.160784 0 0 0 0 0.239216 0 0 0 0.08 0"/>
<feBlend mode="normal" in2="effect1_dropShadow" result="effect2_dropShadow"/>
<feBlend mode="normal" in="SourceGraphic" in2="effect2_dropShadow" result="shape"/>
</filter>
<filter id="filter7_dd" x="431.132" y="291.272" width="135.337" height="84.1861" filterUnits="userSpaceOnUse" color-interpolation-filters="sRGB">
<feFlood flood-opacity="0" result="BackgroundImageFix"/>
<feColorMatrix in="SourceAlpha" type="matrix" values="0 0 0 0 0 0 0 0 0 0 0 0 0 0 0 0 0 0 127 0"/>
<feOffset dy="2"/>
<feGaussianBlur stdDeviation="2"/>
<feColorMatrix type="matrix" values="0 0 0 0 0.376471 0 0 0 0 0.380392 0 0 0 0 0.439216 0 0 0 0.16 0"/>
<feBlend mode="normal" in2="BackgroundImageFix" result="effect1_dropShadow"/>
<feColorMatrix in="SourceAlpha" type="matrix" values="0 0 0 0 0 0 0 0 0 0 0 0 0 0 0 0 0 0 127 0"/>
<feOffset/>
<feGaussianBlur stdDeviation="0.5"/>
<feColorMatrix type="matrix" values="0 0 0 0 0.156863 0 0 0 0 0.160784 0 0 0 0 0.239216 0 0 0 0.04 0"/>
<feBlend mode="normal" in2="effect1_dropShadow" result="effect2_dropShadow"/>
<feBlend mode="normal" in="SourceGraphic" in2="effect2_dropShadow" result="shape"/>
</filter>
<filter id="filter8_dd" x="276.639" y="102.456" width="335.701" height="208.159" filterUnits="userSpaceOnUse" color-interpolation-filters="sRGB">
<feFlood flood-opacity="0" result="BackgroundImageFix"/>
<feColorMatrix in="SourceAlpha" type="matrix" values="0 0 0 0 0 0 0 0 0 0 0 0 0 0 0 0 0 0 127 0"/>
<feOffset dy="2"/>
<feGaussianBlur stdDeviation="2"/>
<feColorMatrix type="matrix" values="0 0 0 0 0.376471 0 0 0 0 0.380392 0 0 0 0 0.439216 0 0 0 0.16 0"/>
<feBlend mode="normal" in2="BackgroundImageFix" result="effect1_dropShadow"/>
<feColorMatrix in="SourceAlpha" type="matrix" values="0 0 0 0 0 0 0 0 0 0 0 0 0 0 0 0 0 0 127 0"/>
<feOffset/>
<feGaussianBlur stdDeviation="0.5"/>
<feColorMatrix type="matrix" values="0 0 0 0 0.156863 0 0 0 0 0.160784 0 0 0 0 0.239216 0 0 0 0.04 0"/>
<feBlend mode="normal" in2="effect1_dropShadow" result="effect2_dropShadow"/>
<feBlend mode="normal" in="SourceGraphic" in2="effect2_dropShadow" result="shape"/>
</filter>
<radialGradient id="paint0_radial" cx="0" cy="0" r="1" gradientUnits="userSpaceOnUse" gradientTransform="translate(200.691 268.34) rotate(85.3347) scale(238.415 206.385)">
<stop stop-color="#C4C4C4"/>
<stop offset="1" stop-color="#C4C4C4" stop-opacity="0"/>
</radialGradient>
<linearGradient id="paint1_linear" x1="513.737" y1="218.834" x2="533.99" y2="293.299" gradientUnits="userSpaceOnUse">
<stop stop-color="#28293D"/>
<stop offset="1" stop-color="#577CA4"/>
</linearGradient>
<linearGradient id="paint2_linear" x1="379.304" y1="163.498" x2="373.607" y2="265.743" gradientUnits="userSpaceOnUse">
<stop stop-color="#28293D"/>
<stop offset="1" stop-color="#577CA4"/>
</linearGradient>
<linearGradient id="paint3_linear" x1="-0.383015" y1="13.1213" x2="87.3745" y2="24.5005" gradientUnits="userSpaceOnUse">
<stop stop-color="#E4E4EB"/>
<stop offset="1" stop-color="#EDF0F4"/>
</linearGradient>
<linearGradient id="paint4_linear" x1="164.4" y1="234.293" x2="190.003" y2="291.857" gradientUnits="userSpaceOnUse">
<stop stop-color="#E4E4EB"/>
<stop offset="1" stop-color="#EDF0F4"/>
</linearGradient>
<linearGradient id="paint5_linear" x1="174.626" y1="181" x2="174.626" y2="254.539" gradientUnits="userSpaceOnUse">
<stop stop-color="#39D98A"/>
<stop offset="1" stop-color="#47FFA4" stop-opacity="0.42"/>
</linearGradient>
<linearGradient id="paint6_linear" x1="195.5" y1="231.499" x2="214" y2="257.999" gradientUnits="userSpaceOnUse">
<stop stop-color="#39D98A"/>
<stop offset="1" stop-color="#47FFA4" stop-opacity="0"/>
</linearGradient>
<linearGradient id="paint7_linear" x1="149.5" y1="231.999" x2="132" y2="259.999" gradientUnits="userSpaceOnUse">
<stop stop-color="#39D98A"/>
<stop offset="1" stop-color="#47FFA4" stop-opacity="0"/>
</linearGradient>
<linearGradient id="paint8_linear" x1="-0.383015" y1="13.1213" x2="87.3745" y2="24.5005" gradientUnits="userSpaceOnUse">
<stop stop-color="#E4E4EB"/>
<stop offset="1" stop-color="#EDF0F4"/>
</linearGradient>
<linearGradient id="paint9_linear" x1="7.59227" y1="58.8857" x2="37.9142" y2="-1.76219" gradientUnits="userSpaceOnUse">
<stop stop-color="#E4E4EB"/>
<stop offset="1" stop-color="#EDF0F4"/>
</linearGradient>
<linearGradient id="paint10_linear" x1="7.59227" y1="58.8857" x2="37.9142" y2="-1.76219" gradientUnits="userSpaceOnUse">
<stop stop-color="#E4E4EB"/>
<stop offset="1" stop-color="#EDF0F4"/>
</linearGradient>
<linearGradient id="paint11_linear" x1="-0.383015" y1="13.1213" x2="87.3745" y2="24.5005" gradientUnits="userSpaceOnUse">
<stop stop-color="#E4E4EB"/>
<stop offset="1" stop-color="#EDF0F4"/>
</linearGradient>
<linearGradient id="paint12_linear" x1="395.449" y1="221.907" x2="425.746" y2="274.388" gradientUnits="userSpaceOnUse">
<stop stop-color="#EFF4F8"/>
<stop offset="1" stop-color="#7695AD"/>
</linearGradient>
<linearGradient id="paint13_linear" x1="395.485" y1="220.054" x2="425.782" y2="272.535" gradientUnits="userSpaceOnUse">
<stop stop-color="#EFF4F8"/>
<stop offset="1" stop-color="#C2D8EA"/>
</linearGradient>
<linearGradient id="paint14_linear" x1="458.5" y1="193.5" x2="426.326" y2="134.922" gradientUnits="userSpaceOnUse">
<stop stop-color="#223C37"/>
<stop offset="1" stop-color="#223C37" stop-opacity="0"/>
</linearGradient>
<clipPath id="clip0">
<rect width="54.3212" height="53.6588" fill="white" transform="matrix(0.866262 -0.500092 0.866262 0.500092 633 226.167)"/>
</clipPath>
</defs>
</svg>
