<svg width="728" height="482" viewBox="0 0 728 482" fill="none" xmlns="http://www.w3.org/2000/svg">
<mask id="mask0" mask-type="alpha" maskUnits="userSpaceOnUse" x="355" y="281" width="157" height="105">
<rect x="499.626" y="385.284" width="167" height="24" transform="rotate(-150 499.626 385.284)" fill="#FAFAFC"/>
</mask>
<g mask="url(#mask0)">
<path fill-rule="evenodd" clip-rule="evenodd" d="M1160.15 234.662L710.708 495.515L358.154 292.367L807.816 31.5146L1160.15 234.662Z" stroke="#39D98A" stroke-width="2" stroke-linecap="round" stroke-linejoin="round" stroke-dasharray="1 4"/>
</g>
<mask id="mask1" mask-type="alpha" maskUnits="userSpaceOnUse" x="286" y="118" width="229" height="199">
<rect x="514.553" y="216.954" width="115" height="197" rx="20" transform="rotate(120 514.553 216.954)" fill="#C4C4C4"/>
</mask>
<g mask="url(#mask1)">
<path fill-rule="evenodd" clip-rule="evenodd" d="M806 368.147L356.553 629L4 425.853L453.661 165L806 368.147Z" stroke="#39D98A" stroke-width="2" stroke-linecap="round" stroke-linejoin="round" stroke-dasharray="1 4"/>
</g>
<g filter="url(#filter0_dd)">
<path fill-rule="evenodd" clip-rule="evenodd" d="M100.839 301.654C99.0203 300.594 97.9996 299.163 97.9996 297.671L97.9996 293.012L460 261.999V265.171C460 266.662 458.98 268.093 457.161 269.153L258.096 385.122C254.263 387.355 248.011 387.356 244.178 385.123L100.839 301.654Z" fill="url(#paint0_linear)"/>
<g filter="url(#filter1_b)">
<path fill-rule="evenodd" clip-rule="evenodd" d="M100.928 297.836C97.1019 295.627 97.1019 292.045 100.928 289.836L300.038 174.89C303.865 172.681 310.068 172.681 313.895 174.89L457.17 257.603C460.996 259.812 460.996 263.393 457.17 265.602L258.06 380.548C254.234 382.757 248.03 382.757 244.203 380.548L100.928 297.836Z" fill="#28293D"/>
</g>
<rect width="67.7677" height="4.89887" rx="1.5" transform="matrix(0.866044 -0.499967 0.866044 0.499967 168.671 323.908)" fill="#555770"/>
<rect width="71.0337" height="4.89887" rx="1.5" transform="matrix(0.866044 -0.499967 0.866044 0.499967 185.642 333.705)" fill="#555770"/>
<rect width="30.2097" height="4.89887" rx="1.5" transform="matrix(0.866044 -0.499967 0.866044 0.499967 276.859 271.248)" fill="#555770"/>
<rect width="40.8239" height="4.89887" rx="1.5" transform="matrix(0.866044 -0.499967 0.866044 0.499967 177.157 328.807)" fill="#555770"/>
<rect width="61.2359" height="4.89887" rx="1.5" transform="matrix(0.866044 -0.499967 0.866044 0.499967 218.169 305.131)" fill="#555770"/>
<rect width="40.8239" height="4.89887" rx="1.5" transform="matrix(0.866044 -0.499967 0.866044 0.499967 233.018 286.761)" fill="#555770"/>
<rect width="48.1723" height="4.89887" rx="1.5" transform="matrix(0.866044 -0.499967 0.866044 0.499967 274.03 263.085)" fill="#555770"/>
<rect width="67.7677" height="4.89887" rx="1.5" transform="matrix(0.866044 -0.499967 0.866044 0.499967 194.127 338.604)" fill="#555770"/>
<rect width="71.0337" height="4.89887" rx="1.5" transform="matrix(0.866044 -0.499967 0.866044 0.499967 211.098 348.4)" fill="#555770"/>
<rect width="10.6142" height="4.89887" rx="1.5" transform="matrix(0.866044 -0.499967 0.866044 0.499967 302.314 285.944)" fill="#555770"/>
<rect width="40.8239" height="4.89887" rx="1.5" transform="matrix(0.866044 -0.499967 0.866044 0.499967 202.612 343.502)" fill="#555770"/>
<rect width="61.2359" height="4.89887" rx="1.5" transform="matrix(0.866044 -0.499967 0.866044 0.499967 243.625 319.826)" fill="#555770"/>
<rect width="14.6966" height="4.89887" rx="1.5" transform="matrix(0.866044 -0.499967 0.866044 0.499967 258.474 301.456)" fill="#555770"/>
<rect width="8.16479" height="4.89887" rx="1.5" transform="matrix(0.866044 -0.499967 0.866044 0.499967 276.859 290.843)" fill="#555770"/>
<rect width="40.8239" height="4.89887" rx="1.5" transform="matrix(0.866044 -0.499967 0.866044 0.499967 219.583 353.3)" fill="#555770"/>
<rect width="25.3108" height="4.89887" rx="1.5" transform="matrix(0.866044 -0.499967 0.866044 0.499967 236.554 363.097)" fill="#555770"/>
<rect width="13.8801" height="4.89887" rx="1.5" transform="matrix(0.866044 -0.499967 0.866044 0.499967 264.131 347.177)" fill="#555770"/>
<rect width="37.558" height="4.89887" rx="1.5" transform="matrix(0.866044 -0.499967 0.866044 0.499967 269.081 334.521)" fill="#555770"/>
<rect width="13.0637" height="4.89887" rx="1.5" transform="matrix(0.866044 -0.499967 0.866044 0.499967 228.068 358.198)" fill="#555770"/>
<rect width="21.2284" height="4.89887" rx="1.5" transform="matrix(0.866044 -0.499967 0.866044 0.499967 245.039 348.4)" fill="#555770"/>
<rect width="14.6966" height="4.89887" rx="1.5" transform="matrix(0.866044 -0.499967 0.866044 0.499967 260.595 329.623)" fill="#555770"/>
<rect width="33.4756" height="4.89887" rx="1.5" transform="matrix(0.866044 -0.499967 0.866044 0.499967 278.98 319.01)" fill="#555770"/>
<path fill-rule="evenodd" clip-rule="evenodd" d="M120.566 294.013C122.323 292.998 122.323 291.353 120.566 290.339C118.808 289.324 115.959 289.324 114.202 290.339C112.444 291.353 112.444 292.998 114.202 294.013C115.959 295.027 118.808 295.027 120.566 294.013Z" fill="#FF5C5C"/>
<path fill-rule="evenodd" clip-rule="evenodd" d="M131.173 287.89C132.93 286.875 132.93 285.23 131.173 284.216C129.415 283.201 126.566 283.201 124.808 284.216C123.051 285.23 123.051 286.875 124.808 287.89C126.566 288.904 129.415 288.904 131.173 287.89Z" fill="#FDDD48"/>
<path fill-rule="evenodd" clip-rule="evenodd" d="M141.779 281.767C143.537 280.752 143.537 279.107 141.779 278.093C140.022 277.078 137.173 277.078 135.415 278.093C133.658 279.107 133.658 280.752 135.415 281.767C137.173 282.781 140.022 282.781 141.779 281.767Z" fill="#39D98A"/>
<rect y="0.499967" width="39.7001" height="224.601" rx="7.5" transform="matrix(0.866044 0.499967 -0.866044 0.499967 320.484 187.484)" stroke="#57EBA1"/>
<path d="M163 281.501L129.25 262.501L129 301.421L162 321L350.5 209.001L350.5 173.001L163 281.501Z" fill="url(#paint1_linear)"/>
<g filter="url(#filter2_dd)">
<path d="M129 262.001L350.5 171L350.5 173.655C350.499 175.156 349.466 176.596 347.626 177.657L167.305 281.646C163.428 283.882 157.128 283.847 153.325 281.57L131.743 268.643C129.983 267.589 129 266.182 129 264.718L129 262.001Z" fill="url(#paint2_linear)"/>
<rect width="40.7001" height="224.748" rx="8" transform="matrix(0.866044 0.499967 -0.866044 0.499967 319.642 149.001)" fill="white"/>
<path d="M157.531 266.95L148.496 261.734L150.561 260.542L154.26 262.678L154.302 262.654L153.277 258.974L155.535 257.67L156.408 261.31L164.819 262.742L162.561 264.046L156.796 262.942L157.129 264.334L159.595 265.758L157.531 266.95ZM168.167 261.001C167.816 261.204 167.447 261.353 167.059 261.449C166.68 261.55 166.301 261.604 165.922 261.609C165.534 261.609 165.16 261.569 164.8 261.489C164.449 261.404 164.126 261.276 163.83 261.105C163.442 260.881 163.188 260.638 163.068 260.377C162.939 260.11 162.952 259.815 163.109 259.489C163.276 259.159 163.585 258.793 164.038 258.393C164.481 257.988 165.086 257.537 165.853 257.041C165.502 256.881 165.119 256.82 164.703 256.857C164.296 256.889 163.858 257.041 163.387 257.313C163.054 257.505 162.777 257.735 162.555 258.001C162.333 258.257 162.126 258.553 161.932 258.889L159.881 258.537C160.084 258.111 160.366 257.692 160.726 257.281C161.096 256.865 161.576 256.487 162.167 256.145C163.128 255.591 164.139 255.3 165.202 255.273C166.264 255.247 167.322 255.537 168.375 256.145L172.31 258.417L170.647 259.377L169.719 259.017L169.664 259.049C169.58 259.407 169.423 259.759 169.193 260.105C168.952 260.446 168.611 260.745 168.167 261.001ZM167.239 259.713C167.544 259.537 167.77 259.337 167.918 259.113C168.056 258.884 168.153 258.647 168.209 258.401L167.072 257.745C166.592 258.055 166.218 258.324 165.95 258.553C165.682 258.783 165.502 258.983 165.41 259.153C165.308 259.319 165.28 259.463 165.326 259.585C165.382 259.703 165.484 259.804 165.631 259.889C165.853 260.017 166.102 260.065 166.38 260.033C166.657 259.991 166.943 259.884 167.239 259.713ZM173.691 257.62L166.818 253.653L168.356 252.765L169.34 253.173L169.395 253.141C169.247 252.906 169.192 252.666 169.229 252.421C169.256 252.17 169.469 251.93 169.866 251.701C170.162 251.53 170.508 251.442 170.905 251.437C171.303 251.421 171.727 251.496 172.18 251.661C171.995 251.405 171.917 251.146 171.945 250.885C171.972 250.613 172.185 250.362 172.582 250.133C173.081 249.845 173.658 249.741 174.314 249.821C174.97 249.89 175.644 250.125 176.337 250.525L181.159 253.309L179.219 254.429L174.536 251.725C174.323 251.602 174.139 251.528 173.982 251.501C173.824 251.474 173.677 251.501 173.538 251.581C173.409 251.656 173.353 251.751 173.372 251.869C173.39 251.986 173.46 252.138 173.58 252.325L178.222 255.005L176.628 255.925L171.945 253.221C171.529 252.981 171.192 252.935 170.933 253.085C170.804 253.159 170.748 253.255 170.767 253.373C170.785 253.49 170.859 253.639 170.988 253.821L175.63 256.501L173.691 257.62ZM185.837 250.8C185.385 251.061 184.867 251.269 184.285 251.424C183.704 251.568 183.094 251.648 182.456 251.664C181.828 251.675 181.195 251.608 180.558 251.464C179.911 251.315 179.302 251.075 178.729 250.744C178.156 250.413 177.745 250.064 177.496 249.696C177.237 249.323 177.117 248.955 177.135 248.592C177.163 248.224 177.306 247.875 177.565 247.544C177.824 247.203 178.179 246.902 178.632 246.64C179.085 246.379 179.602 246.176 180.184 246.032C180.766 245.878 181.371 245.795 181.999 245.784C182.637 245.768 183.279 245.835 183.925 245.984C184.563 246.128 185.168 246.366 185.74 246.696C186.313 247.027 186.729 247.379 186.988 247.752C187.237 248.12 187.348 248.488 187.32 248.856C187.302 249.219 187.163 249.571 186.904 249.912C186.646 250.243 186.29 250.539 185.837 250.8ZM184.188 249.848C184.66 249.576 184.835 249.272 184.715 248.936C184.604 248.595 184.249 248.251 183.648 247.904C183.048 247.558 182.452 247.352 181.861 247.288C181.279 247.219 180.752 247.32 180.281 247.592C179.81 247.864 179.63 248.171 179.74 248.512C179.861 248.848 180.221 249.189 180.821 249.536C181.422 249.883 182.013 250.091 182.595 250.16C183.186 250.224 183.717 250.12 184.188 249.848ZM190.82 247.731L183.948 243.764L185.61 242.804L186.677 243.244L186.733 243.212C186.733 242.87 186.816 242.529 186.982 242.188C187.158 241.841 187.504 241.518 188.021 241.22C188.797 240.772 189.615 240.588 190.474 240.668C191.333 240.748 192.197 241.038 193.065 241.54L197.305 243.988L195.268 245.164L191.292 242.868C190.83 242.601 190.419 242.449 190.058 242.412C189.698 242.374 189.329 242.465 188.95 242.684C188.673 242.844 188.488 243.02 188.396 243.212C188.312 243.398 188.271 243.63 188.271 243.908L192.857 246.555L190.82 247.731ZM202.455 241.207C202.057 241.436 201.6 241.551 201.083 241.551C200.556 241.546 200.09 241.426 199.683 241.191C199.277 240.956 199.074 240.69 199.074 240.391C199.064 240.087 199.258 239.82 199.656 239.591C200.053 239.362 200.515 239.25 201.041 239.255C201.559 239.255 202.02 239.372 202.427 239.607C202.833 239.842 203.041 240.111 203.051 240.415C203.051 240.714 202.852 240.978 202.455 241.207ZM210.555 236.338L205.013 233.139L202.061 234.842L200.8 234.114L205.345 231.491L212.149 235.418L210.555 236.338ZM203.198 231.291C202.874 231.477 202.505 231.579 202.089 231.595C201.683 231.605 201.318 231.517 200.994 231.331C200.671 231.144 200.519 230.933 200.537 230.699C200.556 230.453 200.726 230.237 201.05 230.051C201.373 229.864 201.743 229.768 202.158 229.763C202.574 229.747 202.943 229.832 203.267 230.019C203.59 230.205 203.738 230.419 203.71 230.659C203.692 230.893 203.521 231.104 203.198 231.291ZM215.885 233.262L209.081 229.334L210.398 228.574L211.548 229.094L211.603 229.062C211.603 228.689 211.682 228.323 211.839 227.966C211.996 227.598 212.338 227.262 212.864 226.958C213.649 226.505 214.467 226.31 215.317 226.374C216.157 226.433 217.021 226.718 217.908 227.23L222.12 229.662L220.513 230.59L216.508 228.278C215.954 227.958 215.455 227.782 215.012 227.75C214.568 227.707 214.111 227.822 213.64 228.094C213.308 228.286 213.09 228.502 212.989 228.742C212.887 228.982 212.841 229.286 212.85 229.654L217.492 232.334L215.885 233.262ZM227.173 226.745L221.63 223.545L218.678 225.249L217.418 224.521L221.963 221.898L228.766 225.825L227.173 226.745ZM219.815 221.698C219.491 221.884 219.122 221.986 218.706 222.002C218.3 222.012 217.935 221.924 217.612 221.738C217.288 221.551 217.136 221.34 217.154 221.106C217.173 220.86 217.344 220.644 217.667 220.458C217.99 220.271 218.36 220.175 218.775 220.17C219.191 220.154 219.561 220.239 219.884 220.426C220.207 220.612 220.355 220.826 220.327 221.066C220.309 221.3 220.138 221.511 219.815 221.698ZM236.95 221.293C236.433 221.591 235.925 221.805 235.426 221.933C234.936 222.055 234.456 222.109 233.985 222.093C233.514 222.066 233.047 221.978 232.585 221.829C232.133 221.674 231.689 221.471 231.255 221.221L228.456 219.605L226.641 220.653L225.449 219.965L227.264 218.837L225.338 217.485L226.655 216.725L228.788 217.957L231.892 216.165L233.153 216.893L230.049 218.685L232.848 220.301C233.412 220.626 233.943 220.799 234.442 220.821C234.941 220.831 235.481 220.669 236.063 220.333C236.35 220.167 236.59 220.002 236.784 219.837C236.969 219.666 237.13 219.493 237.269 219.317L238.738 219.813C238.534 220.047 238.294 220.287 238.017 220.533C237.749 220.783 237.393 221.037 236.95 221.293ZM247.836 217.648C246.127 217.739 244.473 217.637 242.875 217.344C241.286 217.045 239.831 216.515 238.51 215.752C237.189 214.99 236.27 214.15 235.753 213.232C235.245 212.31 235.069 211.355 235.226 210.369L236.848 210.281C236.765 211.246 236.968 212.104 237.457 212.856C237.947 213.608 238.755 214.31 239.882 214.96C241.009 215.611 242.224 216.077 243.527 216.36C244.829 216.643 246.316 216.76 247.988 216.712L247.836 217.648ZM253.041 214.643L251.42 214.731C251.503 213.766 251.299 212.907 250.81 212.156C250.32 211.404 249.512 210.702 248.385 210.052C247.258 209.401 246.043 208.934 244.741 208.652C243.438 208.369 241.951 208.252 240.279 208.3L240.431 207.364C242.14 207.273 243.789 207.377 245.378 207.676C246.976 207.969 248.436 208.497 249.757 209.26C251.078 210.022 251.992 210.865 252.5 211.788C253.018 212.705 253.198 213.657 253.041 214.643Z" fill="#8F90A6"/>
</g>
</g>
<g filter="url(#filter3_dd)">
<path d="M377.483 138.812C375.656 137.752 374.63 136.318 374.63 134.822L374.63 129.657L642.129 124.158V129.84C642.129 131.325 641.117 132.751 639.311 133.81L511.717 208.576C507.893 210.816 501.637 210.826 497.793 208.596L377.483 138.812Z" fill="url(#paint3_linear)"/>
<rect width="164.011" height="154.314" rx="8" transform="matrix(0.866044 -0.499967 0.866044 0.499967 370.606 129.373)" fill="white"/>
</g>
<rect width="32.6592" height="13.8801" rx="6.94007" transform="matrix(0.866044 -0.499967 0.866044 0.499967 387.577 132.639)" fill="#EBEBF0"/>
<rect width="13.8801" height="13.8801" rx="6.94007" transform="matrix(0.866044 -0.499967 0.866044 0.499967 421.518 113.045)" fill="#39D98A"/>
<rect width="152.375" height="7.36553" rx="3.68276" transform="matrix(0.866044 -0.499967 0.866044 0.499967 443.754 166.322)" fill="url(#paint4_linear)"/>
<rect width="152.375" height="7.36553" rx="3.68276" transform="matrix(0.866044 -0.499967 0.866044 0.499967 431.129 157.375)" fill="url(#paint5_linear)"/>
<path d="M434.508 132.184C434.508 131.038 435.361 129.642 436.261 129.605C440.194 129.442 443.877 134.815 451.005 130.338C459.176 125.206 468.624 97.7881 479.781 91.3469C490.937 84.9057 494.741 98.1752 506.158 91.5831C517.576 84.9911 521.325 35.2451 535.848 26.8602C550.371 18.4754 547.042 40.3117 554.384 36.0728C561.726 31.8339 562.736 35.9939 562.736 35.9939V80.3654C562.736 83.1283 560.795 86.4879 558.402 87.8673L439.7 156.297C436.832 157.95 434.508 156.611 434.508 153.299C434.508 146.805 434.508 136.76 434.508 132.184Z" fill="url(#paint6_linear)"/>
<path d="M436.951 133.19C436.951 132.044 437.804 130.648 438.704 130.611C442.637 130.448 446.32 135.821 453.448 131.344C461.619 126.212 471.067 98.7939 482.224 92.3527C493.38 85.9116 497.183 99.181 508.601 92.589C520.019 85.997 523.768 36.2509 538.291 27.8661C552.814 19.4813 549.485 41.3175 556.827 37.0787C564.169 32.8398 565.178 36.9998 565.178 36.9998V81.3712C565.178 84.1341 563.238 87.4938 560.845 88.8731L442.143 157.303C439.275 158.956 436.951 157.616 436.951 154.304C436.951 147.811 436.951 137.766 436.951 133.19Z" fill="url(#paint7_linear)"/>
<path d="M446.767 154.949C446.765 153.87 447.517 152.527 448.443 152.144C454.491 149.646 456.294 156.107 462.229 152.303C468.68 148.167 476.988 126.932 490.458 119.155C503.928 111.378 507.347 117.213 519.017 110.475C530.687 103.737 536.503 79.4198 545.226 74.3833C553.95 69.3467 554.35 74.8293 560.531 71.2608C566.087 68.0534 568.482 60.11 573.275 56.0152C574.206 55.2206 574.993 55.6866 574.993 56.7912V87.8476C574.993 91.1613 572.667 95.1907 569.797 96.8476L451.891 164.92C449.111 166.526 446.846 165.308 446.81 162.119C446.79 160.263 446.773 157.899 446.767 154.949Z" fill="url(#paint8_linear)"/>
<path d="M449.289 156.34C449.287 155.26 450.039 153.918 450.965 153.535C457.013 151.037 458.816 157.498 464.751 153.693C471.201 149.558 479.51 128.322 492.979 120.545C506.449 112.769 509.868 118.603 521.538 111.866C533.208 105.128 539.024 80.8105 547.748 75.7739C556.471 70.7373 556.872 76.2199 563.053 72.6515C568.608 69.444 571.004 61.5006 575.797 57.4058C576.727 56.6112 577.514 57.0772 577.514 58.1818V91.2382C577.514 93.4473 575.963 96.1336 574.05 97.2382L454.413 166.311C451.632 167.916 449.368 166.699 449.332 163.509C449.311 161.654 449.294 159.289 449.289 156.34Z" fill="url(#paint9_linear)"/>
<rect width="152.375" height="7.36553" rx="3.68276" transform="matrix(0.866044 -0.499967 0.866044 0.499967 484.755 189.677)" fill="url(#paint10_linear)"/>
<rect width="152.375" height="7.36553" rx="3.68276" transform="matrix(0.866044 -0.499967 0.866044 0.499967 472.129 180.729)" fill="url(#paint11_linear)"/>
<path d="M475.508 155.538C475.508 154.392 476.362 152.997 477.262 152.96C481.195 152.796 484.877 158.169 492.005 153.692C500.176 148.561 509.625 121.143 520.781 114.701C531.938 108.26 535.741 121.53 547.159 114.938C558.577 108.346 562.326 58.5995 576.849 50.2147C591.372 41.8299 588.043 63.6662 595.385 59.4273C602.727 55.1884 603.736 59.3484 603.736 59.3484V103.72C603.736 106.483 601.795 109.842 599.403 111.222L480.701 179.651C477.832 181.305 475.508 179.965 475.508 176.653C475.508 170.16 475.508 160.115 475.508 155.538Z" fill="url(#paint12_linear)"/>
<path d="M477.951 156.544C477.951 155.398 478.805 154.003 479.705 153.965C483.638 153.802 487.32 159.175 494.448 154.698C502.619 149.566 512.068 122.148 523.224 115.707C534.381 109.266 538.184 122.536 549.602 115.943C561.019 109.351 564.769 59.6054 579.292 51.2206C593.814 42.8358 590.486 64.672 597.828 60.4332C605.17 56.1943 606.179 60.3543 606.179 60.3543V104.726C606.179 107.489 604.238 110.848 601.846 112.228L483.143 180.657C480.275 182.311 477.951 180.971 477.951 177.659C477.951 171.166 477.951 161.121 477.951 156.544Z" fill="url(#paint13_linear)"/>
<path d="M487.768 178.304C487.766 177.224 488.518 175.882 489.444 175.499C495.492 173 497.295 179.462 503.23 175.657C509.68 171.522 517.989 150.286 531.458 142.509C544.928 134.733 548.347 140.567 560.017 133.829C571.687 127.092 577.503 102.774 586.227 97.7378C594.95 92.7012 595.351 98.1838 601.532 94.6153C607.087 91.4078 609.483 83.4645 614.276 79.3697C615.206 78.5751 615.993 79.0411 615.993 80.1457V111.202C615.993 114.516 613.667 118.545 610.797 120.202L492.892 188.275C490.111 189.88 487.847 188.663 487.811 185.473C487.79 183.618 487.773 181.253 487.768 178.304Z" fill="url(#paint14_linear)"/>
<path d="M490.289 179.694C490.287 178.615 491.039 177.272 491.965 176.89C498.013 174.391 499.816 180.852 505.751 177.048C512.202 172.913 520.51 151.677 533.98 143.9C547.45 136.123 550.869 141.958 562.539 135.22C574.208 128.482 580.025 104.165 588.748 99.1284C597.472 94.0918 597.872 99.5744 604.053 96.006C609.609 92.7985 612.004 84.8551 616.797 80.7603C617.728 79.9657 618.515 80.4317 618.515 81.5363V114.593C618.515 116.802 616.964 119.488 615.051 120.593L495.413 189.666C492.633 191.271 490.368 190.054 490.332 186.864C490.312 185.008 490.295 182.644 490.289 179.694Z" fill="url(#paint15_linear)"/>
<g filter="url(#filter4_dd)">
<path d="M411.07 397.954C409.242 396.894 408.216 395.459 408.216 393.964L408.216 388.798L675.716 383.3V388.981C675.716 390.467 674.703 391.893 672.897 392.951L545.304 467.717C541.479 469.958 535.223 469.967 531.379 467.738L411.07 397.954Z" fill="url(#paint16_linear)"/>
<rect width="164.011" height="154.314" rx="8" transform="matrix(0.866044 -0.499967 0.866044 0.499967 404.193 388.515)" fill="white"/>
</g>
<g filter="url(#filter5_dd)">
<rect width="144.55" height="59.5705" rx="8" transform="matrix(0.866044 -0.499967 0.866044 0.499967 481 424.268)" fill="white"/>
<path fill-rule="evenodd" clip-rule="evenodd" d="M548.068 433.203C556.616 428.268 556.616 420.267 548.068 415.333C539.52 410.398 525.661 410.398 517.113 415.333C508.566 420.267 508.566 428.268 517.113 433.203C525.661 438.137 539.52 438.137 548.068 433.203Z" fill="#E3FFF1"/>
<g clip-path="url(#clip0)">
<path d="M528.076 421.662C525.583 423.101 525.583 425.434 528.076 426.874C530.569 428.313 534.612 428.313 537.105 426.874C539.597 425.434 539.597 423.101 537.105 421.662C534.612 420.222 530.569 420.222 528.076 421.662ZM533.066 422.291L533.886 425.215C533.898 425.256 533.893 425.298 533.871 425.337C533.849 425.377 533.81 425.413 533.76 425.442C533.709 425.472 533.646 425.494 533.578 425.506C533.509 425.519 533.436 425.522 533.365 425.515L530.368 425.236C530.276 425.227 530.24 425.162 530.305 425.124L530.778 424.851C530.88 424.792 531.028 424.764 531.173 424.778L532.886 424.938L532.273 422.756C532.25 422.673 532.296 422.588 532.4 422.528L532.873 422.255C532.938 422.217 533.051 422.238 533.066 422.291Z" fill="#39D98A"/>
</g>
<rect width="31.7709" height="3.97137" rx="1.98568" transform="matrix(0.866044 -0.499967 0.866044 0.499967 563.975 412.603)" fill="#EBEBF0"/>
<rect width="71.4846" height="3.97137" rx="1.98568" transform="matrix(0.866044 -0.499967 0.866044 0.499967 557.526 408.88)" fill="#EBEBF0"/>
<rect width="33.7566" height="7.94273" rx="3.97137" transform="matrix(0.866044 -0.499967 0.866044 0.499967 547.208 402.923)" fill="#C7C9D9"/>
</g>
<g filter="url(#filter6_dd)">
<rect width="144.546" height="59.5705" rx="8" transform="matrix(0.866044 -0.499967 0.866044 0.499967 426 388.268)" fill="white"/>
<path fill-rule="evenodd" clip-rule="evenodd" d="M493.068 397.203C501.616 392.268 501.616 384.267 493.068 379.333C484.52 374.398 470.661 374.398 462.113 379.333C453.566 384.267 453.566 392.268 462.113 397.203C470.661 402.137 484.52 402.137 493.068 397.203Z" fill="#E3FFF1"/>
<g clip-path="url(#clip1)">
<path d="M473.076 385.662C470.583 387.101 470.583 389.434 473.076 390.874C475.569 392.313 479.612 392.313 482.105 390.874C484.597 389.434 484.597 387.101 482.105 385.662C479.612 384.222 475.569 384.222 473.076 385.662ZM478.066 386.291L478.886 389.215C478.898 389.256 478.893 389.298 478.871 389.337C478.849 389.377 478.81 389.413 478.76 389.442C478.709 389.472 478.646 389.494 478.578 389.506C478.509 389.519 478.436 389.522 478.365 389.515L475.368 389.236C475.276 389.227 475.24 389.162 475.305 389.124L475.778 388.851C475.88 388.792 476.028 388.764 476.173 388.778L477.886 388.938L477.273 386.756C477.25 386.673 477.296 386.588 477.4 386.528L477.873 386.255C477.938 386.217 478.051 386.238 478.066 386.291Z" fill="#39D98A"/>
</g>
<rect width="31.7709" height="3.97137" rx="1.98568" transform="matrix(0.866044 -0.499967 0.866044 0.499967 508.975 376.603)" fill="#EBEBF0"/>
<rect width="71.4846" height="3.97137" rx="1.98568" transform="matrix(0.866044 -0.499967 0.866044 0.499967 502.526 372.88)" fill="#EBEBF0"/>
<rect width="33.7566" height="7.94273" rx="3.97137" transform="matrix(0.866044 -0.499967 0.866044 0.499967 492.208 366.923)" fill="#C7C9D9"/>
</g>
<defs>
<filter id="filter0_dd" x="93.9995" y="149.344" width="370.04" height="243.453" filterUnits="userSpaceOnUse" color-interpolation-filters="sRGB">
<feFlood flood-opacity="0" result="BackgroundImageFix"/>
<feColorMatrix in="SourceAlpha" type="matrix" values="0 0 0 0 0 0 0 0 0 0 0 0 0 0 0 0 0 0 127 0"/>
<feOffset dy="2"/>
<feGaussianBlur stdDeviation="2"/>
<feColorMatrix type="matrix" values="0 0 0 0 0.376471 0 0 0 0 0.380392 0 0 0 0 0.439216 0 0 0 0.16 0"/>
<feBlend mode="normal" in2="BackgroundImageFix" result="effect1_dropShadow"/>
<feColorMatrix in="SourceAlpha" type="matrix" values="0 0 0 0 0 0 0 0 0 0 0 0 0 0 0 0 0 0 127 0"/>
<feOffset/>
<feGaussianBlur stdDeviation="0.5"/>
<feColorMatrix type="matrix" values="0 0 0 0 0.156863 0 0 0 0 0.160784 0 0 0 0 0.239216 0 0 0 0.04 0"/>
<feBlend mode="normal" in2="effect1_dropShadow" result="effect2_dropShadow"/>
<feBlend mode="normal" in="SourceGraphic" in2="effect2_dropShadow" result="shape"/>
</filter>
<filter id="filter1_b" x="93.0586" y="168.233" width="371.981" height="218.972" filterUnits="userSpaceOnUse" color-interpolation-filters="sRGB">
<feFlood flood-opacity="0" result="BackgroundImageFix"/>
<feGaussianBlur in="BackgroundImage" stdDeviation="2.5"/>
<feComposite in2="SourceAlpha" operator="in" result="effect1_backgroundBlur"/>
<feBlend mode="normal" in="SourceGraphic" in2="effect1_backgroundBlur" result="shape"/>
</filter>
<filter id="filter2_dd" x="125" y="149.344" width="229.832" height="139.957" filterUnits="userSpaceOnUse" color-interpolation-filters="sRGB">
<feFlood flood-opacity="0" result="BackgroundImageFix"/>
<feColorMatrix in="SourceAlpha" type="matrix" values="0 0 0 0 0 0 0 0 0 0 0 0 0 0 0 0 0 0 127 0"/>
<feOffset dy="2"/>
<feGaussianBlur stdDeviation="2"/>
<feColorMatrix type="matrix" values="0 0 0 0 0.376471 0 0 0 0 0.380392 0 0 0 0 0.439216 0 0 0 0.16 0"/>
<feBlend mode="normal" in2="BackgroundImageFix" result="effect1_dropShadow"/>
<feColorMatrix in="SourceAlpha" type="matrix" values="0 0 0 0 0 0 0 0 0 0 0 0 0 0 0 0 0 0 127 0"/>
<feOffset/>
<feGaussianBlur stdDeviation="0.5"/>
<feColorMatrix type="matrix" values="0 0 0 0 0.156863 0 0 0 0 0.160784 0 0 0 0 0.239216 0 0 0 0.04 0"/>
<feBlend mode="normal" in2="effect1_dropShadow" result="effect2_dropShadow"/>
<feBlend mode="normal" in="SourceGraphic" in2="effect2_dropShadow" result="shape"/>
</filter>
<filter id="filter3_dd" x="358.63" y="41.7158" width="299.602" height="192.546" filterUnits="userSpaceOnUse" color-interpolation-filters="sRGB">
<feFlood flood-opacity="0" result="BackgroundImageFix"/>
<feColorMatrix in="SourceAlpha" type="matrix" values="0 0 0 0 0 0 0 0 0 0 0 0 0 0 0 0 0 0 127 0"/>
<feOffset dy="8"/>
<feGaussianBlur stdDeviation="8"/>
<feColorMatrix type="matrix" values="0 0 0 0 0.376471 0 0 0 0 0.380392 0 0 0 0 0.439216 0 0 0 0.16 0"/>
<feBlend mode="normal" in2="BackgroundImageFix" result="effect1_dropShadow"/>
<feColorMatrix in="SourceAlpha" type="matrix" values="0 0 0 0 0 0 0 0 0 0 0 0 0 0 0 0 0 0 127 0"/>
<feOffset dy="2"/>
<feGaussianBlur stdDeviation="2"/>
<feColorMatrix type="matrix" values="0 0 0 0 0.156863 0 0 0 0 0.160784 0 0 0 0 0.239216 0 0 0 0.04 0"/>
<feBlend mode="normal" in2="effect1_dropShadow" result="effect2_dropShadow"/>
<feBlend mode="normal" in="SourceGraphic" in2="effect2_dropShadow" result="shape"/>
</filter>
<filter id="filter4_dd" x="400.216" y="304.857" width="283.602" height="176.546" filterUnits="userSpaceOnUse" color-interpolation-filters="sRGB">
<feFlood flood-opacity="0" result="BackgroundImageFix"/>
<feColorMatrix in="SourceAlpha" type="matrix" values="0 0 0 0 0 0 0 0 0 0 0 0 0 0 0 0 0 0 127 0"/>
<feOffset dy="4"/>
<feGaussianBlur stdDeviation="4"/>
<feColorMatrix type="matrix" values="0 0 0 0 0.376471 0 0 0 0 0.380392 0 0 0 0 0.439216 0 0 0 0.16 0"/>
<feBlend mode="normal" in2="BackgroundImageFix" result="effect1_dropShadow"/>
<feColorMatrix in="SourceAlpha" type="matrix" values="0 0 0 0 0 0 0 0 0 0 0 0 0 0 0 0 0 0 127 0"/>
<feOffset/>
<feGaussianBlur stdDeviation="1"/>
<feColorMatrix type="matrix" values="0 0 0 0 0.156863 0 0 0 0 0.160784 0 0 0 0 0.239216 0 0 0 0.04 0"/>
<feBlend mode="normal" in2="effect1_dropShadow" result="effect2_dropShadow"/>
<feBlend mode="normal" in="SourceGraphic" in2="effect2_dropShadow" result="shape"/>
</filter>
<filter id="filter5_dd" x="483.059" y="352.84" width="172.66" height="101.368" filterUnits="userSpaceOnUse" color-interpolation-filters="sRGB">
<feFlood flood-opacity="0" result="BackgroundImageFix"/>
<feColorMatrix in="SourceAlpha" type="matrix" values="0 0 0 0 0 0 0 0 0 0 0 0 0 0 0 0 0 0 127 0"/>
<feOffset dy="0.5"/>
<feGaussianBlur stdDeviation="1"/>
<feColorMatrix type="matrix" values="0 0 0 0 0.376471 0 0 0 0 0.380392 0 0 0 0 0.439216 0 0 0 0.16 0"/>
<feBlend mode="normal" in2="BackgroundImageFix" result="effect1_dropShadow"/>
<feColorMatrix in="SourceAlpha" type="matrix" values="0 0 0 0 0 0 0 0 0 0 0 0 0 0 0 0 0 0 127 0"/>
<feOffset/>
<feGaussianBlur stdDeviation="0.5"/>
<feColorMatrix type="matrix" values="0 0 0 0 0.156863 0 0 0 0 0.160784 0 0 0 0 0.239216 0 0 0 0.08 0"/>
<feBlend mode="normal" in2="effect1_dropShadow" result="effect2_dropShadow"/>
<feBlend mode="normal" in="SourceGraphic" in2="effect2_dropShadow" result="shape"/>
</filter>
<filter id="filter6_dd" x="422.059" y="314.343" width="184.656" height="113.365" filterUnits="userSpaceOnUse" color-interpolation-filters="sRGB">
<feFlood flood-opacity="0" result="BackgroundImageFix"/>
<feColorMatrix in="SourceAlpha" type="matrix" values="0 0 0 0 0 0 0 0 0 0 0 0 0 0 0 0 0 0 127 0"/>
<feOffset dy="4"/>
<feGaussianBlur stdDeviation="4"/>
<feColorMatrix type="matrix" values="0 0 0 0 0.376471 0 0 0 0 0.380392 0 0 0 0 0.439216 0 0 0 0.16 0"/>
<feBlend mode="normal" in2="BackgroundImageFix" result="effect1_dropShadow"/>
<feColorMatrix in="SourceAlpha" type="matrix" values="0 0 0 0 0 0 0 0 0 0 0 0 0 0 0 0 0 0 127 0"/>
<feOffset/>
<feGaussianBlur stdDeviation="1"/>
<feColorMatrix type="matrix" values="0 0 0 0 0.156863 0 0 0 0 0.160784 0 0 0 0 0.239216 0 0 0 0.04 0"/>
<feBlend mode="normal" in2="effect1_dropShadow" result="effect2_dropShadow"/>
<feBlend mode="normal" in="SourceGraphic" in2="effect2_dropShadow" result="shape"/>
</filter>
<linearGradient id="paint0_linear" x1="119.23" y1="318.476" x2="502.872" y2="418.452" gradientUnits="userSpaceOnUse">
<stop stop-color="#8B90A4"/>
<stop offset="1" stop-color="#28293D"/>
</linearGradient>
<linearGradient id="paint1_linear" x1="182.5" y1="249.461" x2="206.5" y2="293" gradientUnits="userSpaceOnUse">
<stop stop-color="#39D98A"/>
<stop offset="1" stop-color="#47FFA4" stop-opacity="0"/>
</linearGradient>
<linearGradient id="paint2_linear" x1="167.5" y1="277" x2="163.897" y2="284.124" gradientUnits="userSpaceOnUse">
<stop stop-color="#E4E4EB"/>
<stop offset="1" stop-color="#EDF0F4"/>
</linearGradient>
<linearGradient id="paint3_linear" x1="436.31" y1="141.449" x2="572.381" y2="-14.4945" gradientUnits="userSpaceOnUse">
<stop stop-color="#E4E4EB"/>
<stop offset="1" stop-color="#EDF0F4"/>
</linearGradient>
<linearGradient id="paint4_linear" x1="-3.38016" y1="1.40348" x2="-2.5751" y2="18.0581" gradientUnits="userSpaceOnUse">
<stop stop-color="#868AC1"/>
<stop offset="1" stop-color="#28293D"/>
</linearGradient>
<linearGradient id="paint5_linear" x1="-3.38016" y1="1.40348" x2="-2.5751" y2="18.0581" gradientUnits="userSpaceOnUse">
<stop stop-color="#868AC1"/>
<stop offset="1" stop-color="#28293D"/>
</linearGradient>
<linearGradient id="paint6_linear" x1="474.746" y1="1.73695" x2="544.934" y2="81.7698" gradientUnits="userSpaceOnUse">
<stop stop-color="#57EBA1"/>
<stop offset="1" stop-color="#F0FFF8"/>
</linearGradient>
<linearGradient id="paint7_linear" x1="501.065" y1="49.3588" x2="533.121" y2="104.883" gradientUnits="userSpaceOnUse">
<stop stop-color="#57EBA1"/>
<stop offset="1" stop-color="#57EBA1" stop-opacity="0.45"/>
</linearGradient>
<linearGradient id="paint8_linear" x1="510.778" y1="88.4185" x2="529.233" y2="120.208" gradientUnits="userSpaceOnUse">
<stop stop-color="#DEFFEF"/>
<stop offset="1" stop-color="#1EFF93"/>
</linearGradient>
<linearGradient id="paint9_linear" x1="513.401" y1="93.1978" x2="530.313" y2="122.49" gradientUnits="userSpaceOnUse">
<stop stop-color="#39D98A"/>
<stop offset="1" stop-color="#47FFA4" stop-opacity="0.42"/>
</linearGradient>
<linearGradient id="paint10_linear" x1="-3.38016" y1="1.40348" x2="-2.5751" y2="18.0581" gradientUnits="userSpaceOnUse">
<stop stop-color="#868AC1"/>
<stop offset="1" stop-color="#28293D"/>
</linearGradient>
<linearGradient id="paint11_linear" x1="-3.38016" y1="1.40348" x2="-2.5751" y2="18.0581" gradientUnits="userSpaceOnUse">
<stop stop-color="#868AC1"/>
<stop offset="1" stop-color="#28293D"/>
</linearGradient>
<linearGradient id="paint12_linear" x1="515.747" y1="25.0914" x2="585.935" y2="105.124" gradientUnits="userSpaceOnUse">
<stop stop-color="#57EBA1"/>
<stop offset="1" stop-color="#F0FFF8"/>
</linearGradient>
<linearGradient id="paint13_linear" x1="542.065" y1="72.7133" x2="574.122" y2="128.238" gradientUnits="userSpaceOnUse">
<stop stop-color="#57EBA1"/>
<stop offset="1" stop-color="#57EBA1" stop-opacity="0.45"/>
</linearGradient>
<linearGradient id="paint14_linear" x1="551.779" y1="111.773" x2="570.234" y2="143.563" gradientUnits="userSpaceOnUse">
<stop stop-color="#DEFFEF"/>
<stop offset="1" stop-color="#1EFF93"/>
</linearGradient>
<linearGradient id="paint15_linear" x1="554.401" y1="116.552" x2="571.313" y2="145.845" gradientUnits="userSpaceOnUse">
<stop stop-color="#39D98A"/>
<stop offset="1" stop-color="#47FFA4" stop-opacity="0.42"/>
</linearGradient>
<linearGradient id="paint16_linear" x1="469.896" y1="400.591" x2="605.968" y2="244.647" gradientUnits="userSpaceOnUse">
<stop stop-color="#E4E4EB"/>
<stop offset="1" stop-color="#EDF0F4"/>
</linearGradient>
<clipPath id="clip0">
<rect width="11.9141" height="11.9141" fill="white" transform="matrix(0.866044 -0.499967 0.866044 0.499967 522.272 424.268)"/>
</clipPath>
<clipPath id="clip1">
<rect width="11.9141" height="11.9141" fill="white" transform="matrix(0.866044 -0.499967 0.866044 0.499967 467.272 388.268)"/>
</clipPath>
</defs>
</svg>
