<svg width="351" height="351" viewBox="0 0 351 351" fill="none" xmlns="http://www.w3.org/2000/svg">
  <path d="M287.348 238.168C253.132 283.814 180.043 268.406 133.183 270.623C133.183 270.623 124.888 271.085 116.532 272.462C116.532 272.462 119.692 271.112 123.721 269.721C156.633 258.325 172.186 256.035 192.184 245.75C229.759 226.478 267.154 184.498 274.763 140.889C260.461 182.831 216.963 218.93 177.356 233.588C150.247 243.605 101.222 253.353 101.215 253.357C101.238 253.392 99.2613 252.329 99.2337 252.306C65.8931 236.064 64.9311 163.761 125.484 140.454C152.033 130.228 177.428 135.845 206.128 129.005C236.739 121.718 272.192 98.7433 286.602 68.7071C302.757 116.685 322.163 191.747 287.348 238.168V238.168ZM287.943 53.84C283.869 63.5297 278.898 72.2613 273.168 80.0712C247.943 54.1501 212.736 38 173.821 38C97.2705 38 35 100.358 35 176.992C35 217.166 52.1261 253.399 79.4305 278.796L82.4705 281.492C77.394 277.347 76.6133 269.882 80.7278 264.795C84.8676 259.705 92.3297 258.916 97.4086 263.038C102.501 267.17 103.277 274.653 99.1538 279.75C95.0458 284.849 87.57 285.619 82.4843 281.504L84.553 283.338C108.705 303.7 139.839 316 173.821 316C246.99 316 307.073 258.985 312.216 187.023C316.025 151.788 305.631 107.048 287.943 53.84Z" fill="#5FB832"/>
</svg>