<svg width="192" height="192" viewBox="0 0 192 192" fill="none" xmlns="http://www.w3.org/2000/svg">
<path d="M98.0043 32.0009C96.9003 31.967 96 32.866 96 33.9711L96 61.0164C96 62.1101 96.8799 62.9948 97.9701 63.0743C115.318 64.3393 129 78.8212 129 96.5002C129 114.179 115.318 128.661 97.9701 129.926C96.8799 130.006 96 130.89 96 131.984L96 158.029C96 159.134 96.9002 160.033 98.0043 159.999C132.423 158.94 160 130.692 160 96C160 61.3082 132.423 33.0602 98.0043 32.0009Z" fill="#39D98A"/>
<path d="M96.0005 75.0066C95.8343 75.0026 95.6676 75.0006 95.5005 75.0006C84.1787 75.0006 75.0005 84.1788 75.0005 95.5006C75.0005 106.822 84.1786 116.001 95.5005 116.001C95.6676 116.001 95.8343 115.999 96.0005 115.995L96.0005 75.0066Z" fill="#223C37"/>
<path d="M96.0005 115.995C107.091 115.729 116 106.655 116 95.5006C116 84.3459 107.091 75.2721 96.0005 75.0066L96.0005 115.995Z" fill="#376C66"/>
</svg>
