<svg width="203" height="48" viewBox="0 0 203 48" fill="none" xmlns="http://www.w3.org/2000/svg">
<path d="M54.08 39.95C53.78 39.95 53.525 39.845 53.315 39.635C53.105 39.425 53 39.17 53 38.87V9.08C53 8.75 53.105 8.495 53.315 8.315C53.525 8.105 53.78 8 54.08 8H57.725C58.055 8 58.31 8.105 58.49 8.315C58.7 8.495 58.805 8.75 58.805 9.08V24.47L66.365 17.315C66.455 17.255 66.605 17.135 66.815 16.955C66.995 16.805 67.175 16.7 67.355 16.64C67.535 16.58 67.76 16.55 68.03 16.55H72.215C72.515 16.55 72.755 16.64 72.935 16.82C73.115 17 73.205 17.24 73.205 17.54C73.205 17.81 73.055 18.08 72.755 18.35L63.485 27.035L73.88 38.195C74.18 38.495 74.33 38.75 74.33 38.96C74.33 39.26 74.225 39.5 74.015 39.68C73.835 39.86 73.61 39.95 73.34 39.95H69.065C68.645 39.95 68.33 39.905 68.12 39.815C67.94 39.695 67.7 39.485 67.4 39.185L58.805 30.14V38.87C58.805 39.17 58.7 39.425 58.49 39.635C58.31 39.845 58.055 39.95 57.725 39.95H54.08Z" fill="#28293D"/>
<path d="M84.0518 40.4C82.5218 40.4 81.1118 40.1 79.8218 39.5C78.5618 38.87 77.5568 38.03 76.8068 36.98C76.0868 35.93 75.7268 34.775 75.7268 33.515C75.7268 31.475 76.5518 29.825 78.2018 28.565C79.8518 27.305 82.1168 26.45 84.9968 26L91.1618 25.1V24.155C91.1618 22.835 90.8318 21.845 90.1718 21.185C89.5118 20.525 88.4468 20.195 86.9768 20.195C85.9868 20.195 85.1768 20.39 84.5468 20.78C83.9468 21.14 83.4668 21.5 83.1068 21.86C82.7468 22.25 82.5068 22.505 82.3868 22.625C82.2668 22.985 82.0418 23.165 81.7118 23.165H78.2468C77.9768 23.165 77.7368 23.075 77.5268 22.895C77.3468 22.715 77.2568 22.475 77.2568 22.175C77.2868 21.425 77.6468 20.57 78.3368 19.61C79.0568 18.65 80.1518 17.825 81.6218 17.135C83.0918 16.445 84.8918 16.1 87.0218 16.1C90.5618 16.1 93.1418 16.895 94.7618 18.485C96.3818 20.075 97.1918 22.16 97.1918 24.74V38.87C97.1918 39.17 97.0868 39.425 96.8768 39.635C96.6968 39.845 96.4418 39.95 96.1118 39.95H92.4668C92.1668 39.95 91.9118 39.845 91.7018 39.635C91.4918 39.425 91.3868 39.17 91.3868 38.87V37.115C90.7268 38.075 89.7818 38.87 88.5518 39.5C87.3518 40.1 85.8518 40.4 84.0518 40.4ZM85.5818 36.125C87.2318 36.125 88.5818 35.585 89.6318 34.505C90.6818 33.425 91.2068 31.85 91.2068 29.78V28.835L86.7068 29.555C84.9668 29.825 83.6468 30.26 82.7468 30.86C81.8768 31.46 81.4418 32.195 81.4418 33.065C81.4418 34.025 81.8468 34.775 82.6568 35.315C83.4668 35.855 84.4418 36.125 85.5818 36.125Z" fill="#28293D"/>
<path d="M104.045 39.95C103.745 39.95 103.49 39.845 103.28 39.635C103.07 39.425 102.965 39.17 102.965 38.87V17.63C102.965 17.33 103.07 17.075 103.28 16.865C103.49 16.655 103.745 16.55 104.045 16.55H107.555C107.855 16.55 108.11 16.655 108.32 16.865C108.53 17.075 108.635 17.33 108.635 17.63V19.16C110.195 17.12 112.37 16.1 115.16 16.1C118.49 16.1 120.815 17.435 122.135 20.105C122.855 18.905 123.875 17.945 125.195 17.225C126.515 16.475 127.94 16.1 129.47 16.1C131.93 16.1 133.94 16.94 135.5 18.62C137.06 20.3 137.84 22.745 137.84 25.955V38.87C137.84 39.17 137.735 39.425 137.525 39.635C137.345 39.845 137.09 39.95 136.76 39.95H133.07C132.77 39.95 132.515 39.845 132.305 39.635C132.095 39.425 131.99 39.17 131.99 38.87V26.315C131.99 24.425 131.585 23.06 130.775 22.22C129.995 21.35 128.945 20.915 127.625 20.915C126.455 20.915 125.45 21.35 124.61 22.22C123.8 23.09 123.395 24.455 123.395 26.315V38.87C123.395 39.17 123.29 39.425 123.08 39.635C122.87 39.845 122.615 39.95 122.315 39.95H118.625C118.325 39.95 118.07 39.845 117.86 39.635C117.65 39.425 117.545 39.17 117.545 38.87V26.315C117.545 24.425 117.125 23.06 116.285 22.22C115.475 21.35 114.44 20.915 113.18 20.915C111.98 20.915 110.96 21.35 110.12 22.22C109.31 23.09 108.905 24.455 108.905 26.315V38.87C108.905 39.17 108.8 39.425 108.59 39.635C108.38 39.845 108.125 39.95 107.825 39.95H104.045Z" fill="#28293D"/>
<path d="M153.92 40.4C150.41 40.4 147.695 39.5 145.775 37.7C143.855 35.87 142.82 33.38 142.67 30.23L142.625 28.25L142.67 26.27C142.82 23.15 143.87 20.675 145.82 18.845C147.77 17.015 150.47 16.1 153.92 16.1C157.37 16.1 160.07 17.015 162.02 18.845C163.97 20.675 165.02 23.15 165.17 26.27C165.2 26.63 165.215 27.29 165.215 28.25C165.215 29.21 165.2 29.87 165.17 30.23C165.02 33.38 163.985 35.87 162.065 37.7C160.145 39.5 157.43 40.4 153.92 40.4ZM153.92 35.945C155.51 35.945 156.74 35.45 157.61 34.46C158.48 33.44 158.96 31.955 159.05 30.005C159.08 29.705 159.095 29.12 159.095 28.25C159.095 27.38 159.08 26.795 159.05 26.495C158.96 24.545 158.48 23.075 157.61 22.085C156.74 21.065 155.51 20.555 153.92 20.555C152.33 20.555 151.1 21.065 150.23 22.085C149.36 23.075 148.88 24.545 148.79 26.495L148.745 28.25L148.79 30.005C148.88 31.955 149.36 33.44 150.23 34.46C151.1 35.45 152.33 35.945 153.92 35.945Z" fill="#28293D"/>
<path d="M171.281 39.95C170.981 39.95 170.726 39.845 170.516 39.635C170.306 39.425 170.201 39.17 170.201 38.87V17.63C170.201 17.33 170.306 17.075 170.516 16.865C170.726 16.655 170.981 16.55 171.281 16.55H174.971C175.271 16.55 175.526 16.655 175.736 16.865C175.946 17.075 176.051 17.33 176.051 17.63V19.475C177.821 17.225 180.326 16.1 183.566 16.1C186.326 16.1 188.516 17.015 190.136 18.845C191.756 20.645 192.566 23.105 192.566 26.225V38.87C192.566 39.17 192.461 39.425 192.251 39.635C192.071 39.845 191.816 39.95 191.486 39.95H187.526C187.226 39.95 186.971 39.845 186.761 39.635C186.551 39.425 186.446 39.17 186.446 38.87V26.495C186.446 24.725 186.011 23.36 185.141 22.4C184.301 21.41 183.071 20.915 181.451 20.915C179.861 20.915 178.601 21.41 177.671 22.4C176.771 23.39 176.321 24.755 176.321 26.495V38.87C176.321 39.17 176.216 39.425 176.006 39.635C175.826 39.845 175.571 39.95 175.241 39.95H171.281Z" fill="#28293D"/>
<path d="M10 9.00191C10 8.44857 10.4505 8 11.0061 8L18.746 8C19.1708 8 19.4044 8.4919 19.1348 8.81884L10.8919 18.8159C10.5921 19.1795 10 18.9684 10 18.4981L10 9.00191Z" fill="#223C37"/>
<path d="M16.2489 23C15.4229 23 14.9551 23.9495 15.4569 24.6075L26.8969 39.6075C27.0855 39.8549 27.3783 40 27.6888 40H37.0011C37.829 40 38.2962 39.0466 37.7905 38.3892L26.2526 23.3892C26.0638 23.1438 25.7722 23 25.4631 23L16.2489 23Z" fill="#376C66"/>
<path d="M15.2973 24.4691L20.7983 31.5L28.8668 21.0677L37.7892 9.60228C38.2981 8.94833 37.8279 8 36.9947 8L27.6143 8C27.307 8 27.0168 8.1395 26.8265 8.37859L15.2719 22.8965C14.8723 23.3987 14.9409 24.0459 15.2973 24.4691Z" fill="#39D98A"/>
</svg>
