<svg width="123" height="36" viewBox="0 0 123 36" fill="none" xmlns="http://www.w3.org/2000/svg">
<path d="M5.75096 0.000233142C5.47495 -0.00826172 5.24989 0.216495 5.24989 0.492766L5.24989 7.2541C5.24989 7.52751 5.46985 7.74871 5.74241 7.76858C10.0794 8.08481 13.4999 11.7053 13.4999 16.1251C13.4999 20.5448 10.0794 24.1653 5.74241 24.4815C5.46984 24.5014 5.24988 24.7226 5.24988 24.996L5.24988 31.5072C5.24988 31.7835 5.47494 32.0083 5.75095 31.9998C14.3556 31.7349 21.2499 24.673 21.2499 16C21.2499 7.32704 14.3557 0.265061 5.75096 0.000233142Z" fill="#39D98A"/>
<path d="M5.25 10.7517C5.20845 10.7507 5.16679 10.7502 5.125 10.7502C2.29454 10.7502 1.16596e-06 13.0448 0 15.8752C-6.89123e-07 18.7057 2.29454 21.0002 5.125 21.0002C5.16678 21.0002 5.20845 20.9997 5.25 20.9987L5.25 10.7517Z" fill="#223C37"/>
<path d="M5.25 20.9987C8.02271 20.9323 10.25 18.6639 10.25 15.8752C10.25 13.0865 8.02271 10.8181 5.25 10.7517L5.25 20.9987Z" fill="#376C66"/>
<path d="M41.5479 28C40.0229 28 38.6174 27.7037 37.3316 27.1111C36.0757 26.4889 35.074 25.6593 34.3264 24.6222C33.6087 23.5852 33.2499 22.4444 33.2499 21.2C33.2499 19.1852 34.0722 17.5556 35.7169 16.3111C37.3615 15.0667 39.6192 14.2222 42.4899 13.7778L48.6349 12.8889V11.9556C48.6349 10.6519 48.3059 9.67408 47.6481 9.02222C46.9902 8.37037 45.9287 8.04445 44.4634 8.04445C43.4766 8.04445 42.6692 8.23704 42.0413 8.62222C41.4432 8.97778 40.9648 9.33333 40.606 9.68889C40.2471 10.0741 40.0079 10.3259 39.8883 10.4444C39.7687 10.8 39.5444 10.9778 39.2155 10.9778H35.7617C35.4926 10.9778 35.2534 10.8889 35.0441 10.7111C34.8646 10.5333 34.7749 10.2963 34.7749 10C34.8048 9.25926 35.1637 8.41482 35.8514 7.46667C36.5691 6.51852 37.6605 5.70371 39.1258 5.02222C40.591 4.34074 42.3852 4 44.5083 4C48.0368 4 50.6085 4.78519 52.2232 6.35556C53.838 7.92593 54.6453 9.98519 54.6453 12.5333V26.4889C54.6453 26.7852 54.5407 27.037 54.3313 27.2444C54.1519 27.4519 53.8977 27.5556 53.5688 27.5556H49.9356C49.6366 27.5556 49.3824 27.4519 49.1731 27.2444C48.9638 27.037 48.8591 26.7852 48.8591 26.4889V24.7556C48.2013 25.7037 47.2593 26.4889 46.0333 27.1111C44.8372 27.7037 43.3421 28 41.5479 28ZM43.0729 23.7778C44.7176 23.7778 46.0632 23.2444 47.1098 22.1778C48.1564 21.1111 48.6797 19.5556 48.6797 17.5111V16.5778L44.1943 17.2889C42.4599 17.5556 41.1442 17.9852 40.2471 18.5778C39.38 19.1704 38.9464 19.8963 38.9464 20.7556C38.9464 21.7037 39.35 22.4444 40.1574 22.9778C40.9648 23.5111 41.9366 23.7778 43.0729 23.7778Z" fill="#28293D"/>
<path d="M61.521 36C61.222 36 60.9678 35.8963 60.7585 35.6889C60.5491 35.5111 60.4445 35.2593 60.4445 34.9333V5.51111C60.4445 5.18519 60.5491 4.93333 60.7585 4.75556C60.9678 4.54815 61.222 4.44445 61.521 4.44445H65.0645C65.3934 4.44445 65.6476 4.54815 65.827 4.75556C66.0363 4.93333 66.141 5.18519 66.141 5.51111V7.28889C67.8155 5.0963 70.2077 4 73.3176 4C76.3378 4 78.6553 4.94815 80.27 6.84445C81.8848 8.71111 82.752 11.2444 82.8716 14.4444C82.9015 14.8 82.9164 15.3185 82.9164 16C82.9164 16.7111 82.9015 17.2444 82.8716 17.6C82.752 20.7111 81.8848 23.2296 80.27 25.1556C78.6553 27.0519 76.3378 28 73.3176 28C70.2974 28 67.9949 26.9481 66.4101 24.8444V34.9333C66.4101 35.2593 66.3054 35.5111 66.0961 35.6889C65.9167 35.8963 65.6625 36 65.3336 36H61.521ZM71.658 23.2444C74.8875 23.2444 76.6069 21.2741 76.8163 17.3333C76.8462 17.037 76.8611 16.5926 76.8611 16C76.8611 15.4074 76.8462 14.963 76.8163 14.6667C76.6069 10.7259 74.8875 8.75556 71.658 8.75556C69.9237 8.75556 68.6378 9.3037 67.8006 10.4C66.9633 11.4963 66.4998 12.8444 66.4101 14.4444L66.3652 16.1333L66.4101 17.8667C66.4699 19.3481 66.9334 20.6222 67.8006 21.6889C68.6977 22.7259 69.9835 23.2444 71.658 23.2444Z" fill="#28293D"/>
<path d="M89.0282 27.5556C88.7291 27.5556 88.475 27.4519 88.2656 27.2444C88.0563 27.037 87.9517 26.7852 87.9517 26.4889V5.51111C87.9517 5.21481 88.0563 4.96296 88.2656 4.75556C88.475 4.54815 88.7291 4.44445 89.0282 4.44445H92.5268C92.8258 4.44445 93.08 4.54815 93.2893 4.75556C93.4986 4.96296 93.6033 5.21481 93.6033 5.51111V7.02222C95.1582 5.00741 97.3262 4 100.107 4C103.426 4 105.744 5.31852 107.06 7.95556C107.777 6.77037 108.794 5.82222 110.11 5.11111C111.425 4.37037 112.846 4 114.371 4C116.823 4 118.826 4.82963 120.381 6.48889C121.936 8.14815 122.714 10.563 122.714 13.7333V26.4889C122.714 26.7852 122.609 27.037 122.4 27.2444C122.22 27.4519 121.966 27.5556 121.637 27.5556H117.959C117.66 27.5556 117.406 27.4519 117.197 27.2444C116.987 27.037 116.883 26.7852 116.883 26.4889V14.0889C116.883 12.2222 116.479 10.8741 115.672 10.0444C114.894 9.18519 113.847 8.75556 112.532 8.75556C111.366 8.75556 110.364 9.18519 109.527 10.0444C108.719 10.9037 108.315 12.2519 108.315 14.0889V26.4889C108.315 26.7852 108.211 27.037 108.001 27.2444C107.792 27.4519 107.538 27.5556 107.239 27.5556H103.561C103.262 27.5556 103.008 27.4519 102.798 27.2444C102.589 27.037 102.484 26.7852 102.484 26.4889V14.0889C102.484 12.2222 102.066 10.8741 101.228 10.0444C100.421 9.18519 99.3895 8.75556 98.1336 8.75556C96.9374 8.75556 95.9208 9.18519 95.0835 10.0444C94.2761 10.9037 93.8724 12.2519 93.8724 14.0889V26.4889C93.8724 26.7852 93.7677 27.037 93.5584 27.2444C93.3491 27.4519 93.0949 27.5556 92.7959 27.5556H89.0282Z" fill="#28293D"/>
</svg>