<svg width="40" height="40" viewBox="0 0 40 40" fill="none" xmlns="http://www.w3.org/2000/svg">
<circle cx="20" cy="20" r="20" fill="#3BC882"/>
<path opacity="0.45" d="M13 12.501C13 12.2243 13.2252 12 13.5031 12L17.373 12C17.5854 12 17.7022 12.246 17.5674 12.4094L13.4459 17.408C13.2961 17.5897 13 17.4842 13 17.249L13 12.501Z" fill="white"/>
<path opacity="0.75" d="M16.1245 19.5C15.7115 19.5 15.4776 19.9748 15.7285 20.3038L21.4484 27.8038C21.5428 27.9275 21.6892 28 21.8444 28H26.5005C26.9145 28 27.1481 27.5233 26.8953 27.1946L21.1263 19.6946C21.0319 19.5719 20.8861 19.5 20.7315 19.5L16.1245 19.5Z" fill="white"/>
<path d="M15.6487 20.2346L18.3992 23.75L22.4334 18.5339L26.8946 12.8011C27.1491 12.4742 26.9139 12 26.4974 12L21.8071 12C21.6535 12 21.5084 12.0698 21.4132 12.1893L15.636 19.4483C15.4361 19.6993 15.4705 20.023 15.6487 20.2346Z" fill="white"/>
</svg>
