<svg width="192" height="192" viewBox="0 0 192 192" fill="none" xmlns="http://www.w3.org/2000/svg">
<path d="M105.511 126C106.803 125.997 107.999 126.69 108.645 127.816L124.511 154.371C125.899 156.788 124.168 159.993 121.393 160H31.6239C28.8368 160.007 27.0939 156.969 28.4941 154.545L44.5139 127.899C45.1587 126.783 46.3442 126.095 47.6276 126.092L105.511 126Z" fill="#223C37"/>
<path d="M93.9744 113.177C93.3358 114.304 92.1394 115 90.8427 115H58.6038C55.8328 115 54.1016 112.005 55.4885 109.61L92.4507 45.7941C93.8389 43.3973 97.3071 43.4031 98.6873 45.8045L114.523 73.358C115.155 74.4584 115.159 75.8103 114.533 76.9144L93.9744 113.177Z" fill="#39D98A"/>
<path d="M119.671 158.199C120.319 159.288 120.652 160 121.917 160H160.4C163.215 160 164.937 156.996 163.458 154.596L126.429 92.7089C124.978 90.355 121.53 90.4515 120.212 92.8829L102 126L119.671 158.199Z" fill="#376C66"/>
</svg>
