<svg width="243" height="37" viewBox="0 0 243 37" fill="none" xmlns="http://www.w3.org/2000/svg">
<path d="M60.7219 29.1889C58.2267 29.1889 56.3485 28.5448 55.0872 27.2567C53.8533 25.9411 53.2363 24.0226 53.2363 21.5011V12.1689H49.9871C49.7129 12.1689 49.4799 12.073 49.2879 11.8811C49.096 11.6619 49 11.4152 49 11.1411V8.79778C49 8.5237 49.096 8.29074 49.2879 8.09889C49.4799 7.90704 49.7129 7.81111 49.9871 7.81111H53.2363V0.986667C53.2363 0.685186 53.3323 0.452223 53.5242 0.287779C53.7162 0.0959265 53.9493 0 54.2234 0H57.5549C57.8566 0 58.0896 0.0959265 58.2542 0.287779C58.4461 0.452223 58.5421 0.685186 58.5421 0.986667V7.81111H63.6832C63.9849 7.81111 64.2179 7.90704 64.3824 8.09889C64.5744 8.26333 64.6703 8.4963 64.6703 8.79778V11.1411C64.6703 11.4426 64.5744 11.6893 64.3824 11.8811C64.1905 12.073 63.9574 12.1689 63.6832 12.1689H58.5421V21.09C58.5421 22.2685 58.7477 23.1593 59.159 23.7622C59.5703 24.3652 60.2558 24.6667 61.2155 24.6667H64.0534C64.3276 24.6667 64.5607 24.7626 64.7526 24.9544C64.9445 25.1463 65.0405 25.3793 65.0405 25.6533V28.2022C65.0405 28.4763 64.9445 28.7093 64.7526 28.9011C64.5881 29.093 64.355 29.1889 64.0534 29.1889H60.7219Z" fill="#28293D"/>
<path d="M77.9022 29.6C74.8586 29.6 72.432 28.723 70.6223 26.9689C68.84 25.1874 67.894 22.6933 67.7843 19.4867L67.7432 18.4589L67.7843 17.4311C67.9214 14.3067 68.8811 11.8537 70.6634 10.0722C72.4731 8.29074 74.886 7.4 77.9022 7.4C81.1377 7.4 83.6329 8.38667 85.3877 10.36C87.17 12.3333 88.0612 14.9644 88.0612 18.2533V19.1167C88.0612 19.3907 87.9652 19.6237 87.7733 19.8156C87.5813 20.0074 87.3345 20.1033 87.0329 20.1033H73.3779V20.4322C73.4328 21.9396 73.844 23.2141 74.6118 24.2556C75.407 25.2696 76.4901 25.7767 77.861 25.7767C79.4788 25.7767 80.7812 25.1463 81.7683 23.8856C82.0151 23.5841 82.2071 23.3922 82.3442 23.31C82.5087 23.2278 82.7417 23.1867 83.0434 23.1867H86.5805C86.8273 23.1867 87.0329 23.2689 87.1974 23.4333C87.3894 23.5704 87.4854 23.7485 87.4854 23.9678C87.4854 24.6256 87.0878 25.4067 86.2926 26.3111C85.5248 27.1881 84.4143 27.9556 82.9611 28.6133C81.5079 29.2711 79.8216 29.6 77.9022 29.6ZM82.4675 16.65V16.5267C82.4675 14.9096 82.0563 13.6078 81.2337 12.6211C80.4385 11.6344 79.328 11.1411 77.9022 11.1411C76.4764 11.1411 75.3658 11.6344 74.5707 12.6211C73.7755 13.6078 73.3779 14.9096 73.3779 16.5267V16.65H82.4675Z" fill="#28293D"/>
<path d="M93.4552 29.1889C93.181 29.1889 92.948 29.093 92.756 28.9011C92.5641 28.7093 92.4681 28.4763 92.4681 28.2022V0.986667C92.4681 0.685186 92.5641 0.452223 92.756 0.287779C92.948 0.0959265 93.181 0 93.4552 0H96.869C97.1706 0 97.4037 0.0959265 97.5682 0.287779C97.7601 0.452223 97.8561 0.685186 97.8561 0.986667V28.2022C97.8561 28.4763 97.7601 28.7093 97.5682 28.9011C97.4037 29.093 97.1706 29.1889 96.869 29.1889H93.4552Z" fill="#28293D"/>
<path d="M112.525 29.6C109.481 29.6 107.055 28.723 105.245 26.9689C103.463 25.1874 102.517 22.6933 102.407 19.4867L102.366 18.4589L102.407 17.4311C102.544 14.3067 103.504 11.8537 105.286 10.0722C107.096 8.29074 109.509 7.4 112.525 7.4C115.76 7.4 118.256 8.38667 120.01 10.36C121.793 12.3333 122.684 14.9644 122.684 18.2533V19.1167C122.684 19.3907 122.588 19.6237 122.396 19.8156C122.204 20.0074 121.957 20.1033 121.656 20.1033H108.001V20.4322C108.055 21.9396 108.467 23.2141 109.235 24.2556C110.03 25.2696 111.113 25.7767 112.484 25.7767C114.102 25.7767 115.404 25.1463 116.391 23.8856C116.638 23.5841 116.83 23.3922 116.967 23.31C117.131 23.2278 117.364 23.1867 117.666 23.1867H121.203C121.45 23.1867 121.656 23.2689 121.82 23.4333C122.012 23.5704 122.108 23.7485 122.108 23.9678C122.108 24.6256 121.71 25.4067 120.915 26.3111C120.148 27.1881 119.037 27.9556 117.584 28.6133C116.131 29.2711 114.444 29.6 112.525 29.6ZM117.09 16.65V16.5267C117.09 14.9096 116.679 13.6078 115.856 12.6211C115.061 11.6344 113.951 11.1411 112.525 11.1411C111.099 11.1411 109.989 11.6344 109.193 12.6211C108.398 13.6078 108.001 14.9096 108.001 16.5267V16.65H117.09Z" fill="#28293D"/>
<path d="M128.037 29.1889C127.763 29.1889 127.53 29.093 127.338 28.9011C127.146 28.7093 127.05 28.4763 127.05 28.2022V8.79778C127.05 8.5237 127.146 8.29074 127.338 8.09889C127.53 7.90704 127.763 7.81111 128.037 7.81111H131.245C131.519 7.81111 131.752 7.90704 131.944 8.09889C132.136 8.29074 132.232 8.5237 132.232 8.79778V10.1956C133.658 8.33185 135.646 7.4 138.196 7.4C141.239 7.4 143.364 8.61963 144.571 11.0589C145.229 9.96259 146.161 9.08556 147.368 8.42778C148.574 7.74259 149.877 7.4 151.275 7.4C153.523 7.4 155.361 8.16741 156.786 9.70222C158.212 11.237 158.925 13.4707 158.925 16.4033V28.2022C158.925 28.4763 158.829 28.7093 158.637 28.9011C158.473 29.093 158.24 29.1889 157.938 29.1889H154.565C154.291 29.1889 154.058 29.093 153.866 28.9011C153.674 28.7093 153.578 28.4763 153.578 28.2022V16.7322C153.578 15.0056 153.208 13.7585 152.468 12.9911C151.755 12.1963 150.795 11.7989 149.589 11.7989C148.519 11.7989 147.601 12.1963 146.833 12.9911C146.093 13.7859 145.722 15.033 145.722 16.7322V28.2022C145.722 28.4763 145.627 28.7093 145.435 28.9011C145.243 29.093 145.01 29.1889 144.735 29.1889H141.363C141.089 29.1889 140.856 29.093 140.664 28.9011C140.472 28.7093 140.376 28.4763 140.376 28.2022V16.7322C140.376 15.0056 139.992 13.7585 139.224 12.9911C138.484 12.1963 137.538 11.7989 136.386 11.7989C135.289 11.7989 134.357 12.1963 133.589 12.9911C132.849 13.7859 132.479 15.033 132.479 16.7322V28.2022C132.479 28.4763 132.383 28.7093 132.191 28.9011C131.999 29.093 131.766 29.1889 131.492 29.1889H128.037Z" fill="#28293D"/>
<path d="M173.376 29.6C170.332 29.6 167.905 28.723 166.096 26.9689C164.313 25.1874 163.367 22.6933 163.258 19.4867L163.217 18.4589L163.258 17.4311C163.395 14.3067 164.355 11.8537 166.137 10.0722C167.947 8.29074 170.359 7.4 173.376 7.4C176.611 7.4 179.106 8.38667 180.861 10.36C182.644 12.3333 183.535 14.9644 183.535 18.2533V19.1167C183.535 19.3907 183.439 19.6237 183.247 19.8156C183.055 20.0074 182.808 20.1033 182.506 20.1033H168.851V20.4322C168.906 21.9396 169.318 23.2141 170.085 24.2556C170.88 25.2696 171.964 25.7767 173.335 25.7767C174.952 25.7767 176.255 25.1463 177.242 23.8856C177.489 23.5841 177.681 23.3922 177.818 23.31C177.982 23.2278 178.215 23.1867 178.517 23.1867H182.054C182.301 23.1867 182.506 23.2689 182.671 23.4333C182.863 23.5704 182.959 23.7485 182.959 23.9678C182.959 24.6256 182.561 25.4067 181.766 26.3111C180.998 27.1881 179.888 27.9556 178.435 28.6133C176.981 29.2711 175.295 29.6 173.376 29.6ZM177.941 16.65V16.5267C177.941 14.9096 177.53 13.6078 176.707 12.6211C175.912 11.6344 174.801 11.1411 173.376 11.1411C171.95 11.1411 170.839 11.6344 170.044 12.6211C169.249 13.6078 168.851 14.9096 168.851 16.5267V16.65H177.941Z" fill="#28293D"/>
<path d="M197.486 29.1889C194.99 29.1889 193.112 28.5448 191.851 27.2567C190.617 25.9411 190 24.0226 190 21.5011V12.1689H186.751C186.477 12.1689 186.244 12.073 186.052 11.8811C185.86 11.6619 185.764 11.4152 185.764 11.1411V8.79778C185.764 8.5237 185.86 8.29074 186.052 8.09889C186.244 7.90704 186.477 7.81111 186.751 7.81111H190V0.986667C190 0.685186 190.096 0.452223 190.288 0.287779C190.48 0.0959265 190.713 0 190.987 0H194.319C194.62 0 194.853 0.0959265 195.018 0.287779C195.21 0.452223 195.306 0.685186 195.306 0.986667V7.81111H200.447C200.749 7.81111 200.982 7.90704 201.146 8.09889C201.338 8.26333 201.434 8.4963 201.434 8.79778V11.1411C201.434 11.4426 201.338 11.6893 201.146 11.8811C200.954 12.073 200.721 12.1689 200.447 12.1689H195.306V21.09C195.306 22.2685 195.511 23.1593 195.923 23.7622C196.334 24.3652 197.019 24.6667 197.979 24.6667H200.817C201.091 24.6667 201.324 24.7626 201.516 24.9544C201.708 25.1463 201.804 25.3793 201.804 25.6533V28.2022C201.804 28.4763 201.708 28.7093 201.516 28.9011C201.352 29.093 201.119 29.1889 200.817 29.1889H197.486Z" fill="#28293D"/>
<path d="M206.44 29.1889C206.166 29.1889 205.933 29.093 205.741 28.9011C205.549 28.7093 205.453 28.4763 205.453 28.2022V8.83889C205.453 8.56482 205.549 8.33185 205.741 8.14C205.933 7.92074 206.166 7.81111 206.44 7.81111H209.771C210.073 7.81111 210.32 7.90704 210.512 8.09889C210.704 8.29074 210.8 8.53741 210.8 8.83889V10.5244C211.458 9.64741 212.28 8.97593 213.267 8.51C214.282 8.04408 215.434 7.81111 216.722 7.81111H218.409C218.71 7.81111 218.943 7.90704 219.108 8.09889C219.3 8.26333 219.396 8.4963 219.396 8.79778V11.7578C219.396 12.0319 219.3 12.2648 219.108 12.4567C218.943 12.6485 218.71 12.7444 218.409 12.7444H215.201C213.912 12.7444 212.897 13.1144 212.157 13.8544C211.417 14.5944 211.046 15.6085 211.046 16.8967V28.2022C211.046 28.4763 210.95 28.7093 210.759 28.9011C210.567 29.093 210.32 29.1889 210.018 29.1889H206.44Z" fill="#28293D"/>
<path d="M226.47 37C226.25 37 226.058 36.9178 225.894 36.7533C225.729 36.5889 225.647 36.397 225.647 36.1778C225.647 35.9311 225.702 35.7119 225.812 35.52L229.02 27.9144L221.123 9.29111C221.013 9.04445 220.958 8.85259 220.958 8.71556C220.986 8.46889 221.082 8.26333 221.246 8.09889C221.411 7.90704 221.616 7.81111 221.863 7.81111H225.195C225.716 7.81111 226.086 8.07148 226.305 8.59222L231.775 22.0356L237.41 8.59222C237.63 8.07148 238 7.81111 238.521 7.81111H241.811C242.03 7.81111 242.222 7.89333 242.387 8.05778C242.579 8.22222 242.675 8.41408 242.675 8.63334C242.675 8.82519 242.62 9.04445 242.51 9.29111L230.871 36.2189C230.624 36.7396 230.24 37 229.719 37H226.47Z" fill="#28293D"/>
<path d="M19.3778 20.5C19.7009 20.4993 19.9997 20.6724 20.1612 20.9539L24.1278 27.5927C24.4746 28.197 24.0421 28.9983 23.3484 29H0.905984C0.209204 29.0017 -0.226536 28.2422 0.12352 27.6362L4.12847 20.9748C4.28967 20.6957 4.58605 20.5237 4.90691 20.523L19.3778 20.5Z" fill="#223C37"/>
<path d="M16.4936 17.2943C16.3339 17.5759 16.0348 17.75 15.7107 17.75H7.65095C6.9582 17.75 6.5254 17.0012 6.87213 16.4026L16.1127 0.448523C16.4597 -0.150667 17.3268 -0.149215 17.6718 0.451133L21.6307 7.3395C21.7888 7.61461 21.7898 7.95257 21.6333 8.22859L16.4936 17.2943Z" fill="#39D98A"/>
<path d="M22.9177 28.5498C23.0798 28.8219 23.163 29 23.4793 29H33.1C33.8036 29 34.2343 28.2489 33.8645 27.6491L24.6072 12.1772C24.2444 11.5888 23.3825 11.6129 23.0531 12.2207L18.5 20.5L22.9177 28.5498Z" fill="#376C66"/>
</svg>
