<svg width="158" height="64" viewBox="0 0 158 64" fill="none" xmlns="http://www.w3.org/2000/svg">
<path d="M24.5011 16.0002C24.2251 15.9917 24 16.2165 24 16.4928L24 23.2541C24 23.5275 24.22 23.7487 24.4925 23.7686C28.8296 24.0848 32.25 27.7053 32.25 32.1251C32.25 36.5448 28.8296 40.1653 24.4925 40.4815C24.22 40.5014 24 40.7226 24 40.996L24 47.5072C24 47.7835 24.2251 48.0083 24.5011 47.9998C33.1058 47.7349 40 40.673 40 32C40 23.327 33.1058 16.2651 24.5011 16.0002Z" fill="#39D98A"/>
<path d="M24 26.7517C23.9585 26.7507 23.9168 26.7502 23.875 26.7502C21.0445 26.7502 18.75 29.0448 18.75 31.8752C18.75 34.7057 21.0445 37.0002 23.875 37.0002C23.9168 37.0002 23.9584 36.9997 24 36.9987L24 26.7517Z" fill="#FAFAFC"/>
<path d="M24 36.9987C26.7727 36.9323 29 34.6639 29 31.8752C29 29.0865 26.7727 26.8181 24 26.7517L24 36.9987Z" fill="#376C66"/>
<path d="M60.298 44C58.773 44 57.3676 43.7037 56.0817 43.1111C54.8258 42.4889 53.8241 41.6593 53.0765 40.6222C52.3588 39.5852 52 38.4444 52 37.2C52 35.1852 52.8223 33.5556 54.467 32.3111C56.1116 31.0667 58.3693 30.2222 61.24 29.7778L67.385 28.8889V27.9556C67.385 26.6519 67.0561 25.6741 66.3982 25.0222C65.7403 24.3704 64.6788 24.0444 63.2135 24.0444C62.2268 24.0444 61.4194 24.237 60.7914 24.6222C60.1934 24.9778 59.7149 25.3333 59.3561 25.6889C58.9973 26.0741 58.758 26.3259 58.6384 26.4444C58.5188 26.8 58.2945 26.9778 57.9656 26.9778H54.5118C54.2427 26.9778 54.0035 26.8889 53.7942 26.7111C53.6148 26.5333 53.525 26.2963 53.525 26C53.5549 25.2593 53.9138 24.4148 54.6015 23.4667C55.3192 22.5185 56.4107 21.7037 57.8759 21.0222C59.3411 20.3407 61.1353 20 63.2584 20C66.7869 20 69.3586 20.7852 70.9733 22.3556C72.5881 23.9259 73.3954 25.9852 73.3954 28.5333V42.4889C73.3954 42.7852 73.2908 43.037 73.0815 43.2444C72.9021 43.4519 72.6479 43.5556 72.3189 43.5556H68.6858C68.3867 43.5556 68.1326 43.4519 67.9232 43.2444C67.7139 43.037 67.6093 42.7852 67.6093 42.4889V40.7556C66.9514 41.7037 66.0095 42.4889 64.7834 43.1111C63.5873 43.7037 62.0922 44 60.298 44ZM61.8231 39.7778C63.4677 39.7778 64.8133 39.2444 65.8599 38.1778C66.9065 37.1111 67.4298 35.5556 67.4298 33.5111V32.5778L62.9444 33.2889C61.2101 33.5556 59.8943 33.9852 58.9973 34.5778C58.1301 35.1704 57.6965 35.8963 57.6965 36.7556C57.6965 37.7037 58.1002 38.4444 58.9075 38.9778C59.7149 39.5111 60.6868 39.7778 61.8231 39.7778Z" fill="white"/>
<path d="M80.2711 52C79.9721 52 79.7179 51.8963 79.5086 51.6889C79.2993 51.5111 79.1946 51.2593 79.1946 50.9333V21.5111C79.1946 21.1852 79.2993 20.9333 79.5086 20.7556C79.7179 20.5481 79.9721 20.4444 80.2711 20.4444H83.8146C84.1435 20.4444 84.3977 20.5481 84.5771 20.7556C84.7864 20.9333 84.8911 21.1852 84.8911 21.5111V23.2889C86.5656 21.0963 88.9579 20 92.0677 20C95.0879 20 97.4054 20.9481 99.0202 22.8444C100.635 24.7111 101.502 27.2444 101.622 30.4444C101.652 30.8 101.667 31.3185 101.667 32C101.667 32.7111 101.652 33.2444 101.622 33.6C101.502 36.7111 100.635 39.2296 99.0202 41.1556C97.4054 43.0519 95.0879 44 92.0677 44C89.0476 44 86.745 42.9482 85.1602 40.8444V50.9333C85.1602 51.2593 85.0555 51.5111 84.8462 51.6889C84.6668 51.8963 84.4126 52 84.0837 52H80.2711ZM90.4081 39.2444C93.6376 39.2444 95.3571 37.2741 95.5664 33.3333C95.5963 33.037 95.6112 32.5926 95.6112 32C95.6112 31.4074 95.5963 30.963 95.5664 30.6667C95.3571 26.7259 93.6376 24.7556 90.4081 24.7556C88.6738 24.7556 87.388 25.3037 86.5507 26.4C85.7134 27.4963 85.2499 28.8444 85.1602 30.4444L85.1154 32.1333L85.1602 33.8667C85.22 35.3481 85.6835 36.6222 86.5507 37.6889C87.4478 38.7259 88.7336 39.2444 90.4081 39.2444Z" fill="white"/>
<path d="M107.778 43.5556C107.479 43.5556 107.225 43.4519 107.016 43.2444C106.806 43.037 106.702 42.7852 106.702 42.4889V21.5111C106.702 21.2148 106.806 20.963 107.016 20.7556C107.225 20.5481 107.479 20.4444 107.778 20.4444H111.277C111.576 20.4444 111.83 20.5481 112.039 20.7556C112.249 20.963 112.353 21.2148 112.353 21.5111V23.0222C113.908 21.0074 116.076 20 118.857 20C122.176 20 124.494 21.3185 125.81 23.9556C126.527 22.7704 127.544 21.8222 128.86 21.1111C130.175 20.3704 131.596 20 133.121 20C135.573 20 137.576 20.8296 139.131 22.4889C140.686 24.1481 141.464 26.563 141.464 29.7333V42.4889C141.464 42.7852 141.359 43.037 141.15 43.2444C140.97 43.4519 140.716 43.5556 140.387 43.5556H136.709C136.41 43.5556 136.156 43.4519 135.947 43.2444C135.737 43.037 135.633 42.7852 135.633 42.4889V30.0889C135.633 28.2222 135.229 26.8741 134.422 26.0444C133.644 25.1852 132.598 24.7556 131.282 24.7556C130.116 24.7556 129.114 25.1852 128.277 26.0444C127.469 26.9037 127.066 28.2519 127.066 30.0889V42.4889C127.066 42.7852 126.961 43.037 126.752 43.2444C126.542 43.4519 126.288 43.5556 125.989 43.5556H122.311C122.012 43.5556 121.758 43.4519 121.549 43.2444C121.339 43.037 121.235 42.7852 121.235 42.4889V30.0889C121.235 28.2222 120.816 26.8741 119.979 26.0444C119.171 25.1852 118.14 24.7556 116.884 24.7556C115.688 24.7556 114.671 25.1852 113.834 26.0444C113.026 26.9037 112.623 28.2519 112.623 30.0889V42.4889C112.623 42.7852 112.518 43.037 112.309 43.2444C112.099 43.4519 111.845 43.5556 111.546 43.5556H107.778Z" fill="white"/>
</svg>
