<?xml version="1.0" encoding="UTF-8" standalone="no"?>
<svg
   xmlns:dc="http://purl.org/dc/elements/1.1/"
   xmlns:cc="http://creativecommons.org/ns#"
   xmlns:rdf="http://www.w3.org/1999/02/22-rdf-syntax-ns#"
   xmlns:svg="http://www.w3.org/2000/svg"
   xmlns="http://www.w3.org/2000/svg"
   xmlns:sodipodi="http://sodipodi.sourceforge.net/DTD/sodipodi-0.dtd"
   xmlns:inkscape="http://www.inkscape.org/namespaces/inkscape"
   width="203"
   height="48"
   viewBox="0 0 203 48"
   fill="none"
   version="1.1"
   id="svg179"
   sodipodi:docname="kamon-logo-light.svg"
   inkscape:version="0.92.5 (2060ec1f9f, 2020-04-08)">
  <metadata
     id="metadata185">
    <rdf:RDF>
      <cc:Work
         rdf:about="">
        <dc:format>image/svg+xml</dc:format>
        <dc:type
           rdf:resource="http://purl.org/dc/dcmitype/StillImage" />
      </cc:Work>
    </rdf:RDF>
  </metadata>
  <defs
     id="defs183" />
  <sodipodi:namedview
     pagecolor="#ffffff"
     bordercolor="#666666"
     borderopacity="1"
     objecttolerance="10"
     gridtolerance="10"
     guidetolerance="10"
     inkscape:pageopacity="0"
     inkscape:pageshadow="2"
     inkscape:window-width="3840"
     inkscape:window-height="2132"
     id="namedview181"
     showgrid="false"
     inkscape:zoom="9.0394089"
     inkscape:cx="78.830644"
     inkscape:cy="40.066162"
     inkscape:window-x="0"
     inkscape:window-y="0"
     inkscape:window-maximized="0"
     inkscape:current-layer="svg179" />
  <path
     d="m 54.08,35.95 c -0.3,0 -0.555,-0.105 -0.765,-0.315 C 53.105,35.425 53,35.17 53,34.87 V 5.08 C 53,4.75 53.105,4.495 53.315,4.315 53.525,4.105 53.78,4 54.08,4 h 3.645 c 0.33,0 0.585,0.105 0.765,0.315 0.21,0.18 0.315,0.435 0.315,0.765 v 15.39 l 7.56,-7.155 c 0.09,-0.06 0.24,-0.18 0.45,-0.36 0.18,-0.15 0.36,-0.255 0.54,-0.315 0.18,-0.06 0.405,-0.09 0.675,-0.09 h 4.185 c 0.3,0 0.54,0.09 0.72,0.27 0.18,0.18 0.27,0.42 0.27,0.72 0,0.27 -0.15,0.54 -0.45,0.81 l -9.27,8.685 10.395,11.16 c 0.3,0.3 0.45,0.555 0.45,0.765 0,0.3 -0.105,0.54 -0.315,0.72 -0.18,0.18 -0.405,0.27 -0.675,0.27 h -4.275 c -0.42,0 -0.735,-0.045 -0.945,-0.135 -0.18,-0.12 -0.42,-0.33 -0.72,-0.63 L 58.805,26.14 v 8.73 c 0,0.3 -0.105,0.555 -0.315,0.765 -0.18,0.21 -0.435,0.315 -0.765,0.315 z"
     id="path163"
     inkscape:connector-curvature="0"
     style="fill:#28293d" />
  <path
     d="m 84.0518,36.4 c -1.53,0 -2.94,-0.3 -4.23,-0.9 -1.26,-0.63 -2.265,-1.47 -3.015,-2.52 -0.72,-1.05 -1.08,-2.205 -1.08,-3.465 0,-2.04 0.825,-3.69 2.475,-4.95 1.65,-1.26 3.915,-2.115 6.795,-2.565 l 6.165,-0.9 v -0.945 c 0,-1.32 -0.33,-2.31 -0.99,-2.97 -0.66,-0.66 -1.725,-0.99 -3.195,-0.99 -0.99,0 -1.8,0.195 -2.43,0.585 -0.6,0.36 -1.08,0.72 -1.44,1.08 -0.36,0.39 -0.6,0.645 -0.72,0.765 -0.12,0.36 -0.345,0.54 -0.675,0.54 h -3.465 c -0.27,0 -0.51,-0.09 -0.72,-0.27 -0.18,-0.18 -0.27,-0.42 -0.27,-0.72 0.03,-0.75 0.39,-1.605 1.08,-2.565 0.72,-0.96 1.815,-1.785 3.285,-2.475 1.47,-0.69 3.27,-1.035 5.4,-1.035 3.54,0 6.12,0.795 7.74,2.385 1.62,1.59 2.43,3.675 2.43,6.255 v 14.13 c 0,0.3 -0.105,0.555 -0.315,0.765 -0.18,0.21 -0.435,0.315 -0.765,0.315 h -3.645 c -0.3,0 -0.555,-0.105 -0.765,-0.315 -0.21,-0.21 -0.315,-0.465 -0.315,-0.765 v -1.755 c -0.66,0.96 -1.605,1.755 -2.835,2.385 -1.2,0.6 -2.7,0.9 -4.5,0.9 z m 1.53,-4.275 c 1.65,0 3,-0.54 4.05,-1.62 1.05,-1.08 1.575,-2.655 1.575,-4.725 v -0.945 l -4.5,0.72 c -1.74,0.27 -3.06,0.705 -3.96,1.305 -0.87,0.6 -1.305,1.335 -1.305,2.205 0,0.96 0.405,1.71 1.215,2.25 0.81,0.54 1.785,0.81 2.925,0.81 z"
     id="path165"
     inkscape:connector-curvature="0"
     style="fill:#28293d" />
  <path
     d="m 104.045,35.95 c -0.3,0 -0.555,-0.105 -0.765,-0.315 -0.21,-0.21 -0.315,-0.465 -0.315,-0.765 V 13.63 c 0,-0.3 0.105,-0.555 0.315,-0.765 0.21,-0.21 0.465,-0.315 0.765,-0.315 h 3.51 c 0.3,0 0.555,0.105 0.765,0.315 0.21,0.21 0.315,0.465 0.315,0.765 v 1.53 c 1.56,-2.04 3.735,-3.06 6.525,-3.06 3.33,0 5.655,1.335 6.975,4.005 0.72,-1.2 1.74,-2.16 3.06,-2.88 1.32,-0.75 2.745,-1.125 4.275,-1.125 2.46,0 4.47,0.84 6.03,2.52 1.56,1.68 2.34,4.125 2.34,7.335 V 34.87 c 0,0.3 -0.105,0.555 -0.315,0.765 -0.18,0.21 -0.435,0.315 -0.765,0.315 h -3.69 c -0.3,0 -0.555,-0.105 -0.765,-0.315 -0.21,-0.21 -0.315,-0.465 -0.315,-0.765 V 22.315 c 0,-1.89 -0.405,-3.255 -1.215,-4.095 -0.78,-0.87 -1.83,-1.305 -3.15,-1.305 -1.17,0 -2.175,0.435 -3.015,1.305 -0.81,0.87 -1.215,2.235 -1.215,4.095 V 34.87 c 0,0.3 -0.105,0.555 -0.315,0.765 -0.21,0.21 -0.465,0.315 -0.765,0.315 h -3.69 c -0.3,0 -0.555,-0.105 -0.765,-0.315 -0.21,-0.21 -0.315,-0.465 -0.315,-0.765 V 22.315 c 0,-1.89 -0.42,-3.255 -1.26,-4.095 -0.81,-0.87 -1.845,-1.305 -3.105,-1.305 -1.2,0 -2.22,0.435 -3.06,1.305 -0.81,0.87 -1.215,2.235 -1.215,4.095 V 34.87 c 0,0.3 -0.105,0.555 -0.315,0.765 -0.21,0.21 -0.465,0.315 -0.765,0.315 z"
     id="path167"
     inkscape:connector-curvature="0"
     style="fill:#28293d" />
  <path
     d="m 153.92,36.4 c -3.51,0 -6.225,-0.9 -8.145,-2.7 -1.92,-1.83 -2.955,-4.32 -3.105,-7.47 l -0.045,-1.98 0.045,-1.98 c 0.15,-3.12 1.2,-5.595 3.15,-7.425 1.95,-1.83 4.65,-2.745 8.1,-2.745 3.45,0 6.15,0.915 8.1,2.745 1.95,1.83 3,4.305 3.15,7.425 0.03,0.36 0.045,1.02 0.045,1.98 0,0.96 -0.015,1.62 -0.045,1.98 -0.15,3.15 -1.185,5.64 -3.105,7.47 -1.92,1.8 -4.635,2.7 -8.145,2.7 z m 0,-4.455 c 1.59,0 2.82,-0.495 3.69,-1.485 0.87,-1.02 1.35,-2.505 1.44,-4.455 0.03,-0.3 0.045,-0.885 0.045,-1.755 0,-0.87 -0.015,-1.455 -0.045,-1.755 -0.09,-1.95 -0.57,-3.42 -1.44,-4.41 -0.87,-1.02 -2.1,-1.53 -3.69,-1.53 -1.59,0 -2.82,0.51 -3.69,1.53 -0.87,0.99 -1.35,2.46 -1.44,4.41 l -0.045,1.755 0.045,1.755 c 0.09,1.95 0.57,3.435 1.44,4.455 0.87,0.99 2.1,1.485 3.69,1.485 z"
     id="path169"
     inkscape:connector-curvature="0"
     style="fill:#28293d" />
  <path
     d="m 171.281,35.95 c -0.3,0 -0.555,-0.105 -0.765,-0.315 -0.21,-0.21 -0.315,-0.465 -0.315,-0.765 V 13.63 c 0,-0.3 0.105,-0.555 0.315,-0.765 0.21,-0.21 0.465,-0.315 0.765,-0.315 h 3.69 c 0.3,0 0.555,0.105 0.765,0.315 0.21,0.21 0.315,0.465 0.315,0.765 v 1.845 c 1.77,-2.25 4.275,-3.375 7.515,-3.375 2.76,0 4.95,0.915 6.57,2.745 1.62,1.8 2.43,4.26 2.43,7.38 V 34.87 c 0,0.3 -0.105,0.555 -0.315,0.765 -0.18,0.21 -0.435,0.315 -0.765,0.315 h -3.96 c -0.3,0 -0.555,-0.105 -0.765,-0.315 -0.21,-0.21 -0.315,-0.465 -0.315,-0.765 V 22.495 c 0,-1.77 -0.435,-3.135 -1.305,-4.095 -0.84,-0.99 -2.07,-1.485 -3.69,-1.485 -1.59,0 -2.85,0.495 -3.78,1.485 -0.9,0.99 -1.35,2.355 -1.35,4.095 V 34.87 c 0,0.3 -0.105,0.555 -0.315,0.765 -0.18,0.21 -0.435,0.315 -0.765,0.315 z"
     id="path171"
     inkscape:connector-curvature="0"
     style="fill:#28293d" />
  <path
     d="M 10,5.00191 C 10,4.44857 10.4505,4 11.0061,4 h 7.7399 c 0.4248,0 0.6584,0.4919 0.3888,0.81884 L 10.8919,14.8159 C 10.5921,15.1795 10,14.9684 10,14.4981 Z"
     id="path173"
     inkscape:connector-curvature="0"
     style="fill:#223c37" />
  <path
     d="m 16.2489,19 c -0.826,0 -1.2938,0.9495 -0.792,1.6075 l 11.44,15 C 27.0855,35.8549 27.3783,36 27.6888,36 h 9.3123 c 0.8279,0 1.2951,-0.9534 0.7894,-1.6108 l -11.5379,-15 C 26.0638,19.1438 25.7722,19 25.4631,19 Z"
     id="path175"
     inkscape:connector-curvature="0"
     style="fill:#376c66" />
  <path
     d="M 15.2973,20.4691 20.7983,27.5 28.8668,17.0677 37.7892,5.60228 C 38.2981,4.94833 37.8279,4 36.9947,4 H 27.6143 C 27.307,4 27.0168,4.1395 26.8265,4.37859 L 15.2719,18.8965 c -0.3996,0.5022 -0.331,1.1494 0.0254,1.5726 z"
     id="path177"
     inkscape:connector-curvature="0"
     style="fill:#39d98a" />
</svg>
