<svg width="273" height="64" viewBox="0 0 273 64" fill="none" xmlns="http://www.w3.org/2000/svg">
<path d="M75.7219 48.1889C73.2267 48.1889 71.3485 47.5448 70.0872 46.2567C68.8533 44.9411 68.2363 43.0226 68.2363 40.5011V31.1689H64.9871C64.7129 31.1689 64.4799 31.073 64.2879 30.8811C64.096 30.6619 64 30.4152 64 30.1411V27.7978C64 27.5237 64.096 27.2907 64.2879 27.0989C64.4799 26.907 64.7129 26.8111 64.9871 26.8111H68.2363V19.9867C68.2363 19.6852 68.3323 19.4522 68.5242 19.2878C68.7162 19.0959 68.9493 19 69.2234 19H72.5549C72.8566 19 73.0896 19.0959 73.2542 19.2878C73.4461 19.4522 73.5421 19.6852 73.5421 19.9867V26.8111H78.6832C78.9849 26.8111 79.2179 26.907 79.3824 27.0989C79.5744 27.2633 79.6703 27.4963 79.6703 27.7978V30.1411C79.6703 30.4426 79.5744 30.6893 79.3824 30.8811C79.1905 31.073 78.9574 31.1689 78.6832 31.1689H73.5421V40.09C73.5421 41.2685 73.7477 42.1593 74.159 42.7622C74.5703 43.3652 75.2558 43.6667 76.2155 43.6667H79.0534C79.3276 43.6667 79.5607 43.7626 79.7526 43.9544C79.9445 44.1463 80.0405 44.3793 80.0405 44.6533V47.2022C80.0405 47.4763 79.9445 47.7093 79.7526 47.9011C79.5881 48.093 79.355 48.1889 79.0534 48.1889H75.7219Z" fill="white"/>
<path d="M92.9022 48.6C89.8586 48.6 87.432 47.723 85.6223 45.9689C83.84 44.1874 82.894 41.6933 82.7843 38.4867L82.7432 37.4589L82.7843 36.4311C82.9214 33.3067 83.8811 30.8537 85.6634 29.0722C87.4731 27.2907 89.886 26.4 92.9022 26.4C96.1377 26.4 98.6329 27.3867 100.388 29.36C102.17 31.3333 103.061 33.9644 103.061 37.2533V38.1167C103.061 38.3907 102.965 38.6237 102.773 38.8156C102.581 39.0074 102.335 39.1033 102.033 39.1033H88.3779V39.4322C88.4328 40.9396 88.844 42.2141 89.6118 43.2556C90.407 44.2696 91.4901 44.7767 92.861 44.7767C94.4788 44.7767 95.7812 44.1463 96.7683 42.8856C97.0151 42.5841 97.2071 42.3922 97.3442 42.31C97.5087 42.2278 97.7417 42.1867 98.0434 42.1867H101.58C101.827 42.1867 102.033 42.2689 102.197 42.4333C102.389 42.5704 102.485 42.7485 102.485 42.9678C102.485 43.6256 102.088 44.4067 101.293 45.3111C100.525 46.1881 99.4143 46.9556 97.9611 47.6133C96.5079 48.2711 94.8216 48.6 92.9022 48.6ZM97.4675 35.65V35.5267C97.4675 33.9096 97.0563 32.6078 96.2337 31.6211C95.4385 30.6344 94.328 30.1411 92.9022 30.1411C91.4764 30.1411 90.3658 30.6344 89.5707 31.6211C88.7755 32.6078 88.3779 33.9096 88.3779 35.5267V35.65H97.4675Z" fill="white"/>
<path d="M108.455 48.1889C108.181 48.1889 107.948 48.093 107.756 47.9011C107.564 47.7093 107.468 47.4763 107.468 47.2022V19.9867C107.468 19.6852 107.564 19.4522 107.756 19.2878C107.948 19.0959 108.181 19 108.455 19H111.869C112.171 19 112.404 19.0959 112.568 19.2878C112.76 19.4522 112.856 19.6852 112.856 19.9867V47.2022C112.856 47.4763 112.76 47.7093 112.568 47.9011C112.404 48.093 112.171 48.1889 111.869 48.1889H108.455Z" fill="white"/>
<path d="M127.525 48.6C124.481 48.6 122.055 47.723 120.245 45.9689C118.463 44.1874 117.517 41.6933 117.407 38.4867L117.366 37.4589L117.407 36.4311C117.544 33.3067 118.504 30.8537 120.286 29.0722C122.096 27.2907 124.509 26.4 127.525 26.4C130.76 26.4 133.256 27.3867 135.01 29.36C136.793 31.3333 137.684 33.9644 137.684 37.2533V38.1167C137.684 38.3907 137.588 38.6237 137.396 38.8156C137.204 39.0074 136.957 39.1033 136.656 39.1033H123.001V39.4322C123.055 40.9396 123.467 42.2141 124.235 43.2556C125.03 44.2696 126.113 44.7767 127.484 44.7767C129.102 44.7767 130.404 44.1463 131.391 42.8856C131.638 42.5841 131.83 42.3922 131.967 42.31C132.131 42.2278 132.364 42.1867 132.666 42.1867H136.203C136.45 42.1867 136.656 42.2689 136.82 42.4333C137.012 42.5704 137.108 42.7485 137.108 42.9678C137.108 43.6256 136.71 44.4067 135.915 45.3111C135.148 46.1881 134.037 46.9556 132.584 47.6133C131.131 48.2711 129.444 48.6 127.525 48.6ZM132.09 35.65V35.5267C132.09 33.9096 131.679 32.6078 130.856 31.6211C130.061 30.6344 128.951 30.1411 127.525 30.1411C126.099 30.1411 124.989 30.6344 124.193 31.6211C123.398 32.6078 123.001 33.9096 123.001 35.5267V35.65H132.09Z" fill="white"/>
<path d="M143.037 48.1889C142.763 48.1889 142.53 48.093 142.338 47.9011C142.146 47.7093 142.05 47.4763 142.05 47.2022V27.7978C142.05 27.5237 142.146 27.2907 142.338 27.0989C142.53 26.907 142.763 26.8111 143.037 26.8111H146.245C146.519 26.8111 146.752 26.907 146.944 27.0989C147.136 27.2907 147.232 27.5237 147.232 27.7978V29.1956C148.658 27.3319 150.646 26.4 153.196 26.4C156.239 26.4 158.364 27.6196 159.571 30.0589C160.229 28.9626 161.161 28.0856 162.368 27.4278C163.574 26.7426 164.877 26.4 166.275 26.4C168.523 26.4 170.361 27.1674 171.786 28.7022C173.212 30.237 173.925 32.4707 173.925 35.4033V47.2022C173.925 47.4763 173.829 47.7093 173.637 47.9011C173.473 48.093 173.24 48.1889 172.938 48.1889H169.565C169.291 48.1889 169.058 48.093 168.866 47.9011C168.674 47.7093 168.578 47.4763 168.578 47.2022V35.7322C168.578 34.0056 168.208 32.7585 167.468 31.9911C166.755 31.1963 165.795 30.7989 164.589 30.7989C163.519 30.7989 162.601 31.1963 161.833 31.9911C161.093 32.7859 160.722 34.033 160.722 35.7322V47.2022C160.722 47.4763 160.627 47.7093 160.435 47.9011C160.243 48.093 160.01 48.1889 159.735 48.1889H156.363C156.089 48.1889 155.856 48.093 155.664 47.9011C155.472 47.7093 155.376 47.4763 155.376 47.2022V35.7322C155.376 34.0056 154.992 32.7585 154.224 31.9911C153.484 31.1963 152.538 30.7989 151.386 30.7989C150.289 30.7989 149.357 31.1963 148.589 31.9911C147.849 32.7859 147.479 34.033 147.479 35.7322V47.2022C147.479 47.4763 147.383 47.7093 147.191 47.9011C146.999 48.093 146.766 48.1889 146.492 48.1889H143.037Z" fill="white"/>
<path d="M188.376 48.6C185.332 48.6 182.905 47.723 181.096 45.9689C179.313 44.1874 178.367 41.6933 178.258 38.4867L178.217 37.4589L178.258 36.4311C178.395 33.3067 179.355 30.8537 181.137 29.0722C182.947 27.2907 185.359 26.4 188.376 26.4C191.611 26.4 194.106 27.3867 195.861 29.36C197.644 31.3333 198.535 33.9644 198.535 37.2533V38.1167C198.535 38.3907 198.439 38.6237 198.247 38.8156C198.055 39.0074 197.808 39.1033 197.506 39.1033H183.851V39.4322C183.906 40.9396 184.318 42.2141 185.085 43.2556C185.88 44.2696 186.964 44.7767 188.335 44.7767C189.952 44.7767 191.255 44.1463 192.242 42.8856C192.489 42.5841 192.681 42.3922 192.818 42.31C192.982 42.2278 193.215 42.1867 193.517 42.1867H197.054C197.301 42.1867 197.506 42.2689 197.671 42.4333C197.863 42.5704 197.959 42.7485 197.959 42.9678C197.959 43.6256 197.561 44.4067 196.766 45.3111C195.998 46.1881 194.888 46.9556 193.435 47.6133C191.981 48.2711 190.295 48.6 188.376 48.6ZM192.941 35.65V35.5267C192.941 33.9096 192.53 32.6078 191.707 31.6211C190.912 30.6344 189.801 30.1411 188.376 30.1411C186.95 30.1411 185.839 30.6344 185.044 31.6211C184.249 32.6078 183.851 33.9096 183.851 35.5267V35.65H192.941Z" fill="white"/>
<path d="M212.486 48.1889C209.99 48.1889 208.112 47.5448 206.851 46.2567C205.617 44.9411 205 43.0226 205 40.5011V31.1689H201.751C201.477 31.1689 201.244 31.073 201.052 30.8811C200.86 30.6619 200.764 30.4152 200.764 30.1411V27.7978C200.764 27.5237 200.86 27.2907 201.052 27.0989C201.244 26.907 201.477 26.8111 201.751 26.8111H205V19.9867C205 19.6852 205.096 19.4522 205.288 19.2878C205.48 19.0959 205.713 19 205.987 19H209.319C209.62 19 209.853 19.0959 210.018 19.2878C210.21 19.4522 210.306 19.6852 210.306 19.9867V26.8111H215.447C215.749 26.8111 215.982 26.907 216.146 27.0989C216.338 27.2633 216.434 27.4963 216.434 27.7978V30.1411C216.434 30.4426 216.338 30.6893 216.146 30.8811C215.954 31.073 215.721 31.1689 215.447 31.1689H210.306V40.09C210.306 41.2685 210.511 42.1593 210.923 42.7622C211.334 43.3652 212.019 43.6667 212.979 43.6667H215.817C216.091 43.6667 216.324 43.7626 216.516 43.9544C216.708 44.1463 216.804 44.3793 216.804 44.6533V47.2022C216.804 47.4763 216.708 47.7093 216.516 47.9011C216.352 48.093 216.119 48.1889 215.817 48.1889H212.486Z" fill="white"/>
<path d="M221.44 48.1889C221.166 48.1889 220.933 48.093 220.741 47.9011C220.549 47.7093 220.453 47.4763 220.453 47.2022V27.8389C220.453 27.5648 220.549 27.3319 220.741 27.14C220.933 26.9207 221.166 26.8111 221.44 26.8111H224.771C225.073 26.8111 225.32 26.907 225.512 27.0989C225.704 27.2907 225.8 27.5374 225.8 27.8389V29.5244C226.458 28.6474 227.28 27.9759 228.267 27.51C229.282 27.0441 230.434 26.8111 231.722 26.8111H233.409C233.71 26.8111 233.943 26.907 234.108 27.0989C234.3 27.2633 234.396 27.4963 234.396 27.7978V30.7578C234.396 31.0319 234.3 31.2648 234.108 31.4567C233.943 31.6485 233.71 31.7444 233.409 31.7444H230.201C228.912 31.7444 227.897 32.1144 227.157 32.8544C226.417 33.5944 226.046 34.6085 226.046 35.8967V47.2022C226.046 47.4763 225.95 47.7093 225.759 47.9011C225.567 48.093 225.32 48.1889 225.018 48.1889H221.44Z" fill="white"/>
<path d="M241.47 56C241.25 56 241.058 55.9178 240.894 55.7533C240.729 55.5889 240.647 55.397 240.647 55.1778C240.647 54.9311 240.702 54.7119 240.812 54.52L244.02 46.9144L236.123 28.2911C236.013 28.0444 235.958 27.8526 235.958 27.7156C235.986 27.4689 236.082 27.2633 236.246 27.0989C236.411 26.907 236.616 26.8111 236.863 26.8111H240.195C240.716 26.8111 241.086 27.0715 241.305 27.5922L246.775 41.0356L252.41 27.5922C252.63 27.0715 253 26.8111 253.521 26.8111H256.811C257.03 26.8111 257.222 26.8933 257.387 27.0578C257.579 27.2222 257.675 27.4141 257.675 27.6333C257.675 27.8252 257.62 28.0444 257.51 28.2911L245.871 55.2189C245.624 55.7396 245.24 56 244.719 56H241.47Z" fill="white"/>
<path d="M34.3778 39.5C34.7009 39.4993 34.9997 39.6724 35.1612 39.9539L39.1278 46.5927C39.4746 47.197 39.0421 47.9983 38.3484 48H15.906C15.2092 48.0017 14.7735 47.2422 15.1235 46.6362L19.1285 39.9748C19.2897 39.6957 19.586 39.5237 19.9069 39.523L34.3778 39.5Z" fill="#FAFAFC"/>
<path d="M31.4936 36.2943C31.3339 36.5759 31.0348 36.75 30.7107 36.75H22.651C21.9582 36.75 21.5254 36.0012 21.8721 35.4026L31.1127 19.4485C31.4597 18.8493 32.3268 18.8508 32.6718 19.4511L36.6307 26.3395C36.7888 26.6146 36.7898 26.9526 36.6333 27.2286L31.4936 36.2943Z" fill="#39D98A"/>
<path d="M37.9177 47.5498C38.0798 47.8219 38.163 48 38.4793 48H48.1C48.8036 48 49.2343 47.2489 48.8645 46.6491L39.6072 31.1772C39.2444 30.5888 38.3825 30.6129 38.0531 31.2207L33.5 39.5L37.9177 47.5498Z" fill="#376C66"/>
</svg>
