<svg width="192" height="192" viewBox="0 0 192 192" fill="none" xmlns="http://www.w3.org/2000/svg">
<path d="M40 36.0076C40 33.7943 41.8019 32 44.0246 32L74.9839 32C76.6831 32 77.6174 33.9676 76.5391 35.2754L43.5675 75.2638C42.3686 76.7179 40 75.8736 40 73.9922L40 36.0076Z" fill="#223C37"/>
<path d="M64.9958 92C61.6917 92 59.8205 95.7981 61.8278 98.4301L107.587 158.43C108.342 159.42 109.513 160 110.755 160H148.004C151.316 160 153.185 156.186 151.162 153.557L105.01 93.5568C104.255 92.575 103.089 92 101.852 92L64.9958 92Z" fill="#376C66"/>
<path d="M61.1892 97.8765L83.1933 126L115.467 84.2709L151.157 38.4091C153.192 35.7933 151.312 32 147.979 32L110.457 32C109.228 32 108.067 32.558 107.306 33.5144L61.0877 91.5861C59.4891 93.5946 59.7636 96.1836 61.1892 97.8765Z" fill="#39D98A"/>
</svg>
