<?xml version="1.0" encoding="utf-8"?>
<!-- Generator: Adobe Illustrator 19.0.0, SVG Export Plug-In . SVG Version: 6.00 Build 0)  -->
<svg version="1.1" id="Layer_1" xmlns="http://www.w3.org/2000/svg" xmlns:xlink="http://www.w3.org/1999/xlink" x="0px" y="0px"
	 viewBox="0 0 960 283.9" style="enable-background:new 0 0 960 283.9;" xml:space="preserve">
<style type="text/css">
	.st0{fill:#3A493E;}
	.st1{fill:#B3B3B3;}
	.st2{fill:url(#XMLID_15_);}
	.st3{fill:#14C441;}
</style>
<g id="XMLID_1234_">
	<g id="XMLID_903_">
		<path id="XMLID_914_" class="st0" d="M388.3,82.3v62.3l34.9-40h34l-38.9,41.7l39.3,66.7h-34l-20-37c-3.6-6.4-7.2-9.6-10.8-9.6
			c-3,0.6-4.5,2.6-4.5,5.5v41h-28.3V68.4h14.7C382.2,68.4,388.3,74.8,388.3,82.3z"/>
		<path id="XMLID_911_" class="st0" d="M492.9,129.9h-28.3c3.4-20.8,18.1-31,44-31c31,0,46.8,10.2,47.4,31v38.3
			c0,31-18.7,44.8-49.1,47c-27,2.1-45.7-10.4-45.7-35.3c0.6-27,20.2-34.2,48.7-37c12.1-1.5,18.3-5.1,18.3-11.3
			c-0.6-6.4-6.6-9.6-18.3-9.6C499.9,122,494.4,124.5,492.9,129.9z M528.6,166.8v-10.4c-6.6,2.8-14.2,5.1-22.5,6.8
			c-11.3,2.1-17,7.4-17,15.7c0.6,8.9,5.3,13.2,14.2,13.2C519,192.1,528.6,182.8,528.6,166.8z"/>
		<path id="XMLID_909_" class="st0" d="M598.3,141.1V213h-28.7v-66.1c0-32.1,16.2-48,48.2-48c14.5,0,25.5,3.2,33.6,9.6
			c8.1-6.2,19.1-9.1,33.6-9.1c32.1,0,48,15.9,47.8,48v66.1h-14.7c-9.3-0.6-14-5.1-14-14v-57.8c-0.6-11.7-7-17.4-19.6-17.4
			c-12.5,0-18.9,5.7-19.1,17.4V213H637v-71.8c-0.6-11.7-7-17.4-19.6-17.4S598.5,129.4,598.3,141.1z"/>
		<path id="XMLID_906_" class="st0" d="M850.6,157.3c0,38.7-17.2,58.2-51.2,58.2s-51-19.6-51-58.2c0-39.1,17-58.4,51-58.4
			S850.6,118.2,850.6,157.3z M777,157.3c0.2,21.9,7.6,32.9,22.1,32.9c14.5,0,21.7-11.5,21.9-33.8c0-21.9-7.2-32.7-21.7-32.7
			C784.5,123.7,777,135,777,157.3z"/>
		<path id="XMLID_904_" class="st0" d="M945.5,213c-9.3-0.6-14-5.1-14-14v-57.8c-0.6-11.7-7-17.4-19.6-17.4s-18.9,5.7-19.1,17.4V213
			h-28.7v-66.1c0-32.1,16.2-48,48.2-48c32.1,0,47.8,15.9,47.6,48V213H945.5z"/>
	</g>
	<g id="XMLID_899_">
		<path id="XMLID_902_" class="st1" d="M153.7,244l36.5,38c1.2,1.2,3.1,2,5,2h89.5c5.2,0,8.3-4.7,5.2-8.1l-83-102.5
			c-1.8-2-5.2-1.9-6.9,0.1L153.4,238C151.8,239.8,152,242.2,153.7,244z"/>
		<linearGradient id="XMLID_15_" gradientUnits="userSpaceOnUse" x1="63.8915" y1="198.1253" x2="63.8915" y2="-117.5342">
			<stop  offset="0" style="stop-color:#145643"/>
			<stop  offset="1" style="stop-color:#14C441"/>
		</linearGradient>
		<path id="XMLID_901_" class="st2" d="M77,12.8C69.8,4.7,60.2,0,50.1,0C32.8,0,17.5,13.6,12.7,33.4C5.9,62,1.8,91.2,0.5,120.6l0,0
			l9.8,13.4c17.5,24.1,47.9,25.2,66.7,4.5c2.8-2.3,5.4-4.9,7.8-7.8l42.6-51.5C127.3,79.2,79.5,15,77,12.8z"/>
		<path id="XMLID_900_" class="st3" d="M284.6,0h-73.3c-12.9,0-24.8,5.9-31.7,15.7l-52.4,63.5l-42.6,51.5c-2.4,2.9-5,5.4-7.8,7.8
			c-18.8,20.7-49.2,19.6-66.7-4.5l-9.8-13.4l0,0l0,0l0,0c-1.4,30.8,0.2,61.7,4.9,92.2c0,0.1,0,0.1,0,0.2c0.4,2.3,0.7,4.7,1.1,7
			c0.1,0.4,0.1,0.8,0.2,1.2c0.3,2,0.7,4.1,1.1,6.1c0.1,0.5,0.2,1,0.3,1.5c0.4,2,0.8,3.9,1.2,5.9c0.1,0.5,0.2,0.9,0.3,1.4
			c0.5,2.2,0.9,4.4,1.4,6.6c0,0.2,0.1,0.4,0.1,0.5c4.9,22.3,20.9,38.4,39.9,40.5c0.2,0,0.3,0.1,0.5,0.1c1.3,0.1,2.5,0.2,3.8,0.2
			c0,0,0.1,0,0.1,0h0c32.3,0,50.7-18.2,59.9-30.8L291.7,11.8C295.4,6.7,291.4,0,284.6,0z"/>
	</g>
</g>
</svg>
