<?xml version="1.0" encoding="UTF-8" standalone="no"?>
<!-- Created with Inkscape (http://www.inkscape.org/) -->

<svg
   xmlns:dc="http://purl.org/dc/elements/1.1/"
   xmlns:cc="http://creativecommons.org/ns#"
   xmlns:rdf="http://www.w3.org/1999/02/22-rdf-syntax-ns#"
   xmlns:svg="http://www.w3.org/2000/svg"
   xmlns="http://www.w3.org/2000/svg"
   xmlns:sodipodi="http://sodipodi.sourceforge.net/DTD/sodipodi-0.dtd"
   xmlns:inkscape="http://www.inkscape.org/namespaces/inkscape"
   width="1000"
   height="106.29921"
   viewBox="0 0 999.99995 106.29921"
   id="svg4183"
   version="1.1"
   inkscape:version="0.91 r13725"
   sodipodi:docname="the-perfect-match.svg">
  <defs
     id="defs4185">
    <linearGradient
       gradientTransform="matrix(0.188679,0,0,0.19246774,71.370652,957.01628)"
       y2="201.2795"
       x2="428.68411"
       y1="201.2795"
       x1="212.6031"
       gradientUnits="userSpaceOnUse"
       id="XMLID_16_">
      <stop
         id="stop4153"
         style="stop-color:#005E55"
         offset="0" />
      <stop
         id="stop4155"
         style="stop-color:#1484c4;stop-opacity:1"
         offset="1" />
    </linearGradient>
    <linearGradient
       gradientTransform="matrix(0.20558013,0,0,0.20970825,25.777554,956.87343)"
       y2="201.2795"
       x2="428.68411"
       y1="201.2795"
       x1="212.6031"
       gradientUnits="userSpaceOnUse"
       id="XMLID_16_-7">
      <stop
         id="stop4153-3"
         style="stop-color:#005E55"
         offset="0" />
      <stop
         id="stop4155-1"
         style="stop-color:#1484c4;stop-opacity:1"
         offset="1" />
    </linearGradient>
    <linearGradient
       id="XMLID_2_"
       gradientUnits="userSpaceOnUse"
       x1="128.8129"
       y1="283.35001"
       x2="274.68771"
       y2="283.35001"
       gradientTransform="matrix(1,0,0,-1,0,564.4)">
      <stop
         offset="0"
         style="stop-color:#0a6e65;stop-opacity:1"
         id="stop19" />
      <stop
         offset="1"
         style="stop-color:#14c4b4;stop-opacity:1"
         id="stop21" />
    </linearGradient>
  </defs>
  <sodipodi:namedview
     id="base"
     pagecolor="#ffffff"
     bordercolor="#666666"
     borderopacity="1.0"
     inkscape:pageopacity="0.0"
     inkscape:pageshadow="2"
     inkscape:zoom="1.979899"
     inkscape:cx="669.6897"
     inkscape:cy="70.951286"
     inkscape:document-units="px"
     inkscape:current-layer="layer1"
     showgrid="false"
     units="px"
     inkscape:window-width="1920"
     inkscape:window-height="1055"
     inkscape:window-x="0"
     inkscape:window-y="0"
     inkscape:window-maximized="0" />
  <metadata
     id="metadata4188">
    <rdf:RDF>
      <cc:Work
         rdf:about="">
        <dc:format>image/svg+xml</dc:format>
        <dc:type
           rdf:resource="http://purl.org/dc/dcmitype/StillImage" />
        <dc:title></dc:title>
      </cc:Work>
    </rdf:RDF>
  </metadata>
  <g
     inkscape:label="Layer 1"
     inkscape:groupmode="layer"
     id="layer1"
     transform="translate(0,-946.06279)">
    <path
       style="fill:#f5f5f5;fill-opacity:1;fill-rule:evenodd;stroke:none;stroke-width:1px;stroke-linecap:butt;stroke-linejoin:miter;stroke-opacity:1"
       d="m -1.5157143e-5,946.02291 999.972185157143,0 0,106.38459 -930.221694,0 z"
       id="path4164"
       inkscape:connector-curvature="0"
       sodipodi:nodetypes="ccccc" />
    <text
       xml:space="preserve"
       style="font-style:normal;font-weight:normal;font-size:40px;line-height:125%;font-family:sans-serif;letter-spacing:0px;word-spacing:0px;fill:#000000;fill-opacity:1;stroke:none;stroke-width:1px;stroke-linecap:butt;stroke-linejoin:miter;stroke-opacity:1"
       x="419.21332"
       y="296.7681"
       id="text4773"
       sodipodi:linespacing="125%"><tspan
         sodipodi:role="line"
         id="tspan4775"
         x="419.21332"
         y="296.7681" /></text>
    <g
       id="layer1-9"
       transform="translate(151.5038,4.3500439)">
      <text
         xml:space="preserve"
         style="font-style:normal;font-weight:normal;font-size:40px;line-height:125%;font-family:sans-serif;letter-spacing:0px;word-spacing:0px;fill:#000000;fill-opacity:1;stroke:none;stroke-width:1px;stroke-linecap:butt;stroke-linejoin:miter;stroke-opacity:1"
         x="419.21332"
         y="296.7681"
         id="text4773-5"
         sodipodi:linespacing="125%"><tspan
           id="tspan4775-8"
           x="419.21332"
           y="296.7681" /></text>
      <g
         id="XMLID_1176_"
         transform="matrix(0.27083593,0,0,0.27083593,130.68963,917.01373)">
        <g
           id="XMLID_1186_-2">
          <path
             d="m 363.2,223.1 0,60.4 33.8,-38.7 33,0 -37.7,40.4 38.2,64.8 -33,0 -19.5,-35.9 c -3.5,-6.2 -7,-9.3 -10.5,-9.3 -2.9,0.6 -4.3,2.5 -4.3,5.4 l 0,39.8 -27.4,0 0,-140.3 14.2,0 c 7.2,0 13.2,6.2 13.2,13.4 z"
             class="st0"
             id="XMLID_1200_-0"
             style="fill:#333333"
             inkscape:connector-curvature="0" />
          <path
             d="m 464.6,269.3 -27.4,0 c 3.3,-20.2 17.5,-30.1 42.7,-30.1 30.1,0 45.4,9.9 46,30.1 l 0,37.1 c 0,30.1 -18.1,43.5 -47.6,45.6 -26.2,2.1 -44.3,-10.1 -44.3,-34.2 0.6,-26.2 19.6,-33.2 47.2,-35.9 11.8,-1.4 17.7,-4.9 17.7,-10.9 -0.6,-6.2 -6.4,-9.3 -17.7,-9.3 -9.7,0 -15.1,2.5 -16.6,7.6 z m 34.7,35.9 0,-10.1 c -6.4,2.7 -13.8,4.9 -21.9,6.6 -10.9,2.1 -16.5,7.2 -16.5,15.3 0.6,8.7 5.2,12.8 13.8,12.8 15.3,0 24.6,-9.1 24.6,-24.6 z"
             class="st0"
             id="XMLID_1197_-5"
             style="fill:#333333"
             inkscape:connector-curvature="0" />
          <path
             d="m 566.9,280.3 0,69.7 -27.8,0 0,-64.1 c 0,-31.1 15.7,-46.6 46.8,-46.6 14,0 24.7,3.1 32.6,9.3 7.8,-6 18.6,-8.9 32.6,-8.9 31.1,0 46.6,15.5 46.4,46.6 l 0,64.1 -14.2,0 c -9.1,-0.6 -13.6,-4.9 -13.6,-13.6 l 0,-56.1 c -0.6,-11.3 -6.8,-16.9 -19,-16.9 -12.2,0 -18.4,5.6 -18.6,16.9 l 0,69.3 -27.6,0 0,-69.7 c -0.6,-11.3 -6.8,-16.9 -19,-16.9 -12.2,-0.1 -18.4,5.5 -18.6,16.9 z"
             class="st0"
             id="XMLID_1195_-5"
             style="fill:#333333"
             inkscape:connector-curvature="0" />
          <path
             d="m 727.6,209.7 c 9.1,0 13.4,4.5 13.2,13.4 l 0,8 -27.4,0 0,-21.4 14.2,0 z m 0,31.2 c 8.9,0 13.2,4.3 13.2,13.2 l 0,95.9 -27.4,0 0,-109.1 14.2,0 z"
             class="st0"
             id="XMLID_1192_-2"
             style="fill:#333333"
             inkscape:connector-curvature="0" />
          <path
             d="m 835.2,350 c -9.1,-0.6 -13.6,-4.9 -13.6,-13.6 l 0,-56.1 c -0.6,-11.3 -6.8,-16.9 -19,-16.9 -12.2,0 -18.4,5.6 -18.6,16.9 l 0,69.7 -27.8,0 0,-64.1 c 0,-31.1 15.7,-46.6 46.8,-46.6 31.1,0 46.4,15.5 46.2,46.6 l 0,64.1 -14,0 0,0 z"
             class="st0"
             id="XMLID_1190_-9"
             style="fill:#333333"
             inkscape:connector-curvature="0" />
          <path
             d="m 960,295.9 c 0,37.5 -16.7,56.5 -49.7,56.5 -33,0 -49.5,-19 -49.5,-56.5 0,-37.9 16.5,-56.7 49.5,-56.7 33,0 49.7,18.8 49.7,56.7 z m -71.4,0 c 0.2,21.2 7.4,32 21.4,32 14,0 21,-11.1 21.2,-32.8 0,-21.2 -7,-31.8 -21,-31.8 -14.3,0 -21.6,11 -21.6,32.6 z"
             class="st0"
             id="XMLID_1187_-0"
             style="fill:#333333"
             inkscape:connector-curvature="0" />
        </g>
        <g
           id="XMLID_1177_">
          <g
             id="XMLID_1183_">
            <path
               style="fill:#dadada;fill-opacity:1"
               d="m 7.1,256.4 85,-102.1 c 3.4,-3.8 0,-9.1 -5.8,-9.1 l -76.2,0 C 4.5,145.2 0,149.7 0,155.3 l 0,79 0,19.7 c 0,3.7 4.6,5.3 7.1,2.4 -0.1,0 0,0 0,0 z"
               class="st1"
               id="XMLID_1185_"
               inkscape:connector-curvature="0" />
            <path
               style="fill:#dadada;fill-opacity:1"
               d="M 7.1,305.8 7,305.7 c -2.4,-2.8 -7,-1.3 -7,2.5 l 0,19.7 0,79 c 0,5.6 4.5,10.1 10.1,10.1 l 76.1,0 c 5.8,0 9.2,-5.3 5.8,-9.1 L 7.1,305.8 Z"
               class="st1"
               id="XMLID_1184_"
               inkscape:connector-curvature="0" />
          </g>
          <g
             id="XMLID_1178_">
            <linearGradient
               gradientTransform="matrix(1,0,0,-1,0,564.4)"
               y2="283.35001"
               x2="274.68771"
               y1="283.35001"
               x1="128.8129"
               gradientUnits="userSpaceOnUse"
               id="linearGradient5460">
              <stop
                 id="stop19-2"
                 style="stop-color:#0a6e65;stop-opacity:1"
                 offset="0" />
              <stop
                 id="stop21-8"
                 style="stop-color:#14c4b4;stop-opacity:1"
                 offset="1" />
            </linearGradient>
            <path
               d="m 179.2,281.1 91.1,-124.6 c 3.6,-4.8 -0.3,-11.3 -6.8,-11.3 l -70.1,0 c -12.3,0 -23.7,5.7 -30.3,15 l -80.6,96.1 c -12.1,14.3 -12.1,35.2 0,49.5 l 80.6,96.1 c 6.5,9.4 18,15 30.3,15 l 70.1,0 c 6.5,0 10.3,-6.5 6.8,-11.3 L 179.2,281.1 Z"
               class="st2"
               id="XMLID_1182_"
               style="fill:url(#XMLID_2_)"
               inkscape:connector-curvature="0" />
            <g
               id="XMLID_1179_">
              <path
                 style="fill:#14c4b4;fill-opacity:1"
                 d="m 263.5,145.2 -70.1,0 c -12.3,0 -23.7,5.7 -30.3,15 l -80.6,96.1 c -12.1,14.3 -12.1,35.2 0,49.5 l 42,50 8.4,10 0,0 6.3,7.5 c -1.8,-2.1 -14,-18.4 0.2,-37.8 l 0,0 131,-179 c 3.5,-4.8 -0.4,-11.3 -6.9,-11.3 z"
                 class="st3"
                 id="XMLID_1181_"
                 inkscape:connector-curvature="0" />
              <path
                 d="m 139.2,373.3 c 0.1,0.2 0.2,0.2 0.2,0.2 l -0.2,-0.2 z"
                 class="st3"
                 id="XMLID_1180_"
                 style="fill:#009688"
                 inkscape:connector-curvature="0" />
            </g>
          </g>
        </g>
      </g>
      <g
         id="XMLID_6_"
         transform="matrix(0.66494611,0,0,0.66494611,-67.114227,738.35015)">
        <g
           id="XMLID_7_"
           transform="matrix(0.28246715,0,0,0.28246715,36.369964,326.27927)">
          <path
             d="m 217.4,346.2 51.8,53.9 c 1.7,1.8 4.4,2.8 7.2,2.8 l 127,0 c 7.4,0 11.7,-6.7 7.4,-11.5 L 293,245.9 c -2.5,-2.8 -7.4,-2.8 -9.8,0.2 L 217,337.7 c -2.2,2.6 -2,6.1 0.4,8.5 z"
             class="st1"
             id="XMLID_10_"
             inkscape:connector-curvature="0"
             style="fill:#b3b3b3" />
          <linearGradient
             y2="-166.79379"
             x2="89.980904"
             y1="281.16141"
             x1="89.980904"
             gradientUnits="userSpaceOnUse"
             id="XMLID_33_">
            <stop
               id="stop6725"
               style="stop-color:#145643"
               offset="0" />
            <stop
               id="stop6727"
               style="stop-color:#14C441"
               offset="1" />
          </linearGradient>
          <path
             d="M 108.5,18.1 C 98.4,6.6 84.8,0 70.4,0 45.9,0 24.1,19.3 17.4,47.4 7.7,87.9 1.9,129.4 0,171.1 l 0,0 13.9,19 c 24.9,34.2 67.9,35.8 94.7,6.4 4,-3.3 7.7,-7 11,-11 L 180,112.4 c 0,0 -67.8,-91.1 -71.5,-94.3 z"
             class="st2"
             id="XMLID_9_"
             inkscape:connector-curvature="0"
             style="fill:url(#XMLID_33_)" />
          <path
             d="M 403.2,0 299.3,0 c -18.2,0 -35.2,8.4 -44.9,22.3 l -74.4,90.1 -60.4,73.1 c -3.4,4.1 -7.1,7.7 -11,11 -26.7,29.4 -69.8,27.8 -94.7,-6.4 l -13.9,-19 0,0 0,0 0,0 c -2,43.7 0.3,87.6 6.9,130.8 0,0.1 0,0.2 0,0.3 0.5,3.3 1,6.6 1.6,9.9 0.1,0.5 0.2,1.1 0.3,1.6 0.5,2.9 1,5.8 1.5,8.6 0.1,0.7 0.3,1.4 0.4,2.1 0.5,2.8 1.1,5.6 1.6,8.4 0.1,0.7 0.3,1.3 0.4,2 0.6,3.1 1.3,6.2 2,9.3 0.1,0.3 0.1,0.5 0.2,0.8 7,31.6 29.7,54.5 56.6,57.5 0.2,0 0.4,0.1 0.6,0.1 1.8,0.2 3.6,0.3 5.4,0.3 0,0 0.1,0 0.1,0 l 0,0 c 45.8,0 71.9,-25.8 85,-43.7 L 413.3,16.8 C 418.6,9.6 412.8,0 403.2,0 Z"
             class="st3"
             id="XMLID_8_"
             inkscape:connector-curvature="0"
             style="fill:#14c441" />
        </g>
      </g>
      <g
         style="font-style:normal;font-variant:normal;font-weight:bold;font-stretch:normal;font-size:62.88487244px;line-height:125%;font-family:Harabara;-inkscape-font-specification:'Harabara, Bold';text-align:start;letter-spacing:0px;word-spacing:0px;writing-mode:lr-tb;text-anchor:start;fill:#000000;fill-opacity:0.56686042;stroke:none;stroke-width:1px;stroke-linecap:butt;stroke-linejoin:miter;stroke-opacity:1"
         id="text6752">
        <path
           d="m 60.64851,996.09889 0,-2.94773 q 0,-2.70208 2.702084,-2.70208 l 8.351897,0 0,-11.05398 2.947729,0 q 2.702084,0 2.702084,2.70208 l 0,8.3519 11.053982,0 0,5.64981 -11.053982,0 0,11.05401 -5.649813,0 0,-11.05401 -11.053981,0 z"
           style=""
           id="path6835" />
      </g>
      <g
         style="font-style:normal;font-variant:normal;font-weight:bold;font-stretch:normal;font-size:58.30789566px;line-height:125%;font-family:Harabara;-inkscape-font-specification:'Harabara, Bold';text-align:start;letter-spacing:0px;word-spacing:0px;writing-mode:lr-tb;text-anchor:start;fill:#000000;fill-opacity:0.56686042;stroke:none;stroke-width:1px;stroke-linecap:butt;stroke-linejoin:miter;stroke-opacity:1"
         id="text6752-8">
        <path
           d="m 414.50974,994.72098 0,-2.73318 q 0,-2.50542 2.50541,-2.50542 l 23.23205,0 0,5.2386 -25.73746,0 z m 0,8.88282 0,-2.7332 q 0,-2.50538 2.50541,-2.50538 l 23.23205,0 0,5.23858 -25.73746,0 z"
           style=""
           id="path6838" />
      </g>
      <g
         style="font-style:normal;font-variant:normal;font-weight:bold;font-stretch:normal;font-size:47.90246964px;line-height:125%;font-family:Harabara;-inkscape-font-specification:'Harabara, Bold';text-align:start;letter-spacing:0px;word-spacing:0px;writing-mode:lr-tb;text-anchor:start;fill:#6a6a6a;fill-opacity:1;stroke:none;stroke-width:1px;stroke-linecap:butt;stroke-linejoin:miter;stroke-opacity:1"
         id="text6752-8-3">
        <path
           d="m 481.1475,1010.061 0,-26.47737 -9.54307,0 0,-2.33899 q 0,-1.40339 0.9356,-2.33898 1.02915,-1.02916 2.43254,-1.02916 l 22.26717,0 0,5.70713 -9.44951,0 0,26.47737 -6.64273,0 z"
           style=""
           id="path6841" />
        <path
           d="m 514.08045,992.19111 q -1.40339,-1.96475 -3.83594,-1.96475 -2.61967,0 -4.02306,1.87119 -1.40339,1.87119 -1.40339,5.14577 l 0,12.81768 -6.36205,0 0,-32.1845 3.18102,0 q 1.30984,0 2.24543,0.9356 0.9356,0.93559 0.9356,2.24543 l 0,7.3912 q 1.68407,-2.80679 4.77153,-3.55526 3.08747,-0.74848 5.89425,0.37423 2.61967,1.12272 4.3973,3.55527 1.77763,2.43254 1.77763,6.73628 l 0,14.50175 -6.26849,0 0,-12.91124 q 0,-1.40339 -0.28068,-2.52611 -0.18712,-1.21627 -1.02915,-2.43254 z"
           style=""
           id="path6843" />
        <path
           d="m 540.09,1002.3891 4.67797,0 q -1.02915,3.9295 -3.9295,5.9878 -2.90034,2.1519 -7.29764,2.1519 -5.33289,0 -8.3268,-3.4617 -2.9939,-3.3682 -2.9939,-9.63666 0,-5.98781 2.90034,-9.35595 2.99391,-3.4617 8.3268,-3.4617 5.61357,0 8.70104,3.36814 2.9939,3.4617 2.9939,9.63663 0,0.37424 0,0.65492 0,0.28067 0,0.37423 0,0.4678 -0.0936,0.65492 l -16.1858,0 q 0.0936,2.90037 1.4034,4.30377 1.21627,1.4969 3.64882,1.4969 1.59051,0 2.71322,-0.6549 0.28068,-0.094 0.4678,-0.2807 0.28068,-0.2807 0.56136,-0.5613 0.0936,-0.2807 0.65492,-0.7485 0.65491,-0.4678 1.77763,-0.4678 z m -11.22715,-7.29765 9.54307,0 q -0.18711,-2.5261 -1.30983,-3.74238 -1.21627,-1.30983 -3.4617,-1.30983 -2.05831,0 -3.36814,1.30983 -1.30984,1.30984 -1.4034,3.74238 z"
           style=""
           id="path6845" />
        <path
           d="m 563.57344,998.55315 0,11.50785 -6.64273,0 0,-28.81636 q 0,-1.40339 0.93559,-2.33898 1.02916,-1.02916 2.43255,-1.02916 l 10.94647,0 q 5.14577,0 7.67187,2.61967 2.61967,2.61966 2.61967,7.76544 0,4.86509 -2.52611,7.67188 -2.5261,2.61966 -7.29764,2.61966 l -8.13967,0 z m 0,-5.80069 6.4556,0 q 2.61967,0 3.74238,-1.12271 1.21628,-1.02915 1.21628,-3.55526 0,-2.15187 -1.12272,-3.4617 -1.30983,-1.12272 -3.4617,-1.12272 l -6.82984,0 0,9.26239 z"
           style=""
           id="path6847" />
        <path
           d="m 600.06164,1002.3891 4.67797,0 q -1.02915,3.9295 -3.9295,5.9878 -2.90034,2.1519 -7.29764,2.1519 -5.33289,0 -8.32679,-3.4617 -2.99391,-3.3682 -2.99391,-9.63666 0,-5.98781 2.90035,-9.35595 2.9939,-3.4617 8.32679,-3.4617 5.61357,0 8.70104,3.36814 2.9939,3.4617 2.9939,9.63663 0,0.37424 0,0.65492 0,0.28067 0,0.37423 0,0.4678 -0.0936,0.65492 l -16.18579,0 q 0.0936,2.90037 1.40339,4.30377 1.21627,1.4969 3.64882,1.4969 1.59051,0 2.71323,-0.6549 0.28067,-0.094 0.46779,-0.2807 0.28068,-0.2807 0.56136,-0.5613 0.0936,-0.2807 0.65492,-0.7485 0.65491,-0.4678 1.77763,-0.4678 z m -11.22714,-7.29765 9.54307,0 q -0.18712,-2.5261 -1.30984,-3.74238 -1.21627,-1.30983 -3.4617,-1.30983 -2.05831,0 -3.36814,1.30983 -1.30983,1.30984 -1.40339,3.74238 z"
           style=""
           id="path6849" />
        <path
           d="m 606.14301,1010.061 0,-12.0692 q 0,-3.64882 1.02915,-6.08137 1.12271,-2.52611 2.9939,-4.02306 1.77764,-1.40339 4.11662,-2.05831 2.43255,-0.65492 4.95866,-0.65492 0.18712,0 0.46779,0 0.28068,0 0.4678,0 l 0,6.64273 -2.15187,0 q -2.71322,0 -4.02306,1.30983 -1.30983,1.30984 -1.30983,4.11662 l 0,12.81768 -6.54916,0 z"
           style=""
           id="path6851" />
        <path
           d="m 620.83185,1010.061 0,-25.63533 q 0,-3.36814 1.77763,-5.05222 1.68407,-1.59051 5.52001,-1.59051 0.9356,0 1.49695,0.0936 1.02916,0 1.59051,0.0936 l 0,5.14577 -1.68407,0 q -1.30983,0 -1.87119,0.37424 -0.4678,0.37424 -0.4678,1.49696 l 0,1.68407 4.02306,0 0,1.40339 q 0,1.40339 -0.93559,2.33899 -0.9356,0.84203 -2.15187,0.84203 l -0.9356,0 0,18.80549 -6.36204,0 z"
           style=""
           id="path6853" />
        <path
           d="m 648.99326,1002.3891 4.67798,0 q -1.02916,3.9295 -3.9295,5.9878 -2.90035,2.1519 -7.29764,2.1519 -5.33289,0 -8.3268,-3.4617 -2.9939,-3.3682 -2.9939,-9.63666 0,-5.98781 2.90034,-9.35595 2.99391,-3.4617 8.3268,-3.4617 5.61357,0 8.70103,3.36814 2.99391,3.4617 2.99391,9.63663 0,0.37424 0,0.65492 0,0.28067 0,0.37423 0,0.4678 -0.0936,0.65492 l -16.1858,0 q 0.0936,2.90037 1.40339,4.30377 1.21628,1.4969 3.64883,1.4969 1.59051,0 2.71322,-0.6549 0.28068,-0.094 0.4678,-0.2807 0.28068,-0.2807 0.56136,-0.5613 0.0936,-0.2807 0.65491,-0.7485 0.65492,-0.4678 1.77763,-0.4678 z m -11.22714,-7.29765 9.54307,0 q -0.18712,-2.5261 -1.30983,-3.74238 -1.21628,-1.30983 -3.4617,-1.30983 -2.05831,0 -3.36815,1.30983 -1.30983,1.30984 -1.40339,3.74238 z"
           style=""
           id="path6855" />
        <path
           d="m 672.38314,1002.3891 4.67798,0 q -1.02916,3.9295 -3.9295,5.9878 -2.90035,2.1519 -7.29765,2.1519 -5.33289,0 -8.32679,-3.4617 -2.99391,-3.3682 -2.99391,-9.63666 0,-5.98781 2.90035,-9.35595 2.9939,-3.4617 8.32679,-3.4617 5.61358,0 8.70104,3.36814 1.68407,2.05831 2.43255,4.77153 l -6.54917,0 q -0.4678,-0.93559 -0.93559,-1.40339 -1.21628,-1.30983 -3.46171,-1.30983 -2.05831,0 -3.36814,1.30983 -1.68407,1.87119 -1.68407,6.17493 0,4.3037 1.68407,6.0814 1.21628,1.4969 3.64882,1.4969 1.59051,0 2.71323,-0.6549 0.28068,-0.094 0.4678,-0.2807 0.28067,-0.2807 0.56135,-0.5613 0.18712,-0.2807 0.74848,-0.7485 0.56136,-0.4678 1.68407,-0.4678 z"
           style=""
           id="path6857" />
        <path
           d="m 689.13029,1010.061 q -3.08746,0.1871 -6.73628,-0.094 -3.55526,-0.2807 -3.55526,-4.5844 l 0,-27.5065 3.36814,0 q 1.21627,0 2.15187,0.9356 0.93559,0.93559 0.93559,2.24543 l 0,4.21017 3.83594,0 0,1.30984 q 0,1.40339 -0.93559,2.33898 -0.9356,0.84204 -2.24543,0.84204 l -0.65492,0 0,13.84684 q 0,1.5905 1.87119,1.5905 l 1.96475,0 0,4.8651 z"
           style=""
           id="path6859" />
        <path
           d="m 700.45099,1010.061 0,-28.81636 q 0,-1.40339 0.93559,-2.33898 1.02916,-1.02916 2.43255,-1.12272 l 6.45561,0 6.36204,24.60616 6.36205,-24.60616 9.82375,0 0,32.27806 -6.17493,0 0,-26.00957 -6.54916,26.00957 -6.82985,0 -6.64272,-26.00957 0,26.00957 -6.17493,0 z"
           style=""
           id="path6861" />
        <path
           d="m 748.82125,997.524 q -1.30983,0.65492 -3.64882,1.21627 -2.15187,0.4678 -2.15187,0.4678 -1.68407,0.4678 -2.43255,1.21623 -0.65491,1.0292 -0.65491,2.0584 0,1.4033 0.84203,2.2454 0.84204,0.7485 2.43255,0.7485 2.61967,0 4.11662,-1.497 1.49695,-1.4969 1.49695,-4.11661 l 0,-2.33899 z m 1.49695,11.5078 q -1.96475,1.0292 -4.21018,1.2163 -2.15186,0.2807 -3.83594,0.2807 -3.36814,0 -5.89424,-1.7777 -2.52611,-1.8711 -2.52611,-6.0813 0,-3.92953 2.24543,-5.6136 2.33898,-1.68407 5.89425,-2.24543 0.46779,0 1.12271,-0.0936 0.65492,-0.18711 1.49695,-0.28067 4.11662,-0.56136 4.11662,-2.43255 0,-1.40339 -1.49695,-1.77763 -1.40339,-0.4678 -2.61967,-0.4678 -1.30983,0 -2.33899,0.37424 -1.02915,0.37424 -1.49695,1.40339 l -6.26848,0 q 0.37423,-2.90034 2.61966,-4.77153 2.52611,-2.15187 7.20408,-2.15187 5.23934,0 7.859,1.77763 2.71323,1.87119 2.71323,5.23933 l 0,8.51395 q 0,3.7423 -1.40339,5.8942 -1.30984,2.0583 -3.18103,2.9939 z"
           style=""
           id="path6863" />
        <path
           d="m 766.87825,1010.061 q -3.08747,0.1871 -6.73629,-0.094 -3.55526,-0.2807 -3.55526,-4.5844 l 0,-27.5065 3.36814,0 q 1.21628,0 2.15187,0.9356 0.9356,0.93559 0.9356,2.24543 l 0,4.21017 3.83594,0 0,1.30984 q 0,1.40339 -0.9356,2.33898 -0.93559,0.84204 -2.24542,0.84204 l -0.65492,0 0,13.84684 q 0,1.5905 1.87119,1.5905 l 1.96475,0 0,4.8651 z"
           style=""
           id="path6865" />
        <path
           d="m 784.74812,1002.3891 4.67797,0 q -1.02915,3.9295 -3.9295,5.9878 -2.90034,2.1519 -7.29764,2.1519 -5.33289,0 -8.3268,-3.4617 -2.9939,-3.3682 -2.9939,-9.63666 0,-5.98781 2.90034,-9.35595 2.99391,-3.4617 8.3268,-3.4617 5.61357,0 8.70103,3.36814 1.68408,2.05831 2.43255,4.77153 l -6.54916,0 q -0.4678,-0.93559 -0.9356,-1.40339 -1.21627,-1.30983 -3.4617,-1.30983 -2.05831,0 -3.36814,1.30983 -1.68407,1.87119 -1.68407,6.17493 0,4.3037 1.68407,6.0814 1.21627,1.4969 3.64882,1.4969 1.59051,0 2.71322,-0.6549 0.28068,-0.094 0.4678,-0.2807 0.28068,-0.2807 0.56136,-0.5613 0.18712,-0.2807 0.74847,-0.7485 0.56136,-0.4678 1.68408,-0.4678 z"
           style=""
           id="path6867" />
        <path
           d="m 806.0797,992.19111 q -1.40339,-1.96475 -3.83594,-1.96475 -2.61967,0 -4.02306,1.87119 -1.40339,1.87119 -1.40339,5.14577 l 0,12.81768 -6.36205,0 0,-32.1845 3.18102,0 q 1.30984,0 2.24543,0.9356 0.9356,0.93559 0.9356,2.24543 l 0,7.3912 q 1.68407,-2.80679 4.77153,-3.55526 3.08747,-0.74848 5.89425,0.37423 2.61967,1.12272 4.3973,3.55527 1.77763,2.43254 1.77763,6.73628 l 0,14.50175 -6.26849,0 0,-12.91124 q 0,-1.40339 -0.28068,-2.52611 -0.18711,-1.21627 -1.02915,-2.43254 z"
           style=""
           id="path6869" />
      </g>
    </g>
  </g>
  <style
     id="style3"
     type="text/css">
	.st0{fill:#333333;}
	.st1{fill:#BBBBBB;}
	.st2{fill:url(#XMLID_2_);}
	.st3{fill:#009688;}
</style>
  <style
     id="style6713"
     type="text/css">
	.st0{fill:#FFFFFF;}
	.st1{fill:#B3B3B3;}
	.st2{fill:url(#XMLID_33_);}
	.st3{fill:#14C441;}
</style>
</svg>
