<svg width="32" height="32" viewBox="0 0 32 32" fill="none" xmlns="http://www.w3.org/2000/svg">
<path d="M16 2C8.26875 2 2 8.26875 2 16C2 23.7313 8.26875 30 16 30C23.7313 30 30 23.7313 30 16C30 8.26875 23.7313 2 16 2ZM16 27.625C9.58125 27.625 4.375 22.4188 4.375 16C4.375 9.58125 9.58125 4.375 16 4.375C22.4188 4.375 27.625 9.58125 27.625 16C27.625 22.4188 22.4188 27.625 16 27.625Z" fill="#FF3B3B"/>
<path d="M16 4.375C9.58125 4.375 4.375 9.58125 4.375 16C4.375 22.4188 9.58125 27.625 16 27.625C22.4188 27.625 27.625 22.4188 27.625 16C27.625 9.58125 22.4188 4.375 16 4.375ZM21.3687 20.8469C21.4062 20.8937 21.4281 20.95 21.4281 21.0094C21.4281 21.15 21.3156 21.2594 21.1781 21.2594L19.1156 21.25L16.0125 17.55L12.9094 21.2531L10.8438 21.2625C10.7063 21.2625 10.5938 21.15 10.5938 21.0125C10.5938 20.9531 10.6156 20.8969 10.6531 20.85L14.7188 16.0094L10.6531 11.1656C10.6154 11.1198 10.5944 11.0625 10.5938 11.0031C10.5938 10.8625 10.7063 10.7531 10.8438 10.7531L12.9094 10.7625L16.0125 14.4625L19.1187 10.7594L21.1812 10.75C21.3188 10.75 21.4312 10.8625 21.4312 11C21.4312 11.0594 21.4125 11.1188 21.375 11.1625L17.3094 16.0063L21.3687 20.8469Z" fill="#FFE6E6"/>
<path d="M21.4312 11C21.4312 10.8625 21.3187 10.75 21.1812 10.75L19.1187 10.7594L16.0125 14.4625L12.9094 10.7625L10.8438 10.7531C10.7062 10.7531 10.5938 10.8625 10.5938 11.0031C10.5938 11.0625 10.6156 11.1187 10.6531 11.1656L14.7188 16.0094L10.6531 20.85C10.6154 20.8958 10.5944 20.9531 10.5938 21.0125C10.5937 21.15 10.7062 21.2625 10.8438 21.2625L12.9094 21.2531L16.0125 17.55L19.1156 21.25L21.1781 21.2594C21.3156 21.2594 21.4281 21.15 21.4281 21.0094C21.4281 20.95 21.4062 20.8937 21.3687 20.8469L17.3094 16.0063L21.375 11.1625C21.4125 11.1188 21.4312 11.0594 21.4312 11Z" fill="#FF3B3B"/>
</svg>
