<svg width="32" height="32" viewBox="0 0 32 32" fill="none" xmlns="http://www.w3.org/2000/svg">
<path d="M16 2C8.26875 2 2 8.26875 2 16C2 23.7313 8.26875 30 16 30C23.7313 30 30 23.7313 30 16C30 8.26875 23.7313 2 16 2ZM16 27.625C9.58125 27.625 4.375 22.4188 4.375 16C4.375 9.58125 9.58125 4.375 16 4.375C22.4188 4.375 27.625 9.58125 27.625 16C27.625 22.4188 22.4188 27.625 16 27.625Z" fill="#3BC882"/>
<path d="M16 4.375C9.58125 4.375 4.375 9.58125 4.375 16C4.375 22.4188 9.58125 27.625 16 27.625C22.4188 27.625 27.625 22.4188 27.625 16C27.625 9.58125 22.4188 4.375 16 4.375ZM22.0438 11.4281L15.4625 20.5531C15.3705 20.6815 15.2493 20.7861 15.1088 20.8583C14.9683 20.9305 14.8126 20.9681 14.6547 20.9681C14.4968 20.9681 14.3411 20.9305 14.2006 20.8583C14.0601 20.7861 13.9389 20.6815 13.8469 20.5531L9.95312 15.1531C9.83437 14.9875 9.95312 14.7563 10.1562 14.7563H11.6219C11.9437 14.7563 12.2437 14.9125 12.4312 15.1719L14.6562 18.2594L19.5688 11.4469C19.7563 11.1844 20.0594 11.0312 20.3781 11.0312H21.8438C22.0469 11.0312 22.1656 11.2625 22.0438 11.4281Z" fill="#E3FFF1"/>
<path d="M21.8426 11.0312H20.377C20.0582 11.0312 19.7551 11.1844 19.5676 11.4469L14.6551 18.2594L12.4301 15.1719C12.2426 14.9125 11.9426 14.7563 11.6207 14.7563H10.1551C9.95193 14.7563 9.83318 14.9875 9.95193 15.1531L13.8457 20.5531C13.9377 20.6815 14.0589 20.7861 14.1994 20.8583C14.3399 20.9305 14.4956 20.9681 14.6535 20.9681C14.8115 20.9681 14.9671 20.9305 15.1076 20.8583C15.2481 20.7861 15.3693 20.6815 15.4613 20.5531L22.0426 11.4281C22.1645 11.2625 22.0457 11.0312 21.8426 11.0312Z" fill="#3BC882"/>
</svg>
