<svg width="32" height="32" viewBox="0 0 32 32" fill="none" xmlns="http://www.w3.org/2000/svg">
<path d="M29.8657 26.75L16.8657 4.25C16.6719 3.91563 16.3376 3.75 16.0001 3.75C15.6626 3.75 15.3251 3.91563 15.1344 4.25L2.13443 26.75C1.75006 27.4188 2.23131 28.25 3.00006 28.25H29.0001C29.7688 28.25 30.2501 27.4188 29.8657 26.75ZM5.38131 25.8781L16.0001 7.49687L26.6188 25.8781H5.38131Z" fill="#FFCC00"/>
<path d="M5.38232 25.8773H26.6198L16.0011 7.49609L5.38232 25.8773ZM17.5011 22.4992C17.4931 22.8917 17.3315 23.2655 17.0511 23.5403C16.7706 23.815 16.3937 23.9689 16.0011 23.9689C15.6085 23.9689 15.2315 23.815 14.9511 23.5403C14.6706 23.2655 14.5091 22.8917 14.5011 22.4992C14.5091 22.1067 14.6706 21.733 14.9511 21.4582C15.2315 21.1834 15.6085 21.0295 16.0011 21.0295C16.3937 21.0295 16.7706 21.1834 17.0511 21.4582C17.3315 21.733 17.4931 22.1067 17.5011 22.4992ZM17.0011 12.9992V18.7492C17.0011 18.8867 16.8886 18.9992 16.7511 18.9992H15.2511C15.1136 18.9992 15.0011 18.8867 15.0011 18.7492V12.9992C15.0011 12.8617 15.1136 12.7492 15.2511 12.7492H16.7511C16.8886 12.7492 17.0011 12.8617 17.0011 12.9992Z" fill="#FFFEE6"/>
<path d="M14.5 22.5C14.5 22.8978 14.658 23.2794 14.9393 23.5607C15.2206 23.842 15.6022 24 16 24C16.3978 24 16.7794 23.842 17.0607 23.5607C17.342 23.2794 17.5 22.8978 17.5 22.5C17.5 22.1022 17.342 21.7206 17.0607 21.4393C16.7794 21.158 16.3978 21 16 21C15.6022 21 15.2206 21.158 14.9393 21.4393C14.658 21.7206 14.5 22.1022 14.5 22.5ZM15 13V18.75C15 18.8875 15.1125 19 15.25 19H16.75C16.8875 19 17 18.8875 17 18.75V13C17 12.8625 16.8875 12.75 16.75 12.75H15.25C15.1125 12.75 15 12.8625 15 13Z" fill="#FFCC00"/>
</svg>
