<svg width="362" height="208" viewBox="0 0 362 208" fill="none" xmlns="http://www.w3.org/2000/svg">
<mask id="mask0" mask-type="alpha" maskUnits="userSpaceOnUse" x="53" y="32" width="256" height="144">
<rect x="53" y="32" width="256" height="144" fill="url(#paint0_radial)"/>
</mask>
<g mask="url(#mask0)">
<path opacity="0.15" d="M589.755 131.253L180.571 -104.969L-228.963 131.456L180.221 367.677L589.755 131.253ZM136.037 -78.2515L180.571 -103.961L225.066 -78.2735L180.533 -52.5643L136.037 -78.2515ZM181.405 -52.0606L225.939 -77.7698L270.434 -52.0826L225.9 -26.3734L181.405 -52.0606ZM226.773 -25.8697L271.306 -51.5789L315.802 -25.8917L271.268 -0.182472L226.773 -25.8697ZM272.141 0.321198L316.674 -25.3881L361.17 0.299164L316.636 26.0084L272.141 0.321198ZM317.509 26.5121L362.042 0.802841L406.538 26.4901L362.004 52.1993L317.509 26.5121ZM362.877 52.703L407.41 26.9937L451.906 52.681L407.372 78.3902L362.877 52.703ZM408.245 78.8939L452.778 53.1846L497.274 78.8718L452.74 104.581L408.245 78.8939ZM453.612 105.085L498.146 79.3755L542.641 105.063L498.108 130.772L453.612 105.085ZM498.98 131.276L543.514 105.566L588.009 131.254L543.476 156.963L498.98 131.276ZM90.6303 -52.0381L135.164 -77.7474L179.659 -52.0601L135.126 -26.3509L90.6303 -52.0381ZM135.998 -25.8472L180.532 -51.5565L225.027 -25.8693L180.494 -0.160011L135.998 -25.8472ZM181.366 0.343658L225.9 -25.3656L270.395 0.32164L225.862 26.0309L181.366 0.343658ZM226.734 26.5345L271.268 0.82531L315.763 26.5125L271.229 52.2218L226.734 26.5345ZM272.102 52.7254L316.635 27.0162L361.131 52.7034L316.597 78.4127L272.102 52.7254ZM317.47 78.9163L362.003 53.2071L406.499 78.8943L361.965 104.604L317.47 78.9163ZM362.838 105.107L407.371 79.398L451.867 105.085L407.333 130.794L362.838 105.107ZM408.206 131.298L452.739 105.589L497.235 131.276L452.701 156.985L408.206 131.298ZM453.573 157.489L498.107 131.78L542.603 157.467L498.069 183.176L453.573 157.489ZM45.2235 -25.8248L89.7571 -51.534L134.253 -25.8468L89.7189 -0.137558L45.2235 -25.8248ZM90.5914 0.366119L135.125 -25.3431L179.62 0.344101L135.087 26.0533L90.5914 0.366119ZM135.959 26.557L180.493 0.847771L224.988 26.535L180.455 52.2442L135.959 26.557ZM181.327 52.7479L225.861 27.0387L270.356 52.7259L225.823 78.4351L181.327 52.7479ZM226.695 78.9388L271.229 53.2296L315.724 78.9168L271.191 104.626L226.695 78.9388ZM272.063 105.13L316.597 79.4205L361.092 105.108L316.558 130.817L272.063 105.13ZM317.431 131.321L361.964 105.611L406.46 131.299L361.926 157.008L317.431 131.321ZM362.799 157.511L407.332 131.802L451.828 157.489L407.294 183.199L362.799 157.511ZM408.167 183.702L452.7 157.993L497.196 183.68L452.662 209.39L408.167 183.702ZM-0.183319 0.388573L44.3503 -25.3207L88.8457 0.366554L44.3121 26.0758L-0.183319 0.388573ZM45.1846 26.5795L89.7182 0.870224L134.214 26.5574L89.68 52.2667L45.1846 26.5795ZM90.5525 52.7704L135.086 27.0611L179.582 52.7484L135.048 78.4576L90.5525 52.7704ZM135.92 78.9613L180.454 53.252L224.949 78.9392L180.416 104.648L135.92 78.9613ZM181.288 105.152L225.822 79.4429L270.317 105.13L225.784 130.839L181.288 105.152ZM226.656 131.343L271.19 105.634L315.685 131.321L271.152 157.03L226.656 131.343ZM272.024 157.534L316.558 131.825L361.053 157.512L316.52 183.221L272.024 157.534ZM317.392 183.725L361.926 158.016L406.421 183.703L361.887 209.412L317.392 183.725ZM362.76 209.916L407.293 184.206L451.789 209.894L407.255 235.603L362.76 209.916ZM-45.5901 26.6019L-1.05653 0.892685L43.4389 26.5799L-1.09468 52.2892L-45.5901 26.6019ZM-0.222229 52.7928L44.3114 27.0836L88.8068 52.7708L44.2732 78.4801L-0.222229 52.7928ZM45.1457 78.9837L89.6793 53.2745L134.175 78.9617L89.6411 104.671L45.1457 78.9837ZM90.5136 105.175L135.047 79.4654L179.543 105.153L135.009 130.862L90.5136 105.175ZM135.881 131.366L180.415 105.656L224.91 131.343L180.377 157.053L135.881 131.366ZM181.249 157.556L225.783 131.847L270.278 157.534L225.745 183.244L181.249 157.556ZM226.617 183.747L271.151 158.038L315.646 183.725L271.113 209.435L226.617 183.747ZM271.985 209.938L316.519 184.229L361.014 209.916L316.481 235.625L271.985 209.938ZM317.353 236.129L361.887 210.42L406.382 236.107L361.849 261.816L317.353 236.129ZM-90.9969 52.8153L-46.4633 27.106L-1.9679 52.7933L-46.5015 78.5025L-90.9969 52.8153ZM-45.629 79.0062L-1.09544 53.2969L43.4 78.9842L-1.13359 104.693L-45.629 79.0062ZM-0.261124 105.197L44.2725 79.4878L88.7679 105.175L44.2343 130.884L-0.261124 105.197ZM45.1068 131.388L89.6404 105.679L134.136 131.366L89.6022 157.075L45.1068 131.388ZM90.4747 157.579L135.008 131.87L179.504 157.557L134.97 183.266L90.4747 157.579ZM135.843 183.77L180.376 158.061L224.872 183.748L180.338 209.457L135.843 183.77ZM181.21 209.961L225.744 184.251L270.24 209.939L225.706 235.648L181.21 209.961ZM226.578 236.152L271.112 210.442L315.607 236.13L271.074 261.839L226.578 236.152ZM271.946 262.342L316.48 236.633L360.975 262.32L316.442 288.03L271.946 262.342ZM-136.404 79.0286L-91.8701 53.3194L-47.3747 79.0066L-91.9083 104.716L-136.404 79.0286ZM-91.0358 105.22L-46.5022 79.5103L-2.00681 105.198L-46.5404 130.907L-91.0358 105.22ZM-45.6679 131.41L-1.13434 105.701L43.3611 131.388L-1.17249 157.098L-45.6679 131.41ZM-0.300034 157.601L44.2336 131.892L88.729 157.579L44.1954 183.289L-0.300034 157.601ZM45.0679 183.792L89.6015 158.083L134.097 183.77L89.5633 209.479L45.0679 183.792ZM90.4358 209.983L134.969 184.274L179.465 209.961L134.931 235.67L90.4358 209.983ZM135.804 236.174L180.337 210.465L224.833 236.152L180.299 261.861L135.804 236.174ZM181.172 262.365L225.705 236.656L270.201 262.343L225.667 288.052L181.172 262.365ZM226.539 288.556L271.073 262.847L315.568 288.534L271.035 314.243L226.539 288.556ZM-181.811 105.242L-137.277 79.5327L-92.7815 105.22L-137.315 130.929L-181.811 105.242ZM-136.443 131.433L-91.909 105.724L-47.4136 131.411L-91.9472 157.12L-136.443 131.433ZM-91.0747 157.624L-46.5412 131.915L-2.0457 157.602L-46.5793 183.311L-91.0747 157.624ZM-45.7068 183.815L-1.17325 158.105L43.3222 183.793L-1.2114 209.502L-45.7068 183.815ZM-0.338928 210.006L44.1947 184.296L88.6901 209.984L44.1565 235.693L-0.338928 210.006ZM45.029 236.196L89.5626 210.487L134.058 236.174L89.5244 261.884L45.029 236.196ZM90.3969 262.387L134.93 236.678L179.426 262.365L134.892 288.075L90.3969 262.387ZM135.765 288.578L180.298 262.869L224.794 288.556L180.26 314.265L135.765 288.578ZM181.133 314.769L225.666 289.06L270.162 314.747L225.628 340.456L181.133 314.769ZM-227.217 131.455L-182.684 105.746L-138.188 131.433L-182.722 157.143L-227.217 131.455ZM-181.849 157.646L-137.316 131.937L-92.8204 157.624L-137.354 183.333L-181.849 157.646ZM-136.482 183.837L-91.948 158.128L-47.4525 183.815L-91.9861 209.524L-136.482 183.837ZM-91.1136 210.028L-46.58 184.319L-2.08461 210.006L-46.6182 235.715L-91.1136 210.028ZM-45.7457 236.219L-1.21214 210.51L43.2833 236.197L-1.25031 261.906L-45.7457 236.219ZM-0.377838 262.41L44.1558 236.701L88.6512 262.388L44.1176 288.097L-0.377838 262.41ZM44.9901 288.601L89.5237 262.891L134.019 288.579L89.4855 314.288L44.9901 288.601ZM90.3579 314.792L134.892 289.082L179.387 314.77L134.853 340.479L90.3579 314.792ZM135.726 340.982L180.259 315.273L224.755 340.96L180.221 366.67L135.726 340.982Z" fill="#C7C9D9"/>
<path d="M-93.6924 157.624L-91.946 156.615L-90.201 157.623L-91.9474 158.631L-93.6924 157.624ZM-182.683 106.249L-180.937 105.241L-182.682 104.234L-184.428 105.242L-182.683 106.249ZM-46.5601 158.62L-44.8137 157.612L-46.5586 156.604L-48.305 157.612L-46.5601 158.62ZM-137.315 132.44L-135.569 131.432L-137.314 130.425L-139.06 131.433L-137.315 132.44ZM-91.928 132.429L-90.1816 131.421L-91.9265 130.413L-93.6729 131.422L-91.928 132.429ZM-182.703 132.451L-180.956 131.443L-182.701 130.436L-184.448 131.444L-182.703 132.451ZM-137.354 184.844L-135.608 183.836L-137.353 182.829L-139.099 183.837L-137.354 184.844ZM-91.9669 184.833L-90.2205 183.825L-91.9654 182.818L-93.7118 183.826L-91.9669 184.833ZM-182.721 156.638L-184.467 157.646L-182.722 158.653L-180.976 157.645L-182.721 156.638ZM-137.335 158.642L-135.588 157.634L-137.333 156.627L-139.08 157.635L-137.335 158.642ZM-91.8891 80.0247L-90.1427 79.0165L-91.8876 78.0091L-93.634 79.0173L-91.8891 80.0247ZM-137.296 106.238L-135.549 105.23L-137.294 104.222L-139.041 105.231L-137.296 106.238ZM-46.5212 106.216L-44.7748 105.207L-46.5197 104.2L-48.2661 105.208L-46.5212 106.216ZM-1.15331 132.406L0.593109 131.398L-1.15181 130.391L-2.89822 131.399L-1.15331 132.406ZM-46.5406 132.418L-44.7942 131.409L-46.5392 130.402L-48.2856 131.41L-46.5406 132.418ZM-91.9086 106.227L-90.1621 105.219L-91.9071 104.211L-93.6535 105.219L-91.9086 106.227ZM-137.276 80.0359L-135.53 79.0277L-137.275 78.0203L-139.021 79.0285L-137.276 80.0359ZM-231.579 128.936L-232.452 129.44L-228.962 131.455L-232.455 133.471L-231.582 133.975L-228.09 131.959L-224.6 133.973L-223.727 133.469L-227.216 131.455L-223.724 129.438L-224.596 128.935L-228.089 130.951L-231.579 128.936ZM44.2729 79.991L46.0193 78.9828L44.2744 77.9754L42.528 78.9836L44.2729 79.991ZM-46.4629 27.6092L-44.7164 26.601L-46.4613 25.5937L-48.2078 26.6019L-46.4629 27.6092ZM89.6603 79.9798L91.4067 78.9715L89.6618 77.9642L87.9154 78.9724L89.6603 79.9798ZM-1.09496 53.8001L0.651459 52.7919L-1.09346 51.7845L-2.83987 52.7928L-1.09496 53.8001ZM44.2924 53.7889L46.0388 52.7806L44.2939 51.7733L42.5475 52.7815L44.2924 53.7889ZM-46.4823 53.8113L-44.7359 52.8031L-46.4808 51.7958L-48.2272 52.804L-46.4823 53.8113ZM-1.13387 106.204L0.612549 105.196L-1.13237 104.189L-2.87878 105.197L-1.13387 106.204ZM44.2535 106.193L45.9999 105.185L44.255 104.178L42.5086 105.186L44.2535 106.193ZM-46.5003 77.9979L-48.2467 79.0061L-46.5018 80.0134L-44.7553 79.0052L-46.5003 77.9979ZM-1.11441 80.0022L0.632004 78.994L-1.11292 77.9867L-2.85933 78.9949L-1.11441 80.0022ZM44.3313 1.38462L46.0777 0.376419L44.3328 -0.63092L42.5864 0.377281L44.3313 1.38462ZM-1.0755 27.598L0.670914 26.5898L-1.07399 25.5824L-2.82042 26.5906L-1.0755 27.598ZM89.6992 27.5755L91.4456 26.5673L89.7007 25.56L87.9543 26.5682L89.6992 27.5755ZM135.067 53.7664L136.814 52.7582L135.069 51.7509L133.322 52.759L135.067 53.7664ZM89.6797 53.7776L91.4261 52.7694L89.6812 51.7621L87.9348 52.7703L89.6797 53.7776ZM44.3118 27.5867L46.0583 26.5785L44.3134 25.5712L42.5669 26.5794L44.3118 27.5867ZM-1.05606 1.39586L0.690369 0.38765L-1.05455 -0.619698L-2.80098 0.388519L-1.05606 1.39586ZM-95.3584 50.2962L-96.2316 50.8003L-92.7417 52.815L-96.2346 54.8314L-95.3621 55.3351L-91.8693 53.3187L-88.3794 55.3333L-87.5062 54.8292L-90.9961 52.8146L-87.5032 50.7981L-88.3757 50.2945L-91.8685 52.3109L-95.3584 50.2962ZM180.493 1.35093L182.24 0.342735L180.495 -0.664604L178.748 0.34359L180.493 1.35093ZM89.7576 -51.0308L91.504 -52.039L89.759 -53.0464L88.0126 -52.0382L89.7576 -51.0308ZM225.881 1.33971L227.627 0.331497L225.882 -0.675842L224.136 0.332367L225.881 1.33971ZM135.125 -24.84L136.872 -25.8482L135.127 -26.8555L133.381 -25.8473L135.125 -24.84ZM180.513 -24.8512L182.259 -25.8594L180.514 -26.8667L178.768 -25.8585L180.513 -24.8512ZM89.7381 -24.8287L91.4845 -25.8369L89.7396 -26.8443L87.9932 -25.8361L89.7381 -24.8287ZM135.087 27.5643L136.833 26.5561L135.088 25.5487L133.342 26.5569L135.087 27.5643ZM180.474 27.5531L182.22 26.5448L180.475 25.5375L178.729 26.5457L180.474 27.5531ZM89.7202 -0.642159L87.9737 0.366051L89.7186 1.3734L91.4651 0.365181L89.7202 -0.642159ZM135.106 1.36217L136.852 0.353958L135.107 -0.653381L133.361 0.354828L135.106 1.36217ZM180.552 -77.2554L182.298 -78.2636L180.553 -79.271L178.807 -78.2628L180.552 -77.2554ZM271.307 -51.0758L273.053 -52.084L271.308 -53.0913L269.562 -52.0831L271.307 -51.0758ZM225.941 -79.2822L224.194 -78.274L225.939 -77.2666L227.685 -78.2748L225.941 -79.2822ZM135.145 -51.0421L136.891 -52.0503L135.146 -53.0576L133.4 -52.0494L135.145 -51.0421ZM225.92 -51.0645L227.666 -52.0727L225.921 -53.0801L224.175 -52.0719L225.92 -51.0645ZM271.287 -24.8736L273.034 -25.8818L271.289 -26.8892L269.543 -25.881L271.287 -24.8736ZM225.9 -24.8624L227.647 -25.8706L225.902 -26.878L224.155 -25.8698L225.9 -24.8624ZM180.532 -51.0533L182.279 -52.0615L180.534 -53.0688L178.787 -52.0606L180.532 -51.0533ZM135.164 -77.2442L136.911 -78.2524L135.166 -79.2597L133.419 -78.2515L135.164 -77.2442ZM180.572 -104.969L177.082 -106.984L176.209 -106.48L179.699 -104.465L176.206 -102.449L177.079 -101.945L180.572 -103.961L184.061 -101.947L184.935 -102.451L181.445 -104.466L184.938 -106.482L184.065 -106.986L180.572 -104.969ZM40.862 -28.3438L39.9888 -27.8397L43.4787 -25.8251L39.9858 -23.8086L40.8583 -23.305L44.3511 -25.3214L47.8409 -23.3067L48.7142 -23.8108L45.2243 -25.8255L48.7172 -27.8419L47.8447 -28.3456L44.3519 -26.3292L40.862 -28.3438ZM44.1562 237.204L45.9026 236.195L44.1577 235.188L42.4113 236.196L44.1562 237.204ZM-46.5796 184.822L-44.8331 183.814L-46.5781 182.806L-48.3245 183.815L-46.5796 184.822ZM89.5436 237.192L91.29 236.184L89.545 235.177L87.7986 236.185L89.5436 237.192ZM-1.21167 211.013L0.534744 210.005L-1.21017 208.997L-2.95659 210.005L-1.21167 211.013ZM44.1757 211.002L45.9221 209.993L44.1772 208.986L42.4308 209.994L44.1757 211.002ZM-46.599 211.024L-44.8526 210.016L-46.5975 209.008L-48.3439 210.017L-46.599 211.024ZM-1.25056 263.417L0.49585 262.409L-1.24908 261.401L-2.9955 262.41L-1.25056 263.417ZM44.1368 263.406L45.8832 262.398L44.1383 261.39L42.3918 262.398L44.1368 263.406ZM-46.617 235.211L-48.3634 236.219L-46.6185 237.226L-44.8721 236.218L-46.617 235.211ZM-1.23111 237.215L0.515305 236.207L-1.22963 235.199L-2.97604 236.208L-1.23111 237.215ZM44.2146 158.597L45.961 157.589L44.2161 156.582L42.4697 157.59L44.2146 158.597ZM-1.19221 184.811L0.554199 183.802L-1.19072 182.795L-2.93713 183.803L-1.19221 184.811ZM89.5825 184.788L91.3289 183.78L89.584 182.773L87.8376 183.781L89.5825 184.788ZM134.95 210.979L136.697 209.971L134.952 208.964L133.205 209.972L134.95 210.979ZM89.563 210.99L91.3094 209.982L89.5645 208.975L87.8181 209.983L89.563 210.99ZM44.1951 184.799L45.9415 183.791L44.1966 182.784L42.4502 183.792L44.1951 184.799ZM-1.17276 158.609L0.573654 157.6L-1.17126 156.593L-2.91768 157.601L-1.17276 158.609ZM-95.4751 207.509L-96.3483 208.013L-92.8584 210.028L-96.3513 212.044L-95.4788 212.548L-91.986 210.531L-88.4962 212.546L-87.6229 212.042L-91.1128 210.027L-87.6199 208.011L-88.4924 207.507L-91.9852 209.524L-95.4751 207.509ZM180.377 158.564L182.123 157.555L180.378 156.548L178.632 157.556L180.377 158.564ZM89.6408 106.182L91.3872 105.174L89.6423 104.166L87.8959 105.175L89.6408 106.182ZM225.764 158.552L227.51 157.544L225.765 156.537L224.019 157.545L225.764 158.552ZM135.009 132.373L136.755 131.365L135.01 130.357L133.264 131.365L135.009 132.373ZM180.396 132.362L182.142 131.353L180.398 130.346L178.651 131.354L180.396 132.362ZM89.6214 132.384L91.3678 131.376L89.6229 130.368L87.8765 131.377L89.6214 132.384ZM134.97 184.777L136.716 183.769L134.971 182.761L133.225 183.77L134.97 184.777ZM180.357 184.766L182.104 183.758L180.359 182.75L178.612 183.758L180.357 184.766ZM89.6034 156.571L87.857 157.579L89.6019 158.586L91.3483 157.578L89.6034 156.571ZM134.989 158.575L136.736 157.567L134.991 156.559L133.244 157.568L134.989 158.575ZM180.435 79.9573L182.181 78.9491L180.436 77.9417L178.69 78.9499L180.435 79.9573ZM135.028 106.171L136.775 105.162L135.03 104.155L133.283 105.163L135.028 106.171ZM225.803 106.148L227.549 105.14L225.804 104.133L224.058 105.141L225.803 106.148ZM271.171 132.339L272.917 131.331L271.172 130.324L269.426 131.332L271.171 132.339ZM225.783 132.35L227.53 131.342L225.785 130.335L224.038 131.343L225.783 132.35ZM180.415 106.159L182.162 105.151L180.417 104.144L178.671 105.152L180.415 106.159ZM135.048 79.9685L136.794 78.9603L135.049 77.953L133.303 78.9612L135.048 79.9685ZM40.7453 128.869L39.8721 129.373L43.3619 131.388L39.8691 133.404L40.7416 133.908L44.2344 131.891L47.7242 133.906L48.5974 133.402L45.1076 131.387L48.6005 129.371L47.728 128.867L44.2352 130.884L40.7453 128.869ZM316.597 79.9236L318.343 78.9154L316.599 77.9081L314.852 78.9162L316.597 79.9236ZM225.861 27.5418L227.608 26.5336L225.863 25.5263L224.116 26.5345L225.861 27.5418ZM361.984 79.9124L363.731 78.9042L361.986 77.8968L360.239 78.905L361.984 79.9124ZM271.229 53.7327L272.976 52.7245L271.231 51.7172L269.484 52.7254L271.229 53.7327ZM316.616 53.7215L318.363 52.7133L316.618 51.7059L314.872 52.7141L316.616 53.7215ZM225.842 53.7439L227.588 52.7357L225.843 51.7284L224.097 52.7366L225.842 53.7439ZM271.19 106.137L272.937 105.129L271.192 104.121L269.445 105.13L271.19 106.137ZM316.578 106.126L318.324 105.118L316.579 104.11L314.833 105.118L316.578 106.126ZM225.824 77.9305L224.077 78.9387L225.822 79.9461L227.569 78.9379L225.824 77.9305ZM271.21 79.9348L272.956 78.9266L271.211 77.9193L269.465 78.9275L271.21 79.9348ZM316.655 1.31724L318.402 0.309044L316.657 -0.698296L314.91 0.309898L316.655 1.31724ZM407.411 27.4969L409.157 26.4887L407.412 25.4814L405.666 26.4896L407.411 27.4969ZM362.044 -0.709526L360.298 0.298668L362.043 1.30602L363.789 0.297813L362.044 -0.709526ZM271.249 27.5306L272.995 26.5224L271.25 25.515L269.504 26.5233L271.249 27.5306ZM362.023 27.5081L363.77 26.4999L362.025 25.4926L360.278 26.5008L362.023 27.5081ZM407.391 53.699L409.138 52.6908L407.393 51.6835L405.646 52.6917L407.391 53.699ZM362.004 53.7103L363.75 52.702L362.005 51.6947L360.259 52.7029L362.004 53.7103ZM316.636 27.5194L318.382 26.5112L316.637 25.5038L314.891 26.512L316.636 27.5194ZM271.268 1.32848L273.014 0.320267L271.27 -0.687073L269.523 0.321136L271.268 1.32848ZM313.186 -28.4112L312.313 -27.9071L315.803 -25.8924L312.31 -23.876L313.182 -23.3724L316.675 -25.3888L320.165 -23.3741L321.038 -23.8782L317.548 -25.8929L321.041 -27.9093L320.169 -28.4129L316.676 -26.3965L313.186 -28.4112ZM176.966 50.2288L176.092 50.7329L179.582 52.7476L176.09 54.764L176.962 55.2677L180.455 53.2513L183.945 55.266L184.818 54.7619L181.328 52.7472L184.821 50.7308L183.948 50.2271L180.456 52.2435L176.966 50.2288ZM225.628 341.967L227.374 340.959L225.629 339.952L223.883 340.96L225.628 341.967ZM180.26 315.776L182.006 314.768L180.261 313.761L178.515 314.769L180.26 315.776ZM89.5241 263.395L91.2705 262.386L89.5256 261.379L87.7792 262.387L89.5241 263.395ZM225.647 315.765L227.394 314.757L225.649 313.75L223.902 314.758L225.647 315.765ZM134.892 289.585L136.638 288.577L134.894 287.57L133.147 288.578L134.892 289.585ZM180.279 289.574L182.026 288.566L180.281 287.559L178.534 288.567L180.279 289.574ZM89.5047 289.597L91.2511 288.588L89.5062 287.581L87.7598 288.589L89.5047 289.597ZM134.853 341.99L136.6 340.981L134.855 339.974L133.108 340.982L134.853 341.99ZM180.24 341.978L181.987 340.97L180.242 339.963L178.496 340.971L180.24 341.978ZM89.4867 313.783L87.7403 314.791L89.4852 315.799L91.2316 314.791L89.4867 313.783ZM134.873 315.788L136.619 314.779L134.874 313.772L133.128 314.78L134.873 315.788ZM180.318 237.17L182.065 236.162L180.32 235.154L178.573 236.163L180.318 237.17ZM134.911 263.383L136.658 262.375L134.913 261.368L133.167 262.376L134.911 263.383ZM225.686 263.361L227.433 262.353L225.688 261.345L223.941 262.354L225.686 263.361ZM271.054 289.552L272.8 288.544L271.056 287.536L269.309 288.544L271.054 289.552ZM271.035 315.754L272.781 314.746L271.036 313.738L269.29 314.747L271.035 315.754ZM225.667 289.563L227.413 288.555L225.668 287.547L223.922 288.556L225.667 289.563ZM180.299 263.372L182.045 262.364L180.3 261.357L178.554 262.365L180.299 263.372ZM134.931 237.181L136.677 236.173L134.932 235.166L133.186 236.174L134.931 237.181ZM40.6286 286.082L39.7554 286.586L43.2452 288.6L39.7524 290.617L40.6248 291.12L44.1177 289.104L47.6075 291.119L48.4807 290.615L44.9909 288.6L48.4837 286.583L47.6113 286.08L44.1184 288.096L40.6286 286.082ZM176.732 364.654L175.859 365.158L179.349 367.173L175.856 369.189L176.729 369.693L180.221 367.677L183.711 369.691L184.584 369.187L181.095 367.173L184.587 365.156L183.715 364.653L180.222 366.669L176.732 364.654ZM361.848 263.327L363.595 262.319L361.85 261.312L360.103 262.32L361.848 263.327ZM316.48 237.136L318.227 236.128L316.482 235.121L314.735 236.129L316.48 237.136ZM225.745 184.755L227.491 183.746L225.746 182.739L224 183.747L225.745 184.755ZM361.868 237.125L363.614 236.117L361.869 235.11L360.123 236.118L361.868 237.125ZM271.112 210.945L272.859 209.937L271.114 208.93L269.367 209.938L271.112 210.945ZM316.5 210.934L318.246 209.926L316.501 208.919L314.755 209.927L316.5 210.934ZM225.725 210.957L227.471 209.948L225.727 208.941L223.98 209.949L225.725 210.957ZM271.074 263.35L272.82 262.341L271.075 261.334L269.329 262.342L271.074 263.35ZM316.461 263.338L318.207 262.33L316.462 261.323L314.716 262.331L316.461 263.338ZM225.707 235.143L223.961 236.151L225.706 237.159L227.452 236.151L225.707 235.143ZM271.093 237.148L272.839 236.139L271.094 235.132L269.348 236.14L271.093 237.148ZM316.539 158.53L318.285 157.522L316.54 156.514L314.794 157.523L316.539 158.53ZM271.132 184.743L272.878 183.735L271.133 182.728L269.387 183.736L271.132 184.743ZM361.907 184.721L363.653 183.713L361.908 182.705L360.162 183.714L361.907 184.721ZM407.274 210.912L409.021 209.904L407.276 208.896L405.53 209.904L407.274 210.912ZM407.255 237.114L409.001 236.106L407.256 235.098L405.51 236.107L407.255 237.114ZM361.887 210.923L363.634 209.915L361.889 208.907L360.142 209.916L361.887 210.923ZM316.519 184.732L318.266 183.724L316.521 182.717L314.774 183.725L316.519 184.732ZM271.151 158.541L272.898 157.533L271.153 156.526L269.406 157.534L271.151 158.541ZM176.849 207.442L175.976 207.946L179.466 209.96L175.973 211.977L176.845 212.48L180.338 210.464L183.828 212.479L184.701 211.975L181.211 209.96L184.704 207.943L183.832 207.44L180.339 209.456L176.849 207.442ZM312.953 286.014L312.079 286.518L315.569 288.533L312.076 290.549L312.949 291.053L316.442 289.037L319.932 291.051L320.805 290.547L317.315 288.533L320.808 286.516L319.935 286.012L316.443 288.029L312.953 286.014ZM498.069 184.687L499.815 183.679L498.07 182.672L496.324 183.68L498.069 184.687ZM452.701 158.496L454.447 157.488L452.702 156.481L450.956 157.489L452.701 158.496ZM361.965 106.114L363.711 105.106L361.966 104.099L360.22 105.107L361.965 106.114ZM498.088 158.485L499.834 157.477L498.09 156.469L496.343 157.478L498.088 158.485ZM407.333 132.305L409.079 131.297L407.334 130.29L405.588 131.298L407.333 132.305ZM452.72 132.294L454.467 131.286L452.722 130.279L450.975 131.287L452.72 132.294ZM361.945 132.317L363.692 131.308L361.947 130.301L360.201 131.309L361.945 132.317ZM407.294 184.71L409.04 183.701L407.295 182.694L405.549 183.702L407.294 184.71ZM452.681 184.698L454.428 183.69L452.683 182.683L450.936 183.691L452.681 184.698ZM361.927 156.503L360.181 157.511L361.926 158.519L363.672 157.51L361.927 156.503ZM407.313 158.507L409.06 157.499L407.315 156.492L405.568 157.5L407.313 158.507ZM452.759 79.8899L454.505 78.8817L452.761 77.8744L451.014 78.8826L452.759 79.8899ZM543.514 106.07L545.261 105.061L543.516 104.054L541.769 105.062L543.514 106.07ZM498.148 77.8631L496.401 78.8713L498.146 79.8787L499.893 78.8705L498.148 77.8631ZM407.352 106.103L409.099 105.095L407.354 104.088L405.607 105.096L407.352 106.103ZM498.127 106.081L499.873 105.073L498.128 104.065L496.382 105.073L498.127 106.081ZM543.495 132.272L545.241 131.263L543.496 130.256L541.75 131.264L543.495 132.272ZM543.475 158.474L545.222 157.466L543.477 156.458L541.73 157.466L543.475 158.474ZM498.107 132.283L499.854 131.275L498.109 130.267L496.363 131.276L498.107 132.283ZM452.74 106.092L454.486 105.084L452.741 104.076L450.995 105.085L452.74 106.092ZM407.372 79.9011L409.118 78.8929L407.373 77.8856L405.627 78.8938L407.372 79.9011ZM585.393 128.734L584.52 129.238L588.01 131.253L584.517 133.269L585.39 133.773L588.883 131.757L592.372 133.771L593.246 133.267L589.756 131.252L593.249 129.236L592.376 128.732L588.883 130.749L585.393 128.734ZM449.29 50.1614L448.417 50.6655L451.906 52.6802L448.414 54.6966L449.286 55.2003L452.779 53.1839L456.269 55.1986L457.142 54.6945L453.652 52.6798L457.145 50.6634L456.272 50.1597L452.78 52.1761L449.29 50.1614ZM313.069 128.801L312.196 129.306L315.686 131.32L312.193 133.337L313.066 133.84L316.558 131.824L320.048 133.839L320.922 133.335L317.432 131.32L320.924 129.303L320.052 128.8L316.559 130.816L313.069 128.801ZM449.173 207.374L448.3 207.878L451.79 209.893L448.297 211.909L449.169 212.413L452.662 210.397L456.152 212.411L457.025 211.907L453.535 209.892L457.028 207.876L456.156 207.372L452.663 209.389L449.173 207.374Z" fill="#C7C9D9"/>
</g>
<g filter="url(#filter0_dd)">
<rect width="84.0609" height="84.0609" rx="18" transform="matrix(0.866044 0.499967 -0.866044 0.499967 181.855 61.6741)" fill="url(#paint1_linear)"/>
<rect width="84.0609" height="84.0609" rx="18" transform="matrix(0.866044 0.499967 -0.866044 0.499967 181.855 59)" fill="white"/>
</g>
<circle cx="184.055" cy="70" r="44" fill="#E3FFF1"/>
<path fill-rule="evenodd" clip-rule="evenodd" d="M202.805 46H165.305C161.853 46 159.055 49.156 159.055 53.05V85.95C159.055 89.8439 161.853 93 165.305 93H202.805C206.257 93 209.055 89.8439 209.055 85.95V53.05C209.055 49.156 206.257 46 202.805 46Z" fill="url(#paint2_linear)"/>
<g opacity="0.75" filter="url(#filter1_dd)">
<circle cx="204.555" cy="53.5" r="23.5" fill="#376C66"/>
</g>
<path d="M214.955 43.1005C212.31 40.4563 208.795 39 205.055 39C201.315 39 197.8 40.4563 195.156 43.1005C192.511 45.7447 191.055 49.2603 191.055 53C191.055 56.7395 192.511 60.2553 195.156 62.8995C197.8 65.5437 201.315 67 205.055 67C208.795 67 212.31 65.5437 214.955 62.8995C217.599 60.2553 219.055 56.7395 219.055 53C219.055 49.2603 217.599 45.7447 214.955 43.1005ZM198.074 63.193C198.659 59.8216 201.581 57.3348 205.055 57.3348C208.53 57.3348 211.451 59.8216 212.037 63.193C210.049 64.5587 207.644 65.3594 205.055 65.3594C202.466 65.3594 200.062 64.5587 198.074 63.193ZM200.604 51.2427C200.604 48.788 202.601 46.7913 205.055 46.7913C207.51 46.7913 209.507 48.7882 209.507 51.2427C209.507 53.6973 207.51 55.6942 205.055 55.6942C202.601 55.6942 200.604 53.6973 200.604 51.2427ZM213.458 62.0551C213.016 60.4856 212.139 59.0616 210.91 57.9492C210.156 57.2667 209.298 56.7281 208.375 56.3485C210.043 55.2606 211.147 53.3783 211.147 51.2427C211.147 47.8835 208.414 45.1506 205.055 45.1506C201.696 45.1506 198.963 47.8835 198.963 51.2427C198.963 53.3783 200.068 55.2606 201.736 56.3485C200.813 56.7281 199.954 57.2665 199.2 57.949C197.971 59.0613 197.094 60.4854 196.653 62.0548C194.221 59.7962 192.696 56.5731 192.696 53C192.696 46.185 198.24 40.6406 205.055 40.6406C211.87 40.6406 217.415 46.185 217.415 53C217.415 56.5733 215.89 59.7964 213.458 62.0551Z" fill="white"/>
<defs>
<filter id="filter0_dd" x="114.187" y="62.2717" width="135.337" height="84.186" filterUnits="userSpaceOnUse" color-interpolation-filters="sRGB">
<feFlood flood-opacity="0" result="BackgroundImageFix"/>
<feColorMatrix in="SourceAlpha" type="matrix" values="0 0 0 0 0 0 0 0 0 0 0 0 0 0 0 0 0 0 127 0"/>
<feOffset dy="2"/>
<feGaussianBlur stdDeviation="2"/>
<feColorMatrix type="matrix" values="0 0 0 0 0.376471 0 0 0 0 0.380392 0 0 0 0 0.439216 0 0 0 0.16 0"/>
<feBlend mode="normal" in2="BackgroundImageFix" result="effect1_dropShadow"/>
<feColorMatrix in="SourceAlpha" type="matrix" values="0 0 0 0 0 0 0 0 0 0 0 0 0 0 0 0 0 0 127 0"/>
<feOffset/>
<feGaussianBlur stdDeviation="0.5"/>
<feColorMatrix type="matrix" values="0 0 0 0 0.156863 0 0 0 0 0.160784 0 0 0 0 0.239216 0 0 0 0.04 0"/>
<feBlend mode="normal" in2="effect1_dropShadow" result="effect2_dropShadow"/>
<feBlend mode="normal" in="SourceGraphic" in2="effect2_dropShadow" result="shape"/>
</filter>
<filter id="filter1_dd" x="177.055" y="28" width="55" height="55" filterUnits="userSpaceOnUse" color-interpolation-filters="sRGB">
<feFlood flood-opacity="0" result="BackgroundImageFix"/>
<feColorMatrix in="SourceAlpha" type="matrix" values="0 0 0 0 0 0 0 0 0 0 0 0 0 0 0 0 0 0 127 0"/>
<feOffset dy="2"/>
<feGaussianBlur stdDeviation="2"/>
<feColorMatrix type="matrix" values="0 0 0 0 0.376471 0 0 0 0 0.380392 0 0 0 0 0.439216 0 0 0 0.16 0"/>
<feBlend mode="normal" in2="BackgroundImageFix" result="effect1_dropShadow"/>
<feColorMatrix in="SourceAlpha" type="matrix" values="0 0 0 0 0 0 0 0 0 0 0 0 0 0 0 0 0 0 127 0"/>
<feOffset/>
<feGaussianBlur stdDeviation="0.5"/>
<feColorMatrix type="matrix" values="0 0 0 0 0.156863 0 0 0 0 0.160784 0 0 0 0 0.239216 0 0 0 0.04 0"/>
<feBlend mode="normal" in2="effect1_dropShadow" result="effect2_dropShadow"/>
<feBlend mode="normal" in="SourceGraphic" in2="effect2_dropShadow" result="shape"/>
</filter>
<radialGradient id="paint0_radial" cx="0" cy="0" r="1" gradientUnits="userSpaceOnUse" gradientTransform="translate(189.436 101.239) rotate(96.4383) scale(75.2355 124.218)">
<stop offset="0.744792" stop-color="#C4C4C4"/>
<stop offset="1" stop-color="#C4C4C4" stop-opacity="0"/>
</radialGradient>
<linearGradient id="paint1_linear" x1="-0.383015" y1="13.1213" x2="87.3745" y2="24.5005" gradientUnits="userSpaceOnUse">
<stop stop-color="#E4E4EB"/>
<stop offset="1" stop-color="#EDF0F4"/>
</linearGradient>
<linearGradient id="paint2_linear" x1="184.055" y1="46" x2="184.055" y2="93" gradientUnits="userSpaceOnUse">
<stop stop-color="#3BC882" stop-opacity="0"/>
<stop offset="1" stop-color="#3BC882"/>
</linearGradient>
</defs>
</svg>
