<svg width="136" height="136" viewBox="0 0 136 136" fill="none" xmlns="http://www.w3.org/2000/svg">
<g filter="url(#filter0_dd)">
<rect x="16" y="8" width="104" height="104" rx="8" fill="#2F80ED"/>
<path d="M68.0193 33.2093L68.7383 35.3651L71.0107 35.3828C71.305 35.385 71.4269 35.7604 71.1902 35.9353L69.3621 37.2852L70.0475 39.4518C70.1362 39.7321 69.8169 39.9644 69.5774 39.7932L67.7288 38.4717L65.8801 39.7932C65.6409 39.9642 65.3213 39.7323 65.4101 39.4518L66.0955 37.2852L64.2673 35.9353C64.0307 35.7604 64.1526 35.385 64.4469 35.3828L66.7193 35.3651L67.4383 33.2093C67.5311 32.9302 67.9262 32.9302 68.0193 33.2093Z" fill="white"/>
<path d="M68.0193 79.4939L68.7383 81.6497L71.0107 81.6673C71.305 81.6696 71.4269 82.0449 71.1902 82.2198L69.3621 83.5698L70.0475 85.7363C70.1362 86.0166 69.8169 86.249 69.5774 86.0778L67.7288 84.7563L65.8801 86.0778C65.6409 86.2488 65.3213 86.0168 65.4101 85.7363L66.0955 83.5698L64.2673 82.2198C64.0307 82.0449 64.1526 81.6696 64.4469 81.6673L66.7193 81.6497L67.4383 79.4939C67.5311 79.2146 67.9262 79.2146 68.0193 79.4939Z" fill="white"/>
<path d="M91.1615 56.3515L91.8805 58.5073L94.1529 58.5249C94.4472 58.5272 94.5691 58.9025 94.3324 59.0774L92.5043 60.4274L93.1897 62.5939C93.2784 62.8742 92.9591 63.1066 92.7196 62.9354L90.871 61.6139L89.0224 62.9354C88.7831 63.1064 88.4636 62.8745 88.5523 62.5939L89.2377 60.4274L87.4095 59.0774C87.1729 58.9025 87.2948 58.5272 87.5891 58.5249L89.8615 58.5073L90.5805 56.3515C90.6734 56.0726 91.0684 56.0726 91.1615 56.3515Z" fill="white"/>
<path d="M44.8768 56.3515L45.5959 58.5073L47.8682 58.5249C48.1625 58.5272 48.2844 58.9025 48.0478 59.0774L46.2197 60.4274L46.905 62.5939C46.9938 62.8742 46.6745 63.1066 46.435 62.9354L44.5863 61.6139L42.7377 62.9354C42.4984 63.1064 42.1789 62.8745 42.2677 62.5939L42.953 60.4274L41.1249 59.0774C40.8882 58.9025 41.0101 58.5272 41.3044 58.5249L43.5768 58.5073L44.2959 56.3515C44.3889 56.0726 44.784 56.0726 44.8768 56.3515Z" fill="white"/>
<path d="M48.351 44.2664L49.0701 46.4222L51.3425 46.4399C51.6368 46.4421 51.7587 46.8175 51.522 46.9924L49.6939 48.3424L50.3793 50.5089C50.468 50.7892 50.1487 51.0216 49.9092 50.8503L48.0606 49.5288L46.2119 50.8503C45.9727 51.0214 45.6531 50.7894 45.7419 50.5089L46.4272 48.3424L44.5991 46.9924C44.3625 46.8175 44.4844 46.4421 44.7787 46.4399L47.051 46.4222L47.7701 44.2664C47.8631 43.9874 48.2578 43.9874 48.351 44.2664Z" fill="white"/>
<path d="M88.4345 67.4086L89.1536 69.5644L91.426 69.5821C91.7203 69.5843 91.8422 69.9597 91.6055 70.1346L89.7774 71.4845L90.4627 73.6511C90.5515 73.9318 90.2322 74.1638 89.9927 73.9925L88.1441 72.671L86.2954 73.9925C86.0561 74.1636 85.7366 73.9316 85.8254 73.6511L86.5107 71.4845L84.6826 70.1346C84.446 69.9597 84.5679 69.5843 84.8622 69.5821L87.1345 69.5644L87.8536 67.4086C87.9466 67.1297 88.3415 67.1297 88.4345 67.4086Z" fill="white"/>
<path d="M79.964 35.7956L80.6831 37.9514L82.9554 37.969C83.2498 37.9713 83.3716 38.3466 83.135 38.5215L81.3069 39.8715L81.9922 42.038C82.081 42.3183 81.7617 42.5507 81.5222 42.3795L79.6736 41.0579L77.8247 42.3795C77.5854 42.5505 77.2659 42.3185 77.3547 42.038L78.04 39.8715L76.2119 38.5215C75.9753 38.3466 76.0972 37.9713 76.3915 37.969L78.6638 37.9514L79.3829 35.7956C79.4759 35.5167 79.8706 35.5167 79.964 35.7956Z" fill="white"/>
<path d="M56.8216 75.8796L57.5406 78.0354L59.813 78.0531C60.1073 78.0553 60.2292 78.4307 59.9926 78.6056L58.1644 79.9555L58.8498 82.1221C58.9385 82.4024 58.6192 82.6347 58.3797 82.4635L56.5311 81.142L54.6825 82.4635C54.4432 82.6345 54.1237 82.4026 54.2124 82.1221L54.8978 79.9555L53.0696 78.6056C52.833 78.4307 52.9549 78.0553 53.2492 78.0531L55.5216 78.0356L56.2406 75.8798C56.3337 75.6003 56.7287 75.6003 56.8216 75.8796Z" fill="white"/>
<path d="M87.8536 44.2664L87.1345 46.4222L84.8622 46.4399C84.5679 46.4421 84.446 46.8175 84.6826 46.9924L86.5107 48.3424L85.8254 50.5089C85.7366 50.7892 86.0559 51.0216 86.2954 50.8503L88.1441 49.5288L89.9927 50.8503C90.232 51.0214 90.5515 50.7894 90.4627 50.5089L89.7774 48.3424L91.6055 46.9924C91.8422 46.8175 91.7203 46.4421 91.426 46.4399L89.1536 46.4222L88.4345 44.2664C88.3415 43.9874 87.9466 43.9874 87.8536 44.2664Z" fill="white"/>
<path d="M47.7701 67.4086L47.051 69.5644L44.7787 69.5821C44.4844 69.5843 44.3625 69.9597 44.5991 70.1346L46.4272 71.4845L45.7419 73.6511C45.6531 73.9318 45.9725 74.1638 46.2119 73.9925L48.0606 72.671L49.9092 73.9925C50.1485 74.1636 50.468 73.9316 50.3793 73.6511L49.6939 71.4845L51.522 70.1346C51.7587 69.9597 51.6368 69.5843 51.3425 69.5821L49.0701 69.5644L48.351 67.4086C48.2578 67.1297 47.8631 67.1297 47.7701 67.4086Z" fill="white"/>
<path d="M56.2406 35.7956L55.5216 37.9514L53.2492 37.969C52.9549 37.9713 52.833 38.3466 53.0696 38.5215L54.8978 39.8715L54.2124 42.038C54.1237 42.3183 54.443 42.5507 54.6825 42.3795L56.5311 41.0579L58.3797 42.3795C58.619 42.5505 58.9385 42.3185 58.8498 42.038L58.1644 39.8715L59.9926 38.5215C60.2292 38.3466 60.1073 37.9713 59.813 37.969L57.5406 37.9514L56.8216 35.7956C56.7283 35.5167 56.3337 35.5167 56.2406 35.7956Z" fill="white"/>
<path d="M79.3829 75.8796L78.6638 78.0354L76.3915 78.0531C76.0972 78.0553 75.9753 78.4307 76.2119 78.6056L78.04 79.9555L77.3547 82.1221C77.2659 82.4024 77.5852 82.6347 77.8247 82.4635L79.6734 81.142L81.522 82.4635C81.7613 82.6345 82.0808 82.4026 81.992 82.1221L81.3067 79.9555L83.1348 78.6056C83.3714 78.4307 83.2496 78.0553 82.9552 78.0531L80.6829 78.0356L79.9638 75.8798C79.8706 75.6003 79.4759 75.6003 79.3829 75.8796Z" fill="white"/>
</g>
<defs>
<filter id="filter0_dd" x="0" y="0" width="136" height="136" filterUnits="userSpaceOnUse" color-interpolation-filters="sRGB">
<feFlood flood-opacity="0" result="BackgroundImageFix"/>
<feColorMatrix in="SourceAlpha" type="matrix" values="0 0 0 0 0 0 0 0 0 0 0 0 0 0 0 0 0 0 127 0"/>
<feOffset dy="8"/>
<feGaussianBlur stdDeviation="8"/>
<feColorMatrix type="matrix" values="0 0 0 0 0.376471 0 0 0 0 0.380392 0 0 0 0 0.439216 0 0 0 0.16 0"/>
<feBlend mode="normal" in2="BackgroundImageFix" result="effect1_dropShadow"/>
<feColorMatrix in="SourceAlpha" type="matrix" values="0 0 0 0 0 0 0 0 0 0 0 0 0 0 0 0 0 0 127 0"/>
<feOffset dy="2"/>
<feGaussianBlur stdDeviation="2"/>
<feColorMatrix type="matrix" values="0 0 0 0 0.156863 0 0 0 0 0.160784 0 0 0 0 0.239216 0 0 0 0.04 0"/>
<feBlend mode="normal" in2="effect1_dropShadow" result="effect2_dropShadow"/>
<feBlend mode="normal" in="SourceGraphic" in2="effect2_dropShadow" result="shape"/>
</filter>
</defs>
</svg>
