<svg xmlns="http://www.w3.org/2000/svg" width="769.756" height="551.105" fill="none">
  <mask id="a" maskUnits="userSpaceOnUse" x="218" y="387" width="187" height="146">
    <rect x="405" y="533" width="187" height="146" rx="20" transform="rotate(-180 405 533)" fill="#c4c4c4"/>
  </mask>
  <g mask="url(#a)" transform="translate(-51.406 -32.734)">
    <path d="M-46 653.853L403.447 393 756 596.148 306.339 857z" clip-rule="evenodd" stroke="#c7c9d9" stroke-width="2" stroke-linecap="round" stroke-linejoin="round" stroke-dasharray="1,4"/>
  </g>
  <mask id="b" maskUnits="userSpaceOnUse" x="294" y="381" width="167" height="172">
    <rect x="461" y="553" width="167" height="172" rx="20" transform="rotate(-180 461 553)" fill="#c4c4c4"/>
  </mask>
  <g mask="url(#b)" transform="translate(-51.406 -32.734)">
    <path d="M1106 413.147L656.553 674 304 470.853 753.661 210z" clip-rule="evenodd" stroke="#c7c9d9" stroke-width="2" stroke-linecap="round" stroke-linejoin="round" stroke-dasharray="1,4"/>
  </g>
  <mask id="c" maskUnits="userSpaceOnUse" x="144" y="332" width="271" height="115">
    <rect x="144" y="332" width="271" height="115" rx="20" fill="#c4c4c4"/>
  </mask>
  <g mask="url(#c)" transform="translate(-51.406 -32.734)" clip-rule="evenodd" stroke-linejoin="round">
    <path d="M745 178.147L295.553 439-57 235.853 392.661-25z" stroke="url(#paint0_linear)" stroke-width="4"/>
    <path d="M745.189 178.221L295.742 439.073-56.811 235.926 392.85-24.927z" stroke="#57eba1" stroke-width="2" stroke-linecap="round" stroke-dasharray="1,4"/>
  </g>
  <g transform="translate(-51.406 -32.734)" filter="url(#filter0_dd)">
    <path d="M298.353 342.656c-1.827-1.061-2.853-2.496-2.853-3.992v-7.321L798.5 288v4.932c0 1.491-1.019 2.922-2.835 3.981L515.291 460.462c-3.83 2.233-10.079 2.238-13.918.01z" clip-rule="evenodd" fill="url(#paint1_linear)" fill-rule="evenodd"/>
    <mask id="d" maskUnits="userSpaceOnUse" x="295" y="165" width="504" height="291">
      <path d="M298.127 336.758c-3.829-2.21-3.829-5.794 0-8.004l280.188-161.753c3.828-2.21 10.035-2.21 13.864 0l203.282 117.355c3.828 2.21 3.828 5.794 0 8.004L515.273 454.112c-3.829 2.211-10.036 2.211-13.864 0z" clip-rule="evenodd" fill="#fff" fill-rule="evenodd"/>
    </mask>
    <g mask="url(#d)">
      <path d="M298.127 336.758c-3.829-2.21-3.829-5.794 0-8.004l280.188-161.753c3.828-2.21 10.035-2.21 13.864 0l203.282 117.355c3.828 2.21 3.828 5.794 0 8.004L515.273 454.112c-3.829 2.211-10.036 2.211-13.864 0z" clip-rule="evenodd" fill="#28293d" fill-rule="evenodd"/>
    </g>
    <rect width="67.732" height="4.896" rx="1.5" transform="matrix(.8665 -.50023 .8665 .50023 406 384.907)" fill="#555770"/>
    <rect width="70.997" height="4.896" rx="1.5" transform="scale(1.2254 .70743) rotate(-45 846.08 -137.682)" fill="#555770"/>
    <rect width="30.194" height="4.896" rx="1.5" transform="scale(1.2254 .70743) rotate(-45 776.725 -271.682)" fill="#555770"/>
    <rect width="40.803" height="4.896" rx="1.5" transform="scale(1.2254 .70743) rotate(-45 834.26 -132.785)" fill="#555770"/>
    <rect width="61.204" height="4.896" rx="1.5" transform="scale(1.2254 .70743) rotate(-45 810.595 -189.92)" fill="#555770"/>
    <rect width="40.803" height="4.896" rx="1.5" transform="scale(1.2254 .70743) rotate(-45 785.308 -217.53)" fill="#555770"/>
    <rect width="48.147" height="4.896" rx="1.5" transform="scale(1.2254 .70743) rotate(-45 761.642 -274.665)" fill="#555770"/>
    <rect width="67.732" height="4.896" rx="1.5" transform="scale(1.2254 .70743) rotate(-45 857.9 -142.579)" fill="#555770"/>
    <rect width="70.997" height="4.896" rx="1.5" transform="matrix(.8665 -.50023 .8665 .50023 448.427 409.4)" fill="#555770"/>
    <rect width="10.609" height="4.896" rx="1.5" transform="scale(1.2254 .70743) rotate(-45 812.19 -286.37)" fill="#555770"/>
    <rect width="40.803" height="4.896" rx="1.5" transform="scale(1.2254 .70743) rotate(-45 869.72 -147.476)" fill="#555770"/>
    <rect width="61.204" height="4.896" rx="1.5" transform="scale(1.2254 .70743) rotate(-45 846.055 -204.609)" fill="#555770"/>
    <rect width="14.689" height="4.896" rx="1.5" transform="scale(1.2254 .70743) rotate(-45 820.768 -232.22)" fill="#555770"/>
    <rect width="8.161" height="4.896" rx="1.5" transform="scale(1.2254 .70743) rotate(-45 810.162 -257.831)" fill="#555770"/>
    <rect width="40.803" height="4.896" rx="1.5" transform="scale(1.2254 .70743) rotate(-45 893.364 -157.267)" fill="#555770"/>
    <rect width="25.298" height="4.896" rx="1.5" transform="scale(1.2254 .70743) rotate(-45 917.004 -167.06)" fill="#555770"/>
    <rect width="13.873" height="4.896" rx="1.5" transform="scale(1.2254 .70743) rotate(-45 901.092 -205.48)" fill="#555770"/>
    <rect width="37.539" height="4.896" rx="1.5" transform="scale(1.2254 .70743) rotate(-45 881.518 -219.298)" fill="#555770"/>
    <rect width="13.057" height="4.896" rx="1.5" transform="scale(1.2254 .70743) rotate(-45 905.184 -162.164)" fill="#555770"/>
    <rect width="21.217" height="4.896" rx="1.5" transform="scale(1.2254 .70743) rotate(-45 895.39 -185.807)" fill="#555770"/>
    <rect width="14.689" height="4.896" rx="1.5" transform="scale(1.2254 .70743) rotate(-45 869.696 -214.402)" fill="#555770"/>
    <rect width="33.458" height="4.896" rx="1.5" transform="scale(1.2254 .70743) rotate(-45 859.089 -240.014)" fill="#555770"/>
    <rect width="67.732" height="4.896" rx="1.5" transform="matrix(.8665 -.50023 .8665 .50023 330 340.908)" fill="#555770"/>
    <rect width="70.997" height="4.896" rx="1.5" transform="scale(1.2254 .70743) rotate(-45 739.992 -93.916)" fill="#555770"/>
    <rect width="30.194" height="4.896" rx="1.5" transform="scale(1.2254 .70743) rotate(-45 670.638 -227.914)" fill="#555770"/>
    <rect width="40.803" height="4.896" rx="1.5" transform="scale(1.2254 .70743) rotate(-45 728.17 -89.02)" fill="#555770"/>
    <rect width="61.204" height="4.896" rx="1.5" transform="scale(1.2254 .70743) rotate(-45 704.507 -146.153)" fill="#555770"/>
    <rect width="40.803" height="4.896" rx="1.5" transform="scale(1.2254 .70743) rotate(-45 679.219 -173.764)" fill="#555770"/>
    <rect width="48.147" height="4.896" rx="1.5" transform="scale(1.2254 .70743) rotate(-45 655.555 -230.897)" fill="#555770"/>
    <rect width="67.732" height="4.896" rx="1.5" transform="scale(1.2254 .70743) rotate(-45 751.811 -98.812)" fill="#555770"/>
    <rect width="70.997" height="4.896" rx="1.5" transform="matrix(.8665 -.50023 .8665 .50023 372.427 365.4)" fill="#555770"/>
    <rect width="10.609" height="4.896" rx="1.5" transform="scale(1.2254 .70743) rotate(-45 706.102 -242.603)" fill="#555770"/>
    <rect width="40.803" height="4.896" rx="1.5" transform="scale(1.2254 .70743) rotate(-45 763.633 -103.71)" fill="#555770"/>
    <rect width="61.204" height="4.896" rx="1.5" transform="scale(1.2254 .70743) rotate(-45 739.968 -160.843)" fill="#555770"/>
    <rect width="14.689" height="4.896" rx="1.5" transform="scale(1.2254 .70743) rotate(-45 714.682 -188.454)" fill="#555770"/>
    <rect width="8.161" height="4.896" rx="1.5" transform="scale(1.2254 .70743) rotate(-45 704.074 -214.065)" fill="#555770"/>
    <rect width="40.803" height="4.896" rx="1.5" transform="scale(1.2254 .70743) rotate(-45 787.277 -113.5)" fill="#555770"/>
    <rect width="25.298" height="4.896" rx="1.5" transform="scale(1.2254 .70743) rotate(-45 810.916 -123.295)" fill="#555770"/>
    <rect width="13.873" height="4.896" rx="1.5" transform="scale(1.2254 .70743) rotate(-45 795.004 -161.712)" fill="#555770"/>
    <rect width="37.539" height="4.896" rx="1.5" transform="scale(1.2254 .70743) rotate(-45 775.43 -175.532)" fill="#555770"/>
    <rect width="13.057" height="4.896" rx="1.5" transform="scale(1.2254 .70743) rotate(-45 799.096 -118.397)" fill="#555770"/>
    <rect width="21.217" height="4.896" rx="1.5" transform="scale(1.2254 .70743) rotate(-45 789.302 -142.04)" fill="#555770"/>
    <rect width="14.689" height="4.896" rx="1.5" transform="scale(1.2254 .70743) rotate(-45 763.61 -170.635)" fill="#555770"/>
    <rect width="33.458" height="4.896" rx="1.5" transform="scale(1.2254 .70743) rotate(-45 753.002 -196.247)" fill="#555770"/>
    <path d="M319.546 332.012c1.757-1.015 1.757-2.659 0-3.674-1.758-1.014-4.607-1.014-6.364 0-1.758 1.015-1.758 2.659 0 3.674 1.757 1.015 4.606 1.015 6.364 0z" clip-rule="evenodd" fill="#ff5c5c" fill-rule="evenodd"/>
    <path d="M330.153 325.889c1.757-1.015 1.757-2.66 0-3.674-1.758-1.015-4.607-1.015-6.364 0-1.758 1.014-1.758 2.659 0 3.674 1.757 1.014 4.606 1.014 6.364 0z" clip-rule="evenodd" fill="#fddd48" fill-rule="evenodd"/>
    <path d="M340.76 319.766c1.757-1.015 1.757-2.66 0-3.674-1.758-1.015-4.607-1.015-6.364 0-1.758 1.014-1.758 2.659 0 3.674 1.757 1.014 4.606 1.014 6.364 0z" clip-rule="evenodd" fill="#39d98a" fill-rule="evenodd"/>
  </g>
  <path d="M234.676 226.841c-1.833-1.06-2.862-2.498-2.862-3.997v-7.578l532.78-46.5v6.498c0 1.501-1.033 2.94-2.871 4.002L463.677 351.36c-3.831 2.213-10.046 2.211-13.873-.004z" clip-rule="evenodd" fill="url(#paint2_linear)" fill-rule="evenodd"/>
  <mask id="e" maskUnits="userSpaceOnUse" x="283" y="71" width="534" height="308">
    <path d="M286.293 252.371c-3.829-2.21-3.829-5.794 0-8.004L583.544 72.764c3.828-2.21 10.035-2.21 13.864 0L813.29 197.393c3.828 2.21 3.828 5.794 0 8.004L516.039 377c-3.828 2.21-10.035 2.21-13.864 0z" clip-rule="evenodd" fill="#fff" fill-rule="evenodd"/>
  </mask>
  <g mask="url(#e)" transform="translate(-51.406 -32.734)">
    <g filter="url(#filter1_b)">
      <path d="M286.293 252.371c-3.829-2.21-3.829-5.794 0-8.004L583.544 72.764c3.828-2.21 10.035-2.21 13.864 0L813.29 197.393c3.828 2.21 3.828 5.794 0 8.004L516.039 377c-3.828 2.21-10.035 2.21-13.864 0z" clip-rule="evenodd" fill="#fff" fill-rule="evenodd"/>
    </g>
  </g>
  <rect width="24.826" height="9.379" rx="4.689" transform="scale(1.22477 .70706) rotate(-45)" x="49.368" y="365.846" fill="#e4e4eb"/>
  <rect width="11.585" height="9.379" rx="4.689" transform="scale(1.22477 .70706) rotate(-45)" x="79.71" y="365.845" fill="#e4e4eb"/>
  <rect width="77.219" height="77.219" rx="18.009" transform="scale(1.22477 .70706) rotate(45)" x="370.561" y="-12.006" fill="url(#paint3_linear)"/>
  <rect width="116.966" height="112.954" rx="8.004" transform="scale(1.22477 .70706) rotate(45)" x="478.433" y="-259.886" fill="#f2f2f5"/>
  <rect width="225.481" height="10.899" rx="4.002" transform="scale(1.22477 .70706) rotate(-45)" x="20.265" y="440.77" fill="url(#paint4_linear)"/>
  <rect width="225.481" height="10.899" rx="4.002" transform="scale(1.22477 .70706) rotate(-45)" x="22.719" y="416.743" fill="url(#paint5_linear)"/>
  <path d="M385.594 157.712c0-1.147.844-2.553 1.782-2.72 6.138-1.1 11.593 7.927 22.63.995 12.09-7.594 26.073-48.166 42.582-57.698 16.509-9.53 22.137 10.105 39.033.35 16.895-9.755 22.443-83.368 43.934-95.775 21.49-12.408 16.565 19.905 27.429 13.632 10.865-6.272 12.358-.116 12.358-.116v68.052c0 2.767-1.94 6.13-4.331 7.508L390.784 195.838c-2.867 1.653-5.19.308-5.19-3.009v-35.117z" fill="url(#paint6_linear)"/>
  <path d="M389.209 159.203c0-1.148.845-2.553 1.782-2.72 6.139-1.1 11.593 7.927 22.63.995 12.09-7.594 26.073-48.167 42.582-57.698 16.51-9.532 22.138 10.104 39.033.35 16.896-9.755 22.444-83.368 43.934-95.776 21.49-12.407 16.565 19.905 27.43 13.633 10.864-6.273 12.358-.117 12.358-.117v68.052c0 2.768-1.94 6.13-4.331 7.51L394.399 197.328c-2.867 1.653-5.19.308-5.19-3.009v-35.117z" fill="url(#paint7_linear)"/>
  <path d="M403.734 191.487c-.002-1.08.748-2.422 1.68-2.87 9.6-4.629 12.162 5.67 21.2-.126 9.546-6.119 21.842-37.543 41.774-49.05 19.932-11.509 24.99-2.875 42.26-12.845 17.269-9.97 25.875-45.955 38.784-53.408 12.909-7.453 13.502.66 22.648-4.62 8.53-4.925 12.026-17.395 19.675-23.22.944-.718 1.725-.255 1.725.851v49.782c0 3.32-2.325 7.352-5.193 9.008L408.929 208.542c-2.78 1.604-5.046.383-5.094-2.804a1024 1024 0 01-.101-14.25z" fill="url(#paint8_linear)"/>
  <path d="M407.465 193.545c-.001-1.08.748-2.422 1.68-2.87 9.6-4.629 12.162 5.67 21.2-.126 9.547-6.119 21.842-37.544 41.774-49.05 19.932-11.509 24.99-2.875 42.26-12.846 17.269-9.97 25.875-45.954 38.784-53.407 12.909-7.453 13.502.66 22.648-4.62 8.53-4.925 12.026-17.395 19.675-23.22.944-.718 1.725-.255 1.725.851v51.785c0 2.213-1.55 4.902-3.462 6.006L412.659 210.6c-2.778 1.605-5.045.384-5.093-2.803-.048-3.172-.093-7.81-.101-14.25z" fill="url(#paint9_linear)"/>
  <g transform="translate(-51.406 -32.734)" filter="url(#filter2_dd)">
    <rect width="80.184" height="80.184" rx="18" transform="scale(1.22477 .70706) rotate(45 -173.916 514.738)" fill="url(#paint10_linear)"/>
    <rect width="80.184" height="80.184" rx="18" transform="matrix(.86604 .49997 -.86604 .49997 383.397 191)" fill="#fff"/>
    <path d="M360.498 217.575c-.416.225-.417.605-.013.838l9.881 5.704c.4.231 1.044.232 1.472.019 6.8-3.392 17.09-3.224 23.549.505s6.751 9.669.875 13.595c-.369.247-.367.619.032.85l9.516 5.493c.404.233 1.061.233 1.452-.007 12.188-7.483 11.943-19.258-.732-26.575-12.675-7.317-33.07-7.458-46.032-.422z" fill="#39d98a"/>
    <path d="M375.478 227.068c-.063.034-.124.069-.185.104-4.137 2.388-4.137 6.26 0 8.648 4.136 2.388 10.843 2.388 14.979 0l.181-.107z" fill="#223c37"/>
    <path d="M390.453 235.713c3.955-2.395 3.895-6.188-.181-8.541-4.075-2.352-10.645-2.387-14.794-.104z" fill="#376c66"/>
  </g>
  <g transform="translate(-51.406 -32.734)" filter="url(#filter3_dd)">
    <path d="M358.058 534.809l127.103-1.309v7.651c0 3.375-2.323 6.612-6.457 8.999l-41.506 23.961c-8.609 4.971-22.568 4.971-31.177 0l-41.506-23.961c-4.134-2.387-6.457-5.624-6.457-8.999z" fill="url(#paint11_linear)"/>
    <rect width="84.061" height="84.061" rx="18" transform="matrix(.86604 .49997 -.86604 .49997 421.61 492)" fill="#fff"/>
    <path d="M412.534 538.919c.346-.199.346-.523 0-.722-.346-.2-.906-.2-1.252 0l-5.455 3.149c-1.897-.754-4.518-.647-6.204.326-1.899 1.097-1.899 2.881 0 3.978 1.9 1.097 4.991 1.097 6.891 0 1.686-.973 1.87-2.486.565-3.581zm-7.272 6.008c-1.21.699-3.177.698-4.387 0-1.209-.698-1.209-1.834 0-2.532 1.21-.698 3.178-.698 4.387 0 1.21.698 1.209 1.834 0 2.532zM399.623 520.484c-1.899 1.096-1.899 2.881 0 3.978 1.686.973 4.307 1.079 6.204.326l5.459 3.151c.346.2.907.2 1.252 0 .346-.199.346-.523 0-.722l-5.459-3.152c1.305-1.095 1.121-2.608-.565-3.581-1.9-1.097-4.991-1.097-6.891 0zm5.639 3.255c-1.209.698-3.177.698-4.387 0-1.209-.698-1.209-1.834 0-2.533 1.21-.698 3.178-.698 4.387 0 1.209.699 1.209 1.835 0 2.533zM443.217 541.672c-1.686-.973-4.307-1.08-6.203-.326l-5.46-3.152c-.346-.199-.906-.199-1.252 0-.346.2-.346.524 0 .723l5.46 3.152c-1.306 1.095-1.121 2.608.565 3.581 1.899 1.097 4.99 1.097 6.89 0 1.9-1.097 1.9-2.881 0-3.978zm-1.252 3.255c-1.209.699-3.177.699-4.387 0-1.209-.698-1.209-1.834 0-2.532s3.178-.698 4.387 0c1.209.698 1.209 1.834 0 2.532zM436.327 520.483c-1.686.974-1.87 2.487-.565 3.582l-5.607 3.237c-.346.199-.346.523 0 .722.346.2.906.2 1.252 0l5.607-3.237c1.897.754 4.517.648 6.203-.326 1.9-1.097 1.9-2.881.001-3.978-1.9-1.096-4.991-1.096-6.891 0zm5.639 3.256c-1.21.698-3.178.698-4.387 0-1.21-.699-1.209-1.835 0-2.533s3.178-.698 4.387 0c1.209.698 1.209 1.834 0 2.533z" fill="#c7c9d9" stroke="#c7c9d9" stroke-width=".2"/>
    <path d="M430.993 533.911l-8.11 4.682c-.806.465-2.118.465-2.923 0l-8.111-4.682c-.806-.465-.806-1.222 0-1.688l8.111-4.682c.806-.465 2.117-.465 2.923 0l8.111 4.682c.805.465.805 1.223-.001 1.688zm-18.149-1.113c-.257.148-.257.39 0 .538l8.111 4.683c.257.148.675.148.932 0l8.111-4.683c.257-.148.257-.39 0-.538l-8.111-4.682a1.027 1.027 0 00-.932 0z" fill="#c7c9d9"/>
    <path d="M419.515 531.967l-2.309 1.333c-.275.159-.721.159-.996 0-.274-.159-.274-.416 0-.575l2.31-1.333c.275-.159.72-.159.995 0s.275.416 0 .575zM424.228 532.021l-4.618 2.666c-.275.159-.721.159-.996 0-.275-.158-.275-.416 0-.574l4.618-2.667c.275-.158.721-.158.996 0 .275.159.275.416 0 .575zM426.632 533.409l-4.619 2.666c-.275.159-.72.159-.995 0s-.275-.416 0-.575l4.618-2.666c.275-.159.721-.159.996 0s.275.416 0 .575z" fill="#c7c9d9"/>
  </g>
  <g transform="translate(-51.406 -32.734)" filter="url(#filter4_dd)">
    <path d="M145.058 502.809l127.103-1.309v7.651c0 3.375-2.323 6.612-6.457 8.999l-41.506 23.961c-8.609 4.971-22.568 4.971-31.177 0l-41.506-23.961c-4.134-2.387-6.457-5.624-6.457-8.999z" fill="url(#paint12_linear)"/>
    <rect width="84.061" height="84.061" rx="18" transform="matrix(.86604 .49997 -.86604 .49997 208.61 460)" fill="#fff"/>
    <path d="M200.534 507.919c.346-.199.346-.523 0-.722-.346-.2-.906-.2-1.252 0l-5.455 3.149c-1.897-.754-4.518-.647-6.204.326-1.9 1.097-1.899 2.881 0 3.978 1.9 1.097 4.991 1.097 6.891 0 1.686-.973 1.87-2.486.565-3.581zm-7.272 6.008c-1.21.699-3.177.698-4.387 0-1.209-.698-1.209-1.834 0-2.532 1.21-.698 3.178-.698 4.387 0 1.21.698 1.209 1.834 0 2.532zM187.623 489.484c-1.899 1.096-1.899 2.881 0 3.978 1.686.973 4.307 1.079 6.204.326l5.459 3.151c.346.2.906.2 1.252 0 .346-.199.346-.523 0-.722l-5.459-3.152c1.305-1.095 1.121-2.608-.565-3.581-1.9-1.097-4.991-1.097-6.891 0zm5.639 3.255c-1.209.698-3.177.698-4.387 0-1.209-.698-1.209-1.834 0-2.533 1.209-.698 3.178-.698 4.387 0 1.209.699 1.209 1.835 0 2.533zM231.217 510.672c-1.686-.973-4.307-1.08-6.203-.326l-5.46-3.152c-.346-.199-.906-.199-1.252 0-.346.2-.346.524 0 .723l5.46 3.152c-1.306 1.095-1.121 2.608.565 3.581 1.899 1.097 4.99 1.097 6.89 0 1.9-1.097 1.9-2.881 0-3.978zm-1.252 3.255c-1.209.699-3.177.699-4.387 0-1.209-.698-1.209-1.834 0-2.532s3.178-.698 4.387 0c1.209.698 1.209 1.834 0 2.532zM224.327 489.483c-1.686.974-1.87 2.487-.565 3.582l-5.607 3.237c-.346.199-.346.523 0 .722.346.2.906.2 1.252 0l5.607-3.237c1.897.754 4.517.648 6.203-.326 1.9-1.097 1.9-2.881.001-3.978-1.9-1.096-4.991-1.096-6.891 0zm5.639 3.256c-1.21.698-3.178.698-4.387 0-1.21-.699-1.209-1.835 0-2.533s3.178-.698 4.387 0c1.209.698 1.209 1.834 0 2.533z" fill="#c7c9d9" stroke="#c7c9d9" stroke-width=".2"/>
    <path d="M218.993 502.911l-8.11 4.682c-.806.465-2.118.465-2.923 0l-8.111-4.682c-.806-.465-.806-1.222 0-1.688l8.111-4.682c.806-.465 2.117-.465 2.923 0l8.111 4.682c.805.465.805 1.223-.001 1.688zm-18.149-1.113c-.257.148-.257.39 0 .538l8.111 4.683c.257.148.675.148.932 0l8.111-4.683c.257-.148.257-.39 0-.538l-8.111-4.682a1.027 1.027 0 00-.932 0z" fill="#c7c9d9"/>
    <path d="M207.515 500.967l-2.309 1.333c-.275.159-.721.159-.996 0s-.275-.416 0-.575l2.31-1.333c.275-.159.72-.159.995 0s.275.416 0 .575zM212.228 501.021l-4.618 2.666c-.275.159-.721.159-.996 0-.275-.158-.275-.416 0-.574l4.618-2.667c.275-.158.721-.158.996 0 .275.159.275.416 0 .575zM214.632 502.409l-4.619 2.666c-.275.159-.72.159-.995 0s-.275-.416 0-.575l4.618-2.666c.275-.159.721-.159.996 0s.275.416 0 .575z" fill="#c7c9d9"/>
  </g>
  <circle r="100.823" transform="scale(1.22477 .70706) rotate(-45)" cx="-271.961" cy="415.249" opacity=".25" fill="#e3fff1" stroke="#57eba1"/>
  <circle r="79.076" transform="scale(1.22477 .70706) rotate(-45)" cx="-268.089" cy="410.914" opacity=".5" fill="#e3fff1" stroke="#57eba1"/>
  <circle r="56.159" transform="scale(1.22477 .70706) rotate(-45)" cx="-267.84" cy="411.163" opacity=".75" fill="#e3fff1" stroke="#57eba1"/>
  <circle r="35.662" transform="scale(1.22477 .70706) rotate(-45)" cx="-268.027" cy="410.976" fill="#e3fff1" stroke="#57eba1"/>
  <g transform="translate(-51.406 -32.734)" filter="url(#filter5_dd)">
    <path d="M112.058 363.809l127.103-1.309v7.651c0 3.375-2.323 6.613-6.457 8.999l-41.506 23.961c-8.609 4.971-22.568 4.971-31.177 0l-41.506-23.961c-4.134-2.387-6.457-5.624-6.457-8.999z" fill="url(#paint13_linear)"/>
    <rect width="84.061" height="84.061" rx="18" transform="matrix(.86604 .49997 -.86604 .49997 175.61 321)" fill="#fff"/>
  </g>
  <g opacity=".45">
    <path d="M236 322.913l-60.261 35.152-60.499-35.152L175.5 288z" fill="url(#paint14_linear)" transform="translate(-51.406 -32.734)"/>
    <path d="M235.999 322.913v28.544l-60.26 35.152v-28.544z" fill="url(#paint15_linear)" transform="translate(-51.406 -32.734)"/>
    <path d="M175.739 358.065v28.544L115 351.457l.239-28.544z" fill="url(#paint16_linear)" transform="translate(-51.406 -32.734)"/>
  </g>
  <g transform="translate(-51.406 -32.734)" filter="url(#filter6_dd)">
    <rect width="80.184" height="80.184" rx="18" transform="scale(1.22477 .70706) rotate(45 -412.48 373.381)" fill="url(#paint17_linear)"/>
    <rect width="80.184" height="80.184" rx="18" transform="matrix(.86604 .49997 -.86604 .49997 175.397 281)" fill="#fff"/>
    <path d="M185.583 321.818c.471-.274 1.161-.38 1.808-.278l15.499 2.254c1.39.217 1.929 1.258.917 1.845l-32.797 18.934c-1.016.589-2.762.316-3.137-.491l-3.882-8.999c-.172-.371.01-.766.478-1.037z" fill="#223c37"/>
    <path d="M176.683 321.546c.178.373-.004.772-.478 1.045l-11.779 6.8c-1.012.585-2.739.318-3.107-.48l-9.811-21.256c-.369-.798.901-1.528 2.282-1.313l15.853 2.472c.633.098 1.128.383 1.303.748z" fill="#39d98a"/>
    <path d="M202.52 325.622c.635.093 1.017.173 1.479-.094l14.06-8.116c1.028-.594.56-1.591-.857-1.785l-36.14-5.243c-1.39-.19-2.614.557-2.207 1.348l5.445 10.826z" fill="#376c66"/>
  </g>
  <path d="M200.094 254.266c0 9.665-5 20-13 25.5-4.363 2.596-7.5 6.5-14.5-.6-3-3.043-4-4.917-4-9.505 0-9.665 6.733-21.506 15.04-26.447 4.065-2.419 7.753-2.737 10.46-1.297 9 6.35 6 7.414 6 12.35z" fill="#57eba1"/>
  <circle transform="skewY(-30.75) scale(.8594 1)" cx="216.829" cy="373.949" fill="#fff" r="16"/>
  <g clip-path="url(#clip0)" transform="translate(-51.406 -32.734)">
    <path d="M238.188 278.726c-8.305 4.941-15.039 16.783-15.039 26.447 0 9.664 6.734 13.494 15.039 8.553 8.305-4.941 15.04-16.784 15.04-26.448 0-9.664-6.735-13.493-15.04-8.552zm6.496 7.92l-7.07 15.613a2.651 2.651 0 01-.38.607c-.151.18-.318.327-.488.428a.97.97 0 01-.488.153.52.52 0 01-.38-.156l-4.186-4.259c-.127-.131 0-.496.218-.626l1.575-.937c.342-.204.668-.206.869.002l2.391 2.438 5.277-11.656c.201-.444.524-.831.869-1.036l1.575-.937c.218-.13.346.083.218.366z" fill="#39d98a"/>
  </g>
  <g transform="translate(-51.406 -32.734)" filter="url(#filter7_dd)">
    <rect width="224.075" height="56.894" rx="8" transform="matrix(.86604 -.49997 .86604 .49997 368 312.03)" fill="#fff"/>
    <path d="M449.079 305.75l.686-.396-2.535-1.464 3.023-1.745 2.535 1.464.686-.396-5.668-3.273-.687.396 2.525 1.458-3.023 1.745-2.524-1.458-.687.397zm7.552-4.258c.864-.498 1.063-1.112.62-1.597l-.808.262c.277.351.113.701-.399.997-.766.442-1.79.461-2.732-.047l3.087-1.781-.277-.16c-1.583-.914-3.067-.684-3.953-.173-1.151.665-1.007 1.63.299 2.384 1.307.755 2.934.825 4.163.115zm-3.883-.711c-.617-.407-.739-1.018.008-1.449.709-.409 1.694-.364 2.414.051zm7.899-1.594c.742-.429.731-.882.587-1.119l.033-.019.576.332.653-.377-2.801-1.617c-1.35-.78-2.535-.275-3.078.038-.642.371-1.151.921-.708 1.56l.841-.23c-.166-.262-.158-.65.465-1.01.601-.347 1.215-.334 1.761-.019l.022.013c.315.182-.033.351-.709.856-.686.515-1.373 1.112-.398 1.675.83.479 1.948.383 2.756-.083zm-.487-.397c-.52.301-1.129.384-1.583.122-.498-.288-.199-.639.244-.972.243-.179.907-.652.885-.792l.598.345c.532.307.631.85-.144 1.297zm-1.487-5.124l-.653.377 5.669 3.273.653-.377zm4.463-.94l-.908.524-1.019-.588-.653.378 1.019.588-.643.37.554.32.642-.371 2.657 1.534c.742.428 1.694.288 2.248-.032.244-.14.354-.256.41-.326l-.72-.262c-.044.038-.111.102-.255.185-.288.167-.653.275-1.207-.044l-2.48-1.432.908-.524zm3.421-.019c-.742-.428-.689-.944-.044-1.317.614-.354 1.372-.345 2.048.045l2.657 1.534.653-.377-2.701-1.559c-1.094-.632-2.187-.592-3.056-.09-.67.387-.772.769-.531 1.138l-.056.032-2.081-1.202-.653.377 5.668 3.273.653-.377zm8.372-.039c.59-.341.692-.761.277-1.285l-3.05-3.851-.726.406 2.215 2.633-.045.026-4.561-1.279-.709.409 5.846 1.56.211.262c.409.511.177.716-.421.92l.409.429c.1-.019.333-.103.554-.23zm4.236-8.096c-.809-.23-1.672-.198-2.514.288-.896.518-1.051 1.195-.332 1.611.587.338 1.329.364 2.292.019l.875-.314c.528-.19.935-.188 1.229-.019.365.211.276.608-.332.959-.535.308-1.099.369-1.672.173l-.465.447c.874.329 1.854.208 2.723-.294.988-.57 1.121-1.27.388-1.694-.593-.342-1.337-.343-2.281-.013l-.786.275c-.628.219-1.024.253-1.351.064-.365-.211-.243-.588.277-.888.57-.329 1.121-.283 1.528-.179zm4.36 1.293l.653-.378-4.252-2.454-.653.377zm-4.628-3.056c.254-.147.266-.383.022-.524-.244-.14-.653-.134-.908.013-.255.147-.266.383-.022.524.244.141.653.134.908-.013zm4.573.134c-.742-.428-.703-.936-.077-1.297.606-.35 1.37-.334 2.037.051l2.657 1.534.653-.377-2.701-1.56c-1.085-.626-2.184-.593-3.045-.096-.642.371-.753.767-.52 1.132l-.056.031-.664-.383-.631.364 4.251 2.455.654-.377zm8.28-1.724c.941-.544.985-1.234.343-1.733l-.653.378c.343.338.232.722-.277 1.016-.775.447-1.916.364-2.901-.205-.963-.556-1.085-1.214-.321-1.655.576-.332 1.273-.326 1.76-.16l.654-.377c-.908-.396-2.115-.313-3.012.205-1.151.664-1.007 1.629.288 2.377 1.273.735 2.923.844 4.119.154zm4.409-2.546c.863-.498 1.063-1.112.62-1.598l-.808.262c.276.352.113.702-.399.997-.767.443-1.791.462-2.732-.046l3.086-1.782-.276-.159c-1.584-.914-3.067-.684-3.953-.173-1.151.665-1.008 1.63.299 2.384 1.306.754 2.934.825 4.163.115zm-3.884-.711c-.617-.407-.739-1.018.009-1.449.708-.409 1.694-.365 2.413.051zm10.579-3.167c1.08-.623 1.074-1.54-.011-2.167-1.099-.634-2.668-.658-3.709-.057-.382.22-.617.513-.664.754l-.033.019-1.473-1.08 2.37-1.368-.609-.351-2.945 1.7 2.446 1.809.72-.326c.067-.234.346-.536.698-.735.728-.414 1.804-.403 2.546.025.728.42.753 1.023.055 1.425-.581.336-1.417.387-1.981.122l-.665.383c.905.475 2.281.409 3.255-.153zm3.192-4.885c-.741-.428-.689-.945-.044-1.317.615-.355 1.373-.345 2.048.045l2.658 1.534.653-.377-2.702-1.56c-1.093-.631-2.186-.591-3.055-.089-.67.386-.773.768-.532 1.137l-.055.032-2.082-1.201-.653.377 5.669 3.272.653-.377zm8.326-1.751c1.151-.665 1.051-1.617-.266-2.378-1.329-.767-2.978-.824-4.13-.16-1.151.665-1.052 1.617.277 2.384 1.317.761 2.967.819 4.119.154zm-.587-.339c-.875.505-2.026.301-2.879-.192-.852-.492-1.218-1.163-.343-1.668.875-.505 2.037-.294 2.89.198.852.492 1.206 1.157.332 1.662zm4.363-3.95c.797.46.553 1.022.066 1.304-.542.313-1.328.306-1.948-.052l-2.658-1.534-.653.378 2.702 1.559c1.085.627 2.181.595 2.978.134.642-.37.72-.811.487-1.176l.044-.025.72.415.653-.377-4.251-2.454-.654.377zm3.588-.065l.653-.377-2.691-1.553c-.575-.332-.542-.837.078-1.195.174-.101.387-.185.443-.205l-.665-.383c-.08.04-.257.136-.354.192-.509.294-.664.715-.398 1.048l-.045.025-.642-.37-.631.364zm2.612-5.317c-.808-.23-1.672-.198-2.513.288-.897.517-1.052 1.195-.333 1.61.587.339 1.329.365 2.292.019l.875-.313c.529-.19.935-.188 1.229-.019.365.211.277.607-.332.959-.535.308-1.099.369-1.672.172l-.465.448c.875.329 1.854.208 2.723-.294.989-.571 1.121-1.271.388-1.694-.592-.342-1.337-.344-2.281-.013l-.786.275c-.628.219-1.024.253-1.351.064-.365-.211-.243-.588.277-.888.57-.33 1.121-.283 1.528-.179zm7.903-.638c.742-.428.731-.882.587-1.119l.033-.019.576.333.653-.377-2.801-1.618c-1.351-.779-2.536-.274-3.078.039-.642.371-1.152.92-.709 1.559l.842-.23c-.166-.262-.158-.65.465-1.01.6-.346 1.215-.334 1.76-.019l.022.013c.316.182-.033.352-.708.856-.687.515-1.373 1.113-.399 1.675.83.479 1.949.384 2.757-.083zm-.487-.396c-.521.3-1.13.383-1.584.121-.498-.287-.199-.639.244-.971.244-.179.908-.652.886-.793l.598.345c.531.307.631.85-.144 1.298zm6.927-1.494c1.019-.588 1.373-1.329.277-1.962l-4.373-2.525-.632.364.676.39-.067.039c-.365-.045-1.14-.186-1.97.294-1.074.62-.964 1.54.343 2.294 1.328.767 2.856.755 3.886.16.83-.479.609-.914.52-1.131l.056-.032.863.498c.709.409.532.882-.155 1.279-.772.446-1.45.367-1.86.332l-.155.511a3.988 3.988 0 002.591-.511zm-2.358-1.336c-.82.473-1.86.358-2.746-.153-.864-.499-1.151-1.138-.321-1.617.797-.46 1.86-.333 2.779.198.941.543 1.074 1.118.288 1.572zm5.525-2.333c1.151-.664 1.051-1.617-.266-2.377-1.329-.767-2.978-.825-4.13-.16-1.151.665-1.052 1.617.277 2.384 1.317.76 2.967.818 4.119.153zm-.587-.338c-.875.504-2.026.3-2.879-.192-.852-.492-1.218-1.164-.343-1.668.875-.505 2.037-.294 2.89.198.852.492 1.206 1.157.332 1.662z" fill="#acb5bd"/>
    <path d="M429.087 292.216c-1.294.73-1.156 1.761 0 2.429 1.218.703 2.99.689 4.072.064.652-.377.886-.881.714-1.378l.049-.029c1.55.895 1.833 1.755.861 2.316-.664.383-1.488.376-2.202.12l-.75.434c1.144.49 2.571.447 3.629-.164 1.414-.816 1.033-2.045-1.206-3.338-2.313-1.335-4.121-1.044-5.167-.454zm.677.39c.787-.454 2.042-.397 2.78.029.751.433.812 1.179.037 1.626-.775.448-1.968.412-2.756-.042-.787-.455-.836-1.165-.061-1.613zm4.728-3.51c-1.295.73-1.157 1.761 0 2.429 1.217.703 2.989.689 4.072.064.652-.377.885-.881.713-1.378l.049-.028c1.55.894 1.833 1.754.861 2.315-.664.383-1.488.376-2.202.12l-.75.434c1.144.49 2.571.447 3.629-.164 1.415-.816 1.033-2.045-1.206-3.338-2.312-1.335-4.121-1.043-5.166-.454zm.676.391c.788-.455 2.042-.398 2.78.028.751.433.812 1.179.037 1.626-.775.448-1.968.412-2.755-.042-.788-.455-.837-1.165-.062-1.612zm6.45-2.588l-1.009.583-1.131-.654-.726.419 1.132.654-.714.412.615.355.714-.412 2.952 1.704c.824.476 1.882.32 2.497-.035.271-.157.394-.284.456-.363l-.8-.291c-.049.043-.123.114-.283.206-.32.185-.726.306-1.341-.049l-2.755-1.591 1.008-.583zm3.801-.021c-.824-.476-.765-1.049-.049-1.463.683-.394 1.526-.383 2.276.05l2.952 1.704.726-.419-3.001-1.733c-1.215-.701-2.43-.657-3.396-.099-.744.43-.858.854-.59 1.264l-.062.036-2.312-1.336-.726.419 6.298 3.637.726-.42zm11.686-4.829c.689.398 1.698.483 2.498.022.787-.455.639-1.037-.05-1.435l-.332-.192c-.689-.398-1.685-.49-2.485-.028-.787.454-.652 1.044.037 1.441zm-6.741-.27c.689.398 1.698.483 2.497.022.788-.455.64-1.037-.049-1.435l-.332-.192c-.689-.397-1.685-.49-2.485-.028-.787.454-.652 1.044.037 1.442zm5.019 2.628l.701-.405-1.968-6.136-.701.405zm2.018-2.912c-.382-.22-.566-.525-.136-.774.443-.256.948-.135 1.329.085l.332.192c.381.22.578.519.148.767-.443.256-.96.142-1.341-.078zm-6.742-.27c-.381-.22-.566-.525-.135-.774.443-.255.947-.135 1.328.086l.333.191c.381.22.578.519.147.767-.443.256-.959.142-1.341-.078zm14-2.173l3.69-2.13-.676-.391-2.928 1.69-5.622-3.245-.763.44zm6.274-3.494c.824-.476.811-.98.652-1.243l.036-.021.64.369.726-.419-3.112-1.796c-1.501-.867-2.818-.306-3.42.042-.714.412-1.28 1.023-.788 1.733l.935-.256c-.184-.291-.175-.722.517-1.122.667-.385 1.35-.371 1.956-.021l.025.014c.35.203-.037.391-.788.952-.762.571-1.525 1.236-.443 1.86.923.533 2.166.427 3.064-.092zm-.542-.44c-.578.334-1.255.426-1.759.135-.553-.32-.221-.71.271-1.08.27-.199 1.008-.724.984-.88l.664.383c.591.341.701.945-.16 1.442zm1.251-5.552l-1.009.583-1.131-.654-.726.419 1.132.654-.714.412.615.355.714-.412 2.952 1.704c.824.476 1.882.32 2.497-.035.271-.156.394-.284.456-.362l-.8-.292c-.049.043-.123.114-.283.206-.32.185-.726.306-1.341-.049l-2.755-1.591 1.008-.582zm7.844 1.04c.96-.554 1.181-1.236.689-1.775l-.898.291c.308.39.126.779-.443 1.108-.852.491-1.99.513-3.035-.052l3.429-1.98-.308-.177c-1.759-1.016-3.407-.76-4.392-.192-1.279.739-1.119 1.811.333 2.649 1.451.838 3.26.916 4.625.128zm-4.315-.79c-.686-.453-.821-1.131.009-1.61.788-.455 1.883-.405 2.682.056zm5.161-3.093c-.824-.476-.781-1.04-.086-1.442.673-.388 1.522-.371 2.263.057l2.953 1.705.725-.419-3.001-1.733c-1.206-.696-2.427-.659-3.383-.107-.714.412-.837.852-.578 1.257l-.062.036-.738-.426-.701.404 4.724 2.728.726-.419zm9.199-1.916c1.046-.604 1.095-1.371.382-1.925l-.726.419c.381.377.258.803-.308 1.129-.861.498-2.128.405-3.223-.227-1.07-.618-1.205-1.349-.357-1.839.64-.369 1.415-.362 1.956-.178l.726-.419c-1.009-.44-2.349-.348-3.346.228-1.279.738-1.119 1.811.32 2.641 1.415.817 3.248.938 4.576.171zm5.059-.989c.655-.378.769-.845.308-1.428l-3.389-4.278-.806.451 2.46 2.926-.049.028-5.068-1.42-.787.454 6.495 1.733.234.291c.455.568.196.796-.468 1.023l.455.476a2.43 2.43 0 00.615-.256zm5.026-4.947l.726-.419-4.724-2.727-.725.419zm-5.142-3.395c.283-.163.296-.426.025-.582-.271-.156-.726-.149-1.009.014-.283.164-.295.426-.024.583.27.156.725.149 1.008-.015zm6.878-1.839c-.898-.256-1.858-.221-2.793.319-.996.575-1.168 1.328-.369 1.79.652.376 1.476.405 2.547.021l.971-.348c.588-.211 1.04-.209 1.366-.021.406.234.308.675-.369 1.065-.594.343-1.221.41-1.858.192l-.516.497c.972.366 2.06.231 3.026-.327 1.098-.633 1.245-1.411.43-1.882-.658-.38-1.485-.381-2.534-.014l-.873.306c-.698.243-1.138.28-1.501.071-.406-.235-.271-.654.308-.988.633-.365 1.245-.314 1.697-.198zm7.378-.027l.702-.405-.726-.419.086-.05c.418.057 1.292.206 2.202-.32 1.181-.681 1.058-1.704-.443-2.57-1.488-.86-3.26-.931-4.453-.242-.923.533-.64 1.023-.554 1.257l-.061.036-2.325-1.343-.726.419zm-1.648-1.776c-1.058-.611-1.304-1.292-.418-1.804.922-.532 2.153-.348 3.149.228 1.009.582 1.341 1.313.431 1.839-.874.504-2.092.355-3.162-.263zm9.008-2.359c.96-.554 1.181-1.236.689-1.776l-.898.291c.307.391.126.78-.443 1.108-.852.492-1.99.513-3.035-.051l3.429-1.98-.308-.178c-1.759-1.015-3.407-.759-4.392-.191-1.279.738-1.119 1.811.333 2.649 1.451.838 3.26.916 4.625.128zm-4.315-.791c-.686-.452-.821-1.131.009-1.61.788-.454 1.883-.405 2.682.057zm1.704-5.088l-.726.419 6.299 3.636.725-.419zm9.645 1.818c1.28-.739 1.169-1.797-.295-2.642-1.476-.852-3.309-.916-4.588-.178-1.28.739-1.169 1.797.307 2.649 1.464.845 3.297.909 4.576.171zm-.652-.377c-.972.561-2.251.334-3.198-.213-.947-.547-1.353-1.292-.381-1.853.971-.561 2.263-.327 3.21.22.948.547 1.341 1.285.369 1.846zm4.712-2.081l.713-.412-2.595-2.691.074-.043 4.662 1.499.713-.412-3.284-3.558-.763.44 2.583 2.67-.049.029-4.601-1.506-.775.448 2.608 2.67-.049.028-4.638-1.498-.762.44zm10.444-5.93c1.2-.692 1.193-1.711-.012-2.407-1.221-.705-2.965-.732-4.121-.064-.425.245-.686.57-.738.838l-.037.021-1.636-1.2 2.632-1.52-.676-.39-3.273 1.889 2.719 2.01.8-.363c.073-.259.384-.594.775-.816.808-.46 2.005-.448 2.829.028.809.467.837 1.136.061 1.584-.645.373-1.574.429-2.202.135l-.738.426c1.006.527 2.535.454 3.617-.171zm5.355-3.091c1.39-.803 1.012-1.944-1.045-3.132-2.043-1.179-4.048-1.399-5.426-.604-1.377.796-.996 1.953 1.046 3.132 2.058 1.188 4.035 1.406 5.425.604zm-.676-.391c-.917.529-2.372.307-4.011-.639-1.636-.944-2.03-1.797-1.119-2.322.91-.526 2.386-.298 4.022.646 1.64.946 2.024 1.786 1.108 2.315zm6.089-2.734c1.39-.802 1.012-1.944-1.046-3.132-2.042-1.179-4.047-1.399-5.425-.603-1.378.795-.996 1.953 1.046 3.131 2.057 1.188 4.035 1.407 5.425.604zm-.677-.391c-.916.53-2.371.308-4.01-.639-1.636-.944-2.03-1.796-1.119-2.322.91-.526 2.386-.298 4.022.646 1.639.947 2.024 1.786 1.107 2.315zm3.962-1.605l.725-.419-2.952-1.704c-.692-.399-.677-.973-.111-1.3.551-.317 1.295-.332 1.833-.021l3.236 1.868.738-.426-3.076-1.776c-.609-.351-.676-.831-.012-1.214a1.898 1.898 0 011.931.007l3.162 1.825.726-.419-3.162-1.825c-1.11-.641-2.22-.593-3.063-.107-.677.391-.861.856-.615 1.279l-.049.028c-.738-.156-1.446-.089-2.067.27-.615.355-.775.788-.468 1.193l-.061.036-.738-.426-.701.404zm7.207-8.393c-.898-.256-1.858-.22-2.793.32-.996.575-1.168 1.328-.369 1.789.652.377 1.477.405 2.547.022l.972-.348c.587-.212 1.039-.21 1.365-.022.406.235.308.675-.369 1.066-.594.342-1.221.41-1.858.191l-.516.497c.972.366 2.06.231 3.026-.326 1.098-.634 1.246-1.412.431-1.882-.659-.38-1.486-.382-2.535-.014l-.873.305c-.698.243-1.138.28-1.501.071-.406-.234-.27-.653.308-.987.633-.366 1.245-.314 1.697-.199z" fill="#212429"/>
    <path d="M428.184 318.694c7.029-4.058 7.029-10.638 0-14.696-7.03-4.058-18.427-4.058-25.456 0-7.03 4.058-7.03 10.638 0 14.696 7.029 4.058 18.426 4.058 25.456 0z" clip-rule="evenodd" fill="#e3fff1" fill-rule="evenodd"/>
    <g clip-path="url(#clip1)">
      <path d="M409.887 308.131c-3.075 1.776-3.075 4.654 0 6.43 3.075 1.775 8.062 1.775 11.137 0 3.075-1.776 3.075-4.654 0-6.43-3.075-1.775-8.062-1.775-11.137 0zm6.156.777l1.011 3.606a.191.191 0 01-.019.151.352.352 0 01-.137.13.731.731 0 01-.224.079.957.957 0 01-.262.011l-3.698-.345c-.113-.011-.158-.091-.077-.138l.583-.336a.843.843 0 01.487-.091l2.113.198-.756-2.692c-.028-.103.029-.207.157-.281l.583-.337c.081-.046.22-.021.239.045z" fill="#39d98a"/>
    </g>
  </g>
  <g transform="translate(-51.406 -32.734)" filter="url(#filter8_dd)">
    <rect width="181.385" height="59.54" rx="8" transform="matrix(.8665 -.50023 .8665 .50023 463 328.734)" fill="#fff"/>
    <path d="M530.068 337.669c8.548-4.935 8.548-12.935 0-17.87-8.548-4.935-22.407-4.935-30.954 0-8.548 4.935-8.548 12.935 0 17.87 8.547 4.935 22.406 4.935 30.954 0z" clip-rule="evenodd" fill="#e3fff1" fill-rule="evenodd"/>
    <g clip-path="url(#clip2)">
      <path d="M508.304 324.857c-3.137 1.811-3.137 4.748 0 6.559s8.224 1.811 11.361 0c3.137-1.811 3.137-4.748 0-6.559s-8.224-1.811-11.361 0zm6.279.792l1.032 3.679a.198.198 0 01-.02.155.363.363 0 01-.139.132.737.737 0 01-.229.08 1 1 0 01-.268.012l-3.772-.352c-.115-.011-.161-.093-.079-.141l.595-.343a.869.869 0 01.497-.093l2.156.202-.771-2.746c-.029-.105.029-.212.16-.287l.594-.343c.083-.048.225-.022.244.045z" fill="#39d98a"/>
    </g>
    <rect width="31.754" height="3.969" rx="1.985" transform="scale(1.2254 .70743) rotate(-45 763.797 -313.722)" fill="#ebebf0"/>
    <rect width="71.447" height="3.969" rx="1.985" transform="scale(1.2254 .70743) rotate(-45 754.814 -310)" fill="#ebebf0"/>
    <rect width="33.739" height="7.939" rx="3.969" transform="scale(1.2254 .70743) rotate(-45 740.438 -304.047)" fill="#c7c9d9"/>
  </g>
  <g transform="translate(-51.406 -32.734)" filter="url(#filter9_dd)">
    <rect width="116.32" height="116.32" rx="8" transform="scale(1.22477 .70706) rotate(-45 544.53 -459.17)" fill="#fff"/>
    <path d="M616.595 181.231l3.727-2.152-.801-.463-2.797 1.615-5.37-3.1-.932.537zM622.762 177.789c.766-.442.808-.915.633-1.214l.036-.021.633.365.88-.508-3.074-1.774c-1.347-.778-2.676-.321-3.412.104-.837.484-1.271 1.124-.729 1.785l1.04-.378c-.196-.266-.175-.643.431-.993.581-.336 1.184-.332 1.709-.03l.021.013c.328.189-.015.381-.751.917-.774.565-1.443 1.216-.391 1.823.91.525 2.094.419 2.974-.089zm-.527-.531c-.51.295-1.106.375-1.552.117-.483-.278-.226-.625.226-.966.253-.191.868-.636.868-.786l.596.345c.549.316.612.857-.138 1.29zM623.676 171.799l-.949.548-1.109-.641-.902.521 1.11.64-.679.391.724.418.678-.392 2.733 1.578c.838.487 1.887.352 2.583-.068.283-.167.422-.309.488-.393l-.907-.335c-.048.041-.133.121-.277.205-.293.169-.651.264-1.173-.037l-2.546-1.47.949-.548zM631.341 172.826c1.009-.582 1.226-1.282.678-1.835l-1.007.403c.274.347.105.702-.407.997-.771.446-1.79.456-2.706-.045l3.291-1.9-.32-.184c-1.672-.966-3.327-.766-4.376-.16-1.289.744-1.157 1.802.266 2.623 1.437.83 3.215.889 4.581.101zm-4.114-.871c-.621-.4-.714-1.004.018-1.427.699-.404 1.676-.369 2.387.038zM632.386 168.942c-.739-.426-.709-.931-.082-1.293.612-.353 1.383-.336 2.055.052l2.836 1.637.901-.52-2.944-1.7c-1.145-.661-2.375-.643-3.321-.097-.696.402-.829.851-.552 1.258l-.057.033-.753-.435-.865.499 4.629 2.673.901-.521zM641.348 167.049c1.094-.632 1.145-1.42.344-1.997l-.877.506c.386.355.292.75-.223 1.047-.763.44-1.89.357-2.899-.226-.992-.572-1.115-1.221-.362-1.656.573-.331 1.284-.324 1.814-.129l.877-.506c-1.03-.484-2.414-.402-3.466.205-1.304.753-1.166 1.808.248 2.624 1.395.805 3.2.908 4.544.132zM646.426 166.014c.744-.43.825-.925.364-1.501l-3.324-4.129-.982.557 2.42 2.751-.049.027-4.764-1.397-.965.557 6.383 1.729.196.242c.386.487.115.703-.515.91l.521.552c.157-.035.443-.141.715-.298z" fill="#555770"/>
    <rect width="16.002" height="16.002" rx="8" transform="scale(1.22477 .70706) rotate(-45 521.73 -538.67)" fill="#e3fff1"/>
    <g clip-path="url(#clip3)" fill="#3bc882">
      <path d="M668.748 147.918l1.397.807c.181.351.229.863-.011 1.201l-2.432-1.404c-.203-.117-.203-.307 0-.424l.311-.18a.813.813 0 01.735 0zM668.81 150.824c.211-.078.403-.166.585-.272.183-.105.336-.216.471-.338l-1.148-.662a.813.813 0 00-.735 0l-.321.185c-.203.117-.203.307 0 .424zM666.704 150.05l1.608.928a6.045 6.045 0 01-1.852.139l-.803-.463c-.203-.117-.203-.307 0-.424l.312-.18a.813.813 0 01.735 0z"/>
      <path d="M662.182 149.293c0 1.541 2.164 2.791 4.834 2.791 2.541 0 4.624-1.133 4.818-2.571h2.664v-.002h.003c.703 0 .703-.609 0-.609h-2.699c-.329-1.356-2.347-2.399-4.786-2.399-2.67 0-4.834 1.249-4.834 2.79zm1.057 0c0-1.205 1.691-2.182 3.778-2.182 2.086 0 3.778.977 3.778 2.182 0 1.204-1.692 2.181-3.778 2.181-2.087 0-3.778-.977-3.778-2.181z" clip-rule="evenodd" fill-rule="evenodd"/>
    </g>
    <path d="M679.218 139.885l1.585-.916.617.356.574-.331-.616-.356.425-.246-.495-.285-.425.245-2.212-1.277-.75.433.818 2.1zm1.097-1.205l-.976.563-.026-.015-.555-1.416.026-.015zM682.938 138.449l2.278-1.315-.503-.291-1.447.836-.023-.013-.01-.667c.026-.731-.097-1.008-.472-1.225-.557-.321-1.417-.295-2.085.091-.659.381-.718.887-.086 1.251l.573-.331c-.34-.196-.338-.442-.007-.633.316-.183.745-.207 1.058-.026.278.16.307.372.312.753l-.023 1.319z" fill="#28293d"/>
    <path d="M686.398 143.837l.402-.232-1.298-.749.727-.42c.029-.017.057-.033.082-.05l2.001.346.468-.27-2.124-.359c.279-.328.131-.641-.31-.896-.588-.339-1.37-.386-2.149.063l-1.123.649zm-1.26-1.191l-1.304-.754.707-.408c.539-.311 1.009-.279 1.409-.049.399.231.435.491-.098.798zM690.339 141.622c.506-.292.623-.652.363-.937l-.474.154c.163.206.067.411-.233.584-.45.26-1.05.271-1.602-.027l1.809-1.044-.162-.094c-.928-.536-1.798-.401-2.317-.101-.675.389-.591.955.175 1.398.766.442 1.72.483 2.441.067zm-2.277-.417c-.362-.239-.433-.597.005-.85.415-.239.993-.213 1.415.03zM694.92 139.997l-3.427-1.979-.37.214.396.228-.046.026c-.214-.026-.662-.112-1.149.169-.629.364-.565.903.221 1.357.792.457 1.726.494 2.35.134.48-.277.344-.543.292-.67l.032-.019 1.318.761zm-2.558-1.042c.565.326.701.697.241.963-.481.277-1.149.176-1.682-.131-.525-.304-.694-.679-.207-.96.467-.269 1.09-.194 1.648.128zM695.238 137.557c.467.27.324.6.039.765-.318.183-.779.179-1.143-.03l-1.557-.9-.383.221 1.583.915c.637.367 1.279.348 1.746.078.377-.217.422-.476.286-.689l.026-.015.422.243.383-.221-2.493-1.439-.383.221zM698.438 136.946c.507-.292.623-.652.364-.937l-.474.154c.162.206.067.411-.234.584-.449.26-1.05.271-1.601-.027l1.809-1.044-.162-.094c-.928-.536-1.798-.401-2.318-.101-.675.39-.59.955.176 1.398.766.442 1.72.483 2.44.067zm-2.276-.417c-.362-.239-.434-.597.004-.85.416-.239.994-.213 1.416.03zM699.832 133.848c-.474-.135-.98-.116-1.473.169-.526.303-.617.7-.195.944.344.199.779.214 1.344.011l.513-.183c.309-.112.548-.111.72-.012.214.124.162.356-.195.562a1.146 1.146 0 01-.98.102l-.272.262c.512.193 1.087.122 1.596-.172.58-.335.658-.745.228-.993-.348-.201-.784-.202-1.338-.008l-.46.161c-.369.129-.601.148-.792.038-.215-.124-.143-.345.162-.521.334-.193.657-.166.896-.105zM700.98 132.541l-.532.307-.597-.345-.383.222.597.344-.377.218.325.187.376-.217 1.558.899c.435.251.993.169 1.318-.019a.79.79 0 00.24-.191l-.422-.153c-.026.022-.065.059-.149.108-.169.098-.383.161-.708-.026l-1.454-.839.533-.308zM703.835 131.537c-.474-.135-.98-.116-1.473.169-.526.303-.617.7-.195.944.344.199.779.214 1.344.011l.512-.183c.31-.112.549-.111.721-.012.214.124.162.356-.195.563a1.15 1.15 0 01-.98.101l-.273.262c.513.193 1.088.122 1.597-.172.58-.335.657-.745.227-.993-.347-.201-.783-.202-1.337-.008l-.461.161c-.368.129-.6.148-.791.038-.215-.124-.143-.345.162-.521.334-.193.657-.166.896-.105z" fill="#8f90a6"/>
    <rect width="6.801" height="40.779" rx="2" transform="scale(1.22477 .70706) rotate(-45 625.647 -502.344)" fill="#57eba1"/>
    <rect width="6.801" height="30.971" rx="2" transform="scale(1.22477 .70706) rotate(-45 637.485 -507.248)" fill="#39d98a"/>
    <rect width="6.801" height="21.68" rx="2" transform="scale(1.22477 .70706) rotate(-45 648.702 -511.893)" fill="#3bc882"/>
    <rect width="6.801" height="36.133" rx="2" transform="scale(1.22477 .70706) rotate(-45 627.236 -514.368)" fill="#57eba1"/>
    <rect width="6.801" height="27.874" rx="2" transform="scale(1.22477 .70706) rotate(-45 637.205 -518.498)" fill="#39d98a"/>
    <rect width="6.801" height="19.615" rx="2" transform="scale(1.22477 .70706) rotate(-45 647.174 -522.627)" fill="#3bc882"/>
    <rect width="6.801" height="64.007" rx="2" transform="scale(1.22477 .70706) rotate(-45 589.571 -510.133)" fill="#57eba1"/>
    <rect width="6.801" height="49.037" rx="2" transform="scale(1.22477 .70706) rotate(-45 607.639 -517.619)" fill="#39d98a"/>
    <rect width="6.801" height="34.584" rx="2" transform="scale(1.22477 .70706) rotate(-45 625.087 -524.845)" fill="#3bc882"/>
    <rect width="6.801" height="44.392" rx="2" transform="scale(1.22477 .70706) rotate(-45 609.227 -529.644)" fill="#57eba1"/>
    <rect width="6.801" height="34.068" rx="2" transform="scale(1.22477 .70706) rotate(-45 621.69 -534.804)" fill="#39d98a"/>
    <rect width="6.801" height="23.744" rx="2" transform="scale(1.22477 .70706) rotate(-45 634.15 -539.967)" fill="#3bc882"/>
    <rect width="6.801" height="32.52" rx="2" transform="scale(1.22477 .70706) rotate(-45 619.54 -545.28)" fill="#57eba1"/>
    <rect width="6.801" height="24.777" rx="2" transform="scale(1.22477 .70706) rotate(-45 628.889 -549.152)" fill="#39d98a"/>
    <rect width="6.801" height="17.55" rx="2" transform="scale(1.22477 .70706) rotate(-45 637.612 -552.765)" fill="#3bc882"/>
    <rect width="6.801" height="50.586" rx="2" transform="scale(1.22477 .70706) rotate(-45 593.714 -545.949)" fill="#57eba1"/>
    <rect width="6.801" height="38.714" rx="2" transform="scale(1.22477 .70706) rotate(-45 608.045 -551.885)" fill="#39d98a"/>
    <rect width="6.801" height="27.358" rx="2" transform="scale(1.22477 .70706) rotate(-45 621.752 -557.564)" fill="#3bc882"/>
    <rect width="6.801" height="62.458" rx="2" transform="scale(1.22477 .70706) rotate(-45 575.364 -549.715)" fill="#57eba1"/>
    <rect width="6.801" height="47.489" rx="2" transform="scale(1.22477 .70706) rotate(-45 593.435 -557.199)" fill="#39d98a"/>
    <rect width="6.801" height="33.552" rx="2" transform="scale(1.22477 .70706) rotate(-45 610.259 -564.167)" fill="#3bc882"/>
    <rect width="6.801" height="40.779" rx="2" transform="scale(1.22477 .70706) rotate(-45 597.516 -570.256)" fill="#57eba1"/>
    <rect width="6.801" height="30.971" rx="2" transform="scale(1.22477 .70706) rotate(-45 609.355 -575.16)" fill="#39d98a"/>
    <rect width="6.801" height="21.68" rx="2" transform="scale(1.22477 .70706) rotate(-45 620.57 -579.806)" fill="#3bc882"/>
    <rect width="6.801" height="36.133" rx="2" transform="scale(1.22477 .70706) rotate(-45 599.106 -582.28)" fill="#57eba1"/>
    <rect width="6.801" height="27.874" rx="2" transform="scale(1.22477 .70706) rotate(-45 609.075 -586.41)" fill="#39d98a"/>
    <rect width="6.801" height="19.615" rx="2" transform="scale(1.22477 .70706) rotate(-45 619.044 -590.54)" fill="#3bc882"/>
    <rect width="6.801" height="64.007" rx="2" transform="scale(1.22477 .70706) rotate(-45 561.44 -578.046)" fill="#57eba1"/>
    <rect width="6.801" height="49.037" rx="2" transform="scale(1.22477 .70706) rotate(-45 579.51 -585.53)" fill="#39d98a"/>
    <rect width="6.801" height="34.584" rx="2" transform="scale(1.22477 .70706) rotate(-45 596.955 -592.757)" fill="#3bc882"/>
    <rect width="6.801" height="44.392" rx="2" transform="scale(1.22477 .70706) rotate(-45 581.098 -597.557)" fill="#57eba1"/>
    <rect width="6.801" height="34.068" rx="2" transform="scale(1.22477 .70706) rotate(-45 593.56 -602.717)" fill="#39d98a"/>
    <rect width="6.801" height="23.744" rx="2" transform="scale(1.22477 .70706) rotate(-45 606.023 -607.878)" fill="#3bc882"/>
    <rect width="6.801" height="32.52" rx="2" transform="scale(1.22477 .70706) rotate(-45 591.411 -613.193)" fill="#57eba1"/>
    <rect width="6.801" height="24.777" rx="2" transform="scale(1.22477 .70706) rotate(-45 600.759 -617.064)" fill="#39d98a"/>
    <rect width="6.801" height="17.55" rx="2" transform="scale(1.22477 .70706) rotate(-45 609.48 -620.677)" fill="#3bc882"/>
    <rect width="6.801" height="50.586" rx="2" transform="scale(1.22477 .70706) rotate(-45 565.582 -613.862)" fill="#57eba1"/>
    <rect width="6.801" height="38.714" rx="2" transform="scale(1.22477 .70706) rotate(-45 579.914 -619.798)" fill="#39d98a"/>
    <rect width="6.801" height="27.358" rx="2" transform="scale(1.22477 .70706) rotate(-45 593.623 -625.476)" fill="#3bc882"/>
  </g>
  <defs id="defs5460">
    <linearGradient id="paint0_linear" x1="400" y1="368" x2="214.5" y2="370.5" gradientUnits="userSpaceOnUse">
      <stop stop-color="#84F0BA" stop-opacity="0" id="stop5354"/>
      <stop offset=".271" stop-color="#84F0BA" id="stop5356"/>
      <stop offset=".552" stop-color="#84F0BA" stop-opacity="0" id="stop5358"/>
    </linearGradient>
    <linearGradient id="paint1_linear" x1="326.048" y1="366.809" x2="856.232" y2="504.974" gradientUnits="userSpaceOnUse">
      <stop stop-color="#8B90A4" id="stop5361"/>
      <stop offset="1" stop-color="#28293D" id="stop5363"/>
    </linearGradient>
    <linearGradient id="paint2_linear" x1="730.22" y1="242.918" x2="407.267" y2="67.929" gradientUnits="userSpaceOnUse" gradientTransform="translate(-51.406 -32.734)">
      <stop stop-color="#C7C8D1" id="stop5366"/>
      <stop offset=".443" stop-color="#DCDDE6" id="stop5368"/>
      <stop offset="1" stop-color="#E8E9F5" id="stop5370"/>
    </linearGradient>
    <linearGradient id="paint3_linear" x1="-1.712" y1="14.706" x2="85.748" y2="102.166" gradientUnits="userSpaceOnUse" gradientTransform="translate(370.561 -12.006) scale(1.00052)">
      <stop stop-color="#868AC1" id="stop5373"/>
      <stop offset="1" stop-color="#28293D" id="stop5375"/>
    </linearGradient>
    <linearGradient id="paint4_linear" x1="-4.999" y1="2.076" x2="-3.809" y2="26.708" gradientUnits="userSpaceOnUse" gradientTransform="translate(20.265 440.77) scale(1.00052)">
      <stop stop-color="#868AC1" id="stop5378"/>
      <stop offset="1" stop-color="#28293D" id="stop5380"/>
    </linearGradient>
    <linearGradient id="paint5_linear" x1="-4.999" y1="2.076" x2="-3.809" y2="26.708" gradientUnits="userSpaceOnUse" gradientTransform="translate(22.719 416.743) scale(1.00052)">
      <stop stop-color="#868AC1" id="stop5383"/>
      <stop offset="1" stop-color="#28293D" id="stop5385"/>
    </linearGradient>
    <linearGradient id="paint6_linear" x1="496.544" y1="-1.579" x2="600.406" y2="116.851" gradientUnits="userSpaceOnUse" gradientTransform="translate(-51.406 -32.734)">
      <stop stop-color="#57EBA1" id="stop5388"/>
      <stop offset="1" stop-color="#F0FFF8" id="stop5390"/>
    </linearGradient>
    <linearGradient id="paint7_linear" x1="535.49" y1="68.892" x2="582.927" y2="151.056" gradientUnits="userSpaceOnUse" gradientTransform="translate(-51.406 -32.734)">
      <stop stop-color="#57EBA1" id="stop5393"/>
      <stop offset="1" stop-color="#57EBA1" stop-opacity=".45" id="stop5395"/>
    </linearGradient>
    <linearGradient id="paint8_linear" x1="549.863" y1="126.691" x2="577.172" y2="173.733" gradientUnits="userSpaceOnUse" gradientTransform="translate(-51.406 -32.734)">
      <stop stop-color="#DEFFEF" id="stop5398"/>
      <stop offset="1" stop-color="#1EFF93" id="stop5400"/>
    </linearGradient>
    <linearGradient id="paint9_linear" x1="553.744" y1="133.763" x2="578.769" y2="177.109" gradientUnits="userSpaceOnUse" gradientTransform="translate(-51.406 -32.734)">
      <stop stop-color="#39D98A" id="stop5403"/>
      <stop offset="1" stop-color="#47FFA4" stop-opacity=".42" id="stop5405"/>
    </linearGradient>
    <linearGradient id="paint10_linear" x1="-.365" y1="12.516" x2="83.345" y2="23.371" gradientUnits="userSpaceOnUse">
      <stop stop-color="#E4E4EB" id="stop5408"/>
      <stop offset="1" stop-color="#EDF0F4" id="stop5410"/>
    </linearGradient>
    <linearGradient id="paint11_linear" x1="411.4" y1="515.293" x2="437.003" y2="572.857" gradientUnits="userSpaceOnUse">
      <stop stop-color="#E4E4EB" id="stop5413"/>
      <stop offset="1" stop-color="#EDF0F4" id="stop5415"/>
    </linearGradient>
    <linearGradient id="paint12_linear" x1="198.4" y1="483.293" x2="224.003" y2="540.857" gradientUnits="userSpaceOnUse">
      <stop stop-color="#E4E4EB" id="stop5418"/>
      <stop offset="1" stop-color="#EDF0F4" id="stop5420"/>
    </linearGradient>
    <linearGradient id="paint13_linear" x1="165.4" y1="344.293" x2="191.003" y2="401.857" gradientUnits="userSpaceOnUse">
      <stop stop-color="#E4E4EB" id="stop5423"/>
      <stop offset="1" stop-color="#EDF0F4" id="stop5425"/>
    </linearGradient>
    <linearGradient id="paint14_linear" x1="175.62" y1="288" x2="175.62" y2="358.065" gradientUnits="userSpaceOnUse">
      <stop stop-color="#39D98A" id="stop5428"/>
      <stop offset="1" stop-color="#47FFA4" stop-opacity=".42" id="stop5430"/>
    </linearGradient>
    <linearGradient id="paint15_linear" x1="195.508" y1="336.113" x2="213.134" y2="361.362" gradientUnits="userSpaceOnUse">
      <stop stop-color="#39D98A" id="stop5433"/>
      <stop offset="1" stop-color="#47FFA4" stop-opacity="0" id="stop5435"/>
    </linearGradient>
    <linearGradient id="paint16_linear" x1="151.681" y1="336.59" x2="135.008" y2="363.267" gradientUnits="userSpaceOnUse">
      <stop stop-color="#39D98A" id="stop5438"/>
      <stop offset="1" stop-color="#47FFA4" stop-opacity="0" id="stop5440"/>
    </linearGradient>
    <linearGradient id="paint17_linear" x1="-.365" y1="12.516" x2="83.345" y2="23.371" gradientUnits="userSpaceOnUse">
      <stop stop-color="#E4E4EB" id="stop5443"/>
      <stop offset="1" stop-color="#EDF0F4" id="stop5445"/>
    </linearGradient>
    <filter id="filter0_dd" x="291.255" y="163.344" width="511.245" height="304.796" filterUnits="userSpaceOnUse" color-interpolation-filters="sRGB">
      <feFlood flood-opacity="0" result="BackgroundImageFix" id="feFlood5120"/>
      <feColorMatrix in="SourceAlpha" type="matrix" values="0 0 0 0 0 0 0 0 0 0 0 0 0 0 0 0 0 0 127 0" id="feColorMatrix5122"/>
      <feOffset dy="2" id="feOffset5124"/>
      <feGaussianBlur stdDeviation="2" id="feGaussianBlur5126"/>
      <feColorMatrix type="matrix" values="0 0 0 0 0.376471 0 0 0 0 0.380392 0 0 0 0 0.439216 0 0 0 0.16 0" id="feColorMatrix5128"/>
      <feBlend mode="normal" in2="BackgroundImageFix" result="effect1_dropShadow" id="feBlend5130"/>
      <feColorMatrix in="SourceAlpha" type="matrix" values="0 0 0 0 0 0 0 0 0 0 0 0 0 0 0 0 0 0 127 0" id="feColorMatrix5132"/>
      <feOffset id="feOffset5134"/>
      <feGaussianBlur stdDeviation=".5" id="feGaussianBlur5136"/>
      <feColorMatrix type="matrix" values="0 0 0 0 0.156863 0 0 0 0 0.160784 0 0 0 0 0.239216 0 0 0 0.04 0" id="feColorMatrix5138"/>
      <feBlend mode="normal" in2="effect1_dropShadow" result="effect2_dropShadow" id="feBlend5140"/>
      <feBlend mode="normal" in="SourceGraphic" in2="effect2_dropShadow" result="shape" id="feBlend5142"/>
    </filter>
    <filter id="filter1_b" x="278.422" y="66.107" width="542.74" height="317.551" filterUnits="userSpaceOnUse" color-interpolation-filters="sRGB">
      <feFlood flood-opacity="0" result="BackgroundImageFix" id="feFlood5145"/>
      <feGaussianBlur in="BackgroundImage" stdDeviation="2.5" id="feGaussianBlur5147"/>
      <feComposite in2="SourceAlpha" operator="in" result="effect1_backgroundBlur" id="feComposite5149"/>
      <feBlend mode="normal" in="SourceGraphic" in2="effect1_backgroundBlur" result="shape" id="feBlend5151"/>
    </filter>
    <filter id="filter2_dd" x="305" y="187" width="156.295" height="96.992" filterUnits="userSpaceOnUse" color-interpolation-filters="sRGB">
      <feFlood flood-opacity="0" result="BackgroundImageFix" id="feFlood5154"/>
      <feColorMatrix in="SourceAlpha" type="matrix" values="0 0 0 0 0 0 0 0 0 0 0 0 0 0 0 0 0 0 127 0" id="feColorMatrix5156"/>
      <feOffset dy="4" id="feOffset5158"/>
      <feGaussianBlur stdDeviation="4" id="feGaussianBlur5160"/>
      <feColorMatrix type="matrix" values="0 0 0 0 0.376471 0 0 0 0 0.380392 0 0 0 0 0.439216 0 0 0 0.16 0" id="feColorMatrix5162"/>
      <feBlend mode="normal" in2="BackgroundImageFix" result="effect1_dropShadow" id="feBlend5164"/>
      <feColorMatrix in="SourceAlpha" type="matrix" values="0 0 0 0 0 0 0 0 0 0 0 0 0 0 0 0 0 0 127 0" id="feColorMatrix5166"/>
      <feOffset id="feOffset5168"/>
      <feGaussianBlur stdDeviation="1" id="feGaussianBlur5170"/>
      <feColorMatrix type="matrix" values="0 0 0 0 0.156863 0 0 0 0 0.160784 0 0 0 0 0.239216 0 0 0 0.04 0" id="feColorMatrix5172"/>
      <feBlend mode="normal" in2="effect1_dropShadow" result="effect2_dropShadow" id="feBlend5174"/>
      <feBlend mode="normal" in="SourceGraphic" in2="effect2_dropShadow" result="shape" id="feBlend5176"/>
    </filter>
    <filter id="filter3_dd" x="353.941" y="495.272" width="135.337" height="88.567" filterUnits="userSpaceOnUse" color-interpolation-filters="sRGB">
      <feFlood flood-opacity="0" result="BackgroundImageFix" id="feFlood5179"/>
      <feColorMatrix in="SourceAlpha" type="matrix" values="0 0 0 0 0 0 0 0 0 0 0 0 0 0 0 0 0 0 127 0" id="feColorMatrix5181"/>
      <feOffset dy="2" id="feOffset5183"/>
      <feGaussianBlur stdDeviation="2" id="feGaussianBlur5185"/>
      <feColorMatrix type="matrix" values="0 0 0 0 0.376471 0 0 0 0 0.380392 0 0 0 0 0.439216 0 0 0 0.16 0" id="feColorMatrix5187"/>
      <feBlend mode="normal" in2="BackgroundImageFix" result="effect1_dropShadow" id="feBlend5189"/>
      <feColorMatrix in="SourceAlpha" type="matrix" values="0 0 0 0 0 0 0 0 0 0 0 0 0 0 0 0 0 0 127 0" id="feColorMatrix5191"/>
      <feOffset id="feOffset5193"/>
      <feGaussianBlur stdDeviation=".5" id="feGaussianBlur5195"/>
      <feColorMatrix type="matrix" values="0 0 0 0 0.156863 0 0 0 0 0.160784 0 0 0 0 0.239216 0 0 0 0.04 0" id="feColorMatrix5197"/>
      <feBlend mode="normal" in2="effect1_dropShadow" result="effect2_dropShadow" id="feBlend5199"/>
      <feBlend mode="normal" in="SourceGraphic" in2="effect2_dropShadow" result="shape" id="feBlend5201"/>
    </filter>
    <filter id="filter4_dd" x="140.941" y="463.272" width="135.337" height="88.567" filterUnits="userSpaceOnUse" color-interpolation-filters="sRGB">
      <feFlood flood-opacity="0" result="BackgroundImageFix" id="feFlood5204"/>
      <feColorMatrix in="SourceAlpha" type="matrix" values="0 0 0 0 0 0 0 0 0 0 0 0 0 0 0 0 0 0 127 0" id="feColorMatrix5206"/>
      <feOffset dy="2" id="feOffset5208"/>
      <feGaussianBlur stdDeviation="2" id="feGaussianBlur5210"/>
      <feColorMatrix type="matrix" values="0 0 0 0 0.376471 0 0 0 0 0.380392 0 0 0 0 0.439216 0 0 0 0.16 0" id="feColorMatrix5212"/>
      <feBlend mode="normal" in2="BackgroundImageFix" result="effect1_dropShadow" id="feBlend5214"/>
      <feColorMatrix in="SourceAlpha" type="matrix" values="0 0 0 0 0 0 0 0 0 0 0 0 0 0 0 0 0 0 127 0" id="feColorMatrix5216"/>
      <feOffset id="feOffset5218"/>
      <feGaussianBlur stdDeviation=".5" id="feGaussianBlur5220"/>
      <feColorMatrix type="matrix" values="0 0 0 0 0.156863 0 0 0 0 0.160784 0 0 0 0 0.239216 0 0 0 0.04 0" id="feColorMatrix5222"/>
      <feBlend mode="normal" in2="effect1_dropShadow" result="effect2_dropShadow" id="feBlend5224"/>
      <feBlend mode="normal" in="SourceGraphic" in2="effect2_dropShadow" result="shape" id="feBlend5226"/>
    </filter>
    <filter id="filter5_dd" x="107.941" y="324.272" width="135.337" height="88.567" filterUnits="userSpaceOnUse" color-interpolation-filters="sRGB">
      <feFlood flood-opacity="0" result="BackgroundImageFix" id="feFlood5229"/>
      <feColorMatrix in="SourceAlpha" type="matrix" values="0 0 0 0 0 0 0 0 0 0 0 0 0 0 0 0 0 0 127 0" id="feColorMatrix5231"/>
      <feOffset dy="2" id="feOffset5233"/>
      <feGaussianBlur stdDeviation="2" id="feGaussianBlur5235"/>
      <feColorMatrix type="matrix" values="0 0 0 0 0.376471 0 0 0 0 0.380392 0 0 0 0 0.439216 0 0 0 0.16 0" id="feColorMatrix5237"/>
      <feBlend mode="normal" in2="BackgroundImageFix" result="effect1_dropShadow" id="feBlend5239"/>
      <feColorMatrix in="SourceAlpha" type="matrix" values="0 0 0 0 0 0 0 0 0 0 0 0 0 0 0 0 0 0 127 0" id="feColorMatrix5241"/>
      <feOffset id="feOffset5243"/>
      <feGaussianBlur stdDeviation=".5" id="feGaussianBlur5245"/>
      <feColorMatrix type="matrix" values="0 0 0 0 0.156863 0 0 0 0 0.160784 0 0 0 0 0.239216 0 0 0 0.04 0" id="feColorMatrix5247"/>
      <feBlend mode="normal" in2="effect1_dropShadow" result="effect2_dropShadow" id="feBlend5249"/>
      <feBlend mode="normal" in="SourceGraphic" in2="effect2_dropShadow" result="shape" id="feBlend5251"/>
    </filter>
    <filter id="filter6_dd" x="97" y="275" width="148.295" height="89.458" filterUnits="userSpaceOnUse" color-interpolation-filters="sRGB">
      <feFlood flood-opacity="0" result="BackgroundImageFix" id="feFlood5254"/>
      <feColorMatrix in="SourceAlpha" type="matrix" values="0 0 0 0 0 0 0 0 0 0 0 0 0 0 0 0 0 0 127 0" id="feColorMatrix5256"/>
      <feOffset dy="2" id="feOffset5258"/>
      <feGaussianBlur stdDeviation="2" id="feGaussianBlur5260"/>
      <feColorMatrix type="matrix" values="0 0 0 0 0.376471 0 0 0 0 0.380392 0 0 0 0 0.439216 0 0 0 0.16 0" id="feColorMatrix5262"/>
      <feBlend mode="normal" in2="BackgroundImageFix" result="effect1_dropShadow" id="feBlend5264"/>
      <feColorMatrix in="SourceAlpha" type="matrix" values="0 0 0 0 0 0 0 0 0 0 0 0 0 0 0 0 0 0 127 0" id="feColorMatrix5266"/>
      <feOffset id="feOffset5268"/>
      <feGaussianBlur stdDeviation=".5" id="feGaussianBlur5270"/>
      <feColorMatrix type="matrix" values="0 0 0 0 0.156863 0 0 0 0 0.160784 0 0 0 0 0.239216 0 0 0 0.04 0" id="feColorMatrix5272"/>
      <feBlend mode="normal" in2="effect1_dropShadow" result="effect2_dropShadow" id="feBlend5274"/>
      <feBlend mode="normal" in="SourceGraphic" in2="effect2_dropShadow" result="shape" id="feBlend5276"/>
    </filter>
    <filter id="filter7_dd" x="364.059" y="198.343" width="251.214" height="151.789" filterUnits="userSpaceOnUse" color-interpolation-filters="sRGB">
      <feFlood flood-opacity="0" result="BackgroundImageFix" id="feFlood5279"/>
      <feColorMatrix in="SourceAlpha" type="matrix" values="0 0 0 0 0 0 0 0 0 0 0 0 0 0 0 0 0 0 127 0" id="feColorMatrix5281"/>
      <feOffset dy="4" id="feOffset5283"/>
      <feGaussianBlur stdDeviation="4" id="feGaussianBlur5285"/>
      <feColorMatrix type="matrix" values="0 0 0 0 0.376471 0 0 0 0 0.380392 0 0 0 0 0.439216 0 0 0 0.16 0" id="feColorMatrix5287"/>
      <feBlend mode="normal" in2="BackgroundImageFix" result="effect1_dropShadow" id="feBlend5289"/>
      <feColorMatrix in="SourceAlpha" type="matrix" values="0 0 0 0 0 0 0 0 0 0 0 0 0 0 0 0 0 0 127 0" id="feColorMatrix5291"/>
      <feOffset id="feOffset5293"/>
      <feGaussianBlur stdDeviation="1" id="feGaussianBlur5295"/>
      <feColorMatrix type="matrix" values="0 0 0 0 0.156863 0 0 0 0 0.160784 0 0 0 0 0.239216 0 0 0 0.04 0" id="feColorMatrix5297"/>
      <feBlend mode="normal" in2="effect1_dropShadow" result="effect2_dropShadow" id="feBlend5299"/>
      <feBlend mode="normal" in="SourceGraphic" in2="effect2_dropShadow" result="shape" id="feBlend5301"/>
    </filter>
    <filter id="filter8_dd" x="465.061" y="238.844" width="204.639" height="119.829" filterUnits="userSpaceOnUse" color-interpolation-filters="sRGB">
      <feFlood flood-opacity="0" result="BackgroundImageFix" id="feFlood5304"/>
      <feColorMatrix in="SourceAlpha" type="matrix" values="0 0 0 0 0 0 0 0 0 0 0 0 0 0 0 0 0 0 127 0" id="feColorMatrix5306"/>
      <feOffset dy=".5" id="feOffset5308"/>
      <feGaussianBlur stdDeviation="1" id="feGaussianBlur5310"/>
      <feColorMatrix type="matrix" values="0 0 0 0 0.376471 0 0 0 0 0.380392 0 0 0 0 0.439216 0 0 0 0.16 0" id="feColorMatrix5312"/>
      <feBlend mode="normal" in2="BackgroundImageFix" result="effect1_dropShadow" id="feBlend5314"/>
      <feColorMatrix in="SourceAlpha" type="matrix" values="0 0 0 0 0 0 0 0 0 0 0 0 0 0 0 0 0 0 127 0" id="feColorMatrix5316"/>
      <feOffset id="feOffset5318"/>
      <feGaussianBlur stdDeviation=".5" id="feGaussianBlur5320"/>
      <feColorMatrix type="matrix" values="0 0 0 0 0.156863 0 0 0 0 0.160784 0 0 0 0 0.239216 0 0 0 0.08 0" id="feColorMatrix5322"/>
      <feBlend mode="normal" in2="effect1_dropShadow" result="effect2_dropShadow" id="feBlend5324"/>
      <feBlend mode="normal" in="SourceGraphic" in2="effect2_dropShadow" result="shape" id="feBlend5326"/>
    </filter>
    <filter id="filter9_dd" x="593.059" y="119.343" width="201.359" height="119.626" filterUnits="userSpaceOnUse" color-interpolation-filters="sRGB">
      <feFlood flood-opacity="0" result="BackgroundImageFix" id="feFlood5329"/>
      <feColorMatrix in="SourceAlpha" type="matrix" values="0 0 0 0 0 0 0 0 0 0 0 0 0 0 0 0 0 0 127 0" id="feColorMatrix5331"/>
      <feOffset dy="2" id="feOffset5333"/>
      <feGaussianBlur stdDeviation="2" id="feGaussianBlur5335"/>
      <feColorMatrix type="matrix" values="0 0 0 0 0.376471 0 0 0 0 0.380392 0 0 0 0 0.439216 0 0 0 0.16 0" id="feColorMatrix5337"/>
      <feBlend mode="normal" in2="BackgroundImageFix" result="effect1_dropShadow" id="feBlend5339"/>
      <feColorMatrix in="SourceAlpha" type="matrix" values="0 0 0 0 0 0 0 0 0 0 0 0 0 0 0 0 0 0 127 0" id="feColorMatrix5341"/>
      <feOffset id="feOffset5343"/>
      <feGaussianBlur stdDeviation=".5" id="feGaussianBlur5345"/>
      <feColorMatrix type="matrix" values="0 0 0 0 0.156863 0 0 0 0 0.160784 0 0 0 0 0.239216 0 0 0 0.04 0" id="feColorMatrix5347"/>
      <feBlend mode="normal" in2="effect1_dropShadow" result="effect2_dropShadow" id="feBlend5349"/>
      <feBlend mode="normal" in="SourceGraphic" in2="effect2_dropShadow" result="shape" id="feBlend5351"/>
    </filter>
    <clipPath id="clip0">
      <path transform="matrix(.8594 -.5113 0 1 221 286.452)" id="rect5448" fill="#fff" d="M0 0h40v40H0z"/>
    </clipPath>
    <clipPath id="clip1">
      <path transform="scale(1.22477 .70706) rotate(-45 695.945 -176.75)" id="rect5451" fill="#fff" d="M0 0h14.697v14.697H0z"/>
    </clipPath>
    <clipPath id="clip2">
      <path transform="matrix(.8665 -.50023 .8665 .50023 501 328.136)" id="rect5454" fill="#fff" d="M0 0h14.985v14.985H0z"/>
    </clipPath>
    <clipPath id="clip3">
      <path transform="scale(1.22477 .70706) rotate(-45 523.788 -543.638)" id="rect5457" fill="#fff" d="M0 0h10.183v10.183H0z"/>
    </clipPath>
  </defs>
</svg>
