<svg width="914" height="584" viewBox="0 0 914 584" fill="none" xmlns="http://www.w3.org/2000/svg">
<mask id="mask0" mask-type="alpha" maskUnits="userSpaceOnUse" x="218" y="387" width="187" height="146">
<rect x="405" y="533" width="187" height="146" rx="20" transform="rotate(-180 405 533)" fill="#C4C4C4"/>
</mask>
<g mask="url(#mask0)">
<path fill-rule="evenodd" clip-rule="evenodd" d="M-46 653.853L403.447 393L756 596.148L306.339 857L-46 653.853Z" stroke="#C7C9D9" stroke-width="2" stroke-linecap="round" stroke-linejoin="round" stroke-dasharray="1 4"/>
</g>
<mask id="mask1" mask-type="alpha" maskUnits="userSpaceOnUse" x="294" y="381" width="167" height="172">
<rect x="461" y="553" width="167" height="172" rx="20" transform="rotate(-180 461 553)" fill="#C4C4C4"/>
</mask>
<g mask="url(#mask1)">
<path fill-rule="evenodd" clip-rule="evenodd" d="M1106 413.147L656.553 674L304 470.853L753.661 210L1106 413.147Z" stroke="#C7C9D9" stroke-width="2" stroke-linecap="round" stroke-linejoin="round" stroke-dasharray="1 4"/>
</g>
<mask id="mask2" mask-type="alpha" maskUnits="userSpaceOnUse" x="144" y="332" width="271" height="115">
<rect x="144" y="332" width="271" height="115" rx="20" fill="#C4C4C4"/>
</mask>
<g mask="url(#mask2)">
<path fill-rule="evenodd" clip-rule="evenodd" d="M745 178.147L295.553 439L-57 235.853L392.661 -25L745 178.147Z" stroke="url(#paint0_linear)" stroke-width="4" stroke-linejoin="round"/>
<path fill-rule="evenodd" clip-rule="evenodd" d="M745.189 178.221L295.742 439.073L-56.8113 235.926L392.85 -24.9268L745.189 178.221Z" stroke="#57EBA1" stroke-width="2" stroke-linecap="round" stroke-linejoin="round" stroke-dasharray="1 4"/>
</g>
<g filter="url(#filter0_dd)">
<path fill-rule="evenodd" clip-rule="evenodd" d="M298.353 342.656C296.526 341.595 295.5 340.16 295.5 338.664L295.5 331.343L798.5 288V292.932C798.5 294.423 797.481 295.854 795.665 296.913L515.291 460.462C511.461 462.695 505.212 462.7 501.373 460.472L298.353 342.656Z" fill="url(#paint1_linear)"/>
<mask id="mask3" mask-type="alpha" maskUnits="userSpaceOnUse" x="295" y="165" width="504" height="291">
<path fill-rule="evenodd" clip-rule="evenodd" d="M298.127 336.758C294.298 334.548 294.298 330.964 298.127 328.754L578.315 167.001C582.143 164.791 588.35 164.791 592.179 167.001L795.461 284.356C799.289 286.566 799.289 290.15 795.461 292.36L515.273 454.112C511.444 456.323 505.237 456.323 501.409 454.112L298.127 336.758Z" fill="white"/>
</mask>
<g mask="url(#mask3)">
<path fill-rule="evenodd" clip-rule="evenodd" d="M298.127 336.758C294.298 334.548 294.298 330.964 298.127 328.754L578.315 167.001C582.143 164.791 588.35 164.791 592.179 167.001L795.461 284.356C799.289 286.566 799.289 290.15 795.461 292.36L515.273 454.112C511.444 456.323 505.237 456.323 501.409 454.112L298.127 336.758Z" fill="#28293D"/>
</g>
<rect width="67.7325" height="4.89633" rx="1.5" transform="matrix(0.866495 -0.500227 0.866495 0.500227 406 384.907)" fill="#555770"/>
<rect width="70.9968" height="4.89633" rx="1.5" transform="matrix(0.866495 -0.500227 0.866495 0.500227 422.971 394.704)" fill="#555770"/>
<rect width="30.194" height="4.89633" rx="1.5" transform="matrix(0.866494 -0.500228 0.866494 0.500228 514.188 332.247)" fill="#555770"/>
<rect width="40.8027" height="4.89633" rx="1.5" transform="matrix(0.866495 -0.500227 0.866495 0.500227 414.485 389.806)" fill="#555770"/>
<rect width="61.2041" height="4.89633" rx="1.5" transform="matrix(0.866495 -0.500227 0.866495 0.500227 455.498 366.13)" fill="#555770"/>
<rect width="40.8027" height="4.89633" rx="1.5" transform="matrix(0.866495 -0.500227 0.866495 0.500227 470.347 347.76)" fill="#555770"/>
<rect width="48.1472" height="4.89633" rx="1.5" transform="matrix(0.866494 -0.500228 0.866494 0.500228 511.359 324.084)" fill="#555770"/>
<rect width="67.7325" height="4.89633" rx="1.5" transform="matrix(0.866495 -0.500228 0.866495 0.500228 431.456 399.603)" fill="#555770"/>
<rect width="70.9967" height="4.89633" rx="1.5" transform="matrix(0.866494 -0.500228 0.866494 0.500228 448.427 409.4)" fill="#555770"/>
<rect width="10.6087" height="4.89632" rx="1.5" transform="matrix(0.866494 -0.500228 0.866494 0.500228 539.643 346.944)" fill="#555770"/>
<rect width="40.8027" height="4.89633" rx="1.5" transform="matrix(0.866494 -0.500228 0.866494 0.500228 439.941 404.501)" fill="#555770"/>
<rect width="61.2041" height="4.89633" rx="1.5" transform="matrix(0.866494 -0.500228 0.866494 0.500228 480.953 380.825)" fill="#555770"/>
<rect width="14.689" height="4.89633" rx="1.5" transform="matrix(0.866495 -0.500228 0.866495 0.500228 495.803 362.455)" fill="#555770"/>
<rect width="8.16055" height="4.89633" rx="1.5" transform="matrix(0.866495 -0.500227 0.866495 0.500227 514.188 351.842)" fill="#555770"/>
<rect width="40.8027" height="4.89632" rx="1.5" transform="matrix(0.866495 -0.500227 0.866495 0.500227 456.912 414.299)" fill="#555770"/>
<rect width="25.2977" height="4.89633" rx="1.5" transform="matrix(0.866494 -0.500228 0.866494 0.500228 473.882 424.096)" fill="#555770"/>
<rect width="13.8729" height="4.89633" rx="1.5" transform="matrix(0.866493 -0.500228 0.866493 0.500228 501.46 408.176)" fill="#555770"/>
<rect width="37.5385" height="4.89633" rx="1.5" transform="matrix(0.866494 -0.500228 0.866494 0.500228 506.409 395.521)" fill="#555770"/>
<rect width="13.0569" height="4.89632" rx="1.5" transform="matrix(0.866494 -0.500228 0.866494 0.500228 465.397 419.198)" fill="#555770"/>
<rect width="21.2174" height="4.89633" rx="1.5" transform="matrix(0.866494 -0.500228 0.866494 0.500228 482.368 409.4)" fill="#555770"/>
<rect width="14.689" height="4.89633" rx="1.5" transform="matrix(0.866495 -0.500228 0.866495 0.500228 497.924 390.622)" fill="#555770"/>
<rect width="33.4582" height="4.89633" rx="1.5" transform="matrix(0.866494 -0.500228 0.866494 0.500228 516.309 380.009)" fill="#555770"/>
<rect width="67.7325" height="4.89633" rx="1.5" transform="matrix(0.866495 -0.500227 0.866495 0.500227 330 340.908)" fill="#555770"/>
<rect width="70.9968" height="4.89633" rx="1.5" transform="matrix(0.866495 -0.500228 0.866495 0.500228 346.971 350.705)" fill="#555770"/>
<rect width="30.194" height="4.89633" rx="1.5" transform="matrix(0.866495 -0.500228 0.866495 0.500228 438.188 288.248)" fill="#555770"/>
<rect width="40.8027" height="4.89633" rx="1.5" transform="matrix(0.866495 -0.500228 0.866495 0.500228 338.486 345.806)" fill="#555770"/>
<rect width="61.2041" height="4.89633" rx="1.5" transform="matrix(0.866495 -0.500228 0.866495 0.500228 379.498 322.131)" fill="#555770"/>
<rect width="40.8027" height="4.89633" rx="1.5" transform="matrix(0.866495 -0.500228 0.866495 0.500228 394.347 303.76)" fill="#555770"/>
<rect width="48.1472" height="4.89633" rx="1.5" transform="matrix(0.866495 -0.500228 0.866495 0.500228 435.359 280.085)" fill="#555770"/>
<rect width="67.7325" height="4.89633" rx="1.5" transform="matrix(0.866495 -0.500228 0.866495 0.500228 355.456 355.603)" fill="#555770"/>
<rect width="70.9967" height="4.89633" rx="1.5" transform="matrix(0.866494 -0.500228 0.866494 0.500228 372.427 365.4)" fill="#555770"/>
<rect width="10.6087" height="4.89633" rx="1.5" transform="matrix(0.866495 -0.500227 0.866495 0.500227 463.644 302.944)" fill="#555770"/>
<rect width="40.8027" height="4.89633" rx="1.5" transform="matrix(0.866494 -0.500228 0.866494 0.500228 363.942 360.502)" fill="#555770"/>
<rect width="61.2041" height="4.89633" rx="1.5" transform="matrix(0.866494 -0.500228 0.866494 0.500228 404.954 336.826)" fill="#555770"/>
<rect width="14.689" height="4.89633" rx="1.5" transform="matrix(0.866494 -0.500228 0.866494 0.500228 419.803 318.456)" fill="#555770"/>
<rect width="8.16054" height="4.89632" rx="1.5" transform="matrix(0.866494 -0.500228 0.866494 0.500228 438.188 307.843)" fill="#555770"/>
<rect width="40.8027" height="4.89632" rx="1.5" transform="matrix(0.866495 -0.500227 0.866495 0.500227 380.912 370.3)" fill="#555770"/>
<rect width="25.2977" height="4.89633" rx="1.5" transform="matrix(0.866494 -0.500228 0.866494 0.500228 397.883 380.096)" fill="#555770"/>
<rect width="13.8729" height="4.89633" rx="1.5" transform="matrix(0.866493 -0.500229 0.866493 0.500229 425.46 364.177)" fill="#555770"/>
<rect width="37.5385" height="4.89633" rx="1.5" transform="matrix(0.866494 -0.500228 0.866494 0.500228 430.41 351.521)" fill="#555770"/>
<rect width="13.0569" height="4.89632" rx="1.5" transform="matrix(0.866494 -0.500228 0.866494 0.500228 389.397 375.198)" fill="#555770"/>
<rect width="21.2174" height="4.89633" rx="1.5" transform="matrix(0.866494 -0.500228 0.866494 0.500228 406.368 365.4)" fill="#555770"/>
<rect width="14.689" height="4.89633" rx="1.5" transform="matrix(0.866494 -0.500228 0.866494 0.500228 421.924 346.623)" fill="#555770"/>
<rect width="33.4582" height="4.89633" rx="1.5" transform="matrix(0.866494 -0.500228 0.866494 0.500228 440.309 336.01)" fill="#555770"/>
<path fill-rule="evenodd" clip-rule="evenodd" d="M319.546 332.012C321.303 330.997 321.303 329.353 319.546 328.338C317.788 327.324 314.939 327.324 313.182 328.338C311.424 329.353 311.424 330.997 313.182 332.012C314.939 333.027 317.788 333.027 319.546 332.012Z" fill="#FF5C5C"/>
<path fill-rule="evenodd" clip-rule="evenodd" d="M330.153 325.889C331.91 324.874 331.91 323.229 330.153 322.215C328.395 321.2 325.546 321.2 323.789 322.215C322.031 323.229 322.031 324.874 323.789 325.889C325.546 326.903 328.395 326.903 330.153 325.889Z" fill="#FDDD48"/>
<path fill-rule="evenodd" clip-rule="evenodd" d="M340.76 319.766C342.517 318.751 342.517 317.106 340.76 316.092C339.002 315.077 336.153 315.077 334.396 316.092C332.638 317.106 332.638 318.751 334.396 319.766C336.153 320.78 339.002 320.78 340.76 319.766Z" fill="#39D98A"/>
</g>
<path fill-rule="evenodd" clip-rule="evenodd" d="M286.082 259.575C284.249 258.514 283.22 257.077 283.22 255.578L283.22 248L816 201.5L816 207.998C816 209.499 814.967 210.938 813.129 212L515.083 384.094C511.252 386.307 505.037 386.305 501.21 384.09L286.082 259.575Z" fill="url(#paint2_linear)"/>
<mask id="mask4" mask-type="alpha" maskUnits="userSpaceOnUse" x="283" y="71" width="534" height="308">
<path fill-rule="evenodd" clip-rule="evenodd" d="M286.293 252.371C282.464 250.161 282.464 246.577 286.293 244.367L583.544 72.7642C587.372 70.5541 593.579 70.5541 597.408 72.7642L813.29 197.393C817.118 199.603 817.118 203.187 813.29 205.397L516.039 377C512.211 379.21 506.004 379.21 502.175 377L286.293 252.371Z" fill="white"/>
</mask>
<g mask="url(#mask4)">
<g filter="url(#filter1_b)">
<path fill-rule="evenodd" clip-rule="evenodd" d="M286.293 252.371C282.464 250.161 282.464 246.577 286.293 244.367L583.544 72.7642C587.372 70.5541 593.579 70.5541 597.408 72.7642L813.29 197.393C817.118 199.603 817.118 203.187 813.29 205.397L516.039 377C512.211 379.21 506.004 379.21 502.175 377L286.293 252.371Z" fill="white"/>
</g>
</g>
<rect width="24.8128" height="9.37371" rx="4.68686" transform="matrix(0.866495 -0.500227 0.866495 0.500227 411 190.962)" fill="#E4E4EB"/>
<rect width="11.5793" height="9.37371" rx="4.68686" transform="matrix(0.866495 -0.500227 0.866495 0.500227 437.277 175.792)" fill="#E4E4EB"/>
<rect width="77.1784" height="77.1784" rx="18" transform="matrix(0.866495 0.500228 -0.866495 0.500228 382.726 212)" fill="url(#paint3_linear)"/>
<rect width="116.905" height="112.895" rx="8" transform="matrix(0.866495 0.500228 -0.866495 0.500228 690.823 142)" fill="#F2F2F5"/>
<rect width="225.364" height="10.8937" rx="4" transform="matrix(0.866495 -0.500228 0.866495 0.500228 450.683 242.973)" fill="url(#paint4_linear)"/>
<rect width="225.364" height="10.8937" rx="4" transform="matrix(0.866495 -0.500227 0.866495 0.500227 432 229.733)" fill="url(#paint5_linear)"/>
<path d="M437 190.446C437 189.299 437.844 187.893 438.782 187.725C444.92 186.626 450.375 195.653 461.412 188.721C473.503 181.127 487.485 140.555 503.994 131.023C520.503 121.492 526.131 141.128 543.027 131.373C559.922 121.618 565.47 48.0051 586.961 35.5974C608.452 23.1898 603.526 55.5025 614.39 49.23C625.255 42.9574 626.748 49.1133 626.748 49.1133V117.166C626.748 119.933 624.809 123.296 622.417 124.674L442.19 228.572C439.323 230.225 437 228.88 437 225.563C437 215.893 437 197.259 437 190.446Z" fill="url(#paint6_linear)"/>
<path d="M440.615 191.937C440.615 190.789 441.46 189.384 442.397 189.216C448.536 188.117 453.99 197.144 465.028 190.212C477.118 182.618 491.1 142.045 507.609 132.514C524.119 122.982 529.747 142.618 546.642 132.863C563.538 123.109 569.086 49.4956 590.576 37.0879C612.067 24.6803 607.141 56.993 618.006 50.7204C628.87 44.4478 630.364 50.6037 630.364 50.6037V118.656C630.364 121.424 628.424 124.786 626.033 126.165L445.805 230.063C442.938 231.716 440.615 230.371 440.615 227.054C440.615 217.384 440.615 198.75 440.615 191.937Z" fill="url(#paint7_linear)"/>
<path d="M455.14 224.221C455.138 223.14 455.888 221.799 456.82 221.35C466.42 216.722 468.982 227.02 478.021 221.225C487.566 215.106 499.862 183.682 519.794 172.174C539.726 160.666 544.785 169.3 562.054 159.33C579.323 149.359 587.929 113.375 600.838 105.922C613.747 98.469 614.34 106.582 623.486 101.302C632.016 96.3766 635.512 83.9067 643.161 78.0826C644.105 77.3636 644.886 77.8269 644.886 78.9332V128.715C644.886 132.034 642.561 136.067 639.693 137.723L460.335 241.276C457.556 242.88 455.289 241.659 455.241 238.472C455.193 235.3 455.147 230.661 455.14 224.221Z" fill="url(#paint8_linear)"/>
<path d="M458.871 226.279C458.87 225.198 459.619 223.857 460.551 223.408C470.152 218.78 472.713 229.078 481.752 223.283C491.298 217.164 503.593 185.739 523.525 174.232C543.457 162.724 548.516 171.358 565.785 161.387C583.054 151.417 591.66 115.433 604.569 107.98C617.478 100.527 618.071 108.64 627.217 103.359C635.748 98.4345 639.243 85.9646 646.892 80.1405C647.836 79.4215 648.617 79.8848 648.617 80.9911V132.776C648.617 134.989 647.067 137.678 645.155 138.782L464.066 243.333C461.287 244.938 459.02 243.717 458.972 240.53C458.924 237.358 458.879 232.719 458.871 226.279Z" fill="url(#paint9_linear)"/>
<g filter="url(#filter2_dd)">
<rect width="80.1839" height="80.1839" rx="18" transform="matrix(0.866044 0.499967 -0.866044 0.499967 383.397 193.551)" fill="url(#paint10_linear)"/>
<rect width="80.1839" height="80.1839" rx="18" transform="matrix(0.866044 0.499967 -0.866044 0.499967 383.397 191)" fill="white"/>
<path d="M360.498 217.575C360.082 217.8 360.081 218.18 360.485 218.413L370.366 224.117C370.766 224.348 371.41 224.349 371.838 224.136C378.638 220.744 388.928 220.912 395.387 224.641C401.846 228.37 402.138 234.31 396.262 238.236C395.893 238.483 395.895 238.855 396.294 239.086L405.81 244.579C406.214 244.812 406.871 244.812 407.262 244.572C419.45 237.089 419.205 225.314 406.53 217.997C393.855 210.68 373.46 210.539 360.498 217.575Z" fill="#39D98A"/>
<path d="M375.478 227.068C375.415 227.102 375.354 227.137 375.293 227.172C371.156 229.56 371.156 233.432 375.293 235.82C379.429 238.208 386.136 238.208 390.272 235.82C390.333 235.785 390.393 235.749 390.453 235.713L375.478 227.068Z" fill="#223C37"/>
<path d="M390.453 235.713C394.408 233.318 394.348 229.525 390.272 227.172C386.197 224.82 379.627 224.785 375.478 227.068L390.453 235.713Z" fill="#376C66"/>
</g>
<g filter="url(#filter3_dd)">
<path d="M358.058 534.809L485.161 533.5L485.161 541.151C485.161 544.526 482.838 547.763 478.704 550.15L437.198 574.111C428.589 579.082 414.63 579.082 406.021 574.111L364.515 550.15C360.381 547.763 358.058 544.526 358.058 541.151L358.058 534.809Z" fill="url(#paint11_linear)"/>
<rect width="84.0609" height="84.0609" rx="18" transform="matrix(0.866044 0.499967 -0.866044 0.499967 421.61 492)" fill="white"/>
<path d="M412.534 538.919C412.88 538.72 412.88 538.396 412.534 538.197C412.188 537.997 411.628 537.997 411.282 538.197L405.827 541.346C403.93 540.592 401.309 540.699 399.623 541.672C397.724 542.769 397.724 544.553 399.623 545.65C401.523 546.747 404.614 546.747 406.514 545.65C408.2 544.677 408.384 543.164 407.079 542.069L412.534 538.919ZM405.262 544.927C404.052 545.626 402.085 545.625 400.875 544.927C399.666 544.229 399.666 543.093 400.875 542.395C402.085 541.697 404.053 541.697 405.262 542.395C406.472 543.093 406.471 544.229 405.262 544.927Z" fill="#C7C9D9" stroke="#C7C9D9" stroke-width="0.2"/>
<path d="M399.623 520.484C397.724 521.58 397.724 523.365 399.623 524.462C401.309 525.435 403.93 525.541 405.827 524.788L411.286 527.939C411.632 528.139 412.193 528.139 412.538 527.939C412.884 527.74 412.884 527.416 412.538 527.217L407.079 524.065C408.384 522.97 408.2 521.457 406.514 520.484C404.614 519.387 401.523 519.387 399.623 520.484ZM405.262 523.739C404.053 524.437 402.085 524.437 400.875 523.739C399.666 523.041 399.666 521.905 400.875 521.206C402.085 520.508 404.053 520.508 405.262 521.206C406.471 521.905 406.471 523.041 405.262 523.739Z" fill="#C7C9D9" stroke="#C7C9D9" stroke-width="0.2"/>
<path d="M443.217 541.672C441.531 540.699 438.91 540.592 437.014 541.346L431.554 538.194C431.208 537.995 430.648 537.995 430.302 538.194C429.956 538.394 429.956 538.718 430.302 538.917L435.762 542.069C434.456 543.164 434.641 544.677 436.327 545.65C438.226 546.747 441.317 546.747 443.217 545.65C445.117 544.553 445.117 542.769 443.217 541.672ZM441.965 544.927C440.756 545.626 438.788 545.626 437.578 544.927C436.369 544.229 436.369 543.093 437.578 542.395C438.787 541.697 440.756 541.697 441.965 542.395C443.174 543.093 443.174 544.229 441.965 544.927Z" fill="#C7C9D9" stroke="#C7C9D9" stroke-width="0.2"/>
<path d="M436.327 520.483C434.641 521.457 434.457 522.97 435.762 524.065L430.155 527.302C429.809 527.501 429.809 527.825 430.155 528.024C430.501 528.224 431.061 528.224 431.407 528.024L437.014 524.787C438.911 525.541 441.531 525.435 443.217 524.461C445.117 523.364 445.117 521.58 443.218 520.483C441.318 519.387 438.227 519.387 436.327 520.483ZM441.966 523.739C440.756 524.437 438.788 524.437 437.579 523.739C436.369 523.04 436.37 521.904 437.579 521.206C438.788 520.508 440.757 520.508 441.966 521.206C443.175 521.904 443.175 523.04 441.966 523.739Z" fill="#C7C9D9" stroke="#C7C9D9" stroke-width="0.2"/>
<path d="M430.993 533.911L422.883 538.593C422.077 539.058 420.765 539.058 419.96 538.593L411.849 533.911C411.043 533.446 411.043 532.689 411.849 532.223L419.96 527.541C420.766 527.076 422.077 527.076 422.883 527.541L430.994 532.223C431.799 532.688 431.799 533.446 430.993 533.911ZM412.844 532.798C412.587 532.946 412.587 533.188 412.844 533.336L420.955 538.019C421.212 538.167 421.63 538.167 421.887 538.019L429.998 533.336C430.255 533.188 430.255 532.946 429.998 532.798L421.887 528.116C421.63 527.967 421.212 527.967 420.955 528.116L412.844 532.798Z" fill="#C7C9D9"/>
<path d="M419.515 531.967L417.206 533.3C416.931 533.459 416.485 533.459 416.21 533.3C415.936 533.141 415.936 532.884 416.21 532.725L418.52 531.392C418.795 531.233 419.24 531.233 419.515 531.392C419.79 531.551 419.79 531.808 419.515 531.967Z" fill="#C7C9D9"/>
<path d="M424.228 532.021L419.61 534.687C419.335 534.846 418.889 534.846 418.614 534.687C418.339 534.529 418.339 534.271 418.614 534.113L423.232 531.446C423.507 531.288 423.953 531.288 424.228 531.446C424.503 531.605 424.503 531.862 424.228 532.021Z" fill="#C7C9D9"/>
<path d="M426.632 533.409L422.013 536.075C421.738 536.234 421.293 536.234 421.018 536.075C420.743 535.916 420.743 535.659 421.018 535.5L425.636 532.834C425.911 532.675 426.357 532.675 426.632 532.834C426.907 532.993 426.907 533.25 426.632 533.409Z" fill="#C7C9D9"/>
</g>
<g filter="url(#filter4_dd)">
<path d="M145.058 502.809L272.161 501.5L272.161 509.151C272.161 512.526 269.838 515.763 265.704 518.15L224.198 542.111C215.589 547.082 201.63 547.082 193.021 542.111L151.515 518.15C147.381 515.763 145.058 512.526 145.058 509.151L145.058 502.809Z" fill="url(#paint12_linear)"/>
<rect width="84.0609" height="84.0609" rx="18" transform="matrix(0.866044 0.499967 -0.866044 0.499967 208.61 460)" fill="white"/>
<path d="M200.534 507.919C200.88 507.72 200.88 507.396 200.534 507.197C200.188 506.997 199.628 506.997 199.282 507.197L193.827 510.346C191.93 509.592 189.309 509.699 187.623 510.672C185.723 511.769 185.724 513.553 187.623 514.65C189.523 515.747 192.614 515.747 194.514 514.65C196.2 513.677 196.384 512.164 195.079 511.069L200.534 507.919ZM193.262 513.927C192.052 514.626 190.085 514.625 188.875 513.927C187.666 513.229 187.666 512.093 188.875 511.395C190.085 510.697 192.053 510.697 193.262 511.395C194.472 512.093 194.471 513.229 193.262 513.927Z" fill="#C7C9D9" stroke="#C7C9D9" stroke-width="0.2"/>
<path d="M187.623 489.484C185.724 490.58 185.724 492.365 187.623 493.462C189.309 494.435 191.93 494.541 193.827 493.788L199.286 496.939C199.632 497.139 200.192 497.139 200.538 496.939C200.884 496.74 200.884 496.416 200.538 496.217L195.079 493.065C196.384 491.97 196.2 490.457 194.514 489.484C192.614 488.387 189.523 488.387 187.623 489.484ZM193.262 492.739C192.053 493.437 190.085 493.437 188.875 492.739C187.666 492.041 187.666 490.905 188.875 490.206C190.084 489.508 192.053 489.508 193.262 490.206C194.471 490.905 194.471 492.041 193.262 492.739Z" fill="#C7C9D9" stroke="#C7C9D9" stroke-width="0.2"/>
<path d="M231.217 510.672C229.531 509.699 226.91 509.592 225.014 510.346L219.554 507.194C219.208 506.995 218.648 506.995 218.302 507.194C217.956 507.394 217.956 507.718 218.302 507.917L223.762 511.069C222.456 512.164 222.641 513.677 224.327 514.65C226.226 515.747 229.317 515.747 231.217 514.65C233.117 513.553 233.117 511.769 231.217 510.672ZM229.965 513.927C228.756 514.626 226.788 514.626 225.578 513.927C224.369 513.229 224.369 512.093 225.578 511.395C226.787 510.697 228.756 510.697 229.965 511.395C231.174 512.093 231.174 513.229 229.965 513.927Z" fill="#C7C9D9" stroke="#C7C9D9" stroke-width="0.2"/>
<path d="M224.327 489.483C222.641 490.457 222.457 491.97 223.762 493.065L218.155 496.302C217.809 496.501 217.809 496.825 218.155 497.024C218.501 497.224 219.061 497.224 219.407 497.024L225.014 493.787C226.911 494.541 229.531 494.435 231.217 493.461C233.117 492.364 233.117 490.58 231.218 489.483C229.318 488.387 226.227 488.387 224.327 489.483ZM229.966 492.739C228.756 493.437 226.788 493.437 225.579 492.739C224.369 492.04 224.37 490.904 225.579 490.206C226.788 489.508 228.757 489.508 229.966 490.206C231.175 490.904 231.175 492.04 229.966 492.739Z" fill="#C7C9D9" stroke="#C7C9D9" stroke-width="0.2"/>
<path d="M218.993 502.911L210.883 507.593C210.077 508.058 208.765 508.058 207.96 507.593L199.849 502.911C199.043 502.446 199.043 501.689 199.849 501.223L207.96 496.541C208.766 496.076 210.077 496.076 210.883 496.541L218.994 501.223C219.799 501.688 219.799 502.446 218.993 502.911ZM200.844 501.798C200.587 501.946 200.587 502.188 200.844 502.336L208.955 507.019C209.212 507.167 209.63 507.167 209.887 507.019L217.998 502.336C218.255 502.188 218.255 501.946 217.998 501.798L209.887 497.116C209.63 496.967 209.212 496.967 208.955 497.116L200.844 501.798Z" fill="#C7C9D9"/>
<path d="M207.515 500.967L205.206 502.3C204.931 502.459 204.485 502.459 204.21 502.3C203.935 502.141 203.935 501.884 204.21 501.725L206.52 500.392C206.795 500.233 207.24 500.233 207.515 500.392C207.79 500.551 207.79 500.808 207.515 500.967Z" fill="#C7C9D9"/>
<path d="M212.228 501.021L207.61 503.687C207.335 503.846 206.889 503.846 206.614 503.687C206.339 503.529 206.339 503.271 206.614 503.113L211.232 500.446C211.507 500.288 211.953 500.288 212.228 500.446C212.503 500.605 212.503 500.862 212.228 501.021Z" fill="#C7C9D9"/>
<path d="M214.632 502.409L210.013 505.075C209.738 505.234 209.293 505.234 209.018 505.075C208.743 504.916 208.743 504.659 209.018 504.5L213.636 501.834C213.911 501.675 214.357 501.675 214.632 501.834C214.907 501.993 214.907 502.25 214.632 502.409Z" fill="#C7C9D9"/>
</g>
<circle opacity="0.25" r="100.823" transform="matrix(0.866044 -0.499967 0.866044 0.499967 175.5 376.316)" fill="#E3FFF1" stroke="#57EBA1"/>
<circle opacity="0.5" r="79.0762" transform="matrix(0.866044 -0.499967 0.866044 0.499967 175.099 372.213)" fill="#E3FFF1" stroke="#57EBA1"/>
<circle opacity="0.75" r="56.1587" transform="matrix(0.866044 -0.499967 0.866044 0.499967 175.531 372.213)" fill="#E3FFF1" stroke="#57EBA1"/>
<circle r="35.6619" transform="matrix(0.866044 -0.499967 0.866044 0.499967 175.207 372.213)" fill="#E3FFF1" stroke="#57EBA1"/>
<g filter="url(#filter5_dd)">
<path d="M112.058 363.809L239.161 362.5L239.161 370.151C239.161 373.526 236.838 376.764 232.704 379.15L191.198 403.111C182.589 408.082 168.63 408.082 160.021 403.111L118.515 379.15C114.381 376.763 112.058 373.526 112.058 370.151L112.058 363.809Z" fill="url(#paint13_linear)"/>
<rect width="84.0609" height="84.0609" rx="18" transform="matrix(0.866044 0.499967 -0.866044 0.499967 175.61 321)" fill="white"/>
</g>
<g opacity="0.45">
<path d="M236 322.913L175.739 358.065L115.24 322.913L175.5 288L236 322.913Z" fill="url(#paint14_linear)"/>
<path d="M235.999 322.913V351.457L175.739 386.609L175.739 358.065L235.999 322.913Z" fill="url(#paint15_linear)"/>
<path d="M175.739 358.065V386.609L115 351.457L115.239 322.913L175.739 358.065Z" fill="url(#paint16_linear)"/>
</g>
<g filter="url(#filter6_dd)">
<rect width="80.1839" height="80.1839" rx="18" transform="matrix(0.866044 0.499967 -0.866044 0.499967 175.397 283.551)" fill="url(#paint17_linear)"/>
<rect width="80.1839" height="80.1839" rx="18" transform="matrix(0.866044 0.499967 -0.866044 0.499967 175.397 281)" fill="white"/>
<path d="M185.583 321.818C186.054 321.544 186.744 321.438 187.391 321.54L202.89 323.794C204.28 324.011 204.819 325.052 203.807 325.639L171.01 344.573C169.994 345.162 168.248 344.889 167.873 344.082L163.991 335.083C163.819 334.712 164.001 334.317 164.469 334.046L185.583 321.818Z" fill="#223C37"/>
<path d="M176.683 321.546C176.861 321.919 176.679 322.318 176.205 322.591L164.426 329.391C163.414 329.976 161.687 329.709 161.319 328.911L151.508 307.655C151.139 306.857 152.409 306.127 153.79 306.342L169.643 308.814C170.276 308.912 170.771 309.197 170.946 309.562L176.683 321.546Z" fill="#39D98A"/>
<path d="M202.52 325.622C203.155 325.715 203.537 325.795 203.999 325.528L218.059 317.412C219.087 316.818 218.619 315.821 217.202 315.627L181.062 310.384C179.672 310.194 178.448 310.941 178.855 311.732L184.3 322.558L202.52 325.622Z" fill="#376C66"/>
</g>
<path d="M251.5 287C251.5 296.665 246.5 307 238.5 312.5C234.137 315.096 231 319 224 311.9C221 308.857 220 306.983 220 302.395C220 292.73 226.733 280.889 235.04 275.948C239.105 273.529 242.793 273.211 245.5 274.651C254.5 281 251.5 282.065 251.5 287Z" fill="#57EBA1"/>
<circle r="16" transform="matrix(0.859406 -0.511293 0 1 237.751 295.819)" fill="white"/>
<g clip-path="url(#clip0)">
<path d="M238.188 278.726C229.883 283.667 223.149 295.509 223.149 305.173C223.149 314.837 229.883 318.667 238.188 313.726C246.493 308.785 253.228 296.942 253.228 287.278C253.228 277.614 246.493 273.785 238.188 278.726ZM244.684 286.646L237.614 302.259C237.515 302.478 237.385 302.686 237.234 302.866C237.083 303.046 236.916 303.193 236.746 303.294C236.577 303.395 236.409 303.447 236.258 303.447C236.108 303.446 235.977 303.393 235.878 303.291L231.692 299.032C231.565 298.901 231.692 298.536 231.91 298.406L233.485 297.469C233.827 297.265 234.153 297.263 234.354 297.471L236.745 299.909L242.022 288.253C242.223 287.809 242.546 287.422 242.891 287.217L244.466 286.28C244.684 286.15 244.812 286.363 244.684 286.646Z" fill="#39D98A"/>
</g>
<g filter="url(#filter7_dd)">
<rect width="224.075" height="56.8939" rx="8" transform="matrix(0.866044 -0.499967 0.866044 0.499967 368 312.03)" fill="white"/>
<path d="M449.079 305.75L449.765 305.354L447.23 303.89L450.253 302.145L452.788 303.609L453.474 303.213L447.806 299.94L447.119 300.336L449.644 301.794L446.621 303.539L444.097 302.081L443.41 302.478L449.079 305.75ZM456.631 301.492C457.495 300.994 457.694 300.38 457.251 299.895L456.443 300.157C456.72 300.508 456.556 300.858 456.044 301.154C455.278 301.596 454.254 301.615 453.312 301.107L456.399 299.326L456.122 299.166C454.539 298.252 453.055 298.482 452.169 298.993C451.018 299.658 451.162 300.623 452.468 301.377C453.775 302.132 455.402 302.202 456.631 301.492ZM452.748 300.781C452.131 300.374 452.009 299.763 452.756 299.332C453.465 298.923 454.45 298.968 455.17 299.383L452.748 300.781ZM460.647 299.187C461.389 298.758 461.378 298.305 461.234 298.068L461.267 298.049L461.843 298.381L462.496 298.004L459.695 296.387C458.345 295.607 457.16 296.112 456.617 296.425C455.975 296.796 455.466 297.346 455.909 297.985L456.75 297.755C456.584 297.493 456.592 297.105 457.215 296.745C457.816 296.398 458.43 296.411 458.976 296.726L458.998 296.739C459.313 296.921 458.965 297.09 458.289 297.595C457.603 298.11 456.916 298.707 457.891 299.27C458.721 299.749 459.839 299.653 460.647 299.187ZM460.16 298.79C459.64 299.091 459.031 299.174 458.577 298.912C458.079 298.624 458.378 298.273 458.821 297.94C459.064 297.761 459.728 297.288 459.706 297.148L460.304 297.493C460.836 297.8 460.935 298.343 460.16 298.79ZM458.673 293.666L458.02 294.043L463.689 297.316L464.342 296.939L458.673 293.666ZM463.136 292.726L462.228 293.25L461.209 292.662L460.556 293.04L461.575 293.628L460.932 293.998L461.486 294.318L462.128 293.947L464.785 295.481C465.527 295.909 466.479 295.769 467.033 295.449C467.277 295.309 467.387 295.193 467.443 295.123L466.723 294.861C466.679 294.899 466.612 294.963 466.468 295.046C466.18 295.213 465.815 295.321 465.261 295.002L462.781 293.57L463.689 293.046L463.136 292.726ZM466.557 292.707C465.815 292.279 465.868 291.763 466.513 291.39C467.127 291.036 467.885 291.045 468.561 291.435L471.218 292.969L471.871 292.592L469.17 291.033C468.076 290.401 466.983 290.441 466.114 290.943C465.444 291.33 465.342 291.712 465.583 292.081L465.527 292.113L463.446 290.911L462.793 291.288L468.461 294.561L469.114 294.184L466.557 292.707ZM474.929 292.668C475.519 292.327 475.621 291.907 475.206 291.383L472.156 287.532L471.43 287.938L473.645 290.571L473.6 290.597L469.039 289.318L468.33 289.727L474.176 291.287L474.387 291.549C474.796 292.06 474.564 292.265 473.966 292.469L474.375 292.898C474.475 292.879 474.708 292.795 474.929 292.668ZM479.165 284.572C478.356 284.342 477.493 284.374 476.651 284.86C475.755 285.378 475.6 286.055 476.319 286.471C476.906 286.809 477.648 286.835 478.611 286.49L479.486 286.176C480.014 285.986 480.421 285.988 480.715 286.157C481.08 286.368 480.991 286.765 480.383 287.116C479.848 287.424 479.284 287.485 478.711 287.289L478.246 287.736C479.12 288.065 480.1 287.944 480.969 287.442C481.957 286.872 482.09 286.172 481.357 285.748C480.764 285.406 480.02 285.405 479.076 285.735L478.29 286.01C477.662 286.229 477.266 286.263 476.939 286.074C476.574 285.863 476.696 285.486 477.216 285.186C477.786 284.857 478.337 284.903 478.744 285.007L479.165 284.572ZM483.525 285.865L484.178 285.487L479.926 283.033L479.273 283.41L483.525 285.865ZM478.897 282.809C479.151 282.662 479.163 282.426 478.919 282.285C478.675 282.145 478.266 282.151 478.011 282.298C477.756 282.445 477.745 282.681 477.989 282.822C478.233 282.963 478.642 282.956 478.897 282.809ZM483.47 282.943C482.728 282.515 482.767 282.007 483.393 281.646C483.999 281.296 484.763 281.312 485.43 281.697L488.087 283.231L488.74 282.854L486.039 281.294C484.954 280.668 483.855 280.701 482.994 281.198C482.352 281.569 482.241 281.965 482.474 282.33L482.418 282.361L481.754 281.978L481.123 282.342L485.374 284.797L486.028 284.42L483.47 282.943ZM491.75 281.219C492.691 280.675 492.735 279.985 492.093 279.486L491.44 279.864C491.783 280.202 491.672 280.586 491.163 280.88C490.388 281.327 489.247 281.244 488.262 280.675C487.299 280.119 487.177 279.461 487.941 279.02C488.517 278.688 489.214 278.694 489.701 278.86L490.355 278.483C489.447 278.087 488.24 278.17 487.343 278.688C486.192 279.352 486.336 280.317 487.631 281.065C488.904 281.8 490.554 281.909 491.75 281.219ZM496.159 278.673C497.022 278.175 497.222 277.561 496.779 277.075L495.971 277.337C496.247 277.689 496.084 278.039 495.572 278.334C494.805 278.777 493.781 278.796 492.84 278.288L495.926 276.506L495.65 276.347C494.066 275.433 492.583 275.663 491.697 276.174C490.546 276.839 490.689 277.804 491.996 278.558C493.302 279.312 494.93 279.383 496.159 278.673ZM492.275 277.962C491.658 277.555 491.536 276.944 492.284 276.513C492.992 276.104 493.978 276.148 494.697 276.564L492.275 277.962ZM502.854 274.795C503.934 274.172 503.928 273.255 502.843 272.628C501.744 271.994 500.175 271.97 499.134 272.571C498.752 272.791 498.517 273.084 498.47 273.325L498.437 273.344L496.964 272.264L499.334 270.896L498.725 270.545L495.78 272.245L498.226 274.054L498.946 273.728C499.013 273.494 499.292 273.192 499.644 272.993C500.372 272.579 501.448 272.59 502.19 273.018C502.918 273.438 502.943 274.041 502.245 274.443C501.664 274.779 500.828 274.83 500.264 274.565L499.599 274.948C500.504 275.423 501.88 275.357 502.854 274.795ZM506.046 269.91C505.305 269.482 505.357 268.965 506.002 268.593C506.617 268.238 507.375 268.248 508.05 268.638L510.708 270.172L511.361 269.795L508.659 268.235C507.566 267.604 506.473 267.644 505.604 268.146C504.934 268.532 504.831 268.914 505.072 269.283L505.017 269.315L502.935 268.114L502.282 268.491L507.951 271.763L508.604 271.386L506.046 269.91ZM514.372 268.159C515.523 267.494 515.423 266.542 514.106 265.781C512.777 265.014 511.128 264.957 509.976 265.621C508.825 266.286 508.924 267.238 510.253 268.005C511.57 268.766 513.22 268.824 514.372 268.159ZM513.785 267.82C512.91 268.325 511.759 268.121 510.906 267.628C510.054 267.136 509.688 266.465 510.563 265.96C511.438 265.455 512.6 265.666 513.453 266.158C514.305 266.65 514.659 267.315 513.785 267.82ZM518.148 263.87C518.945 264.33 518.701 264.892 518.214 265.174C517.672 265.487 516.886 265.48 516.266 265.122L513.608 263.588L512.955 263.966L515.657 265.525C516.742 266.152 517.838 266.12 518.635 265.659C519.277 265.289 519.355 264.848 519.122 264.483L519.166 264.458L519.886 264.873L520.539 264.496L516.288 262.042L515.634 262.419L518.148 263.87ZM521.736 263.805L522.389 263.428L519.698 261.875C519.123 261.543 519.156 261.038 519.776 260.68C519.95 260.579 520.163 260.495 520.219 260.475L519.554 260.092C519.474 260.132 519.297 260.228 519.2 260.284C518.691 260.578 518.536 260.999 518.802 261.332L518.757 261.357L518.115 260.987L517.484 261.351L521.736 263.805ZM524.348 258.488C523.54 258.258 522.676 258.29 521.835 258.776C520.938 259.293 520.783 259.971 521.502 260.386C522.089 260.725 522.831 260.751 523.794 260.405L524.669 260.092C525.198 259.902 525.604 259.904 525.898 260.073C526.263 260.284 526.175 260.68 525.566 261.032C525.031 261.34 524.467 261.401 523.894 261.204L523.429 261.652C524.304 261.981 525.283 261.86 526.152 261.358C527.141 260.787 527.273 260.087 526.54 259.664C525.948 259.322 525.203 259.32 524.259 259.651L523.473 259.926C522.845 260.145 522.449 260.179 522.122 259.99C521.757 259.779 521.879 259.402 522.399 259.102C522.969 258.772 523.52 258.819 523.927 258.923L524.348 258.488ZM532.251 257.85C532.993 257.422 532.982 256.968 532.838 256.731L532.871 256.712L533.447 257.045L534.1 256.668L531.299 255.05C529.948 254.271 528.763 254.776 528.221 255.089C527.579 255.46 527.069 256.009 527.512 256.648L528.354 256.418C528.188 256.156 528.196 255.768 528.819 255.408C529.419 255.062 530.034 255.074 530.579 255.389L530.601 255.402C530.917 255.584 530.568 255.754 529.893 256.258C529.206 256.773 528.52 257.371 529.494 257.933C530.324 258.412 531.443 258.317 532.251 257.85ZM531.764 257.454C531.243 257.754 530.634 257.837 530.18 257.575C529.682 257.288 529.981 256.936 530.424 256.604C530.668 256.425 531.332 255.952 531.31 255.811L531.908 256.156C532.439 256.463 532.539 257.006 531.764 257.454ZM538.691 255.96C539.71 255.372 540.064 254.631 538.968 253.998L534.595 251.473L533.963 251.837L534.639 252.227L534.572 252.266C534.207 252.221 533.432 252.08 532.602 252.56C531.528 253.18 531.638 254.1 532.945 254.854C534.273 255.621 535.801 255.609 536.831 255.014C537.661 254.535 537.44 254.1 537.351 253.883L537.407 253.851L538.27 254.349C538.979 254.758 538.802 255.231 538.115 255.628C537.343 256.074 536.665 255.995 536.255 255.96L536.1 256.471C536.812 256.575 537.742 256.508 538.691 255.96ZM536.333 254.624C535.513 255.097 534.473 254.982 533.587 254.471C532.723 253.972 532.436 253.333 533.266 252.854C534.063 252.394 535.126 252.521 536.045 253.052C536.986 253.595 537.119 254.17 536.333 254.624ZM541.858 252.291C543.009 251.627 542.909 250.674 541.592 249.914C540.263 249.147 538.614 249.089 537.462 249.754C536.311 250.419 536.41 251.371 537.739 252.138C539.056 252.898 540.706 252.956 541.858 252.291ZM541.271 251.953C540.396 252.457 539.245 252.253 538.392 251.761C537.54 251.269 537.174 250.597 538.049 250.093C538.924 249.588 540.086 249.799 540.939 250.291C541.791 250.783 542.145 251.448 541.271 251.953Z" fill="#ACB5BD"/>
<path d="M429.087 292.216C427.793 292.946 427.931 293.977 429.087 294.645C430.305 295.348 432.077 295.334 433.159 294.709C433.811 294.332 434.045 293.828 433.873 293.331L433.922 293.302C435.472 294.197 435.755 295.057 434.783 295.618C434.119 296.001 433.295 295.994 432.581 295.738L431.831 296.172C432.975 296.662 434.402 296.619 435.46 296.008C436.874 295.192 436.493 293.963 434.254 292.67C431.941 291.335 430.133 291.626 429.087 292.216ZM429.764 292.606C430.551 292.152 431.806 292.209 432.544 292.635C433.295 293.068 433.356 293.814 432.581 294.261C431.806 294.709 430.613 294.673 429.825 294.219C429.038 293.764 428.989 293.054 429.764 292.606ZM434.492 289.096C433.197 289.826 433.335 290.857 434.492 291.525C435.709 292.228 437.481 292.214 438.564 291.589C439.216 291.212 439.449 290.708 439.277 290.211L439.326 290.183C440.876 291.077 441.159 291.937 440.187 292.498C439.523 292.881 438.699 292.874 437.985 292.618L437.235 293.052C438.379 293.542 439.806 293.499 440.864 292.888C442.279 292.072 441.897 290.843 439.658 289.55C437.346 288.215 435.537 288.507 434.492 289.096ZM435.168 289.487C435.956 289.032 437.21 289.089 437.948 289.515C438.699 289.948 438.76 290.694 437.985 291.141C437.21 291.589 436.017 291.553 435.23 291.099C434.442 290.644 434.393 289.934 435.168 289.487ZM441.618 286.899L440.609 287.482L439.478 286.828L438.752 287.247L439.884 287.901L439.17 288.313L439.785 288.668L440.499 288.256L443.451 289.96C444.275 290.436 445.333 290.28 445.948 289.925C446.219 289.768 446.342 289.641 446.404 289.562L445.604 289.271C445.555 289.314 445.481 289.385 445.321 289.477C445.001 289.662 444.595 289.783 443.98 289.428L441.225 287.837L442.233 287.254L441.618 286.899ZM445.419 286.878C444.595 286.402 444.654 285.829 445.37 285.415C446.053 285.021 446.896 285.032 447.646 285.465L450.598 287.169L451.324 286.75L448.323 285.017C447.108 284.316 445.893 284.36 444.927 284.918C444.183 285.348 444.069 285.772 444.337 286.182L444.275 286.218L441.963 284.882L441.237 285.301L447.535 288.938L448.261 288.518L445.419 286.878ZM457.105 282.049C457.794 282.447 458.803 282.532 459.603 282.071C460.39 281.616 460.242 281.034 459.553 280.636L459.221 280.444C458.532 280.046 457.536 279.954 456.736 280.416C455.949 280.87 456.084 281.46 456.773 281.857L457.105 282.049ZM450.364 281.779C451.053 282.177 452.062 282.262 452.861 281.801C453.649 281.346 453.501 280.764 452.812 280.366L452.48 280.174C451.791 279.777 450.795 279.684 449.995 280.146C449.208 280.6 449.343 281.19 450.032 281.588L450.364 281.779ZM455.383 284.407L456.084 284.002L454.116 277.866L453.415 278.271L455.383 284.407ZM457.401 281.495C457.019 281.275 456.835 280.97 457.265 280.721C457.708 280.465 458.213 280.586 458.594 280.806L458.926 280.998C459.307 281.218 459.504 281.517 459.074 281.765C458.631 282.021 458.114 281.907 457.733 281.687L457.401 281.495ZM450.659 281.225C450.278 281.005 450.093 280.7 450.524 280.451C450.967 280.196 451.471 280.316 451.852 280.537L452.185 280.728C452.566 280.948 452.763 281.247 452.332 281.495C451.889 281.751 451.373 281.637 450.991 281.417L450.659 281.225ZM464.659 279.052L468.349 276.922L467.673 276.531L464.745 278.221L459.123 274.976L458.36 275.416L464.659 279.052ZM470.933 275.558C471.757 275.082 471.744 274.578 471.585 274.315L471.621 274.294L472.261 274.663L472.987 274.244L469.875 272.448C468.374 271.581 467.057 272.142 466.455 272.49C465.741 272.902 465.175 273.513 465.667 274.223L466.602 273.967C466.418 273.676 466.427 273.245 467.119 272.845C467.786 272.46 468.469 272.474 469.075 272.824L469.1 272.838C469.45 273.041 469.063 273.229 468.312 273.79C467.55 274.361 466.787 275.026 467.869 275.65C468.792 276.183 470.035 276.077 470.933 275.558ZM470.391 275.118C469.813 275.452 469.136 275.544 468.632 275.253C468.079 274.933 468.411 274.543 468.903 274.173C469.173 273.974 469.911 273.449 469.887 273.293L470.551 273.676C471.142 274.017 471.252 274.621 470.391 275.118ZM471.642 269.566L470.633 270.149L469.502 269.495L468.776 269.914L469.908 270.568L469.194 270.98L469.809 271.335L470.523 270.923L473.475 272.627C474.299 273.103 475.357 272.947 475.972 272.592C476.243 272.436 476.366 272.308 476.428 272.23L475.628 271.938C475.579 271.981 475.505 272.052 475.345 272.144C475.025 272.329 474.619 272.45 474.004 272.095L471.249 270.504L472.257 269.922L471.642 269.566ZM479.486 270.606C480.446 270.052 480.667 269.37 480.175 268.831L479.277 269.122C479.585 269.512 479.403 269.901 478.834 270.23C477.982 270.721 476.844 270.743 475.799 270.178L479.228 268.198L478.92 268.021C477.161 267.005 475.513 267.261 474.528 267.829C473.249 268.568 473.409 269.64 474.861 270.478C476.312 271.316 478.121 271.394 479.486 270.606ZM475.171 269.816C474.485 269.363 474.35 268.685 475.18 268.206C475.968 267.751 477.063 267.801 477.862 268.262L475.171 269.816ZM480.332 266.723C479.508 266.247 479.551 265.683 480.246 265.281C480.919 264.893 481.768 264.91 482.509 265.338L485.462 267.043L486.187 266.624L483.186 264.891C481.98 264.195 480.759 264.232 479.803 264.784C479.089 265.196 478.966 265.636 479.225 266.041L479.163 266.077L478.425 265.651L477.724 266.055L482.448 268.783L483.174 268.364L480.332 266.723ZM489.531 264.807C490.577 264.203 490.626 263.436 489.913 262.882L489.187 263.301C489.568 263.678 489.445 264.104 488.879 264.43C488.018 264.928 486.751 264.835 485.656 264.203C484.586 263.585 484.451 262.854 485.299 262.364C485.939 261.995 486.714 262.002 487.255 262.186L487.981 261.767C486.972 261.327 485.632 261.419 484.635 261.995C483.356 262.733 483.516 263.806 484.955 264.636C486.37 265.453 488.203 265.574 489.531 264.807ZM494.59 263.818C495.245 263.44 495.359 262.973 494.898 262.39L491.509 258.112L490.703 258.563L493.163 261.489L493.114 261.517L488.046 260.097L487.259 260.551L493.754 262.284L493.988 262.575C494.443 263.143 494.184 263.371 493.52 263.598L493.975 264.074C494.086 264.052 494.344 263.96 494.59 263.818ZM499.616 258.871L500.342 258.452L495.618 255.725L494.893 256.144L499.616 258.871ZM494.474 255.476C494.757 255.313 494.77 255.05 494.499 254.894C494.228 254.738 493.773 254.745 493.49 254.908C493.207 255.072 493.195 255.334 493.466 255.491C493.736 255.647 494.191 255.64 494.474 255.476ZM501.352 253.637C500.454 253.381 499.494 253.416 498.559 253.956C497.563 254.531 497.391 255.284 498.19 255.746C498.842 256.122 499.666 256.151 500.737 255.767L501.708 255.419C502.296 255.208 502.748 255.21 503.074 255.398C503.48 255.632 503.382 256.073 502.705 256.463C502.111 256.806 501.484 256.873 500.847 256.655L500.331 257.152C501.303 257.518 502.391 257.383 503.357 256.825C504.455 256.192 504.602 255.414 503.787 254.943C503.129 254.563 502.302 254.562 501.253 254.929L500.38 255.235C499.682 255.478 499.242 255.515 498.879 255.306C498.473 255.071 498.608 254.652 499.187 254.318C499.82 253.953 500.432 254.004 500.884 254.12L501.352 253.637ZM508.73 253.61L509.432 253.205L508.706 252.786L508.792 252.736C509.21 252.793 510.084 252.942 510.994 252.416C512.175 251.735 512.052 250.712 510.551 249.846C509.063 248.986 507.291 248.915 506.098 249.604C505.175 250.137 505.458 250.627 505.544 250.861L505.483 250.897L503.158 249.554L502.432 249.973L508.73 253.61ZM507.082 251.834C506.024 251.223 505.778 250.542 506.664 250.03C507.586 249.498 508.817 249.682 509.813 250.258C510.822 250.84 511.154 251.571 510.244 252.097C509.37 252.601 508.152 252.452 507.082 251.834ZM516.09 249.475C517.05 248.921 517.271 248.239 516.779 247.699L515.881 247.99C516.188 248.381 516.007 248.77 515.438 249.098C514.586 249.59 513.448 249.611 512.403 249.047L515.832 247.067L515.524 246.889C513.765 245.874 512.117 246.13 511.132 246.698C509.853 247.436 510.013 248.509 511.465 249.347C512.916 250.185 514.725 250.263 516.09 249.475ZM511.775 248.684C511.089 248.232 510.954 247.553 511.784 247.074C512.572 246.62 513.667 246.669 514.466 247.131L511.775 248.684ZM513.479 243.596L512.753 244.015L519.052 247.651L519.777 247.232L513.479 243.596ZM523.124 245.414C524.404 244.675 524.293 243.617 522.829 242.772C521.353 241.92 519.52 241.856 518.241 242.594C516.961 243.333 517.072 244.391 518.548 245.243C520.012 246.088 521.845 246.152 523.124 245.414ZM522.472 245.037C521.5 245.598 520.221 245.371 519.274 244.824C518.327 244.277 517.921 243.532 518.893 242.971C519.864 242.41 521.156 242.644 522.103 243.191C523.051 243.738 523.444 244.476 522.472 245.037ZM527.184 242.956L527.897 242.544L525.302 239.853L525.376 239.81L530.038 241.309L530.751 240.897L527.467 237.339L526.704 237.779L529.287 240.449L529.238 240.478L524.637 238.972L523.862 239.42L526.47 242.09L526.421 242.118L521.783 240.62L521.021 241.06L527.184 242.956ZM537.628 237.026C538.828 236.334 538.821 235.315 537.616 234.619C536.395 233.914 534.651 233.887 533.495 234.555C533.07 234.8 532.809 235.125 532.757 235.393L532.72 235.414L531.084 234.214L533.716 232.694L533.04 232.304L529.767 234.193L532.486 236.203L533.286 235.84C533.359 235.581 533.67 235.246 534.061 235.024C534.869 234.564 536.066 234.576 536.89 235.052C537.699 235.519 537.727 236.188 536.951 236.636C536.306 237.009 535.377 237.065 534.749 236.771L534.011 237.197C535.017 237.724 536.546 237.651 537.628 237.026ZM542.983 233.935C544.373 233.132 543.995 231.991 541.938 230.803C539.895 229.624 537.89 229.404 536.512 230.199C535.135 230.995 535.516 232.152 537.558 233.331C539.616 234.519 541.593 234.737 542.983 233.935ZM542.307 233.544C541.39 234.073 539.935 233.851 538.296 232.905C536.66 231.961 536.266 231.108 537.177 230.583C538.087 230.057 539.563 230.285 541.199 231.229C542.839 232.175 543.223 233.015 542.307 233.544ZM548.396 230.81C549.786 230.008 549.408 228.866 547.35 227.678C545.308 226.499 543.303 226.279 541.925 227.075C540.547 227.87 540.929 229.028 542.971 230.206C545.028 231.394 547.006 231.613 548.396 230.81ZM547.719 230.419C546.803 230.949 545.348 230.727 543.709 229.78C542.073 228.836 541.679 227.984 542.59 227.458C543.5 226.932 544.976 227.16 546.612 228.104C548.251 229.051 548.636 229.89 547.719 230.419ZM551.681 228.814L552.406 228.395L549.454 226.691C548.762 226.292 548.777 225.718 549.343 225.391C549.894 225.074 550.638 225.059 551.176 225.37L554.412 227.238L555.15 226.812L552.074 225.036C551.465 224.685 551.398 224.205 552.062 223.822C552.579 223.524 553.295 223.426 553.993 223.829L557.155 225.654L557.881 225.235L554.719 223.41C553.609 222.769 552.499 222.817 551.656 223.303C550.979 223.694 550.795 224.159 551.041 224.582L550.992 224.61C550.254 224.454 549.546 224.521 548.925 224.88C548.31 225.235 548.15 225.668 548.457 226.073L548.396 226.109L547.658 225.683L546.957 226.087L551.681 228.814ZM558.888 220.421C557.99 220.165 557.03 220.201 556.095 220.741C555.099 221.316 554.927 222.069 555.726 222.53C556.378 222.907 557.203 222.935 558.273 222.552L559.245 222.204C559.832 221.992 560.284 221.994 560.61 222.182C561.016 222.417 560.918 222.857 560.241 223.248C559.647 223.59 559.02 223.658 558.383 223.439L557.867 223.936C558.839 224.302 559.927 224.167 560.893 223.61C561.991 222.976 562.139 222.198 561.324 221.728C560.665 221.348 559.838 221.346 558.789 221.714L557.916 222.019C557.218 222.262 556.778 222.299 556.415 222.09C556.009 221.856 556.145 221.437 556.723 221.103C557.356 220.737 557.968 220.789 558.42 220.904L558.888 220.421Z" fill="#212429"/>
<path fill-rule="evenodd" clip-rule="evenodd" d="M428.184 318.694C435.213 314.636 435.213 308.056 428.184 303.998C421.154 299.94 409.757 299.94 402.728 303.998C395.698 308.056 395.698 314.636 402.728 318.694C409.757 322.752 421.154 322.752 428.184 318.694Z" fill="#E3FFF1"/>
<g clip-path="url(#clip1)">
<path d="M409.887 308.131C406.812 309.907 406.812 312.785 409.887 314.561C412.962 316.336 417.949 316.336 421.024 314.561C424.099 312.785 424.099 309.907 421.024 308.131C417.949 306.356 412.962 306.356 409.887 308.131ZM416.043 308.908L417.054 312.514C417.069 312.565 417.062 312.617 417.035 312.665C417.008 312.714 416.961 312.759 416.898 312.795C416.835 312.831 416.758 312.858 416.674 312.874C416.589 312.89 416.499 312.893 416.412 312.885L412.714 312.54C412.601 312.529 412.556 312.449 412.637 312.402L413.22 312.066C413.347 311.992 413.528 311.958 413.707 311.975L415.82 312.173L415.064 309.481C415.036 309.378 415.093 309.274 415.221 309.2L415.804 308.863C415.885 308.817 416.024 308.842 416.043 308.908Z" fill="#39D98A"/>
</g>
</g>
<g filter="url(#filter8_dd)">
<rect width="181.385" height="59.5395" rx="8" transform="matrix(0.866495 -0.500227 0.866495 0.500227 463 328.734)" fill="white"/>
<path fill-rule="evenodd" clip-rule="evenodd" d="M530.068 337.669C538.616 332.734 538.616 324.734 530.068 319.799C521.52 314.864 507.661 314.864 499.114 319.799C490.566 324.734 490.566 332.734 499.114 337.669C507.661 342.604 521.52 342.604 530.068 337.669Z" fill="#E3FFF1"/>
<g clip-path="url(#clip2)">
<path d="M508.304 324.857C505.167 326.668 505.167 329.605 508.304 331.416C511.441 333.227 516.528 333.227 519.665 331.416C522.802 329.605 522.802 326.668 519.665 324.857C516.528 323.046 511.441 323.046 508.304 324.857ZM514.583 325.649L515.615 329.328C515.63 329.38 515.623 329.433 515.595 329.483C515.568 329.532 515.52 329.578 515.456 329.615C515.391 329.652 515.313 329.679 515.227 329.695C515.14 329.711 515.049 329.715 514.959 329.707L511.187 329.355C511.072 329.344 511.026 329.262 511.108 329.214L511.703 328.871C511.833 328.796 512.018 328.761 512.2 328.778L514.356 328.98L513.585 326.234C513.556 326.129 513.614 326.022 513.745 325.947L514.339 325.604C514.422 325.556 514.564 325.582 514.583 325.649Z" fill="#39D98A"/>
</g>
<rect width="31.7544" height="3.9693" rx="1.98465" transform="matrix(0.866494 -0.500228 0.866494 0.500228 545.975 317.069)" fill="#EBEBF0"/>
<rect width="71.4474" height="3.9693" rx="1.98465" transform="matrix(0.866495 -0.500227 0.866495 0.500227 539.526 313.346)" fill="#EBEBF0"/>
<rect width="33.7391" height="7.9386" rx="3.9693" transform="matrix(0.866494 -0.500228 0.866494 0.500228 529.208 307.389)" fill="#C7C9D9"/>
</g>
<g filter="url(#filter9_dd)">
<rect width="116.32" height="116.32" rx="8" transform="matrix(0.866044 -0.499967 0.866044 0.499967 593 177.156)" fill="white"/>
<path d="M616.595 181.231L620.322 179.079L619.521 178.616L616.724 180.231L611.354 177.131L610.422 177.668L616.595 181.231Z" fill="#555770"/>
<path d="M622.762 177.789C623.528 177.347 623.57 176.874 623.395 176.575L623.431 176.554L624.064 176.919L624.944 176.411L621.87 174.637C620.523 173.859 619.194 174.316 618.458 174.741C617.621 175.225 617.187 175.865 617.729 176.526L618.769 176.148C618.573 175.882 618.594 175.505 619.2 175.155C619.781 174.819 620.384 174.823 620.909 175.125L620.93 175.138C621.258 175.327 620.915 175.519 620.179 176.055C619.405 176.62 618.736 177.271 619.788 177.878C620.698 178.403 621.882 178.297 622.762 177.789ZM622.235 177.258C621.725 177.553 621.129 177.633 620.683 177.375C620.2 177.097 620.457 176.75 620.909 176.409C621.162 176.218 621.777 175.773 621.777 175.623L622.373 175.968C622.922 176.284 622.985 176.825 622.235 177.258Z" fill="#555770"/>
<path d="M623.676 171.799L622.727 172.347L621.618 171.706L620.716 172.227L621.826 172.867L621.147 173.258L621.871 173.676L622.549 173.284L625.282 174.862C626.12 175.349 627.169 175.214 627.865 174.794C628.148 174.627 628.287 174.485 628.353 174.401L627.446 174.066C627.398 174.107 627.313 174.187 627.169 174.271C626.876 174.44 626.518 174.535 625.996 174.234L623.45 172.764L624.399 172.216L623.676 171.799Z" fill="#555770"/>
<path d="M631.341 172.826C632.35 172.244 632.567 171.544 632.019 170.991L631.012 171.394C631.286 171.741 631.117 172.096 630.605 172.391C629.834 172.837 628.815 172.847 627.899 172.346L631.19 170.446L630.87 170.262C629.198 169.296 627.543 169.496 626.494 170.102C625.205 170.846 625.337 171.904 626.76 172.725C628.197 173.555 629.975 173.614 631.341 172.826ZM627.227 171.955C626.606 171.555 626.513 170.951 627.245 170.528C627.944 170.124 628.921 170.159 629.632 170.566L627.227 171.955Z" fill="#555770"/>
<path d="M632.386 168.942C631.647 168.516 631.677 168.011 632.304 167.649C632.916 167.296 633.687 167.313 634.359 167.701L637.195 169.338L638.096 168.818L635.152 167.118C634.007 166.457 632.777 166.475 631.831 167.021C631.135 167.423 631.002 167.872 631.279 168.279L631.222 168.312L630.469 167.877L629.604 168.376L634.233 171.049L635.134 170.528L632.386 168.942Z" fill="#555770"/>
<path d="M641.348 167.049C642.442 166.417 642.493 165.629 641.692 165.052L640.815 165.558C641.201 165.913 641.107 166.308 640.592 166.605C639.829 167.045 638.702 166.962 637.693 166.379C636.701 165.807 636.578 165.158 637.331 164.723C637.904 164.392 638.615 164.399 639.145 164.594L640.022 164.088C638.992 163.604 637.608 163.686 636.556 164.293C635.252 165.046 635.39 166.101 636.804 166.917C638.199 167.722 640.004 167.825 641.348 167.049Z" fill="#555770"/>
<path d="M646.426 166.014C647.17 165.584 647.251 165.089 646.79 164.513L643.466 160.384L642.484 160.941L644.904 163.692L644.855 163.719L640.091 162.322L639.126 162.879L645.509 164.608L645.705 164.85C646.091 165.337 645.82 165.553 645.19 165.76L645.711 166.312C645.868 166.277 646.154 166.171 646.426 166.014Z" fill="#555770"/>
<rect width="16.0017" height="16.0017" rx="8" transform="matrix(0.866044 -0.499967 0.866044 0.499967 653.671 149.293)" fill="#E3FFF1"/>
<g clip-path="url(#clip3)">
<path d="M668.748 147.918L670.145 148.725C670.326 149.076 670.374 149.588 670.134 149.926L667.702 148.522C667.499 148.405 667.499 148.215 667.702 148.098L668.013 147.918C668.216 147.801 668.545 147.801 668.748 147.918Z" fill="#3BC882"/>
<path d="M668.81 150.824C669.021 150.746 669.213 150.658 669.395 150.552C669.578 150.447 669.731 150.336 669.866 150.214L668.718 149.552C668.515 149.435 668.186 149.435 667.983 149.552L667.662 149.737C667.459 149.854 667.459 150.044 667.662 150.161L668.81 150.824Z" fill="#3BC882"/>
<path d="M666.704 150.05L668.312 150.978C667.727 151.117 667.083 151.167 666.46 151.117L665.657 150.654C665.454 150.537 665.454 150.347 665.657 150.23L665.969 150.05C666.172 149.933 666.501 149.933 666.704 150.05Z" fill="#3BC882"/>
<path fill-rule="evenodd" clip-rule="evenodd" d="M662.182 149.293C662.182 150.834 664.346 152.084 667.016 152.084C669.557 152.084 671.64 150.951 671.834 149.513L674.498 149.513L674.498 149.511L674.501 149.511C675.204 149.511 675.204 148.902 674.501 148.902L671.802 148.902C671.473 147.546 669.455 146.503 667.016 146.503C664.346 146.503 662.182 147.752 662.182 149.293ZM663.239 149.293C663.239 148.088 664.93 147.111 667.017 147.111C669.103 147.111 670.795 148.088 670.795 149.293C670.795 150.497 669.103 151.474 667.017 151.474C664.93 151.474 663.239 150.497 663.239 149.293Z" fill="#3BC882"/>
</g>
<path d="M679.218 139.885L680.803 138.969L681.42 139.325L681.994 138.994L681.378 138.638L681.803 138.392L681.308 138.107L680.883 138.352L678.671 137.075L677.921 137.508L678.739 139.608L679.218 139.885ZM680.315 138.68L679.339 139.243L679.313 139.228L678.758 137.812L678.784 137.797L680.315 138.68Z" fill="#28293D"/>
<path d="M682.938 138.449L685.216 137.134L684.713 136.843L683.266 137.679L683.243 137.666L683.233 136.999C683.259 136.268 683.136 135.991 682.761 135.774C682.204 135.453 681.344 135.479 680.676 135.865C680.017 136.246 679.958 136.752 680.59 137.116L681.163 136.785C680.823 136.589 680.825 136.343 681.156 136.152C681.472 135.969 681.901 135.945 682.214 136.126C682.492 136.286 682.521 136.498 682.526 136.879L682.503 138.198L682.938 138.449Z" fill="#28293D"/>
<path d="M686.398 143.837L686.8 143.605L685.502 142.856L686.229 142.436C686.258 142.419 686.286 142.403 686.311 142.386L688.312 142.732L688.78 142.462L686.656 142.103C686.935 141.775 686.787 141.462 686.346 141.207C685.758 140.868 684.976 140.821 684.197 141.27L683.074 141.919L686.398 143.837ZM685.138 142.646L683.834 141.892L684.541 141.484C685.08 141.173 685.55 141.205 685.95 141.435C686.349 141.666 686.385 141.926 685.852 142.233L685.138 142.646Z" fill="#8F90A6"/>
<path d="M690.339 141.622C690.845 141.33 690.962 140.97 690.702 140.685L690.228 140.839C690.391 141.045 690.295 141.25 689.995 141.423C689.545 141.683 688.945 141.694 688.393 141.396L690.202 140.352L690.04 140.258C689.112 139.722 688.242 139.857 687.723 140.157C687.048 140.546 687.132 141.112 687.898 141.555C688.664 141.997 689.618 142.038 690.339 141.622ZM688.062 141.205C687.7 140.966 687.629 140.608 688.067 140.355C688.482 140.116 689.06 140.142 689.482 140.385L688.062 141.205Z" fill="#8F90A6"/>
<path d="M694.92 139.997L691.493 138.018L691.123 138.232L691.519 138.46L691.473 138.486C691.259 138.46 690.811 138.374 690.324 138.655C689.695 139.019 689.759 139.558 690.545 140.012C691.337 140.469 692.271 140.506 692.895 140.146C693.375 139.869 693.239 139.603 693.187 139.476L693.219 139.457L694.537 140.218L694.92 139.997ZM692.362 138.955C692.927 139.281 693.063 139.652 692.603 139.918C692.122 140.195 691.454 140.094 690.921 139.787C690.396 139.483 690.227 139.108 690.714 138.827C691.181 138.558 691.804 138.633 692.362 138.955Z" fill="#8F90A6"/>
<path d="M695.238 137.557C695.705 137.827 695.562 138.157 695.277 138.322C694.959 138.505 694.498 138.501 694.134 138.292L692.577 137.392L692.194 137.613L693.777 138.528C694.414 138.895 695.056 138.876 695.523 138.606C695.9 138.389 695.945 138.13 695.809 137.917L695.835 137.902L696.257 138.145L696.64 137.924L694.147 136.485L693.764 136.706L695.238 137.557Z" fill="#8F90A6"/>
<path d="M698.438 136.946C698.945 136.654 699.061 136.294 698.802 136.009L698.328 136.163C698.49 136.369 698.395 136.574 698.094 136.747C697.645 137.007 697.044 137.018 696.493 136.72L698.302 135.676L698.14 135.582C697.212 135.046 696.342 135.181 695.822 135.481C695.147 135.871 695.232 136.436 695.998 136.879C696.764 137.321 697.718 137.362 698.438 136.946ZM696.162 136.529C695.8 136.29 695.728 135.932 696.166 135.679C696.582 135.44 697.16 135.466 697.582 135.709L696.162 136.529Z" fill="#8F90A6"/>
<path d="M699.832 133.848C699.358 133.713 698.852 133.732 698.359 134.017C697.833 134.32 697.742 134.717 698.164 134.961C698.508 135.16 698.943 135.175 699.508 134.972L700.021 134.789C700.33 134.677 700.569 134.678 700.741 134.777C700.955 134.901 700.903 135.133 700.546 135.339C700.233 135.52 699.902 135.556 699.566 135.441L699.294 135.703C699.806 135.896 700.381 135.825 700.89 135.531C701.47 135.196 701.548 134.786 701.118 134.538C700.77 134.337 700.334 134.336 699.78 134.53L699.32 134.691C698.951 134.82 698.719 134.839 698.528 134.729C698.313 134.605 698.385 134.384 698.69 134.208C699.024 134.015 699.347 134.042 699.586 134.103L699.832 133.848Z" fill="#8F90A6"/>
<path d="M700.98 132.541L700.448 132.848L699.851 132.503L699.468 132.725L700.065 133.069L699.688 133.287L700.013 133.474L700.389 133.257L701.947 134.156C702.382 134.407 702.94 134.325 703.265 134.137C703.408 134.055 703.473 133.987 703.505 133.946L703.083 133.793C703.057 133.815 703.018 133.852 702.934 133.901C702.765 133.999 702.551 134.062 702.226 133.875L700.772 133.036L701.305 132.728L700.98 132.541Z" fill="#8F90A6"/>
<path d="M703.835 131.537C703.361 131.402 702.855 131.421 702.362 131.706C701.836 132.009 701.745 132.406 702.167 132.65C702.511 132.849 702.946 132.864 703.511 132.661L704.023 132.478C704.333 132.366 704.572 132.367 704.744 132.466C704.958 132.59 704.906 132.822 704.549 133.029C704.236 133.209 703.905 133.245 703.569 133.13L703.296 133.392C703.809 133.585 704.384 133.514 704.893 133.22C705.473 132.885 705.55 132.475 705.12 132.227C704.773 132.026 704.337 132.025 703.783 132.219L703.322 132.38C702.954 132.509 702.722 132.528 702.531 132.418C702.316 132.294 702.388 132.073 702.693 131.897C703.027 131.704 703.35 131.731 703.589 131.792L703.835 131.537Z" fill="#8F90A6"/>
<rect width="6.80072" height="40.7785" rx="2" transform="matrix(0.866044 -0.499967 0.866044 0.499967 659.489 208.771)" fill="#57EBA1"/>
<rect width="6.80072" height="30.971" rx="2" transform="matrix(0.866044 -0.499967 0.866044 0.499967 667.982 213.674)" fill="#39D98A"/>
<rect width="6.80072" height="21.6797" rx="2" transform="matrix(0.866044 -0.499967 0.866044 0.499967 676.029 218.32)" fill="#3BC882"/>
<rect width="6.80072" height="36.1329" rx="2" transform="matrix(0.866044 -0.499967 0.866044 0.499967 670.472 207.075)" fill="#57EBA1"/>
<rect width="6.80072" height="27.8739" rx="2" transform="matrix(0.866044 -0.499967 0.866044 0.499967 677.625 211.204)" fill="#39D98A"/>
<rect width="6.80072" height="19.615" rx="2" transform="matrix(0.866044 -0.499967 0.866044 0.499967 684.777 215.333)" fill="#3BC882"/>
<rect width="6.80072" height="64.0068" rx="2" transform="matrix(0.866044 -0.499967 0.866044 0.499967 653.293 189.121)" fill="#57EBA1"/>
<rect width="6.80072" height="49.0374" rx="2" transform="matrix(0.866044 -0.499967 0.866044 0.499967 666.257 196.604)" fill="#39D98A"/>
<rect width="6.80072" height="34.5843" rx="2" transform="matrix(0.866044 -0.499967 0.866044 0.499967 678.774 203.831)" fill="#3BC882"/>
<rect width="6.80072" height="44.3918" rx="2" transform="matrix(0.866044 -0.499967 0.866044 0.499967 677.241 194.908)" fill="#57EBA1"/>
<rect width="6.80072" height="34.0681" rx="2" transform="matrix(0.866044 -0.499967 0.866044 0.499967 686.181 200.07)" fill="#39D98A"/>
<rect width="6.80072" height="23.7445" rx="2" transform="matrix(0.866044 -0.499967 0.866044 0.499967 695.122 205.231)" fill="#3BC882"/>
<rect width="6.80072" height="32.5196" rx="2" transform="matrix(0.866044 -0.499967 0.866044 0.499967 694.483 196.826)" fill="#57EBA1"/>
<rect width="6.80072" height="24.7768" rx="2" transform="matrix(0.866044 -0.499967 0.866044 0.499967 701.189 200.698)" fill="#39D98A"/>
<rect width="6.80072" height="17.5502" rx="2" transform="matrix(0.866044 -0.499967 0.866044 0.499967 707.447 204.311)" fill="#3BC882"/>
<rect width="6.80072" height="50.586" rx="2" transform="matrix(0.866044 -0.499967 0.866044 0.499967 685.797 183.775)" fill="#57EBA1"/>
<rect width="6.80072" height="38.7138" rx="2" transform="matrix(0.866044 -0.499967 0.866044 0.499967 696.079 189.711)" fill="#39D98A"/>
<rect width="6.80072" height="27.3577" rx="2" transform="matrix(0.866044 -0.499967 0.866044 0.499967 705.914 195.388)" fill="#3BC882"/>
<rect width="6.80072" height="62.4582" rx="2" transform="matrix(0.866044 -0.499967 0.866044 0.499967 682.476 173.821)" fill="#57EBA1"/>
<rect width="6.80072" height="47.4889" rx="2" transform="matrix(0.866044 -0.499967 0.866044 0.499967 695.44 181.306)" fill="#39D98A"/>
<rect width="6.80072" height="33.5519" rx="2" transform="matrix(0.866044 -0.499967 0.866044 0.499967 707.51 188.274)" fill="#3BC882"/>
<rect width="6.80072" height="40.7785" rx="2" transform="matrix(0.866044 -0.499967 0.866044 0.499967 708.212 180.642)" fill="#57EBA1"/>
<rect width="6.80072" height="30.971" rx="2" transform="matrix(0.866044 -0.499967 0.866044 0.499967 716.706 185.546)" fill="#39D98A"/>
<rect width="6.80072" height="21.6797" rx="2" transform="matrix(0.866044 -0.499967 0.866044 0.499967 724.753 190.191)" fill="#3BC882"/>
<rect width="6.80072" height="36.1329" rx="2" transform="matrix(0.866044 -0.499967 0.866044 0.499967 719.196 178.947)" fill="#57EBA1"/>
<rect width="6.80072" height="27.8739" rx="2" transform="matrix(0.866044 -0.499967 0.866044 0.499967 726.349 183.076)" fill="#39D98A"/>
<rect width="6.80072" height="19.615" rx="2" transform="matrix(0.866044 -0.499967 0.866044 0.499967 733.501 187.205)" fill="#3BC882"/>
<rect width="6.80072" height="64.0068" rx="2" transform="matrix(0.866044 -0.499967 0.866044 0.499967 702.017 160.992)" fill="#57EBA1"/>
<rect width="6.80072" height="49.0374" rx="2" transform="matrix(0.866044 -0.499967 0.866044 0.499967 714.981 168.477)" fill="#39D98A"/>
<rect width="6.80072" height="34.5843" rx="2" transform="matrix(0.866044 -0.499967 0.866044 0.499967 727.498 175.702)" fill="#3BC882"/>
<rect width="6.80072" height="44.3918" rx="2" transform="matrix(0.866044 -0.499967 0.866044 0.499967 725.966 166.78)" fill="#57EBA1"/>
<rect width="6.80072" height="34.0681" rx="2" transform="matrix(0.866044 -0.499967 0.866044 0.499967 734.906 171.942)" fill="#39D98A"/>
<rect width="6.80072" height="23.7445" rx="2" transform="matrix(0.866044 -0.499967 0.866044 0.499967 743.846 177.104)" fill="#3BC882"/>
<rect width="6.80072" height="32.5196" rx="2" transform="matrix(0.866044 -0.499967 0.866044 0.499967 743.207 168.698)" fill="#57EBA1"/>
<rect width="6.80072" height="24.7768" rx="2" transform="matrix(0.866044 -0.499967 0.866044 0.499967 749.913 172.57)" fill="#39D98A"/>
<rect width="6.80072" height="17.5502" rx="2" transform="matrix(0.866044 -0.499967 0.866044 0.499967 756.171 176.182)" fill="#3BC882"/>
<rect width="6.80072" height="50.586" rx="2" transform="matrix(0.866044 -0.499967 0.866044 0.499967 734.521 155.646)" fill="#57EBA1"/>
<rect width="6.80072" height="38.7138" rx="2" transform="matrix(0.866044 -0.499967 0.866044 0.499967 744.803 161.582)" fill="#39D98A"/>
<rect width="6.80072" height="27.3577" rx="2" transform="matrix(0.866044 -0.499967 0.866044 0.499967 754.638 167.26)" fill="#3BC882"/>
</g>
<defs>
<filter id="filter0_dd" x="291.255" y="163.344" width="511.245" height="304.796" filterUnits="userSpaceOnUse" color-interpolation-filters="sRGB">
<feFlood flood-opacity="0" result="BackgroundImageFix"/>
<feColorMatrix in="SourceAlpha" type="matrix" values="0 0 0 0 0 0 0 0 0 0 0 0 0 0 0 0 0 0 127 0"/>
<feOffset dy="2"/>
<feGaussianBlur stdDeviation="2"/>
<feColorMatrix type="matrix" values="0 0 0 0 0.376471 0 0 0 0 0.380392 0 0 0 0 0.439216 0 0 0 0.16 0"/>
<feBlend mode="normal" in2="BackgroundImageFix" result="effect1_dropShadow"/>
<feColorMatrix in="SourceAlpha" type="matrix" values="0 0 0 0 0 0 0 0 0 0 0 0 0 0 0 0 0 0 127 0"/>
<feOffset/>
<feGaussianBlur stdDeviation="0.5"/>
<feColorMatrix type="matrix" values="0 0 0 0 0.156863 0 0 0 0 0.160784 0 0 0 0 0.239216 0 0 0 0.04 0"/>
<feBlend mode="normal" in2="effect1_dropShadow" result="effect2_dropShadow"/>
<feBlend mode="normal" in="SourceGraphic" in2="effect2_dropShadow" result="shape"/>
</filter>
<filter id="filter1_b" x="278.422" y="66.1067" width="542.74" height="317.551" filterUnits="userSpaceOnUse" color-interpolation-filters="sRGB">
<feFlood flood-opacity="0" result="BackgroundImageFix"/>
<feGaussianBlur in="BackgroundImage" stdDeviation="2.5"/>
<feComposite in2="SourceAlpha" operator="in" result="effect1_backgroundBlur"/>
<feBlend mode="normal" in="SourceGraphic" in2="effect1_backgroundBlur" result="shape"/>
</filter>
<filter id="filter2_dd" x="305" y="187" width="156.295" height="96.9922" filterUnits="userSpaceOnUse" color-interpolation-filters="sRGB">
<feFlood flood-opacity="0" result="BackgroundImageFix"/>
<feColorMatrix in="SourceAlpha" type="matrix" values="0 0 0 0 0 0 0 0 0 0 0 0 0 0 0 0 0 0 127 0"/>
<feOffset dy="4"/>
<feGaussianBlur stdDeviation="4"/>
<feColorMatrix type="matrix" values="0 0 0 0 0.376471 0 0 0 0 0.380392 0 0 0 0 0.439216 0 0 0 0.16 0"/>
<feBlend mode="normal" in2="BackgroundImageFix" result="effect1_dropShadow"/>
<feColorMatrix in="SourceAlpha" type="matrix" values="0 0 0 0 0 0 0 0 0 0 0 0 0 0 0 0 0 0 127 0"/>
<feOffset/>
<feGaussianBlur stdDeviation="1"/>
<feColorMatrix type="matrix" values="0 0 0 0 0.156863 0 0 0 0 0.160784 0 0 0 0 0.239216 0 0 0 0.04 0"/>
<feBlend mode="normal" in2="effect1_dropShadow" result="effect2_dropShadow"/>
<feBlend mode="normal" in="SourceGraphic" in2="effect2_dropShadow" result="shape"/>
</filter>
<filter id="filter3_dd" x="353.941" y="495.272" width="135.337" height="88.5672" filterUnits="userSpaceOnUse" color-interpolation-filters="sRGB">
<feFlood flood-opacity="0" result="BackgroundImageFix"/>
<feColorMatrix in="SourceAlpha" type="matrix" values="0 0 0 0 0 0 0 0 0 0 0 0 0 0 0 0 0 0 127 0"/>
<feOffset dy="2"/>
<feGaussianBlur stdDeviation="2"/>
<feColorMatrix type="matrix" values="0 0 0 0 0.376471 0 0 0 0 0.380392 0 0 0 0 0.439216 0 0 0 0.16 0"/>
<feBlend mode="normal" in2="BackgroundImageFix" result="effect1_dropShadow"/>
<feColorMatrix in="SourceAlpha" type="matrix" values="0 0 0 0 0 0 0 0 0 0 0 0 0 0 0 0 0 0 127 0"/>
<feOffset/>
<feGaussianBlur stdDeviation="0.5"/>
<feColorMatrix type="matrix" values="0 0 0 0 0.156863 0 0 0 0 0.160784 0 0 0 0 0.239216 0 0 0 0.04 0"/>
<feBlend mode="normal" in2="effect1_dropShadow" result="effect2_dropShadow"/>
<feBlend mode="normal" in="SourceGraphic" in2="effect2_dropShadow" result="shape"/>
</filter>
<filter id="filter4_dd" x="140.941" y="463.272" width="135.337" height="88.5672" filterUnits="userSpaceOnUse" color-interpolation-filters="sRGB">
<feFlood flood-opacity="0" result="BackgroundImageFix"/>
<feColorMatrix in="SourceAlpha" type="matrix" values="0 0 0 0 0 0 0 0 0 0 0 0 0 0 0 0 0 0 127 0"/>
<feOffset dy="2"/>
<feGaussianBlur stdDeviation="2"/>
<feColorMatrix type="matrix" values="0 0 0 0 0.376471 0 0 0 0 0.380392 0 0 0 0 0.439216 0 0 0 0.16 0"/>
<feBlend mode="normal" in2="BackgroundImageFix" result="effect1_dropShadow"/>
<feColorMatrix in="SourceAlpha" type="matrix" values="0 0 0 0 0 0 0 0 0 0 0 0 0 0 0 0 0 0 127 0"/>
<feOffset/>
<feGaussianBlur stdDeviation="0.5"/>
<feColorMatrix type="matrix" values="0 0 0 0 0.156863 0 0 0 0 0.160784 0 0 0 0 0.239216 0 0 0 0.04 0"/>
<feBlend mode="normal" in2="effect1_dropShadow" result="effect2_dropShadow"/>
<feBlend mode="normal" in="SourceGraphic" in2="effect2_dropShadow" result="shape"/>
</filter>
<filter id="filter5_dd" x="107.941" y="324.272" width="135.337" height="88.5675" filterUnits="userSpaceOnUse" color-interpolation-filters="sRGB">
<feFlood flood-opacity="0" result="BackgroundImageFix"/>
<feColorMatrix in="SourceAlpha" type="matrix" values="0 0 0 0 0 0 0 0 0 0 0 0 0 0 0 0 0 0 127 0"/>
<feOffset dy="2"/>
<feGaussianBlur stdDeviation="2"/>
<feColorMatrix type="matrix" values="0 0 0 0 0.376471 0 0 0 0 0.380392 0 0 0 0 0.439216 0 0 0 0.16 0"/>
<feBlend mode="normal" in2="BackgroundImageFix" result="effect1_dropShadow"/>
<feColorMatrix in="SourceAlpha" type="matrix" values="0 0 0 0 0 0 0 0 0 0 0 0 0 0 0 0 0 0 127 0"/>
<feOffset/>
<feGaussianBlur stdDeviation="0.5"/>
<feColorMatrix type="matrix" values="0 0 0 0 0.156863 0 0 0 0 0.160784 0 0 0 0 0.239216 0 0 0 0.04 0"/>
<feBlend mode="normal" in2="effect1_dropShadow" result="effect2_dropShadow"/>
<feBlend mode="normal" in="SourceGraphic" in2="effect2_dropShadow" result="shape"/>
</filter>
<filter id="filter6_dd" x="97" y="275" width="148.295" height="89.4577" filterUnits="userSpaceOnUse" color-interpolation-filters="sRGB">
<feFlood flood-opacity="0" result="BackgroundImageFix"/>
<feColorMatrix in="SourceAlpha" type="matrix" values="0 0 0 0 0 0 0 0 0 0 0 0 0 0 0 0 0 0 127 0"/>
<feOffset dy="2"/>
<feGaussianBlur stdDeviation="2"/>
<feColorMatrix type="matrix" values="0 0 0 0 0.376471 0 0 0 0 0.380392 0 0 0 0 0.439216 0 0 0 0.16 0"/>
<feBlend mode="normal" in2="BackgroundImageFix" result="effect1_dropShadow"/>
<feColorMatrix in="SourceAlpha" type="matrix" values="0 0 0 0 0 0 0 0 0 0 0 0 0 0 0 0 0 0 127 0"/>
<feOffset/>
<feGaussianBlur stdDeviation="0.5"/>
<feColorMatrix type="matrix" values="0 0 0 0 0.156863 0 0 0 0 0.160784 0 0 0 0 0.239216 0 0 0 0.04 0"/>
<feBlend mode="normal" in2="effect1_dropShadow" result="effect2_dropShadow"/>
<feBlend mode="normal" in="SourceGraphic" in2="effect2_dropShadow" result="shape"/>
</filter>
<filter id="filter7_dd" x="364.059" y="198.343" width="251.214" height="151.789" filterUnits="userSpaceOnUse" color-interpolation-filters="sRGB">
<feFlood flood-opacity="0" result="BackgroundImageFix"/>
<feColorMatrix in="SourceAlpha" type="matrix" values="0 0 0 0 0 0 0 0 0 0 0 0 0 0 0 0 0 0 127 0"/>
<feOffset dy="4"/>
<feGaussianBlur stdDeviation="4"/>
<feColorMatrix type="matrix" values="0 0 0 0 0.376471 0 0 0 0 0.380392 0 0 0 0 0.439216 0 0 0 0.16 0"/>
<feBlend mode="normal" in2="BackgroundImageFix" result="effect1_dropShadow"/>
<feColorMatrix in="SourceAlpha" type="matrix" values="0 0 0 0 0 0 0 0 0 0 0 0 0 0 0 0 0 0 127 0"/>
<feOffset/>
<feGaussianBlur stdDeviation="1"/>
<feColorMatrix type="matrix" values="0 0 0 0 0.156863 0 0 0 0 0.160784 0 0 0 0 0.239216 0 0 0 0.04 0"/>
<feBlend mode="normal" in2="effect1_dropShadow" result="effect2_dropShadow"/>
<feBlend mode="normal" in="SourceGraphic" in2="effect2_dropShadow" result="shape"/>
</filter>
<filter id="filter8_dd" x="465.061" y="238.844" width="204.639" height="119.829" filterUnits="userSpaceOnUse" color-interpolation-filters="sRGB">
<feFlood flood-opacity="0" result="BackgroundImageFix"/>
<feColorMatrix in="SourceAlpha" type="matrix" values="0 0 0 0 0 0 0 0 0 0 0 0 0 0 0 0 0 0 127 0"/>
<feOffset dy="0.5"/>
<feGaussianBlur stdDeviation="1"/>
<feColorMatrix type="matrix" values="0 0 0 0 0.376471 0 0 0 0 0.380392 0 0 0 0 0.439216 0 0 0 0.16 0"/>
<feBlend mode="normal" in2="BackgroundImageFix" result="effect1_dropShadow"/>
<feColorMatrix in="SourceAlpha" type="matrix" values="0 0 0 0 0 0 0 0 0 0 0 0 0 0 0 0 0 0 127 0"/>
<feOffset/>
<feGaussianBlur stdDeviation="0.5"/>
<feColorMatrix type="matrix" values="0 0 0 0 0.156863 0 0 0 0 0.160784 0 0 0 0 0.239216 0 0 0 0.08 0"/>
<feBlend mode="normal" in2="effect1_dropShadow" result="effect2_dropShadow"/>
<feBlend mode="normal" in="SourceGraphic" in2="effect2_dropShadow" result="shape"/>
</filter>
<filter id="filter9_dd" x="593.059" y="119.343" width="201.359" height="119.626" filterUnits="userSpaceOnUse" color-interpolation-filters="sRGB">
<feFlood flood-opacity="0" result="BackgroundImageFix"/>
<feColorMatrix in="SourceAlpha" type="matrix" values="0 0 0 0 0 0 0 0 0 0 0 0 0 0 0 0 0 0 127 0"/>
<feOffset dy="2"/>
<feGaussianBlur stdDeviation="2"/>
<feColorMatrix type="matrix" values="0 0 0 0 0.376471 0 0 0 0 0.380392 0 0 0 0 0.439216 0 0 0 0.16 0"/>
<feBlend mode="normal" in2="BackgroundImageFix" result="effect1_dropShadow"/>
<feColorMatrix in="SourceAlpha" type="matrix" values="0 0 0 0 0 0 0 0 0 0 0 0 0 0 0 0 0 0 127 0"/>
<feOffset/>
<feGaussianBlur stdDeviation="0.5"/>
<feColorMatrix type="matrix" values="0 0 0 0 0.156863 0 0 0 0 0.160784 0 0 0 0 0.239216 0 0 0 0.04 0"/>
<feBlend mode="normal" in2="effect1_dropShadow" result="effect2_dropShadow"/>
<feBlend mode="normal" in="SourceGraphic" in2="effect2_dropShadow" result="shape"/>
</filter>
<linearGradient id="paint0_linear" x1="400" y1="368" x2="214.5" y2="370.5" gradientUnits="userSpaceOnUse">
<stop stop-color="#84F0BA" stop-opacity="0"/>
<stop offset="0.270833" stop-color="#84F0BA"/>
<stop offset="0.552083" stop-color="#84F0BA" stop-opacity="0"/>
</linearGradient>
<linearGradient id="paint1_linear" x1="326.048" y1="366.809" x2="856.232" y2="504.974" gradientUnits="userSpaceOnUse">
<stop stop-color="#8B90A4"/>
<stop offset="1" stop-color="#28293D"/>
</linearGradient>
<linearGradient id="paint2_linear" x1="730.22" y1="242.918" x2="407.267" y2="67.9291" gradientUnits="userSpaceOnUse">
<stop stop-color="#C7C8D1"/>
<stop offset="0.442708" stop-color="#DCDDE6"/>
<stop offset="1" stop-color="#E8E9F5"/>
</linearGradient>
<linearGradient id="paint3_linear" x1="-1.71206" y1="14.7061" x2="85.7481" y2="102.166" gradientUnits="userSpaceOnUse">
<stop stop-color="#868AC1"/>
<stop offset="1" stop-color="#28293D"/>
</linearGradient>
<linearGradient id="paint4_linear" x1="-4.99927" y1="2.07576" x2="-3.80859" y2="26.7081" gradientUnits="userSpaceOnUse">
<stop stop-color="#868AC1"/>
<stop offset="1" stop-color="#28293D"/>
</linearGradient>
<linearGradient id="paint5_linear" x1="-4.99927" y1="2.07576" x2="-3.80859" y2="26.7081" gradientUnits="userSpaceOnUse">
<stop stop-color="#868AC1"/>
<stop offset="1" stop-color="#28293D"/>
</linearGradient>
<linearGradient id="paint6_linear" x1="496.544" y1="-1.57939" x2="600.406" y2="116.851" gradientUnits="userSpaceOnUse">
<stop stop-color="#57EBA1"/>
<stop offset="1" stop-color="#F0FFF8"/>
</linearGradient>
<linearGradient id="paint7_linear" x1="535.49" y1="68.8924" x2="582.927" y2="151.056" gradientUnits="userSpaceOnUse">
<stop stop-color="#57EBA1"/>
<stop offset="1" stop-color="#57EBA1" stop-opacity="0.45"/>
</linearGradient>
<linearGradient id="paint8_linear" x1="549.863" y1="126.691" x2="577.172" y2="173.733" gradientUnits="userSpaceOnUse">
<stop stop-color="#DEFFEF"/>
<stop offset="1" stop-color="#1EFF93"/>
</linearGradient>
<linearGradient id="paint9_linear" x1="553.744" y1="133.763" x2="578.769" y2="177.109" gradientUnits="userSpaceOnUse">
<stop stop-color="#39D98A"/>
<stop offset="1" stop-color="#47FFA4" stop-opacity="0.42"/>
</linearGradient>
<linearGradient id="paint10_linear" x1="-0.36535" y1="12.5162" x2="83.3447" y2="23.3705" gradientUnits="userSpaceOnUse">
<stop stop-color="#E4E4EB"/>
<stop offset="1" stop-color="#EDF0F4"/>
</linearGradient>
<linearGradient id="paint11_linear" x1="411.4" y1="515.293" x2="437.003" y2="572.857" gradientUnits="userSpaceOnUse">
<stop stop-color="#E4E4EB"/>
<stop offset="1" stop-color="#EDF0F4"/>
</linearGradient>
<linearGradient id="paint12_linear" x1="198.4" y1="483.293" x2="224.003" y2="540.857" gradientUnits="userSpaceOnUse">
<stop stop-color="#E4E4EB"/>
<stop offset="1" stop-color="#EDF0F4"/>
</linearGradient>
<linearGradient id="paint13_linear" x1="165.4" y1="344.293" x2="191.003" y2="401.857" gradientUnits="userSpaceOnUse">
<stop stop-color="#E4E4EB"/>
<stop offset="1" stop-color="#EDF0F4"/>
</linearGradient>
<linearGradient id="paint14_linear" x1="175.62" y1="288" x2="175.62" y2="358.065" gradientUnits="userSpaceOnUse">
<stop stop-color="#39D98A"/>
<stop offset="1" stop-color="#47FFA4" stop-opacity="0.42"/>
</linearGradient>
<linearGradient id="paint15_linear" x1="195.508" y1="336.113" x2="213.134" y2="361.362" gradientUnits="userSpaceOnUse">
<stop stop-color="#39D98A"/>
<stop offset="1" stop-color="#47FFA4" stop-opacity="0"/>
</linearGradient>
<linearGradient id="paint16_linear" x1="151.681" y1="336.59" x2="135.008" y2="363.267" gradientUnits="userSpaceOnUse">
<stop stop-color="#39D98A"/>
<stop offset="1" stop-color="#47FFA4" stop-opacity="0"/>
</linearGradient>
<linearGradient id="paint17_linear" x1="-0.36535" y1="12.5162" x2="83.3447" y2="23.3705" gradientUnits="userSpaceOnUse">
<stop stop-color="#E4E4EB"/>
<stop offset="1" stop-color="#EDF0F4"/>
</linearGradient>
<clipPath id="clip0">
<rect width="40" height="40" fill="white" transform="matrix(0.859406 -0.511293 0 1 221 286.452)"/>
</clipPath>
<clipPath id="clip1">
<rect width="14.6966" height="14.6966" fill="white" transform="matrix(0.866044 -0.499967 0.866044 0.499967 402.728 311.346)"/>
</clipPath>
<clipPath id="clip2">
<rect width="14.9849" height="14.9849" fill="white" transform="matrix(0.866495 -0.500228 0.866495 0.500228 501 328.136)"/>
</clipPath>
<clipPath id="clip3">
<rect width="10.1829" height="10.1829" fill="white" transform="matrix(0.866044 -0.499967 0.866044 0.499967 658.711 149.293)"/>
</clipPath>
</defs>
</svg>
