<svg width="24" height="24" viewBox="0 0 24 24" fill="none" xmlns="http://www.w3.org/2000/svg">
<path d="M12 1.5C6.20156 1.5 1.5 6.20156 1.5 12C1.5 17.7984 6.20156 22.5 12 22.5C17.7984 22.5 22.5 17.7984 22.5 12C22.5 6.20156 17.7984 1.5 12 1.5ZM12 20.7188C7.18594 20.7188 3.28125 16.8141 3.28125 12C3.28125 7.18594 7.18594 3.28125 12 3.28125C16.8141 3.28125 20.7188 7.18594 20.7188 12C20.7188 16.8141 16.8141 20.7188 12 20.7188Z" fill="#0E95F6"/>
<path d="M12 3.28125C7.18594 3.28125 3.28125 7.18594 3.28125 12C3.28125 16.8141 7.18594 20.7188 12 20.7188C16.8141 20.7188 20.7188 16.8141 20.7188 12C20.7188 7.18594 16.8141 3.28125 12 3.28125ZM6.75 9.86719C6.75601 9.5728 6.87718 9.29249 7.0875 9.08641C7.29782 8.88034 7.58055 8.76492 7.875 8.76492C8.16945 8.76492 8.45218 8.88034 8.6625 9.08641C8.87282 9.29249 8.99399 9.5728 9 9.86719C8.99399 10.1616 8.87282 10.4419 8.6625 10.648C8.45218 10.854 8.16945 10.9695 7.875 10.9695C7.58055 10.9695 7.29782 10.854 7.0875 10.648C6.87718 10.4419 6.75601 10.1616 6.75 9.86719ZM12 16.2422C9.99609 16.2422 8.35313 14.6648 8.25 12.6891C8.24873 12.6637 8.25264 12.6383 8.26149 12.6144C8.27034 12.5906 8.28395 12.5688 8.30149 12.5504C8.31903 12.532 8.34013 12.5173 8.36351 12.5073C8.3869 12.4973 8.41207 12.4922 8.4375 12.4922H9.56484C9.66328 12.4922 9.74766 12.5672 9.75469 12.6656C9.84375 13.8258 10.8164 14.7422 12 14.7422C13.1836 14.7422 14.1586 13.8258 14.2453 12.6656C14.2523 12.5672 14.3367 12.4922 14.4352 12.4922H15.5625C15.5879 12.4922 15.6131 12.4973 15.6365 12.5073C15.6599 12.5173 15.681 12.532 15.6985 12.5504C15.716 12.5688 15.7297 12.5906 15.7385 12.6144C15.7474 12.6383 15.7513 12.6637 15.75 12.6891C15.6469 14.6648 14.0039 16.2422 12 16.2422ZM16.125 10.9922C15.8306 10.9862 15.5503 10.865 15.3442 10.6547C15.1382 10.4444 15.0227 10.1616 15.0227 9.86719C15.0227 9.57273 15.1382 9.29001 15.3442 9.07969C15.5503 8.86936 15.8306 8.7482 16.125 8.74219C16.4194 8.7482 16.6997 8.86936 16.9058 9.07969C17.1118 9.29001 17.2273 9.57273 17.2273 9.86719C17.2273 10.1616 17.1118 10.4444 16.9058 10.6547C16.6997 10.865 16.4194 10.9862 16.125 10.9922Z" fill="#E5F6FF"/>
<path d="M6.75 9.86719C6.75 10.1656 6.86853 10.4517 7.0795 10.6627C7.29048 10.8737 7.57663 10.9922 7.875 10.9922C8.17337 10.9922 8.45952 10.8737 8.6705 10.6627C8.88147 10.4517 9 10.1656 9 9.86719C9 9.56882 8.88147 9.28267 8.6705 9.07169C8.45952 8.86071 8.17337 8.74219 7.875 8.74219C7.57663 8.74219 7.29048 8.86071 7.0795 9.07169C6.86853 9.28267 6.75 9.56882 6.75 9.86719ZM15.5625 12.4922H14.4352C14.3367 12.4922 14.2523 12.5672 14.2453 12.6656C14.1586 13.8258 13.1836 14.7422 12 14.7422C10.8164 14.7422 9.84375 13.8258 9.75469 12.6656C9.74766 12.5672 9.66328 12.4922 9.56484 12.4922H8.4375C8.41207 12.4922 8.3869 12.4973 8.36351 12.5073C8.34013 12.5173 8.31903 12.532 8.30149 12.5504C8.28395 12.5688 8.27034 12.5906 8.26149 12.6144C8.25264 12.6383 8.24873 12.6637 8.25 12.6891C8.35312 14.6648 9.99609 16.2422 12 16.2422C14.0039 16.2422 15.6469 14.6648 15.75 12.6891C15.7513 12.6637 15.7474 12.6383 15.7385 12.6144C15.7297 12.5906 15.716 12.5688 15.6985 12.5504C15.681 12.532 15.6599 12.5173 15.6365 12.5073C15.6131 12.4973 15.5879 12.4922 15.5625 12.4922ZM15 9.86719C15 10.1656 15.1185 10.4517 15.3295 10.6627C15.5405 10.8737 15.8266 10.9922 16.125 10.9922C16.4234 10.9922 16.7095 10.8737 16.9205 10.6627C17.1315 10.4517 17.25 10.1656 17.25 9.86719C17.25 9.56882 17.1315 9.28267 16.9205 9.07169C16.7095 8.86071 16.4234 8.74219 16.125 8.74219C15.8266 8.74219 15.5405 8.86071 15.3295 9.07169C15.1185 9.28267 15 9.56882 15 9.86719Z" fill="#0E95F6"/>
</svg>
