<svg width="1120" height="887" viewBox="0 0 1120 887" fill="none" xmlns="http://www.w3.org/2000/svg">
<g filter="url(#filter0_dd)">
<g filter="url(#filter1_b)">
<path fill-rule="evenodd" clip-rule="evenodd" d="M255.94 588.5L905.94 648L905.94 652.646C905.94 654.145 904.919 655.584 903.097 656.653L640.03 810.854C636.162 813.122 629.83 813.126 625.952 810.864L258.8 596.658C256.968 595.589 255.94 594.146 255.94 592.642L255.94 588.5Z" fill="url(#paint0_linear)"/>
</g>
<g filter="url(#filter2_b)">
<path fill-rule="evenodd" clip-rule="evenodd" d="M521.907 433.078C525.77 430.848 532.033 430.848 535.895 433.078L902.967 644.989C906.83 647.219 906.83 650.834 902.967 653.064L639.821 804.978C635.958 807.208 629.695 807.208 625.833 804.978L258.761 593.068C254.899 590.838 254.899 587.223 258.761 584.993L521.907 433.078Z" fill="#28293D"/>
</g>
<g opacity="0.45">
<mask id="mask0" mask-type="alpha" maskUnits="userSpaceOnUse" x="262" y="437" width="634" height="359">
<rect width="303.33" height="430.535" transform="matrix(0.861969 -0.488215 0.861969 0.488215 262.661 585.756)" fill="url(#paint1_radial)"/>
</mask>
<g mask="url(#mask0)">
<path opacity="0.15" d="M629.062 826.598L629.936 826.094L674.469 800.385L675.342 799.88L719.876 774.171L720.749 773.667L765.283 747.958L766.156 747.454L810.69 721.744L811.563 721.24L856.097 695.531L856.97 695.027L901.503 669.318L902.377 668.814L946.91 643.104L947.783 642.6L992.317 616.891L993.19 616.387L992.318 615.883L947.822 590.196L946.95 589.692L902.454 564.005L901.582 563.501L857.086 537.814L856.214 537.311L811.719 511.623L810.846 511.12L766.351 485.433L765.478 484.929L720.983 459.242L720.11 458.738L675.615 433.051L674.742 432.547L630.247 406.86L629.374 406.356L584.879 380.669L584.007 380.165L583.133 380.669L447.786 458.805L446.913 459.309L311.566 537.445L310.692 537.949L174.472 616.59L310.576 695.162L311.448 695.666L446.679 773.735L447.552 774.239L582.783 852.308L583.656 852.811L584.529 852.307L629.062 826.598ZM539.472 406.882L584.006 381.173L628.501 406.86L583.968 432.57L539.472 406.882ZM584.84 433.073L629.374 407.364L673.869 433.051L629.336 458.76L584.84 433.073ZM630.208 459.264L674.742 433.555L719.237 459.242L674.703 484.951L630.208 459.264ZM675.576 485.455L720.109 459.746L764.605 485.433L720.071 511.142L675.576 485.455ZM720.944 511.646L765.477 485.937L809.973 511.624L765.439 537.333L720.944 511.646ZM766.312 537.837L810.845 512.127L855.341 537.815L810.807 563.524L766.312 537.837ZM811.68 564.028L856.213 538.318L900.709 564.006L856.175 589.715L811.68 564.028ZM857.047 590.219L901.581 564.509L946.077 590.196L901.543 615.906L857.047 590.219ZM902.415 616.409L946.949 590.7L991.444 616.387L946.911 642.097L902.415 616.409ZM494.065 433.096L538.599 407.386L583.094 433.074L538.561 458.783L494.065 433.096ZM539.433 459.287L583.967 433.577L628.462 459.264L583.929 484.974L539.433 459.287ZM584.801 485.477L629.335 459.768L673.83 485.455L629.297 511.165L584.801 485.477ZM630.169 511.668L674.703 485.959L719.198 511.646L674.665 537.356L630.169 511.668ZM675.537 537.859L720.071 512.15L764.566 537.837L720.032 563.546L675.537 537.859ZM720.905 564.05L765.438 538.341L809.934 564.028L765.4 589.737L720.905 564.05ZM766.273 590.241L810.806 564.532L855.302 590.219L810.768 615.928L766.273 590.241ZM811.641 616.432L856.174 590.723L900.67 616.41L856.136 642.119L811.641 616.432ZM857.009 642.623L901.542 616.914L946.038 642.601L901.504 668.31L857.009 642.623ZM448.659 459.309L493.192 433.6L537.688 459.287L493.154 484.996L448.659 459.309ZM494.026 485.5L538.56 459.791L583.055 485.478L538.522 511.187L494.026 485.5ZM539.394 511.691L583.928 485.982L628.423 511.669L583.89 537.378L539.394 511.691ZM584.762 537.882L629.296 512.172L673.791 537.86L629.258 563.569L584.762 537.882ZM630.13 564.073L674.664 538.363L719.159 564.051L674.626 589.76L630.13 564.073ZM675.498 590.263L720.032 564.554L764.527 590.241L719.994 615.951L675.498 590.263ZM720.866 616.454L765.4 590.745L809.895 616.432L765.361 642.142L720.866 616.454ZM766.234 642.645L810.767 616.936L855.263 642.623L810.729 668.332L766.234 642.645ZM811.602 668.836L856.135 643.127L900.631 668.814L856.097 694.523L811.602 668.836ZM403.252 485.522L447.785 459.813L492.281 485.5L447.747 511.21L403.252 485.522ZM448.62 511.713L493.153 486.004L537.649 511.691L493.115 537.4L448.62 511.713ZM493.988 537.904L538.521 512.195L583.017 537.882L538.483 563.591L493.988 537.904ZM539.355 564.095L583.889 538.386L628.385 564.073L583.851 589.782L539.355 564.095ZM584.723 590.286L629.257 564.577L673.752 590.264L629.219 615.973L584.723 590.286ZM630.091 616.477L674.625 590.768L719.12 616.455L674.587 642.164L630.091 616.477ZM675.459 642.668L719.993 616.958L764.488 642.646L719.955 668.355L675.459 642.668ZM720.827 668.859L765.361 643.149L809.856 668.837L765.323 694.546L720.827 668.859ZM766.195 695.049L810.729 669.34L855.224 695.027L810.69 720.737L766.195 695.049ZM357.845 511.736L402.379 486.026L446.874 511.714L402.34 537.423L357.845 511.736ZM403.213 537.927L447.746 512.217L492.242 537.905L447.708 563.614L403.213 537.927ZM448.581 564.117L493.114 538.408L537.61 564.095L493.076 589.805L448.581 564.117ZM493.949 590.308L538.482 564.599L582.978 590.286L538.444 615.996L493.949 590.308ZM539.317 616.499L583.85 590.79L628.346 616.477L583.812 642.186L539.317 616.499ZM584.684 642.69L629.218 616.981L673.714 642.668L629.18 668.377L584.684 642.69ZM630.052 668.881L674.586 643.172L719.081 668.859L674.548 694.568L630.052 668.881ZM675.42 695.072L719.954 669.363L764.449 695.05L719.916 720.759L675.42 695.072ZM720.788 721.263L765.322 695.554L809.817 721.241L765.284 746.95L720.788 721.263ZM312.438 537.949L356.972 512.24L401.467 537.927L356.934 563.636L312.438 537.949ZM357.806 564.14L402.34 538.431L446.835 564.118L402.301 589.827L357.806 564.14ZM403.174 590.331L447.708 564.622L492.203 590.309L447.669 616.018L403.174 590.331ZM448.542 616.522L493.075 590.812L537.571 616.5L493.037 642.209L448.542 616.522ZM493.91 642.713L538.443 617.003L582.939 642.691L538.405 668.4L493.91 642.713ZM539.278 668.903L583.811 643.194L628.307 668.881L583.773 694.591L539.278 668.903ZM584.646 695.094L629.179 669.385L673.675 695.072L629.141 720.782L584.646 695.094ZM630.013 721.285L674.547 695.576L719.043 721.263L674.509 746.972L630.013 721.285ZM675.381 747.476L719.915 721.767L764.41 747.454L719.877 773.163L675.381 747.476ZM267.031 564.162L311.565 538.453L356.06 564.14L311.527 589.85L267.031 564.162ZM312.399 590.353L356.933 564.644L401.428 590.331L356.895 616.04L312.399 590.353ZM357.767 616.544L402.301 590.835L446.796 616.522L402.263 642.231L357.767 616.544ZM403.135 642.735L447.669 617.026L492.164 642.713L447.63 668.422L403.135 642.735ZM448.503 668.926L493.037 643.217L537.532 668.904L492.998 694.613L448.503 668.926ZM493.871 695.117L538.404 669.408L582.9 695.095L538.366 720.804L493.871 695.117ZM539.239 721.308L583.772 695.598L628.268 721.286L583.734 746.995L539.239 721.308ZM584.607 747.499L629.14 721.789L673.636 747.477L629.102 773.186L584.607 747.499ZM629.975 773.689L674.508 747.98L719.004 773.667L674.47 799.377L629.975 773.689ZM221.625 590.376L266.158 564.666L310.654 590.354L266.12 616.063L221.625 590.376ZM266.992 616.567L311.526 590.857L356.021 616.545L311.488 642.254L266.992 616.567ZM312.36 642.758L356.894 617.048L401.389 642.735L356.856 668.445L312.36 642.758ZM357.728 668.948L402.262 643.239L446.757 668.926L402.224 694.636L357.728 668.948ZM403.096 695.139L447.63 669.43L492.125 695.117L447.592 720.827L403.096 695.139ZM448.464 721.33L492.998 695.621L537.493 721.308L492.959 747.017L448.464 721.33ZM493.832 747.521L538.366 721.812L582.861 747.499L538.327 773.208L493.832 747.521ZM539.2 773.712L583.733 748.003L628.229 773.69L583.695 799.399L539.2 773.712ZM584.568 799.903L629.101 774.194L673.597 799.881L629.063 825.59L584.568 799.903ZM176.218 616.589L220.751 590.88L265.247 616.567L220.713 642.276L176.218 616.589ZM221.586 642.78L266.119 617.071L310.615 642.758L266.081 668.467L221.586 642.78ZM266.954 668.971L311.487 643.262L355.983 668.949L311.449 694.658L266.954 668.971ZM312.321 695.162L356.855 669.453L401.35 695.14L356.817 720.849L312.321 695.162ZM357.689 721.353L402.223 695.643L446.718 721.331L402.185 747.04L357.689 721.353ZM403.057 747.544L447.591 721.834L492.086 747.522L447.553 773.231L403.057 747.544ZM448.425 773.734L492.959 748.025L537.454 773.712L492.921 799.422L448.425 773.734ZM493.793 799.925L538.327 774.216L582.822 799.903L538.288 825.613L493.793 799.925ZM539.161 826.116L583.695 800.407L628.19 826.094L583.656 851.803L539.161 826.116Z" fill="#8F90A6"/>
<path d="M309.743 642.758L311.489 641.749L313.234 642.757L311.488 643.765L309.743 642.758ZM220.752 591.383L222.498 590.375L220.753 589.368L219.007 590.376L220.752 591.383ZM356.875 643.754L358.621 642.745L356.876 641.738L355.13 642.746L356.875 643.754ZM266.12 617.574L267.866 616.566L266.121 615.558L264.375 616.567L266.12 617.574ZM311.507 617.563L313.253 616.555L311.509 615.547L309.762 616.555L311.507 617.563ZM220.732 617.585L222.479 616.577L220.734 615.57L218.987 616.578L220.732 617.585ZM266.081 669.978L267.827 668.97L266.082 667.963L264.336 668.971L266.081 669.978ZM311.468 669.967L313.215 668.959L311.47 667.951L309.723 668.96L311.468 669.967ZM220.714 641.772L218.968 642.78L220.713 643.787L222.459 642.779L220.714 641.772ZM266.1 643.776L267.847 642.768L266.102 641.761L264.355 642.769L266.1 643.776ZM311.546 565.159L313.292 564.15L311.547 563.143L309.801 564.151L311.546 565.159ZM266.139 591.372L267.886 590.364L266.141 589.356L264.394 590.365L266.139 591.372ZM356.914 591.349L358.66 590.341L356.915 589.334L355.169 590.342L356.914 591.349ZM402.282 617.54L404.028 616.532L402.283 615.525L400.537 616.533L402.282 617.54ZM356.894 617.552L358.641 616.543L356.896 615.536L355.149 616.544L356.894 617.552ZM311.526 591.361L313.273 590.352L311.528 589.345L309.782 590.353L311.526 591.361ZM266.159 565.17L267.905 564.162L266.16 563.154L264.414 564.162L266.159 565.17ZM171.856 614.07L170.983 614.574L174.473 616.589L170.98 618.605L171.853 619.109L175.345 617.093L178.835 619.107L179.708 618.603L176.219 616.588L179.711 614.572L178.839 614.068L175.346 616.085L171.856 614.07ZM447.708 565.125L449.454 564.117L447.709 563.109L445.963 564.118L447.708 565.125ZM356.972 512.743L358.719 511.735L356.974 510.728L355.227 511.736L356.972 512.743ZM493.095 565.114L494.842 564.105L493.097 563.098L491.35 564.106L493.095 565.114ZM402.34 538.934L404.086 537.926L402.342 536.918L400.595 537.927L402.34 538.934ZM447.727 538.923L449.474 537.915L447.729 536.907L445.983 537.915L447.727 538.923ZM356.953 538.945L358.699 537.937L356.954 536.93L355.208 537.938L356.953 538.945ZM402.301 591.338L404.048 590.33L402.303 589.323L400.556 590.331L402.301 591.338ZM447.689 591.327L449.435 590.319L447.69 589.311L445.944 590.32L447.689 591.327ZM356.935 563.132L355.188 564.14L356.933 565.147L358.68 564.139L356.935 563.132ZM402.321 565.136L404.067 564.128L402.322 563.121L400.576 564.129L402.321 565.136ZM447.766 486.519L449.513 485.51L447.768 484.503L446.021 485.511L447.766 486.519ZM402.36 512.732L404.106 511.724L402.361 510.716L400.615 511.725L402.36 512.732ZM493.134 512.709L494.881 511.701L493.136 510.694L491.389 511.702L493.134 512.709ZM538.502 538.9L540.249 537.892L538.504 536.885L536.757 537.893L538.502 538.9ZM493.115 538.912L494.861 537.903L493.116 536.896L491.37 537.904L493.115 538.912ZM447.747 512.721L449.493 511.712L447.748 510.705L446.002 511.713L447.747 512.721ZM402.379 486.53L404.125 485.522L402.38 484.514L400.634 485.522L402.379 486.53ZM308.077 535.43L307.203 535.934L310.693 537.949L307.2 539.965L308.073 540.469L311.566 538.453L315.056 540.467L315.929 539.963L312.439 537.948L315.932 535.932L315.059 535.428L311.567 537.445L308.077 535.43ZM583.928 486.485L585.675 485.477L583.93 484.469L582.183 485.477L583.928 486.485ZM493.193 434.103L494.939 433.095L493.194 432.088L491.448 433.096L493.193 434.103ZM629.316 486.474L631.062 485.465L629.317 484.458L627.571 485.466L629.316 486.474ZM538.56 460.294L540.307 459.286L538.562 458.278L536.816 459.287L538.56 460.294ZM583.948 460.283L585.694 459.275L583.949 458.267L582.203 459.275L583.948 460.283ZM493.173 460.305L494.92 459.297L493.175 458.29L491.428 459.298L493.173 460.305ZM538.522 512.698L540.268 511.69L538.523 510.683L536.777 511.691L538.522 512.698ZM583.909 512.687L585.655 511.679L583.91 510.671L582.164 511.68L583.909 512.687ZM493.155 484.492L491.409 485.5L493.154 486.507L494.9 485.499L493.155 484.492ZM538.541 486.496L540.287 485.488L538.543 484.481L536.796 485.489L538.541 486.496ZM583.987 407.878L585.733 406.87L583.988 405.863L582.242 406.871L583.987 407.878ZM674.742 434.058L676.488 433.05L674.743 432.043L672.997 433.051L674.742 434.058ZM629.376 405.852L627.629 406.86L629.374 407.867L631.12 406.859L629.376 405.852ZM538.58 434.092L540.326 433.084L538.581 432.076L536.835 433.084L538.58 434.092ZM629.355 434.069L631.101 433.061L629.356 432.054L627.61 433.062L629.355 434.069ZM674.723 460.26L676.469 459.252L674.724 458.245L672.978 459.253L674.723 460.26ZM629.335 460.271L631.082 459.263L629.337 458.256L627.59 459.264L629.335 460.271ZM583.967 434.081L585.714 433.072L583.969 432.065L582.222 433.073L583.967 434.081ZM538.599 407.89L540.346 406.882L538.601 405.874L536.854 406.882L538.599 407.89ZM584.007 380.165L580.517 378.15L579.644 378.654L583.134 380.669L579.641 382.685L580.514 383.189L584.007 381.172L587.496 383.187L588.37 382.683L584.88 380.668L588.373 378.652L587.5 378.148L584.007 380.165ZM444.297 456.79L443.424 457.294L446.914 459.309L443.421 461.325L444.293 461.829L447.786 459.813L451.276 461.827L452.149 461.323L448.659 459.308L452.152 457.292L451.28 456.788L447.787 458.805L444.297 456.79ZM447.591 722.338L449.338 721.329L447.593 720.322L445.846 721.33L447.591 722.338ZM356.855 669.956L358.602 668.948L356.857 667.94L355.111 668.948L356.855 669.956ZM492.979 722.326L494.725 721.318L492.98 720.311L491.234 721.319L492.979 722.326ZM402.223 696.147L403.97 695.138L402.225 694.131L400.478 695.139L402.223 696.147ZM447.611 696.135L449.357 695.127L447.612 694.12L445.866 695.128L447.611 696.135ZM356.836 696.158L358.582 695.15L356.838 694.142L355.091 695.151L356.836 696.158ZM402.184 748.551L403.931 747.543L402.186 746.535L400.44 747.544L402.184 748.551ZM447.572 748.54L449.318 747.531L447.573 746.524L445.827 747.532L447.572 748.54ZM356.818 720.344L355.072 721.353L356.817 722.36L358.563 721.352L356.818 720.344ZM402.204 722.349L403.95 721.341L402.205 720.333L400.459 721.341L402.204 722.349ZM447.65 643.731L449.396 642.723L447.651 641.716L445.905 642.724L447.65 643.731ZM402.243 669.945L403.989 668.936L402.244 667.929L400.498 668.937L402.243 669.945ZM493.018 669.922L494.764 668.914L493.019 667.907L491.273 668.915L493.018 669.922ZM538.385 696.113L540.132 695.105L538.387 694.097L536.64 695.106L538.385 696.113ZM492.998 696.124L494.744 695.116L493 694.109L491.253 695.117L492.998 696.124ZM447.63 669.933L449.377 668.925L447.632 667.918L445.885 668.926L447.63 669.933ZM402.262 643.742L404.009 642.734L402.264 641.727L400.517 642.735L402.262 643.742ZM307.96 692.643L307.087 693.147L310.577 695.162L307.084 697.178L307.956 697.682L311.449 695.665L314.939 697.68L315.812 697.176L312.322 695.161L315.815 693.145L314.943 692.641L311.45 694.657L307.96 692.643ZM583.812 643.698L585.558 642.689L583.813 641.682L582.067 642.69L583.812 643.698ZM493.076 591.316L494.822 590.308L493.077 589.3L491.331 590.308L493.076 591.316ZM629.199 643.686L630.945 642.678L629.2 641.671L627.454 642.679L629.199 643.686ZM538.444 617.507L540.19 616.498L538.445 615.491L536.699 616.499L538.444 617.507ZM583.831 617.495L585.578 616.487L583.833 615.48L582.086 616.488L583.831 617.495ZM493.056 617.518L494.803 616.51L493.058 615.502L491.311 616.511L493.056 617.518ZM538.405 669.911L540.151 668.903L538.406 667.895L536.66 668.904L538.405 669.911ZM583.792 669.9L585.539 668.891L583.794 667.884L582.047 668.892L583.792 669.9ZM493.038 641.704L491.292 642.713L493.037 643.72L494.783 642.712L493.038 641.704ZM538.424 643.709L540.171 642.701L538.426 641.693L536.679 642.701L538.424 643.709ZM583.87 565.091L585.616 564.083L583.872 563.076L582.125 564.084L583.87 565.091ZM538.463 591.305L540.21 590.296L538.465 589.289L536.718 590.297L538.463 591.305ZM629.238 591.282L630.984 590.274L629.239 589.267L627.493 590.275L629.238 591.282ZM674.606 617.473L676.352 616.465L674.607 615.457L672.861 616.466L674.606 617.473ZM629.218 617.484L630.965 616.476L629.22 615.469L627.474 616.477L629.218 617.484ZM583.851 591.293L585.597 590.285L583.852 589.278L582.106 590.286L583.851 591.293ZM538.483 565.102L540.229 564.094L538.484 563.087L536.738 564.095L538.483 565.102ZM444.18 614.003L443.307 614.507L446.797 616.522L443.304 618.538L444.177 619.042L447.669 617.025L451.159 619.04L452.032 618.536L448.543 616.521L452.035 614.505L451.163 614.001L447.67 616.017L444.18 614.003ZM720.032 565.057L721.778 564.049L720.034 563.042L718.287 564.05L720.032 565.057ZM629.296 512.676L631.043 511.668L629.298 510.66L627.551 511.668L629.296 512.676ZM765.419 565.046L767.166 564.038L765.421 563.031L763.674 564.039L765.419 565.046ZM674.664 538.867L676.411 537.858L674.666 536.851L672.919 537.859L674.664 538.867ZM720.052 538.855L721.798 537.847L720.053 536.84L718.307 537.848L720.052 538.855ZM629.277 538.878L631.023 537.87L629.278 536.862L627.532 537.87L629.277 538.878ZM674.625 591.271L676.372 590.263L674.627 589.255L672.88 590.263L674.625 591.271ZM720.013 591.26L721.759 590.251L720.014 589.244L718.268 590.252L720.013 591.26ZM629.259 563.064L627.512 564.073L629.257 565.08L631.004 564.072L629.259 563.064ZM674.645 565.069L676.391 564.061L674.646 563.053L672.9 564.061L674.645 565.069ZM720.09 486.451L721.837 485.443L720.092 484.436L718.345 485.444L720.09 486.451ZM810.846 512.631L812.592 511.623L810.847 510.615L809.101 511.623L810.846 512.631ZM765.479 484.424L763.733 485.433L765.478 486.44L767.224 485.432L765.479 484.424ZM674.684 512.664L676.43 511.656L674.685 510.649L672.939 511.657L674.684 512.664ZM765.458 512.642L767.205 511.634L765.46 510.626L763.713 511.635L765.458 512.642ZM810.826 538.833L812.573 537.825L810.828 536.817L809.081 537.826L810.826 538.833ZM765.439 538.844L767.185 537.836L765.44 536.829L763.694 537.837L765.439 538.844ZM720.071 512.653L721.817 511.645L720.072 510.638L718.326 511.646L720.071 512.653ZM674.703 486.462L676.449 485.454L674.705 484.447L672.958 485.455L674.703 486.462ZM716.621 456.723L715.748 457.227L719.238 459.241L715.745 461.258L716.617 461.762L720.11 459.745L723.6 461.76L724.473 461.256L720.983 459.241L724.476 457.225L723.604 456.721L720.111 458.737L716.621 456.723ZM580.401 535.363L579.528 535.867L583.017 537.881L579.525 539.898L580.397 540.402L583.89 538.385L587.38 540.4L588.253 539.896L584.763 537.881L588.256 535.865L587.383 535.361L583.891 537.377L580.401 535.363ZM629.063 827.101L630.809 826.093L629.064 825.086L627.318 826.094L629.063 827.101ZM583.695 800.91L585.441 799.902L583.696 798.895L581.95 799.903L583.695 800.91ZM492.959 748.528L494.706 747.52L492.961 746.513L491.214 747.521L492.959 748.528ZM629.082 800.899L630.829 799.891L629.084 798.883L627.337 799.892L629.082 800.899ZM538.327 774.719L540.073 773.711L538.329 772.704L536.582 773.712L538.327 774.719ZM583.714 774.708L585.461 773.7L583.716 772.693L581.969 773.701L583.714 774.708ZM492.94 774.731L494.686 773.722L492.941 772.715L491.195 773.723L492.94 774.731ZM538.288 827.124L540.035 826.115L538.29 825.108L536.543 826.116L538.288 827.124ZM583.675 827.112L585.422 826.104L583.677 825.097L581.931 826.105L583.675 827.112ZM492.922 798.917L491.175 799.925L492.92 800.933L494.667 799.924L492.922 798.917ZM538.308 800.921L540.054 799.913L538.309 798.906L536.563 799.914L538.308 800.921ZM583.753 722.304L585.5 721.296L583.755 720.288L582.008 721.297L583.753 722.304ZM538.347 748.517L540.093 747.509L538.348 746.502L536.602 747.51L538.347 748.517ZM629.121 748.495L630.868 747.487L629.123 746.479L627.376 747.487L629.121 748.495ZM674.489 774.686L676.236 773.677L674.491 772.67L672.744 773.678L674.489 774.686ZM674.47 800.888L676.216 799.88L674.471 798.872L672.725 799.88L674.47 800.888ZM629.102 774.697L630.848 773.689L629.103 772.681L627.357 773.69L629.102 774.697ZM583.734 748.506L585.48 747.498L583.735 746.49L581.989 747.499L583.734 748.506ZM538.366 722.315L540.112 721.307L538.367 720.3L536.621 721.308L538.366 722.315ZM444.064 771.215L443.19 771.72L446.68 773.734L443.187 775.751L444.06 776.254L447.553 774.238L451.043 776.253L451.916 775.748L448.426 773.734L451.919 771.717L451.046 771.214L447.553 773.23L444.064 771.215ZM580.167 849.788L579.294 850.292L582.784 852.307L579.291 854.323L580.164 854.827L583.656 852.811L587.146 854.825L588.019 854.321L584.53 852.306L588.022 850.29L587.15 849.786L583.657 851.803L580.167 849.788ZM765.283 748.461L767.03 747.453L765.285 746.446L763.538 747.454L765.283 748.461ZM719.915 722.27L721.662 721.262L719.917 720.255L718.17 721.263L719.915 722.27ZM629.18 669.888L630.926 668.88L629.181 667.873L627.435 668.881L629.18 669.888ZM765.303 722.259L767.049 721.251L765.304 720.243L763.558 721.252L765.303 722.259ZM674.547 696.079L676.294 695.071L674.549 694.064L672.803 695.072L674.547 696.079ZM719.935 696.068L721.681 695.06L719.936 694.053L718.19 695.061L719.935 696.068ZM629.16 696.091L630.907 695.082L629.162 694.075L627.415 695.083L629.16 696.091ZM674.509 748.484L676.255 747.475L674.51 746.468L672.764 747.476L674.509 748.484ZM719.896 748.472L721.642 747.464L719.897 746.457L718.151 747.465L719.896 748.472ZM629.142 720.277L627.396 721.285L629.141 722.293L630.887 721.284L629.142 720.277ZM674.528 722.281L676.274 721.273L674.529 720.266L672.783 721.274L674.528 722.281ZM719.974 643.664L721.72 642.656L719.975 641.648L718.229 642.656L719.974 643.664ZM674.567 669.877L676.313 668.869L674.568 667.862L672.822 668.87L674.567 669.877ZM765.342 669.855L767.088 668.847L765.343 667.839L763.597 668.847L765.342 669.855ZM810.709 696.046L812.456 695.037L810.711 694.03L808.965 695.038L810.709 696.046ZM810.69 722.248L812.436 721.24L810.692 720.232L808.945 721.24L810.69 722.248ZM765.322 696.057L767.069 695.049L765.324 694.041L763.577 695.049L765.322 696.057ZM719.954 669.866L721.701 668.858L719.956 667.85L718.209 668.859L719.954 669.866ZM674.586 643.675L676.333 642.667L674.588 641.66L672.841 642.668L674.586 643.675ZM580.284 692.575L579.411 693.08L582.901 695.094L579.408 697.111L580.28 697.614L583.773 695.598L587.263 697.613L588.136 697.108L584.646 695.094L588.139 693.077L587.267 692.574L583.774 694.59L580.284 692.575ZM716.388 771.148L715.515 771.652L719.004 773.667L715.512 775.683L716.384 776.187L719.877 774.171L723.367 776.185L724.24 775.681L720.75 773.666L724.243 771.65L723.37 771.146L719.878 773.163L716.388 771.148ZM901.504 669.821L903.25 668.813L901.505 667.805L899.759 668.814L901.504 669.821ZM856.136 643.63L857.882 642.622L856.137 641.615L854.391 642.623L856.136 643.63ZM765.4 591.248L767.146 590.24L765.401 589.233L763.655 590.241L765.4 591.248ZM901.523 643.619L903.27 642.611L901.525 641.603L899.778 642.612L901.523 643.619ZM810.768 617.439L812.514 616.431L810.769 615.424L809.023 616.432L810.768 617.439ZM856.155 617.428L857.902 616.42L856.157 615.412L854.41 616.421L856.155 617.428ZM765.381 617.45L767.127 616.442L765.382 615.435L763.636 616.443L765.381 617.45ZM810.729 669.843L812.475 668.835L810.73 667.828L808.984 668.836L810.729 669.843ZM856.116 669.832L857.863 668.824L856.118 667.817L854.371 668.825L856.116 669.832ZM765.363 641.637L763.616 642.645L765.361 643.653L767.107 642.644L765.363 641.637ZM810.748 643.641L812.495 642.633L810.75 641.626L809.003 642.634L810.748 643.641ZM856.194 565.024L857.941 564.016L856.196 563.008L854.449 564.016L856.194 565.024ZM946.949 591.203L948.696 590.195L946.951 589.188L945.204 590.196L946.949 591.203ZM901.583 562.997L899.837 564.005L901.581 565.013L903.328 564.004L901.583 562.997ZM810.787 591.237L812.534 590.229L810.789 589.222L809.042 590.23L810.787 591.237ZM901.562 591.215L903.308 590.206L901.563 589.199L899.817 590.207L901.562 591.215ZM946.93 617.406L948.676 616.397L946.931 615.39L945.185 616.398L946.93 617.406ZM946.91 643.608L948.657 642.599L946.912 641.592L945.166 642.6L946.91 643.608ZM901.543 617.417L903.289 616.409L901.544 615.401L899.798 616.409L901.543 617.417ZM856.175 591.226L857.921 590.218L856.176 589.21L854.43 590.219L856.175 591.226ZM810.807 565.035L812.553 564.027L810.808 563.019L809.062 564.028L810.807 565.035ZM988.829 613.868L987.955 614.372L991.445 616.387L987.952 618.403L988.825 618.907L992.318 616.89L995.807 618.905L996.681 618.401L993.191 616.386L996.684 614.37L995.811 613.866L992.318 615.883L988.829 613.868ZM852.725 535.295L851.852 535.799L855.341 537.814L851.849 539.831L852.721 540.334L856.214 538.318L859.704 540.332L860.577 539.828L857.087 537.814L860.58 535.797L859.708 535.294L856.215 537.31L852.725 535.295ZM716.504 613.935L715.631 614.439L719.121 616.454L715.628 618.471L716.501 618.974L719.994 616.958L723.483 618.973L724.357 618.468L720.867 616.454L724.36 614.437L723.487 613.934L719.994 615.95L716.504 613.935ZM852.608 692.508L851.735 693.012L855.225 695.027L851.732 697.043L852.604 697.547L856.097 695.53L859.587 697.545L860.46 697.041L856.97 695.026L860.463 693.01L859.591 692.506L856.098 694.523L852.608 692.508Z" fill="#8F90A6"/>
</g>
</g>
<rect width="67.1327" height="4.85297" rx="1.5" transform="matrix(0.874237 0.504698 -0.874237 0.504698 374.672 547.041)" fill="#555770"/>
<rect width="70.368" height="4.85296" rx="1.5" transform="matrix(0.874237 0.504697 -0.874237 0.504697 357.702 556.838)" fill="#555770"/>
<rect width="29.9266" height="4.85295" rx="1.5" transform="matrix(0.874238 0.504697 -0.874238 0.504697 465.889 609.497)" fill="#555770"/>
<rect width="40.4414" height="4.85296" rx="1.5" transform="matrix(0.874237 0.504697 -0.874237 0.504697 366.187 551.939)" fill="#555770"/>
<rect width="60.662" height="4.85296" rx="1.5" transform="matrix(0.874237 0.504697 -0.874237 0.504697 407.199 575.615)" fill="#555770"/>
<rect width="40.4413" height="4.85296" rx="1.5" transform="matrix(0.874238 0.504697 -0.874238 0.504697 439.019 584.188)" fill="#555770"/>
<rect width="47.7208" height="4.85296" rx="1.5" transform="matrix(0.874236 0.504698 -0.874236 0.504698 480.031 607.865)" fill="#555770"/>
<rect width="67.1327" height="4.85297" rx="1.5" transform="matrix(0.874237 0.504698 -0.874237 0.504698 349.217 561.737)" fill="#555770"/>
<rect width="70.368" height="4.85296" rx="1.5" transform="matrix(0.874237 0.504697 -0.874237 0.504697 332.246 571.533)" fill="#555770"/>
<rect width="10.5148" height="4.85297" rx="1.5" transform="matrix(0.874238 0.504697 -0.874238 0.504697 440.433 624.193)" fill="#555770"/>
<rect width="40.4414" height="4.85296" rx="1.5" transform="matrix(0.874237 0.504697 -0.874237 0.504697 340.731 566.635)" fill="#555770"/>
<rect width="60.662" height="4.85296" rx="1.5" transform="matrix(0.874237 0.504697 -0.874237 0.504697 381.744 590.311)" fill="#555770"/>
<rect width="14.5589" height="4.85295" rx="1.5" transform="matrix(0.87424 0.504696 -0.87424 0.504696 413.563 598.884)" fill="#555770"/>
<rect width="8.08829" height="4.85298" rx="1.5" transform="matrix(0.874236 0.504698 -0.874236 0.504698 431.948 609.497)" fill="#555770"/>
<rect width="40.4413" height="4.85296" rx="1.5" transform="matrix(0.874238 0.504697 -0.874238 0.504697 323.761 576.432)" fill="#555770"/>
<rect width="25.0736" height="4.85296" rx="1.5" transform="matrix(0.874237 0.504698 -0.874237 0.504698 306.79 586.229)" fill="#555770"/>
<rect width="13.75" height="4.85295" rx="1.5" transform="matrix(0.874239 0.504696 -0.874239 0.504696 334.367 602.15)" fill="#555770"/>
<rect width="37.2061" height="4.85297" rx="1.5" transform="matrix(0.874236 0.504698 -0.874236 0.504698 356.288 605.007)" fill="#555770"/>
<rect width="12.9412" height="4.85297" rx="1.5" transform="matrix(0.874235 0.504698 -0.874235 0.504698 315.276 581.331)" fill="#555770"/>
<rect width="21.0295" height="4.85296" rx="1.5" transform="matrix(0.874237 0.504697 -0.874237 0.504697 332.246 591.128)" fill="#555770"/>
<rect width="14.5589" height="4.85296" rx="1.5" transform="matrix(0.874236 0.504698 -0.874236 0.504698 364.773 600.109)" fill="#555770"/>
<rect width="33.1619" height="4.85297" rx="1.5" transform="matrix(0.874236 0.504698 -0.874236 0.504698 383.158 610.722)" fill="#555770"/>
<rect width="67.1326" height="4.85296" rx="1.5" transform="matrix(0.874238 0.504697 -0.874238 0.504697 442.672 508.041)" fill="#555770"/>
<rect width="70.368" height="4.85296" rx="1.5" transform="matrix(0.874237 0.504697 -0.874237 0.504697 425.702 517.838)" fill="#555770"/>
<rect width="29.9266" height="4.85296" rx="1.5" transform="matrix(0.874238 0.504697 -0.874238 0.504697 533.889 570.497)" fill="#555770"/>
<rect width="40.4413" height="4.85296" rx="1.5" transform="matrix(0.874238 0.504697 -0.874238 0.504697 434.187 512.939)" fill="#555770"/>
<rect width="60.662" height="4.85296" rx="1.5" transform="matrix(0.874237 0.504697 -0.874237 0.504697 475.199 536.615)" fill="#555770"/>
<rect width="40.4414" height="4.85296" rx="1.5" transform="matrix(0.874237 0.504697 -0.874237 0.504697 507.019 545.188)" fill="#555770"/>
<rect width="47.7208" height="4.85297" rx="1.5" transform="matrix(0.874236 0.504698 -0.874236 0.504698 548.031 568.865)" fill="#555770"/>
<rect width="67.1327" height="4.85296" rx="1.5" transform="matrix(0.874237 0.504697 -0.874237 0.504697 417.217 522.737)" fill="#555770"/>
<rect width="70.368" height="4.85296" rx="1.5" transform="matrix(0.874237 0.504697 -0.874237 0.504697 400.246 532.533)" fill="#555770"/>
<rect width="10.5147" height="4.85296" rx="1.5" transform="matrix(0.874236 0.504698 -0.874236 0.504698 508.433 585.193)" fill="#555770"/>
<rect width="40.4414" height="4.85296" rx="1.5" transform="matrix(0.874237 0.504697 -0.874237 0.504697 408.731 527.635)" fill="#555770"/>
<rect width="60.6621" height="4.85296" rx="1.5" transform="matrix(0.874237 0.504697 -0.874237 0.504697 449.744 551.311)" fill="#555770"/>
<rect width="14.5589" height="4.85297" rx="1.5" transform="matrix(0.874237 0.504697 -0.874237 0.504697 481.563 559.884)" fill="#555770"/>
<rect width="8.08829" height="4.85298" rx="1.5" transform="matrix(0.874236 0.504698 -0.874236 0.504698 499.948 570.497)" fill="#555770"/>
<rect width="40.4414" height="4.85297" rx="1.5" transform="matrix(0.874238 0.504697 -0.874238 0.504697 391.761 537.432)" fill="#555770"/>
<rect width="37.2061" height="4.85297" rx="1.5" transform="matrix(0.874236 0.504698 -0.874236 0.504698 424.288 566.007)" fill="#555770"/>
<rect width="12.9412" height="4.85297" rx="1.5" transform="matrix(0.874235 0.504698 -0.874235 0.504698 383.276 542.331)" fill="#555770"/>
<rect width="21.0296" height="4.85298" rx="1.5" transform="matrix(0.874236 0.504698 -0.874236 0.504698 400.246 552.128)" fill="#555770"/>
<rect width="14.5589" height="4.85296" rx="1.5" transform="matrix(0.874236 0.504698 -0.874236 0.504698 432.773 561.109)" fill="#555770"/>
<rect width="33.1619" height="4.85297" rx="1.5" transform="matrix(0.874237 0.504698 -0.874237 0.504698 451.158 571.722)" fill="#555770"/>
<path fill-rule="evenodd" clip-rule="evenodd" d="M526.073 440.471C527.635 441.372 530.167 441.372 531.73 440.471C533.292 439.569 533.292 438.107 531.73 437.205C530.167 436.303 527.635 436.303 526.073 437.205C524.511 438.107 524.511 439.569 526.073 440.471Z" fill="#FF5C5C"/>
<path fill-rule="evenodd" clip-rule="evenodd" d="M537.386 447.002C538.949 447.904 541.481 447.904 543.043 447.002C544.605 446.1 544.605 444.638 543.043 443.736C541.481 442.834 538.949 442.834 537.386 443.736C535.824 444.638 535.824 446.1 537.386 447.002Z" fill="#FDDD48"/>
<path fill-rule="evenodd" clip-rule="evenodd" d="M548.7 453.533C550.262 454.435 552.795 454.435 554.357 453.533C555.919 452.632 555.919 451.169 554.357 450.268C552.795 449.366 550.262 449.366 548.7 450.268C547.138 451.169 547.138 452.632 548.7 453.533Z" fill="#39D98A"/>
</g>
<g opacity="0.75">
<circle opacity="0.25" r="158.826" transform="matrix(0.866044 -0.499967 0.866044 0.499967 513.518 508.316)" fill="#E3FFF1" stroke="#57EBA1"/>
<circle opacity="0.5" r="124.631" transform="matrix(0.866044 -0.499967 0.866044 0.499967 512.888 501.864)" fill="#E3FFF1" stroke="#57EBA1"/>
<circle opacity="0.75" r="88.5937" transform="matrix(0.866044 -0.499967 0.866044 0.499967 513.566 501.864)" fill="#E3FFF1" stroke="#57EBA1"/>
<circle r="56.3633" transform="matrix(0.866044 -0.499967 0.866044 0.499967 513.057 501.864)" fill="#E3FFF1" stroke="#57EBA1"/>
</g>
<g filter="url(#filter3_dd)">
<path d="M449.609 494.81L576.711 493.5L576.712 501.151C576.712 504.527 574.389 507.764 570.254 510.151L528.749 534.112C520.139 539.082 506.181 539.082 497.571 534.112L456.066 510.151C451.931 507.764 449.609 504.527 449.609 501.151L449.609 494.81Z" fill="url(#paint2_linear)"/>
<rect width="84.0609" height="84.0609" rx="18" transform="matrix(0.866044 0.499967 -0.866044 0.499967 513.16 452.001)" fill="white"/>
<path d="M511.795 499.402C512.283 499.683 512.473 500.094 512.292 500.48L508.261 509.715C507.872 510.544 506.011 510.865 504.962 510.262L471.109 490.719C470.055 490.113 470.543 489.072 471.986 488.849L488.075 486.536C488.74 486.433 489.446 486.542 489.931 486.821L511.795 499.402Z" fill="#223C37"/>
<path d="M512.28 494.099C511.614 494.205 510.9 494.096 510.411 493.814L498.253 486.795C497.208 486.192 497.685 485.163 499.111 484.944L537.116 479.097C538.544 478.878 539.85 479.634 539.464 480.457L535.045 489.904C534.869 490.281 534.361 490.576 533.708 490.68L512.28 494.099Z" fill="#39D98A"/>
<path d="M504.992 509.495C504.826 509.873 504.683 510.101 505.16 510.376L519.672 518.754C520.734 519.367 522.516 519.088 522.863 518.244L532.238 496.709C532.578 495.88 531.242 495.151 529.828 495.393L510.471 498.638L504.992 509.495Z" fill="#376C66"/>
</g>
<g filter="url(#filter4_dd)">
<path fill-rule="evenodd" clip-rule="evenodd" d="M537.941 82.0376C534.079 79.8077 527.816 79.8077 523.953 82.0376L225.269 254.468C221.407 256.698 221.407 260.313 225.269 262.543L634.691 498.902C638.554 501.132 644.817 501.132 648.679 498.902L947.363 326.472C951.226 324.242 951.226 320.627 947.363 318.397L537.941 82.0376ZM529.243 107.085C520.552 102.067 506.462 102.067 497.771 107.085L456.443 130.943C447.752 135.96 447.752 144.095 456.443 149.112L497.771 172.971C506.462 177.988 520.552 177.988 529.243 172.971L570.571 149.112C579.262 144.095 579.262 135.96 570.571 130.943L529.243 107.085Z" fill="#C7C9D9"/>
<path fill-rule="evenodd" clip-rule="evenodd" d="M537.941 77.0376C534.079 74.8077 527.816 74.8077 523.953 77.0376L225.269 249.468C221.407 251.698 221.407 255.313 225.269 257.543L634.691 493.902C638.554 496.132 644.816 496.132 648.679 493.902L947.363 321.472C951.226 319.242 951.226 315.627 947.363 313.397L537.941 77.0376ZM529.243 102.085C520.552 97.0673 506.462 97.0673 497.771 102.085L456.443 125.943C447.752 130.96 447.752 139.095 456.443 144.112L497.771 167.971C506.462 172.988 520.552 172.988 529.243 167.971L570.571 144.112C579.262 139.095 579.262 130.96 570.571 125.943L529.243 102.085Z" fill="#FAFAFC"/>
<path fill-rule="evenodd" clip-rule="evenodd" d="M523.953 77.0376C527.816 74.8077 534.079 74.8077 537.941 77.0376L947.363 313.397C951.226 315.627 951.226 319.242 947.363 321.472L938.724 326.46L515.314 82.0253L523.953 77.0376Z" fill="white"/>
<path fill-rule="evenodd" clip-rule="evenodd" d="M531.598 83.9054C532.677 84.5284 534.427 84.5284 535.506 83.9054C536.585 83.2824 536.585 82.2723 535.506 81.6493C534.427 81.0263 532.677 81.0263 531.598 81.6493C530.519 82.2723 530.519 83.2824 531.598 83.9054Z" fill="#FF5C5C"/>
<path fill-rule="evenodd" clip-rule="evenodd" d="M538.113 87.6653C539.192 88.2883 540.942 88.2883 542.021 87.6653C543.1 87.0423 543.1 86.0322 542.021 85.4092C540.942 84.7862 539.192 84.7862 538.113 85.4092C537.034 86.0322 537.034 87.0423 538.113 87.6653Z" fill="#FDDD48"/>
<path fill-rule="evenodd" clip-rule="evenodd" d="M544.627 91.4262C545.706 92.0492 547.456 92.0492 548.535 91.4262C549.614 90.8032 549.614 89.7931 548.535 89.1701C547.456 88.5471 545.706 88.5471 544.627 89.1701C543.548 89.7931 543.548 90.8032 544.627 91.4262Z" fill="#39D98A"/>
<g filter="url(#filter5_dd)">
<rect width="23.8434" height="23.8434" rx="8" transform="matrix(0.874237 0.504697 -0.874237 0.504697 349.551 210.152)" fill="white"/>
<rect width="23.8434" height="23.8434" rx="8" transform="matrix(0.874237 0.504697 -0.874237 0.504697 380.819 192.101)" fill="white"/>
<rect width="23.8434" height="23.8434" rx="8" transform="matrix(0.874237 0.504697 -0.874237 0.504697 412.086 174.051)" fill="white"/>
<rect width="23.8434" height="23.8434" rx="8" transform="matrix(0.874237 0.504697 -0.874237 0.504697 443.353 156)" fill="#E3FFF1"/>
<circle r="5.21575" transform="matrix(0.874237 0.504697 -0.874237 0.504697 443.353 168.034)" fill="#3BC882"/>
</g>
<g filter="url(#filter6_dd)">
<rect width="261.76" height="140.825" rx="8" transform="matrix(0.874237 0.504697 -0.874237 0.504697 569.821 156.905)" fill="white"/>
<rect width="8.23342" height="59.3381" rx="2" transform="matrix(0.874237 0.504697 -0.874237 0.504697 515.821 197.059)" fill="#57EBA1"/>
<rect width="8.23343" height="45.0669" rx="2" transform="matrix(0.874237 0.504697 -0.874237 0.504697 503.344 204.261)" fill="#39D98A"/>
<rect width="8.23342" height="31.5468" rx="2" transform="matrix(0.874237 0.504697 -0.874237 0.504697 491.525 211.085)" fill="#3BC882"/>
<rect width="8.23342" height="52.578" rx="2" transform="matrix(0.874237 0.504697 -0.874237 0.504697 518.417 205.382)" fill="#57EBA1"/>
<rect width="8.23342" height="40.5602" rx="2" transform="matrix(0.874237 0.504697 -0.874237 0.504697 507.911 211.447)" fill="#39D98A"/>
<rect width="8.23343" height="28.5424" rx="2" transform="matrix(0.874237 0.504698 -0.874237 0.504698 497.405 217.512)" fill="#3BC882"/>
<rect width="8.23342" height="93.1383" rx="2" transform="matrix(0.874237 0.504697 -0.874237 0.504697 562.384 189.822)" fill="#57EBA1"/>
<rect width="8.23342" height="71.3559" rx="2" transform="matrix(0.874237 0.504697 -0.874237 0.504697 543.341 200.816)" fill="#39D98A"/>
<rect width="8.23342" height="50.3247" rx="2" transform="matrix(0.874238 0.504697 -0.874238 0.504697 524.954 211.43)" fill="#3BC882"/>
<rect width="8.23342" height="64.5959" rx="2" transform="matrix(0.874237 0.504697 -0.874237 0.504697 545.937 209.138)" fill="#57EBA1"/>
<rect width="8.23343" height="49.5736" rx="2" transform="matrix(0.874237 0.504697 -0.874237 0.504697 532.804 216.721)" fill="#39D98A"/>
<rect width="8.23342" height="34.5513" rx="2" transform="matrix(0.874237 0.504697 -0.874237 0.504697 519.671 224.302)" fill="#3BC882"/>
<rect width="8.23343" height="47.3203" rx="2" transform="matrix(0.874237 0.504697 -0.874237 0.504697 539.341 222.768)" fill="#57EBA1"/>
<rect width="8.23343" height="36.0535" rx="2" transform="matrix(0.874238 0.504697 -0.874238 0.504697 529.491 228.455)" fill="#39D98A"/>
<rect width="8.23343" height="25.5379" rx="2" transform="matrix(0.874237 0.504697 -0.874237 0.504697 520.298 233.762)" fill="#3BC882"/>
<rect width="8.23342" height="73.6093" rx="2" transform="matrix(0.874237 0.504697 -0.874237 0.504697 570.831 214.412)" fill="#57EBA1"/>
<rect width="8.23343" height="56.3336" rx="2" transform="matrix(0.874238 0.504697 -0.874238 0.504697 555.728 223.13)" fill="#39D98A"/>
<rect width="8.23343" height="39.8091" rx="2" transform="matrix(0.874237 0.504698 -0.874237 0.504698 541.281 231.47)" fill="#3BC882"/>
<rect width="8.23342" height="90.8849" rx="2" transform="matrix(0.874237 0.504697 -0.874237 0.504697 594.44 210.603)" fill="#57EBA1"/>
<rect width="8.23342" height="69.1026" rx="2" transform="matrix(0.874237 0.504697 -0.874237 0.504697 575.397 221.596)" fill="#39D98A"/>
<rect width="8.23343" height="48.8225" rx="2" transform="matrix(0.874237 0.504697 -0.874237 0.504697 557.668 231.832)" fill="#3BC882"/>
<rect width="8.23343" height="59.3381" rx="2" transform="matrix(0.874237 0.504697 -0.874237 0.504697 575.368 231.435)" fill="#57EBA1"/>
<rect width="8.23342" height="45.0669" rx="2" transform="matrix(0.874237 0.504697 -0.874237 0.504697 562.891 238.637)" fill="#39D98A"/>
<rect width="8.23343" height="31.5469" rx="2" transform="matrix(0.874237 0.504697 -0.874237 0.504697 551.072 245.461)" fill="#3BC882"/>
<rect width="8.23342" height="52.578" rx="2" transform="matrix(0.874237 0.504697 -0.874237 0.504697 577.965 239.758)" fill="#57EBA1"/>
<rect width="8.23343" height="40.5602" rx="2" transform="matrix(0.874237 0.504697 -0.874237 0.504697 567.458 245.824)" fill="#39D98A"/>
<rect width="8.23342" height="28.5424" rx="2" transform="matrix(0.874238 0.504697 -0.874238 0.504697 556.952 251.888)" fill="#3BC882"/>
<rect width="8.23343" height="93.1383" rx="2" transform="matrix(0.874237 0.504697 -0.874237 0.504697 621.93 224.198)" fill="#57EBA1"/>
<rect width="8.23342" height="71.3559" rx="2" transform="matrix(0.874237 0.504697 -0.874237 0.504697 602.887 235.192)" fill="#39D98A"/>
<rect width="8.23342" height="50.3247" rx="2" transform="matrix(0.874237 0.504698 -0.874237 0.504698 584.501 245.806)" fill="#3BC882"/>
<rect width="8.23342" height="64.5959" rx="2" transform="matrix(0.874237 0.504697 -0.874237 0.504697 605.484 243.515)" fill="#57EBA1"/>
<rect width="8.23343" height="49.5736" rx="2" transform="matrix(0.874238 0.504697 -0.874238 0.504697 592.351 251.097)" fill="#39D98A"/>
<rect width="8.23343" height="34.5513" rx="2" transform="matrix(0.874237 0.504697 -0.874237 0.504697 579.218 258.678)" fill="#3BC882"/>
<rect width="8.23342" height="47.3202" rx="2" transform="matrix(0.874237 0.504697 -0.874237 0.504697 598.887 257.145)" fill="#57EBA1"/>
<rect width="8.23342" height="36.0535" rx="2" transform="matrix(0.874237 0.504697 -0.874237 0.504697 589.038 262.831)" fill="#39D98A"/>
<rect width="8.23342" height="25.5379" rx="2" transform="matrix(0.874238 0.504697 -0.874238 0.504697 579.845 268.138)" fill="#3BC882"/>
<rect width="8.23342" height="73.6093" rx="2" transform="matrix(0.874237 0.504697 -0.874237 0.504697 630.377 248.788)" fill="#57EBA1"/>
<rect width="8.23342" height="56.3336" rx="2" transform="matrix(0.874237 0.504697 -0.874237 0.504697 615.275 257.507)" fill="#39D98A"/>
<rect width="8.23342" height="39.8091" rx="2" transform="matrix(0.874237 0.504697 -0.874237 0.504697 600.828 265.847)" fill="#3BC882"/>
<rect width="8.23343" height="90.885" rx="2" transform="matrix(0.874237 0.504697 -0.874237 0.504697 653.988 244.98)" fill="#57EBA1"/>
<rect width="8.23343" height="69.1026" rx="2" transform="matrix(0.874237 0.504697 -0.874237 0.504697 634.944 255.974)" fill="#39D98A"/>
<rect width="8.23342" height="48.8225" rx="2" transform="matrix(0.874237 0.504697 -0.874237 0.504697 617.215 266.208)" fill="#3BC882"/>
<rect width="8.23343" height="59.3381" rx="2" transform="matrix(0.874237 0.504697 -0.874237 0.504697 634.915 265.812)" fill="#57EBA1"/>
<rect width="8.23342" height="45.0669" rx="2" transform="matrix(0.874237 0.504697 -0.874237 0.504697 622.438 273.015)" fill="#39D98A"/>
<rect width="8.23343" height="31.5469" rx="2" transform="matrix(0.874237 0.504697 -0.874237 0.504697 610.618 279.838)" fill="#3BC882"/>
<rect width="8.23343" height="52.5781" rx="2" transform="matrix(0.874237 0.504697 -0.874237 0.504697 637.511 274.135)" fill="#57EBA1"/>
<rect width="8.23342" height="40.5602" rx="2" transform="matrix(0.874237 0.504697 -0.874237 0.504697 627.005 280.2)" fill="#39D98A"/>
<rect width="8.23342" height="28.5424" rx="2" transform="matrix(0.874237 0.504697 -0.874237 0.504697 616.499 286.266)" fill="#3BC882"/>
<rect width="8.23343" height="93.1383" rx="2" transform="matrix(0.874237 0.504697 -0.874237 0.504697 681.477 258.575)" fill="#57EBA1"/>
<rect width="8.23343" height="71.3559" rx="2" transform="matrix(0.874237 0.504697 -0.874237 0.504697 662.434 269.569)" fill="#39D98A"/>
<rect width="8.23343" height="50.3247" rx="2" transform="matrix(0.874237 0.504697 -0.874237 0.504697 644.048 280.183)" fill="#3BC882"/>
<rect width="8.23343" height="64.5959" rx="2" transform="matrix(0.874238 0.504697 -0.874238 0.504697 665.031 277.891)" fill="#57EBA1"/>
<rect width="8.23342" height="49.5736" rx="2" transform="matrix(0.874237 0.504697 -0.874237 0.504697 651.898 285.472)" fill="#39D98A"/>
<rect width="8.23342" height="34.5513" rx="2" transform="matrix(0.874237 0.504697 -0.874237 0.504697 638.765 293.054)" fill="#3BC882"/>
<rect width="8.23342" height="47.3202" rx="2" transform="matrix(0.874237 0.504697 -0.874237 0.504697 658.434 291.521)" fill="#57EBA1"/>
<rect width="8.23343" height="36.0535" rx="2" transform="matrix(0.874238 0.504697 -0.874238 0.504697 648.585 297.208)" fill="#39D98A"/>
<rect width="8.23343" height="25.5379" rx="2" transform="matrix(0.874237 0.504697 -0.874237 0.504697 639.392 302.515)" fill="#3BC882"/>
<rect width="8.23343" height="73.6093" rx="2" transform="matrix(0.874237 0.504697 -0.874237 0.504697 689.924 283.163)" fill="#57EBA1"/>
<rect width="8.23342" height="56.3336" rx="2" transform="matrix(0.874238 0.504697 -0.874238 0.504697 674.821 291.882)" fill="#39D98A"/>
<rect width="8.23342" height="39.8091" rx="2" transform="matrix(0.874237 0.504697 -0.874237 0.504697 660.375 300.222)" fill="#3BC882"/>
<rect width="8.23342" height="90.8849" rx="2" transform="matrix(0.874237 0.504697 -0.874237 0.504697 713.534 279.356)" fill="#57EBA1"/>
<rect width="8.23342" height="69.1026" rx="2" transform="matrix(0.874238 0.504697 -0.874238 0.504697 694.491 290.349)" fill="#39D98A"/>
<rect width="8.23343" height="48.8225" rx="2" transform="matrix(0.874237 0.504697 -0.874237 0.504697 676.761 300.584)" fill="#3BC882"/>
<rect width="8.23342" height="59.3381" rx="2" transform="matrix(0.874237 0.504697 -0.874237 0.504697 694.461 300.188)" fill="#57EBA1"/>
<rect width="8.23342" height="45.0669" rx="2" transform="matrix(0.874237 0.504697 -0.874237 0.504697 681.985 307.39)" fill="#39D98A"/>
<rect width="8.23341" height="31.5468" rx="2" transform="matrix(0.874237 0.504697 -0.874237 0.504697 670.165 314.214)" fill="#3BC882"/>
<rect width="8.23343" height="52.5781" rx="2" transform="matrix(0.874237 0.504697 -0.874237 0.504697 697.058 308.511)" fill="#57EBA1"/>
<rect width="8.23342" height="40.5602" rx="2" transform="matrix(0.874237 0.504697 -0.874237 0.504697 686.552 314.576)" fill="#39D98A"/>
<rect width="8.23342" height="28.5424" rx="2" transform="matrix(0.874237 0.504697 -0.874237 0.504697 676.045 320.641)" fill="#3BC882"/>
<rect width="8.23343" height="93.1383" rx="2" transform="matrix(0.874237 0.504697 -0.874237 0.504697 741.024 292.951)" fill="#57EBA1"/>
<rect width="8.23342" height="71.3559" rx="2" transform="matrix(0.874237 0.504697 -0.874237 0.504697 721.981 303.945)" fill="#39D98A"/>
<rect width="8.23342" height="50.3247" rx="2" transform="matrix(0.874237 0.504697 -0.874237 0.504697 703.594 314.56)" fill="#3BC882"/>
<rect width="8.23342" height="64.5959" rx="2" transform="matrix(0.874237 0.504697 -0.874237 0.504697 724.577 312.267)" fill="#57EBA1"/>
<rect width="8.23342" height="49.5736" rx="2" transform="matrix(0.874237 0.504697 -0.874237 0.504697 711.445 319.849)" fill="#39D98A"/>
<rect width="8.23343" height="34.5513" rx="2" transform="matrix(0.874237 0.504698 -0.874237 0.504698 698.312 327.43)" fill="#3BC882"/>
</g>
<g filter="url(#filter7_dd)">
<rect width="105.974" height="331.511" rx="8" transform="matrix(0.874237 0.504697 -0.874237 0.504697 840.111 272.662)" fill="#F2F2F5"/>
<rect width="84.1212" height="12.6668" rx="6.3334" transform="matrix(0.874237 0.504697 -0.874237 0.504697 814.018 295)" fill="#EBEBF0"/>
<rect width="56.7658" height="15.7198" rx="4" transform="matrix(0.874237 0.504697 -0.874237 0.504697 713.683 353.484)" fill="#EBEBF0"/>
<rect width="82.9654" height="15.7198" rx="4" transform="matrix(0.874237 0.504697 -0.874237 0.504697 730.48 343.787)" fill="#EBEBF0"/>
<rect width="40.6094" height="15.7198" rx="4" transform="matrix(0.874238 0.504697 -0.874238 0.504697 747.277 334.09)" fill="#EBEBF0"/>
<rect width="78.5988" height="15.7198" rx="4" transform="matrix(0.874237 0.504697 -0.874237 0.504697 764.073 324.393)" fill="#EBEBF0"/>
<rect width="61.1324" height="15.7198" rx="4" transform="matrix(0.874237 0.504697 -0.874237 0.504697 780.87 314.697)" fill="#EBEBF0"/>
<rect width="87.7686" height="15.7198" rx="4" transform="matrix(0.874238 0.504697 -0.874238 0.504697 797.667 305)" fill="#EBEBF0"/>
<rect width="12.2265" height="12.2265" rx="4" transform="matrix(0.874237 0.504697 -0.874237 0.504697 715.21 356.128)" fill="#39D98A"/>
<path d="M712.92 361.197L712.92 362.74L719.409 362.519" stroke="white" stroke-width="1.5" stroke-linecap="round" stroke-linejoin="round"/>
<rect width="25.7629" height="5.67658" rx="2.83829" transform="matrix(0.874237 0.504697 -0.874237 0.504697 726.281 365.605)" fill="#C7C9D9"/>
<rect width="12.2265" height="12.2265" rx="4" transform="matrix(0.874237 0.504697 -0.874237 0.504697 732.007 346.432)" fill="#39D98A"/>
<path d="M729.717 351.5V353.043L736.206 352.822" stroke="white" stroke-width="1.5" stroke-linecap="round" stroke-linejoin="round"/>
<rect width="25.7629" height="5.67658" rx="2.83829" transform="matrix(0.874237 0.504697 -0.874237 0.504697 743.077 355.908)" fill="#C7C9D9"/>
<rect width="12.2265" height="12.2265" rx="4" transform="matrix(0.874237 0.504697 -0.874237 0.504697 782.397 317.341)" fill="#39D98A"/>
<path d="M780.107 322.41V323.952L786.596 323.732" stroke="white" stroke-width="1.5" stroke-linecap="round" stroke-linejoin="round"/>
<rect width="33.1861" height="5.67657" rx="2.83828" transform="matrix(0.874237 0.504698 -0.874237 0.504698 793.468 326.818)" fill="#C7C9D9"/>
<rect y="0.504697" width="11.2265" height="11.2265" rx="3.5" transform="matrix(0.874237 0.504697 -0.874237 0.504697 799.635 307.894)" stroke="#C7C9D9"/>
<rect width="19.6497" height="5.67658" rx="2.83829" transform="matrix(0.874237 0.504697 -0.874237 0.504697 810.264 317.121)" fill="#C7C9D9"/>
<rect y="0.504697" width="11.2265" height="11.2265" rx="3.5" transform="matrix(0.874237 0.504697 -0.874237 0.504697 766.042 327.288)" stroke="#C7C9D9"/>
<rect width="23.5796" height="5.67657" rx="2.83829" transform="matrix(0.874238 0.504697 -0.874238 0.504697 776.671 336.514)" fill="#C7C9D9"/>
<rect y="0.504697" width="11.2265" height="11.2265" rx="3.5" transform="matrix(0.874237 0.504697 -0.874237 0.504697 749.245 336.985)" stroke="#C7C9D9"/>
<rect width="15.7197" height="5.67658" rx="2.83829" transform="matrix(0.874236 0.504698 -0.874236 0.504698 759.874 346.211)" fill="#C7C9D9"/>
<rect width="33.5298" height="12.6668" rx="6.33341" transform="matrix(0.874237 0.504697 -0.874237 0.504697 834.018 284)" fill="#C7C9D9"/>
<rect width="15.6472" height="12.6668" rx="6.33341" transform="matrix(0.874236 0.504698 -0.874236 0.504698 869.845 304.683)" fill="#C7C9D9"/>
</g>
<rect width="33.5298" height="12.6668" rx="6.3334" transform="matrix(0.874237 0.504697 -0.874237 0.504697 676.489 194.879)" fill="#E4E4EB"/>
<rect width="33.5298" height="12.6668" rx="6.3334" transform="matrix(0.874237 0.504697 -0.874237 0.504697 636.754 171.939)" fill="#E4E4EB"/>
<rect width="33.5298" height="12.6668" rx="6.3334" transform="matrix(0.874237 0.504697 -0.874237 0.504697 597.018 149)" fill="#3BC882"/>
</g>
<g opacity="0.15">
<rect width="254.833" height="33.666" rx="8" transform="matrix(0.874237 0.504697 -0.874237 0.504697 279.372 327.396)" fill="white"/>
<path fill-rule="evenodd" clip-rule="evenodd" d="M271.197 349.106C275.712 351.713 283.033 351.713 287.548 349.106C292.063 346.5 292.063 342.273 287.548 339.667C283.033 337.06 275.712 337.06 271.197 339.667C266.682 342.273 266.682 346.5 271.197 349.106Z" fill="#E3FFF1"/>
<g clip-path="url(#clip0)">
<path d="M282.687 344.541L282.238 344.282C282.14 344.226 282.001 344.199 281.863 344.212L278.268 344.549L278.532 343.608C278.554 343.529 278.51 343.448 278.412 343.391L277.962 343.132C277.9 343.096 277.793 343.116 277.778 343.166L277.316 344.811C277.305 344.85 277.31 344.89 277.331 344.928C277.352 344.965 277.388 345 277.437 345.028C277.485 345.056 277.545 345.077 277.61 345.089C277.675 345.101 277.744 345.104 277.812 345.097L282.627 344.647C282.715 344.639 282.75 344.577 282.687 344.541Z" fill="#39D98A"/>
<path d="M283.665 341.909C281.294 340.54 277.451 340.54 275.08 341.909C272.71 343.277 272.71 345.496 275.08 346.864C277.451 348.233 281.294 348.233 283.665 346.864C286.035 345.496 286.035 343.277 283.665 341.909ZM275.808 346.444C273.841 345.308 273.841 343.465 275.808 342.329C277.776 341.193 280.969 341.193 282.936 342.329C284.904 343.465 284.904 345.308 282.936 346.444C280.969 347.58 277.776 347.58 275.808 346.444Z" fill="#39D98A"/>
</g>
<rect width="31.7957" height="7.48134" rx="3.74067" transform="matrix(0.874237 0.504697 -0.874237 0.504697 297.359 350.994)" fill="#C7C9D9"/>
<rect width="48.1611" height="7.48134" rx="3.74067" transform="matrix(0.874237 0.504697 -0.874237 0.504697 338.237 374.593)" fill="#E4E4EB"/>
<rect width="48.1611" height="7.48133" rx="3.74067" transform="matrix(0.874237 0.504697 -0.874237 0.504697 401.597 411.171)" fill="#E3FFF1"/>
<rect width="10.7544" height="7.48133" rx="3.74067" transform="matrix(0.874238 0.504697 -0.874238 0.504697 401.597 411.171)" fill="#39D98A"/>
<g clip-path="url(#clip1)">
<path d="M474.814 455.456L474.364 455.196C474.266 455.14 474.127 455.113 473.989 455.127L470.394 455.463L470.658 454.523C470.68 454.444 470.636 454.363 470.538 454.306L470.088 454.046C470.026 454.011 469.919 454.03 469.904 454.081L469.443 455.726C469.431 455.765 469.437 455.805 469.457 455.842C469.478 455.88 469.515 455.914 469.563 455.942C469.611 455.97 469.671 455.991 469.736 456.003C469.801 456.015 469.87 456.018 469.938 456.012L474.753 455.561C474.841 455.554 474.876 455.492 474.814 455.456Z" fill="#39D98A"/>
<path d="M475.791 452.823C473.42 451.455 469.577 451.455 467.206 452.823C464.836 454.191 464.836 456.41 467.206 457.779C469.577 459.147 473.42 459.147 475.791 457.779C478.161 456.41 478.161 454.191 475.791 452.823ZM467.935 457.358C465.967 456.222 465.967 454.379 467.935 453.243C469.902 452.107 473.095 452.107 475.063 453.243C477.03 454.379 477.03 456.222 475.063 457.358C473.095 458.494 469.902 458.494 467.935 457.358Z" fill="#39D98A"/>
</g>
</g>
<g opacity="0.4">
<rect width="254.833" height="33.666" rx="8" transform="matrix(0.874237 0.504697 -0.874237 0.504697 312.075 308.516)" fill="white"/>
<path fill-rule="evenodd" clip-rule="evenodd" d="M303.899 330.227C308.414 332.834 315.735 332.834 320.25 330.227C324.766 327.621 324.766 323.395 320.25 320.788C315.735 318.181 308.414 318.181 303.899 320.788C299.384 323.395 299.384 327.621 303.899 330.227Z" fill="#E3FFF1"/>
<g clip-path="url(#clip2)">
<path d="M315.39 325.662L314.94 325.403C314.843 325.347 314.703 325.32 314.565 325.333L310.97 325.67L311.235 324.729C311.257 324.65 311.212 324.57 311.114 324.513L310.664 324.253C310.602 324.217 310.495 324.237 310.481 324.287L310.019 325.932C310.008 325.971 310.013 326.011 310.034 326.049C310.055 326.087 310.091 326.121 310.139 326.149C310.188 326.177 310.247 326.198 310.312 326.21C310.377 326.222 310.447 326.225 310.514 326.218L315.329 325.768C315.418 325.76 315.452 325.698 315.39 325.662Z" fill="#39D98A"/>
<path d="M316.367 323.03C313.997 321.661 310.153 321.661 307.783 323.03C305.412 324.398 305.412 326.617 307.783 327.985C310.153 329.354 313.997 329.354 316.367 327.985C318.737 326.617 318.737 324.398 316.367 323.03ZM308.511 327.565C306.543 326.429 306.543 324.586 308.511 323.45C310.479 322.314 313.671 322.314 315.639 323.45C317.607 324.586 317.607 326.429 315.639 327.565C313.671 328.701 310.479 328.701 308.511 327.565Z" fill="#39D98A"/>
</g>
<rect width="31.7957" height="7.48134" rx="3.74067" transform="matrix(0.874237 0.504698 -0.874237 0.504698 330.061 332.115)" fill="#C7C9D9"/>
<rect width="48.1611" height="7.48134" rx="3.74067" transform="matrix(0.874237 0.504697 -0.874237 0.504697 370.939 355.714)" fill="#E4E4EB"/>
<rect width="48.1611" height="7.48134" rx="3.74067" transform="matrix(0.874238 0.504697 -0.874238 0.504697 434.3 392.293)" fill="#E3FFF1"/>
<rect width="10.7544" height="7.48133" rx="3.74067" transform="matrix(0.874238 0.504697 -0.874238 0.504697 434.3 392.293)" fill="#39D98A"/>
<g clip-path="url(#clip3)">
<path d="M507.516 436.577L507.067 436.317C506.969 436.261 506.829 436.235 506.691 436.248L503.096 436.584L503.361 435.644C503.383 435.565 503.339 435.484 503.24 435.427L502.791 435.168C502.728 435.132 502.621 435.152 502.607 435.202L502.145 436.847C502.134 436.886 502.139 436.926 502.16 436.963C502.181 437.001 502.217 437.035 502.265 437.063C502.314 437.091 502.373 437.112 502.438 437.124C502.503 437.136 502.573 437.139 502.64 437.133L507.456 436.683C507.544 436.675 507.578 436.613 507.516 436.577Z" fill="#39D98A"/>
<path d="M508.493 433.944C506.123 432.576 502.279 432.576 499.909 433.944C497.538 435.313 497.538 437.532 499.909 438.9C502.279 440.268 506.123 440.268 508.493 438.9C510.863 437.532 510.863 435.313 508.493 433.944ZM500.637 438.48C498.669 437.343 498.669 435.501 500.637 434.365C502.605 433.228 505.797 433.228 507.765 434.365C509.733 435.501 509.733 437.343 507.765 438.48C505.797 439.616 502.605 439.616 500.637 438.48Z" fill="#39D98A"/>
</g>
</g>
<g opacity="0.75" filter="url(#filter8_dd)">
<rect width="254.833" height="33.666" rx="8" transform="matrix(0.874237 0.504697 -0.874237 0.504697 344.777 289.637)" fill="white"/>
<path fill-rule="evenodd" clip-rule="evenodd" d="M336.602 311.348C341.117 313.955 348.437 313.955 352.953 311.348C357.468 308.741 357.468 304.515 352.953 301.908C348.437 299.302 341.117 299.302 336.602 301.908C332.086 304.515 332.086 308.741 336.602 311.348Z" fill="#E3FFF1"/>
<g clip-path="url(#clip4)">
<path d="M348.092 306.783L347.643 306.524C347.545 306.467 347.405 306.441 347.267 306.454L343.673 306.79L343.937 305.85C343.959 305.771 343.915 305.69 343.816 305.633L343.367 305.374C343.305 305.338 343.197 305.358 343.183 305.408L342.721 307.053C342.71 307.092 342.715 307.132 342.736 307.17C342.757 307.207 342.793 307.241 342.842 307.269C342.89 307.297 342.949 307.318 343.014 307.33C343.08 307.342 343.149 307.345 343.216 307.339L348.032 306.889C348.12 306.881 348.154 306.819 348.092 306.783Z" fill="#39D98A"/>
<path d="M349.069 304.15C346.699 302.782 342.855 302.782 340.485 304.15C338.115 305.519 338.115 307.738 340.485 309.106C342.855 310.474 346.699 310.474 349.069 309.106C351.44 307.738 351.44 305.519 349.069 304.15ZM341.213 308.686C339.245 307.55 339.245 305.707 341.213 304.571C343.181 303.435 346.373 303.435 348.341 304.571C350.309 305.707 350.309 307.55 348.341 308.686C346.373 309.822 343.181 309.822 341.213 308.686Z" fill="#39D98A"/>
</g>
<rect width="31.7957" height="7.48134" rx="3.74067" transform="matrix(0.874237 0.504697 -0.874237 0.504697 362.763 313.236)" fill="#C7C9D9"/>
<rect width="48.1611" height="7.48134" rx="3.74067" transform="matrix(0.874237 0.504697 -0.874237 0.504697 403.641 336.835)" fill="#E4E4EB"/>
<rect width="48.1611" height="7.48134" rx="3.74067" transform="matrix(0.874238 0.504697 -0.874238 0.504697 467.002 373.413)" fill="#E3FFF1"/>
<rect width="10.7544" height="7.48134" rx="3.74067" transform="matrix(0.874239 0.504696 -0.874239 0.504696 467.002 373.413)" fill="#39D98A"/>
<g clip-path="url(#clip5)">
<path d="M540.218 417.698L539.769 417.438C539.671 417.382 539.531 417.355 539.393 417.368L535.798 417.705L536.063 416.764C536.085 416.685 536.041 416.605 535.942 416.548L535.493 416.288C535.431 416.252 535.323 416.272 535.309 416.323L534.847 417.967C534.836 418.006 534.841 418.046 534.862 418.084C534.883 418.122 534.919 418.156 534.968 418.184C535.016 418.212 535.075 418.233 535.14 418.245C535.206 418.257 535.275 418.26 535.342 418.253L540.158 417.803C540.246 417.795 540.28 417.733 540.218 417.698Z" fill="#39D98A"/>
<path d="M541.195 415.065C538.825 413.696 534.981 413.696 532.611 415.065C530.241 416.433 530.241 418.652 532.611 420.021C534.981 421.389 538.825 421.389 541.195 420.021C543.566 418.652 543.566 416.433 541.195 415.065ZM533.339 419.6C531.371 418.464 531.371 416.621 533.339 415.485C535.307 414.349 538.499 414.349 540.467 415.485C542.435 416.621 542.435 418.464 540.467 419.6C538.499 420.736 535.307 420.736 533.339 419.6Z" fill="#39D98A"/>
</g>
</g>
<g filter="url(#filter9_dd)">
<rect width="254.833" height="33.666" rx="8" transform="matrix(0.874237 0.504697 -0.874237 0.504697 377.479 270.758)" fill="white"/>
<path fill-rule="evenodd" clip-rule="evenodd" d="M369.304 292.469C373.819 295.076 381.14 295.076 385.655 292.469C390.17 289.862 390.17 285.636 385.655 283.03C381.14 280.423 373.819 280.423 369.304 283.03C364.789 285.636 364.789 289.862 369.304 292.469Z" fill="#E3FFF1"/>
<g clip-path="url(#clip6)">
<path d="M380.794 287.904L380.345 287.645C380.247 287.588 380.107 287.562 379.969 287.575L376.375 287.911L376.639 286.971C376.661 286.892 376.617 286.811 376.518 286.754L376.069 286.495C376.007 286.459 375.9 286.479 375.885 286.529L375.423 288.174C375.412 288.213 375.417 288.253 375.438 288.291C375.459 288.328 375.495 288.363 375.544 288.391C375.592 288.418 375.652 288.439 375.717 288.451C375.782 288.464 375.851 288.466 375.919 288.46L380.734 288.01C380.822 288.002 380.857 287.94 380.794 287.904Z" fill="#39D98A"/>
<path d="M381.772 285.271C379.401 283.903 375.557 283.903 373.187 285.271C370.817 286.64 370.817 288.859 373.187 290.227C375.557 291.596 379.401 291.596 381.772 290.227C384.142 288.859 384.142 286.64 381.772 285.271ZM373.915 289.807C371.947 288.671 371.947 286.828 373.915 285.692C375.883 284.556 379.076 284.556 381.043 285.692C383.011 286.828 383.011 288.671 381.043 289.807C379.076 290.943 375.883 290.943 373.915 289.807Z" fill="#39D98A"/>
</g>
<rect width="31.7957" height="7.48134" rx="3.74067" transform="matrix(0.874237 0.504697 -0.874237 0.504697 395.466 294.357)" fill="#C7C9D9"/>
<rect width="48.1611" height="7.48134" rx="3.74067" transform="matrix(0.874238 0.504697 -0.874238 0.504697 436.344 317.956)" fill="#E4E4EB"/>
<rect width="48.1611" height="7.48134" rx="3.74067" transform="matrix(0.874237 0.504697 -0.874237 0.504697 499.704 354.534)" fill="#E3FFF1"/>
<rect width="10.7544" height="7.48133" rx="3.74067" transform="matrix(0.874238 0.504697 -0.874238 0.504697 499.704 354.534)" fill="#39D98A"/>
<g clip-path="url(#clip7)">
<path d="M572.92 398.819L572.471 398.559C572.373 398.503 572.234 398.476 572.096 398.49L568.501 398.826L568.765 397.886C568.787 397.806 568.743 397.726 568.645 397.669L568.195 397.409C568.133 397.373 568.026 397.393 568.011 397.444L567.549 399.089C567.538 399.128 567.543 399.167 567.564 399.205C567.585 399.243 567.622 399.277 567.67 399.305C567.718 399.333 567.778 399.354 567.843 399.366C567.908 399.378 567.977 399.381 568.045 399.374L572.86 398.924C572.948 398.917 572.983 398.855 572.92 398.819Z" fill="#39D98A"/>
<path d="M573.898 396.186C571.527 394.818 567.684 394.818 565.313 396.186C562.943 397.554 562.943 399.773 565.313 401.142C567.684 402.51 571.527 402.51 573.898 401.142C576.268 399.773 576.268 397.554 573.898 396.186ZM566.041 400.721C564.074 399.585 564.074 397.742 566.041 396.606C568.009 395.47 571.202 395.47 573.17 396.606C575.137 397.742 575.137 399.585 573.17 400.721C571.202 401.857 568.009 401.857 566.041 400.721Z" fill="#39D98A"/>
</g>
</g>
<g filter="url(#filter10_dd)">
<rect width="254.833" height="33.666" rx="8" transform="matrix(0.874237 0.504697 -0.874237 0.504697 410.182 251.879)" fill="white"/>
<path fill-rule="evenodd" clip-rule="evenodd" d="M402.006 273.59C406.521 276.197 413.842 276.197 418.357 273.59C422.872 270.984 422.872 266.757 418.357 264.151C413.842 261.544 406.521 261.544 402.006 264.151C397.491 266.757 397.491 270.984 402.006 273.59Z" fill="#FFE6E6"/>
<g clip-path="url(#clip8)">
<path d="M413.349 268.96C413.392 268.936 413.392 268.896 413.349 268.871L412.714 268.508L410.627 268.614L410.81 267.41L410.179 267.042C410.137 267.018 410.069 267.017 410.026 267.042C410.008 267.053 409.997 267.067 409.994 267.082L409.756 268.658L407.025 268.796C407 268.797 406.976 268.804 406.957 268.814C406.915 268.838 406.915 268.878 406.957 268.902L407.593 269.266L409.68 269.16L409.497 270.364L410.126 270.731C410.169 270.755 410.237 270.756 410.28 270.731C410.298 270.72 410.309 270.707 410.311 270.692L410.551 269.116L413.282 268.979C413.307 268.978 413.331 268.97 413.349 268.96Z" fill="#FF3B3B"/>
<path d="M414.464 266.398C412.094 265.03 408.25 265.03 405.88 266.398C403.51 267.766 403.51 269.985 405.88 271.354C408.25 272.722 412.094 272.722 414.464 271.354C416.835 269.985 416.835 267.766 414.464 266.398ZM406.608 270.933C404.64 269.797 404.64 267.954 406.608 266.818C408.576 265.682 411.768 265.682 413.736 266.818C415.704 267.954 415.704 269.797 413.736 270.933C411.768 272.07 408.576 272.07 406.608 270.933Z" fill="#FF3B3B"/>
</g>
<rect width="31.7957" height="7.48133" rx="3.74067" transform="matrix(0.874237 0.504697 -0.874237 0.504697 428.168 275.478)" fill="#C7C9D9"/>
<rect width="48.1611" height="7.48134" rx="3.74067" transform="matrix(0.874237 0.504697 -0.874237 0.504697 469.046 299.076)" fill="#E4E4EB"/>
<rect width="48.1611" height="7.48134" rx="3.74067" transform="matrix(0.874237 0.504697 -0.874237 0.504697 532.407 335.655)" fill="#FFE6E6"/>
<rect width="23.8468" height="7.48135" rx="3.74067" transform="matrix(0.874238 0.504697 -0.874238 0.504697 532.407 335.655)" fill="#FF3B3B"/>
<g clip-path="url(#clip9)">
<path d="M605.475 379.874C605.518 379.85 605.518 379.81 605.475 379.786L604.84 379.422L602.753 379.528L602.936 378.324L602.305 377.957C602.263 377.932 602.195 377.932 602.152 377.957C602.134 377.967 602.123 377.981 602.12 377.996L601.882 379.573L599.151 379.71C599.126 379.712 599.102 379.718 599.083 379.728C599.041 379.753 599.041 379.793 599.083 379.817L599.719 380.181L601.806 380.075L601.623 381.279L602.252 381.645C602.295 381.67 602.363 381.67 602.406 381.645C602.424 381.635 602.435 381.621 602.437 381.606L602.677 380.031L605.408 379.893C605.433 379.892 605.457 379.885 605.475 379.874Z" fill="#FF3B3B"/>
<path d="M606.59 377.312C604.22 375.944 600.376 375.944 598.006 377.312C595.636 378.681 595.636 380.9 598.006 382.268C600.376 383.637 604.22 383.637 606.59 382.268C608.961 380.9 608.961 378.681 606.59 377.312ZM598.734 381.848C596.766 380.712 596.766 378.869 598.734 377.733C600.702 376.597 603.894 376.597 605.862 377.733C607.83 378.869 607.83 380.712 605.862 381.848C603.894 382.984 600.702 382.984 598.734 381.848Z" fill="#FF3B3B"/>
</g>
</g>
<g filter="url(#filter11_dd)">
<rect width="254.833" height="33.666" rx="8" transform="matrix(0.874237 0.504697 -0.874237 0.504697 442.884 233)" fill="white"/>
<path fill-rule="evenodd" clip-rule="evenodd" d="M434.708 254.711C439.224 257.318 446.544 257.318 451.06 254.711C455.575 252.105 455.575 247.878 451.06 245.272C446.544 242.665 439.224 242.665 434.708 245.272C430.193 247.878 430.193 252.105 434.708 254.711Z" fill="#E3FFF1"/>
<g clip-path="url(#clip10)">
<path d="M446.199 250.146L445.75 249.887C445.652 249.831 445.512 249.804 445.374 249.817L441.779 250.154L442.044 249.213C442.066 249.134 442.022 249.053 441.923 248.996L441.474 248.737C441.412 248.701 441.304 248.721 441.29 248.771L440.828 250.416C440.817 250.455 440.822 250.495 440.843 250.533C440.864 250.571 440.9 250.605 440.949 250.633C440.997 250.661 441.056 250.682 441.121 250.694C441.187 250.706 441.256 250.709 441.323 250.702L446.139 250.252C446.227 250.244 446.261 250.182 446.199 250.146Z" fill="#39D98A"/>
<path d="M447.176 247.514C444.806 246.145 440.962 246.145 438.592 247.514C436.222 248.882 436.222 251.101 438.592 252.469C440.962 253.838 444.806 253.838 447.176 252.469C449.546 251.101 449.546 248.882 447.176 247.514ZM439.32 252.049C437.352 250.913 437.352 249.07 439.32 247.934C441.288 246.798 444.48 246.798 446.448 247.934C448.416 249.07 448.416 250.913 446.448 252.049C444.48 253.185 441.288 253.185 439.32 252.049Z" fill="#39D98A"/>
</g>
<rect width="31.7957" height="7.48134" rx="3.74067" transform="matrix(0.874238 0.504697 -0.874238 0.504697 460.87 256.599)" fill="#C7C9D9"/>
<rect width="48.1611" height="7.48134" rx="3.74067" transform="matrix(0.874237 0.504697 -0.874237 0.504697 501.748 280.198)" fill="#E4E4EB"/>
<rect width="48.1611" height="7.48133" rx="3.74067" transform="matrix(0.874237 0.504697 -0.874237 0.504697 565.109 316.776)" fill="#E3FFF1"/>
<rect width="28.055" height="7.48134" rx="3.74067" transform="matrix(0.874237 0.504697 -0.874237 0.504697 565.109 316.776)" fill="#39D98A"/>
<g clip-path="url(#clip11)">
<path d="M638.325 361.06L637.876 360.801C637.778 360.745 637.638 360.718 637.5 360.731L633.905 361.068L634.17 360.127C634.192 360.048 634.148 359.967 634.049 359.91L633.6 359.651C633.538 359.615 633.43 359.635 633.416 359.685L632.954 361.33C632.943 361.369 632.948 361.409 632.969 361.447C632.99 361.485 633.026 361.519 633.074 361.547C633.123 361.575 633.182 361.596 633.247 361.608C633.313 361.62 633.382 361.623 633.449 361.616L638.265 361.166C638.353 361.158 638.387 361.096 638.325 361.06Z" fill="#39D98A"/>
<path d="M639.302 358.428C636.932 357.059 633.088 357.059 630.718 358.428C628.348 359.796 628.348 362.015 630.718 363.383C633.088 364.752 636.932 364.752 639.302 363.383C641.672 362.015 641.672 359.796 639.302 358.428ZM631.446 362.963C629.478 361.827 629.478 359.984 631.446 358.848C633.414 357.712 636.606 357.712 638.574 358.848C640.542 359.984 640.542 361.827 638.574 362.963C636.606 364.099 633.414 364.099 631.446 362.963Z" fill="#39D98A"/>
</g>
</g>
<g opacity="0.45">
<path d="M576.945 53.6443L513.696 90.5395L450.196 53.6443L513.445 17L576.945 53.6443Z" fill="url(#paint3_linear)"/>
<path d="M576.944 53.6446V278.53L513.695 315.425V90.5398L576.944 53.6446Z" fill="url(#paint4_linear)"/>
<path d="M513.695 90.5398V315.425L449.944 278.53L450.195 53.6446L513.695 90.5398Z" fill="url(#paint5_linear)"/>
</g>
<g filter="url(#filter12_dd)">
<path d="M449.765 48.8103L576.867 47.5006L576.867 55.1518C576.867 58.5273 574.545 61.7645 570.41 64.1513L528.905 88.1124C520.295 93.0827 506.337 93.0826 497.727 88.1124L456.222 64.1513C452.087 61.7645 449.765 58.5273 449.765 55.1519L449.765 48.8103Z" fill="url(#paint6_linear)"/>
<rect width="84.0609" height="84.0609" rx="18" transform="matrix(0.866044 0.499967 -0.866044 0.499967 513.316 6.00098)" fill="white"/>
<path d="M538.674 30.9947C538.26 30.7408 537.565 30.7406 537.138 30.987L526.69 37.0189C526.267 37.2628 526.265 37.6563 526.656 37.9172C532.869 42.0684 532.56 48.3497 525.73 52.2926C518.9 56.2355 508.02 56.4139 500.829 52.827C500.377 52.6015 499.696 52.6026 499.273 52.8466L489.211 58.6552C488.784 58.9017 488.785 59.303 489.224 59.5416C502.931 66.9817 524.497 66.8321 537.9 59.0949C551.302 51.3576 551.561 38.9072 538.674 30.9947Z" fill="#39D98A"/>
<path d="M505.255 49.1704C500.881 46.6453 500.881 42.5514 505.255 40.0263C509.629 37.5012 516.721 37.5012 521.095 40.0263C525.277 42.5591 525.404 46.6826 521.095 49.1704C516.785 51.6582 509.642 51.5847 505.255 49.1704Z" fill="#376C66"/>
<path d="M521.285 40.1391C521.223 40.1012 521.159 40.0636 521.095 40.0263C516.721 37.5012 509.629 37.5012 505.255 40.0263C500.881 42.5514 500.881 46.6453 505.255 49.1704C505.32 49.2077 505.385 49.2444 505.451 49.2806L521.285 40.1391Z" fill="#223C37"/>
</g>
<defs>
<filter id="filter0_dd" x="251.864" y="429.406" width="658.076" height="389.152" filterUnits="userSpaceOnUse" color-interpolation-filters="sRGB">
<feFlood flood-opacity="0" result="BackgroundImageFix"/>
<feColorMatrix in="SourceAlpha" type="matrix" values="0 0 0 0 0 0 0 0 0 0 0 0 0 0 0 0 0 0 127 0"/>
<feOffset dy="2"/>
<feGaussianBlur stdDeviation="2"/>
<feColorMatrix type="matrix" values="0 0 0 0 0.376471 0 0 0 0 0.380392 0 0 0 0 0.439216 0 0 0 0.16 0"/>
<feBlend mode="normal" in2="BackgroundImageFix" result="effect1_dropShadow"/>
<feColorMatrix in="SourceAlpha" type="matrix" values="0 0 0 0 0 0 0 0 0 0 0 0 0 0 0 0 0 0 127 0"/>
<feOffset/>
<feGaussianBlur stdDeviation="0.5"/>
<feColorMatrix type="matrix" values="0 0 0 0 0.156863 0 0 0 0 0.160784 0 0 0 0 0.239216 0 0 0 0.04 0"/>
<feBlend mode="normal" in2="effect1_dropShadow" result="effect2_dropShadow"/>
<feBlend mode="normal" in="SourceGraphic" in2="effect2_dropShadow" result="shape"/>
</filter>
<filter id="filter1_b" x="250.94" y="583.5" width="660" height="234.058" filterUnits="userSpaceOnUse" color-interpolation-filters="sRGB">
<feFlood flood-opacity="0" result="BackgroundImageFix"/>
<feGaussianBlur in="BackgroundImage" stdDeviation="2.5"/>
<feComposite in2="SourceAlpha" operator="in" result="effect1_backgroundBlur"/>
<feBlend mode="normal" in="SourceGraphic" in2="effect1_backgroundBlur" result="shape"/>
</filter>
<filter id="filter2_b" x="250.864" y="426.406" width="660" height="385.245" filterUnits="userSpaceOnUse" color-interpolation-filters="sRGB">
<feFlood flood-opacity="0" result="BackgroundImageFix"/>
<feGaussianBlur in="BackgroundImage" stdDeviation="2.5"/>
<feComposite in2="SourceAlpha" operator="in" result="effect1_backgroundBlur"/>
<feBlend mode="normal" in="SourceGraphic" in2="effect1_backgroundBlur" result="shape"/>
</filter>
<filter id="filter3_dd" x="443.115" y="447" width="152.813" height="96.8396" filterUnits="userSpaceOnUse" color-interpolation-filters="sRGB">
<feFlood flood-opacity="0" result="BackgroundImageFix"/>
<feColorMatrix in="SourceAlpha" type="matrix" values="0 0 0 0 0 0 0 0 0 0 0 0 0 0 0 0 0 0 127 0"/>
<feOffset dy="2"/>
<feGaussianBlur stdDeviation="2"/>
<feColorMatrix type="matrix" values="0 0 0 0 0.376471 0 0 0 0 0.380392 0 0 0 0 0.439216 0 0 0 0.16 0"/>
<feBlend mode="normal" in2="BackgroundImageFix" result="effect1_dropShadow"/>
<feColorMatrix in="SourceAlpha" type="matrix" values="0 0 0 0 0 0 0 0 0 0 0 0 0 0 0 0 0 0 127 0"/>
<feOffset/>
<feGaussianBlur stdDeviation="0.5"/>
<feColorMatrix type="matrix" values="0 0 0 0 0.156863 0 0 0 0 0.160784 0 0 0 0 0.239216 0 0 0 0.04 0"/>
<feBlend mode="normal" in2="effect1_dropShadow" result="effect2_dropShadow"/>
<feBlend mode="normal" in="SourceGraphic" in2="effect2_dropShadow" result="shape"/>
</filter>
<filter id="filter4_dd" x="214.372" y="71.3652" width="743.888" height="441.21" filterUnits="userSpaceOnUse" color-interpolation-filters="sRGB">
<feFlood flood-opacity="0" result="BackgroundImageFix"/>
<feColorMatrix in="SourceAlpha" type="matrix" values="0 0 0 0 0 0 0 0 0 0 0 0 0 0 0 0 0 0 127 0"/>
<feOffset dy="4"/>
<feGaussianBlur stdDeviation="4"/>
<feColorMatrix type="matrix" values="0 0 0 0 0.376471 0 0 0 0 0.380392 0 0 0 0 0.439216 0 0 0 0.16 0"/>
<feBlend mode="normal" in2="BackgroundImageFix" result="effect1_dropShadow"/>
<feColorMatrix in="SourceAlpha" type="matrix" values="0 0 0 0 0 0 0 0 0 0 0 0 0 0 0 0 0 0 127 0"/>
<feOffset/>
<feGaussianBlur stdDeviation="1"/>
<feColorMatrix type="matrix" values="0 0 0 0 0.156863 0 0 0 0 0.160784 0 0 0 0 0.239216 0 0 0 0.04 0"/>
<feBlend mode="normal" in2="effect1_dropShadow" result="effect2_dropShadow"/>
<feBlend mode="normal" in="SourceGraphic" in2="effect2_dropShadow" result="shape"/>
</filter>
<filter id="filter5_dd" x="330.804" y="156.865" width="131.297" height="77.4885" filterUnits="userSpaceOnUse" color-interpolation-filters="sRGB">
<feFlood flood-opacity="0" result="BackgroundImageFix"/>
<feColorMatrix in="SourceAlpha" type="matrix" values="0 0 0 0 0 0 0 0 0 0 0 0 0 0 0 0 0 0 127 0"/>
<feOffset dy="0.5"/>
<feGaussianBlur stdDeviation="1"/>
<feColorMatrix type="matrix" values="0 0 0 0 0.376471 0 0 0 0 0.380392 0 0 0 0 0.439216 0 0 0 0.16 0"/>
<feBlend mode="normal" in2="BackgroundImageFix" result="effect1_dropShadow"/>
<feColorMatrix in="SourceAlpha" type="matrix" values="0 0 0 0 0 0 0 0 0 0 0 0 0 0 0 0 0 0 127 0"/>
<feOffset/>
<feGaussianBlur stdDeviation="0.5"/>
<feColorMatrix type="matrix" values="0 0 0 0 0.156863 0 0 0 0 0.160784 0 0 0 0 0.239216 0 0 0 0.08 0"/>
<feBlend mode="normal" in2="effect1_dropShadow" result="effect2_dropShadow"/>
<feBlend mode="normal" in="SourceGraphic" in2="effect2_dropShadow" result="shape"/>
</filter>
<filter id="filter6_dd" x="446.803" y="157.27" width="351.761" height="206.453" filterUnits="userSpaceOnUse" color-interpolation-filters="sRGB">
<feFlood flood-opacity="0" result="BackgroundImageFix"/>
<feColorMatrix in="SourceAlpha" type="matrix" values="0 0 0 0 0 0 0 0 0 0 0 0 0 0 0 0 0 0 127 0"/>
<feOffset dy="2"/>
<feGaussianBlur stdDeviation="2"/>
<feColorMatrix type="matrix" values="0 0 0 0 0.376471 0 0 0 0 0.380392 0 0 0 0 0.439216 0 0 0 0.16 0"/>
<feBlend mode="normal" in2="BackgroundImageFix" result="effect1_dropShadow"/>
<feColorMatrix in="SourceAlpha" type="matrix" values="0 0 0 0 0 0 0 0 0 0 0 0 0 0 0 0 0 0 127 0"/>
<feOffset/>
<feGaussianBlur stdDeviation="0.5"/>
<feColorMatrix type="matrix" values="0 0 0 0 0.156863 0 0 0 0 0.160784 0 0 0 0 0.239216 0 0 0 0.04 0"/>
<feBlend mode="normal" in2="effect1_dropShadow" result="effect2_dropShadow"/>
<feBlend mode="normal" in="SourceGraphic" in2="effect2_dropShadow" result="shape"/>
</filter>
<filter id="filter7_dd" x="552.388" y="273.528" width="378.272" height="220.067" filterUnits="userSpaceOnUse" color-interpolation-filters="sRGB">
<feFlood flood-opacity="0" result="BackgroundImageFix"/>
<feColorMatrix in="SourceAlpha" type="matrix" values="0 0 0 0 0 0 0 0 0 0 0 0 0 0 0 0 0 0 127 0"/>
<feOffset dy="0.5"/>
<feGaussianBlur stdDeviation="1"/>
<feColorMatrix type="matrix" values="0 0 0 0 0.376471 0 0 0 0 0.380392 0 0 0 0 0.439216 0 0 0 0.16 0"/>
<feBlend mode="normal" in2="BackgroundImageFix" result="effect1_dropShadow"/>
<feColorMatrix in="SourceAlpha" type="matrix" values="0 0 0 0 0 0 0 0 0 0 0 0 0 0 0 0 0 0 127 0"/>
<feOffset/>
<feGaussianBlur stdDeviation="0.5"/>
<feColorMatrix type="matrix" values="0 0 0 0 0.156863 0 0 0 0 0.160784 0 0 0 0 0.239216 0 0 0 0.08 0"/>
<feBlend mode="normal" in2="effect1_dropShadow" result="effect2_dropShadow"/>
<feBlend mode="normal" in="SourceGraphic" in2="effect2_dropShadow" result="shape"/>
</filter>
<filter id="filter8_dd" x="311.442" y="288.003" width="260.023" height="156.874" filterUnits="userSpaceOnUse" color-interpolation-filters="sRGB">
<feFlood flood-opacity="0" result="BackgroundImageFix"/>
<feColorMatrix in="SourceAlpha" type="matrix" values="0 0 0 0 0 0 0 0 0 0 0 0 0 0 0 0 0 0 127 0"/>
<feOffset dy="4"/>
<feGaussianBlur stdDeviation="4"/>
<feColorMatrix type="matrix" values="0 0 0 0 0.376471 0 0 0 0 0.380392 0 0 0 0 0.439216 0 0 0 0.16 0"/>
<feBlend mode="normal" in2="BackgroundImageFix" result="effect1_dropShadow"/>
<feColorMatrix in="SourceAlpha" type="matrix" values="0 0 0 0 0 0 0 0 0 0 0 0 0 0 0 0 0 0 127 0"/>
<feOffset/>
<feGaussianBlur stdDeviation="1"/>
<feColorMatrix type="matrix" values="0 0 0 0 0.156863 0 0 0 0 0.160784 0 0 0 0 0.239216 0 0 0 0.04 0"/>
<feBlend mode="normal" in2="effect1_dropShadow" result="effect2_dropShadow"/>
<feBlend mode="normal" in="SourceGraphic" in2="effect2_dropShadow" result="shape"/>
</filter>
<filter id="filter9_dd" x="348.144" y="271.124" width="252.023" height="148.874" filterUnits="userSpaceOnUse" color-interpolation-filters="sRGB">
<feFlood flood-opacity="0" result="BackgroundImageFix"/>
<feColorMatrix in="SourceAlpha" type="matrix" values="0 0 0 0 0 0 0 0 0 0 0 0 0 0 0 0 0 0 127 0"/>
<feOffset dy="2"/>
<feGaussianBlur stdDeviation="2"/>
<feColorMatrix type="matrix" values="0 0 0 0 0.376471 0 0 0 0 0.380392 0 0 0 0 0.439216 0 0 0 0.16 0"/>
<feBlend mode="normal" in2="BackgroundImageFix" result="effect1_dropShadow"/>
<feColorMatrix in="SourceAlpha" type="matrix" values="0 0 0 0 0 0 0 0 0 0 0 0 0 0 0 0 0 0 127 0"/>
<feOffset/>
<feGaussianBlur stdDeviation="0.5"/>
<feColorMatrix type="matrix" values="0 0 0 0 0.156863 0 0 0 0 0.160784 0 0 0 0 0.239216 0 0 0 0.04 0"/>
<feBlend mode="normal" in2="effect1_dropShadow" result="effect2_dropShadow"/>
<feBlend mode="normal" in="SourceGraphic" in2="effect2_dropShadow" result="shape"/>
</filter>
<filter id="filter10_dd" x="382.846" y="252.744" width="248.023" height="144.874" filterUnits="userSpaceOnUse" color-interpolation-filters="sRGB">
<feFlood flood-opacity="0" result="BackgroundImageFix"/>
<feColorMatrix in="SourceAlpha" type="matrix" values="0 0 0 0 0 0 0 0 0 0 0 0 0 0 0 0 0 0 127 0"/>
<feOffset dy="0.5"/>
<feGaussianBlur stdDeviation="1"/>
<feColorMatrix type="matrix" values="0 0 0 0 0.376471 0 0 0 0 0.380392 0 0 0 0 0.439216 0 0 0 0.16 0"/>
<feBlend mode="normal" in2="BackgroundImageFix" result="effect1_dropShadow"/>
<feColorMatrix in="SourceAlpha" type="matrix" values="0 0 0 0 0 0 0 0 0 0 0 0 0 0 0 0 0 0 127 0"/>
<feOffset/>
<feGaussianBlur stdDeviation="0.5"/>
<feColorMatrix type="matrix" values="0 0 0 0 0.156863 0 0 0 0 0.160784 0 0 0 0 0.239216 0 0 0 0.08 0"/>
<feBlend mode="normal" in2="effect1_dropShadow" result="effect2_dropShadow"/>
<feBlend mode="normal" in="SourceGraphic" in2="effect2_dropShadow" result="shape"/>
</filter>
<filter id="filter11_dd" x="415.549" y="233.865" width="248.023" height="144.874" filterUnits="userSpaceOnUse" color-interpolation-filters="sRGB">
<feFlood flood-opacity="0" result="BackgroundImageFix"/>
<feColorMatrix in="SourceAlpha" type="matrix" values="0 0 0 0 0 0 0 0 0 0 0 0 0 0 0 0 0 0 127 0"/>
<feOffset dy="0.5"/>
<feGaussianBlur stdDeviation="1"/>
<feColorMatrix type="matrix" values="0 0 0 0 0.376471 0 0 0 0 0.380392 0 0 0 0 0.439216 0 0 0 0.16 0"/>
<feBlend mode="normal" in2="BackgroundImageFix" result="effect1_dropShadow"/>
<feColorMatrix in="SourceAlpha" type="matrix" values="0 0 0 0 0 0 0 0 0 0 0 0 0 0 0 0 0 0 127 0"/>
<feOffset/>
<feGaussianBlur stdDeviation="0.5"/>
<feColorMatrix type="matrix" values="0 0 0 0 0.156863 0 0 0 0 0.160784 0 0 0 0 0.239216 0 0 0 0.08 0"/>
<feBlend mode="normal" in2="effect1_dropShadow" result="effect2_dropShadow"/>
<feBlend mode="normal" in="SourceGraphic" in2="effect2_dropShadow" result="shape"/>
</filter>
<filter id="filter12_dd" x="435" y="0" width="156.35" height="97.8401" filterUnits="userSpaceOnUse" color-interpolation-filters="sRGB">
<feFlood flood-opacity="0" result="BackgroundImageFix"/>
<feColorMatrix in="SourceAlpha" type="matrix" values="0 0 0 0 0 0 0 0 0 0 0 0 0 0 0 0 0 0 127 0"/>
<feOffset dy="2"/>
<feGaussianBlur stdDeviation="2"/>
<feColorMatrix type="matrix" values="0 0 0 0 0.376471 0 0 0 0 0.380392 0 0 0 0 0.439216 0 0 0 0.16 0"/>
<feBlend mode="normal" in2="BackgroundImageFix" result="effect1_dropShadow"/>
<feColorMatrix in="SourceAlpha" type="matrix" values="0 0 0 0 0 0 0 0 0 0 0 0 0 0 0 0 0 0 127 0"/>
<feOffset/>
<feGaussianBlur stdDeviation="0.5"/>
<feColorMatrix type="matrix" values="0 0 0 0 0.156863 0 0 0 0 0.160784 0 0 0 0 0.239216 0 0 0 0.04 0"/>
<feBlend mode="normal" in2="effect1_dropShadow" result="effect2_dropShadow"/>
<feBlend mode="normal" in="SourceGraphic" in2="effect2_dropShadow" result="shape"/>
</filter>
<linearGradient id="paint0_linear" x1="463.257" y1="463.365" x2="425.083" y2="872.278" gradientUnits="userSpaceOnUse">
<stop stop-color="#8B90A4"/>
<stop offset="1" stop-color="#28293D"/>
</linearGradient>
<radialGradient id="paint1_radial" cx="0" cy="0" r="1" gradientUnits="userSpaceOnUse" gradientTransform="translate(151.665 215.267) rotate(93.6861) scale(242.372 159.495)">
<stop stop-color="#C4C4C4"/>
<stop offset="1" stop-color="#C4C4C4" stop-opacity="0"/>
</radialGradient>
<linearGradient id="paint2_linear" x1="502.951" y1="475.294" x2="528.553" y2="532.857" gradientUnits="userSpaceOnUse">
<stop stop-color="#E4E4EB"/>
<stop offset="1" stop-color="#EDF0F4"/>
</linearGradient>
<linearGradient id="paint3_linear" x1="513.57" y1="17" x2="513.57" y2="90.5395" gradientUnits="userSpaceOnUse">
<stop stop-color="#39D98A"/>
<stop offset="1" stop-color="#47FFA4" stop-opacity="0.42"/>
</linearGradient>
<linearGradient id="paint4_linear" x1="545.319" y1="53.6446" x2="545.319" y2="135.5" gradientUnits="userSpaceOnUse">
<stop stop-color="#39D98A"/>
<stop offset="1" stop-color="#47FFA4" stop-opacity="0"/>
</linearGradient>
<linearGradient id="paint5_linear" x1="481.819" y1="53.6446" x2="481.819" y2="131.5" gradientUnits="userSpaceOnUse">
<stop stop-color="#39D98A"/>
<stop offset="1" stop-color="#47FFA4" stop-opacity="0"/>
</linearGradient>
<linearGradient id="paint6_linear" x1="503.106" y1="29.2944" x2="528.709" y2="86.8577" gradientUnits="userSpaceOnUse">
<stop stop-color="#E4E4EB"/>
<stop offset="1" stop-color="#EDF0F4"/>
</linearGradient>
<clipPath id="clip0">
<rect width="11.222" height="11.222" fill="white" transform="matrix(0.874237 0.504698 -0.874237 0.504698 279.372 338.723)"/>
</clipPath>
<clipPath id="clip1">
<rect width="11.222" height="11.222" fill="white" transform="matrix(0.874236 0.504698 -0.874236 0.504698 471.499 449.637)"/>
</clipPath>
<clipPath id="clip2">
<rect width="11.222" height="11.222" fill="white" transform="matrix(0.874238 0.504697 -0.874238 0.504697 312.075 319.844)"/>
</clipPath>
<clipPath id="clip3">
<rect width="11.222" height="11.222" fill="white" transform="matrix(0.874238 0.504697 -0.874238 0.504697 504.201 430.758)"/>
</clipPath>
<clipPath id="clip4">
<rect width="11.222" height="11.222" fill="white" transform="matrix(0.874238 0.504697 -0.874238 0.504697 344.777 300.965)"/>
</clipPath>
<clipPath id="clip5">
<rect width="11.222" height="11.222" fill="white" transform="matrix(0.874237 0.504698 -0.874237 0.504698 536.903 411.879)"/>
</clipPath>
<clipPath id="clip6">
<rect width="11.222" height="11.222" fill="white" transform="matrix(0.874238 0.504697 -0.874238 0.504697 377.479 282.086)"/>
</clipPath>
<clipPath id="clip7">
<rect width="11.222" height="11.222" fill="white" transform="matrix(0.874238 0.504697 -0.874238 0.504697 569.605 393)"/>
</clipPath>
<clipPath id="clip8">
<rect width="11.222" height="11.222" fill="white" transform="matrix(0.874238 0.504697 -0.874238 0.504697 410.182 263.207)"/>
</clipPath>
<clipPath id="clip9">
<rect width="11.222" height="11.222" fill="white" transform="matrix(0.874237 0.504698 -0.874237 0.504698 602.308 374.121)"/>
</clipPath>
<clipPath id="clip10">
<rect width="11.222" height="11.222" fill="white" transform="matrix(0.874238 0.504697 -0.874238 0.504697 442.884 244.328)"/>
</clipPath>
<clipPath id="clip11">
<rect width="11.222" height="11.222" fill="white" transform="matrix(0.874238 0.504697 -0.874238 0.504697 635.01 355.242)"/>
</clipPath>
</defs>
</svg>
