<svg width="362" height="208" viewBox="0 0 362 208" fill="none" xmlns="http://www.w3.org/2000/svg">
<mask id="mask0" mask-type="alpha" maskUnits="userSpaceOnUse" x="53" y="32" width="256" height="144">
<rect x="53" y="32" width="256" height="144" fill="url(#paint0_radial)"/>
</mask>
<g mask="url(#mask0)">
<path opacity="0.15" d="M589.755 131.253L180.572 -104.969L-228.963 131.456L180.221 367.677L589.755 131.253ZM136.037 -78.2515L180.571 -103.961L225.066 -78.2735L180.533 -52.5643L136.037 -78.2515ZM181.405 -52.0606L225.939 -77.7698L270.434 -52.0826L225.901 -26.3734L181.405 -52.0606ZM226.773 -25.8697L271.307 -51.5789L315.802 -25.8917L271.268 -0.182472L226.773 -25.8697ZM272.141 0.321198L316.674 -25.3881L361.17 0.299164L316.636 26.0084L272.141 0.321198ZM317.509 26.5121L362.042 0.802841L406.538 26.4901L362.004 52.1993L317.509 26.5121ZM362.877 52.703L407.41 26.9937L451.906 52.681L407.372 78.3902L362.877 52.703ZM408.245 78.8939L452.778 53.1846L497.274 78.8718L452.74 104.581L408.245 78.8939ZM453.613 105.085L498.146 79.3755L542.642 105.063L498.108 130.772L453.613 105.085ZM498.98 131.276L543.514 105.566L588.009 131.254L543.476 156.963L498.98 131.276ZM90.6304 -52.0381L135.164 -77.7474L179.659 -52.0601L135.126 -26.3509L90.6304 -52.0381ZM135.998 -25.8472L180.532 -51.5565L225.027 -25.8693L180.494 -0.160011L135.998 -25.8472ZM181.366 0.343658L225.9 -25.3656L270.395 0.32164L225.862 26.0309L181.366 0.343658ZM226.734 26.5345L271.268 0.82531L315.763 26.5125L271.23 52.2218L226.734 26.5345ZM272.102 52.7254L316.636 27.0162L361.131 52.7034L316.597 78.4127L272.102 52.7254ZM317.47 78.9163L362.003 53.2071L406.499 78.8943L361.965 104.604L317.47 78.9163ZM362.838 105.107L407.371 79.398L451.867 105.085L407.333 130.794L362.838 105.107ZM408.206 131.298L452.739 105.589L497.235 131.276L452.701 156.985L408.206 131.298ZM453.574 157.489L498.107 131.78L542.603 157.467L498.069 183.176L453.574 157.489ZM45.2236 -25.8248L89.7572 -51.534L134.253 -25.8468L89.7191 -0.137558L45.2236 -25.8248ZM90.5915 0.366119L135.125 -25.3431L179.621 0.344101L135.087 26.0533L90.5915 0.366119ZM135.959 26.557L180.493 0.847771L224.988 26.535L180.455 52.2442L135.959 26.557ZM181.327 52.7479L225.861 27.0387L270.356 52.7259L225.823 78.4351L181.327 52.7479ZM226.695 78.9388L271.229 53.2296L315.724 78.9168L271.191 104.626L226.695 78.9388ZM272.063 105.13L316.597 79.4205L361.092 105.108L316.559 130.817L272.063 105.13ZM317.431 131.321L361.965 105.611L406.46 131.299L361.926 157.008L317.431 131.321ZM362.799 157.511L407.333 131.802L451.828 157.489L407.294 183.199L362.799 157.511ZM408.167 183.702L452.7 157.993L497.196 183.68L452.662 209.39L408.167 183.702ZM-0.183197 0.388573L44.3504 -25.3207L88.8458 0.366554L44.3123 26.0758L-0.183197 0.388573ZM45.1847 26.5795L89.7183 0.870224L134.214 26.5574L89.6801 52.2667L45.1847 26.5795ZM90.5526 52.7704L135.086 27.0611L179.582 52.7484L135.048 78.4576L90.5526 52.7704ZM135.921 78.9613L180.454 53.252L224.95 78.9392L180.416 104.648L135.921 78.9613ZM181.288 105.152L225.822 79.4429L270.317 105.13L225.784 130.839L181.288 105.152ZM226.656 131.343L271.19 105.634L315.685 131.321L271.152 157.03L226.656 131.343ZM272.024 157.534L316.558 131.825L361.053 157.512L316.52 183.221L272.024 157.534ZM317.392 183.725L361.926 158.016L406.421 183.703L361.888 209.412L317.392 183.725ZM362.76 209.916L407.294 184.206L451.789 209.894L407.255 235.603L362.76 209.916ZM-45.59 26.6019L-1.05641 0.892685L43.439 26.5799L-1.09456 52.2892L-45.59 26.6019ZM-0.222107 52.7928L44.3115 27.0836L88.8069 52.7708L44.2733 78.4801L-0.222107 52.7928ZM45.1458 78.9837L89.6794 53.2745L134.175 78.9617L89.6412 104.671L45.1458 78.9837ZM90.5137 105.175L135.047 79.4654L179.543 105.153L135.009 130.862L90.5137 105.175ZM135.882 131.366L180.415 105.656L224.911 131.343L180.377 157.053L135.882 131.366ZM181.25 157.556L225.783 131.847L270.279 157.534L225.745 183.244L181.25 157.556ZM226.617 183.747L271.151 158.038L315.646 183.725L271.113 209.435L226.617 183.747ZM271.985 209.938L316.519 184.229L361.014 209.916L316.481 235.625L271.985 209.938ZM317.353 236.129L361.887 210.42L406.382 236.107L361.849 261.816L317.353 236.129ZM-90.9968 52.8153L-46.4632 27.106L-1.96777 52.7933L-46.5014 78.5025L-90.9968 52.8153ZM-45.6289 79.0062L-1.09532 53.2969L43.4001 78.9842L-1.13347 104.693L-45.6289 79.0062ZM-0.261002 105.197L44.2726 79.4878L88.768 105.175L44.2344 130.884L-0.261002 105.197ZM45.1069 131.388L89.6405 105.679L134.136 131.366L89.6023 157.075L45.1069 131.388ZM90.4748 157.579L135.008 131.87L179.504 157.557L134.97 183.266L90.4748 157.579ZM135.843 183.77L180.376 158.061L224.872 183.748L180.338 209.457L135.843 183.77ZM181.211 209.961L225.744 184.251L270.24 209.939L225.706 235.648L181.211 209.961ZM226.578 236.152L271.112 210.442L315.608 236.13L271.074 261.839L226.578 236.152ZM271.946 262.342L316.48 236.633L360.975 262.32L316.442 288.03L271.946 262.342ZM-136.404 79.0286L-91.87 53.3194L-47.3746 79.0066L-91.9082 104.716L-136.404 79.0286ZM-91.0357 105.22L-46.5021 79.5103L-2.00668 105.198L-46.5403 130.907L-91.0357 105.22ZM-45.6678 131.41L-1.13422 105.701L43.3612 131.388L-1.17236 157.098L-45.6678 131.41ZM-0.299911 157.601L44.2337 131.892L88.7291 157.579L44.1955 183.289L-0.299911 157.601ZM45.068 183.792L89.6016 158.083L134.097 183.77L89.5634 209.479L45.068 183.792ZM90.4359 209.983L134.969 184.274L179.465 209.961L134.931 235.67L90.4359 209.983ZM135.804 236.174L180.337 210.465L224.833 236.152L180.299 261.861L135.804 236.174ZM181.172 262.365L225.705 236.656L270.201 262.343L225.667 288.052L181.172 262.365ZM226.54 288.556L271.073 262.847L315.569 288.534L271.035 314.243L226.54 288.556ZM-181.81 105.242L-137.277 79.5327L-92.7814 105.22L-137.315 130.929L-181.81 105.242ZM-136.443 131.433L-91.9089 105.724L-47.4135 131.411L-91.9471 157.12L-136.443 131.433ZM-91.0746 157.624L-46.541 131.915L-2.04558 157.602L-46.5792 183.311L-91.0746 157.624ZM-45.7067 183.815L-1.17313 158.105L43.3223 183.793L-1.21127 209.502L-45.7067 183.815ZM-0.338806 210.006L44.1948 184.296L88.6902 209.984L44.1566 235.693L-0.338806 210.006ZM45.0291 236.196L89.5627 210.487L134.058 236.174L89.5245 261.884L45.0291 236.196ZM90.397 262.387L134.931 236.678L179.426 262.365L134.892 288.075L90.397 262.387ZM135.765 288.578L180.298 262.869L224.794 288.556L180.26 314.265L135.765 288.578ZM181.133 314.769L225.666 289.06L270.162 314.747L225.628 340.456L181.133 314.769ZM-227.217 131.455L-182.684 105.746L-138.188 131.433L-182.722 157.143L-227.217 131.455ZM-181.849 157.646L-137.316 131.937L-92.8203 157.624L-137.354 183.333L-181.849 157.646ZM-136.481 183.837L-91.9478 158.128L-47.4524 183.815L-91.986 209.524L-136.481 183.837ZM-91.1135 210.028L-46.5799 184.319L-2.08449 210.006L-46.6181 235.715L-91.1135 210.028ZM-45.7456 236.219L-1.21202 210.51L43.2834 236.197L-1.25018 261.906L-45.7456 236.219ZM-0.377716 262.41L44.1559 236.701L88.6513 262.388L44.1177 288.097L-0.377716 262.41ZM44.9902 288.601L89.5238 262.891L134.019 288.579L89.4856 314.288L44.9902 288.601ZM90.3581 314.792L134.892 289.082L179.387 314.77L134.854 340.479L90.3581 314.792ZM135.726 340.982L180.26 315.273L224.755 340.96L180.221 366.67L135.726 340.982Z" fill="#C7C9D9"/>
<path d="M-93.6925 157.624L-91.9461 156.615L-90.2012 157.623L-91.9476 158.631L-93.6925 157.624ZM-182.683 106.249L-180.937 105.241L-182.682 104.234L-184.428 105.242L-182.683 106.249ZM-46.5602 158.62L-44.8138 157.612L-46.5587 156.604L-48.3051 157.612L-46.5602 158.62ZM-137.315 132.44L-135.569 131.432L-137.314 130.425L-139.06 131.433L-137.315 132.44ZM-91.9281 132.429L-90.1817 131.421L-91.9266 130.413L-93.673 131.422L-91.9281 132.429ZM-182.703 132.451L-180.956 131.443L-182.701 130.436L-184.448 131.444L-182.703 132.451ZM-137.354 184.844L-135.608 183.836L-137.353 182.829L-139.099 183.837L-137.354 184.844ZM-91.967 184.833L-90.2206 183.825L-91.9655 182.818L-93.7119 183.826L-91.967 184.833ZM-182.721 156.638L-184.467 157.646L-182.722 158.653L-180.976 157.645L-182.721 156.638ZM-137.335 158.642L-135.589 157.634L-137.333 156.627L-139.08 157.635L-137.335 158.642ZM-91.8892 80.0247L-90.1428 79.0165L-91.8877 78.0091L-93.6341 79.0173L-91.8892 80.0247ZM-137.296 106.238L-135.55 105.23L-137.295 104.222L-139.041 105.231L-137.296 106.238ZM-46.5213 106.216L-44.7749 105.207L-46.5198 104.2L-48.2662 105.208L-46.5213 106.216ZM-1.15343 132.406L0.592987 131.398L-1.15193 130.391L-2.89835 131.399L-1.15343 132.406ZM-46.5408 132.418L-44.7944 131.409L-46.5393 130.402L-48.2857 131.41L-46.5408 132.418ZM-91.9087 106.227L-90.1623 105.219L-91.9072 104.211L-93.6536 105.219L-91.9087 106.227ZM-137.277 80.0359L-135.53 79.0277L-137.275 78.0203L-139.021 79.0285L-137.277 80.0359ZM-231.579 128.936L-232.452 129.44L-228.962 131.455L-232.455 133.471L-231.583 133.975L-228.09 131.959L-224.6 133.973L-223.727 133.469L-227.217 131.455L-223.724 129.438L-224.596 128.935L-228.089 130.951L-231.579 128.936ZM44.2728 79.991L46.0192 78.9828L44.2743 77.9754L42.5279 78.9836L44.2728 79.991ZM-46.463 27.6092L-44.7166 26.601L-46.4615 25.5937L-48.2079 26.6019L-46.463 27.6092ZM89.6602 79.9798L91.4066 78.9715L89.6617 77.9642L87.9153 78.9724L89.6602 79.9798ZM-1.09508 53.8001L0.651337 52.7919L-1.09358 51.7845L-2.84 52.7928L-1.09508 53.8001ZM44.2923 53.7889L46.0387 52.7806L44.2938 51.7733L42.5474 52.7815L44.2923 53.7889ZM-46.4824 53.8113L-44.736 52.8031L-46.4809 51.7958L-48.2273 52.804L-46.4824 53.8113ZM-1.13399 106.204L0.612427 105.196L-1.13249 104.189L-2.87891 105.197L-1.13399 106.204ZM44.2534 106.193L45.9998 105.185L44.2549 104.178L42.5085 105.186L44.2534 106.193ZM-46.5004 77.9979L-48.2468 79.0061L-46.5019 80.0134L-44.7555 79.0052L-46.5004 77.9979ZM-1.11453 80.0022L0.631882 78.994L-1.11304 77.9867L-2.85945 78.9949L-1.11453 80.0022ZM44.3312 1.38462L46.0776 0.376419L44.3327 -0.63092L42.5863 0.377281L44.3312 1.38462ZM-1.07562 27.598L0.670792 26.5898L-1.07411 25.5824L-2.82054 26.5906L-1.07562 27.598ZM89.6991 27.5755L91.4455 26.5673L89.7006 25.56L87.9542 26.5682L89.6991 27.5755ZM135.067 53.7664L136.813 52.7582L135.068 51.7509L133.322 52.759L135.067 53.7664ZM89.6796 53.7776L91.426 52.7694L89.6811 51.7621L87.9347 52.7703L89.6796 53.7776ZM44.3117 27.5867L46.0581 26.5785L44.3132 25.5712L42.5668 26.5794L44.3117 27.5867ZM-1.05618 1.39586L0.690247 0.38765L-1.05467 -0.619698L-2.8011 0.388519L-1.05618 1.39586ZM-95.3585 50.2962L-96.2317 50.8003L-92.7419 52.815L-96.2347 54.8314L-95.3622 55.3351L-91.8694 53.3187L-88.3796 55.3333L-87.5063 54.8292L-90.9962 52.8146L-87.5034 50.7981L-88.3758 50.2945L-91.8687 52.3109L-95.3585 50.2962ZM180.493 1.35093L182.24 0.342735L180.495 -0.664604L178.748 0.34359L180.493 1.35093ZM89.7574 -51.0308L91.5038 -52.039L89.7589 -53.0464L88.0125 -52.0382L89.7574 -51.0308ZM225.881 1.33971L227.627 0.331497L225.882 -0.675842L224.136 0.332367L225.881 1.33971ZM135.125 -24.84L136.872 -25.8482L135.127 -26.8555L133.38 -25.8473L135.125 -24.84ZM180.513 -24.8512L182.259 -25.8594L180.514 -26.8667L178.768 -25.8585L180.513 -24.8512ZM89.738 -24.8287L91.4844 -25.8369L89.7395 -26.8443L87.993 -25.8361L89.738 -24.8287ZM135.086 27.5643L136.833 26.5561L135.088 25.5487L133.341 26.5569L135.086 27.5643ZM180.474 27.5531L182.22 26.5448L180.475 25.5375L178.729 26.5457L180.474 27.5531ZM89.72 -0.642159L87.9736 0.366051L89.7185 1.3734L91.4649 0.365181L89.72 -0.642159ZM135.106 1.36217L136.852 0.353958L135.107 -0.653381L133.361 0.354828L135.106 1.36217ZM180.552 -77.2554L182.298 -78.2636L180.553 -79.271L178.807 -78.2628L180.552 -77.2554ZM271.307 -51.0758L273.053 -52.084L271.308 -53.0913L269.562 -52.0831L271.307 -51.0758ZM225.94 -79.2822L224.194 -78.274L225.939 -77.2666L227.685 -78.2748L225.94 -79.2822ZM135.145 -51.0421L136.891 -52.0503L135.146 -53.0576L133.4 -52.0494L135.145 -51.0421ZM225.919 -51.0645L227.666 -52.0727L225.921 -53.0801L224.175 -52.0719L225.919 -51.0645ZM271.287 -24.8736L273.034 -25.8818L271.289 -26.8892L269.542 -25.881L271.287 -24.8736ZM225.9 -24.8624L227.646 -25.8706L225.902 -26.878L224.155 -25.8698L225.9 -24.8624ZM180.532 -51.0533L182.279 -52.0615L180.534 -53.0688L178.787 -52.0606L180.532 -51.0533ZM135.164 -77.2442L136.911 -78.2524L135.166 -79.2597L133.419 -78.2515L135.164 -77.2442ZM180.572 -104.969L177.082 -106.984L176.209 -106.48L179.699 -104.465L176.206 -102.449L177.079 -101.945L180.571 -103.961L184.061 -101.947L184.934 -102.451L181.445 -104.466L184.937 -106.482L184.065 -106.986L180.572 -104.969ZM40.8619 -28.3438L39.9887 -27.8397L43.4785 -25.8251L39.9857 -23.8086L40.8582 -23.305L44.351 -25.3214L47.8408 -23.3067L48.7141 -23.8108L45.2242 -25.8255L48.717 -27.8419L47.8446 -28.3456L44.3517 -26.3292L40.8619 -28.3438ZM44.1561 237.204L45.9025 236.195L44.1576 235.188L42.4112 236.196L44.1561 237.204ZM-46.5797 184.822L-44.8333 183.814L-46.5782 182.806L-48.3246 183.815L-46.5797 184.822ZM89.5435 237.192L91.2899 236.184L89.5449 235.177L87.7985 236.185L89.5435 237.192ZM-1.21179 211.013L0.534622 210.005L-1.2103 208.997L-2.95671 210.005L-1.21179 211.013ZM44.1756 211.002L45.922 209.993L44.177 208.986L42.4306 209.994L44.1756 211.002ZM-46.5991 211.024L-44.8527 210.016L-46.5976 209.008L-48.3441 210.017L-46.5991 211.024ZM-1.25069 263.417L0.495728 262.409L-1.24921 261.401L-2.99562 262.41L-1.25069 263.417ZM44.1367 263.406L45.8831 262.398L44.1382 261.39L42.3917 262.398L44.1367 263.406ZM-46.6171 235.211L-48.3635 236.219L-46.6186 237.226L-44.8722 236.218L-46.6171 235.211ZM-1.23123 237.215L0.515182 236.207L-1.22975 235.199L-2.97617 236.208L-1.23123 237.215ZM44.2145 158.597L45.9609 157.589L44.216 156.582L42.4695 157.59L44.2145 158.597ZM-1.19234 184.811L0.554077 183.802L-1.19084 182.795L-2.93726 183.803L-1.19234 184.811ZM89.5824 184.788L91.3288 183.78L89.5839 182.773L87.8374 183.781L89.5824 184.788ZM134.95 210.979L136.697 209.971L134.952 208.964L133.205 209.972L134.95 210.979ZM89.5629 210.99L91.3093 209.982L89.5644 208.975L87.818 209.983L89.5629 210.99ZM44.195 184.799L45.9414 183.791L44.1965 182.784L42.4501 183.792L44.195 184.799ZM-1.17288 158.609L0.573532 157.6L-1.17139 156.593L-2.9178 157.601L-1.17288 158.609ZM-95.4752 207.509L-96.3484 208.013L-92.8586 210.028L-96.3514 212.044L-95.4789 212.548L-91.9861 210.531L-88.4963 212.546L-87.6231 212.042L-91.1129 210.027L-87.6201 208.011L-88.4925 207.507L-91.9854 209.524L-95.4752 207.509ZM180.376 158.564L182.123 157.555L180.378 156.548L178.632 157.556L180.376 158.564ZM89.6407 106.182L91.3871 105.174L89.6422 104.166L87.8958 105.175L89.6407 106.182ZM225.764 158.552L227.51 157.544L225.765 156.537L224.019 157.545L225.764 158.552ZM135.009 132.373L136.755 131.365L135.01 130.357L133.264 131.365L135.009 132.373ZM180.396 132.362L182.142 131.353L180.397 130.346L178.651 131.354L180.396 132.362ZM89.6212 132.384L91.3677 131.376L89.6227 130.368L87.8763 131.377L89.6212 132.384ZM134.97 184.777L136.716 183.769L134.971 182.761L133.225 183.77L134.97 184.777ZM180.357 184.766L182.103 183.758L180.359 182.75L178.612 183.758L180.357 184.766ZM89.6033 156.571L87.8569 157.579L89.6018 158.586L91.3482 157.578L89.6033 156.571ZM134.989 158.575L136.736 157.567L134.991 156.559L133.244 157.568L134.989 158.575ZM180.435 79.9573L182.181 78.9491L180.436 77.9417L178.69 78.9499L180.435 79.9573ZM135.028 106.171L136.774 105.162L135.03 104.155L133.283 105.163L135.028 106.171ZM225.803 106.148L227.549 105.14L225.804 104.133L224.058 105.141L225.803 106.148ZM271.171 132.339L272.917 131.331L271.172 130.324L269.426 131.332L271.171 132.339ZM225.783 132.35L227.53 131.342L225.785 130.335L224.038 131.343L225.783 132.35ZM180.415 106.159L182.162 105.151L180.417 104.144L178.67 105.152L180.415 106.159ZM135.048 79.9685L136.794 78.9603L135.049 77.953L133.303 78.9612L135.048 79.9685ZM40.7452 128.869L39.872 129.373L43.3618 131.388L39.869 133.404L40.7415 133.908L44.2343 131.891L47.7241 133.906L48.5973 133.402L45.1075 131.387L48.6003 129.371L47.7279 128.867L44.235 130.884L40.7452 128.869ZM316.597 79.9236L318.343 78.9154L316.598 77.9081L314.852 78.9162L316.597 79.9236ZM225.861 27.5418L227.608 26.5336L225.863 25.5263L224.116 26.5345L225.861 27.5418ZM361.984 79.9124L363.731 78.9042L361.986 77.8968L360.239 78.905L361.984 79.9124ZM271.229 53.7327L272.975 52.7245L271.23 51.7172L269.484 52.7254L271.229 53.7327ZM316.616 53.7215L318.363 52.7133L316.618 51.7059L314.871 52.7141L316.616 53.7215ZM225.842 53.7439L227.588 52.7357L225.843 51.7284L224.097 52.7366L225.842 53.7439ZM271.19 106.137L272.937 105.129L271.192 104.121L269.445 105.13L271.19 106.137ZM316.577 106.126L318.324 105.118L316.579 104.11L314.833 105.118L316.577 106.126ZM225.824 77.9305L224.077 78.9387L225.822 79.9461L227.569 78.9379L225.824 77.9305ZM271.21 79.9348L272.956 78.9266L271.211 77.9193L269.465 78.9275L271.21 79.9348ZM316.655 1.31724L318.402 0.309044L316.657 -0.698296L314.91 0.309898L316.655 1.31724ZM407.41 27.4969L409.157 26.4887L407.412 25.4814L405.666 26.4896L407.41 27.4969ZM362.044 -0.709526L360.298 0.298668L362.043 1.30602L363.789 0.297813L362.044 -0.709526ZM271.248 27.5306L272.995 26.5224L271.25 25.515L269.504 26.5233L271.248 27.5306ZM362.023 27.5081L363.77 26.4999L362.025 25.4926L360.278 26.5008L362.023 27.5081ZM407.391 53.699L409.137 52.6908L407.393 51.6835L405.646 52.6917L407.391 53.699ZM362.004 53.7103L363.75 52.702L362.005 51.6947L360.259 52.7029L362.004 53.7103ZM316.636 27.5194L318.382 26.5112L316.637 25.5038L314.891 26.512L316.636 27.5194ZM271.268 1.32848L273.014 0.320267L271.269 -0.687073L269.523 0.321136L271.268 1.32848ZM313.186 -28.4112L312.313 -27.9071L315.803 -25.8924L312.31 -23.876L313.182 -23.3724L316.675 -25.3888L320.165 -23.3741L321.038 -23.8782L317.548 -25.8929L321.041 -27.9093L320.169 -28.4129L316.676 -26.3965L313.186 -28.4112ZM176.966 50.2288L176.092 50.7329L179.582 52.7476L176.089 54.764L176.962 55.2677L180.455 53.2513L183.945 55.266L184.818 54.7619L181.328 52.7472L184.821 50.7308L183.948 50.2271L180.455 52.2435L176.966 50.2288ZM225.628 341.967L227.374 340.959L225.629 339.952L223.883 340.96L225.628 341.967ZM180.26 315.776L182.006 314.768L180.261 313.761L178.515 314.769L180.26 315.776ZM89.524 263.395L91.2704 262.386L89.5255 261.379L87.7791 262.387L89.524 263.395ZM225.647 315.765L227.394 314.757L225.649 313.75L223.902 314.758L225.647 315.765ZM134.892 289.585L136.638 288.577L134.893 287.57L133.147 288.578L134.892 289.585ZM180.279 289.574L182.026 288.566L180.281 287.559L178.534 288.567L180.279 289.574ZM89.5045 289.597L91.2509 288.588L89.506 287.581L87.7596 288.589L89.5045 289.597ZM134.853 341.99L136.599 340.981L134.854 339.974L133.108 340.982L134.853 341.99ZM180.24 341.978L181.987 340.97L180.242 339.963L178.495 340.971L180.24 341.978ZM89.4866 313.783L87.7402 314.791L89.4851 315.799L91.2315 314.791L89.4866 313.783ZM134.872 315.788L136.619 314.779L134.874 313.772L133.128 314.78L134.872 315.788ZM180.318 237.17L182.065 236.162L180.32 235.154L178.573 236.163L180.318 237.17ZM134.911 263.383L136.658 262.375L134.913 261.368L133.166 262.376L134.911 263.383ZM225.686 263.361L227.432 262.353L225.688 261.345L223.941 262.354L225.686 263.361ZM271.054 289.552L272.8 288.544L271.055 287.536L269.309 288.544L271.054 289.552ZM271.034 315.754L272.781 314.746L271.036 313.738L269.29 314.747L271.034 315.754ZM225.667 289.563L227.413 288.555L225.668 287.547L223.922 288.556L225.667 289.563ZM180.299 263.372L182.045 262.364L180.3 261.357L178.554 262.365L180.299 263.372ZM134.931 237.181L136.677 236.173L134.932 235.166L133.186 236.174L134.931 237.181ZM40.6285 286.082L39.7553 286.586L43.2451 288.6L39.7523 290.617L40.6247 291.12L44.1176 289.104L47.6074 291.119L48.4806 290.615L44.9908 288.6L48.4836 286.583L47.6111 286.08L44.1183 288.096L40.6285 286.082ZM176.732 364.654L175.859 365.158L179.349 367.173L175.856 369.189L176.728 369.693L180.221 367.677L183.711 369.691L184.584 369.187L181.094 367.173L184.587 365.156L183.715 364.653L180.222 366.669L176.732 364.654ZM361.848 263.327L363.594 262.319L361.85 261.312L360.103 262.32L361.848 263.327ZM316.48 237.136L318.227 236.128L316.482 235.121L314.735 236.129L316.48 237.136ZM225.744 184.755L227.491 183.746L225.746 182.739L223.999 183.747L225.744 184.755ZM361.868 237.125L363.614 236.117L361.869 235.11L360.123 236.118L361.868 237.125ZM271.112 210.945L272.859 209.937L271.114 208.93L269.367 209.938L271.112 210.945ZM316.5 210.934L318.246 209.926L316.501 208.919L314.755 209.927L316.5 210.934ZM225.725 210.957L227.471 209.948L225.726 208.941L223.98 209.949L225.725 210.957ZM271.073 263.35L272.82 262.341L271.075 261.334L269.328 262.342L271.073 263.35ZM316.461 263.338L318.207 262.33L316.462 261.323L314.716 262.331L316.461 263.338ZM225.707 235.143L223.961 236.151L225.705 237.159L227.452 236.151L225.707 235.143ZM271.093 237.148L272.839 236.139L271.094 235.132L269.348 236.14L271.093 237.148ZM316.539 158.53L318.285 157.522L316.54 156.514L314.794 157.523L316.539 158.53ZM271.132 184.743L272.878 183.735L271.133 182.728L269.387 183.736L271.132 184.743ZM361.906 184.721L363.653 183.713L361.908 182.705L360.161 183.714L361.906 184.721ZM407.274 210.912L409.021 209.904L407.276 208.896L405.529 209.904L407.274 210.912ZM407.255 237.114L409.001 236.106L407.256 235.098L405.51 236.107L407.255 237.114ZM361.887 210.923L363.633 209.915L361.888 208.907L360.142 209.916L361.887 210.923ZM316.519 184.732L318.266 183.724L316.521 182.717L314.774 183.725L316.519 184.732ZM271.151 158.541L272.898 157.533L271.153 156.526L269.406 157.534L271.151 158.541ZM176.849 207.442L175.976 207.946L179.465 209.96L175.973 211.977L176.845 212.48L180.338 210.464L183.828 212.479L184.701 211.975L181.211 209.96L184.704 207.943L183.832 207.44L180.339 209.456L176.849 207.442ZM312.953 286.014L312.079 286.518L315.569 288.533L312.076 290.549L312.949 291.053L316.442 289.037L319.931 291.051L320.805 290.547L317.315 288.533L320.808 286.516L319.935 286.012L316.442 288.029L312.953 286.014ZM498.068 184.687L499.815 183.679L498.07 182.672L496.324 183.68L498.068 184.687ZM452.701 158.496L454.447 157.488L452.702 156.481L450.956 157.489L452.701 158.496ZM361.965 106.114L363.711 105.106L361.966 104.099L360.22 105.107L361.965 106.114ZM498.088 158.485L499.834 157.477L498.089 156.469L496.343 157.478L498.088 158.485ZM407.333 132.305L409.079 131.297L407.334 130.29L405.588 131.298L407.333 132.305ZM452.72 132.294L454.466 131.286L452.722 130.279L450.975 131.287L452.72 132.294ZM361.945 132.317L363.692 131.308L361.947 130.301L360.2 131.309L361.945 132.317ZM407.294 184.71L409.04 183.701L407.295 182.694L405.549 183.702L407.294 184.71ZM452.681 184.698L454.428 183.69L452.683 182.683L450.936 183.691L452.681 184.698ZM361.927 156.503L360.181 157.511L361.926 158.519L363.672 157.51L361.927 156.503ZM407.313 158.507L409.06 157.499L407.315 156.492L405.568 157.5L407.313 158.507ZM452.759 79.8899L454.505 78.8817L452.76 77.8744L451.014 78.8826L452.759 79.8899ZM543.514 106.07L545.261 105.061L543.516 104.054L541.769 105.062L543.514 106.07ZM498.148 77.8631L496.401 78.8713L498.146 79.8787L499.893 78.8705L498.148 77.8631ZM407.352 106.103L409.099 105.095L407.354 104.088L405.607 105.096L407.352 106.103ZM498.127 106.081L499.873 105.073L498.128 104.065L496.382 105.073L498.127 106.081ZM543.495 132.272L545.241 131.263L543.496 130.256L541.75 131.264L543.495 132.272ZM543.475 158.474L545.222 157.466L543.477 156.458L541.73 157.466L543.475 158.474ZM498.107 132.283L499.854 131.275L498.109 130.267L496.362 131.276L498.107 132.283ZM452.739 106.092L454.486 105.084L452.741 104.076L450.995 105.085L452.739 106.092ZM407.372 79.9011L409.118 78.8929L407.373 77.8856L405.627 78.8938L407.372 79.9011ZM585.393 128.734L584.52 129.238L588.01 131.253L584.517 133.269L585.39 133.773L588.882 131.757L592.372 133.771L593.245 133.267L589.756 131.252L593.248 129.236L592.376 128.732L588.883 130.749L585.393 128.734ZM449.29 50.1614L448.416 50.6655L451.906 52.6802L448.413 54.6966L449.286 55.2003L452.779 53.1839L456.269 55.1986L457.142 54.6945L453.652 52.6798L457.145 50.6634L456.272 50.1597L452.779 52.1761L449.29 50.1614ZM313.069 128.801L312.196 129.306L315.686 131.32L312.193 133.337L313.066 133.84L316.558 131.824L320.048 133.839L320.921 133.335L317.432 131.32L320.924 129.303L320.052 128.8L316.559 130.816L313.069 128.801ZM449.173 207.374L448.3 207.878L451.79 209.893L448.297 211.909L449.169 212.413L452.662 210.397L456.152 212.411L457.025 211.907L453.535 209.892L457.028 207.876L456.156 207.372L452.663 209.389L449.173 207.374Z" fill="#C7C9D9"/>
</g>
<g filter="url(#filter0_dd)">
<rect width="84.0609" height="84.0609" rx="18" transform="matrix(0.866044 0.499968 -0.866044 0.499968 181.855 61.6741)" fill="url(#paint1_linear)"/>
<rect width="84.0609" height="84.0609" rx="18" transform="matrix(0.866044 0.499968 -0.866044 0.499968 181.855 59)" fill="white"/>
</g>
<circle cx="182.055" cy="70" r="44" fill="#E3FFF1"/>
<path fill-rule="evenodd" clip-rule="evenodd" d="M204.43 46H158.68C154.468 46 151.055 49.4247 151.055 53.65V84.25C151.055 88.4753 154.468 91.9 158.68 91.9H180.284V94.45H172.659C171.957 94.45 171.388 95.0212 171.388 95.725C171.388 96.4288 171.957 97 172.659 97H190.451C191.152 97 191.721 96.4288 191.721 95.725C191.721 95.0212 191.152 94.45 190.451 94.45H182.826V91.9H204.43C208.641 91.9 212.055 88.4753 212.055 84.25V53.65C212.055 49.4247 208.641 46 204.43 46Z" fill="url(#paint2_linear)"/>
<g opacity="0.75" filter="url(#filter1_dd)">
<path fill-rule="evenodd" clip-rule="evenodd" d="M222.055 76.125C222.055 79.3651 219.445 82 216.237 82H163.873C160.664 82 158.055 79.3651 158.055 76.125V40.875C158.055 37.6349 160.664 35 163.873 35H216.237C219.445 35 222.055 37.6349 222.055 40.875V76.125Z" fill="#376C66"/>
</g>
<path fill-rule="evenodd" clip-rule="evenodd" d="M209.231 47.0984C209.068 47.0332 208.895 47 208.721 47H202.055C201.319 47 200.721 47.5724 200.721 48.2778C200.721 48.9831 201.319 49.5556 202.055 49.5556H205.503L192.722 61.8043L185.664 55.0411C185.143 54.5414 184.299 54.5414 183.779 55.0411L170.446 67.8188C169.924 68.3172 169.924 69.126 170.446 69.6256C170.706 69.8748 171.047 70 171.388 70C171.73 70 172.071 69.8748 172.331 69.6256L184.722 57.7512L191.779 64.5145C192.299 65.0128 193.143 65.0128 193.664 64.5145L207.388 51.3623V54.6667C207.388 55.372 207.985 55.9444 208.721 55.9444C209.457 55.9444 210.055 55.372 210.055 54.6667V48.2778C210.055 48.1117 210.019 47.9456 209.952 47.7897C209.816 47.4766 209.556 47.2274 209.231 47.0984Z" fill="white"/>
<defs>
<filter id="filter0_dd" x="114.187" y="62.2717" width="135.337" height="84.186" filterUnits="userSpaceOnUse" color-interpolation-filters="sRGB">
<feFlood flood-opacity="0" result="BackgroundImageFix"/>
<feColorMatrix in="SourceAlpha" type="matrix" values="0 0 0 0 0 0 0 0 0 0 0 0 0 0 0 0 0 0 127 0"/>
<feOffset dy="2"/>
<feGaussianBlur stdDeviation="2"/>
<feColorMatrix type="matrix" values="0 0 0 0 0.376471 0 0 0 0 0.380392 0 0 0 0 0.439216 0 0 0 0.16 0"/>
<feBlend mode="normal" in2="BackgroundImageFix" result="effect1_dropShadow"/>
<feColorMatrix in="SourceAlpha" type="matrix" values="0 0 0 0 0 0 0 0 0 0 0 0 0 0 0 0 0 0 127 0"/>
<feOffset/>
<feGaussianBlur stdDeviation="0.5"/>
<feColorMatrix type="matrix" values="0 0 0 0 0.156863 0 0 0 0 0.160784 0 0 0 0 0.239216 0 0 0 0.04 0"/>
<feBlend mode="normal" in2="effect1_dropShadow" result="effect2_dropShadow"/>
<feBlend mode="normal" in="SourceGraphic" in2="effect2_dropShadow" result="shape"/>
</filter>
<filter id="filter1_dd" x="154.055" y="33" width="72" height="55" filterUnits="userSpaceOnUse" color-interpolation-filters="sRGB">
<feFlood flood-opacity="0" result="BackgroundImageFix"/>
<feColorMatrix in="SourceAlpha" type="matrix" values="0 0 0 0 0 0 0 0 0 0 0 0 0 0 0 0 0 0 127 0"/>
<feOffset dy="2"/>
<feGaussianBlur stdDeviation="2"/>
<feColorMatrix type="matrix" values="0 0 0 0 0.376471 0 0 0 0 0.380392 0 0 0 0 0.439216 0 0 0 0.16 0"/>
<feBlend mode="normal" in2="BackgroundImageFix" result="effect1_dropShadow"/>
<feColorMatrix in="SourceAlpha" type="matrix" values="0 0 0 0 0 0 0 0 0 0 0 0 0 0 0 0 0 0 127 0"/>
<feOffset/>
<feGaussianBlur stdDeviation="0.5"/>
<feColorMatrix type="matrix" values="0 0 0 0 0.156863 0 0 0 0 0.160784 0 0 0 0 0.239216 0 0 0 0.04 0"/>
<feBlend mode="normal" in2="effect1_dropShadow" result="effect2_dropShadow"/>
<feBlend mode="normal" in="SourceGraphic" in2="effect2_dropShadow" result="shape"/>
</filter>
<radialGradient id="paint0_radial" cx="0" cy="0" r="1" gradientUnits="userSpaceOnUse" gradientTransform="translate(189.436 101.239) rotate(96.4383) scale(75.2355 124.218)">
<stop offset="0.744792" stop-color="#C4C4C4"/>
<stop offset="1" stop-color="#C4C4C4" stop-opacity="0"/>
</radialGradient>
<linearGradient id="paint1_linear" x1="-0.383015" y1="13.1213" x2="87.3745" y2="24.5005" gradientUnits="userSpaceOnUse">
<stop stop-color="#E4E4EB"/>
<stop offset="1" stop-color="#EDF0F4"/>
</linearGradient>
<linearGradient id="paint2_linear" x1="181.555" y1="46" x2="181.555" y2="97" gradientUnits="userSpaceOnUse">
<stop stop-color="#3BC882" stop-opacity="0"/>
<stop offset="1" stop-color="#3BC882"/>
</linearGradient>
</defs>
</svg>
