<?xml version="1.0" encoding="UTF-8" standalone="no"?>
<svg
   xmlns:dc="http://purl.org/dc/elements/1.1/"
   xmlns:cc="http://creativecommons.org/ns#"
   xmlns:rdf="http://www.w3.org/1999/02/22-rdf-syntax-ns#"
   xmlns:svg="http://www.w3.org/2000/svg"
   xmlns="http://www.w3.org/2000/svg"
   xmlns:sodipodi="http://sodipodi.sourceforge.net/DTD/sodipodi-0.dtd"
   xmlns:inkscape="http://www.inkscape.org/namespaces/inkscape"
   sodipodi:docname="despegar.svg"
   id="svg20"
   version="1.1"
   width="518"
   height="112"
   inkscape:version="0.92.5 (2060ec1f9f, 2020-04-08)">
  <metadata
     id="metadata26">
    <rdf:RDF>
      <cc:Work
         rdf:about="">
        <dc:format>image/svg+xml</dc:format>
        <dc:type
           rdf:resource="http://purl.org/dc/dcmitype/StillImage" />
      </cc:Work>
    </rdf:RDF>
  </metadata>
  <defs
     id="defs24" />
  <sodipodi:namedview
     pagecolor="#ffffff"
     bordercolor="#666666"
     borderopacity="1"
     objecttolerance="10"
     gridtolerance="10"
     guidetolerance="10"
     inkscape:pageopacity="0"
     inkscape:pageshadow="2"
     inkscape:window-width="1919"
     inkscape:window-height="2132"
     id="namedview22"
     showgrid="false"
     inkscape:zoom="3.3764479"
     inkscape:cx="259"
     inkscape:cy="56"
     inkscape:window-x="1920"
     inkscape:window-y="0"
     inkscape:window-maximized="0"
     inkscape:current-layer="svg20" />
  <g
     fill-rule="nonzero"
     fill="#8d8d8d"
     id="g18">
    <path
       opacity=".3"
       d="M.758 111.344l53.654.003c30.567 0 55.346-24.78 55.346-55.347 0-30.566-24.779-55.346-55.346-55.346L.758.657v110.687z"
       id="path10" />
    <path
       d="M1.015.653C.929.653.844.656.758.656v110.687c.086.001.171.005.257.005 30.567 0 55.347-24.78 55.347-55.348C56.362 25.433 31.582.653 1.015.653"
       id="path12" />
    <g
       class="logo-brandname"
       id="g16">
      <path
         d="M181.391 23.282h-9.121a.425.425 0 00-.425.426v16.731c-2.812-3.567-7.682-5.668-13.256-5.668-13.684 0-22.876 11.784-22.876 22.789 0 11.202 8.393 22.789 22.438 22.789 5.448 0 10.599-2.184 13.694-5.754v4.188c0 .234.19.426.425.426h9.121a.425.425 0 00.425-.426V23.708a.425.425 0 00-.425-.426m-22.1 47.622c-7.213 0-13.081-5.986-13.081-13.345 0-7.357 5.868-13.344 13.081-13.344 6.995 0 12.905 6.111 12.905 13.344 0 7.234-5.91 13.345-12.905 13.345M213 34.771c-15.486 0-23.841 11.741-23.841 22.788 0 11.048 8.355 22.789 23.846 22.789 7.621-.088 14.745-3.82 20.06-10.509a.426.426 0 00-.126-.637l-7.718-4.297a.426.426 0 00-.547.116c-3.144 4.192-7.272 6.407-11.938 6.407-6.384 0-11.784-4.482-12.508-10.287h34.784c.235 0 .425-.19.425-.425v-1.667c.001-16.746-13.12-24.278-22.437-24.278m-1.228 8.919c5.632 0 10.066 3.374 11.961 9.06h-23.43c1.53-5.604 5.882-9.06 11.469-9.06M266.049 53.897l-9.215-1.755c-3.529-.618-5.173-1.906-5.173-4.054 0-3.198 3.802-4.924 7.38-4.924 3.734 0 7.479 1.56 11.127 4.636a.425.425 0 00.604-.058l5.175-6.402a.432.432 0 00.091-.325.433.433 0 00-.175-.289c-5.783-4.118-11.052-5.955-17.085-5.955-11.219 0-17.088 7.185-17.088 14.282 0 6.946 4.376 10.456 15.607 12.521l5.175.964c3.435.633 5.177 2.145 5.177 4.493 0 2.013-2.847 4.925-7.994 4.925-4.417 0-9.648-2.447-13.018-6.09a.428.428 0 00-.615-.01l-6.227 6.313a.425.425 0 00.028.623c5.991 5.084 12.335 7.556 19.394 7.556 5.908 0 10.792-1.706 14.119-4.933 2.724-2.64 4.284-6.207 4.284-9.788-.001-6.444-3.786-10.281-11.571-11.73M307.976 34.771c-5.521 0-10.347 2.048-13.695 5.788v-4.222a.425.425 0 00-.425-.426h-9.121a.425.425 0 00-.425.426v57.092c0 .235.189.426.425.426h9.121c.235 0 .425-.19.425-.426V74.681c2.814 3.567 7.684 5.668 13.257 5.668 13.685 0 22.876-11.783 22.876-22.788-.001-11.203-8.393-22.79-22.438-22.79m-1.14 9.445c7.212 0 13.079 5.986 13.079 13.344 0 7.357-5.867 13.344-13.079 13.344-6.995 0-12.905-6.111-12.905-13.344s5.91-13.344 12.905-13.344M359.366 34.771c-15.486 0-23.841 11.741-23.841 22.788 0 11.048 8.354 22.789 23.846 22.789 7.621-.088 14.745-3.82 20.06-10.509a.423.423 0 00.084-.348.423.423 0 00-.21-.289l-7.718-4.297a.426.426 0 00-.547.116c-3.144 4.192-7.272 6.407-11.938 6.407-6.385 0-11.784-4.482-12.509-10.287h34.784c.235 0 .425-.19.425-.425v-1.667c.001-16.746-13.119-24.278-22.436-24.278m-1.228 8.919c5.633 0 10.066 3.374 11.961 9.06h-23.43c1.53-5.604 5.881-9.06 11.469-9.06M431.631 35.912h-8.595a.425.425 0 00-.425.425v4.007c-3.107-3.65-7.578-5.572-12.993-5.572-10.975 0-22.086 7.677-22.086 22.35 0 14.501 10.581 22.088 21.034 22.088 5.698 0 10.072-1.835 14.045-5.925v1.728c0 8.325-7.053 12.116-13.607 12.116-3.95 0-7.846-2.558-9.65-5.083a.419.419 0 00-.278-.173.416.416 0 00-.317.076l-7.455 5.438a.421.421 0 00-.08.611c4.344 5.37 11.155 8.576 18.221 8.576 5.97 0 11.542-2.096 15.689-5.899 4.529-4.155 6.924-9.904 6.924-16.626V36.338a.427.427 0 00-.427-.426m-21.223 33.852c-7.173 0-12.379-5.391-12.379-12.818 0-7.019 5.553-12.73 12.379-12.73 6.729 0 12.203 5.75 12.203 12.817 0 7.259-5.246 12.731-12.203 12.731M483.759 35.912h-9.121a.425.425 0 00-.425.425v4.102c-2.813-3.567-7.682-5.668-13.256-5.668-13.685 0-22.876 11.784-22.876 22.789 0 11.202 8.393 22.789 22.438 22.789 5.448 0 10.6-2.184 13.694-5.754v4.188c0 .234.189.426.425.426h9.121a.425.425 0 00.425-.426V36.337a.425.425 0 00-.425-.425m-22.1 34.992c-7.213 0-13.081-5.986-13.081-13.345 0-7.357 5.868-13.344 13.081-13.344 6.995 0 12.904 6.111 12.904 13.344 0 7.234-5.909 13.345-12.904 13.345M517.047 36.154c-1.387-.892-3.244-1.383-5.229-1.383-3.343 0-6.334 1.797-8.082 4.773v-3.208a.425.425 0 00-.426-.425h-8.595a.425.425 0 00-.425.425v42.447c0 .235.189.425.425.425h9.121a.425.425 0 00.426-.425V50.719c0-3.882 3.034-5.977 5.89-5.977.785 0 2.368.506 3.153 1.135a.424.424 0 00.666-.189l3.245-9.033a.422.422 0 00-.169-.501"
         id="path14" />
    </g>
  </g>
</svg>
