<svg xmlns="http://www.w3.org/2000/svg" height="27" width="87">
  <g fill="#a9a9a9" fill-rule="evenodd">
    <path d="M17.878 21.41v-2.66H9.526v-4.337h7.804v-2.74H9.56V7.51h8.158V4.873H6.563V21.41zM20.489 4.873V21.41h2.843V9.892l4.596 11.518h2.623l4.502-11.518V21.41h2.843V4.873H34.82L29.31 17.42l-5.63-12.547zM49.856 9.225c-2.238 0-4.102 1.37-5.591 4.108l.47-4.108h-2.693L39.636 21.41h3.036l1.158-5.837c1.443-2.577 2.887-3.864 4.33-3.864 1.093 0 1.543.479 1.353 1.439l-1.628 8.262h3.037l1.627-8.228c.52-2.638-.378-3.957-2.693-3.957M57.044 6.614h3.005l.476-2.611h-3.006zM57.346 21.41l2.309-12.185H56.74L54.432 21.41zM69.374 9.21H65.78c.336-1.733 1.361-2.6 3.08-2.6.88 0 1.667.156 2.36.469l.479-2.46c-.737-.31-1.596-.467-2.577-.467-3.589 0-5.709 1.686-6.363 5.058l-2.213 11.357c-.365 1.858-1.124 3.314-2.28 4.367l2.04 1.698c1.69-1.561 2.777-3.583 3.262-6.065l1.733-8.898h3.593zM78.931 9.21L77.78 15.1c-1.437 2.598-2.873 3.898-4.31 3.898-1.088 0-1.537-.483-1.347-1.452l1.62-8.336H70.72l-1.62 8.301c-.516 2.662.377 3.993 2.68 3.993 2.227 0 4.083-1.382 5.565-4.145l-.81 4.145c-.258 1.327-1.512 1.99-3.763 1.99-1.467 0-2.744-.195-3.831-.586l-.48 2.46c1.065.39 2.335.585 3.81.585 4.28 0 6.708-1.483 7.286-4.449L81.953 9.21z"/>
  </g>
</svg>
