<?xml version="1.0" encoding="utf-8"?>
<!-- Generator: Adobe Illustrator 23.0.2, SVG Export Plug-In . SVG Version: 6.00 Build 0)  -->
<svg version="1.1" id="Layer_1" xmlns="http://www.w3.org/2000/svg" xmlns:xlink="http://www.w3.org/1999/xlink" x="0px" y="0px"
	 viewBox="0 0 5998.52 1000" style="enable-background:new 0 0 5998.52 1000;" xml:space="preserve">
<style type="text/css">
	.st0{fill:none;}
	.st1{display:none;fill:#FFA710;}
	.st2{font-family:'ProximaNova-Bold';}
	.st3{font-size:1000px;}
	.st4{fill:#FFA119;}
	.st5{fill:#FFCA70;}
</style>
<rect x="1210.22" y="147.74" class="st0" width="4528.46" height="717.86"/>
<text transform="matrix(1 0 0 1 1210.2217 814.7278)" class="st1 st2 st3">LiveIntent</text>
<g>
	<path class="st4" d="M1287.15,136.81h154.75v590.67h307.32v136.23h-462.08V136.81z"/>
	<path class="st4" d="M1819.23,177.13c0-45.77,38.14-82.83,82.83-82.83c45.77,0,82.83,37.05,82.83,82.83s-37.05,82.83-82.83,82.83
		C1857.37,259.96,1819.23,222.91,1819.23,177.13z M1833.4,337.34h138.41v526.37H1833.4V337.34z"/>
	<path class="st4" d="M2049.88,337.34h148.21l137.32,366.17l137.32-366.17h149.3L2410.6,863.71h-149.3L2049.88,337.34z"/>
	<path class="st4" d="M2902.48,324.26c156.93,0,263.73,117.7,263.73,289.89v30.51h-391.24c8.72,66.48,62.12,122.06,151.48,122.06
		c49.04,0,106.8-19.62,140.59-52.31l61.03,89.36c-53.4,49.04-135.14,73.02-216.87,73.02c-160.2,0-281.17-107.89-281.17-276.81
		C2630.03,447.41,2742.28,324.26,2902.48,324.26z M2772.79,550.94h259.37c-3.27-50.13-38.14-116.61-129.69-116.61
		C2816.38,434.33,2779.33,498.63,2772.79,550.94z"/>
	<path class="st4" d="M3246.21,136.81h154.75v726.9h-154.75V136.81z"/>
	<path class="st4" d="M3871.24,545.49c0-73.02-38.14-98.08-96.99-98.08c-54.49,0-96.99,30.51-119.88,62.12v354.19h-138.41V337.34
		h138.41v68.66c33.78-40.32,98.08-81.74,184.18-81.74c115.52,0,171.1,65.39,171.1,167.83v371.62h-138.41V545.49z"/>
	<path class="st4" d="M4166.83,732.93V458.3h-87.18V337.34h87.18V193.48h139.5v143.85h106.8V458.3h-106.8v237.58
		c0,32.69,17.44,57.76,47.95,57.76c20.71,0,40.32-7.63,47.95-15.26L4431.65,843c-20.71,18.53-57.76,33.78-115.52,33.78
		C4219.14,876.79,4166.83,826.66,4166.83,732.93z"/>
	<path class="st4" d="M4749.1,324.26c156.93,0,263.73,117.7,263.73,289.89v30.51h-391.24c8.72,66.48,62.12,122.06,151.48,122.06
		c49.04,0,106.8-19.62,140.58-52.31l61.03,89.36c-53.4,49.04-135.14,73.02-216.87,73.02c-160.2,0-281.17-107.89-281.17-276.81
		C4476.65,447.41,4588.9,324.26,4749.1,324.26z M4619.41,550.94h259.37c-3.27-50.13-38.14-116.61-129.69-116.61
		C4663.01,434.33,4625.95,498.63,4619.41,550.94z"/>
	<path class="st4" d="M5438.11,545.49c0-73.02-38.14-98.08-96.99-98.08c-54.49,0-96.99,30.51-119.88,62.12v354.19h-138.4V337.34
		h138.4v68.66c33.78-40.32,98.08-81.74,184.18-81.74c115.52,0,171.1,65.39,171.1,167.83v371.62h-138.4V545.49z"/>
	<path class="st4" d="M5733.7,732.93V458.3h-87.18V337.34h87.18V193.48h139.5v143.85h106.8V458.3h-106.8v237.58
		c0,32.69,17.44,57.76,47.95,57.76c20.71,0,40.32-7.63,47.95-15.26L5998.52,843c-20.71,18.53-57.76,33.78-115.52,33.78
		C5786.01,876.79,5733.7,826.66,5733.7,732.93z"/>
</g>
<g id="LiveIntentLogo-Orange-Square">
	<g id="Updated-Logo">
		<path id="Shape" class="st5" d="M499.73,156.67c0,167.03,81.86,314.94,207.63,405.74C515.47,643.72,364.45,802.73,293.7,1000
			h-60.5C104.41,1000,0,895.53,0,766.67V233.33C0,104.47,104.41,0,233.21,0h291.54C508.51,49.28,499.73,101.95,499.73,156.67z"/>
		<g id="Group-2" transform="translate(459.439528, 0.000000)">
			<path id="Path" class="st4" d="M231.18,0h76.01c128.89,0,233.37,104.47,233.37,233.33v270c-191.49,0-346.72-155.21-346.72-346.67
				C193.84,100.29,207.3,47.05,231.18,0L231.18,0z"/>
			<path class="st4" d="M540.56,656.67v110c0,128.87-104.48,233.33-233.37,233.33H0.1C95.39,797.13,301.57,656.67,540.56,656.67z"/>
		</g>
	</g>
</g>
</svg>
