<svg xmlns="http://www.w3.org/2000/svg" version="1.1" id="Layer_1" x="0" y="0" viewBox="0 0 5998.52 1000" xml:space="preserve" enable-background="new 0 0 5998.52 1000">
  <defs id="defs6142">
    <filter id="filter48" color-interpolation-filters="sRGB">
      <feColorMatrix values="0.21 0.72 0.072 -0.05 0 0.21 0.72 0.072 -0.05 0 0.21 0.72 0.072 -0.05 0 0 0 0 1 0" id="feColorMatrix46"/>
    </filter>
    <filter id="filter52" color-interpolation-filters="sRGB">
      <feColorMatrix values="0.21 0.72 0.072 -0.05 0 0.21 0.72 0.072 -0.05 0 0.21 0.72 0.072 -0.05 0 0 0 0 1 0" id="feColorMatrix50"/>
    </filter>
    <filter id="filter56" color-interpolation-filters="sRGB">
      <feColorMatrix values="0.21 0.72 0.072 -0.05 0 0.21 0.72 0.072 -0.05 0 0.21 0.72 0.072 -0.05 0 0 0 0 1 0" id="feColorMatrix54"/>
    </filter>
  </defs>
  <style type="text/css" id="style6104">
    .st4{fill:#ffa119}
  </style>
  <path id="rect6106" filter="url(#filter56)" fill="none" d="M1210.22 147.74h4528.46V865.6H1210.22z"/>
  <g id="g6130" filter="url(#filter52)">
    <path class="st4" d="M1287.15 136.81h154.75v590.67h307.32v136.23h-462.08v-726.9z" id="path6110"/>
    <path class="st4" d="M1819.23 177.13c0-45.77 38.14-82.83 82.83-82.83 45.77 0 82.83 37.05 82.83 82.83s-37.05 82.83-82.83 82.83c-44.69 0-82.83-37.05-82.83-82.83zm14.17 160.21h138.41v526.37H1833.4V337.34z" id="path6112"/>
    <path class="st4" d="M2049.88 337.34h148.21l137.32 366.17 137.32-366.17h149.3L2410.6 863.71h-149.3l-211.42-526.37z" id="path6114"/>
    <path class="st4" d="M2902.48 324.26c156.93 0 263.73 117.7 263.73 289.89v30.51h-391.24c8.72 66.48 62.12 122.06 151.48 122.06 49.04 0 106.8-19.62 140.59-52.31l61.03 89.36c-53.4 49.04-135.14 73.02-216.87 73.02-160.2 0-281.17-107.89-281.17-276.81 0-152.57 112.25-275.72 272.45-275.72zm-129.69 226.68h259.37c-3.27-50.13-38.14-116.61-129.69-116.61-86.09 0-123.14 64.3-129.68 116.61z" id="path6116"/>
    <path class="st4" d="M3246.21 136.81h154.75v726.9h-154.75v-726.9z" id="path6118"/>
    <path class="st4" d="M3871.24 545.49c0-73.02-38.14-98.08-96.99-98.08-54.49 0-96.99 30.51-119.88 62.12v354.19h-138.41V337.34h138.41V406c33.78-40.32 98.08-81.74 184.18-81.74 115.52 0 171.1 65.39 171.1 167.83v371.62h-138.41V545.49z" id="path6120"/>
    <path class="st4" d="M4166.83 732.93V458.3h-87.18V337.34h87.18V193.48h139.5v143.85h106.8V458.3h-106.8v237.58c0 32.69 17.44 57.76 47.95 57.76 20.71 0 40.32-7.63 47.95-15.26L4431.65 843c-20.71 18.53-57.76 33.78-115.52 33.78-96.99.01-149.3-50.12-149.3-143.85z" id="path6122"/>
    <path class="st4" d="M4749.1 324.26c156.93 0 263.73 117.7 263.73 289.89v30.51h-391.24c8.72 66.48 62.12 122.06 151.48 122.06 49.04 0 106.8-19.62 140.58-52.31l61.03 89.36c-53.4 49.04-135.14 73.02-216.87 73.02-160.2 0-281.17-107.89-281.17-276.81.01-152.57 112.26-275.72 272.46-275.72zm-129.69 226.68h259.37c-3.27-50.13-38.14-116.61-129.69-116.61-86.08 0-123.14 64.3-129.68 116.61z" id="path6124"/>
    <path class="st4" d="M5438.11 545.49c0-73.02-38.14-98.08-96.99-98.08-54.49 0-96.99 30.51-119.88 62.12v354.19h-138.4V337.34h138.4V406c33.78-40.32 98.08-81.74 184.18-81.74 115.52 0 171.1 65.39 171.1 167.83v371.62h-138.4V545.49z" id="path6126"/>
    <path class="st4" d="M5733.7 732.93V458.3h-87.18V337.34h87.18V193.48h139.5v143.85H5980V458.3h-106.8v237.58c0 32.69 17.44 57.76 47.95 57.76 20.71 0 40.32-7.63 47.95-15.26L5998.52 843c-20.71 18.53-57.76 33.78-115.52 33.78-96.99.01-149.3-50.12-149.3-143.85z" id="path6128"/>
  </g>
  <g id="LiveIntentLogo-Orange-Square" filter="url(#filter48)">
    <g id="Updated-Logo">
      <path id="Shape" d="M499.73 156.67c0 167.03 81.86 314.94 207.63 405.74C515.47 643.72 364.45 802.73 293.7 1000h-60.5C104.41 1000 0 895.53 0 766.67V233.33C0 104.47 104.41 0 233.21 0h291.54c-16.24 49.28-25.02 101.95-25.02 156.67z" fill="#ffca70"/>
      <g id="Group-2" transform="translate(459.44)">
        <path id="Path" class="st4" d="M231.18 0h76.01c128.89 0 233.37 104.47 233.37 233.33v270c-191.49 0-346.72-155.21-346.72-346.67 0-56.37 13.46-109.61 37.34-156.66z"/>
        <path class="st4" d="M540.56 656.67v110c0 128.87-104.48 233.33-233.37 233.33H.1c95.29-202.87 301.47-343.33 540.46-343.33z" id="path6134"/>
      </g>
    </g>
  </g>
</svg>
