<svg xmlns="http://www.w3.org/2000/svg" viewBox="0 0 120 24.15">
<path fill="#a1a1a1" d="M.63,11.41c.77-2.16,2.45-3.87,4.58-4.68,1.17-.45,2.41-.67,3.65-.65,1.25-.02,2.5,.2,3.67,.65,2.15,.81,3.83,2.52,4.6,4.68,.43,1.2,.65,2.46,.63,3.74,.02,1.27-.2,2.53-.63,3.72-.39,1.06-1,2.03-1.79,2.84-.79,.8-1.75,1.42-2.81,1.81-1.17,.43-2.42,.65-3.67,.63-1.25,.02-2.48-.2-3.65-.63-1.05-.4-2-1.01-2.79-1.81-.79-.81-1.4-1.78-1.79-2.84C.2,17.68-.02,16.41,0,15.14c-.02-1.27,.2-2.54,.63-3.74m4.28,5.75c.12,.62,.35,1.22,.68,1.76,.32,.52,.76,.94,1.28,1.24,.61,.33,1.3,.49,1.99,.47,.7,.02,1.39-.14,2.01-.47,.53-.3,.98-.73,1.3-1.25,.33-.54,.56-1.14,.68-1.76,.13-.66,.2-1.34,.2-2.01,0-.68-.07-1.36-.2-2.03-.12-.62-.35-1.22-.68-1.76-.33-.51-.77-.94-1.3-1.25-.61-.34-1.31-.5-2.01-.48-.7-.02-1.38,.14-1.99,.48-.52,.31-.95,.74-1.28,1.25-.33,.54-.56,1.14-.68,1.76-.13,.67-.2,1.35-.2,2.03,0,.68,.07,1.35,.2,2.01"></path>
<path fill="#a1a1a1" d="M24.65,6.54v3.19h.07c.22-.54,.53-1.03,.9-1.48,.37-.45,.81-.84,1.29-1.16,.48-.32,1.01-.57,1.56-.75,.56-.18,1.14-.27,1.73-.27,.35,0,.7,.06,1.03,.17v4.38c-.22-.04-.49-.08-.8-.11-.3-.03-.6-.05-.9-.05-.75-.02-1.5,.13-2.19,.43-.57,.27-1.07,.67-1.44,1.18-.38,.52-.64,1.11-.78,1.74-.16,.71-.24,1.43-.23,2.16v7.74h-4.71V6.54h4.49Z"></path>
<path fill="#a1a1a1" d="M33.22,11.82c.03-.98,.31-1.93,.83-2.76,.48-.72,1.11-1.32,1.86-1.76,.79-.46,1.65-.78,2.54-.95,.93-.19,1.89-.28,2.84-.28,.88,0,1.76,.06,2.62,.18,.84,.11,1.66,.35,2.42,.71,.71,.34,1.33,.85,1.79,1.48,.5,.74,.74,1.62,.7,2.51v8.93c0,.74,.04,1.49,.13,2.23,.04,.56,.2,1.1,.47,1.59h-4.78c-.09-.27-.16-.54-.22-.81-.06-.28-.1-.56-.12-.85-.73,.76-1.65,1.32-2.66,1.63-1.01,.31-2.06,.47-3.12,.47-.77,0-1.54-.09-2.29-.3-.68-.18-1.31-.5-1.86-.93-.54-.43-.96-.97-1.25-1.59-.32-.72-.47-1.5-.45-2.29-.03-.83,.14-1.66,.51-2.41,.32-.6,.77-1.12,1.33-1.51,.57-.39,1.2-.67,1.86-.85,.69-.19,1.4-.34,2.11-.45,.71-.11,1.41-.2,2.09-.27,.62-.05,1.23-.16,1.83-.3,.46-.1,.89-.3,1.26-.58,.32-.28,.48-.69,.43-1.11,.02-.42-.07-.84-.25-1.21-.16-.29-.39-.53-.67-.7-.3-.17-.62-.29-.96-.33-.39-.06-.79-.08-1.18-.08-.78-.04-1.55,.17-2.19,.6-.58,.5-.92,1.23-.93,1.99h-4.72Zm10.89,3.49c-.22,.19-.47,.33-.75,.42-.32,.1-.64,.19-.96,.25-.34,.07-.7,.12-1.08,.17s-.75,.1-1.13,.17c-.35,.07-.7,.16-1.05,.27-.32,.1-.63,.25-.9,.45-.26,.19-.47,.43-.61,.72-.17,.34-.25,.72-.23,1.09-.01,.37,.07,.73,.23,1.06,.15,.28,.36,.51,.63,.68,.29,.17,.6,.29,.93,.35,.36,.07,.73,.1,1.1,.1,.75,.04,1.49-.12,2.16-.47,.47-.27,.86-.65,1.13-1.11,.23-.4,.39-.85,.45-1.31,.05-.35,.08-.71,.08-1.06v-1.76Z"></path>
<path fill="#a1a1a1" d="M64.01,21.52c-.5,.88-1.26,1.58-2.18,2.01-.96,.42-1.99,.63-3.04,.61-1.17,.03-2.33-.23-3.39-.75-.95-.48-1.78-1.17-2.41-2.02-.65-.89-1.13-1.88-1.43-2.94-.32-1.12-.48-2.29-.48-3.45,0-1.13,.16-2.25,.48-3.34,.3-1.03,.78-1.99,1.43-2.84,1.35-1.77,3.47-2.78,5.7-2.72,1,0,2,.22,2.91,.65,.9,.41,1.65,1.08,2.18,1.91h.07V0h4.72V23.71h-4.48v-2.19h-.07Zm-.2-8.49c-.12-.61-.35-1.2-.68-1.73-.32-.49-.74-.91-1.24-1.21-.59-.33-1.25-.49-1.93-.47-.68-.02-1.36,.14-1.96,.47-.52,.3-.96,.72-1.28,1.23-.33,.54-.57,1.13-.7,1.74-.15,.67-.22,1.36-.22,2.04,0,.67,.08,1.34,.23,1.99,.14,.63,.39,1.23,.75,1.78,.33,.51,.78,.94,1.3,1.26,.57,.33,1.22,.5,1.88,.48,.68,.02,1.35-.14,1.94-.47,.51-.3,.94-.73,1.24-1.25,.32-.55,.55-1.15,.66-1.78,.13-.68,.2-1.37,.2-2.06,0-.69-.07-1.37-.2-2.04"></path>
<rect fill="#a1a1a1" x="71.58" y="6.09" width="4.72" height="17.62"></rect>
<path fill="#a1a1a1" d="M79.15,11.82c.03-.98,.31-1.93,.83-2.76,.48-.72,1.11-1.32,1.86-1.76,.79-.46,1.65-.78,2.54-.95,.93-.19,1.89-.28,2.84-.28,.88,0,1.76,.06,2.62,.18,.84,.11,1.66,.35,2.42,.71,.71,.34,1.33,.85,1.79,1.48,.5,.74,.74,1.62,.7,2.51v8.93c0,.74,.04,1.49,.13,2.23,.04,.56,.2,1.1,.47,1.59h-4.78c-.09-.27-.16-.54-.22-.81-.06-.28-.1-.56-.12-.85-.73,.76-1.65,1.32-2.66,1.63-1.01,.31-2.06,.47-3.12,.47-.77,0-1.54-.09-2.29-.3-.68-.18-1.31-.5-1.86-.93-.54-.43-.97-.97-1.25-1.6-.32-.72-.47-1.5-.45-2.29-.03-.83,.14-1.66,.51-2.41,.32-.6,.77-1.12,1.33-1.51,.57-.39,1.2-.67,1.86-.85,.69-.19,1.4-.34,2.11-.45,.71-.11,1.41-.2,2.09-.27,.62-.05,1.23-.16,1.83-.3,.46-.1,.89-.3,1.26-.58,.32-.28,.48-.69,.43-1.11,.02-.42-.07-.84-.25-1.21-.16-.29-.39-.53-.66-.7-.3-.17-.62-.29-.96-.33-.39-.06-.79-.08-1.18-.08-.78-.04-1.55,.17-2.19,.6-.58,.5-.92,1.23-.93,1.99h-4.71Zm10.89,3.49c-.22,.19-.47,.33-.75,.42-.32,.1-.64,.19-.96,.25-.34,.07-.7,.12-1.08,.17s-.75,.1-1.13,.17c-.35,.07-.7,.16-1.05,.27-.32,.1-.63,.25-.9,.45-.26,.19-.47,.43-.62,.72-.17,.34-.25,.72-.23,1.09-.01,.37,.07,.73,.23,1.06,.15,.28,.36,.51,.63,.68,.29,.17,.6,.29,.93,.35,.36,.07,.73,.1,1.1,.1,.75,.04,1.49-.12,2.16-.47,.47-.27,.86-.65,1.13-1.11,.23-.4,.39-.85,.45-1.31,.05-.35,.08-.71,.08-1.06v-1.76Z"></path>
<path fill="#a1a1a1" d="M102.23,6.54v2.39h.1c.54-.94,1.35-1.7,2.33-2.18,.91-.44,1.91-.68,2.92-.68,1.06-.04,2.11,.14,3.1,.51,.75,.3,1.41,.79,1.91,1.43,.49,.66,.82,1.42,.98,2.23,.2,.96,.29,1.93,.28,2.91v10.56h-4.72V14.01c.07-1.1-.16-2.2-.66-3.17-.54-.75-1.44-1.14-2.36-1.05-1.06-.1-2.1,.33-2.79,1.15-.67,1.14-.97,2.45-.86,3.77v9h-4.71V6.54h4.48Z"></path>
<path fill="#a1a1a1" d="M116.93,3.42c.77,0,1.4,.63,1.4,1.4,0,.77-.63,1.4-1.4,1.4-.77,0-1.4-.63-1.4-1.4h0c0-.77,.63-1.4,1.4-1.4m0-1.67c-1.7,0-3.07,1.38-3.07,3.07s1.38,3.07,3.07,3.07,3.07-1.38,3.07-3.07h0c0-1.7-1.38-3.07-3.07-3.07"></path>
</svg>