<svg width="24" height="24" viewBox="0 0 24 24" fill="none" xmlns="http://www.w3.org/2000/svg">
<path d="M20.625 2.625H3.375C2.96016 2.625 2.625 2.96016 2.625 3.375V20.625C2.625 21.0398 2.96016 21.375 3.375 21.375H20.625C21.0398 21.375 21.375 21.0398 21.375 20.625V3.375C21.375 2.96016 21.0398 2.625 20.625 2.625ZM19.6875 19.6875H4.3125V4.3125H19.6875V19.6875Z" fill="#0E95F6"/>
<path d="M4.3125 19.6875H19.6875V4.3125H4.3125V19.6875ZM12.2695 14.4609H16.6055C16.7016 14.4609 16.7812 14.5453 16.7812 14.6484V15.7734C16.7812 15.8766 16.7016 15.9609 16.6055 15.9609H12.2695C12.1734 15.9609 12.0938 15.8766 12.0938 15.7734V14.6484C12.0938 14.5453 12.1734 14.4609 12.2695 14.4609ZM7.21875 14.3039C7.21875 14.25 7.24453 14.1961 7.28672 14.1609L9.86016 12L7.28672 9.83906C7.26518 9.82205 7.24784 9.8003 7.23605 9.77551C7.22427 9.75072 7.21835 9.72354 7.21875 9.69609V8.22656C7.21875 8.06719 7.40391 7.98047 7.52578 8.08359L12.0258 11.8547C12.1172 11.9297 12.1172 12.068 12.0258 12.143L7.52578 15.9164C7.40391 16.0195 7.21875 15.9328 7.21875 15.7734V14.3039Z" fill="#E5F6FF"/>
<path d="M7.52566 15.9167L12.0257 12.1433C12.1171 12.0683 12.1171 11.93 12.0257 11.855L7.52566 8.08393C7.4985 8.06083 7.46527 8.04601 7.42993 8.04123C7.3946 8.03645 7.35863 8.04191 7.3263 8.05697C7.29397 8.07202 7.26665 8.09603 7.24756 8.12615C7.22848 8.15628 7.21843 8.19124 7.21863 8.2269V9.69643C7.21863 9.75268 7.24207 9.80424 7.2866 9.8394L9.86004 12.0003L7.2866 14.1613C7.26565 14.1788 7.24873 14.2006 7.237 14.2253C7.22527 14.25 7.21901 14.2769 7.21863 14.3042V15.7737C7.21863 15.9331 7.40379 16.0198 7.52566 15.9167ZM12.0936 15.7737C12.0936 15.8769 12.1733 15.9612 12.2694 15.9612H16.6054C16.7014 15.9612 16.7811 15.8769 16.7811 15.7737V14.6488C16.7811 14.5456 16.7014 14.4613 16.6054 14.4613H12.2694C12.1733 14.4613 12.0936 14.5456 12.0936 14.6488V15.7737Z" fill="#0E95F6"/>
</svg>
