<svg width="52" height="52" viewBox="0 0 52 52" fill="none" xmlns="http://www.w3.org/2000/svg">
<rect width="52" height="52" rx="8" fill="#E3FFF1"/>
<path d="M37.5 13.5H14.5C13.9469 13.5 13.5 13.9469 13.5 14.5V37.5C13.5 38.0531 13.9469 38.5 14.5 38.5H37.5C38.0531 38.5 38.5 38.0531 38.5 37.5V14.5C38.5 13.9469 38.0531 13.5 37.5 13.5ZM36.25 36.25H15.75V15.75H36.25V36.25Z" fill="#3BC882"/>
<path d="M15.75 36.25H36.25V15.75H15.75V36.25ZM26.3594 29.2812H32.1406C32.2687 29.2812 32.375 29.3938 32.375 29.5312V31.0312C32.375 31.1687 32.2687 31.2812 32.1406 31.2812H26.3594C26.2312 31.2812 26.125 31.1687 26.125 31.0312V29.5312C26.125 29.3938 26.2312 29.2812 26.3594 29.2812ZM19.625 29.0719C19.625 29 19.6594 28.9281 19.7156 28.8813L23.1469 26L19.7156 23.1187C19.6869 23.0961 19.6638 23.0671 19.6481 23.034C19.6324 23.001 19.6245 22.9647 19.625 22.9281V20.9688C19.625 20.7562 19.8719 20.6406 20.0344 20.7781L26.0344 25.8062C26.1562 25.9062 26.1562 26.0906 26.0344 26.1906L20.0344 31.2219C19.8719 31.3594 19.625 31.2437 19.625 31.0312V29.0719Z" fill="#E3FFF1"/>
<path d="M20.0344 31.2226L26.0344 26.1914C26.1563 26.0914 26.1563 25.907 26.0344 25.807L20.0344 20.7789C19.9982 20.7481 19.9539 20.7283 19.9067 20.722C19.8596 20.7156 19.8117 20.7229 19.7686 20.7429C19.7255 20.763 19.689 20.795 19.6636 20.8352C19.6381 20.8754 19.6247 20.922 19.625 20.9695V22.9289C19.625 23.0039 19.6563 23.0726 19.7156 23.1195L23.1469 26.0008L19.7156 28.882C19.6877 28.9054 19.6651 28.9345 19.6495 28.9674C19.6339 29.0003 19.6255 29.0362 19.625 29.0726V31.032C19.625 31.2445 19.8719 31.3601 20.0344 31.2226ZM26.125 31.032C26.125 31.1695 26.2313 31.282 26.3594 31.282H32.1406C32.2688 31.282 32.375 31.1695 32.375 31.032V29.532C32.375 29.3945 32.2688 29.282 32.1406 29.282H26.3594C26.2313 29.282 26.125 29.3945 26.125 29.532V31.032Z" fill="#3BC882"/>
</svg>
