<svg width="52" height="52" viewBox="0 0 52 52" fill="none" xmlns="http://www.w3.org/2000/svg">
<rect width="52" height="52" rx="8" fill="#E5F6FF"/>
<path d="M14.5 27.0625H20.75V33.3125H14.5V27.0625ZM22.875 18.6875H29.125V24.9375H22.875V18.6875Z" fill="#E5F6FF"/>
<path d="M38.625 16.5625H21.75C21.1969 16.5625 20.75 17.0094 20.75 17.5625V24.9375H13.375C12.8219 24.9375 12.375 25.3844 12.375 25.9375V34.4375C12.375 34.9906 12.8219 35.4375 13.375 35.4375H30.25C30.8031 35.4375 31.25 34.9906 31.25 34.4375V27.0625H38.625C39.1781 27.0625 39.625 26.6156 39.625 26.0625V17.5625C39.625 17.0094 39.1781 16.5625 38.625 16.5625ZM20.75 33.3125H14.5V27.0625H20.75V33.3125ZM29.125 33.3125H22.875V27.0625H29.125V33.3125ZM29.125 24.9375H22.875V18.6875H29.125V24.9375ZM37.5 24.9375H31.25V18.6875H37.5V24.9375Z" fill="#0E95F6"/>
</svg>
