<svg width="363" height="210" viewBox="0 0 363 210" fill="none" xmlns="http://www.w3.org/2000/svg">
<mask id="mask0" mask-type="alpha" maskUnits="userSpaceOnUse" x="53" y="30" width="257" height="149">
<circle r="104.779" transform="matrix(0.866044 -0.499967 0.866044 0.499967 181.486 104.772)" fill="url(#paint0_radial)"/>
</mask>
<g mask="url(#mask0)">
<path opacity="0.15" d="M226.627 339.464L227.501 338.96L272.034 313.251L272.907 312.747L317.441 287.038L318.314 286.534L362.848 260.824L363.721 260.32L408.255 234.611L409.128 234.107L453.661 208.398L454.535 207.894L499.068 182.184L499.941 181.68L544.475 155.971L545.348 155.467L589.882 129.758L590.755 129.254L589.883 128.75L545.387 103.063L544.515 102.559L500.019 76.8717L499.147 76.3681L454.651 50.6808L453.779 50.1772L409.283 24.4899L408.411 23.9863L363.915 -1.70094L363.043 -2.20461L318.548 -27.8918L317.675 -28.3955L273.18 -54.0827L272.307 -54.5864L227.812 -80.2736L226.939 -80.7773L182.444 -106.465L181.571 -106.968L180.698 -106.464L45.351 -28.3282L44.4778 -27.8241L-90.8694 50.3119L-91.7427 50.816L-227.963 129.456L-91.8593 208.029L-90.9869 208.532L44.2444 286.601L45.1168 287.105L180.348 365.174L181.221 365.678L182.094 365.174L226.627 339.464ZM137.037 -80.2512L181.571 -105.96L226.066 -80.2732L181.532 -54.564L137.037 -80.2512ZM182.405 -54.0603L226.939 -79.7695L271.434 -54.0823L226.9 -28.3731L182.405 -54.0603ZM227.773 -27.8694L272.306 -53.5786L316.802 -27.8914L272.268 -2.18216L227.773 -27.8694ZM273.141 -1.6785L317.674 -27.3877L362.17 -1.70051L317.636 24.0087L273.141 -1.6785ZM318.509 24.5124L363.042 -1.19684L407.538 24.4904L363.004 50.1996L318.509 24.5124ZM363.877 50.7033L408.41 24.994L452.906 50.6813L408.372 76.3905L363.877 50.7033ZM409.244 76.8942L453.778 51.185L498.274 76.8722L453.74 102.581L409.244 76.8942ZM454.612 103.085L499.146 77.3758L543.641 103.063L499.108 128.772L454.612 103.085ZM499.98 129.276L544.514 103.567L589.009 129.254L544.476 154.963L499.98 129.276ZM91.6302 -54.0378L136.164 -79.7471L180.659 -54.0599L136.126 -28.3506L91.6302 -54.0378ZM136.998 -27.8469L181.532 -53.5562L226.027 -27.869L181.494 -2.15971L136.998 -27.8469ZM182.366 -1.65604L226.9 -27.3653L271.395 -1.67806L226.862 24.0312L182.366 -1.65604ZM227.734 24.5349L272.268 -1.17439L316.763 24.5128L272.229 50.2221L227.734 24.5349ZM273.102 50.7257L317.635 25.0165L362.131 50.7037L317.597 76.413L273.102 50.7257ZM318.47 76.9166L363.003 51.2074L407.499 76.8946L362.965 102.604L318.47 76.9166ZM363.838 103.108L408.371 77.3983L452.867 103.086L408.333 128.795L363.838 103.108ZM409.206 129.298L453.739 103.589L498.235 129.276L453.701 154.986L409.206 129.298ZM454.573 155.489L499.107 129.78L543.603 155.467L499.069 181.177L454.573 155.489ZM46.2234 -27.8245L90.757 -53.5337L135.252 -27.8465L90.7189 -2.13726L46.2234 -27.8245ZM91.5913 -1.63359L136.125 -27.3428L180.62 -1.65561L136.087 24.0536L91.5913 -1.63359ZM136.959 24.5573L181.493 -1.15194L225.988 24.5353L181.455 50.2445L136.959 24.5573ZM182.327 50.7482L226.861 25.039L271.356 50.7262L226.823 76.4354L182.327 50.7482ZM227.695 76.9391L272.229 51.2299L316.724 76.9171L272.191 102.626L227.695 76.9391ZM273.063 103.13L317.597 77.4207L362.092 103.108L317.558 128.817L273.063 103.13ZM318.431 129.321L362.964 103.612L407.46 129.299L362.926 155.008L318.431 129.321ZM363.799 155.512L408.332 129.803L452.828 155.49L408.294 181.199L363.799 155.512ZM409.167 181.703L453.7 155.993L498.196 181.681L453.662 207.39L409.167 181.703ZM0.816636 -1.61114L45.3502 -27.3204L89.8457 -1.63316L45.3121 24.0761L0.816636 -1.61114ZM46.1845 24.5798L90.7181 -1.12949L135.214 24.5577L90.68 50.267L46.1845 24.5798ZM91.5525 50.7707L136.086 25.0614L180.581 50.7486L136.048 76.4579L91.5525 50.7707ZM136.92 76.9615L181.454 51.2523L225.949 76.9395L181.416 102.649L136.92 76.9615ZM182.288 103.152L226.822 77.4432L271.317 103.13L226.784 128.84L182.288 103.152ZM227.656 129.343L272.19 103.634L316.685 129.321L272.152 155.031L227.656 129.343ZM273.024 155.534L317.558 129.825L362.053 155.512L317.52 181.221L273.024 155.534ZM318.392 181.725L362.926 156.016L407.421 181.703L362.887 207.412L318.392 181.725ZM363.76 207.916L408.293 182.207L452.789 207.894L408.255 233.603L363.76 207.916ZM-44.5902 24.6022L-0.0565918 -1.10702L44.4389 24.5802L-0.0947256 50.2894L-44.5902 24.6022ZM0.777733 50.7931L45.3113 25.0839L89.8068 50.7711L45.2732 76.4803L0.777733 50.7931ZM46.1456 76.984L90.6792 51.2748L135.175 76.962L90.6411 102.671L46.1456 76.984ZM91.5135 103.175L136.047 77.4657L180.543 103.153L136.009 128.862L91.5135 103.175ZM136.881 129.366L181.415 103.657L225.91 129.344L181.377 155.053L136.881 129.366ZM182.249 155.557L226.783 129.847L271.278 155.535L226.745 181.244L182.249 155.557ZM227.617 181.748L272.151 156.038L316.646 181.726L272.113 207.435L227.617 181.748ZM272.985 207.938L317.519 182.229L362.014 207.916L317.481 233.626L272.985 207.938ZM318.353 234.129L362.887 208.42L407.382 234.107L362.849 259.817L318.353 234.129ZM-89.997 50.8156L-45.4634 25.1063L-0.967942 50.7935L-45.5015 76.5028L-89.997 50.8156ZM-44.6291 77.0065L-0.0954832 51.2972L44.4 76.9844L-0.133628 102.694L-44.6291 77.0065ZM0.738828 103.197L45.2724 77.4881L89.7679 103.175L45.2343 128.885L0.738828 103.197ZM46.1067 129.388L90.6403 103.679L135.136 129.366L90.6022 155.075L46.1067 129.388ZM91.4746 155.579L136.008 129.87L180.504 155.557L135.97 181.266L91.4746 155.579ZM136.843 181.77L181.376 156.061L225.872 181.748L181.338 207.457L136.843 181.77ZM182.21 207.961L226.744 182.252L271.239 207.939L226.706 233.648L182.21 207.961ZM227.578 234.152L272.112 208.443L316.607 234.13L272.074 259.839L227.578 234.152ZM272.946 260.343L317.48 234.633L361.975 260.321L317.442 286.03L272.946 260.343ZM-135.404 77.0289L-90.8702 51.3197L-46.3747 77.0069L-90.9083 102.716L-135.404 77.0289ZM-90.0359 103.22L-45.5023 77.5106L-1.00683 103.198L-45.5404 128.907L-90.0359 103.22ZM-44.668 129.411L-0.134377 103.701L44.3611 129.389L-0.172527 155.098L-44.668 129.411ZM0.699929 155.602L45.2335 129.892L89.729 155.58L45.1954 181.289L0.699929 155.602ZM46.0678 181.792L90.6014 156.083L135.097 181.77L90.5633 207.48L46.0678 181.792ZM91.4357 207.983L135.969 182.274L180.465 207.961L135.931 233.671L91.4357 207.983ZM136.804 234.174L181.337 208.465L225.833 234.152L181.299 259.862L136.804 234.174ZM182.172 260.365L226.705 234.656L271.201 260.343L226.667 286.052L182.172 260.365ZM227.539 286.556L272.073 260.847L316.569 286.534L272.035 312.243L227.539 286.556ZM-180.811 103.242L-136.277 77.533L-91.7816 103.22L-136.315 128.929L-180.811 103.242ZM-135.443 129.433L-90.9091 103.724L-46.4136 129.411L-90.9472 155.12L-135.443 129.433ZM-90.0748 155.624L-45.5412 129.915L-1.04574 155.602L-45.5793 181.311L-90.0748 155.624ZM-44.7069 181.815L-0.173282 156.106L44.3222 181.793L-0.211423 207.502L-44.7069 181.815ZM0.661033 208.006L45.1946 182.297L89.6901 207.984L45.1565 233.693L0.661033 208.006ZM46.0289 234.197L90.5625 208.487L135.058 234.175L90.5244 259.884L46.0289 234.197ZM91.3969 260.388L135.93 234.678L180.426 260.366L135.892 286.075L91.3969 260.388ZM136.765 286.579L181.298 260.869L225.794 286.557L181.26 312.266L136.765 286.579ZM182.133 312.769L226.666 287.06L271.162 312.747L226.628 338.457L182.133 312.769ZM-226.217 129.456L-181.684 103.746L-137.188 129.434L-181.722 155.143L-226.217 129.456ZM-180.849 155.647L-136.316 129.937L-91.8204 155.624L-136.354 181.334L-180.849 155.647ZM-135.482 181.837L-90.948 156.128L-46.4525 181.815L-90.9861 207.525L-135.482 181.837ZM-90.1137 208.028L-45.5801 182.319L-1.08463 208.006L-45.6182 233.716L-90.1137 208.028ZM-44.7458 234.219L-0.212175 208.51L44.2833 234.197L-0.250317 259.906L-44.7458 234.219ZM0.622128 260.41L45.1557 234.701L89.6512 260.388L45.1176 286.097L0.622128 260.41ZM45.9901 286.601L90.5236 260.892L135.019 286.579L90.4855 312.288L45.9901 286.601ZM91.358 312.792L135.892 287.083L180.387 312.77L135.853 338.479L91.358 312.792ZM136.726 338.983L181.259 313.274L225.755 338.961L181.221 364.67L136.726 338.983Z" fill="#C7C9D9"/>
<path d="M-92.6925 155.624L-90.9461 154.616L-89.2012 155.623L-90.9476 156.631L-92.6925 155.624ZM-181.683 104.25L-179.937 103.241L-181.682 102.234L-183.428 103.242L-181.683 104.25ZM-45.5603 156.62L-43.8139 155.612L-45.5588 154.605L-47.3052 155.613L-45.5603 156.62ZM-136.316 130.44L-134.569 129.432L-136.314 128.425L-138.06 129.433L-136.316 130.44ZM-90.9282 130.429L-89.1817 129.421L-90.9267 128.414L-92.6731 129.422L-90.9282 130.429ZM-181.703 130.452L-179.956 129.443L-181.701 128.436L-183.448 129.444L-181.703 130.452ZM-136.354 182.845L-134.608 181.836L-136.353 180.829L-138.099 181.837L-136.354 182.845ZM-90.9671 182.833L-89.2207 181.825L-90.9656 180.818L-92.712 181.826L-90.9671 182.833ZM-181.721 154.638L-183.467 155.646L-181.722 156.654L-179.976 155.646L-181.721 154.638ZM-136.335 156.643L-134.589 155.634L-136.333 154.627L-138.08 155.635L-136.335 156.643ZM-90.8893 78.0249L-89.1428 77.0167L-90.8878 76.0094L-92.6342 77.0176L-90.8893 78.0249ZM-136.296 104.238L-134.55 103.23L-136.295 102.223L-138.041 103.231L-136.296 104.238ZM-45.5214 104.216L-43.775 103.208L-45.5199 102.2L-47.2663 103.208L-45.5214 104.216ZM-0.153482 130.407L1.59294 129.399L-0.151984 128.391L-1.89841 129.399L-0.153482 130.407ZM-45.5408 130.418L-43.7944 129.41L-45.5393 128.402L-47.2857 129.411L-45.5408 130.418ZM-90.9087 104.227L-89.1623 103.219L-90.9072 102.212L-92.6536 103.22L-90.9087 104.227ZM-136.277 78.0362L-134.53 77.028L-136.275 76.0206L-138.022 77.0288L-136.277 78.0362ZM-230.579 126.937L-231.452 127.441L-227.962 129.455L-231.455 131.472L-230.583 131.975L-227.09 129.959L-223.6 131.974L-222.727 131.47L-226.217 129.455L-222.724 127.438L-223.596 126.935L-227.089 128.951L-230.579 126.937ZM45.2728 77.9912L47.0192 76.983L45.2743 75.9757L43.5278 76.9839L45.2728 77.9912ZM-45.463 25.6095L-43.7166 24.6013L-45.4615 23.5939L-47.2079 24.6021L-45.463 25.6095ZM90.6601 77.98L92.4065 76.9718L90.6616 75.9645L88.9152 76.9727L90.6601 77.98ZM-0.0951273 51.8004L1.65128 50.7922L-0.0936352 49.7848L-1.84005 50.793L-0.0951273 51.8004ZM45.2922 51.7891L47.0386 50.7809L45.2937 49.7736L43.5473 50.7818L45.2922 51.7891ZM-45.4825 51.8116L-43.7361 50.8034L-45.481 49.796L-47.2274 50.8042L-45.4825 51.8116ZM-0.134032 104.205L1.61239 103.196L-0.132529 102.189L-1.87895 103.197L-0.134032 104.205ZM45.2533 104.193L46.9997 103.185L45.2548 102.178L43.5084 103.186L45.2533 104.193ZM-45.5004 75.9982L-47.2468 77.0064L-45.5019 78.0137L-43.7555 77.0055L-45.5004 75.9982ZM-0.114577 78.0025L1.63183 76.9943L-0.113091 75.9869L-1.8595 76.9951L-0.114577 78.0025ZM45.3311 -0.615108L47.0775 -1.62331L45.3326 -2.63065L43.5862 -1.62245L45.3311 -0.615108ZM-0.0756748 25.5982L1.67074 24.59L-0.0741827 23.5827L-1.82059 24.5909L-0.0756748 25.5982ZM90.699 25.5758L92.4454 24.5676L90.7005 23.5602L88.9541 24.5684L90.699 25.5758ZM136.067 51.7667L137.813 50.7585L136.068 49.7511L134.322 50.7593L136.067 51.7667ZM90.6796 51.7779L92.426 50.7697L90.6811 49.7624L88.9346 50.7706L90.6796 51.7779ZM45.3117 25.587L47.0581 24.5788L45.3132 23.5715L43.5668 24.5797L45.3117 25.587ZM-0.0562209 -0.603877L1.69019 -1.61208L-0.0547298 -2.61942L-1.80114 -1.61122L-0.0562209 -0.603877ZM-94.3585 48.2965L-95.2317 48.8006L-91.7419 50.8153L-95.2347 52.8317L-94.3623 53.3353L-90.8694 51.3189L-87.3796 53.3336L-86.5064 52.8295L-89.9962 50.8148L-86.5034 48.7984L-87.3759 48.2948L-90.8687 50.3112L-94.3585 48.2965ZM181.493 -0.648797L183.24 -1.657L181.495 -2.66434L179.748 -1.65614L181.493 -0.648797ZM90.7574 -53.0306L92.5038 -54.0388L90.7589 -55.0461L89.0125 -54.0379L90.7574 -53.0306ZM226.88 -0.660026L228.627 -1.66823L226.882 -2.67557L225.136 -1.66737L226.88 -0.660026ZM136.125 -26.8397L137.872 -27.8479L136.127 -28.8552L134.38 -27.847L136.125 -26.8397ZM181.513 -26.8509L183.259 -27.8591L181.514 -28.8665L179.768 -27.8583L181.513 -26.8509ZM90.7379 -26.8285L92.4843 -27.8367L90.7394 -28.844L88.993 -27.8358L90.7379 -26.8285ZM136.086 25.5646L137.833 24.5563L136.088 23.549L134.341 24.5572L136.086 25.5646ZM181.474 25.5533L183.22 24.5451L181.475 23.5378L179.729 24.546L181.474 25.5533ZM90.72 -2.64188L88.9735 -1.63368L90.7185 -0.626337L92.4649 -1.63454L90.72 -2.64188ZM136.106 -0.637566L137.852 -1.64577L136.107 -2.65311L134.361 -1.64491L136.106 -0.637566ZM181.551 -79.2551L183.298 -80.2633L181.553 -81.2707L179.807 -80.2625L181.551 -79.2551ZM272.307 -53.0755L274.053 -54.0837L272.308 -55.091L270.562 -54.0828L272.307 -53.0755ZM226.94 -81.2819L225.194 -80.2737L226.939 -79.2664L228.685 -80.2746L226.94 -81.2819ZM136.145 -53.0418L137.891 -54.05L136.146 -55.0573L134.4 -54.0491L136.145 -53.0418ZM226.919 -53.0642L228.666 -54.0725L226.921 -55.0798L225.174 -54.0716L226.919 -53.0642ZM272.287 -26.8734L274.034 -27.8816L272.289 -28.8889L270.542 -27.8807L272.287 -26.8734ZM226.9 -26.8621L228.646 -27.8703L226.901 -28.8777L225.155 -27.8695L226.9 -26.8621ZM181.532 -53.053L183.278 -54.0612L181.534 -55.0686L179.787 -54.0604L181.532 -53.053ZM136.164 -79.2439L137.911 -80.2521L136.166 -81.2595L134.419 -80.2513L136.164 -79.2439ZM181.572 -106.969L178.082 -108.984L177.209 -108.48L180.699 -106.465L177.206 -104.448L178.079 -103.945L181.571 -105.961L185.061 -103.946L185.934 -104.451L182.445 -106.465L185.937 -108.482L185.065 -108.985L181.572 -106.969ZM41.8619 -30.3436L40.9887 -29.8395L44.4785 -27.8248L40.9856 -25.8084L41.8581 -25.3047L45.3509 -27.3211L48.8408 -25.3064L49.714 -25.8105L46.2242 -27.8252L49.717 -29.8416L48.8445 -30.3453L45.3517 -28.3289L41.8619 -30.3436ZM45.1561 235.204L46.9025 234.196L45.1575 233.188L43.4111 234.197L45.1561 235.204ZM-45.5797 182.822L-43.8333 181.814L-45.5782 180.807L-47.3246 181.815L-45.5797 182.822ZM90.5434 235.193L92.2898 234.185L90.5449 233.177L88.7985 234.185L90.5434 235.193ZM-0.211837 209.013L1.53458 208.005L-0.210344 206.998L-1.95676 208.006L-0.211837 209.013ZM45.1755 209.002L46.9219 207.994L45.177 206.986L43.4306 207.995L45.1755 209.002ZM-45.5992 209.024L-43.8528 208.016L-45.5977 207.009L-47.3441 208.017L-45.5992 209.024ZM-0.250733 261.417L1.49568 260.409L-0.249252 259.402L-1.99567 260.41L-0.250733 261.417ZM45.1366 261.406L46.883 260.398L45.1381 259.391L43.3917 260.399L45.1366 261.406ZM-45.6171 233.211L-47.3636 234.219L-45.6186 235.226L-43.8722 234.218L-45.6171 233.211ZM-0.231283 235.215L1.51513 234.207L-0.22978 233.2L-1.9762 234.208L-0.231283 235.215ZM45.2144 156.598L46.9608 155.589L45.2159 154.582L43.4695 155.59L45.2144 156.598ZM-0.192387 182.811L1.55403 181.803L-0.190883 180.795L-1.9373 181.804L-0.192387 182.811ZM90.5823 182.788L92.3287 181.78L90.5838 180.773L88.8374 181.781L90.5823 182.788ZM135.95 208.979L137.697 207.971L135.952 206.964L134.205 207.972L135.95 208.979ZM90.5629 208.991L92.3093 207.982L90.5643 206.975L88.8179 207.983L90.5629 208.991ZM45.195 182.8L46.9414 181.792L45.1965 180.784L43.45 181.792L45.195 182.8ZM-0.172937 156.609L1.57348 155.601L-0.171434 154.593L-1.91785 155.601L-0.172937 156.609ZM-94.4752 205.509L-95.3484 206.013L-91.8586 208.028L-95.3514 210.044L-94.479 210.548L-90.9861 208.532L-87.4963 210.546L-86.6231 210.042L-90.1129 208.028L-86.6201 206.011L-87.4926 205.507L-90.9854 207.524L-94.4752 205.509ZM181.376 156.564L183.123 155.556L181.378 154.548L179.632 155.557L181.376 156.564ZM90.6406 104.182L92.3871 103.174L90.6421 102.167L88.8957 103.175L90.6406 104.182ZM226.764 156.553L228.51 155.544L226.765 154.537L225.019 155.545L226.764 156.553ZM136.009 130.373L137.755 129.365L136.01 128.357L134.264 129.366L136.009 130.373ZM181.396 130.362L183.142 129.354L181.397 128.346L179.651 129.354L181.396 130.362ZM90.6212 130.384L92.3676 129.376L90.6227 128.369L88.8763 129.377L90.6212 130.384ZM135.97 182.777L137.716 181.769L135.971 180.762L134.225 181.77L135.97 182.777ZM181.357 182.766L183.103 181.758L181.358 180.75L179.612 181.759L181.357 182.766ZM90.6032 154.571L88.8568 155.579L90.6018 156.586L92.3482 155.578L90.6032 154.571ZM135.989 156.575L137.736 155.567L135.991 154.56L134.244 155.568L135.989 156.575ZM181.435 77.9576L183.181 76.9494L181.436 75.942L179.69 76.9502L181.435 77.9576ZM136.028 104.171L137.774 103.163L136.029 102.155L134.283 103.164L136.028 104.171ZM226.803 104.148L228.549 103.14L226.804 102.133L225.058 103.141L226.803 104.148ZM272.171 130.339L273.917 129.331L272.172 128.324L270.426 129.332L272.171 130.339ZM226.783 130.351L228.53 129.342L226.785 128.335L225.038 129.343L226.783 130.351ZM181.415 104.16L183.162 103.151L181.417 102.144L179.67 103.152L181.415 104.16ZM136.047 77.9688L137.794 76.9606L136.049 75.9532L134.303 76.9614L136.047 77.9688ZM41.7451 126.869L40.8719 127.373L44.3618 129.388L40.8689 131.404L41.7414 131.908L45.2342 129.892L48.7241 131.906L49.5973 131.402L46.1074 129.387L49.6003 127.371L48.7278 126.867L45.235 128.884L41.7451 126.869ZM317.597 77.9239L319.343 76.9157L317.598 75.9083L315.852 76.9165L317.597 77.9239ZM226.861 25.5421L228.607 24.5339L226.863 23.5265L225.116 24.5348L226.861 25.5421ZM362.984 77.9126L364.731 76.9044L362.986 75.8971L361.239 76.9053L362.984 77.9126ZM272.229 51.733L273.975 50.7248L272.23 49.7174L270.484 50.7256L272.229 51.733ZM317.616 51.7218L319.363 50.7135L317.618 49.7062L315.871 50.7144L317.616 51.7218ZM226.842 51.7442L228.588 50.736L226.843 49.7287L225.097 50.7369L226.842 51.7442ZM272.19 104.137L273.936 103.129L272.192 102.122L270.445 103.13L272.19 104.137ZM317.577 104.126L319.324 103.118L317.579 102.11L315.832 103.119L317.577 104.126ZM226.824 75.9308L225.077 76.939L226.822 77.9463L228.569 76.9381L226.824 75.9308ZM272.209 77.9351L273.956 76.9269L272.211 75.9196L270.465 76.9278L272.209 77.9351ZM317.655 -0.682476L319.402 -1.69068L317.657 -2.69802L315.91 -1.68981L317.655 -0.682476ZM408.41 25.4972L410.157 24.489L408.412 23.4816L406.665 24.4898L408.41 25.4972ZM363.044 -2.70926L361.298 -1.70106L363.043 -0.693717L364.789 -1.70192L363.044 -2.70926ZM272.248 25.5309L273.995 24.5227L272.25 23.5153L270.503 24.5235L272.248 25.5309ZM363.023 25.5084L364.769 24.5002L363.025 23.4929L361.278 24.5011L363.023 25.5084ZM408.391 51.6993L410.137 50.6911L408.392 49.6838L406.646 50.692L408.391 51.6993ZM363.004 51.7105L364.75 50.7023L363.005 49.695L361.259 50.7032L363.004 51.7105ZM317.636 25.5196L319.382 24.5114L317.637 23.5041L315.891 24.5123L317.636 25.5196ZM272.268 -0.671261L274.014 -1.67946L272.269 -2.6868L270.523 -1.6786L272.268 -0.671261ZM314.186 -30.411L313.313 -29.9068L316.803 -27.8922L313.31 -25.8758L314.182 -25.3721L317.675 -27.3885L321.165 -25.3738L322.038 -25.8779L318.548 -27.8926L322.041 -29.909L321.169 -30.4127L317.676 -28.3963L314.186 -30.411ZM177.966 48.2291L177.092 48.7332L180.582 50.7479L177.089 52.7643L177.962 53.268L181.455 51.2516L184.944 53.2662L185.818 52.7621L182.328 50.7475L185.821 48.731L184.948 48.2274L181.455 50.2438L177.966 48.2291ZM226.628 339.968L228.374 338.959L226.629 337.952L224.883 338.96L226.628 339.968ZM181.26 313.777L183.006 312.768L181.261 311.761L179.515 312.769L181.26 313.777ZM90.5239 261.395L92.2704 260.387L90.5254 259.379L88.779 260.388L90.5239 261.395ZM226.647 313.765L228.393 312.757L226.649 311.75L224.902 312.758L226.647 313.765ZM135.892 287.586L137.638 286.578L135.893 285.57L134.147 286.578L135.892 287.586ZM181.279 287.575L183.026 286.566L181.281 285.559L179.534 286.567L181.279 287.575ZM90.5045 287.597L92.2509 286.589L90.506 285.581L88.7596 286.59L90.5045 287.597ZM135.853 339.99L137.599 338.982L135.854 337.974L134.108 338.983L135.853 339.99ZM181.24 339.979L182.987 338.971L181.242 337.963L179.495 338.971L181.24 339.979ZM90.4865 311.784L88.7401 312.792L90.485 313.799L92.2315 312.791L90.4865 311.784ZM135.872 313.788L137.619 312.78L135.874 311.772L134.127 312.781L135.872 313.788ZM181.318 235.17L183.064 234.162L181.32 233.155L179.573 234.163L181.318 235.17ZM135.911 261.384L137.658 260.375L135.913 259.368L134.166 260.376L135.911 261.384ZM226.686 261.361L228.432 260.353L226.687 259.346L224.941 260.354L226.686 261.361ZM272.054 287.552L273.8 286.544L272.055 285.537L270.309 286.545L272.054 287.552ZM272.034 313.754L273.781 312.746L272.036 311.739L270.289 312.747L272.034 313.754ZM226.667 287.563L228.413 286.555L226.668 285.548L224.922 286.556L226.667 287.563ZM181.299 261.372L183.045 260.364L181.3 259.357L179.554 260.365L181.299 261.372ZM135.931 235.181L137.677 234.173L135.932 233.166L134.186 234.174L135.931 235.181ZM41.6284 284.082L40.7552 284.586L44.2451 286.601L40.7522 288.617L41.6247 289.121L45.1175 287.104L48.6074 289.119L49.4806 288.615L45.9907 286.6L49.4836 284.584L48.6111 284.08L45.1183 286.097L41.6284 284.082ZM177.732 362.655L176.859 363.159L180.349 365.173L176.856 367.19L177.728 367.693L181.221 365.677L184.711 367.692L185.584 367.188L182.094 365.173L185.587 363.156L184.715 362.653L181.222 364.669L177.732 362.655ZM362.848 261.327L364.594 260.319L362.849 259.312L361.103 260.32L362.848 261.327ZM317.48 235.137L319.227 234.128L317.482 233.121L315.735 234.129L317.48 235.137ZM226.744 182.755L228.491 181.747L226.746 180.739L224.999 181.747L226.744 182.755ZM362.867 235.125L364.614 234.117L362.869 233.11L361.123 234.118L362.867 235.125ZM272.112 208.946L273.859 207.937L272.114 206.93L270.367 207.938L272.112 208.946ZM317.5 208.934L319.246 207.926L317.501 206.919L315.755 207.927L317.5 208.934ZM226.725 208.957L228.471 207.949L226.726 206.941L224.98 207.95L226.725 208.957ZM272.073 261.35L273.82 260.342L272.075 259.334L270.328 260.343L272.073 261.35ZM317.461 261.339L319.207 260.33L317.462 259.323L315.716 260.331L317.461 261.339ZM226.707 233.143L224.961 234.152L226.705 235.159L228.452 234.151L226.707 233.143ZM272.093 235.148L273.839 234.14L272.094 233.132L270.348 234.14L272.093 235.148ZM317.538 156.53L319.285 155.522L317.54 154.515L315.794 155.523L317.538 156.53ZM272.132 182.744L273.878 181.735L272.133 180.728L270.387 181.736L272.132 182.744ZM362.906 182.721L364.653 181.713L362.908 180.706L361.161 181.714L362.906 182.721ZM408.274 208.912L410.021 207.904L408.276 206.896L406.529 207.905L408.274 208.912ZM408.255 235.114L410.001 234.106L408.256 233.099L406.51 234.107L408.255 235.114ZM362.887 208.923L364.633 207.915L362.888 206.908L361.142 207.916L362.887 208.923ZM317.519 182.732L319.265 181.724L317.521 180.717L315.774 181.725L317.519 182.732ZM272.151 156.541L273.898 155.533L272.153 154.526L270.406 155.534L272.151 156.541ZM177.849 205.442L176.976 205.946L180.465 207.961L176.973 209.977L177.845 210.481L181.338 208.464L184.828 210.479L185.701 209.975L182.211 207.96L185.704 205.944L184.831 205.44L181.339 207.456L177.849 205.442ZM313.952 284.014L313.079 284.519L316.569 286.533L313.076 288.55L313.949 289.053L317.442 287.037L320.931 289.052L321.805 288.548L318.315 286.533L321.808 284.516L320.935 284.013L317.442 286.029L313.952 284.014ZM499.068 182.687L500.815 181.679L499.07 180.672L497.323 181.68L499.068 182.687ZM453.701 156.497L455.447 155.488L453.702 154.481L451.956 155.489L453.701 156.497ZM362.965 104.115L364.711 103.107L362.966 102.099L361.22 103.107L362.965 104.115ZM499.088 156.485L500.834 155.477L499.089 154.47L497.343 155.478L499.088 156.485ZM408.333 130.306L410.079 129.297L408.334 128.29L406.588 129.298L408.333 130.306ZM453.72 130.294L455.466 129.286L453.721 128.279L451.975 129.287L453.72 130.294ZM362.945 130.317L364.692 129.309L362.947 128.301L361.2 129.31L362.945 130.317ZM408.294 182.71L410.04 181.702L408.295 180.694L406.549 181.703L408.294 182.71ZM453.681 182.699L455.427 181.69L453.683 180.683L451.936 181.691L453.681 182.699ZM362.927 154.503L361.181 155.512L362.926 156.519L364.672 155.511L362.927 154.503ZM408.313 156.508L410.06 155.5L408.315 154.492L406.568 155.5L408.313 156.508ZM453.759 77.8902L455.505 76.882L453.76 75.8746L452.014 76.8828L453.759 77.8902ZM544.514 104.07L546.261 103.062L544.516 102.054L542.769 103.063L544.514 104.07ZM499.148 75.8634L497.401 76.8716L499.146 77.8789L500.893 76.8707L499.148 75.8634ZM408.352 104.104L410.098 103.095L408.354 102.088L406.607 103.096L408.352 104.104ZM499.127 104.081L500.873 103.073L499.128 102.066L497.382 103.074L499.127 104.081ZM544.495 130.272L546.241 129.264L544.496 128.256L542.75 129.265L544.495 130.272ZM544.475 156.474L546.222 155.466L544.477 154.459L542.73 155.467L544.475 156.474ZM499.107 130.283L500.854 129.275L499.109 128.268L497.362 129.276L499.107 130.283ZM453.739 104.092L455.486 103.084L453.741 102.077L451.994 103.085L453.739 104.092ZM408.372 77.9014L410.118 76.8932L408.373 75.8859L406.627 76.8941L408.372 77.9014ZM586.393 126.734L585.52 127.238L589.01 129.253L585.517 131.27L586.39 131.773L589.882 129.757L593.372 131.772L594.245 131.267L590.756 129.253L594.248 127.236L593.376 126.733L589.883 128.749L586.393 126.734ZM450.29 48.1617L449.416 48.6658L452.906 50.6805L449.413 52.6969L450.286 53.2006L453.779 51.1842L457.269 53.1989L458.142 52.6948L454.652 50.6801L458.145 48.6637L457.272 48.16L453.779 50.1764L450.29 48.1617ZM314.069 126.802L313.196 127.306L316.686 129.321L313.193 131.337L314.065 131.841L317.558 129.824L321.048 131.839L321.921 131.335L318.432 129.32L321.924 127.304L321.052 126.8L317.559 128.816L314.069 126.802ZM450.173 205.374L449.3 205.879L452.79 207.893L449.297 209.91L450.169 210.413L453.662 208.397L457.152 210.412L458.025 209.907L454.535 207.893L458.028 205.876L457.156 205.373L453.663 207.389L450.173 205.374Z" fill="#C7C9D9"/>
<g filter="url(#filter0_dd)">
<rect width="84.0609" height="84.0609" rx="18" transform="matrix(0.866044 0.499967 -0.866044 0.499967 181.856 62.6743)" fill="url(#paint1_linear)"/>
<rect width="84.0609" height="84.0609" rx="18" transform="matrix(0.866044 0.499967 -0.866044 0.499967 181.856 60)" fill="white"/>
</g>
</g>
<defs>
<filter id="filter0_dd" x="114.187" y="63.272" width="135.337" height="84.1862" filterUnits="userSpaceOnUse" color-interpolation-filters="sRGB">
<feFlood flood-opacity="0" result="BackgroundImageFix"/>
<feColorMatrix in="SourceAlpha" type="matrix" values="0 0 0 0 0 0 0 0 0 0 0 0 0 0 0 0 0 0 127 0"/>
<feOffset dy="2"/>
<feGaussianBlur stdDeviation="2"/>
<feColorMatrix type="matrix" values="0 0 0 0 0.376471 0 0 0 0 0.380392 0 0 0 0 0.439216 0 0 0 0.16 0"/>
<feBlend mode="normal" in2="BackgroundImageFix" result="effect1_dropShadow"/>
<feColorMatrix in="SourceAlpha" type="matrix" values="0 0 0 0 0 0 0 0 0 0 0 0 0 0 0 0 0 0 127 0"/>
<feOffset/>
<feGaussianBlur stdDeviation="0.5"/>
<feColorMatrix type="matrix" values="0 0 0 0 0.156863 0 0 0 0 0.160784 0 0 0 0 0.239216 0 0 0 0.04 0"/>
<feBlend mode="normal" in2="effect1_dropShadow" result="effect2_dropShadow"/>
<feBlend mode="normal" in="SourceGraphic" in2="effect2_dropShadow" result="shape"/>
</filter>
<radialGradient id="paint0_radial" cx="0" cy="0" r="1" gradientUnits="userSpaceOnUse" gradientTransform="translate(111.685 100.761) rotate(93.632) scale(109.016 102.123)">
<stop offset="0.744792" stop-color="#C4C4C4"/>
<stop offset="1" stop-color="#C4C4C4" stop-opacity="0"/>
</radialGradient>
<linearGradient id="paint1_linear" x1="-0.383015" y1="13.1213" x2="87.3745" y2="24.5005" gradientUnits="userSpaceOnUse">
<stop stop-color="#E4E4EB"/>
<stop offset="1" stop-color="#EDF0F4"/>
</linearGradient>
</defs>
</svg>
