<svg width="821" height="471" viewBox="0 0 821 471" fill="none" xmlns="http://www.w3.org/2000/svg">
<g opacity="0.45">
<mask id="mask0" mask-type="alpha" maskUnits="userSpaceOnUse" x="20" y="-21" width="852" height="492">
<rect width="443.348" height="539.881" transform="matrix(0.866044 0.499967 -0.866044 0.499967 487.561 -20.623)" fill="url(#paint0_radial)"/>
</mask>
<g mask="url(#mask0)">
<path opacity="0.15" d="M452.573 449.102L453.446 448.598L497.98 422.889L498.853 422.385L543.386 396.676L544.26 396.171L588.793 370.462L589.666 369.958L634.2 344.249L635.073 343.745L679.607 318.035L680.48 317.531L725.014 291.822L725.887 291.318L770.42 265.609L771.294 265.105L815.827 239.395L816.701 238.891L815.828 238.388L771.333 212.7L770.46 212.197L725.965 186.51L725.092 186.006L680.597 160.319L679.724 159.815L635.229 134.128L634.356 133.624L589.861 107.937L588.989 107.433L544.493 81.746L543.621 81.2423L499.125 55.5551L498.253 55.0514L453.757 29.3642L452.885 28.8605L408.389 3.17331L407.517 2.66964L406.644 3.17375L271.296 81.3097L270.423 81.8138L135.076 159.95L134.203 160.454L-2.01758 239.094L134.086 317.667L134.959 318.17L270.19 396.239L271.062 396.743L406.294 474.812L407.166 475.316L408.039 474.811L452.573 449.102ZM362.983 29.3867L407.516 3.67742L452.012 29.3646L407.478 55.0739L362.983 29.3867ZM408.35 55.5776L452.884 29.8683L497.379 55.5555L452.846 81.2648L408.35 55.5776ZM453.718 81.7684L498.252 56.0592L542.747 81.7464L498.214 107.456L453.718 81.7684ZM499.086 107.959L543.62 82.2501L588.115 107.937L543.582 133.647L499.086 107.959ZM544.454 134.15L588.988 108.441L633.483 134.128L588.95 159.837L544.454 134.15ZM589.822 160.341L634.356 134.632L678.851 160.319L634.318 186.028L589.822 160.341ZM635.19 186.532L679.724 160.823L724.219 186.51L679.685 212.219L635.19 186.532ZM680.558 212.723L725.091 187.014L769.587 212.701L725.053 238.41L680.558 212.723ZM725.926 238.914L770.459 213.205L814.955 238.892L770.421 264.601L725.926 238.914ZM317.576 55.6L362.109 29.8908L406.605 55.578L362.071 81.2872L317.576 55.6ZM362.944 81.7909L407.477 56.0817L451.973 81.7689L407.439 107.478L362.944 81.7909ZM408.312 107.982L452.845 82.2726L497.341 107.96L452.807 133.669L408.312 107.982ZM453.679 134.173L498.213 108.463L542.709 134.151L498.175 159.86L453.679 134.173ZM499.047 160.364L543.581 134.654L588.076 160.342L543.543 186.051L499.047 160.364ZM544.415 186.554L588.949 160.845L633.444 186.532L588.911 212.242L544.415 186.554ZM589.783 212.745L634.317 187.036L678.812 212.723L634.279 238.433L589.783 212.745ZM635.151 238.936L679.685 213.227L724.18 238.914L679.647 264.623L635.151 238.936ZM680.519 265.127L725.053 239.418L769.548 265.105L725.014 290.814L680.519 265.127ZM272.169 81.8134L316.703 56.1041L361.198 81.7913L316.664 107.501L272.169 81.8134ZM317.537 108.004L362.07 82.295L406.566 107.982L362.032 133.691L317.537 108.004ZM362.905 134.195L407.438 108.486L451.934 134.173L407.4 159.882L362.905 134.195ZM408.273 160.386L452.806 134.677L497.302 160.364L452.768 186.073L408.273 160.386ZM453.641 186.577L498.174 160.868L542.67 186.555L498.136 212.264L453.641 186.577ZM499.008 212.768L543.542 187.059L588.038 212.746L543.504 238.455L499.008 212.768ZM544.376 238.959L588.91 213.249L633.405 238.937L588.872 264.646L544.376 238.959ZM589.744 265.15L634.278 239.44L678.773 265.128L634.24 290.837L589.744 265.15ZM635.112 291.341L679.646 265.631L724.141 291.318L679.608 317.028L635.112 291.341ZM226.762 108.027L271.296 82.3175L315.791 108.005L271.258 133.714L226.762 108.027ZM272.13 134.218L316.664 108.508L361.159 134.196L316.625 159.905L272.13 134.218ZM317.498 160.408L362.032 134.699L406.527 160.386L361.993 186.096L317.498 160.408ZM362.866 186.599L407.399 160.89L451.895 186.577L407.361 212.287L362.866 186.599ZM408.234 212.79L452.767 187.081L497.263 212.768L452.729 238.477L408.234 212.79ZM453.602 238.981L498.135 213.272L542.631 238.959L498.097 264.668L453.602 238.981ZM498.97 265.172L543.503 239.463L587.999 265.15L543.465 290.859L498.97 265.172ZM544.337 291.363L588.871 265.654L633.367 291.341L588.833 317.05L544.337 291.363ZM589.705 317.554L634.239 291.845L678.734 317.532L634.201 343.241L589.705 317.554ZM181.355 134.24L225.889 108.531L270.384 134.218L225.851 159.927L181.355 134.24ZM226.723 160.431L271.257 134.722L315.752 160.409L271.219 186.118L226.723 160.431ZM272.091 186.622L316.625 160.913L361.12 186.6L316.587 212.309L272.091 186.622ZM317.459 212.813L361.993 187.103L406.488 212.791L361.954 238.5L317.459 212.813ZM362.827 239.004L407.361 213.294L451.856 238.982L407.322 264.691L362.827 239.004ZM408.195 265.195L452.728 239.485L497.224 265.172L452.69 290.882L408.195 265.195ZM453.563 291.385L498.096 265.676L542.592 291.363L498.058 317.073L453.563 291.385ZM498.931 317.576L543.464 291.867L587.96 317.554L543.426 343.264L498.931 317.576ZM544.299 343.767L588.832 318.058L633.328 343.745L588.794 369.454L544.299 343.767ZM135.949 160.453L180.482 134.744L224.978 160.431L180.444 186.141L135.949 160.453ZM181.316 186.644L225.85 160.935L270.345 186.622L225.812 212.332L181.316 186.644ZM226.684 212.835L271.218 187.126L315.713 212.813L271.18 238.522L226.684 212.835ZM272.052 239.026L316.586 213.317L361.081 239.004L316.548 264.713L272.052 239.026ZM317.42 265.217L361.954 239.508L406.449 265.195L361.916 290.904L317.42 265.217ZM362.788 291.408L407.322 265.699L451.817 291.386L407.283 317.095L362.788 291.408ZM408.156 317.599L452.69 291.89L497.185 317.577L452.651 343.286L408.156 317.599ZM453.524 343.79L498.057 318.08L542.553 343.768L498.019 369.477L453.524 343.79ZM498.892 369.981L543.425 344.271L587.921 369.959L543.387 395.668L498.892 369.981ZM90.5417 186.667L135.075 160.958L179.571 186.645L135.037 212.354L90.5417 186.667ZM135.91 212.858L180.443 187.148L224.939 212.836L180.405 238.545L135.91 212.858ZM181.278 239.049L225.811 213.339L270.307 239.027L225.773 264.736L181.278 239.049ZM226.645 265.239L271.179 239.53L315.674 265.217L271.141 290.927L226.645 265.239ZM272.013 291.43L316.547 265.721L361.042 291.408L316.509 317.118L272.013 291.43ZM317.381 317.621L361.915 291.912L406.41 317.599L361.877 343.308L317.381 317.621ZM362.749 343.812L407.283 318.103L451.778 343.79L407.245 369.499L362.749 343.812ZM408.117 370.003L452.651 344.294L497.146 369.981L452.612 395.69L408.117 370.003ZM453.485 396.194L498.019 370.485L542.514 396.172L497.98 421.881L453.485 396.194ZM45.1349 212.88L89.6685 187.171L134.164 212.858L89.6303 238.567L45.1349 212.88ZM90.5028 239.071L135.036 213.362L179.532 239.049L134.998 264.758L90.5028 239.071ZM135.871 265.262L180.404 239.553L224.9 265.24L180.366 290.949L135.871 265.262ZM181.239 291.453L225.772 265.744L270.268 291.431L225.734 317.14L181.239 291.453ZM226.607 317.644L271.14 291.934L315.636 317.622L271.102 343.331L226.607 317.644ZM271.974 343.835L316.508 318.125L361.003 343.813L316.47 369.522L271.974 343.835ZM317.342 370.025L361.876 344.316L406.371 370.003L361.838 395.713L317.342 370.025ZM362.71 396.216L407.244 370.507L451.739 396.194L407.206 421.904L362.71 396.216ZM408.078 422.407L452.612 396.698L497.107 422.385L452.574 448.094L408.078 422.407ZM-0.271911 239.093L44.2617 213.384L88.7571 239.071L44.2235 264.781L-0.271911 239.093ZM45.096 265.284L89.6296 239.575L134.125 265.262L89.5914 290.972L45.096 265.284ZM90.4639 291.475L134.998 265.766L179.493 291.453L134.959 317.162L90.4639 291.475ZM135.832 317.666L180.365 291.957L224.861 317.644L180.327 343.353L135.832 317.666ZM181.2 343.857L225.733 318.148L270.229 343.835L225.695 369.544L181.2 343.857ZM226.568 370.048L271.101 344.339L315.597 370.026L271.063 395.735L226.568 370.048ZM271.936 396.239L316.469 370.53L360.965 396.217L316.431 421.926L271.936 396.239ZM317.303 422.43L361.837 396.72L406.332 422.408L361.799 448.117L317.303 422.43ZM362.671 448.621L407.205 422.911L451.7 448.599L407.167 474.308L362.671 448.621Z" fill="#8F90A6"/>
<path d="M133.252 265.262L134.999 264.254L136.744 265.261L134.997 266.269L133.252 265.262ZM44.2616 213.888L46.008 212.879L44.263 211.872L42.5166 212.88L44.2616 213.888ZM180.385 266.258L182.131 265.25L180.386 264.243L178.64 265.251L180.385 266.258ZM89.6294 240.078L91.3759 239.07L89.6309 238.063L87.8845 239.071L89.6294 240.078ZM135.017 240.067L136.763 239.059L135.018 238.052L133.272 239.06L135.017 240.067ZM44.2421 240.09L45.9885 239.081L44.2436 238.074L42.4972 239.082L44.2421 240.09ZM89.5905 292.483L91.337 291.474L89.592 290.467L87.8456 291.475L89.5905 292.483ZM134.978 292.471L136.724 291.463L134.979 290.456L133.233 291.464L134.978 292.471ZM44.2241 264.276L42.4777 265.284L44.2226 266.292L45.9691 265.284L44.2241 264.276ZM89.61 266.281L91.3564 265.272L89.6115 264.265L87.8651 265.273L89.61 266.281ZM135.056 187.663L136.802 186.655L135.057 185.647L133.311 186.656L135.056 187.663ZM89.6489 213.876L91.3953 212.868L89.6504 211.861L87.904 212.869L89.6489 213.876ZM180.424 213.854L182.17 212.846L180.425 211.838L178.679 212.846L180.424 213.854ZM225.791 240.045L227.538 239.037L225.793 238.029L224.047 239.037L225.791 240.045ZM180.404 240.056L182.151 239.048L180.406 238.04L178.659 239.049L180.404 240.056ZM135.036 213.865L136.783 212.857L135.038 211.85L133.291 212.858L135.036 213.865ZM89.6683 187.674L91.4148 186.666L89.6698 185.659L87.9234 186.667L89.6683 187.674ZM-4.63396 236.575L-5.50717 237.079L-2.01733 239.093L-5.51016 241.11L-4.6377 241.613L-1.14487 239.597L2.34497 241.612L3.21817 241.108L-0.271664 239.093L3.22117 237.076L2.34871 236.573L-1.14412 238.589L-4.63396 236.575ZM271.218 187.629L272.964 186.621L271.219 185.614L269.473 186.622L271.218 187.629ZM180.482 135.247L182.228 134.239L180.483 133.232L178.737 134.24L180.482 135.247ZM316.605 187.618L318.351 186.61L316.607 185.602L314.86 186.611L316.605 187.618ZM225.85 161.438L227.596 160.43L225.851 159.423L224.105 160.431L225.85 161.438ZM271.237 161.427L272.984 160.419L271.239 159.412L269.492 160.42L271.237 161.427ZM180.462 161.45L182.209 160.441L180.464 159.434L178.718 160.442L180.462 161.45ZM225.811 213.843L227.557 212.834L225.812 211.827L224.066 212.835L225.811 213.843ZM271.198 213.831L272.945 212.823L271.2 211.816L269.453 212.824L271.198 213.831ZM180.445 185.636L178.698 186.644L180.443 187.652L182.189 186.644L180.445 185.636ZM225.83 187.64L227.577 186.632L225.832 185.625L224.085 186.633L225.83 187.64ZM271.276 109.023L273.022 108.015L271.278 107.007L269.531 108.016L271.276 109.023ZM225.869 135.236L227.616 134.228L225.871 133.221L224.124 134.229L225.869 135.236ZM316.644 135.214L318.39 134.206L316.645 133.198L314.899 134.206L316.644 135.214ZM362.012 161.405L363.758 160.396L362.013 159.389L360.267 160.397L362.012 161.405ZM316.625 161.416L318.371 160.408L316.626 159.4L314.88 160.409L316.625 161.416ZM271.257 135.225L273.003 134.217L271.258 133.209L269.512 134.218L271.257 135.225ZM225.889 109.034L227.635 108.026L225.89 107.019L224.144 108.027L225.889 109.034ZM131.586 157.934L130.713 158.439L134.203 160.453L130.71 162.47L131.583 162.973L135.076 160.957L138.565 162.972L139.439 162.468L135.949 160.453L139.442 158.436L138.569 157.933L135.076 159.949L131.586 157.934ZM407.438 108.989L409.185 107.981L407.44 106.974L405.693 107.982L407.438 108.989ZM316.702 56.6075L318.449 55.5992L316.704 54.5919L314.957 55.6001L316.702 56.6075ZM452.825 108.978L454.572 107.97L452.827 106.962L451.081 107.971L452.825 108.978ZM362.07 82.7983L363.817 81.7901L362.072 80.7828L360.325 81.791L362.07 82.7983ZM407.458 82.7871L409.204 81.7789L407.459 80.7716L405.713 81.7798L407.458 82.7871ZM316.683 82.8096L318.429 81.8014L316.684 80.794L314.938 81.8022L316.683 82.8096ZM362.031 135.203L363.778 134.194L362.033 133.187L360.286 134.195L362.031 135.203ZM407.419 135.191L409.165 134.183L407.42 133.176L405.674 134.184L407.419 135.191ZM316.665 106.996L314.919 108.004L316.663 109.012L318.41 108.003L316.665 106.996ZM362.051 109L363.797 107.992L362.052 106.985L360.306 107.993L362.051 109ZM407.496 30.3829L409.243 29.3747L407.498 28.3673L405.752 29.3755L407.496 30.3829ZM498.252 56.5625L499.998 55.5543L498.253 54.547L496.507 55.5552L498.252 56.5625ZM452.885 28.3561L451.139 29.3643L452.884 30.3716L454.63 29.3634L452.885 28.3561ZM362.09 56.5962L363.836 55.588L362.091 54.5807L360.345 55.5889L362.09 56.5962ZM452.864 56.5738L454.611 55.5656L452.866 54.5582L451.119 55.5664L452.864 56.5738ZM498.232 82.7647L499.979 81.7564L498.234 80.7491L496.487 81.7573L498.232 82.7647ZM452.845 82.7759L454.591 81.7677L452.846 80.7603L451.1 81.7685L452.845 82.7759ZM407.477 56.585L409.223 55.5768L407.479 54.5695L405.732 55.5776L407.477 56.585ZM362.109 30.3941L363.856 29.3859L362.111 28.3786L360.364 29.3868L362.109 30.3941ZM407.517 2.6691L404.027 0.654418L403.154 1.15852L406.644 3.17321L403.151 5.18961L404.023 5.69328L407.516 3.67688L411.006 5.69156L411.879 5.18746L408.39 3.17277L411.882 1.15637L411.01 0.652695L407.517 2.6691ZM267.807 79.2945L266.934 79.7986L270.423 81.8132L266.931 83.8297L267.803 84.3333L271.296 82.3169L274.786 84.3316L275.659 83.8275L272.169 81.8128L275.662 79.7964L274.79 79.2927L271.297 81.3091L267.807 79.2945ZM271.101 344.842L272.847 343.834L271.103 342.826L269.356 343.835L271.101 344.842ZM180.365 292.46L182.112 291.452L180.367 290.445L178.62 291.453L180.365 292.46ZM316.488 344.831L318.235 343.823L316.49 342.815L314.743 343.823L316.488 344.831ZM225.733 318.651L227.48 317.643L225.735 316.636L223.988 317.644L225.733 318.651ZM271.12 318.64L272.867 317.632L271.122 316.624L269.376 317.632L271.12 318.64ZM180.346 318.662L182.092 317.654L180.347 316.647L178.601 317.655L180.346 318.662ZM225.694 371.055L227.441 370.047L225.696 369.04L223.949 370.048L225.694 371.055ZM271.082 371.044L272.828 370.036L271.083 369.029L269.337 370.037L271.082 371.044ZM180.328 342.849L178.581 343.857L180.326 344.864L182.073 343.856L180.328 342.849ZM225.714 344.853L227.46 343.845L225.715 342.838L223.969 343.846L225.714 344.853ZM271.159 266.236L272.906 265.227L271.161 264.22L269.414 265.228L271.159 266.236ZM225.753 292.449L227.499 291.441L225.754 290.433L224.008 291.442L225.753 292.449ZM316.527 292.426L318.274 291.418L316.529 290.411L314.782 291.419L316.527 292.426ZM361.895 318.617L363.642 317.609L361.897 316.602L360.15 317.61L361.895 318.617ZM316.508 318.629L318.254 317.62L316.509 316.613L314.763 317.621L316.508 318.629ZM271.14 292.438L272.886 291.43L271.141 290.422L269.395 291.43L271.14 292.438ZM225.772 266.247L227.518 265.239L225.774 264.231L224.027 265.239L225.772 266.247ZM131.47 315.147L130.597 315.651L134.086 317.666L130.594 319.682L131.466 320.186L134.959 318.17L138.449 320.184L139.322 319.68L135.832 317.666L139.325 315.649L138.452 315.145L134.96 317.162L131.47 315.147ZM407.321 266.202L409.068 265.194L407.323 264.186L405.577 265.195L407.321 266.202ZM316.586 213.82L318.332 212.812L316.587 211.805L314.841 212.813L316.586 213.82ZM452.709 266.191L454.455 265.182L452.71 264.175L450.964 265.183L452.709 266.191ZM361.954 240.011L363.7 239.003L361.955 237.995L360.209 239.004L361.954 240.011ZM407.341 240L409.087 238.992L407.342 237.984L405.596 238.992L407.341 240ZM316.566 240.022L318.313 239.014L316.568 238.007L314.821 239.015L316.566 240.022ZM361.915 292.415L363.661 291.407L361.916 290.4L360.17 291.408L361.915 292.415ZM407.302 292.404L409.048 291.396L407.303 290.388L405.557 291.397L407.302 292.404ZM316.548 264.209L314.802 265.217L316.547 266.224L318.293 265.216L316.548 264.209ZM361.934 266.213L363.68 265.205L361.936 264.198L360.189 265.206L361.934 266.213ZM407.38 187.596L409.126 186.587L407.381 185.58L405.635 186.588L407.38 187.596ZM361.973 213.809L363.719 212.801L361.974 211.793L360.228 212.802L361.973 213.809ZM452.748 213.786L454.494 212.778L452.749 211.771L451.003 212.779L452.748 213.786ZM498.116 239.977L499.862 238.969L498.117 237.962L496.371 238.97L498.116 239.977ZM452.728 239.989L454.475 238.98L452.73 237.973L450.983 238.981L452.728 239.989ZM407.36 213.798L409.107 212.789L407.362 211.782L405.615 212.79L407.36 213.798ZM361.992 187.607L363.739 186.599L361.994 185.591L360.248 186.599L361.992 187.607ZM267.69 236.507L266.817 237.011L270.307 239.026L266.814 241.042L267.686 241.546L271.179 239.53L274.669 241.544L275.542 241.04L272.052 239.025L275.545 237.009L274.673 236.505L271.18 238.522L267.69 236.507ZM543.542 187.562L545.288 186.554L543.543 185.546L541.797 186.555L543.542 187.562ZM452.806 135.18L454.552 134.172L452.808 133.165L451.061 134.173L452.806 135.18ZM588.929 187.551L590.676 186.542L588.931 185.535L587.184 186.543L588.929 187.551ZM498.174 161.371L499.92 160.363L498.175 159.355L496.429 160.364L498.174 161.371ZM543.561 161.36L545.308 160.352L543.563 159.344L541.816 160.352L543.561 161.36ZM452.787 161.382L454.533 160.374L452.788 159.367L451.042 160.375L452.787 161.382ZM498.135 213.775L499.881 212.767L498.137 211.76L496.39 212.768L498.135 213.775ZM543.522 213.764L545.269 212.756L543.524 211.748L541.777 212.757L543.522 213.764ZM452.769 185.569L451.022 186.577L452.767 187.584L454.514 186.576L452.769 185.569ZM498.154 187.573L499.901 186.565L498.156 185.558L496.41 186.566L498.154 187.573ZM543.6 108.956L545.347 107.947L543.602 106.94L541.855 107.948L543.6 108.956ZM634.355 135.135L636.102 134.127L634.357 133.12L632.61 134.128L634.355 135.135ZM588.989 106.929L587.243 107.937L588.988 108.944L590.734 107.936L588.989 106.929ZM498.193 135.169L499.94 134.161L498.195 133.153L496.448 134.162L498.193 135.169ZM588.968 135.146L590.714 134.138L588.97 133.131L587.223 134.139L588.968 135.146ZM634.336 161.337L636.082 160.329L634.337 159.322L632.591 160.33L634.336 161.337ZM588.949 161.349L590.695 160.34L588.95 159.333L587.204 160.341L588.949 161.349ZM543.581 135.158L545.327 134.149L543.582 133.142L541.836 134.15L543.581 135.158ZM498.213 108.967L499.959 107.959L498.214 106.951L496.468 107.959L498.213 108.967ZM540.131 79.2271L539.258 79.7312L542.748 81.7459L539.255 83.7623L540.127 84.2659L543.62 82.2495L547.11 84.2642L547.983 83.7601L544.493 81.7454L547.986 79.729L547.114 79.2254L543.621 81.2418L540.131 79.2271ZM403.911 157.867L403.037 158.371L406.527 160.386L403.034 162.402L403.907 162.906L407.4 160.89L410.889 162.904L411.763 162.4L408.273 160.385L411.766 158.369L410.893 157.865L407.4 159.882L403.911 157.867ZM452.573 449.605L454.319 448.597L452.574 447.59L450.828 448.598L452.573 449.605ZM407.205 423.415L408.951 422.406L407.206 421.399L405.46 422.407L407.205 423.415ZM316.469 371.033L318.215 370.025L316.47 369.017L314.724 370.025L316.469 371.033ZM452.592 423.403L454.338 422.395L452.594 421.388L450.847 422.396L452.592 423.403ZM361.837 397.224L363.583 396.216L361.838 395.208L360.092 396.216L361.837 397.224ZM407.224 397.212L408.971 396.204L407.226 395.197L405.479 396.205L407.224 397.212ZM316.449 397.235L318.196 396.227L316.451 395.219L314.705 396.228L316.449 397.235ZM361.798 449.628L363.544 448.62L361.799 447.612L360.053 448.621L361.798 449.628ZM407.185 449.617L408.932 448.609L407.187 447.601L405.44 448.609L407.185 449.617ZM316.432 421.422L314.685 422.43L316.43 423.437L318.176 422.429L316.432 421.422ZM361.817 423.426L363.564 422.418L361.819 421.41L360.072 422.418L361.817 423.426ZM407.263 344.808L409.009 343.8L407.265 342.793L405.518 343.801L407.263 344.808ZM361.856 371.022L363.603 370.013L361.858 369.006L360.111 370.014L361.856 371.022ZM452.631 370.999L454.377 369.991L452.632 368.984L450.886 369.992L452.631 370.999ZM497.999 397.19L499.745 396.182L498 395.174L496.254 396.183L497.999 397.19ZM497.979 423.392L499.726 422.384L497.981 421.377L496.234 422.385L497.979 423.392ZM452.612 397.201L454.358 396.193L452.613 395.186L450.867 396.194L452.612 397.201ZM407.244 371.01L408.99 370.002L407.245 368.995L405.499 370.003L407.244 371.01ZM361.876 344.819L363.622 343.811L361.877 342.804L360.131 343.812L361.876 344.819ZM267.573 393.72L266.7 394.224L270.19 396.239L266.697 398.255L267.57 398.759L271.063 396.742L274.552 398.757L275.426 398.253L271.936 396.238L275.429 394.222L274.556 393.718L271.063 395.735L267.573 393.72ZM403.677 472.292L402.804 472.797L406.294 474.811L402.801 476.828L403.673 477.331L407.166 475.315L410.656 477.33L411.529 476.826L408.039 474.811L411.532 472.794L410.66 472.291L407.167 474.307L403.677 472.292ZM588.793 370.965L590.539 369.957L588.795 368.95L587.048 369.958L588.793 370.965ZM543.425 344.775L545.172 343.766L543.427 342.759L541.68 343.767L543.425 344.775ZM452.689 292.393L454.436 291.385L452.691 290.377L450.944 291.385L452.689 292.393ZM588.812 344.763L590.559 343.755L588.814 342.748L587.068 343.756L588.812 344.763ZM498.057 318.584L499.804 317.575L498.059 316.568L496.312 317.576L498.057 318.584ZM543.445 318.572L545.191 317.564L543.446 316.557L541.7 317.565L543.445 318.572ZM452.67 318.595L454.416 317.587L452.671 316.579L450.925 317.588L452.67 318.595ZM498.018 370.988L499.765 369.98L498.02 368.972L496.273 369.981L498.018 370.988ZM543.406 370.977L545.152 369.968L543.407 368.961L541.661 369.969L543.406 370.977ZM452.652 342.781L450.905 343.79L452.65 344.797L454.397 343.789L452.652 342.781ZM498.038 344.786L499.784 343.778L498.039 342.77L496.293 343.778L498.038 344.786ZM543.483 266.168L545.23 265.16L543.485 264.153L541.739 265.161L543.483 266.168ZM498.077 292.382L499.823 291.373L498.078 290.366L496.332 291.374L498.077 292.382ZM588.851 292.359L590.598 291.351L588.853 290.344L587.106 291.352L588.851 292.359ZM634.219 318.55L635.966 317.542L634.221 316.534L632.474 317.543L634.219 318.55ZM634.2 344.752L635.946 343.744L634.201 342.737L632.455 343.745L634.2 344.752ZM588.832 318.561L590.578 317.553L588.833 316.546L587.087 317.554L588.832 318.561ZM543.464 292.37L545.21 291.362L543.465 290.355L541.719 291.363L543.464 292.37ZM498.096 266.179L499.843 265.171L498.098 264.164L496.351 265.172L498.096 266.179ZM403.794 315.08L402.921 315.584L406.41 317.599L402.918 319.615L403.79 320.119L407.283 318.102L410.773 320.117L411.646 319.613L408.156 317.598L411.649 315.582L410.776 315.078L407.284 317.094L403.794 315.08ZM539.897 393.652L539.024 394.157L542.514 396.171L539.021 398.188L539.894 398.691L543.387 396.675L546.876 398.69L547.75 398.186L544.26 396.171L547.753 394.154L546.88 393.651L543.387 395.667L539.897 393.652ZM725.013 292.325L726.76 291.317L725.015 290.31L723.268 291.318L725.013 292.325ZM679.645 266.135L681.392 265.126L679.647 264.119L677.901 265.127L679.645 266.135ZM588.91 213.753L590.656 212.745L588.911 211.737L587.165 212.745L588.91 213.753ZM725.033 266.123L726.779 265.115L725.034 264.108L723.288 265.116L725.033 266.123ZM634.278 239.944L636.024 238.935L634.279 237.928L632.533 238.936L634.278 239.944ZM679.665 239.932L681.411 238.924L679.666 237.917L677.92 238.925L679.665 239.932ZM588.89 239.955L590.637 238.947L588.892 237.939L587.145 238.948L588.89 239.955ZM634.239 292.348L635.985 291.34L634.24 290.332L632.494 291.341L634.239 292.348ZM679.626 292.337L681.372 291.328L679.628 290.321L677.881 291.329L679.626 292.337ZM588.872 264.141L587.126 265.15L588.871 266.157L590.617 265.149L588.872 264.141ZM634.258 266.146L636.005 265.138L634.26 264.13L632.513 265.138L634.258 266.146ZM679.704 187.528L681.45 186.52L679.705 185.513L677.959 186.521L679.704 187.528ZM770.459 213.708L772.205 212.7L770.461 211.692L768.714 212.701L770.459 213.708ZM725.093 185.501L723.346 186.51L725.091 187.517L726.838 186.509L725.093 185.501ZM634.297 213.742L636.043 212.733L634.299 211.726L632.552 212.734L634.297 213.742ZM725.072 213.719L726.818 212.711L725.073 211.704L723.327 212.712L725.072 213.719ZM770.44 239.91L772.186 238.902L770.441 237.894L768.695 238.903L770.44 239.91ZM770.42 266.112L772.167 265.104L770.422 264.097L768.675 265.105L770.42 266.112ZM725.052 239.921L726.799 238.913L725.054 237.906L723.307 238.914L725.052 239.921ZM679.684 213.73L681.431 212.722L679.686 211.715L677.939 212.723L679.684 213.73ZM634.317 187.539L636.063 186.531L634.318 185.524L632.572 186.532L634.317 187.539ZM812.338 236.372L811.465 236.877L814.955 238.891L811.462 240.908L812.335 241.411L815.827 239.395L819.317 241.41L820.19 240.905L816.701 238.891L820.193 236.874L819.321 236.371L815.828 238.387L812.338 236.372ZM676.235 157.8L675.361 158.304L678.851 160.319L675.358 162.335L676.231 162.839L679.724 160.822L683.214 162.837L684.087 162.333L680.597 160.318L684.09 158.302L683.217 157.798L679.724 159.814L676.235 157.8ZM540.014 236.44L539.141 236.944L542.631 238.959L539.138 240.975L540.01 241.479L543.503 239.462L546.993 241.477L547.866 240.973L544.376 238.958L547.869 236.942L546.997 236.438L543.504 238.454L540.014 236.44ZM676.118 315.012L675.245 315.517L678.734 317.531L675.242 319.548L676.114 320.051L679.607 318.035L683.097 320.05L683.97 319.545L680.48 317.531L683.973 315.514L683.101 315.011L679.608 317.027L676.118 315.012Z" fill="#8F90A6"/>
</g>
</g>
<path d="M281.237 330.158L341.7 295.252L363.843 308.035L389.308 293.335L367.165 280.551L382.788 271.532L361.444 259.211L345.821 268.23L263.338 220.612L230 239.858L260.262 318.049L281.237 330.158ZM320.849 282.646L286.711 302.354L285.727 301.786L266.413 252.357L267.397 251.789L320.849 282.646Z" fill="url(#paint1_linear)"/>
<path d="M474.836 247.155C506.513 228.868 501.531 203.905 460.074 179.901C418.924 156.074 375.93 153.624 344.376 171.841C312.76 190.092 317.127 214.771 358.338 238.633C399.611 262.602 443.036 265.442 474.836 247.155ZM452.754 234.407C438.3 242.752 414.434 239.769 385.464 222.974C356.923 206.426 351.818 192.755 366.211 184.446C380.543 176.173 404.285 179.084 432.887 195.596C461.981 212.321 467.147 226.098 452.754 234.407Z" fill="url(#paint2_linear)"/>
<path d="M517.877 193.545L578.34 158.64L600.483 171.423L625.948 156.723L603.805 143.939L619.428 134.92L598.084 122.598L582.461 131.618L499.978 84L466.64 103.246L496.902 181.437L517.877 193.545ZM557.488 146.034L523.351 165.742L522.367 165.174L503.053 115.745L504.037 115.177L557.488 146.034Z" fill="url(#paint3_linear)"/>
<circle opacity="0.25" r="81.1273" transform="matrix(0.866044 -0.499967 0.866044 0.499967 214.953 192.372)" fill="#E3FFF1" stroke="#57EBA1" stroke-width="0.5"/>
<circle opacity="0.5" r="63.6616" transform="matrix(0.866044 -0.499967 0.866044 0.499967 214.63 189.076)" fill="#E3FFF1" stroke="#57EBA1" stroke-width="0.5"/>
<circle opacity="0.75" r="45.2553" transform="matrix(0.866044 -0.499967 0.866044 0.499967 214.977 189.076)" fill="#E3FFF1" stroke="#57EBA1" stroke-width="0.5"/>
<circle r="28.7934" transform="matrix(0.866044 -0.499967 0.866044 0.499967 214.718 189.076)" fill="#E3FFF1" stroke="#57EBA1" stroke-width="0.5"/>
<circle opacity="0.25" r="54.2536" transform="matrix(0.866044 -0.499967 0.866044 0.499967 598.405 89.5)" fill="#E3FFF1" stroke="#57EBA1" stroke-width="0.5"/>
<circle opacity="0.5" r="42.5557" transform="matrix(0.866044 -0.499967 0.866044 0.499967 598.19 87.2924)" fill="#E3FFF1" stroke="#57EBA1" stroke-width="0.5"/>
<circle opacity="0.75" r="30.2278" transform="matrix(0.866044 -0.499967 0.866044 0.499967 598.421 87.2924)" fill="#E3FFF1" stroke="#57EBA1" stroke-width="0.5"/>
<circle r="19.2022" transform="matrix(0.866044 -0.499968 0.866044 0.499968 598.248 87.2924)" fill="#E3FFF1" stroke="#57EBA1" stroke-width="0.5"/>
<path d="M266.237 283.158L326.7 248.252L348.843 261.035L374.308 246.335L352.165 233.551L367.788 224.532L346.444 212.211L330.821 221.23L248.338 173.612L215 192.858L245.262 271.049L266.237 283.158ZM305.849 235.646L271.711 255.354L270.727 254.786L251.413 205.357L252.397 204.789L305.849 235.646Z" fill="#376C66"/>
<path d="M459.836 200.155C491.513 181.868 486.531 156.905 445.074 132.901C403.924 109.074 360.93 106.624 329.376 124.841C297.76 143.092 302.127 167.771 343.338 191.633C384.611 215.602 428.036 218.442 459.836 200.155ZM437.754 187.407C423.3 195.752 399.434 192.769 370.464 175.974C341.923 159.426 336.818 145.755 351.211 137.446C365.543 129.173 389.285 132.084 417.887 148.596C446.981 165.321 452.147 179.098 437.754 187.407Z" fill="#376C66"/>
<path d="M502.877 146.545L563.34 111.64L585.483 124.423L610.948 109.723L588.805 96.9393L604.428 87.92L583.084 75.5983L567.461 84.6176L484.978 37L451.64 56.2459L481.902 134.437L502.877 146.545ZM542.488 99.0343L508.351 118.742L507.367 118.174L488.053 68.7451L489.037 68.1769L542.488 99.0343Z" fill="#376C66"/>
<path d="M266.237 281.158L326.7 246.252L348.843 259.035L374.308 244.335L352.165 231.551L367.788 222.532L346.444 210.211L330.821 219.23L248.338 171.612L215 190.858L245.262 269.049L266.237 281.158ZM305.849 233.646L271.711 253.354L270.727 252.786L251.413 203.357L252.397 202.789L305.849 233.646Z" fill="#3BC882"/>
<path d="M459.836 198.155C491.513 179.868 486.531 154.905 445.074 130.901C403.924 107.074 360.93 104.624 329.376 122.841C297.76 141.092 302.127 165.771 343.338 189.633C384.611 213.602 428.036 216.442 459.836 198.155ZM437.754 185.407C423.3 193.752 399.434 190.769 370.464 173.974C341.923 157.426 336.818 143.755 351.211 135.446C365.543 127.173 389.285 130.084 417.887 146.596C446.981 163.321 452.147 177.098 437.754 185.407Z" fill="#3BC882"/>
<path d="M502.877 144.545L563.34 109.64L585.483 122.423L610.948 107.723L588.805 94.9393L604.428 85.92L583.084 73.5983L567.461 82.6176L484.978 35L451.64 54.2459L481.902 132.437L502.877 144.545ZM542.488 97.0343L508.351 116.742L507.367 116.174L488.053 66.7451L489.037 66.1769L542.488 97.0343Z" fill="#3BC882"/>
<path d="M266.237 278.158L326.7 243.252L348.843 256.035L374.308 241.335L352.165 228.551L367.788 219.532L346.444 207.211L330.821 216.23L248.338 168.612L215 187.858L245.262 266.049L266.237 278.158ZM305.849 230.646L271.711 250.354L270.727 249.786L251.413 200.357L252.397 199.789L305.849 230.646Z" fill="#57EBA1"/>
<path d="M459.836 195.155C491.513 176.868 486.531 151.905 445.074 127.901C403.924 104.074 360.93 101.624 329.376 119.841C297.76 138.092 302.127 162.771 343.338 186.633C384.611 210.602 428.036 213.442 459.836 195.155ZM437.754 182.407C423.3 190.752 399.434 187.769 370.464 170.974C341.923 154.426 336.818 140.755 351.211 132.446C365.543 124.173 389.285 127.084 417.887 143.596C446.981 160.321 452.147 174.098 437.754 182.407Z" fill="#57EBA1"/>
<path d="M502.877 141.545L563.34 106.64L585.483 119.423L610.948 104.723L588.805 91.9393L604.428 82.92L583.084 70.5983L567.461 79.6176L484.978 32L451.64 51.2459L481.902 129.437L502.877 141.545ZM542.488 94.0343L508.351 113.742L507.367 113.174L488.053 63.7451L489.037 63.1769L542.488 94.0343Z" fill="#57EBA1"/>
<defs>
<radialGradient id="paint0_radial" cx="0" cy="0" r="1" gradientUnits="userSpaceOnUse" gradientTransform="translate(200.691 307.824) rotate(85.9309) scale(273.279 206.549)">
<stop stop-color="#C4C4C4"/>
<stop offset="1" stop-color="#C4C4C4" stop-opacity="0"/>
</radialGradient>
<linearGradient id="paint1_linear" x1="634.747" y1="199.77" x2="461.358" y2="471.694" gradientUnits="userSpaceOnUse">
<stop stop-color="#28293D"/>
<stop offset="1" stop-color="#577CA4"/>
</linearGradient>
<linearGradient id="paint2_linear" x1="634.747" y1="199.77" x2="461.358" y2="471.694" gradientUnits="userSpaceOnUse">
<stop stop-color="#28293D"/>
<stop offset="1" stop-color="#577CA4"/>
</linearGradient>
<linearGradient id="paint3_linear" x1="634.747" y1="199.77" x2="461.358" y2="471.694" gradientUnits="userSpaceOnUse">
<stop stop-color="#28293D"/>
<stop offset="1" stop-color="#577CA4"/>
</linearGradient>
</defs>
</svg>
