<svg width="800" height="464" viewBox="0 0 800 464" fill="none" xmlns="http://www.w3.org/2000/svg">
<g opacity="0.45">
<mask id="mask0" mask-type="alpha" maskUnits="userSpaceOnUse" x="119" y="68" width="577" height="334">
<circle r="235.199" transform="matrix(0.866044 -0.499967 0.866044 0.499967 407.386 235.184)" fill="url(#paint0_radial)"/>
</mask>
<g mask="url(#mask0)">
<path opacity="0.15" d="M452.573 445.102L453.446 444.598L497.98 418.889L498.853 418.385L543.386 392.676L544.26 392.171L588.793 366.462L589.666 365.958L634.2 340.249L635.073 339.745L679.607 314.036L680.48 313.531L725.014 287.822L725.887 287.318L770.42 261.609L771.294 261.105L815.827 235.395L816.701 234.891L815.828 234.388L771.333 208.7L770.46 208.197L725.965 182.51L725.092 182.006L680.597 156.319L679.724 155.815L635.229 130.128L634.356 129.624L589.861 103.937L588.989 103.433L544.493 77.746L543.621 77.2423L499.125 51.5551L498.253 51.0515L453.757 25.3642L452.885 24.8606L408.389 -0.826657L407.517 -1.33033L406.644 -0.826222L271.296 77.3097L270.423 77.8138L135.076 155.95L134.203 156.454L-2.01758 235.094L134.086 313.667L134.959 314.17L270.19 392.239L271.062 392.743L406.294 470.812L407.166 471.316L408.039 470.812L452.573 445.102ZM362.983 25.3867L407.516 -0.322551L452.012 25.3647L407.478 51.0739L362.983 25.3867ZM408.35 51.5776L452.884 25.8683L497.379 51.5556L452.846 77.2648L408.35 51.5776ZM453.718 77.7685L498.252 52.0592L542.747 77.7465L498.214 103.456L453.718 77.7685ZM499.086 103.959L543.62 78.2501L588.115 103.937L543.582 129.647L499.086 103.959ZM544.454 130.15L588.988 104.441L633.483 130.128L588.95 155.837L544.454 130.15ZM589.822 156.341L634.356 130.632L678.851 156.319L634.318 182.028L589.822 156.341ZM635.19 182.532L679.724 156.823L724.219 182.51L679.685 208.219L635.19 182.532ZM680.558 208.723L725.091 183.014L769.587 208.701L725.053 234.41L680.558 208.723ZM725.926 234.914L770.459 209.205L814.955 234.892L770.421 260.601L725.926 234.914ZM317.576 51.6L362.109 25.8908L406.605 51.578L362.071 77.2873L317.576 51.6ZM362.944 77.7909L407.477 52.0817L451.973 77.7689L407.439 103.478L362.944 77.7909ZM408.312 103.982L452.845 78.2726L497.341 103.96L452.807 129.669L408.312 103.982ZM453.679 130.173L498.213 104.463L542.709 130.151L498.175 155.86L453.679 130.173ZM499.047 156.364L543.581 130.654L588.076 156.342L543.543 182.051L499.047 156.364ZM544.415 182.554L588.949 156.845L633.444 182.532L588.911 208.242L544.415 182.554ZM589.783 208.745L634.317 183.036L678.812 208.723L634.279 234.433L589.783 208.745ZM635.151 234.936L679.685 209.227L724.18 234.914L679.647 260.623L635.151 234.936ZM680.519 261.127L725.053 235.418L769.548 261.105L725.014 286.814L680.519 261.127ZM272.169 77.8134L316.703 52.1041L361.198 77.7914L316.664 103.501L272.169 77.8134ZM317.537 104.004L362.07 78.295L406.566 103.982L362.032 129.692L317.537 104.004ZM362.905 130.195L407.438 104.486L451.934 130.173L407.4 155.882L362.905 130.195ZM408.273 156.386L452.806 130.677L497.302 156.364L452.768 182.073L408.273 156.386ZM453.641 182.577L498.174 156.868L542.67 182.555L498.136 208.264L453.641 182.577ZM499.008 208.768L543.542 183.059L588.038 208.746L543.504 234.455L499.008 208.768ZM544.376 234.959L588.91 209.249L633.405 234.937L588.872 260.646L544.376 234.959ZM589.744 261.15L634.278 235.44L678.773 261.128L634.24 286.837L589.744 261.15ZM635.112 287.341L679.646 261.631L724.141 287.318L679.608 313.028L635.112 287.341ZM226.762 104.027L271.296 78.3175L315.791 104.005L271.258 129.714L226.762 104.027ZM272.13 130.218L316.664 104.508L361.159 130.196L316.625 155.905L272.13 130.218ZM317.498 156.409L362.032 130.699L406.527 156.386L361.993 182.096L317.498 156.409ZM362.866 182.599L407.399 156.89L451.895 182.577L407.361 208.287L362.866 182.599ZM408.234 208.79L452.767 183.081L497.263 208.768L452.729 234.478L408.234 208.79ZM453.602 234.981L498.135 209.272L542.631 234.959L498.097 260.668L453.602 234.981ZM498.97 261.172L543.503 235.463L587.999 261.15L543.465 286.859L498.97 261.172ZM544.337 287.363L588.871 261.654L633.367 287.341L588.833 313.05L544.337 287.363ZM589.705 313.554L634.239 287.845L678.734 313.532L634.201 339.241L589.705 313.554ZM181.355 130.24L225.889 104.531L270.384 130.218L225.851 155.927L181.355 130.24ZM226.723 156.431L271.257 130.722L315.752 156.409L271.219 182.118L226.723 156.431ZM272.091 182.622L316.625 156.913L361.12 182.6L316.587 208.309L272.091 182.622ZM317.459 208.813L361.993 183.104L406.488 208.791L361.954 234.5L317.459 208.813ZM362.827 235.004L407.361 209.294L451.856 234.982L407.322 260.691L362.827 235.004ZM408.195 261.195L452.728 235.485L497.224 261.173L452.69 286.882L408.195 261.195ZM453.563 287.385L498.096 261.676L542.592 287.363L498.058 313.073L453.563 287.385ZM498.931 313.576L543.464 287.867L587.96 313.554L543.426 339.264L498.931 313.576ZM544.299 339.767L588.832 314.058L633.328 339.745L588.794 365.454L544.299 339.767ZM135.949 156.453L180.482 130.744L224.978 156.431L180.444 182.141L135.949 156.453ZM181.316 182.644L225.85 156.935L270.345 182.622L225.812 208.332L181.316 182.644ZM226.684 208.835L271.218 183.126L315.713 208.813L271.18 234.522L226.684 208.835ZM272.052 235.026L316.586 209.317L361.081 235.004L316.548 260.713L272.052 235.026ZM317.42 261.217L361.954 235.508L406.449 261.195L361.916 286.904L317.42 261.217ZM362.788 287.408L407.322 261.699L451.817 287.386L407.283 313.095L362.788 287.408ZM408.156 313.599L452.69 287.89L497.185 313.577L452.651 339.286L408.156 313.599ZM453.524 339.79L498.057 314.08L542.553 339.768L498.019 365.477L453.524 339.79ZM498.892 365.981L543.425 340.271L587.921 365.959L543.387 391.668L498.892 365.981ZM90.5417 182.667L135.075 156.958L179.571 182.645L135.037 208.354L90.5417 182.667ZM135.91 208.858L180.443 183.148L224.939 208.836L180.405 234.545L135.91 208.858ZM181.278 235.049L225.811 209.339L270.307 235.027L225.773 260.736L181.278 235.049ZM226.645 261.239L271.179 235.53L315.674 261.217L271.141 286.927L226.645 261.239ZM272.013 287.43L316.547 261.721L361.042 287.408L316.509 313.118L272.013 287.43ZM317.381 313.621L361.915 287.912L406.41 313.599L361.877 339.308L317.381 313.621ZM362.749 339.812L407.283 314.103L451.778 339.79L407.245 365.499L362.749 339.812ZM408.117 366.003L452.651 340.294L497.146 365.981L452.612 391.69L408.117 366.003ZM453.485 392.194L498.019 366.485L542.514 392.172L497.98 417.881L453.485 392.194ZM45.1349 208.88L89.6685 183.171L134.164 208.858L89.6303 234.567L45.1349 208.88ZM90.5028 235.071L135.036 209.362L179.532 235.049L134.998 260.758L90.5028 235.071ZM135.871 261.262L180.404 235.553L224.9 261.24L180.366 286.949L135.871 261.262ZM181.239 287.453L225.772 261.744L270.268 287.431L225.734 313.14L181.239 287.453ZM226.607 313.644L271.14 287.934L315.636 313.622L271.102 339.331L226.607 313.644ZM271.974 339.835L316.508 314.125L361.003 339.813L316.47 365.522L271.974 339.835ZM317.342 366.025L361.876 340.316L406.371 366.003L361.838 391.713L317.342 366.025ZM362.71 392.216L407.244 366.507L451.739 392.194L407.206 417.904L362.71 392.216ZM408.078 418.407L452.612 392.698L497.107 418.385L452.574 444.094L408.078 418.407ZM-0.271911 235.093L44.2617 209.384L88.7571 235.071L44.2235 260.781L-0.271911 235.093ZM45.096 261.284L89.6296 235.575L134.125 261.262L89.5914 286.972L45.096 261.284ZM90.4639 287.475L134.998 261.766L179.493 287.453L134.959 313.162L90.4639 287.475ZM135.832 313.666L180.365 287.957L224.861 313.644L180.327 339.353L135.832 313.666ZM181.2 339.857L225.733 314.148L270.229 339.835L225.695 365.544L181.2 339.857ZM226.568 366.048L271.101 340.339L315.597 366.026L271.063 391.735L226.568 366.048ZM271.936 392.239L316.469 366.53L360.965 392.217L316.431 417.926L271.936 392.239ZM317.303 418.43L361.837 392.72L406.332 418.408L361.799 444.117L317.303 418.43ZM362.671 444.621L407.205 418.911L451.7 444.599L407.167 470.308L362.671 444.621Z" fill="#8F90A6"/>
<path d="M133.252 261.262L134.999 260.254L136.744 261.261L134.997 262.269L133.252 261.262ZM44.2616 209.888L46.008 208.879L44.263 207.872L42.5166 208.88L44.2616 209.888ZM180.385 262.258L182.131 261.25L180.386 260.243L178.64 261.251L180.385 262.258ZM89.6294 236.078L91.3759 235.07L89.6309 234.063L87.8845 235.071L89.6294 236.078ZM135.017 236.067L136.763 235.059L135.018 234.052L133.272 235.06L135.017 236.067ZM44.2421 236.09L45.9885 235.081L44.2436 234.074L42.4972 235.082L44.2421 236.09ZM89.5905 288.483L91.337 287.474L89.592 286.467L87.8456 287.475L89.5905 288.483ZM134.978 288.471L136.724 287.463L134.979 286.456L133.233 287.464L134.978 288.471ZM44.2241 260.276L42.4777 261.284L44.2226 262.292L45.9691 261.284L44.2241 260.276ZM89.61 262.281L91.3564 261.272L89.6115 260.265L87.8651 261.273L89.61 262.281ZM135.056 183.663L136.802 182.655L135.057 181.647L133.311 182.656L135.056 183.663ZM89.6489 209.876L91.3953 208.868L89.6504 207.861L87.904 208.869L89.6489 209.876ZM180.424 209.854L182.17 208.846L180.425 207.838L178.679 208.847L180.424 209.854ZM225.791 236.045L227.538 235.037L225.793 234.029L224.047 235.037L225.791 236.045ZM180.404 236.056L182.151 235.048L180.406 234.04L178.659 235.049L180.404 236.056ZM135.036 209.865L136.783 208.857L135.038 207.85L133.291 208.858L135.036 209.865ZM89.6683 183.674L91.4148 182.666L89.6698 181.659L87.9234 182.667L89.6683 183.674ZM-4.63396 232.575L-5.50717 233.079L-2.01733 235.093L-5.51016 237.11L-4.6377 237.613L-1.14487 235.597L2.34497 237.612L3.21817 237.108L-0.271664 235.093L3.22117 233.076L2.34871 232.573L-1.14412 234.589L-4.63396 232.575ZM271.218 183.629L272.964 182.621L271.219 181.614L269.473 182.622L271.218 183.629ZM180.482 131.248L182.228 130.239L180.483 129.232L178.737 130.24L180.482 131.248ZM316.605 183.618L318.351 182.61L316.607 181.603L314.86 182.611L316.605 183.618ZM225.85 157.438L227.596 156.43L225.851 155.423L224.105 156.431L225.85 157.438ZM271.237 157.427L272.984 156.419L271.239 155.412L269.492 156.42L271.237 157.427ZM180.462 157.45L182.209 156.441L180.464 155.434L178.718 156.442L180.462 157.45ZM225.811 209.843L227.557 208.834L225.812 207.827L224.066 208.835L225.811 209.843ZM271.198 209.831L272.945 208.823L271.2 207.816L269.453 208.824L271.198 209.831ZM180.445 181.636L178.698 182.644L180.443 183.652L182.189 182.644L180.445 181.636ZM225.83 183.641L227.577 182.632L225.832 181.625L224.085 182.633L225.83 183.641ZM271.276 105.023L273.022 104.015L271.278 103.007L269.531 104.016L271.276 105.023ZM225.869 131.236L227.616 130.228L225.871 129.221L224.124 130.229L225.869 131.236ZM316.644 131.214L318.39 130.206L316.645 129.198L314.899 130.206L316.644 131.214ZM362.012 157.405L363.758 156.397L362.013 155.389L360.267 156.397L362.012 157.405ZM316.625 157.416L318.371 156.408L316.626 155.4L314.88 156.409L316.625 157.416ZM271.257 131.225L273.003 130.217L271.258 129.21L269.512 130.218L271.257 131.225ZM225.889 105.034L227.635 104.026L225.89 103.019L224.144 104.027L225.889 105.034ZM131.586 153.935L130.713 154.439L134.203 156.453L130.71 158.47L131.583 158.973L135.076 156.957L138.565 158.972L139.439 158.468L135.949 156.453L139.442 154.436L138.569 153.933L135.076 155.949L131.586 153.935ZM407.438 104.989L409.185 103.981L407.44 102.974L405.693 103.982L407.438 104.989ZM316.702 52.6075L318.449 51.5993L316.704 50.5919L314.957 51.6001L316.702 52.6075ZM452.825 104.978L454.572 103.97L452.827 102.962L451.081 103.971L452.825 104.978ZM362.07 78.7984L363.817 77.7902L362.072 76.7828L360.325 77.791L362.07 78.7984ZM407.458 78.7871L409.204 77.7789L407.459 76.7716L405.713 77.7798L407.458 78.7871ZM316.683 78.8096L318.429 77.8014L316.684 76.7941L314.938 77.8023L316.683 78.8096ZM362.031 131.203L363.778 130.194L362.033 129.187L360.286 130.195L362.031 131.203ZM407.419 131.191L409.165 130.183L407.42 129.176L405.674 130.184L407.419 131.191ZM316.665 102.996L314.919 104.004L316.663 105.012L318.41 104.004L316.665 102.996ZM362.051 105L363.797 103.992L362.052 102.985L360.306 103.993L362.051 105ZM407.496 26.3829L409.243 25.3747L407.498 24.3674L405.752 25.3756L407.496 26.3829ZM498.252 52.5626L499.998 51.5544L498.253 50.547L496.507 51.5552L498.252 52.5626ZM452.885 24.3561L451.139 25.3643L452.884 26.3717L454.63 25.3635L452.885 24.3561ZM362.09 52.5963L363.836 51.588L362.091 50.5807L360.345 51.5889L362.09 52.5963ZM452.864 52.5738L454.611 51.5656L452.866 50.5582L451.119 51.5665L452.864 52.5738ZM498.232 78.7647L499.979 77.7565L498.234 76.7491L496.487 77.7573L498.232 78.7647ZM452.845 78.7759L454.591 77.7677L452.846 76.7604L451.1 77.7686L452.845 78.7759ZM407.477 52.585L409.223 51.5768L407.479 50.5695L405.732 51.5777L407.477 52.585ZM362.109 26.3941L363.856 25.3859L362.111 24.3786L360.364 25.3868L362.109 26.3941ZM407.517 -1.33087L404.027 -3.34555L403.154 -2.84145L406.644 -0.826763L403.151 1.18964L404.023 1.69331L407.516 -0.323092L411.006 1.69159L411.879 1.18749L408.39 -0.827198L411.882 -2.8436L411.01 -3.34727L407.517 -1.33087ZM267.807 75.2945L266.934 75.7986L270.423 77.8133L266.931 79.8297L267.803 80.3334L271.296 78.3169L274.786 80.3316L275.659 79.8275L272.169 77.8128L275.662 75.7964L274.79 75.2927L271.297 77.3092L267.807 75.2945ZM271.101 340.842L272.847 339.834L271.103 338.826L269.356 339.835L271.101 340.842ZM180.365 288.46L182.112 287.452L180.367 286.445L178.62 287.453L180.365 288.46ZM316.488 340.831L318.235 339.823L316.49 338.815L314.743 339.823L316.488 340.831ZM225.733 314.651L227.48 313.643L225.735 312.636L223.988 313.644L225.733 314.651ZM271.12 314.64L272.867 313.632L271.122 312.624L269.376 313.633L271.12 314.64ZM180.346 314.662L182.092 313.654L180.347 312.647L178.601 313.655L180.346 314.662ZM225.694 367.055L227.441 366.047L225.696 365.04L223.949 366.048L225.694 367.055ZM271.082 367.044L272.828 366.036L271.083 365.029L269.337 366.037L271.082 367.044ZM180.328 338.849L178.581 339.857L180.326 340.864L182.073 339.856L180.328 338.849ZM225.714 340.853L227.46 339.845L225.715 338.838L223.969 339.846L225.714 340.853ZM271.159 262.236L272.906 261.227L271.161 260.22L269.414 261.228L271.159 262.236ZM225.753 288.449L227.499 287.441L225.754 286.433L224.008 287.442L225.753 288.449ZM316.527 288.427L318.274 287.418L316.529 286.411L314.782 287.419L316.527 288.427ZM361.895 314.617L363.642 313.609L361.897 312.602L360.15 313.61L361.895 314.617ZM316.508 314.629L318.254 313.62L316.509 312.613L314.763 313.621L316.508 314.629ZM271.14 288.438L272.886 287.43L271.141 286.422L269.395 287.43L271.14 288.438ZM225.772 262.247L227.518 261.239L225.774 260.231L224.027 261.24L225.772 262.247ZM131.47 311.147L130.597 311.651L134.086 313.666L130.594 315.682L131.466 316.186L134.959 314.17L138.449 316.184L139.322 315.68L135.832 313.666L139.325 311.649L138.452 311.145L134.96 313.162L131.47 311.147ZM407.321 262.202L409.068 261.194L407.323 260.186L405.577 261.195L407.321 262.202ZM316.586 209.82L318.332 208.812L316.587 207.805L314.841 208.813L316.586 209.82ZM452.709 262.191L454.455 261.183L452.71 260.175L450.964 261.183L452.709 262.191ZM361.954 236.011L363.7 235.003L361.955 233.996L360.209 235.004L361.954 236.011ZM407.341 236L409.087 234.992L407.342 233.984L405.596 234.992L407.341 236ZM316.566 236.022L318.313 235.014L316.568 234.007L314.821 235.015L316.566 236.022ZM361.915 288.415L363.661 287.407L361.916 286.4L360.17 287.408L361.915 288.415ZM407.302 288.404L409.048 287.396L407.303 286.389L405.557 287.397L407.302 288.404ZM316.548 260.209L314.802 261.217L316.547 262.224L318.293 261.216L316.548 260.209ZM361.934 262.213L363.68 261.205L361.936 260.198L360.189 261.206L361.934 262.213ZM407.38 183.596L409.126 182.587L407.381 181.58L405.635 182.588L407.38 183.596ZM361.973 209.809L363.719 208.801L361.974 207.793L360.228 208.802L361.973 209.809ZM452.748 209.786L454.494 208.778L452.749 207.771L451.003 208.779L452.748 209.786ZM498.116 235.977L499.862 234.969L498.117 233.962L496.371 234.97L498.116 235.977ZM452.728 235.989L454.475 234.98L452.73 233.973L450.983 234.981L452.728 235.989ZM407.36 209.798L409.107 208.79L407.362 207.782L405.615 208.79L407.36 209.798ZM361.992 183.607L363.739 182.599L361.994 181.591L360.248 182.599L361.992 183.607ZM267.69 232.507L266.817 233.011L270.307 235.026L266.814 237.042L267.686 237.546L271.179 235.53L274.669 237.544L275.542 237.04L272.052 235.026L275.545 233.009L274.673 232.505L271.18 234.522L267.69 232.507ZM543.542 183.562L545.288 182.554L543.543 181.546L541.797 182.555L543.542 183.562ZM452.806 131.18L454.552 130.172L452.808 129.165L451.061 130.173L452.806 131.18ZM588.929 183.551L590.676 182.542L588.931 181.535L587.184 182.543L588.929 183.551ZM498.174 157.371L499.92 156.363L498.175 155.355L496.429 156.364L498.174 157.371ZM543.561 157.36L545.308 156.352L543.563 155.344L541.816 156.352L543.561 157.36ZM452.787 157.382L454.533 156.374L452.788 155.367L451.042 156.375L452.787 157.382ZM498.135 209.775L499.881 208.767L498.137 207.76L496.39 208.768L498.135 209.775ZM543.522 209.764L545.269 208.756L543.524 207.748L541.777 208.757L543.522 209.764ZM452.769 181.569L451.022 182.577L452.767 183.584L454.514 182.576L452.769 181.569ZM498.154 183.573L499.901 182.565L498.156 181.558L496.41 182.566L498.154 183.573ZM543.6 104.956L545.347 103.947L543.602 102.94L541.855 103.948L543.6 104.956ZM634.355 131.135L636.102 130.127L634.357 129.12L632.61 130.128L634.355 131.135ZM588.989 102.929L587.243 103.937L588.988 104.944L590.734 103.936L588.989 102.929ZM498.193 131.169L499.94 130.161L498.195 129.153L496.448 130.162L498.193 131.169ZM588.968 131.146L590.714 130.138L588.97 129.131L587.223 130.139L588.968 131.146ZM634.336 157.337L636.082 156.329L634.337 155.322L632.591 156.33L634.336 157.337ZM588.949 157.349L590.695 156.34L588.95 155.333L587.204 156.341L588.949 157.349ZM543.581 131.158L545.327 130.149L543.582 129.142L541.836 130.15L543.581 131.158ZM498.213 104.967L499.959 103.959L498.214 102.951L496.468 103.959L498.213 104.967ZM540.131 75.2271L539.258 75.7312L542.748 77.7459L539.255 79.7623L540.127 80.266L543.62 78.2496L547.11 80.2643L547.983 79.7601L544.493 77.7455L547.986 75.7291L547.114 75.2254L543.621 77.2418L540.131 75.2271ZM403.911 153.867L403.037 154.371L406.527 156.386L403.034 158.402L403.907 158.906L407.4 156.89L410.889 158.904L411.763 158.4L408.273 156.385L411.766 154.369L410.893 153.865L407.4 155.882L403.911 153.867ZM452.573 445.606L454.319 444.597L452.574 443.59L450.828 444.598L452.573 445.606ZM407.205 419.415L408.951 418.406L407.206 417.399L405.46 418.407L407.205 419.415ZM316.469 367.033L318.215 366.025L316.47 365.017L314.724 366.026L316.469 367.033ZM452.592 419.403L454.338 418.395L452.594 417.388L450.847 418.396L452.592 419.403ZM361.837 393.224L363.583 392.216L361.838 391.208L360.092 392.216L361.837 393.224ZM407.224 393.213L408.971 392.204L407.226 391.197L405.479 392.205L407.224 393.213ZM316.449 393.235L318.196 392.227L316.451 391.219L314.705 392.228L316.449 393.235ZM361.798 445.628L363.544 444.62L361.799 443.612L360.053 444.621L361.798 445.628ZM407.185 445.617L408.932 444.609L407.187 443.601L405.44 444.609L407.185 445.617ZM316.432 417.422L314.685 418.43L316.43 419.437L318.176 418.429L316.432 417.422ZM361.817 419.426L363.564 418.418L361.819 417.41L360.072 418.419L361.817 419.426ZM407.263 340.808L409.009 339.8L407.265 338.793L405.518 339.801L407.263 340.808ZM361.856 367.022L363.603 366.013L361.858 365.006L360.111 366.014L361.856 367.022ZM452.631 366.999L454.377 365.991L452.632 364.984L450.886 365.992L452.631 366.999ZM497.999 393.19L499.745 392.182L498 391.175L496.254 392.183L497.999 393.19ZM497.979 419.392L499.726 418.384L497.981 417.377L496.234 418.385L497.979 419.392ZM452.612 393.201L454.358 392.193L452.613 391.186L450.867 392.194L452.612 393.201ZM407.244 367.01L408.99 366.002L407.245 364.995L405.499 366.003L407.244 367.01ZM361.876 340.82L363.622 339.811L361.877 338.804L360.131 339.812L361.876 340.82ZM267.573 389.72L266.7 390.224L270.19 392.239L266.697 394.255L267.57 394.759L271.063 392.742L274.552 394.757L275.426 394.253L271.936 392.238L275.429 390.222L274.556 389.718L271.063 391.735L267.573 389.72ZM403.677 468.293L402.804 468.797L406.294 470.811L402.801 472.828L403.673 473.331L407.166 471.315L410.656 473.33L411.529 472.826L408.039 470.811L411.532 468.794L410.66 468.291L407.167 470.307L403.677 468.293ZM588.793 366.965L590.539 365.957L588.795 364.95L587.048 365.958L588.793 366.965ZM543.425 340.775L545.172 339.766L543.427 338.759L541.68 339.767L543.425 340.775ZM452.689 288.393L454.436 287.385L452.691 286.377L450.944 287.385L452.689 288.393ZM588.812 340.763L590.559 339.755L588.814 338.748L587.068 339.756L588.812 340.763ZM498.057 314.584L499.804 313.576L498.059 312.568L496.312 313.576L498.057 314.584ZM543.445 314.572L545.191 313.564L543.446 312.557L541.7 313.565L543.445 314.572ZM452.67 314.595L454.416 313.587L452.671 312.579L450.925 313.588L452.67 314.595ZM498.018 366.988L499.765 365.98L498.02 364.972L496.273 365.981L498.018 366.988ZM543.406 366.977L545.152 365.969L543.407 364.961L541.661 365.969L543.406 366.977ZM452.652 338.782L450.905 339.79L452.65 340.797L454.397 339.789L452.652 338.782ZM498.038 340.786L499.784 339.778L498.039 338.77L496.293 339.778L498.038 340.786ZM543.483 262.168L545.23 261.16L543.485 260.153L541.739 261.161L543.483 262.168ZM498.077 288.382L499.823 287.373L498.078 286.366L496.332 287.374L498.077 288.382ZM588.851 288.359L590.598 287.351L588.853 286.344L587.106 287.352L588.851 288.359ZM634.219 314.55L635.966 313.542L634.221 312.534L632.474 313.543L634.219 314.55ZM634.2 340.752L635.946 339.744L634.201 338.737L632.455 339.745L634.2 340.752ZM588.832 314.561L590.578 313.553L588.833 312.546L587.087 313.554L588.832 314.561ZM543.464 288.37L545.21 287.362L543.465 286.355L541.719 287.363L543.464 288.37ZM498.096 262.179L499.843 261.171L498.098 260.164L496.351 261.172L498.096 262.179ZM403.794 311.08L402.921 311.584L406.41 313.599L402.918 315.615L403.79 316.119L407.283 314.102L410.773 316.117L411.646 315.613L408.156 313.598L411.649 311.582L410.776 311.078L407.284 313.095L403.794 311.08ZM539.897 389.652L539.024 390.157L542.514 392.171L539.021 394.188L539.894 394.691L543.387 392.675L546.876 394.69L547.75 394.186L544.26 392.171L547.753 390.154L546.88 389.651L543.387 391.667L539.897 389.652ZM725.013 288.325L726.76 287.317L725.015 286.31L723.268 287.318L725.013 288.325ZM679.645 262.135L681.392 261.126L679.647 260.119L677.901 261.127L679.645 262.135ZM588.91 209.753L590.656 208.745L588.911 207.737L587.165 208.745L588.91 209.753ZM725.033 262.123L726.779 261.115L725.034 260.108L723.288 261.116L725.033 262.123ZM634.278 235.944L636.024 234.935L634.279 233.928L632.533 234.936L634.278 235.944ZM679.665 235.932L681.411 234.924L679.666 233.917L677.92 234.925L679.665 235.932ZM588.89 235.955L590.637 234.947L588.892 233.939L587.145 234.948L588.89 235.955ZM634.239 288.348L635.985 287.34L634.24 286.332L632.494 287.341L634.239 288.348ZM679.626 288.337L681.372 287.328L679.628 286.321L677.881 287.329L679.626 288.337ZM588.872 260.141L587.126 261.15L588.871 262.157L590.617 261.149L588.872 260.141ZM634.258 262.146L636.005 261.138L634.26 260.13L632.513 261.138L634.258 262.146ZM679.704 183.528L681.45 182.52L679.705 181.513L677.959 182.521L679.704 183.528ZM770.459 209.708L772.205 208.7L770.461 207.692L768.714 208.701L770.459 209.708ZM725.093 181.501L723.346 182.51L725.091 183.517L726.838 182.509L725.093 181.501ZM634.297 209.742L636.043 208.733L634.299 207.726L632.552 208.734L634.297 209.742ZM725.072 209.719L726.818 208.711L725.073 207.704L723.327 208.712L725.072 209.719ZM770.44 235.91L772.186 234.902L770.441 233.894L768.695 234.903L770.44 235.91ZM770.42 262.112L772.167 261.104L770.422 260.097L768.675 261.105L770.42 262.112ZM725.052 235.921L726.799 234.913L725.054 233.906L723.307 234.914L725.052 235.921ZM679.684 209.73L681.431 208.722L679.686 207.715L677.939 208.723L679.684 209.73ZM634.317 183.539L636.063 182.531L634.318 181.524L632.572 182.532L634.317 183.539ZM812.338 232.372L811.465 232.877L814.955 234.891L811.462 236.908L812.335 237.411L815.827 235.395L819.317 237.41L820.19 236.905L816.701 234.891L820.193 232.874L819.321 232.371L815.828 234.387L812.338 232.372ZM676.235 153.8L675.361 154.304L678.851 156.319L675.358 158.335L676.231 158.839L679.724 156.822L683.214 158.837L684.087 158.333L680.597 156.318L684.09 154.302L683.217 153.798L679.724 155.814L676.235 153.8ZM540.014 232.44L539.141 232.944L542.631 234.959L539.138 236.975L540.01 237.479L543.503 235.462L546.993 237.477L547.866 236.973L544.376 234.958L547.869 232.942L546.997 232.438L543.504 234.454L540.014 232.44ZM676.118 311.012L675.245 311.517L678.734 313.531L675.242 315.548L676.114 316.051L679.607 314.035L683.097 316.05L683.97 315.546L680.48 313.531L683.973 311.514L683.101 311.011L679.608 313.027L676.118 311.012Z" fill="#8F90A6"/>
</g>
</g>
<path d="M281.237 326.158L341.7 291.252L363.843 304.035L389.308 289.335L367.165 276.551L382.788 267.532L361.444 255.211L345.821 264.23L263.338 216.612L230 235.858L260.262 314.049L281.237 326.158ZM320.849 278.646L286.711 298.354L285.727 297.786L266.413 248.357L267.397 247.789L320.849 278.646Z" fill="url(#paint1_linear)"/>
<path d="M474.836 243.155C506.513 224.868 501.531 199.905 460.074 175.901C418.924 152.074 375.93 149.624 344.376 167.841C312.76 186.092 317.127 210.771 358.338 234.633C399.611 258.602 443.036 261.442 474.836 243.155ZM452.754 230.407C438.3 238.752 414.434 235.769 385.464 218.974C356.923 202.426 351.818 188.755 366.211 180.446C380.543 172.173 404.285 175.084 432.887 191.596C461.981 208.321 467.147 222.098 452.754 230.407Z" fill="url(#paint2_linear)"/>
<path d="M517.877 189.545L578.34 154.64L600.483 167.423L625.948 152.723L603.805 139.939L619.428 130.92L598.084 118.598L582.461 127.618L499.978 80L466.64 99.2459L496.902 177.437L517.877 189.545ZM557.488 142.034L523.351 161.742L522.367 161.174L503.053 111.745L504.037 111.177L557.488 142.034Z" fill="url(#paint3_linear)"/>
<circle opacity="0.25" r="81.1273" transform="matrix(0.866044 -0.499967 0.866044 0.499967 214.953 188.372)" fill="#E3FFF1" stroke="#57EBA1" stroke-width="0.5"/>
<circle opacity="0.5" r="63.6616" transform="matrix(0.866044 -0.499967 0.866044 0.499967 214.63 185.076)" fill="#E3FFF1" stroke="#57EBA1" stroke-width="0.5"/>
<circle opacity="0.75" r="45.2553" transform="matrix(0.866044 -0.499967 0.866044 0.499967 214.977 185.076)" fill="#E3FFF1" stroke="#57EBA1" stroke-width="0.5"/>
<circle r="28.7934" transform="matrix(0.866044 -0.499967 0.866044 0.499967 214.718 185.076)" fill="#E3FFF1" stroke="#57EBA1" stroke-width="0.5"/>
<circle opacity="0.25" r="54.2536" transform="matrix(0.866044 -0.499967 0.866044 0.499967 598.405 85.5)" fill="#E3FFF1" stroke="#57EBA1" stroke-width="0.5"/>
<circle opacity="0.5" r="42.5557" transform="matrix(0.866044 -0.499967 0.866044 0.499967 598.19 83.2924)" fill="#E3FFF1" stroke="#57EBA1" stroke-width="0.5"/>
<circle opacity="0.75" r="30.2278" transform="matrix(0.866044 -0.499967 0.866044 0.499967 598.421 83.2924)" fill="#E3FFF1" stroke="#57EBA1" stroke-width="0.5"/>
<circle r="19.2022" transform="matrix(0.866044 -0.499968 0.866044 0.499968 598.248 83.2924)" fill="#E3FFF1" stroke="#57EBA1" stroke-width="0.5"/>
<path d="M266.237 279.158L326.7 244.252L348.843 257.035L374.308 242.335L352.165 229.551L367.788 220.532L346.444 208.211L330.821 217.23L248.338 169.612L215 188.858L245.262 267.049L266.237 279.158ZM305.849 231.646L271.711 251.354L270.727 250.786L251.413 201.357L252.397 200.789L305.849 231.646Z" fill="#376C66"/>
<path d="M459.836 196.155C491.513 177.868 486.531 152.905 445.074 128.901C403.924 105.074 360.93 102.624 329.376 120.841C297.76 139.092 302.127 163.771 343.338 187.633C384.611 211.602 428.036 214.442 459.836 196.155ZM437.754 183.407C423.3 191.752 399.434 188.769 370.464 171.974C341.923 155.426 336.818 141.755 351.211 133.446C365.543 125.173 389.285 128.084 417.887 144.596C446.981 161.321 452.147 175.098 437.754 183.407Z" fill="#376C66"/>
<path d="M502.877 142.545L563.34 107.64L585.483 120.423L610.948 105.723L588.805 92.9393L604.428 83.92L583.084 71.5983L567.461 80.6176L484.978 33L451.64 52.2459L481.902 130.437L502.877 142.545ZM542.488 95.0343L508.351 114.742L507.367 114.174L488.053 64.7451L489.037 64.1769L542.488 95.0343Z" fill="#376C66"/>
<path d="M266.237 277.158L326.7 242.252L348.843 255.035L374.308 240.335L352.165 227.551L367.788 218.532L346.444 206.211L330.821 215.23L248.338 167.612L215 186.858L245.262 265.049L266.237 277.158ZM305.849 229.646L271.711 249.354L270.727 248.786L251.413 199.357L252.397 198.789L305.849 229.646Z" fill="#3BC882"/>
<path d="M459.836 194.155C491.513 175.868 486.531 150.905 445.074 126.901C403.924 103.074 360.93 100.624 329.376 118.841C297.76 137.092 302.127 161.771 343.338 185.633C384.611 209.602 428.036 212.442 459.836 194.155ZM437.754 181.407C423.3 189.752 399.434 186.769 370.464 169.974C341.923 153.426 336.818 139.755 351.211 131.446C365.543 123.173 389.285 126.084 417.887 142.596C446.981 159.321 452.147 173.098 437.754 181.407Z" fill="#3BC882"/>
<path d="M502.877 140.545L563.34 105.64L585.483 118.423L610.948 103.723L588.805 90.9393L604.428 81.92L583.084 69.5983L567.461 78.6176L484.978 31L451.64 50.2459L481.902 128.437L502.877 140.545ZM542.488 93.0343L508.351 112.742L507.367 112.174L488.053 62.7451L489.037 62.1769L542.488 93.0343Z" fill="#3BC882"/>
<path d="M266.237 274.158L326.7 239.252L348.843 252.035L374.308 237.335L352.165 224.551L367.788 215.532L346.444 203.211L330.821 212.23L248.338 164.612L215 183.858L245.262 262.049L266.237 274.158ZM305.849 226.646L271.711 246.354L270.727 245.786L251.413 196.357L252.397 195.789L305.849 226.646Z" fill="#57EBA1"/>
<path d="M459.836 191.155C491.513 172.868 486.531 147.905 445.074 123.901C403.924 100.074 360.93 97.6244 329.376 115.841C297.76 134.092 302.127 158.771 343.338 182.633C384.611 206.602 428.036 209.442 459.836 191.155ZM437.754 178.407C423.3 186.752 399.434 183.769 370.464 166.974C341.923 150.426 336.818 136.755 351.211 128.446C365.543 120.173 389.285 123.084 417.887 139.596C446.981 156.321 452.147 170.098 437.754 178.407Z" fill="#57EBA1"/>
<path d="M502.877 137.545L563.34 102.64L585.483 115.423L610.948 100.723L588.805 87.9393L604.428 78.92L583.084 66.5983L567.461 75.6176L484.978 28L451.64 47.2459L481.902 125.437L502.877 137.545ZM542.488 90.0343L508.351 109.742L507.367 109.174L488.053 59.7451L489.037 59.1769L542.488 90.0343Z" fill="#57EBA1"/>
<defs>
<radialGradient id="paint0_radial" cx="0" cy="0" r="1" gradientUnits="userSpaceOnUse" gradientTransform="translate(250.701 226.18) rotate(93.632) scale(244.71 229.238)">
<stop offset="0.744792" stop-color="#C4C4C4"/>
<stop offset="1" stop-color="#C4C4C4" stop-opacity="0"/>
</radialGradient>
<linearGradient id="paint1_linear" x1="634.747" y1="195.77" x2="461.358" y2="467.694" gradientUnits="userSpaceOnUse">
<stop stop-color="#28293D"/>
<stop offset="1" stop-color="#577CA4"/>
</linearGradient>
<linearGradient id="paint2_linear" x1="634.747" y1="195.77" x2="461.358" y2="467.694" gradientUnits="userSpaceOnUse">
<stop stop-color="#28293D"/>
<stop offset="1" stop-color="#577CA4"/>
</linearGradient>
<linearGradient id="paint3_linear" x1="634.747" y1="195.77" x2="461.358" y2="467.694" gradientUnits="userSpaceOnUse">
<stop stop-color="#28293D"/>
<stop offset="1" stop-color="#577CA4"/>
</linearGradient>
</defs>
</svg>
