<svg width="351" height="351" viewBox="0 0 351 351" fill="none" xmlns="http://www.w3.org/2000/svg">
  <path d="M286.707 281.085C335.578 320.131 366.904 203.549 289.016 182.047C223.67 163.948 157.911 194.976 92.0088 267.343C92.0088 267.343 213.722 222.858 286.707 281.085Z" fill="#0B5567"/>
  <path d="M93.0915 266.39C139.924 217.832 217.798 163.692 290.369 183.684C307.258 188.441 319.23 198.238 326.997 209.943L258.388 71.5883C248.582 55.9387 223.527 59.2138 209.375 71.1753L28.0163 223.001C11.5408 237.141 10.5859 262.317 25.8357 277.554C39.3182 291.024 60.6964 292.249 75.5329 280.273L93.0915 266.39Z" fill="#15A9CE"/>
</svg>