<?xml version="1.0" encoding="iso-8859-1"?>
<!-- Generator: Adobe Illustrator 18.0.0, SVG Export Plug-In . SVG Version: 6.00 Build 0)  -->
<!DOCTYPE svg PUBLIC "-//W3C//DTD SVG 1.1//EN" "http://www.w3.org/Graphics/SVG/1.1/DTD/svg11.dtd">
<svg xmlns="http://www.w3.org/2000/svg" xmlns:xlink="http://www.w3.org/1999/xlink" version="1.1" id="Capa_1" x="0px" y="0px" viewBox="0 0 393.58 393.58" style="enable-background:new 0 0 393.58 393.58;" xml:space="preserve" width="512px" height="512px">
<g>
	<path d="M192.073,234.656c25.803,0,46.72-20.918,46.72-46.722h-46.72v-46.719c-25.805,0-46.721,20.917-46.721,46.719   C145.352,213.739,166.268,234.656,192.073,234.656z" fill="#FFFFFF"/>
	<path d="M201.507,131.779v46.722h46.721C248.227,152.697,227.313,131.779,201.507,131.779z" fill="#FFFFFF"/>
	<polygon points="156.204,223.538 153.376,220.709 143.295,230.79 115.456,230.79 115.456,234.79 144.952,234.79  " fill="#FFFFFF"/>
	<polygon points="250.073,141.002 270.124,141.002 270.124,137.002 248.416,137.002 239.71,145.709 242.538,148.538  " fill="#FFFFFF"/>
	<rect x="80.79" y="120.54" width="30.25" height="6" fill="#FFFFFF"/>
	<rect x="80.79" y="132.54" width="16.25" height="6" fill="#FFFFFF"/>
	<rect x="80.79" y="144.54" width="26.25" height="6" fill="#FFFFFF"/>
	<circle cx="274.04" cy="238.29" r="8.75" fill="#FFFFFF"/>
	<circle cx="301.04" cy="238.29" r="8.75" fill="#FFFFFF"/>
	<path d="M386.321,282.045h-20.504l-0.002-192.081c0-8.439-6.865-15.305-15.304-15.305H43.202c-8.439,0-15.306,6.866-15.306,15.305   v192.081H7.261c-4.004,0-7.261,3.258-7.261,7.264c0,16.328,13.284,29.612,29.613,29.612h235.722v-13.088   c0-4.196,3.414-7.609,7.61-7.609c4.194,0,7.607,3.414,7.607,7.609v13.088h14.299v-13.088c0-4.196,3.413-7.609,7.608-7.609   c4.196,0,7.61,3.414,7.61,7.609v13.088h53.895c16.33,0,29.614-13.284,29.614-29.612   C393.58,285.303,390.324,282.045,386.321,282.045z M339.058,271.914H212.123v7.902h-30.666v-7.902H54.655V101.418h284.402V271.914z   " fill="#FFFFFF"/>
</g>
<g>
</g>
<g>
</g>
<g>
</g>
<g>
</g>
<g>
</g>
<g>
</g>
<g>
</g>
<g>
</g>
<g>
</g>
<g>
</g>
<g>
</g>
<g>
</g>
<g>
</g>
<g>
</g>
<g>
</g>
</svg>
