<svg width="352" height="57" viewBox="0 0 352 57" fill="none" xmlns="http://www.w3.org/2000/svg">
<path d="M102.219 46.1787C98.7937 46.1787 96.2153 45.2987 94.4838 43.5387C92.7899 41.7413 91.943 39.12 91.943 35.6749V22.9242H87.4825C87.1061 22.9242 86.7862 22.7932 86.5227 22.531C86.2592 22.2315 86.1274 21.8944 86.1274 21.52V18.3183C86.1274 17.9438 86.2592 17.6255 86.5227 17.3634C86.7862 17.1013 87.1061 16.9702 87.4825 16.9702H91.943V7.64594C91.943 7.23402 92.0747 6.91573 92.3382 6.69104C92.6017 6.42892 92.9217 6.29785 93.2981 6.29785H97.8715C98.2855 6.29785 98.6055 6.42892 98.8313 6.69104C99.0948 6.91573 99.2266 7.23402 99.2266 7.64594V16.9702H106.284C106.698 16.9702 107.018 17.1013 107.244 17.3634C107.508 17.5881 107.639 17.9064 107.639 18.3183V21.52C107.639 21.9319 107.508 22.2689 107.244 22.531C106.981 22.7932 106.661 22.9242 106.284 22.9242H99.2266V35.1132C99.2266 36.7234 99.5089 37.9404 100.073 38.7642C100.638 39.5881 101.579 40 102.897 40H106.792C107.169 40 107.489 40.131 107.752 40.3932C108.016 40.6553 108.148 40.9736 108.148 41.3481V44.8306C108.148 45.2051 108.016 45.5234 107.752 45.7855C107.526 46.0476 107.206 46.1787 106.792 46.1787H102.219Z" fill="#28293D"/>
<path d="M125.804 46.7404C121.626 46.7404 118.294 45.5421 115.81 43.1455C113.363 40.7115 112.065 37.3038 111.914 32.9225L111.858 31.5183L111.914 30.114C112.102 25.8451 113.42 22.4936 115.866 20.0596C118.351 17.6255 121.663 16.4085 125.804 16.4085C130.245 16.4085 133.671 17.7566 136.08 20.4527C138.526 23.1489 139.75 26.7438 139.75 31.2374V32.417C139.75 32.7915 139.618 33.1098 139.355 33.3719C139.091 33.634 138.752 33.7651 138.338 33.7651H119.593V34.2144C119.668 36.274 120.233 38.0153 121.287 39.4383C122.378 40.8238 123.865 41.5166 125.747 41.5166C127.968 41.5166 129.756 40.6553 131.111 38.9327C131.45 38.5208 131.713 38.2587 131.902 38.1464C132.127 38.034 132.447 37.9778 132.861 37.9778H137.717C138.056 37.9778 138.338 38.0902 138.564 38.3149C138.828 38.5021 138.959 38.7455 138.959 39.0451C138.959 39.9438 138.413 41.011 137.322 42.2468C136.268 43.4451 134.743 44.4936 132.748 45.3923C130.754 46.291 128.439 46.7404 125.804 46.7404ZM132.071 29.0468V28.8783C132.071 26.6689 131.506 24.8902 130.377 23.5421C129.286 22.194 127.761 21.52 125.804 21.52C123.846 21.52 122.322 22.194 121.23 23.5421C120.139 24.8902 119.593 26.6689 119.593 28.8783V29.0468H132.071Z" fill="#28293D"/>
<path d="M147.155 46.1787C146.778 46.1787 146.458 46.0476 146.195 45.7855C145.931 45.5234 145.8 45.2051 145.8 44.8306V7.64594C145.8 7.23402 145.931 6.91573 146.195 6.69104C146.458 6.42892 146.778 6.29785 147.155 6.29785H151.841C152.255 6.29785 152.575 6.42892 152.801 6.69104C153.064 6.91573 153.196 7.23402 153.196 7.64594V44.8306C153.196 45.2051 153.064 45.5234 152.801 45.7855C152.575 46.0476 152.255 46.1787 151.841 46.1787H147.155Z" fill="#28293D"/>
<path d="M173.333 46.7404C169.155 46.7404 165.824 45.5421 163.339 43.1455C160.893 40.7115 159.594 37.3038 159.443 32.9225L159.387 31.5183L159.443 30.114C159.632 25.8451 160.949 22.4936 163.396 20.0596C165.88 17.6255 169.192 16.4085 173.333 16.4085C177.775 16.4085 181.2 17.7566 183.609 20.4527C186.056 23.1489 187.279 26.7438 187.279 31.2374V32.417C187.279 32.7915 187.147 33.1098 186.884 33.3719C186.62 33.634 186.282 33.7651 185.867 33.7651H167.122V34.2144C167.197 36.274 167.762 38.0153 168.816 39.4383C169.908 40.8238 171.394 41.5166 173.277 41.5166C175.497 41.5166 177.285 40.6553 178.64 38.9327C178.979 38.5208 179.243 38.2587 179.431 38.1464C179.657 38.034 179.977 37.9778 180.391 37.9778H185.246C185.585 37.9778 185.867 38.0902 186.093 38.3149C186.357 38.5021 186.489 38.7455 186.489 39.0451C186.489 39.9438 185.943 41.011 184.851 42.2468C183.797 43.4451 182.273 44.4936 180.278 45.3923C178.283 46.291 175.968 46.7404 173.333 46.7404ZM179.6 29.0468V28.8783C179.6 26.6689 179.036 24.8902 177.906 23.5421C176.815 22.194 175.29 21.52 173.333 21.52C171.376 21.52 169.851 22.194 168.76 23.5421C167.668 24.8902 167.122 26.6689 167.122 28.8783V29.0468H179.6Z" fill="#28293D"/>
<path d="M194.627 46.1787C194.251 46.1787 193.931 46.0476 193.668 45.7855C193.404 45.5234 193.272 45.2051 193.272 44.8306V18.3183C193.272 17.9438 193.404 17.6255 193.668 17.3634C193.931 17.1013 194.251 16.9702 194.627 16.9702H199.031C199.408 16.9702 199.728 17.1013 199.991 17.3634C200.255 17.6255 200.386 17.9438 200.386 18.3183V20.2281C202.344 17.6817 205.073 16.4085 208.573 16.4085C212.752 16.4085 215.669 18.0749 217.325 21.4076C218.228 19.9098 219.508 18.7115 221.164 17.8127C222.821 16.8766 224.609 16.4085 226.528 16.4085C229.615 16.4085 232.137 17.457 234.094 19.554C236.051 21.651 237.03 24.703 237.03 28.7098V44.8306C237.03 45.2051 236.898 45.5234 236.635 45.7855C236.409 46.0476 236.089 46.1787 235.675 46.1787H231.045C230.669 46.1787 230.349 46.0476 230.085 45.7855C229.822 45.5234 229.69 45.2051 229.69 44.8306V29.1591C229.69 26.8 229.182 25.0961 228.166 24.0476C227.187 22.9617 225.87 22.4187 224.213 22.4187C222.745 22.4187 221.484 22.9617 220.43 24.0476C219.414 25.1336 218.906 26.8374 218.906 29.1591V44.8306C218.906 45.2051 218.774 45.5234 218.511 45.7855C218.247 46.0476 217.927 46.1787 217.551 46.1787H212.921C212.545 46.1787 212.225 46.0476 211.961 45.7855C211.698 45.5234 211.566 45.2051 211.566 44.8306V29.1591C211.566 26.8 211.039 25.0961 209.985 24.0476C208.969 22.9617 207.67 22.4187 206.089 22.4187C204.583 22.4187 203.304 22.9617 202.25 24.0476C201.233 25.1336 200.725 26.8374 200.725 29.1591V44.8306C200.725 45.2051 200.594 45.5234 200.33 45.7855C200.067 46.0476 199.747 46.1787 199.37 46.1787H194.627Z" fill="#28293D"/>
<path d="M256.868 46.7404C252.689 46.7404 249.358 45.5421 246.874 43.1455C244.427 40.7115 243.129 37.3038 242.978 32.9225L242.922 31.5183L242.978 30.114C243.166 25.8451 244.484 22.4936 246.93 20.0596C249.415 17.6255 252.727 16.4085 256.868 16.4085C261.309 16.4085 264.735 17.7566 267.144 20.4527C269.59 23.1489 270.814 26.7438 270.814 31.2374V32.417C270.814 32.7915 270.682 33.1098 270.418 33.3719C270.155 33.634 269.816 33.7651 269.402 33.7651H250.657V34.2144C250.732 36.274 251.297 38.0153 252.351 39.4383C253.442 40.8238 254.929 41.5166 256.811 41.5166C259.032 41.5166 260.82 40.6553 262.175 38.9327C262.514 38.5208 262.777 38.2587 262.965 38.1464C263.191 38.034 263.511 37.9778 263.925 37.9778H268.781C269.12 37.9778 269.402 38.0902 269.628 38.3149C269.891 38.5021 270.023 38.7455 270.023 39.0451C270.023 39.9438 269.477 41.011 268.386 42.2468C267.332 43.4451 265.807 44.4936 263.812 45.3923C261.817 46.291 259.502 46.7404 256.868 46.7404ZM263.135 29.0468V28.8783C263.135 26.6689 262.57 24.8902 261.441 23.5421C260.349 22.194 258.825 21.52 256.868 21.52C254.91 21.52 253.386 22.194 252.294 23.5421C251.203 24.8902 250.657 26.6689 250.657 28.8783V29.0468H263.135Z" fill="#28293D"/>
<path d="M289.965 46.1787C286.54 46.1787 283.961 45.2987 282.23 43.5387C280.536 41.7413 279.689 39.12 279.689 35.6749V22.9242H275.229C274.852 22.9242 274.532 22.7932 274.269 22.531C274.005 22.2315 273.874 21.8944 273.874 21.52V18.3183C273.874 17.9438 274.005 17.6255 274.269 17.3634C274.532 17.1013 274.852 16.9702 275.229 16.9702H279.689V7.64594C279.689 7.23402 279.821 6.91573 280.084 6.69104C280.348 6.42892 280.668 6.29785 281.044 6.29785H285.618C286.032 6.29785 286.352 6.42892 286.577 6.69104C286.841 6.91573 286.973 7.23402 286.973 7.64594V16.9702H294.03C294.444 16.9702 294.764 17.1013 294.99 17.3634C295.254 17.5881 295.385 17.9064 295.385 18.3183V21.52C295.385 21.9319 295.254 22.2689 294.99 22.531C294.727 22.7932 294.407 22.9242 294.03 22.9242H286.973V35.1132C286.973 36.7234 287.255 37.9404 287.82 38.7642C288.384 39.5881 289.325 40 290.643 40H294.539C294.915 40 295.235 40.131 295.498 40.3932C295.762 40.6553 295.894 40.9736 295.894 41.3481V44.8306C295.894 45.2051 295.762 45.5234 295.498 45.7855C295.273 46.0476 294.953 46.1787 294.539 46.1787H289.965Z" fill="#28293D"/>
<path d="M302.258 46.1787C301.881 46.1787 301.561 46.0476 301.298 45.7855C301.034 45.5234 300.902 45.2051 300.902 44.8306V18.3744C300.902 18 301.034 17.6817 301.298 17.4196C301.561 17.12 301.881 16.9702 302.258 16.9702H306.831C307.245 16.9702 307.584 17.1013 307.847 17.3634C308.111 17.6255 308.242 17.9625 308.242 18.3744V20.6774C309.146 19.4791 310.275 18.5617 311.63 17.9251C313.023 17.2885 314.604 16.9702 316.373 16.9702H318.688C319.102 16.9702 319.422 17.1013 319.648 17.3634C319.911 17.5881 320.043 17.9064 320.043 18.3183V22.3625C320.043 22.737 319.911 23.0553 319.648 23.3174C319.422 23.5796 319.102 23.7106 318.688 23.7106H314.284C312.515 23.7106 311.122 24.2161 310.106 25.2272C309.089 26.2383 308.581 27.6238 308.581 29.3838V44.8306C308.581 45.2051 308.449 45.5234 308.186 45.7855C307.922 46.0476 307.584 46.1787 307.17 46.1787H302.258Z" fill="#28293D"/>
<path d="M329.754 56.851C329.453 56.851 329.189 56.7387 328.963 56.514C328.738 56.2893 328.625 56.0272 328.625 55.7276C328.625 55.3906 328.7 55.091 328.851 54.8289L333.255 44.4374L322.414 18.9923C322.263 18.6553 322.188 18.3932 322.188 18.2059C322.226 17.8689 322.357 17.5881 322.583 17.3634C322.809 17.1013 323.091 16.9702 323.43 16.9702H328.004C328.719 16.9702 329.227 17.3259 329.528 18.0374L337.037 36.4051L344.773 18.0374C345.074 17.3259 345.582 16.9702 346.297 16.9702H350.814C351.115 16.9702 351.379 17.0825 351.605 17.3072C351.868 17.5319 352 17.794 352 18.0936C352 18.3557 351.925 18.6553 351.774 18.9923L335.795 55.7838C335.457 56.4953 334.93 56.851 334.214 56.851H329.754Z" fill="#28293D"/>
<path d="M36.2818 39.0638C36.8867 39.0626 37.4462 39.3867 37.7487 39.9137L45.1754 52.3438C45.8249 53.4753 45.015 54.9756 43.7161 54.9787H1.69631C0.391701 54.9819 -0.424153 53.5599 0.231271 52.4252L7.7299 39.9527C8.03172 39.4302 8.58664 39.1082 9.1874 39.107L36.2818 39.0638Z" fill="#223C37"/>
<path d="M30.8815 33.0617C30.5826 33.5889 30.0226 33.9149 29.4156 33.9149H14.3251C13.028 33.9149 12.2177 32.5129 12.8669 31.3921L30.1683 1.52063C30.8181 0.398748 32.4415 0.401465 33.0876 1.52552L40.4999 14.4229C40.796 14.938 40.7978 15.5708 40.5048 16.0876L30.8815 33.0617Z" fill="#39D98A"/>
<path d="M42.9096 54.1358C43.2132 54.6452 43.3689 54.9787 43.9611 54.9787H61.9744C63.2918 54.9787 64.0981 53.5724 63.4058 52.4493L46.0729 23.4808C45.3937 22.3789 43.7798 22.4241 43.1631 23.5622L34.6382 39.0639L42.9096 54.1358Z" fill="#376C66"/>
</svg>
