<?xml version="1.0" encoding="iso-8859-1"?>
<!-- Generator: Adobe Illustrator 15.1.0, SVG Export Plug-In . SVG Version: 6.00 Build 0)  -->
<!DOCTYPE svg PUBLIC "-//W3C//DTD SVG 1.1//EN" "http://www.w3.org/Graphics/SVG/1.1/DTD/svg11.dtd">
<svg version="1.1" id="Layer_1" xmlns="http://www.w3.org/2000/svg" xmlns:xlink="http://www.w3.org/1999/xlink" x="0px" y="0px"
	 width="422.465px" height="111.256px" viewBox="0 0 422.465 111.256" style="enable-background:new 0 0 422.465 111.256;"
	 xml:space="preserve">
<path style="fill:#FFFFFF;" d="M91.324,31.379c0.491,0.724,1.054,1.684,1.486,2.461c3.907,6.475,6.176,14.05,6.176,22.16
	c0,12.588-5.406,23.902-14.023,31.763l-20.567-29.03l0.012-0.014l-6.995-9.855l-10.54,11.119V33.517H32.831v58.679
	c-11.909-7.643-19.807-20.988-19.807-36.194c0-23.731,19.243-42.975,42.98-42.975c10.051,0,19.29,3.457,26.609,9.238l0,0
	c0.104,0.081,0.201,0.073,0.309,0.159l9.021-9.445C82.211,4.808,69.706,0,56.005,0C25.073,0,0,25.074,0,56
	c0,27.825,20.291,50.898,46.878,55.256V98.004c-0.003-0.001-0.004-0.001-0.004-0.001l-0.002-21.209l8.045-8.137l13.56,20.237
	l4.445,6.629l1.229,1.834l6.13,9.131c18.773-9.042,31.73-28.252,31.73-50.488c0-12.758-4.313-24.586-11.499-34.004L91.324,31.379z"
	/>
<g>
	<g>
		<g>
			<path style="fill:#FFFFFF;" d="M131.87,33.67h13.899v26.201l24.692-26.201h17.353l-24.696,24.961l27.084,38.24h-17.436
				l-19.03-28.415l-7.967,8.057v20.358H131.87V33.67L131.87,33.67z"/>
			<path style="fill:#FFFFFF;" d="M193.92,65.183c0.706-11.771,11.243-15.313,21.51-15.313c9.115,0,20.095,2.036,20.095,13.01
				v23.812c0,4.162,0.439,8.321,1.592,10.182h-12.749c-0.439-1.419-0.792-2.921-0.884-4.427c-3.979,4.16-9.825,5.665-15.398,5.665
				c-8.677,0-15.583-4.337-15.583-13.72c0-10.356,7.791-12.836,15.583-13.896c7.7-1.15,14.867-0.886,14.867-6.019
				c0-5.401-3.716-6.196-8.142-6.196c-4.78,0-7.877,1.948-8.321,6.903H193.92z M222.951,74.477
				c-2.124,1.857-6.55,1.948-10.445,2.656c-3.896,0.795-7.433,2.123-7.433,6.727c0,4.69,3.628,5.843,7.7,5.843
				c9.822,0,10.178-7.791,10.178-10.535V74.477z"/>
			<path style="fill:#FFFFFF;" d="M245.615,51.11h11.858v6.195h0.175c3.279-4.69,8.06-7.436,13.986-7.436
				c5.755,0,10.891,2.124,13.366,7.611c2.652-3.981,7.436-7.611,13.807-7.611c9.739,0,16.731,4.516,16.731,16.375v30.627h-12.566
				V70.938c0-6.109-0.533-11.154-7.706-11.154c-7.077,0-8.406,5.842-8.406,11.595v25.493h-12.571v-25.67
				c0-5.311,0.357-11.418-7.609-11.418c-2.479,0-8.499,1.592-8.499,10.532v26.556h-12.564L245.615,51.11L245.615,51.11z"/>
			<path style="fill:#FFFFFF;" d="M347.667,49.87c14.432,0,23.724,9.562,23.724,24.164c0,14.517-9.292,24.076-23.724,24.076
				c-14.339,0-23.631-9.561-23.631-24.076C324.036,59.431,333.328,49.87,347.667,49.87z M347.667,88.64
				c8.59,0,11.155-7.348,11.155-14.605c0-7.347-2.565-14.692-11.155-14.692c-8.496,0-11.059,7.347-11.059,14.692
				C336.609,81.292,339.171,88.64,347.667,88.64z"/>
			<path style="fill:#FFFFFF;" d="M379.536,51.11h11.951v6.372h0.261c3.19-5.133,8.675-7.611,13.985-7.611
				c13.368,0,16.731,7.524,16.731,18.854v28.147h-12.569V71.026c0-7.524-2.213-11.241-8.055-11.241c-6.814,0-9.734,3.806-9.734,13.1
				v23.988h-12.57V51.11L379.536,51.11z"/>
		</g>
	</g>
</g>
</svg>
