<?xml version="1.0" encoding="UTF-8" standalone="no"?>
<svg
   xmlns:dc="http://purl.org/dc/elements/1.1/"
   xmlns:cc="http://creativecommons.org/ns#"
   xmlns:rdf="http://www.w3.org/1999/02/22-rdf-syntax-ns#"
   xmlns:svg="http://www.w3.org/2000/svg"
   xmlns="http://www.w3.org/2000/svg"
   xmlns:sodipodi="http://sodipodi.sourceforge.net/DTD/sodipodi-0.dtd"
   xmlns:inkscape="http://www.inkscape.org/namespaces/inkscape"
   xml:space="preserve"
   viewBox="0 145.2 1170 271.8"
   y="0px"
   x="0px"
   id="Layer_1"
   version="1.1"
   sodipodi:docname="kamon-apm-logo.svg"
   inkscape:version="0.92.3 (2405546, 2018-03-11)"
   width="1170"
   height="271.79999"><sodipodi:namedview
     pagecolor="#ffffff"
     bordercolor="#666666"
     borderopacity="1"
     objecttolerance="10"
     gridtolerance="10"
     guidetolerance="10"
     inkscape:pageopacity="0"
     inkscape:pageshadow="2"
     inkscape:window-width="2132"
     inkscape:window-height="848"
     id="namedview5422"
     showgrid="false"
     inkscape:zoom="0.75625"
     inkscape:cx="695.13339"
     inkscape:cy="203.13232"
     inkscape:window-x="427"
     inkscape:window-y="0"
     inkscape:window-maximized="0"
     inkscape:current-layer="XMLID_1176_" /><metadata
     id="metadata31"><rdf:RDF><cc:Work
         rdf:about=""><dc:format>image/svg+xml</dc:format><dc:type
           rdf:resource="http://purl.org/dc/dcmitype/StillImage" /><dc:title></dc:title></cc:Work></rdf:RDF></metadata><defs
     id="defs29" /><style
     id="style3"
     type="text/css">
	.st0{fill:#333333;}
	.st1{fill:#BBBBBB;}
	.st2{fill:url(#XMLID_2_);}
	.st3{fill:#009688;}
</style><g
     id="XMLID_1176_"><g
       id="XMLID_1177_"><g
         id="XMLID_1183_"><path
           style="fill:#dadada;fill-opacity:1"
           d="m 7.1,256.4 85,-102.1 c 3.4,-3.8 0,-9.1 -5.8,-9.1 H 10.1 C 4.5,145.2 0,149.7 0,155.3 v 79 19.7 c 0,3.7 4.6,5.3 7.1,2.4 -0.1,0 0,0 0,0 z"
           class="st1"
           id="XMLID_1185_"
           inkscape:connector-curvature="0" /><path
           style="fill:#dadada;fill-opacity:1"
           d="M 7.1,305.8 7,305.7 c -2.4,-2.8 -7,-1.3 -7,2.5 v 19.7 79 c 0,5.6 4.5,10.1 10.1,10.1 h 76.1 c 5.8,0 9.2,-5.3 5.8,-9.1 z"
           class="st1"
           id="XMLID_1184_"
           inkscape:connector-curvature="0" /></g><g
         id="XMLID_1178_"><linearGradient
           gradientTransform="matrix(1,0,0,-1,0,564.4)"
           y2="283.35001"
           x2="274.68771"
           y1="283.35001"
           x1="128.8129"
           gradientUnits="userSpaceOnUse"
           id="XMLID_2_"><stop
             id="stop19"
             style="stop-color:#0a6e65;stop-opacity:1"
             offset="0" /><stop
             id="stop21"
             style="stop-color:#14c4b4;stop-opacity:1"
             offset="1" /></linearGradient><path
           d="m 179.2,281.1 91.1,-124.6 c 3.6,-4.8 -0.3,-11.3 -6.8,-11.3 h -70.1 c -12.3,0 -23.7,5.7 -30.3,15 l -80.6,96.1 c -12.1,14.3 -12.1,35.2 0,49.5 l 80.6,96.1 c 6.5,9.4 18,15 30.3,15 h 70.1 c 6.5,0 10.3,-6.5 6.8,-11.3 z"
           class="st2"
           id="XMLID_1182_"
           inkscape:connector-curvature="0"
           style="fill:url(#XMLID_2_);" /><g
           id="XMLID_1179_"><path
             style="fill:#14c4b4;fill-opacity:1"
             d="m 263.5,145.2 h -70.1 c -12.3,0 -23.7,5.7 -30.3,15 l -80.6,96.1 c -12.1,14.3 -12.1,35.2 0,49.5 l 42,50 8.4,10 v 0 l 6.3,7.5 c -1.8,-2.1 -14,-18.4 0.2,-37.8 v 0 l 131,-179 c 3.5,-4.8 -0.4,-11.3 -6.9,-11.3 z"
             class="st3"
             id="XMLID_1181_"
             inkscape:connector-curvature="0" /><path
             d="m 139.2,373.3 c 0.1,0.2 0.2,0.2 0.2,0.2 z"
             class="st3"
             id="XMLID_1180_"
             inkscape:connector-curvature="0"
             style="fill:#009688" /></g></g></g><g
       transform="matrix(0.99986889,0,0,0.99986889,-25.868539,133.881)"
       id="XMLID_903_-5"
       style="display:inline;fill:#616161;fill-opacity:1"><path
         style="fill:#616161;fill-opacity:1"
         d="m 388.3,82.3 v 62.3 l 34.9,-40 h 34 l -38.9,41.7 39.3,66.7 h -34 l -20,-37 c -3.6,-6.4 -7.2,-9.6 -10.8,-9.6 -3,0.6 -4.5,2.6 -4.5,5.5 v 41 H 360 V 68.4 h 14.7 c 7.5,0 13.6,6.4 13.6,13.9 z"
         class="st0"
         id="XMLID_914_-7"
         inkscape:connector-curvature="0" /><path
         style="fill:#616161;fill-opacity:1"
         d="m 492.9,129.9 h -28.3 c 3.4,-20.8 18.1,-31 44,-31 31,0 46.8,10.2 47.4,31 v 38.3 c 0,31 -18.7,44.8 -49.1,47 -27,2.1 -45.7,-10.4 -45.7,-35.3 0.6,-27 20.2,-34.2 48.7,-37 12.1,-1.5 18.3,-5.1 18.3,-11.3 -0.6,-6.4 -6.6,-9.6 -18.3,-9.6 -10,0 -15.5,2.5 -17,7.9 z m 35.7,36.9 v -10.4 c -6.6,2.8 -14.2,5.1 -22.5,6.8 -11.3,2.1 -17,7.4 -17,15.7 0.6,8.9 5.3,13.2 14.2,13.2 15.7,0 25.3,-9.3 25.3,-25.3 z"
         class="st0"
         id="XMLID_911_-4"
         inkscape:connector-curvature="0" /><path
         style="fill:#616161;fill-opacity:1"
         d="M 598.3,141.1 V 213 h -28.7 v -66.1 c 0,-32.1 16.2,-48 48.2,-48 14.5,0 25.5,3.2 33.6,9.6 8.1,-6.2 19.1,-9.1 33.6,-9.1 32.1,0 48,15.9 47.8,48 v 66.1 h -14.7 c -9.3,-0.6 -14,-5.1 -14,-14 v -57.8 c -0.6,-11.7 -7,-17.4 -19.6,-17.4 -12.5,0 -18.9,5.7 -19.1,17.4 V 213 H 637 v -71.8 c -0.6,-11.7 -7,-17.4 -19.6,-17.4 -12.6,0 -18.9,5.6 -19.1,17.3 z"
         class="st0"
         id="XMLID_909_-1"
         inkscape:connector-curvature="0" /><path
         style="fill:#616161;fill-opacity:1"
         d="m 850.6,157.3 c 0,38.7 -17.2,58.2 -51.2,58.2 -34,0 -51,-19.6 -51,-58.2 0,-39.1 17,-58.4 51,-58.4 34,0 51.2,19.3 51.2,58.4 z m -73.6,0 c 0.2,21.9 7.6,32.9 22.1,32.9 14.5,0 21.7,-11.5 21.9,-33.8 0,-21.9 -7.2,-32.7 -21.7,-32.7 -14.8,0 -22.3,11.3 -22.3,33.6 z"
         class="st0"
         id="XMLID_906_-8"
         inkscape:connector-curvature="0" /><path
         style="fill:#616161;fill-opacity:1"
         d="m 945.5,213 c -9.3,-0.6 -14,-5.1 -14,-14 v -57.8 c -0.6,-11.7 -7,-17.4 -19.6,-17.4 -12.6,0 -18.9,5.7 -19.1,17.4 V 213 h -28.7 v -66.1 c 0,-32.1 16.2,-48 48.2,-48 32.1,0 47.8,15.9 47.6,48 V 213 Z"
         class="st0"
         id="XMLID_904_-5"
         inkscape:connector-curvature="0" /></g><g
       aria-label="apm"
       style="font-style:normal;font-variant:normal;font-weight:bold;font-stretch:normal;font-size:123.63011932px;line-height:125%;font-family:Harabara;-inkscape-font-specification:'Harabara, Bold';font-variant-ligatures:normal;font-variant-caps:normal;font-variant-numeric:normal;font-feature-settings:normal;text-align:start;letter-spacing:0px;word-spacing:0px;writing-mode:lr-tb;text-anchor:start;fill:#808080;fill-opacity:1;stroke:none;stroke-width:3.09075308px;stroke-linecap:butt;stroke-linejoin:miter;stroke-opacity:1"
       id="text6560"><path
         d="m 993.00612,314.70273 q -3.38051,1.69026 -9.41714,3.13905 -5.5537,1.20732 -5.5537,1.20732 -4.34637,1.20733 -6.27809,3.13905 -1.69025,2.65611 -1.69025,5.31223 0,3.62198 2.17318,5.79516 2.17319,1.93172 6.27809,1.93172 6.76102,0 10.62447,-3.86344 3.86344,-3.86344 3.86344,-10.62446 z m 3.86344,29.70021 q -5.07077,2.65611 -10.86593,3.13904 -5.5537,0.7244 -9.90007,0.7244 -8.69274,0 -15.2123,-4.58784 -6.51955,-4.8293 -6.51955,-15.69523 0,-10.14153 5.79516,-14.4879 6.03662,-4.34638 15.2123,-5.79517 1.20732,0 2.89758,-0.24146 1.69025,-0.48293 3.86344,-0.7244 10.62446,-1.44879 10.62446,-6.27809 0,-3.62197 -3.86344,-4.58783 -3.62198,-1.20733 -6.76102,-1.20733 -3.38051,0 -6.03663,0.96586 -2.65611,0.96586 -3.86344,3.62198 h -16.17816 q 0.96586,-7.48542 6.76102,-12.31472 6.51956,-5.5537 18.59281,-5.5537 13.52205,0 20.28311,4.58784 7.0024,4.8293 7.0024,13.52204 v 21.97332 q 0,9.65861 -3.6219,15.2123 -3.3805,5.31223 -8.20984,7.72689 z"
         style="stroke-width:3.09075308px"
         id="path6562" /><path
         d="m 1027.5356,362.51282 q 0,3.38051 -2.4146,5.79516 -2.4147,2.41465 -5.7952,2.41465 h -8.2098 v -60.12481 q 0,-16.90255 9.9001,-22.93918 9.9,-6.27809 21.4904,-6.27809 6.0366,0 12.0732,2.41465 6.2781,2.17319 9.9001,6.51956 7.2439,9.41714 7.2439,24.14651 0,15.2123 -7.2439,24.62943 -7.244,9.17568 -18.5928,9.17568 -6.0367,0 -10.6245,-2.17319 -4.8293,-2.41465 -7.7269,-7.48542 z m 27.527,-47.32716 q 0,-9.41714 -3.6219,-14.4879 -3.622,-5.07077 -10.383,-5.07077 -6.5196,0 -10.1416,5.07077 -3.3805,4.58783 -3.3805,14.4879 0,9.17567 3.622,13.76351 3.622,5.07077 10.383,5.07077 6.2781,0 9.9001,-5.07077 3.6219,-5.07077 3.6219,-13.76351 z"
         style="stroke-width:3.09075308px"
         id="path6564" /><path
         d="m 1130.6412,347.05905 h -16.6611 v -37.66855 -3.38051 q 0,-5.79516 -3.622,-8.45128 -3.3805,-2.65612 -7.7268,-2.65612 -4.3464,0 -7.7269,2.65612 -3.3805,2.65612 -3.3805,8.45128 v 41.04906 h -16.9026 V 309.3905 q 0,-16.41963 8.4513,-21.97332 8.6927,-5.5537 19.0757,-6.03663 5.5537,0 10.866,1.20733 5.3122,1.20732 9.6586,4.8293 3.6219,-3.13905 8.4512,-4.34637 5.0708,-1.44879 10.383,-1.69026 10.6245,0 19.5587,5.5537 8.9342,5.55369 8.9342,22.45625 v 37.66855 h -8.4513 q -3.6219,0 -6.0366,-2.17318 -2.1732,-2.41465 -2.1732,-6.03663 v 0 -32.83925 q 0,-5.79516 -3.622,-8.45128 -3.3805,-2.65612 -7.7268,-2.65612 -4.3464,0 -7.9684,2.65612 -3.3805,2.65612 -3.3805,8.45128 v 3.38051 z"
         style="stroke-width:3.09075308px"
         id="path6566" /></g></g></svg>