<?xml version="1.0" encoding="UTF-8" standalone="no"?>
<!-- Created with Inkscape (http://www.inkscape.org/) -->

<svg
   xmlns:dc="http://purl.org/dc/elements/1.1/"
   xmlns:cc="http://creativecommons.org/ns#"
   xmlns:rdf="http://www.w3.org/1999/02/22-rdf-syntax-ns#"
   xmlns:svg="http://www.w3.org/2000/svg"
   xmlns="http://www.w3.org/2000/svg"
   xmlns:sodipodi="http://sodipodi.sourceforge.net/DTD/sodipodi-0.dtd"
   xmlns:inkscape="http://www.inkscape.org/namespaces/inkscape"
   width="50.900993mm"
   height="23.458454mm"
   viewBox="0 0 50.900993 23.458454"
   version="1.1"
   id="svg8"
   inkscape:version="0.92.3 (2405546, 2018-03-11)"
   sodipodi:docname="kamon-and-apm-puzzle.svg">
  <defs
     id="defs2">
    <inkscape:path-effect
       effect="envelope"
       id="path-effect5230"
       is_visible="true"
       yy="true"
       xx="true"
       bendpath1="m 24.335417,53.030806 59.525734,-0.78322"
       bendpath2="M 76.140943,53.030806 V 82.643417"
       bendpath3="m 28.30581,81.33805 47.835133,1.305367"
       bendpath4="m 22.129643,50.158998 2.205774,32.484419"
       bendpath1-nodetypes="cc"
       bendpath3-nodetypes="cc"
       bendpath4-nodetypes="cc" />
    <inkscape:path-effect
       effect="simplify"
       id="path-effect5228"
       is_visible="true"
       steps="14"
       threshold="0.002"
       smooth_angles="0"
       helper_size="5"
       simplify_individual_paths="false"
       simplify_just_coalesce="false" />
    <inkscape:path-effect
       effect="bend_path"
       id="path-effect5224"
       is_visible="true"
       bendpath="M 25.02043,61.378695 76.494337,72.343782"
       prop_scale="0.83536333"
       scale_y_rel="false"
       vertical="false"
       bendpath-nodetypes="cc" />
    <inkscape:path-effect
       effect="perspective-envelope"
       up_left_point="26.877093,47.347224"
       up_right_point="92.945598,47.347224"
       down_left_point="25.371345,75.410167"
       down_right_point="94.451345,75.410167"
       id="path-effect5222"
       is_visible="true"
       deform_type="perspective"
       horizontal_mirror="false"
       vertical_mirror="true"
       overflow_perspective="false" />
    <inkscape:path-effect
       effect="bend_path"
       id="path-effect5220"
       is_visible="true"
       bendpath="M 25.02043,61.378695 H 94.80226"
       prop_scale="1"
       scale_y_rel="false"
       vertical="false" />
    <linearGradient
       id="XMLID_2_"
       gradientUnits="userSpaceOnUse"
       x1="128.8129"
       y1="283.35001"
       x2="274.68771"
       y2="283.35001"
       gradientTransform="matrix(1,0,0,-1,0,564.4)">
      <stop
         offset="0"
         style="stop-color:#0a6e65;stop-opacity:1"
         id="stop19" />
      <stop
         offset="1"
         style="stop-color:#14c4b4;stop-opacity:1"
         id="stop21" />
    </linearGradient>
  </defs>
  <sodipodi:namedview
     id="base"
     pagecolor="#ffffff"
     bordercolor="#666666"
     borderopacity="1.0"
     inkscape:pageopacity="0.0"
     inkscape:pageshadow="2"
     inkscape:zoom="3.959798"
     inkscape:cx="39.95742"
     inkscape:cy="42.699915"
     inkscape:document-units="mm"
     inkscape:current-layer="g5218"
     showgrid="false"
     inkscape:window-width="2560"
     inkscape:window-height="1415"
     inkscape:window-x="1920"
     inkscape:window-y="0"
     inkscape:window-maximized="0"
     fit-margin-top="0"
     fit-margin-left="0"
     fit-margin-right="0"
     fit-margin-bottom="0" />
  <metadata
     id="metadata5">
    <rdf:RDF>
      <cc:Work
         rdf:about="">
        <dc:format>image/svg+xml</dc:format>
        <dc:type
           rdf:resource="http://purl.org/dc/dcmitype/StillImage" />
        <dc:title></dc:title>
      </cc:Work>
    </rdf:RDF>
  </metadata>
  <g
     inkscape:label="Layer 1"
     inkscape:groupmode="layer"
     id="layer1"
     transform="translate(-70.479052,-28.09371)">
    <g
       id="g5218"
       transform="matrix(0.85678818,0,0,0.72388848,57.987005,-13.574203)"
       inkscape:path-effect="#path-effect5224;#path-effect5230">
      <path
         inkscape:connector-curvature="0"
         id="path5214"
         d="m 32.377104,80.944354 c -0.412689,-0.152217 -1.670652,-0.452918 -2.887678,-0.668789 -0.727104,-0.128972 -1.461935,-0.252787 -2.203897,-0.370848 -0.117121,-0.985156 -0.204283,-1.998808 -0.262889,-3.031934 -0.101406,-1.787642 -0.08118,-3.430181 -0.05183,-3.963236 0.04053,-0.736004 0.03227,-0.847791 -0.137377,-1.13838 -0.265689,-0.455089 -0.877198,-0.505687 -1.821424,-0.122884 -0.592844,0.240343 -0.807455,0.274007 -1.054243,0.153537 -0.439515,-0.214548 -0.671793,-0.52084 -0.877122,-1.189412 -0.149314,-0.486178 -0.178265,-0.800404 -0.108119,-1.994605 0.09495,-1.616453 0.313063,-2.192447 0.840834,-2.542974 0.438141,-0.290999 0.660832,-0.195051 1.591442,0.639413 0.956907,0.858042 1.260948,0.966816 1.593691,0.607573 0.223426,-0.241219 0.237731,-0.318611 0.255437,-1.042786 0.0126,-0.51511 0.128634,-2.14135 0.357478,-3.928362 0.132261,-1.032805 0.284338,-2.045222 0.45378,-3.031853 -0.03981,-0.01101 1.615909,0.447328 1.576104,0.436313 2.145827,0.594308 2.387932,0.670931 3.878993,1.227657 -0.01928,-0.0072 1.32907,0.496926 1.309796,0.48973 0.09036,-0.07896 0.18092,-0.157718 0.271695,-0.236277 0.348484,-0.30158 0.354196,-0.584936 0.09643,-1.755848 -0.226765,-1.030013 -0.156483,-1.397576 0.284464,-1.674141 0.545868,-0.342387 0.918138,-0.329948 2.281794,0.06264 1.361807,0.392054 1.66947,0.575678 1.961108,1.168778 0.238783,0.485601 0.115104,0.834788 -0.515471,1.626336 -0.704072,0.8838 -0.789761,1.162867 -0.595091,1.617321 0.05197,0.121331 0.104182,0.242843 0.156654,0.364586 -0.008,-0.0018 1.325233,0.294161 1.317219,0.292384 1.472728,0.327246 1.746472,0.401527 3.693786,1.03171 -0.01033,-0.0033 1.428022,0.463595 1.417688,0.460251 -0.16101,0.998401 -0.294325,2.009314 -0.403903,3.029899 -0.186387,1.736383 -0.26649,3.36481 -0.270036,3.827401 -0.0046,0.598523 -0.02986,0.776287 -0.14369,0.904476 -0.213957,0.240907 -0.469327,0.103021 -1.307773,-0.69958 -1.137243,-1.088633 -1.665243,-1.090851 -2.149463,0.03663 -0.198114,0.461305 -0.242631,0.699567 -0.274048,1.860589 -0.04191,1.555703 0.137319,2.34346 0.571716,2.874418 0.49011,0.599052 0.710899,0.650603 1.604833,0.379246 1.420796,-0.43129 1.593276,-0.160019 1.413789,1.826583 -0.05955,0.659298 -0.09869,2.178466 -0.0905,3.525466 0.0028,0.462258 0.01406,1.877561 0.01684,2.339819 -0.516695,-0.20162 -1.041385,-0.401657 -1.573927,-0.599963 -1.092453,-0.406804 -2.022333,-0.670877 -2.905458,-0.837269 -0.986284,-0.185826 -1.353422,-0.282042 -1.513396,-0.421969 -0.315824,-0.276233 -0.318161,-0.701439 0.02687,-1.496826 0.512618,-1.181731 0.321359,-1.960462 -0.766585,-2.696652 -0.721181,-0.488012 -2.357418,-0.935034 -3.077504,-0.830162 -1.072051,0.156139 -1.217602,0.855942 -0.441946,2.386647 0.488568,0.964185 0.613864,1.458571 0.377059,1.58247 -0.167877,0.08783 -0.884605,-0.09663 -1.916338,-0.477173 0,0 2.05e-4,4.8e-5 2.05e-4,4.8e-5 z"
         style="opacity:1;fill:#34cc5b;fill-opacity:1;stroke:none;stroke-width:0.25253814;stroke-linecap:round;stroke-linejoin:round;stroke-miterlimit:4;stroke-dasharray:none;stroke-dashoffset:0;stroke-opacity:1;paint-order:normal"
         inkscape:original-d="M 38.983535,75.04272 C 38.358793,74.97584 36.323234,74.95877 34.46007,75.0048 l -3.387571,0.08369 0.08054,-3.451783 c 0.0443,-1.898481 0.115328,-3.852786 0.157847,-4.342897 0.06913,-0.79687 0.04627,-0.922155 -0.216162,-1.184587 -0.418626,-0.418624 -1.363007,-0.308793 -2.796806,0.325276 -0.899219,0.397658 -1.227555,0.482378 -1.603617,0.413766 -0.674454,-0.123053 -1.02775,-0.390271 -1.37146,-1.037312 -0.258841,-0.487273 -0.3009,-0.770446 -0.302397,-2.035977 -0.002,-1.695394 0.216997,-2.32519 0.986874,-2.837974 0.626016,-0.416965 0.985153,-0.383894 2.520519,0.232098 1.573209,0.631174 2.049078,0.667954 2.522097,0.194934 0.312576,-0.312576 0.333329,-0.405638 0.26076,-1.169304 -0.04336,-0.456335 -0.114638,-2.378192 -0.158386,-4.270796 l -0.07954,-3.441094 2.518811,-0.03093 c 3.451979,-0.04239 3.818983,-0.03704 6.280166,0.0916 l 2.157724,0.112774 0.35115,-0.351169 c 0.44557,-0.445587 0.37926,-0.768802 -0.40987,-1.998003 -0.702774,-1.094653 -0.743575,-1.53978 -0.18428,-2.0104 0.69087,-0.581355 1.24498,-0.691539 3.47786,-0.691539 2.23287,0 2.78699,0.110184 3.47789,0.691539 0.55931,0.47062 0.5185,0.915747 -0.18428,2.0104 -0.78917,1.229201 -0.85548,1.552416 -0.40989,1.998003 l 0.35117,0.351169 2.15773,-0.112774 c 2.45621,-0.128373 2.848,-0.134173 6.18703,-0.0916 l 2.42568,0.03093 0.0795,3.441094 c 0.0438,1.892604 0.11468,3.807769 0.15764,4.255926 0.0626,0.652627 0.0341,0.858793 -0.14275,1.035669 -0.33549,0.335492 -0.78054,0.27151 -2.25778,-0.32458 -2.0129,-0.812247 -2.85605,-0.633783 -3.55663,0.752816 -0.29641,0.586666 -0.33392,0.826995 -0.33265,2.131211 0.002,1.734817 0.27928,2.547908 1.02514,3.00283 0.83187,0.507378 1.20924,0.490853 2.73751,-0.119893 2.40891,-0.962679 2.75994,-0.74118 2.47486,1.561632 -0.0886,0.715949 -0.16056,2.555845 -0.15986,4.088659 l 0.001,2.786933 -2.92266,-0.09727 c -2.00501,-0.06673 -3.64053,-0.04302 -5.20903,0.0755 -1.73266,0.130927 -2.36793,0.135599 -2.62318,0.01929 -0.51228,-0.233413 -0.43709,-0.762442 0.26169,-1.841159 1.03261,-1.59407 0.7407,-2.426952 -1.02607,-2.927525 -1.16706,-0.330663 -3.85773,-0.330663 -5.02479,0 -1.766719,0.500573 -2.058634,1.333455 -1.02602,2.927525 0.65349,1.008846 0.7617,1.585203 0.34,1.810901 -0.30007,0.160597 -1.468054,0.153135 -3.08237,-0.01968 z" />
      <path
         sodipodi:nodetypes="cscccccccccccccccccccccsccccsccssccccsccccccccscccccscccccccscccscccc"
         inkscape:connector-curvature="0"
         id="path1507"
         d="M 49.129502,86.406617 C 48.195447,85.874558 47.8528,85.715819 46.112091,85.116904 45.514653,84.911348 44.906908,84.707626 44.288934,84.50613 c -2.68e-4,-0.05415 -0.0038,-0.704947 -0.0041,-0.759094 -0.0024,-0.417598 -0.01753,-1.165981 -0.03337,-1.657667 -0.05276,-1.640039 -0.04334,-2.241482 0.0512,-3.221954 0.100779,-1.044979 0.128548,-1.686985 0.06623,-1.936497 -0.09482,-0.379713 -0.403454,-0.572331 -0.82779,-0.512651 -0.115313,0.01623 -0.464087,0.116791 -0.775001,0.223574 -0.423183,0.23702 -0.830878,0.188067 -1.268648,-0.115726 -0.405808,-0.355467 -0.661391,-0.935362 -0.786263,-1.839455 -0.04496,-0.325445 -0.0541,-0.519763 -0.03448,-1.262219 0.02648,-1.008462 0.08324,-1.342774 0.279502,-1.849606 0.220699,-0.570019 0.532305,-0.822667 0.966426,-0.797423 0.315703,0.01836 0.42028,0.08789 1.006911,0.672874 0.659896,0.658047 0.872734,0.828583 1.14995,0.917835 0.177881,0.05728 0.226227,0.05682 0.317061,-0.003 0.06285,-0.04142 0.127717,-0.128647 0.156921,-0.210846 0.07867,-0.221448 0.09747,-0.8535 0.09454,-1.968665 -0.0026,-0.99712 0.04224,-1.721447 0.301033,-3.316197 0.08484,-0.522729 0.214673,-1.303737 0.286067,-1.73626 0.04328,-0.262138 0.08839,-0.523422 0.135401,-0.783799 -0.01141,-0.0032 1.36809,0.380783 1.356679,0.377616 2.135371,0.596147 2.791733,0.816134 3.591745,1.181579 0.881459,0.402649 1.326138,0.535708 1.525906,0.450613 0.336442,-0.143302 0.360873,-0.602298 0.133334,-1.642572 -0.0415,-0.18973 -0.09887,-0.479145 -0.135831,-0.686462 -0.05982,-0.335518 -0.05976,-0.376035 -0.006,-0.609347 0.172901,-0.751772 0.731173,-1.09768 1.621545,-1.040768 0.598181,0.03823 1.640998,0.377645 2.136622,0.695418 0.716001,0.459076 0.98933,1.088395 0.829075,1.841779 -0.04307,0.202297 -0.160254,0.386719 -0.575409,0.946772 -0.390003,0.526128 -0.532948,0.804932 -0.586553,1.117655 -0.03917,0.228509 -0.03705,0.255793 0.02344,0.392955 0.03581,0.08116 0.102107,0.174586 0.147198,0.207567 0.149858,0.109606 1.032261,0.366425 1.549385,0.452057 0.43022,0.07125 0.682953,0.142461 1.631546,0.471786 0.640051,0.222162 1.474385,0.525136 1.967021,0.713213 0.283849,0.108368 0.567008,0.21697 0.849531,0.325835 -0.07806,0.57418 -0.150898,1.149824 -0.220439,1.727286 -0.354216,2.941461 -0.345727,3.103075 -0.564246,4.128406 -0.362116,1.699229 -0.383932,2.129987 -0.09659,2.391671 0.203364,0.18521 0.496527,0.15396 1.309981,-0.136089 -0.0062,0.0022 0.517157,-0.184154 0.510911,-0.181927 2.9e-5,1.1e-5 0.207187,0.07711 0.207216,0.07712 0.677135,0.252346 0.951362,1.158294 0.741646,2.784888 -0.06971,0.540776 -0.219652,1.213978 -0.372493,1.682651 -0.340405,1.043952 -0.788339,1.563911 -1.26373,1.544884 -0.282305,-0.0113 -0.362573,-0.09331 -0.777373,-0.687768 -0.543735,-0.779252 -0.789353,-0.986552 -1.020968,-0.947122 -0.07154,0.01219 -0.159209,0.05786 -0.194909,0.101517 -0.173599,0.212312 -0.244362,0.724261 -0.452812,2.125767 -0.082,0.551374 -0.299607,1.829028 -1.131153,4.146632 -0.200146,0.557831 -0.415434,1.112903 -0.647744,1.664437 -0.447178,-0.231378 -0.903821,-0.462642 -1.370375,-0.693664 -1.296183,-0.641831 -1.501068,-0.711861 -1.96924,-0.838925 -0.295477,-0.0802 -0.700331,-0.216641 -0.89028,-0.299956 -0.116074,-0.05092 -0.232679,-0.101802 -0.349818,-0.15265 -0.02946,-0.05701 -0.05921,-0.114013 -0.08924,-0.17102 -0.220151,-0.417923 -0.08541,-0.889119 0.526605,-1.813325 0.406141,-0.613314 0.413122,-0.631025 0.449747,-0.911374 0.103417,-0.79169 -0.281047,-1.409184 -1.20901,-1.902908 -0.695872,-0.37024 -1.549822,-0.567213 -2.011713,-0.471199 -0.435453,0.0905 -0.652129,0.342594 -0.74373,0.853307 -0.03991,0.222602 -0.01514,0.312171 0.188417,1.085508 0.238178,0.90492 0.277932,1.357121 0.200036,1.654712 -0.04533,0.173065 -0.18258,0.328925 -0.302644,0.34601 -0.08785,0.0125 -0.588917,-0.149947 -0.756318,-0.245297 0,0 2.6e-5,3.9e-5 2.6e-5,3.9e-5 z"
         style="opacity:1;fill:#14c4b4;fill-opacity:1;stroke:none;stroke-width:0.08703972;stroke-linecap:round;stroke-linejoin:round;stroke-miterlimit:4;stroke-dasharray:none;stroke-dashoffset:0;stroke-opacity:1;paint-order:normal"
         inkscape:original-d="m 69.176089,75.398392 c -2.1408,-0.201125 -2.53654,-0.212629 -6.14007,-0.178498 l -3.51341,0.03328 -5.1e-4,-0.916731 c -2.5e-4,-0.504201 -0.0208,-1.384475 -0.0456,-1.956165 -0.0829,-1.91321 -0.067,-2.56811 0.0902,-3.732515 0.16432,-1.216892 0.18883,-1.946605 0.0739,-2.201412 -0.17624,-0.390811 -0.71657,-0.497639 -1.44245,-0.285184 -0.19755,0.05783 -0.79361,0.290155 -1.32454,0.516289 -0.72227,0.411006 -1.42127,0.495254 -2.16566,0.301971 -0.69228,-0.262935 -1.11665,-0.827109 -1.3467,-1.790377 -0.086,-0.360037 -0.0994,-0.544864 -0.10067,-1.384088 -0.002,-1.131351 0.0563,-1.489433 0.34356,-2.121284 0.31626,-0.695727 0.79807,-1.073319 1.51807,-1.189712 0.52353,-0.08463 0.70288,-0.0434 1.73789,0.399521 1.16381,0.498046 1.53832,0.612907 2.01155,0.616937 0.30425,0.0026 0.38575,-0.01431 0.53273,-0.110453 0.10178,-0.06658 0.20223,-0.18378 0.24297,-0.283483 0.10686,-0.261538 0.081,-0.972185 -0.0793,-2.177971 -0.1585,-1.192604 -0.17309,-1.778074 -0.0924,-3.708891 0.025,-0.597675 0.0458,-1.492975 0.0462,-1.989556 l 7.5e-4,-0.902874 2.32357,-0.04207 c 3.70378,-0.06705 4.8306,-0.05431 6.29623,0.07119 1.59472,0.136554 2.38899,0.126599 2.70203,-0.03387 0.52501,-0.269114 0.44439,-0.778111 -0.28942,-1.827523 -0.1272,-0.181901 -0.33795,-0.496864 -0.46835,-0.699918 -0.22308,-0.347382 -0.23705,-0.386451 -0.23664,-0.661458 9.5e-4,-0.879189 0.76726,-1.443788 2.28408,-1.683665 1.01138,-0.159945 2.93086,-0.147734 3.90986,0.02487 1.4182,0.250045 2.15562,0.831297 2.15676,1.70003 2.4e-4,0.228812 -0.13427,0.477433 -0.66179,1.222694 -0.50061,0.707251 -0.66252,1.052136 -0.66252,1.41126 0,0.260712 0.0104,0.28839 0.15508,0.415543 0.0853,0.07493 0.22673,0.152325 0.3143,0.171998 0.29265,0.06574 1.8953,0.03062 2.83077,-0.06205 0.78475,-0.07773 1.22827,-0.08931 3.00829,-0.07854 1.14833,0.0069 2.81523,0.02821 3.70425,0.04725 l 1.6164,0.03462 0.0434,1.937128 c 0.0695,3.101143 0.0601,3.640152 -0.0812,4.630207 -0.2775,1.944687 -0.20757,2.409671 0.38783,2.578883 0.4221,0.119962 0.95926,-0.02286 2.38887,-0.635132 l 0.898,-0.384599 0.4041,0.0035 c 1.33491,0.01169 2.05598,0.866333 2.22743,2.640044 0.0558,0.576979 0.0273,1.353127 -0.069,1.88065 -0.21933,1.201902 -0.80905,1.899743 -1.7492,2.069931 -0.54315,0.09832 -0.75885,0.05087 -1.80397,-0.396769 -1.36885,-0.586306 -1.882,-0.714693 -2.32046,-0.580567 -0.13211,0.04042 -0.28328,0.121983 -0.33595,0.181263 -0.23549,0.265099 -0.24298,0.873612 -0.0293,2.375641 0.14143,0.993912 0.15227,1.602629 0.0829,4.653833 l -0.0435,1.913506 -3.50942,-0.01497 c -3.3115,-0.01413 -3.57863,-0.009 -4.73694,0.09088 -0.67514,0.05821 -1.59122,0.107471 -2.03573,0.10946 l -0.8082,0.0036 -0.26661,-0.141742 c -0.64912,-0.345099 -0.56093,-0.92877 0.33196,-2.196987 0.59321,-0.842563 0.59941,-0.855207 0.57732,-1.1767 -0.0615,-0.894733 -0.99407,-1.39946 -2.88766,-1.562877 -1.41985,-0.122534 -3.07035,-1.91e-4 -3.92875,0.291271 -0.80832,0.274442 -1.18524,0.644563 -1.27927,1.256216 -0.0393,0.255865 0.0155,0.369212 0.55419,1.144844 0.64448,0.928015 0.84884,1.402887 0.76761,1.783678 -0.0462,0.216347 -0.28153,0.456372 -0.52096,0.53127 -0.17799,0.05568 -1.22914,0.09895 -1.58696,0.06534 z" />
      <text
         xml:space="preserve"
         style="font-style:normal;font-weight:normal;font-size:13.43847275px;line-height:125%;font-family:sans-serif;letter-spacing:0px;word-spacing:0px;fill:#000000;fill-opacity:1;stroke:none;stroke-width:0.33596182px;stroke-linecap:butt;stroke-linejoin:miter;stroke-opacity:1"
         x="35.359898"
         y="64.877983"
         id="text5253"
         transform="scale(0.9191769,1.0879299)"><tspan
           sodipodi:role="line"
           id="tspan5251"
           x="35.359898"
           y="76.767883"
           style="stroke-width:0.33596182px"></tspan></text>
    </g>
    <g
       transform="matrix(0.37482671,0.06986111,-0.06986111,0.37482671,132.62589,-71.494831)"
       id="layer1-8"
       inkscape:label="Layer 1">
      <g
         id="XMLID_1177_"
         transform="matrix(0.07790062,0,0,0.07787589,1.1626865e-8,264.52574)">
        <g
           id="XMLID_1183_">
          <path
             inkscape:connector-curvature="0"
             id="XMLID_1185_"
             class="st1"
             d="m 7.1,256.4 85,-102.1 c 3.4,-3.8 0,-9.1 -5.8,-9.1 H 10.1 C 4.5,145.2 0,149.7 0,155.3 v 79 19.7 c 0,3.7 4.6,5.3 7.1,2.4 -0.1,0 0,0 0,0 z"
             style="fill:#dadada;fill-opacity:1" />
          <path
             inkscape:connector-curvature="0"
             id="XMLID_1184_"
             class="st1"
             d="M 7.1,305.8 7,305.7 c -2.4,-2.8 -7,-1.3 -7,2.5 v 19.7 79 c 0,5.6 4.5,10.1 10.1,10.1 h 76.1 c 5.8,0 9.2,-5.3 5.8,-9.1 z"
             style="fill:#dadada;fill-opacity:1" />
        </g>
        <g
           id="XMLID_1178_">
          <linearGradient
             id="linearGradient7798"
             gradientUnits="userSpaceOnUse"
             x1="128.8129"
             y1="283.35001"
             x2="274.68771"
             y2="283.35001"
             gradientTransform="matrix(1,0,0,-1,0,564.4)">
            <stop
               offset="0"
               style="stop-color:#0a6e65;stop-opacity:1"
               id="stop7794" />
            <stop
               offset="1"
               style="stop-color:#14c4b4;stop-opacity:1"
               id="stop7796" />
          </linearGradient>
          <path
             style="fill:url(#XMLID_2_)"
             inkscape:connector-curvature="0"
             id="XMLID_1182_"
             class="st2"
             d="m 179.2,281.1 91.1,-124.6 c 3.6,-4.8 -0.3,-11.3 -6.8,-11.3 h -70.1 c -12.3,0 -23.7,5.7 -30.3,15 l -80.6,96.1 c -12.1,14.3 -12.1,35.2 0,49.5 l 80.6,96.1 c 6.5,9.4 18,15 30.3,15 h 70.1 c 6.5,0 10.3,-6.5 6.8,-11.3 z" />
          <g
             id="XMLID_1179_">
            <path
               inkscape:connector-curvature="0"
               id="XMLID_1181_"
               class="st3"
               d="m 263.5,145.2 h -70.1 c -12.3,0 -23.7,5.7 -30.3,15 l -80.6,96.1 c -12.1,14.3 -12.1,35.2 0,49.5 l 42,50 8.4,10 v 0 l 6.3,7.5 c -1.8,-2.1 -14,-18.4 0.2,-37.8 v 0 l 131,-179 c 3.5,-4.8 -0.4,-11.3 -6.9,-11.3 z"
               style="fill:#14c4b4;fill-opacity:1" />
            <path
               style="fill:#009688"
               inkscape:connector-curvature="0"
               id="XMLID_1180_"
               class="st3"
               d="m 139.2,373.3 c 0.1,0.2 0.2,0.2 0.2,0.2 z" />
          </g>
        </g>
      </g>
    </g>
    <g
       transform="matrix(0.40271873,-0.02932866,0.02932866,0.40271873,62.903752,-70.89223)"
       id="layer1-3"
       inkscape:label="Layer 1">
      <g
         transform="translate(2.5731508,1.29467)"
         id="g7208">
        <path
           style="display:inline;fill:#dadada;fill-opacity:1;stroke-width:0.07216745"
           d="m 8.532606,292.74766 2.634115,2.74236 c 0.0866,0.0866 0.223718,0.14433 0.360836,0.14433 h 6.458987 c 0.375268,0 0.59899,-0.33918 0.375268,-0.58455 l -5.989896,-7.39716 c -0.129902,-0.14434 -0.375272,-0.13713 -0.497956,0.007 l -3.3630051,4.6548 c -0.1154663,0.1299 -0.1010308,0.3031 0.021668,0.433 z"
           class="st1"
           id="XMLID_902_-7"
           inkscape:connector-curvature="0" />
        <path
           style="display:inline;fill:#199053;fill-opacity:1;stroke-width:0.07216745"
           d="M 2.9973641,276.06254 C 2.477757,275.47799 1.784951,275.1388 1.0560593,275.1388 c -1.24849671,0 -2.3526589,0.98148 -2.6990625,2.41039 -0.4907388,2.06399 -0.7866252,4.17128 -0.880443,6.29301 v 0 l 0.707241,0.96703 c 1.26293015,1.73924 3.4568207,1.81862 4.8135693,0.32476 0.2020675,-0.16599 0.3897021,-0.35362 0.5629063,-0.56291 l 3.0743308,-3.71662 c -0.00722,0 -3.4568204,-4.63315 -3.6372371,-4.79192 z"
           class="st2"
           id="XMLID_901_-8"
           inkscape:connector-curvature="0" />
        <path
           d="m 17.979325,275.1388 h -5.289874 c -0.930961,0 -1.789753,0.42578 -2.287707,1.13303 l -3.7815753,4.58263 -3.0743314,3.71662 c -0.1732042,0.20929 -0.3608413,0.38971 -0.5629062,0.56291 -1.3567513,1.49386 -3.55063943,1.41448 -4.8135699,-0.32476 l -0.7072407,-0.96703 v 0 0 0 c -0.1010349,2.22275 0.014433,4.45272 0.3536203,6.65383 0,0.007 0,0.007 0,0.0144 0.028867,0.16599 0.050517,0.33919 0.079384,0.50518 0.00722,0.0289 0.00722,0.0578 0.014433,0.0866 0.021648,0.14434 0.050517,0.29588 0.079384,0.44022 0.00722,0.0361 0.014433,0.0722 0.021648,0.10825 0.028867,0.14434 0.057734,0.28145 0.086601,0.42579 0.00722,0.036 0.014433,0.065 0.021648,0.10103 0.036084,0.15877 0.064951,0.31754 0.1010343,0.47631 0,0.0144 0.00722,0.0289 0.00722,0.0361 0.3536206,1.60933 1.50829976,2.77123 2.8794813,2.92278 0.014433,0 0.021651,0.007 0.036084,0.007 0.093818,0.007 0.1804186,0.0144 0.2742352,0.0144 0,0 0.00722,0 0.00722,0 v 0 c 2.3310105,0 3.6588908,-1.31344 4.3228304,-2.22276 l 12.744772,-17.42101 c 0.267019,-0.36805 -0.02167,-0.85157 -0.512388,-0.85157 z"
           class="st3"
           id="XMLID_900_-8"
           inkscape:connector-curvature="0"
           style="display:inline;fill:#34cc5b;fill-opacity:1;stroke-width:0.07216745" />
      </g>
    </g>
  </g>
</svg>
