<?xml version="1.0" encoding="UTF-8" standalone="no"?>
<svg
   xmlns:dc="http://purl.org/dc/elements/1.1/"
   xmlns:cc="http://creativecommons.org/ns#"
   xmlns:rdf="http://www.w3.org/1999/02/22-rdf-syntax-ns#"
   xmlns:svg="http://www.w3.org/2000/svg"
   xmlns="http://www.w3.org/2000/svg"
   xmlns:sodipodi="http://sodipodi.sourceforge.net/DTD/sodipodi-0.dtd"
   xmlns:inkscape="http://www.inkscape.org/namespaces/inkscape"
   xml:space="preserve"
   viewBox="0 145.2 1200 271.8"
   y="0px"
   x="0px"
   id="Layer_1"
   version="1.1"
   sodipodi:docname="kamon-apm-logo.svg"
   inkscape:version="0.92.3 (2405546, 2018-03-11)"
   width="1200"
   height="271.79999"><sodipodi:namedview
     pagecolor="#ffffff"
     bordercolor="#666666"
     borderopacity="1"
     objecttolerance="10"
     gridtolerance="10"
     guidetolerance="10"
     inkscape:pageopacity="0"
     inkscape:pageshadow="2"
     inkscape:window-width="2560"
     inkscape:window-height="1415"
     id="namedview5422"
     showgrid="false"
     inkscape:zoom="90.509668"
     inkscape:cx="1205.8709"
     inkscape:cy="159.86772"
     inkscape:window-x="0"
     inkscape:window-y="0"
     inkscape:window-maximized="0"
     inkscape:current-layer="XMLID_1176_" /><metadata
     id="metadata31"><rdf:RDF><cc:Work
         rdf:about=""><dc:format>image/svg+xml</dc:format><dc:type
           rdf:resource="http://purl.org/dc/dcmitype/StillImage" /><dc:title></dc:title></cc:Work></rdf:RDF></metadata><defs
     id="defs29" /><style
     id="style3"
     type="text/css">
	.st0{fill:#333333;}
	.st1{fill:#BBBBBB;}
	.st2{fill:url(#XMLID_2_);}
	.st3{fill:#009688;}
</style><g
     id="XMLID_1176_"><g
       id="XMLID_1177_"><g
         id="XMLID_1183_"><path
           style="fill:#dadada;fill-opacity:1"
           d="m 7.1,256.4 85,-102.1 c 3.4,-3.8 0,-9.1 -5.8,-9.1 H 10.1 C 4.5,145.2 0,149.7 0,155.3 v 79 19.7 c 0,3.7 4.6,5.3 7.1,2.4 -0.1,0 0,0 0,0 z"
           class="st1"
           id="XMLID_1185_"
           inkscape:connector-curvature="0" /><path
           style="fill:#dadada;fill-opacity:1"
           d="M 7.1,305.8 7,305.7 c -2.4,-2.8 -7,-1.3 -7,2.5 v 19.7 79 c 0,5.6 4.5,10.1 10.1,10.1 h 76.1 c 5.8,0 9.2,-5.3 5.8,-9.1 z"
           class="st1"
           id="XMLID_1184_"
           inkscape:connector-curvature="0" /></g><g
         id="XMLID_1178_"><linearGradient
           gradientTransform="matrix(1,0,0,-1,0,564.4)"
           y2="283.35001"
           x2="274.68771"
           y1="283.35001"
           x1="128.8129"
           gradientUnits="userSpaceOnUse"
           id="XMLID_2_"><stop
             id="stop19"
             style="stop-color:#0a6e65;stop-opacity:1"
             offset="0" /><stop
             id="stop21"
             style="stop-color:#14c4b4;stop-opacity:1"
             offset="1" /></linearGradient><path
           d="m 179.2,281.1 91.1,-124.6 c 3.6,-4.8 -0.3,-11.3 -6.8,-11.3 h -70.1 c -12.3,0 -23.7,5.7 -30.3,15 l -80.6,96.1 c -12.1,14.3 -12.1,35.2 0,49.5 l 80.6,96.1 c 6.5,9.4 18,15 30.3,15 h 70.1 c 6.5,0 10.3,-6.5 6.8,-11.3 z"
           class="st2"
           id="XMLID_1182_"
           inkscape:connector-curvature="0"
           style="fill:url(#XMLID_2_)" /><g
           id="XMLID_1179_"><path
             style="fill:#14c4b4;fill-opacity:1"
             d="m 263.5,145.2 h -70.1 c -12.3,0 -23.7,5.7 -30.3,15 l -80.6,96.1 c -12.1,14.3 -12.1,35.2 0,49.5 l 42,50 8.4,10 v 0 l 6.3,7.5 c -1.8,-2.1 -14,-18.4 0.2,-37.8 v 0 l 131,-179 c 3.5,-4.8 -0.4,-11.3 -6.9,-11.3 z"
             class="st3"
             id="XMLID_1181_"
             inkscape:connector-curvature="0" /><path
             d="m 139.2,373.3 c 0.1,0.2 0.2,0.2 0.2,0.2 z"
             class="st3"
             id="XMLID_1180_"
             inkscape:connector-curvature="0"
             style="fill:#009688" /></g></g></g><g
       transform="matrix(0.99986889,0,0,0.99986889,-25.868539,133.881)"
       id="XMLID_903_-5"
       style="display:inline;fill:#616161;fill-opacity:1"><path
         style="fill:#616161;fill-opacity:1"
         d="m 388.3,82.3 v 62.3 l 34.9,-40 h 34 l -38.9,41.7 39.3,66.7 h -34 l -20,-37 c -3.6,-6.4 -7.2,-9.6 -10.8,-9.6 -3,0.6 -4.5,2.6 -4.5,5.5 v 41 H 360 V 68.4 h 14.7 c 7.5,0 13.6,6.4 13.6,13.9 z"
         class="st0"
         id="XMLID_914_-7"
         inkscape:connector-curvature="0" /><path
         style="fill:#616161;fill-opacity:1"
         d="m 492.9,129.9 h -28.3 c 3.4,-20.8 18.1,-31 44,-31 31,0 46.8,10.2 47.4,31 v 38.3 c 0,31 -18.7,44.8 -49.1,47 -27,2.1 -45.7,-10.4 -45.7,-35.3 0.6,-27 20.2,-34.2 48.7,-37 12.1,-1.5 18.3,-5.1 18.3,-11.3 -0.6,-6.4 -6.6,-9.6 -18.3,-9.6 -10,0 -15.5,2.5 -17,7.9 z m 35.7,36.9 v -10.4 c -6.6,2.8 -14.2,5.1 -22.5,6.8 -11.3,2.1 -17,7.4 -17,15.7 0.6,8.9 5.3,13.2 14.2,13.2 15.7,0 25.3,-9.3 25.3,-25.3 z"
         class="st0"
         id="XMLID_911_-4"
         inkscape:connector-curvature="0" /><path
         style="fill:#616161;fill-opacity:1"
         d="M 598.3,141.1 V 213 h -28.7 v -66.1 c 0,-32.1 16.2,-48 48.2,-48 14.5,0 25.5,3.2 33.6,9.6 8.1,-6.2 19.1,-9.1 33.6,-9.1 32.1,0 48,15.9 47.8,48 v 66.1 h -14.7 c -9.3,-0.6 -14,-5.1 -14,-14 v -57.8 c -0.6,-11.7 -7,-17.4 -19.6,-17.4 -12.5,0 -18.9,5.7 -19.1,17.4 V 213 H 637 v -71.8 c -0.6,-11.7 -7,-17.4 -19.6,-17.4 -12.6,0 -18.9,5.6 -19.1,17.3 z"
         class="st0"
         id="XMLID_909_-1"
         inkscape:connector-curvature="0" /><path
         style="fill:#616161;fill-opacity:1"
         d="m 850.6,157.3 c 0,38.7 -17.2,58.2 -51.2,58.2 -34,0 -51,-19.6 -51,-58.2 0,-39.1 17,-58.4 51,-58.4 34,0 51.2,19.3 51.2,58.4 z m -73.6,0 c 0.2,21.9 7.6,32.9 22.1,32.9 14.5,0 21.7,-11.5 21.9,-33.8 0,-21.9 -7.2,-32.7 -21.7,-32.7 -14.8,0 -22.3,11.3 -22.3,33.6 z"
         class="st0"
         id="XMLID_906_-8"
         inkscape:connector-curvature="0" /><path
         style="fill:#616161;fill-opacity:1"
         d="m 945.5,213 c -9.3,-0.6 -14,-5.1 -14,-14 v -57.8 c -0.6,-11.7 -7,-17.4 -19.6,-17.4 -12.6,0 -18.9,5.7 -19.1,17.4 V 213 h -28.7 v -66.1 c 0,-32.1 16.2,-48 48.2,-48 32.1,0 47.8,15.9 47.6,48 V 213 Z"
         class="st0"
         id="XMLID_904_-5"
         inkscape:connector-curvature="0" /></g><g
       aria-label="apm"
       style="font-style:normal;font-variant:normal;font-weight:bold;font-stretch:normal;font-size:123.63011932px;line-height:125%;font-family:Harabara;-inkscape-font-specification:'Harabara, Bold';font-variant-ligatures:normal;font-variant-caps:normal;font-variant-numeric:normal;font-feature-settings:normal;text-align:start;letter-spacing:0px;word-spacing:0px;writing-mode:lr-tb;text-anchor:start;fill:#808080;fill-opacity:1;stroke:none;stroke-width:3.09075308px;stroke-linecap:butt;stroke-linejoin:miter;stroke-opacity:1"
       id="text6560"
       transform="matrix(0.79223906,0,0,0.80871843,209.27059,64.400255)"><g
         aria-label="APM"
         style="font-style:normal;font-variant:normal;font-weight:bold;font-stretch:normal;font-size:81.55113983px;line-height:125%;font-family:'Open Sans';-inkscape-font-specification:'Open Sans, Bold';font-variant-ligatures:normal;font-variant-caps:normal;font-variant-numeric:normal;font-feature-settings:normal;text-align:start;letter-spacing:0px;word-spacing:0px;writing-mode:lr-tb;text-anchor:start;fill:#999999;fill-opacity:1;stroke:none;stroke-width:2.03880048px;stroke-linecap:butt;stroke-linejoin:miter;stroke-opacity:1"
         id="text845"
         transform="matrix(1.9118831,0,0,1.9118831,-892.8228,-212.1854)"><path
           d="m 998.8406,293.66083 -4.22091,-13.85732 h -21.224 l -4.22091,13.85732 h -13.29984 l 20.54706,-58.4556 h 15.09174 l 20.62666,58.4556 z m -7.16758,-24.2105 q -5.85352,-18.83481 -6.6101,-21.30364 -0.71676,-2.46883 -1.03532,-3.90235 -1.31405,5.09695 -7.52596,25.20599 z"
           style="font-style:normal;font-variant:normal;font-weight:bold;font-stretch:normal;font-size:81.55113983px;font-family:'Open Sans';-inkscape-font-specification:'Open Sans, Bold';font-variant-ligatures:normal;font-variant-caps:normal;font-variant-numeric:normal;font-feature-settings:normal;text-align:start;writing-mode:lr-tb;text-anchor:start;fill:#999999;stroke-width:2.03880048px"
           id="path847"
           inkscape:connector-curvature="0" /><path
           d="m 1027.1433,262.84023 h 4.0616 q 5.6942,0 8.5214,-2.22991 2.8273,-2.26974 2.8273,-6.57029 0,-4.34036 -2.3892,-6.411 -2.3494,-2.07063 -7.4065,-2.07063 h -5.6146 z m 27.8739,-9.23821 q 0,9.39749 -5.8934,14.37498 -5.8535,4.97748 -16.6845,4.97748 h -5.296 v 20.70635 h -12.3442 v -58.21669 h 18.5959 q 10.5921,0 16.0872,4.57929 5.535,4.53947 5.535,13.57859 z"
           style="font-style:normal;font-variant:normal;font-weight:bold;font-stretch:normal;font-size:81.55113983px;font-family:'Open Sans';-inkscape-font-specification:'Open Sans, Bold';font-variant-ligatures:normal;font-variant-caps:normal;font-variant-numeric:normal;font-feature-settings:normal;text-align:start;writing-mode:lr-tb;text-anchor:start;fill:#999999;stroke-width:2.03880048px"
           id="path849"
           inkscape:connector-curvature="0" /><path
           d="m 1083.4624,293.66083 -14.0166,-45.67342 h -0.3584 q 0.7566,13.93696 0.7566,18.59589 v 27.07753 h -11.0301 v -58.21669 h 16.804 l 13.7777,44.51864 h 0.2389 l 14.6139,-44.51864 h 16.804 v 58.21669 h -11.5079 v -27.55537 q 0,-1.95117 0.04,-4.49965 0.08,-2.54847 0.5575,-13.53876 h -0.3584 l -15.0121,45.59378 z"
           style="font-style:normal;font-variant:normal;font-weight:bold;font-stretch:normal;font-size:81.55113983px;font-family:'Open Sans';-inkscape-font-specification:'Open Sans, Bold';font-variant-ligatures:normal;font-variant-caps:normal;font-variant-numeric:normal;font-feature-settings:normal;text-align:start;writing-mode:lr-tb;text-anchor:start;fill:#999999;stroke-width:2.03880048px"
           id="path851"
           inkscape:connector-curvature="0" /></g></g></g></svg>