<svg width="181" height="64" viewBox="0 0 181 64" fill="none" xmlns="http://www.w3.org/2000/svg">
<path d="M11.5022 0.000466284C10.9501 -0.0165234 10.5 0.432989 10.5 0.985532L10.5 14.5082C10.5 15.055 10.9399 15.4974 11.4851 15.5372C20.1591 16.1696 27 23.4106 27 32.2501C27 41.0896 20.1591 48.3306 11.4851 48.9631C10.9399 49.0028 10.5 49.4452 10.5 49.992L10.5 63.0145C10.5 63.567 10.9501 64.0165 11.5021 63.9995C28.7115 63.4699 42.5 49.3459 42.5 32C42.5 14.6541 28.7116 0.530123 11.5022 0.000466284Z" fill="#39D98A"/>
<path d="M10.25 42.0002C4.58908 42.0002 -1.37825e-06 37.4111 0 31.7502C2.33192e-06 26.0893 4.58909 21.5002 10.25 21.5002C15.7954 21.633 20.5 26.1729 20.5 31.7502C20.5 37.3276 15.7954 41.8675 10.25 42.0002Z" fill="#376C66"/>
<path d="M10.5 21.5032C10.4169 21.5012 10.3336 21.5002 10.25 21.5002C4.58909 21.5002 2.33192e-06 26.0893 0 31.7502C-1.37825e-06 37.4112 4.58908 42.0002 10.25 42.0002C10.3336 42.0002 10.4169 41.9992 10.5 41.9973L10.5 21.5032Z" fill="#223C37"/>
<path d="M73.4448 47.5C71.4334 47.5 69.5797 47.1111 67.8837 46.3333C66.2272 45.5167 64.9059 44.4278 63.9199 43.0667C62.9733 41.7056 62.5 40.2083 62.5 38.575C62.5 35.9306 63.5846 33.7917 65.7539 32.1583C67.9231 30.525 70.9009 29.4167 74.6872 28.8333L82.7923 27.6667V26.4417C82.7923 24.7306 82.3585 23.4472 81.4908 22.5917C80.6231 21.7361 79.2229 21.3083 77.2903 21.3083C75.9888 21.3083 74.9239 21.5611 74.0956 22.0667C73.3068 22.5333 72.6758 23 72.2025 23.4667C71.7292 23.9722 71.4136 24.3028 71.2559 24.4583C71.0981 24.925 70.8023 25.1583 70.3685 25.1583H65.813C65.4581 25.1583 65.1425 25.0417 64.8665 24.8083C64.6298 24.575 64.5115 24.2639 64.5115 23.875C64.5509 22.9028 65.0242 21.7944 65.9314 20.55C66.8779 19.3056 68.3175 18.2361 70.2501 17.3417C72.1827 16.4472 74.5492 16 77.3495 16C82.0035 16 85.3954 17.0306 87.5252 19.0917C89.655 21.1528 90.7199 23.8556 90.7199 27.2V45.5167C90.7199 45.9056 90.5819 46.2361 90.3058 46.5083C90.0692 46.7806 89.7339 46.9167 89.3001 46.9167H84.508C84.1136 46.9167 83.7784 46.7806 83.5023 46.5083C83.2262 46.2361 83.0882 45.9056 83.0882 45.5167V43.2417C82.2205 44.4861 80.9781 45.5167 79.361 46.3333C77.7833 47.1111 75.8113 47.5 73.4448 47.5ZM75.4563 41.9583C77.6256 41.9583 79.4004 41.2583 80.7808 39.8583C82.1613 38.4583 82.8515 36.4167 82.8515 33.7333V32.5083L76.9353 33.4417C74.6478 33.7917 72.9124 34.3556 71.7292 35.1333C70.5854 35.9111 70.0135 36.8639 70.0135 37.9917C70.0135 39.2361 70.5459 40.2083 71.6108 40.9083C72.6757 41.6083 73.9576 41.9583 75.4563 41.9583Z" fill="#28293D"/>
<path d="M99.7887 58C99.3943 58 99.0591 57.8639 98.783 57.5917C98.5069 57.3583 98.3688 57.0278 98.3688 56.6V17.9833C98.3688 17.5556 98.5069 17.225 98.783 16.9917C99.0591 16.7194 99.3943 16.5833 99.7887 16.5833H104.462C104.896 16.5833 105.232 16.7194 105.468 16.9917C105.744 17.225 105.882 17.5556 105.882 17.9833V20.3167C108.091 17.4389 111.246 16 115.348 16C119.332 16 122.388 17.2444 124.518 19.7333C126.648 22.1833 127.792 25.5083 127.95 29.7083C127.989 30.175 128.009 30.8556 128.009 31.75C128.009 32.6833 127.989 33.3833 127.95 33.85C127.792 37.9333 126.648 41.2389 124.518 43.7667C122.388 46.2556 119.332 47.5 115.348 47.5C111.365 47.5 108.328 46.1194 106.237 43.3583V56.6C106.237 57.0278 106.099 57.3583 105.823 57.5917C105.587 57.8639 105.251 58 104.817 58H99.7887ZM113.159 41.2583C117.419 41.2583 119.687 38.6722 119.963 33.5C120.002 33.1111 120.022 32.5278 120.022 31.75C120.022 30.9722 120.002 30.3889 119.963 30C119.687 24.8278 117.419 22.2417 113.159 22.2417C110.872 22.2417 109.176 22.9611 108.071 24.4C106.967 25.8389 106.356 27.6083 106.237 29.7083L106.178 31.925L106.237 34.2C106.316 36.1444 106.928 37.8167 108.071 39.2167C109.255 40.5778 110.95 41.2583 113.159 41.2583Z" fill="#28293D"/>
<path d="M136.07 46.9167C135.675 46.9167 135.34 46.7806 135.064 46.5083C134.788 46.2361 134.65 45.9056 134.65 45.5167V17.9833C134.65 17.5944 134.788 17.2639 135.064 16.9917C135.34 16.7194 135.675 16.5833 136.07 16.5833H140.684C141.079 16.5833 141.414 16.7194 141.69 16.9917C141.966 17.2639 142.104 17.5944 142.104 17.9833V19.9667C144.155 17.3222 147.015 16 150.683 16C155.061 16 158.117 17.7306 159.853 21.1917C160.799 19.6361 162.14 18.3917 163.876 17.4583C165.611 16.4861 167.485 16 169.496 16C172.73 16 175.373 17.0889 177.424 19.2667C179.475 21.4444 180.5 24.6139 180.5 28.775V45.5167C180.5 45.9056 180.362 46.2361 180.086 46.5083C179.849 46.7806 179.514 46.9167 179.08 46.9167H174.229C173.834 46.9167 173.499 46.7806 173.223 46.5083C172.947 46.2361 172.809 45.9056 172.809 45.5167V29.2417C172.809 26.7917 172.277 25.0222 171.212 23.9333C170.186 22.8056 168.806 22.2417 167.07 22.2417C165.532 22.2417 164.211 22.8056 163.107 23.9333C162.042 25.0611 161.509 26.8306 161.509 29.2417V45.5167C161.509 45.9056 161.371 46.2361 161.095 46.5083C160.819 46.7806 160.484 46.9167 160.089 46.9167H155.238C154.844 46.9167 154.508 46.7806 154.232 46.5083C153.956 46.2361 153.818 45.9056 153.818 45.5167V29.2417C153.818 26.7917 153.266 25.0222 152.162 23.9333C151.097 22.8056 149.736 22.2417 148.08 22.2417C146.502 22.2417 145.161 22.8056 144.057 23.9333C142.992 25.0611 142.459 26.8306 142.459 29.2417V45.5167C142.459 45.9056 142.321 46.2361 142.045 46.5083C141.769 46.7806 141.434 46.9167 141.039 46.9167H136.07Z" fill="#28293D"/>
</svg>
