<?xml version="1.0" encoding="UTF-8" standalone="no"?>
<!-- Created with Inkscape (http://www.inkscape.org/) -->

<svg
   xmlns:dc="http://purl.org/dc/elements/1.1/"
   xmlns:cc="http://creativecommons.org/ns#"
   xmlns:rdf="http://www.w3.org/1999/02/22-rdf-syntax-ns#"
   xmlns:svg="http://www.w3.org/2000/svg"
   xmlns="http://www.w3.org/2000/svg"
   xmlns:xlink="http://www.w3.org/1999/xlink"
   xmlns:sodipodi="http://sodipodi.sourceforge.net/DTD/sodipodi-0.dtd"
   xmlns:inkscape="http://www.inkscape.org/namespaces/inkscape"
   width="700"
   height="300"
   viewBox="0 0 700 300"
   version="1.1"
   id="svg8"
   inkscape:version="0.92.3 (2405546, 2018-03-11)"
   sodipodi:docname="kamon-interaction.svg"
   style="enable-background:new">
  <sodipodi:namedview
     id="base"
     pagecolor="#ffffff"
     bordercolor="#666666"
     borderopacity="1.0"
     inkscape:pageopacity="0.0"
     inkscape:pageshadow="2"
     inkscape:zoom="2.0000001"
     inkscape:cx="151.29086"
     inkscape:cy="85.834245"
     inkscape:document-units="px"
     inkscape:current-layer="g14593"
     showgrid="true"
     inkscape:window-width="2560"
     inkscape:window-height="1440"
     inkscape:window-x="0"
     inkscape:window-y="0"
     inkscape:window-maximized="0"
     showguides="true"
     units="px"
     objecttolerance="5"
     gridtolerance="10">
    <inkscape:grid
       empopacity="0.04705882"
       empcolor="#000043"
       opacity="0.07843137"
       color="#000000"
       snapvisiblegridlinesonly="true"
       empspacing="20"
       id="grid4591"
       type="xygrid" />
  </sodipodi:namedview>
  <defs
     id="defs2">
    <inkscape:perspective
       id="perspective2172"
       inkscape:persp3d-origin="952 : 1000 : 1"
       inkscape:vp_z="1904 : 1500 : 1"
       inkscape:vp_y="0 : 3779.5277 : 0"
       inkscape:vp_x="0 : 1500 : 1"
       sodipodi:type="inkscape:persp3d" />
    <linearGradient
       gradientTransform="translate(237.46177,-183.01078)"
       id="XMLID_15_-2"
       gradientUnits="userSpaceOnUse"
       x1="63.891499"
       y1="198.12531"
       x2="63.891499"
       y2="-214.94597">
      <stop
         offset="0"
         style="stop-color:#145643"
         id="stop1003-1" />
      <stop
         offset="1"
         style="stop-color:#14C441"
         id="stop1005-0" />
    </linearGradient>
    <filter
       id="filter2058"
       inkscape:label="Drop Shadow"
       style="color-interpolation-filters:sRGB">
      <feFlood
         id="feFlood2048"
         result="flood"
         flood-color="rgb(0,0,0)"
         flood-opacity="0.576471" />
      <feComposite
         id="feComposite2050"
         result="composite1"
         operator="out"
         in2="SourceGraphic"
         in="flood" />
      <feGaussianBlur
         id="feGaussianBlur2052"
         result="blur"
         stdDeviation="1"
         in="composite1" />
      <feOffset
         id="feOffset2054"
         result="offset"
         dy="1.1"
         dx="8.7" />
      <feComposite
         id="feComposite2056"
         result="composite2"
         operator="atop"
         in2="SourceGraphic"
         in="offset" />
    </filter>
    <filter
       id="filter2170"
       inkscape:label="Drop Shadow"
       style="color-interpolation-filters:sRGB">
      <feFlood
         id="feFlood2160"
         result="flood"
         flood-color="rgb(0,0,0)"
         flood-opacity="0.145098" />
      <feComposite
         id="feComposite2162"
         result="composite1"
         operator="out"
         in2="SourceGraphic"
         in="flood" />
      <feGaussianBlur
         id="feGaussianBlur2164"
         result="blur"
         stdDeviation="1.8"
         in="composite1" />
      <feOffset
         id="feOffset2166"
         result="offset"
         dy="1.1"
         dx="8.7" />
      <feComposite
         id="feComposite2168"
         result="composite2"
         operator="atop"
         in2="SourceGraphic"
         in="offset" />
    </filter>
    <filter
       id="filter2170-4"
       inkscape:label="Drop Shadow"
       style="color-interpolation-filters:sRGB">
      <feFlood
         id="feFlood2160-0"
         result="flood"
         flood-color="rgb(0,0,0)"
         flood-opacity="0.145098" />
      <feComposite
         id="feComposite2162-3"
         result="composite1"
         operator="out"
         in2="SourceGraphic"
         in="flood" />
      <feGaussianBlur
         id="feGaussianBlur2164-9"
         result="blur"
         stdDeviation="1.8"
         in="composite1" />
      <feOffset
         id="feOffset2166-1"
         result="offset"
         dy="1.1"
         dx="8.7" />
      <feComposite
         id="feComposite2168-9"
         result="composite2"
         operator="atop"
         in2="SourceGraphic"
         in="offset" />
    </filter>
    <filter
       id="filter1119"
       inkscape:label="Drop Shadow"
       style="color-interpolation-filters:sRGB">
      <feFlood
         id="feFlood1109"
         result="flood"
         flood-color="rgb(0,0,0)"
         flood-opacity="0.576471" />
      <feComposite
         id="feComposite1111"
         result="composite1"
         operator="in"
         in2="SourceGraphic"
         in="flood" />
      <feGaussianBlur
         id="feGaussianBlur1113"
         result="blur"
         stdDeviation="0.7"
         in="composite1" />
      <feOffset
         id="feOffset1115"
         result="offset"
         dy="1"
         dx="-2.77556e-17" />
      <feComposite
         id="feComposite1117"
         result="composite2"
         operator="over"
         in2="offset"
         in="SourceGraphic" />
    </filter>
    <filter
       id="filter1208"
       inkscape:label="Drop Shadow"
       style="color-interpolation-filters:sRGB">
      <feFlood
         id="feFlood1198"
         result="flood"
         flood-color="rgb(0,0,0)"
         flood-opacity="0.576471" />
      <feComposite
         id="feComposite1200"
         result="composite1"
         operator="in"
         in2="SourceGraphic"
         in="flood" />
      <feGaussianBlur
         id="feGaussianBlur1202"
         result="blur"
         stdDeviation="0.7"
         in="composite1" />
      <feOffset
         id="feOffset1204"
         result="offset"
         dy="1"
         dx="-2.77556e-17" />
      <feComposite
         id="feComposite1206"
         result="composite2"
         operator="over"
         in2="offset"
         in="SourceGraphic" />
    </filter>
    <filter
       id="filter1630"
       inkscape:label="Drop Shadow"
       style="color-interpolation-filters:sRGB">
      <feFlood
         id="feFlood1620"
         result="flood"
         flood-color="rgb(0,0,0)"
         flood-opacity="0.576471" />
      <feComposite
         id="feComposite1622"
         result="composite1"
         operator="in"
         in2="SourceGraphic"
         in="flood" />
      <feGaussianBlur
         id="feGaussianBlur1624"
         result="blur"
         stdDeviation="1.5"
         in="composite1" />
      <feOffset
         id="feOffset1626"
         result="offset"
         dy="1"
         dx="1" />
      <feComposite
         id="feComposite1628"
         result="composite2"
         operator="over"
         in2="offset"
         in="SourceGraphic" />
    </filter>
    <filter
       id="filter1653"
       inkscape:label="Drop Shadow"
       style="color-interpolation-filters:sRGB">
      <feFlood
         id="feFlood1643"
         result="flood"
         flood-color="rgb(0,0,0)"
         flood-opacity="0.576471" />
      <feComposite
         id="feComposite1645"
         result="composite1"
         operator="in"
         in2="SourceGraphic"
         in="flood" />
      <feGaussianBlur
         id="feGaussianBlur1647"
         result="blur"
         stdDeviation="1.5"
         in="composite1" />
      <feOffset
         id="feOffset1649"
         result="offset"
         dy="1"
         dx="1" />
      <feComposite
         id="feComposite1651"
         result="composite2"
         operator="over"
         in2="offset"
         in="SourceGraphic" />
    </filter>
    <filter
       id="filter1727"
       inkscape:label="Drop Shadow"
       style="color-interpolation-filters:sRGB">
      <feFlood
         id="feFlood1717"
         result="flood"
         flood-color="rgb(0,0,0)"
         flood-opacity="0.576471" />
      <feComposite
         id="feComposite1719"
         result="composite1"
         operator="in"
         in2="SourceGraphic"
         in="flood" />
      <feGaussianBlur
         id="feGaussianBlur1721"
         result="blur"
         stdDeviation="1.5"
         in="composite1" />
      <feOffset
         id="feOffset1723"
         result="offset"
         dy="1"
         dx="1" />
      <feComposite
         id="feComposite1725"
         result="composite2"
         operator="over"
         in2="offset"
         in="SourceGraphic" />
    </filter>
    <filter
       id="filter1999"
       inkscape:label="Drop Shadow"
       style="color-interpolation-filters:sRGB">
      <feFlood
         id="feFlood1989"
         result="flood"
         flood-color="rgb(0,0,0)"
         flood-opacity="0.576471" />
      <feComposite
         id="feComposite1991"
         result="composite1"
         operator="in"
         in2="SourceGraphic"
         in="flood" />
      <feGaussianBlur
         id="feGaussianBlur1993"
         result="blur"
         stdDeviation="1.5"
         in="composite1" />
      <feOffset
         id="feOffset1995"
         result="offset"
         dy="1"
         dx="1" />
      <feComposite
         id="feComposite1997"
         result="composite2"
         operator="over"
         in2="offset"
         in="SourceGraphic" />
    </filter>
    <filter
       id="filter2011"
       inkscape:label="Drop Shadow"
       style="color-interpolation-filters:sRGB">
      <feFlood
         id="feFlood2001"
         result="flood"
         flood-color="rgb(0,0,0)"
         flood-opacity="0.576471" />
      <feComposite
         id="feComposite2003"
         result="composite1"
         operator="in"
         in2="SourceGraphic"
         in="flood" />
      <feGaussianBlur
         id="feGaussianBlur2005"
         result="blur"
         stdDeviation="1.5"
         in="composite1" />
      <feOffset
         id="feOffset2007"
         result="offset"
         dy="1"
         dx="1" />
      <feComposite
         id="feComposite2009"
         result="composite2"
         operator="over"
         in2="offset"
         in="SourceGraphic" />
    </filter>
    <filter
       id="filter1539"
       inkscape:label="Drop Shadow"
       style="color-interpolation-filters:sRGB">
      <feFlood
         id="feFlood1529"
         result="flood"
         flood-color="rgb(133,133,133)"
         flood-opacity="0.388235" />
      <feComposite
         id="feComposite1531"
         result="composite1"
         operator="out"
         in2="SourceGraphic"
         in="flood" />
      <feGaussianBlur
         id="feGaussianBlur1533"
         result="blur"
         stdDeviation="1.3"
         in="composite1" />
      <feOffset
         id="feOffset1535"
         result="offset"
         dy="1.9"
         dx="-2.77556e-17" />
      <feComposite
         id="feComposite1537"
         result="composite2"
         operator="atop"
         in2="SourceGraphic"
         in="offset" />
    </filter>
  </defs>
  <metadata
     id="metadata5">
    <rdf:RDF>
      <cc:Work
         rdf:about="">
        <dc:format>image/svg+xml</dc:format>
        <dc:type
           rdf:resource="http://purl.org/dc/dcmitype/StillImage" />
        <dc:title></dc:title>
      </cc:Work>
    </rdf:RDF>
  </metadata>
  <g
     inkscape:label="animation"
     id="layer6"
     inkscape:groupmode="layer"
     style="display:inline"
     transform="translate(0,-1243.5416)">
    <g
       id="g14593">
      <g
         style="image-rendering:auto"
         inkscape:label="#g10699"
         transform="matrix(0.3413403,0,0,0.3413403,1.1722041,1352.5891)"
         id="trace1">
        <rect
           style="opacity:1;fill:#88e294;fill-opacity:1;stroke:none;stroke-width:0.59406024;stroke-linecap:butt;stroke-linejoin:miter;stroke-miterlimit:4;stroke-dasharray:none;stroke-dashoffset:0;stroke-opacity:1;paint-order:normal"
           id="rect10687"
           width="37.041668"
           height="5.878202"
           x="137.58333"
           y="150.05782"
           ry="1.5822418" />
        <rect
           ry="1.5822418"
           y="158.16345"
           x="142.875"
           height="5.878202"
           width="29.391008"
           id="rect10689"
           style="opacity:1;fill:#88e294;fill-opacity:1;stroke:none;stroke-width:0.52916664;stroke-linecap:butt;stroke-linejoin:miter;stroke-miterlimit:4;stroke-dasharray:none;stroke-dashoffset:0;stroke-opacity:1;paint-order:normal" />
        <rect
           style="opacity:1;fill:#ff8080;fill-opacity:1;stroke:none;stroke-width:0.39514163;stroke-linecap:butt;stroke-linejoin:miter;stroke-miterlimit:4;stroke-dasharray:none;stroke-dashoffset:0;stroke-opacity:1;paint-order:normal"
           id="rect10691"
           width="16.388346"
           height="5.878202"
           x="145.4007"
           y="166.3018"
           ry="1.5822418" />
        <rect
           ry="1.5822418"
           y="166.3018"
           x="163.5125"
           height="5.878202"
           width="8.2243433"
           id="rect10693"
           style="opacity:1;fill:#88e294;fill-opacity:1;stroke:none;stroke-width:0.27992123;stroke-linecap:butt;stroke-linejoin:miter;stroke-miterlimit:4;stroke-dasharray:none;stroke-dashoffset:0;stroke-opacity:1;paint-order:normal" />
      </g>
      <g
         inkscape:label="#g10709"
         id="trace4"
         transform="matrix(0.3413403,0,0,0.3413403,165.19422,1319.5276)">
        <rect
           ry="1.5822418"
           y="150.05782"
           x="137.58333"
           height="5.878202"
           width="37.041668"
           id="rect10701"
           style="opacity:1;fill:#88e294;fill-opacity:1;stroke:none;stroke-width:0.59406024;stroke-linecap:butt;stroke-linejoin:miter;stroke-miterlimit:4;stroke-dasharray:none;stroke-dashoffset:0;stroke-opacity:1;paint-order:normal" />
        <rect
           style="opacity:1;fill:#88e294;fill-opacity:1;stroke:none;stroke-width:0.22486764;stroke-linecap:butt;stroke-linejoin:miter;stroke-miterlimit:4;stroke-dasharray:none;stroke-dashoffset:0;stroke-opacity:1;paint-order:normal"
           id="rect10703"
           width="5.3074207"
           height="5.878202"
           x="142.875"
           y="158.16345"
           ry="1.5822418" />
        <rect
           ry="1.5822418"
           y="166.3018"
           x="145.4007"
           height="5.878202"
           width="26.665197"
           id="rect10705"
           style="opacity:1;fill:#88e294;fill-opacity:1;stroke:none;stroke-width:0.50403142;stroke-linecap:butt;stroke-linejoin:miter;stroke-miterlimit:4;stroke-dasharray:none;stroke-dashoffset:0;stroke-opacity:1;paint-order:normal" />
      </g>
      <g
         inkscape:label="#g10719"
         id="trace3"
         transform="matrix(0.3413403,0,0,0.3413403,120.28775,1330.5923)">
        <rect
           ry="1.5822418"
           y="150.05782"
           x="137.58333"
           height="5.878202"
           width="37.041668"
           id="rect10711"
           style="opacity:1;fill:#ff8080;fill-opacity:1;stroke:none;stroke-width:0.59406024;stroke-linecap:butt;stroke-linejoin:miter;stroke-miterlimit:4;stroke-dasharray:none;stroke-dashoffset:0;stroke-opacity:1;paint-order:normal" />
        <rect
           style="opacity:1;fill:#88e294;fill-opacity:1;stroke:none;stroke-width:0.52916664;stroke-linecap:butt;stroke-linejoin:miter;stroke-miterlimit:4;stroke-dasharray:none;stroke-dashoffset:0;stroke-opacity:1;paint-order:normal"
           id="rect10713"
           width="29.391008"
           height="5.878202"
           x="138.89441"
           y="158.16345"
           ry="1.5822418" />
        <rect
           ry="1.5822418"
           y="166.3018"
           x="168.28542"
           height="5.878202"
           width="4.4466014"
           id="rect10715"
           style="opacity:1;fill:#ff8080;fill-opacity:1;stroke:none;stroke-width:0.20582557;stroke-linecap:butt;stroke-linejoin:miter;stroke-miterlimit:4;stroke-dasharray:none;stroke-dashoffset:0;stroke-opacity:1;paint-order:normal" />
      </g>
      <g
         inkscape:label="#g10729"
         id="trace2"
         transform="matrix(0.3413403,0,0,0.3413403,37.517063,1345.9308)">
        <rect
           ry="1.5822418"
           y="150.05782"
           x="137.58333"
           height="5.878202"
           width="37.041668"
           id="rect10721"
           style="opacity:1;fill:#88e294;fill-opacity:1;stroke:none;stroke-width:0.59406024;stroke-linecap:butt;stroke-linejoin:miter;stroke-miterlimit:4;stroke-dasharray:none;stroke-dashoffset:0;stroke-opacity:1;paint-order:normal" />
        <rect
           style="opacity:1;fill:#88e294;fill-opacity:1;stroke:none;stroke-width:0.52916664;stroke-linecap:butt;stroke-linejoin:miter;stroke-miterlimit:4;stroke-dasharray:none;stroke-dashoffset:0;stroke-opacity:1;paint-order:normal"
           id="rect10723"
           width="29.391008"
           height="5.878202"
           x="142.875"
           y="158.16345"
           ry="1.5822418" />
        <rect
           ry="1.5822418"
           y="166.3018"
           x="145.4007"
           height="5.878202"
           width="16.388346"
           id="rect10725"
           style="opacity:1;fill:#88e294;fill-opacity:1;stroke:none;stroke-width:0.39514163;stroke-linecap:butt;stroke-linejoin:miter;stroke-miterlimit:4;stroke-dasharray:none;stroke-dashoffset:0;stroke-opacity:1;paint-order:normal" />
      </g>
      <g
         inkscape:label="#g10954"
         transform="matrix(1.711789,0,0,1.711789,-72.794932,1083.1847)"
         id="metric4">
        <rect
           style="opacity:1;fill:#f2f2f2;fill-opacity:1;stroke:none;stroke-width:0.03059292;stroke-linecap:butt;stroke-linejoin:miter;stroke-miterlimit:4;stroke-dasharray:none;stroke-dashoffset:0;stroke-opacity:1;paint-order:normal"
           id="rect10919"
           width="5.1302652"
           height="2.4766641"
           x="177.42941"
           y="156.27217"
           ry="0.078792952" />
        <path
           style="opacity:1;fill:#88e294;fill-opacity:1;stroke:none;stroke-width:0.19860359;stroke-linecap:butt;stroke-linejoin:miter;stroke-miterlimit:4;stroke-dasharray:none;stroke-dashoffset:0;stroke-opacity:1;paint-order:normal"
           d="m 179.91791,154.95385 c -2.12437,0.001 -3.87168,1.67386 -3.96577,3.79615 h 1.47713 c 0.0923,-1.30675 1.17863,-2.3201 2.48864,-2.3215 1.31102,10e-6 2.39887,1.01373 2.49127,2.3215 h 1.47201 c -0.0941,-2.12133 -1.83988,-3.79354 -3.96328,-3.79615 z"
           id="path10731"
           inkscape:connector-curvature="0"
           sodipodi:nodetypes="ccccccc" />
        <path
           style="opacity:1;fill:#ffe680;fill-opacity:1;stroke:none;stroke-width:0.19860359;stroke-linecap:butt;stroke-linejoin:miter;stroke-miterlimit:4;stroke-dasharray:none;stroke-dashoffset:0;stroke-opacity:1;paint-order:normal"
           d="m 179.91795,154.95389 c -0.77513,5.4e-4 -1.4996,0.22428 -2.11235,0.61042 l 0.81511,1.22962 c 0.37891,-0.2314 0.82328,-0.36497 1.29724,-0.36548 0.47342,1e-5 0.91737,0.13268 1.29622,0.36316 l 0.81355,-1.2273 c -0.61208,-0.38574 -1.33552,-0.60947 -2.10977,-0.61042 z m -1.29724,1.84004 c -0.12465,0.0761 -0.24217,0.1628 -0.35129,0.25901 0.10913,-0.0962 0.22665,-0.18289 0.35129,-0.25901 z m 3.40714,-1.22949 c 0.0329,0.0208 0.0656,0.0419 0.0978,0.0636 -0.0323,-0.0217 -0.0649,-0.0429 -0.0978,-0.0636 z m 0.0978,0.0636 c 0.0619,0.0416 0.12257,0.085 0.18197,0.12996 -0.0594,-0.045 -0.12002,-0.0883 -0.18197,-0.12996 z m 0.18197,0.12996 c 0.004,0.003 0.009,0.007 0.0133,0.0101 -0.004,-0.003 -0.009,-0.007 -0.0133,-0.0101 z m 0.0133,0.0101 c 0.0896,0.0684 0.17615,0.14043 0.25953,0.21603 -0.0834,-0.0756 -0.16996,-0.14766 -0.25953,-0.21603 z m -4.51623,-0.20313 c -0.0326,0.0206 -0.0649,0.0415 -0.0969,0.063 0.032,-0.0215 0.0643,-0.0424 0.0969,-0.063 z m -0.0977,0.0635 c -0.0607,0.0408 -0.11998,0.0834 -0.17822,0.12738 0.0582,-0.044 0.11756,-0.0866 0.17822,-0.12738 z m -0.17822,0.12738 c -0.006,0.005 -0.012,0.009 -0.0179,0.0134 0.006,-0.005 0.012,-0.009 0.0179,-0.0134 z m -0.0179,0.0134 c -0.0877,0.067 -0.17237,0.13757 -0.25411,0.21152 0.0817,-0.0739 0.16644,-0.14454 0.25411,-0.21152 z m -0.25411,0.21152 c -0.006,0.006 -0.0122,0.0112 -0.0183,0.0168 0.006,-0.006 0.0122,-0.0112 0.0183,-0.0168 z m -0.0183,0.0168 c -0.053,0.0486 -0.1049,0.0985 -0.15525,0.14983 0.0504,-0.0514 0.1022,-0.10124 0.15525,-0.14983 z m 5.35095,-0.005 c 0.0556,0.0507 0.10972,0.10291 0.16235,0.15667 -0.0526,-0.0538 -0.10678,-0.10596 -0.16235,-0.15667 z m 0.16235,0.15667 c 0.0266,0.0272 0.0528,0.0547 0.0786,0.0826 -0.0258,-0.0279 -0.052,-0.0554 -0.0786,-0.0826 z m -5.67035,2.6e-4 c -0.026,0.0266 -0.0515,0.0535 -0.0768,0.0808 0.0252,-0.0273 0.0508,-0.0542 0.0768,-0.0808 z m -0.0768,0.0808 c -0.005,0.005 -0.01,0.0107 -0.0146,0.016 0.005,-0.005 0.01,-0.0107 0.0146,-0.016 z m -0.0146,0.016 c -0.0438,0.0478 -0.0864,0.0967 -0.12777,0.14661 0.0414,-0.0499 0.084,-0.0988 0.12777,-0.14661 z m -0.12777,0.14661 c -0.007,0.009 -0.0143,0.0171 -0.0213,0.0257 0.007,-0.009 0.0142,-0.0171 0.0213,-0.0257 z m -0.0213,0.0257 c -0.0678,0.0832 -0.13228,0.16921 -0.19332,0.25785 0.061,-0.0886 0.12548,-0.17467 0.19332,-0.25785 z m -0.19332,0.25785 c -0.007,0.01 -0.0134,0.0195 -0.02,0.0293 0.007,-0.01 0.0133,-0.0196 0.02,-0.0293 z m -0.02,0.0293 c -0.0383,0.0567 -0.0752,0.11433 -0.11059,0.17306 0.0354,-0.0587 0.0723,-0.11639 0.11059,-0.17306 z m 6.21019,-0.46562 c 0.0469,0.051 0.0924,0.10335 0.13667,0.1568 -0.0442,-0.0535 -0.0898,-0.10576 -0.13667,-0.1568 z m 0.13667,0.1568 c 0.006,0.007 0.0111,0.0133 0.0165,0.02 -0.005,-0.007 -0.011,-0.0133 -0.0165,-0.02 z m 0.0165,0.02 c 0.0677,0.0829 0.1321,0.16871 0.19306,0.25707 -0.061,-0.0884 -0.12534,-0.17411 -0.19306,-0.25707 z m 0.19306,0.25707 c 0.008,0.0117 0.016,0.0236 0.024,0.0354 -0.008,-0.0118 -0.0159,-0.0236 -0.024,-0.0354 z m 0.024,0.0354 c 0.0364,0.054 0.0716,0.10884 0.10531,0.16468 -0.0338,-0.0559 -0.0689,-0.11068 -0.10531,-0.16468 z m -1.99168,0.084 c 0.12349,0.0753 0.24002,0.16104 0.34832,0.25604 -0.10829,-0.095 -0.22482,-0.18073 -0.34832,-0.25604 z m 0.34832,0.25604 c 0.003,0.002 0.006,0.005 0.008,0.007 -0.003,-0.002 -0.006,-0.005 -0.008,-0.007 z m 0.008,0.007 c 0.0334,0.0296 0.066,0.06 0.0978,0.0914 -0.0318,-0.0313 -0.0644,-0.0618 -0.0978,-0.0914 z m 0.0978,0.0914 c 0.002,0.002 0.004,0.004 0.007,0.006 -0.002,-0.002 -0.004,-0.004 -0.007,-0.006 z m 0.007,0.006 c 0.0678,0.0673 0.13195,0.13856 0.19177,0.21332 -0.0598,-0.0748 -0.12391,-0.14595 -0.19177,-0.21332 z m 0.19177,0.21332 c 0.002,0.003 0.004,0.005 0.006,0.008 -0.002,-0.003 -0.004,-0.005 -0.006,-0.008 z m 0.006,0.008 c 0.0266,0.0336 0.0524,0.0678 0.0773,0.10272 -0.0249,-0.0349 -0.0507,-0.0692 -0.0773,-0.10272 z m 0.0773,0.10272 c 0.004,0.006 0.009,0.0125 0.0132,0.0187 -0.004,-0.006 -0.009,-0.0125 -0.0132,-0.0187 z m 0.0132,0.0187 c 0.0227,0.0325 0.0445,0.0657 0.0657,0.0992 -0.0212,-0.0336 -0.043,-0.0668 -0.0657,-0.0992 z m 0.0657,0.0992 c 0.004,0.007 0.009,0.0132 0.0128,0.0199 -0.004,-0.007 -0.009,-0.0132 -0.0128,-0.0199 z m 0.0128,0.0199 c 0.0246,0.0398 0.0482,0.0803 0.0706,0.12157 -0.0224,-0.0413 -0.046,-0.0817 -0.0706,-0.12157 z m 0.0706,0.12157 c 0.0218,0.0402 0.0422,0.0811 0.0618,0.1226 -0.0196,-0.0415 -0.0401,-0.0824 -0.0618,-0.1226 z m 0.0618,0.1226 c 0.004,0.009 0.008,0.0184 0.0125,0.0276 -0.004,-0.009 -0.008,-0.0185 -0.0125,-0.0276 z m 0.0125,0.0276 c 0.0153,0.0333 0.0298,0.0671 0.0436,0.10118 -0.0138,-0.0341 -0.0284,-0.0678 -0.0436,-0.10118 z m 0.0436,0.10118 c 0.004,0.0103 0.008,0.0207 0.0125,0.0311 -0.004,-0.0104 -0.008,-0.0207 -0.0125,-0.0311 z m 0.0125,0.0311 c 0.0147,0.0379 0.0286,0.0761 0.0416,0.11486 -0.0129,-0.0388 -0.0268,-0.077 -0.0416,-0.11486 z m 0.0416,0.11486 c 0.002,0.006 0.004,0.011 0.006,0.0165 -0.002,-0.006 -0.004,-0.011 -0.006,-0.0165 z m 0.006,0.0165 c 0.0142,0.0436 0.0271,0.0877 0.039,0.13227 -0.0118,-0.0446 -0.0248,-0.0887 -0.039,-0.13227 z m 0.039,0.13227 c 0.003,0.0127 0.006,0.0256 0.009,0.0383 -0.003,-0.0128 -0.006,-0.0256 -0.009,-0.0383 z m 0.009,0.0383 c 0.008,0.0331 0.0158,0.0663 0.0227,0.0999 -0.007,-0.0336 -0.0145,-0.0668 -0.0227,-0.0999 z m 0.0227,0.0999 c 0.003,0.0142 0.006,0.0284 0.008,0.0427 -0.003,-0.0143 -0.005,-0.0285 -0.008,-0.0427 z m 0.008,0.0427 c 0.006,0.034 0.0119,0.0683 0.0169,0.10272 -0.005,-0.0345 -0.0105,-0.0687 -0.0169,-0.10272 z m 0.0169,0.10272 c 0.002,0.0133 0.004,0.0266 0.006,0.04 -0.002,-0.0134 -0.004,-0.0267 -0.006,-0.04 z m 0.006,0.04 c 0.006,0.0467 0.0111,0.0938 0.0145,0.14131 -0.003,-0.0476 -0.008,-0.0946 -0.0145,-0.14131 z m 0.0145,0.14131 c 3e-5,4e-4 1.1e-4,7.8e-4 1.3e-4,0.001 h 1.47199 c -6.4e-4,-0.0144 -0.002,-0.0285 -0.003,-0.0428 v 0.0417 z m 1.46915,-0.0417 c -0.004,-0.0764 -0.0108,-0.15203 -0.0192,-0.22713 0.008,0.0751 0.015,0.15079 0.0192,0.22713 z m -0.0192,-0.22713 c -0.002,-0.0142 -0.003,-0.0284 -0.005,-0.0426 0.002,0.0142 0.003,0.0284 0.005,0.0426 z m -0.005,-0.0426 c -0.009,-0.0739 -0.02,-0.14722 -0.033,-0.21978 0.0131,0.0726 0.0239,0.14586 0.033,0.21978 z m -0.033,-0.21978 c -0.007,-0.0374 -0.014,-0.0745 -0.0218,-0.1115 0.008,0.037 0.0151,0.0741 0.0218,0.1115 z m -0.0218,-0.1115 c -0.002,-0.0104 -0.005,-0.0206 -0.007,-0.031 0.002,0.0103 0.005,0.0206 0.007,0.031 z m -0.007,-0.031 c -0.0135,-0.0617 -0.0284,-0.12281 -0.0446,-0.18339 0.0163,0.0606 0.0312,0.12167 0.0446,0.18339 z m -0.0446,-0.18339 c -0.004,-0.0133 -0.007,-0.0267 -0.0107,-0.04 0.004,0.0133 0.007,0.0267 0.0107,0.04 z m -0.0107,-0.04 c -0.01,-0.0345 -0.0197,-0.069 -0.0303,-0.10311 0.0106,0.0342 0.0206,0.0686 0.0303,0.10311 z m -0.0303,-0.10311 c -0.0217,-0.07 -0.0454,-0.13904 -0.0707,-0.20726 0.0254,0.0682 0.049,0.13729 0.0707,0.20726 z m -0.0707,-0.20726 c -0.004,-0.0117 -0.009,-0.0234 -0.0133,-0.0351 0.004,0.0117 0.009,0.0234 0.0133,0.0351 z m -0.0133,-0.0351 c -0.0262,-0.0684 -0.054,-0.13597 -0.0837,-0.20249 0.0298,0.0665 0.0576,0.13406 0.0837,0.20249 z m -0.0837,-0.20249 c -0.0149,-0.0334 -0.0305,-0.0664 -0.0463,-0.0992 0.0158,0.0328 0.0314,0.0659 0.0463,0.0992 z m -0.0463,-0.0992 c -0.004,-0.008 -0.008,-0.0162 -0.012,-0.0244 0.004,0.008 0.008,0.0162 0.012,0.0244 z m -0.012,-0.0244 c -0.0285,-0.0583 -0.0584,-0.11569 -0.0897,-0.17229 0.0313,0.0566 0.0611,0.11403 0.0897,0.17229 z m -0.0897,-0.17229 c -0.005,-0.009 -0.01,-0.0184 -0.0151,-0.0275 0.005,0.009 0.0101,0.0183 0.0151,0.0275 z m -0.0151,-0.0275 c -0.0173,-0.0308 -0.035,-0.0614 -0.0532,-0.0918 0.0181,0.0303 0.0358,0.0609 0.0532,0.0918 z m -6.86435,-0.0927 c -0.0184,0.0307 -0.0362,0.0618 -0.0538,0.093 0.0176,-0.0312 0.0354,-0.0623 0.0538,-0.093 z m -0.0538,0.093 c -0.005,0.008 -0.009,0.017 -0.0142,0.0256 0.005,-0.009 0.009,-0.0171 0.0142,-0.0256 z m -0.0142,0.0256 c -0.0318,0.0575 -0.0623,0.11589 -0.0913,0.17513 0.029,-0.0592 0.0594,-0.11761 0.0913,-0.17513 z m -0.0913,0.17513 c -0.004,0.008 -0.007,0.015 -0.0111,0.0226 0.004,-0.008 0.007,-0.0151 0.0111,-0.0226 z m -0.0111,0.0226 c -0.0157,0.0327 -0.0312,0.0655 -0.0461,0.0987 0.0149,-0.0332 0.0303,-0.066 0.0461,-0.0987 z m 1.92444,-0.1475 c -0.0349,0.0309 -0.0689,0.0626 -0.10195,0.0954 0.0331,-0.0327 0.0671,-0.0645 0.10195,-0.0954 z m -0.10569,0.0991 c -0.0683,0.0679 -0.13277,0.13964 -0.19294,0.21513 0.0602,-0.0754 0.12463,-0.14725 0.19294,-0.21513 z m -1.86857,0.15577 c -0.0282,0.0633 -0.0545,0.12761 -0.0795,0.19267 0.0249,-0.065 0.0513,-0.12936 0.0795,-0.19267 z m -0.0795,0.19267 c -0.005,0.0129 -0.01,0.0258 -0.0146,0.0387 0.005,-0.0129 0.01,-0.0259 0.0146,-0.0387 z m -0.0146,0.0387 c -0.0252,0.0678 -0.0488,0.13634 -0.0703,0.20584 0.0215,-0.0695 0.0452,-0.13807 0.0703,-0.20584 z m -0.0703,0.20584 c -0.0105,0.0338 -0.0203,0.0679 -0.0299,0.10208 0.01,-0.0342 0.0195,-0.0683 0.0299,-0.10208 z m -0.0299,0.10208 c -0.004,0.0144 -0.008,0.029 -0.0118,0.0435 0.004,-0.0145 0.008,-0.029 0.0118,-0.0435 z m -0.0118,0.0435 c -0.0153,0.0569 -0.0293,0.11436 -0.0421,0.17229 0.0128,-0.058 0.0268,-0.11535 0.0421,-0.17229 z m -0.0421,0.17229 c -0.003,0.0144 -0.006,0.0287 -0.009,0.0431 0.003,-0.0144 0.006,-0.0288 0.009,-0.0431 z m -0.009,0.0431 c -0.007,0.0352 -0.0144,0.0705 -0.0208,0.10608 0.006,-0.0355 0.0134,-0.0709 0.0208,-0.10608 z m 1.93,-0.7347 c -0.0277,0.0349 -0.0543,0.0705 -0.0802,0.10686 0.0258,-0.0363 0.0525,-0.072 0.0802,-0.10686 z m -0.0802,0.10686 c -0.004,0.005 -0.007,0.0104 -0.011,0.0156 0.004,-0.005 0.007,-0.0104 0.011,-0.0156 z m -0.011,0.0156 c -0.0243,0.0348 -0.0478,0.0702 -0.0703,0.10621 0.0225,-0.036 0.046,-0.0715 0.0703,-0.10621 z m -0.0703,0.10621 c -0.002,0.004 -0.005,0.008 -0.007,0.0115 0.002,-0.004 0.005,-0.008 0.007,-0.0115 z m -0.007,0.0115 c -0.0494,0.08 -0.0944,0.16324 -0.13473,0.24907 0.0404,-0.0858 0.0853,-0.16902 0.13473,-0.24907 z m -0.13473,0.24907 c -0.003,0.007 -0.007,0.0144 -0.01,0.0215 0.003,-0.007 0.006,-0.0144 0.01,-0.0215 z m -0.01,0.0215 c -0.0159,0.0347 -0.0311,0.0699 -0.0454,0.10544 0.0144,-0.0356 0.0295,-0.0707 0.0454,-0.10544 z m -0.0454,0.10544 c -0.004,0.01 -0.008,0.0195 -0.0118,0.0293 0.004,-0.01 0.008,-0.0196 0.0118,-0.0293 z m -0.0118,0.0293 c -0.0147,0.0377 -0.0284,0.0758 -0.0413,0.11447 0.0129,-0.0386 0.0266,-0.0768 0.0413,-0.11447 z m -0.0413,0.11447 c -0.002,0.006 -0.004,0.012 -0.006,0.0181 0.002,-0.006 0.004,-0.012 0.006,-0.0181 z m -0.006,0.0181 c -0.0144,0.0444 -0.0275,0.0893 -0.0395,0.13474 0.012,-0.0454 0.0251,-0.0904 0.0395,-0.13474 z m -0.0395,0.13474 c -0.002,0.009 -0.004,0.0172 -0.006,0.0258 0.002,-0.009 0.004,-0.0173 0.006,-0.0258 z m -0.006,0.0258 c -0.009,0.0366 -0.0177,0.0735 -0.0253,0.11073 0.008,-0.0372 0.0161,-0.0742 0.0253,-0.11073 z m -0.0253,0.11073 c -0.003,0.0137 -0.005,0.0274 -0.008,0.0412 0.003,-0.0138 0.005,-0.0275 0.008,-0.0412 z m -0.008,0.0412 c -0.006,0.0333 -0.0116,0.0669 -0.0165,0.10067 0.005,-0.0338 0.0103,-0.0673 0.0165,-0.10067 z m -0.0165,0.10067 c -0.002,0.0139 -0.004,0.0276 -0.006,0.0416 0.002,-0.0139 0.004,-0.0277 0.006,-0.0416 z m -0.006,0.0416 c -0.006,0.0467 -0.0109,0.0937 -0.0143,0.14118 0.003,-0.0475 0.008,-0.0945 0.0143,-0.14118 z m -0.0143,0.14118 h -1.4743 v -0.0417 c -7.9e-4,0.0143 -0.002,0.0285 -0.003,0.0428 h 1.47714 c 3e-5,-3.9e-4 1.1e-4,-7.7e-4 1.3e-4,-0.001 z m -1.4743,-0.0417 c 0.004,-0.0765 0.0109,-0.1523 0.0194,-0.22752 -0.008,0.0753 -0.0151,0.15101 -0.0194,0.22752 z m 0.0194,-0.22752 c 0.002,-0.0139 0.003,-0.0277 0.005,-0.0416 -0.002,0.0138 -0.003,0.0277 -0.005,0.0416 z m 0.005,-0.0416 c 0.009,-0.07 0.0188,-0.13947 0.031,-0.20829 -0.0122,0.0688 -0.0224,0.13827 -0.031,0.20829 z"
           id="path10792"
           inkscape:connector-curvature="0" />
        <path
           style="fill:none;fill-rule:evenodd;stroke:none;stroke-width:0.03059292;stroke-linecap:butt;stroke-linejoin:miter;stroke-miterlimit:4;stroke-dasharray:none;stroke-opacity:1"
           d="m 177.8056,155.56431 c -1.05518,0.66496 -1.77733,1.81318 -1.85049,3.14284 v 0.0417 h 1.4743 c 0.0593,-0.83346 0.52322,-1.5469 1.1913,-1.9549 z"
           id="path10916"
           inkscape:connector-curvature="0" />
        <path
           style="fill:#ff5555;fill-rule:evenodd;stroke:none;stroke-width:0.03059292;stroke-linecap:butt;stroke-linejoin:miter;stroke-miterlimit:4;stroke-dasharray:none;stroke-opacity:1"
           d="m 182.02772,155.56431 -0.81355,1.2273 c 0.66998,0.4076 1.13552,1.1222 1.1949,1.95722 h 1.46915 v -0.0417 c -0.0731,-1.3296 -0.7953,-2.47784 -1.8505,-3.14284 z"
           id="path10767"
           inkscape:connector-curvature="0" />
        <path
           style="opacity:1;fill:#808080;fill-opacity:1;stroke:none;stroke-width:0.01970902;stroke-linecap:butt;stroke-linejoin:miter;stroke-miterlimit:4;stroke-dasharray:none;stroke-dashoffset:0;stroke-opacity:1;paint-order:normal"
           d="m 180.90055,155.15792 c -0.28233,-0.0737 -0.58075,0.13294 -0.66653,0.46153 -0.2252,0.75659 -0.48752,1.50768 -0.73712,2.25371 -0.0234,0.0898 -0.0945,0.2468 -0.12213,0.35183 -0.11814,0.45259 0.0948,0.90007 0.47556,0.99947 0.38078,0.0994 0.78525,-0.18691 0.90339,-0.6395 0.0223,-0.0863 0.0401,-0.18138 0.0562,-0.2731 0.18127,-0.76292 0.34142,-1.78146 0.4465,-2.42551 0.0858,-0.3286 -0.0736,-0.65473 -0.35588,-0.72843 z"
           id="path10921"
           inkscape:connector-curvature="0"
           sodipodi:nodetypes="scccscccs" />
      </g>
      <g
         inkscape:label="#g10946"
         transform="matrix(1.711789,0,0,1.711789,193.02265,1141.1184)"
         id="metric1">
        <rect
           ry="0.078792952"
           y="161.66989"
           x="177.3609"
           height="2.4766641"
           width="5.1302652"
           id="rect10928"
           style="opacity:1;fill:#f2f2f2;fill-opacity:1;stroke:none;stroke-width:0.03059292;stroke-linecap:butt;stroke-linejoin:miter;stroke-miterlimit:4;stroke-dasharray:none;stroke-dashoffset:0;stroke-opacity:1;paint-order:normal" />
        <path
           sodipodi:nodetypes="ccccccc"
           inkscape:connector-curvature="0"
           id="path10930"
           d="m 179.84939,160.35156 c -2.12437,0.001 -3.87168,1.67386 -3.96577,3.79615 h 1.47713 c 0.0923,-1.30675 1.17863,-2.3201 2.48864,-2.3215 1.31102,1e-5 2.39887,1.01373 2.49127,2.3215 h 1.47201 c -0.0941,-2.12133 -1.83988,-3.79354 -3.96328,-3.79615 z"
           style="opacity:1;fill:#88e294;fill-opacity:1;stroke:none;stroke-width:0.19860359;stroke-linecap:butt;stroke-linejoin:miter;stroke-miterlimit:4;stroke-dasharray:none;stroke-dashoffset:0;stroke-opacity:1;paint-order:normal" />
        <path
           style="opacity:1;fill:#ffe680;fill-opacity:1;stroke:none;stroke-width:0.19860359;stroke-linecap:butt;stroke-linejoin:miter;stroke-miterlimit:4;stroke-dasharray:none;stroke-dashoffset:0;stroke-opacity:1;paint-order:normal"
           d="m 179.84943,160.3516 c -0.74281,-0.001 -1.48471,0.213 -2.11235,0.61042 0.2717,0.40987 0.54341,0.81975 0.81511,1.22962 0.75479,-0.47074 1.77253,-0.49043 2.53747,-0.0317 0.18484,-0.0129 0.19822,-0.26688 0.32245,-0.3729 0.18237,-0.27511 0.36473,-0.55022 0.54709,-0.82533 -0.62691,-0.39677 -1.36775,-0.61178 -2.10977,-0.61011 z"
           id="path10932"
           inkscape:connector-curvature="0" />
        <path
           inkscape:connector-curvature="0"
           id="path10934"
           d="m 177.73708,160.96202 c -1.05518,0.66496 -1.77733,1.81318 -1.85049,3.14284 v 0.0417 h 1.4743 c 0.0593,-0.83346 0.52322,-1.5469 1.1913,-1.9549 z"
           style="fill:none;fill-rule:evenodd;stroke:none;stroke-width:0.03059292;stroke-linecap:butt;stroke-linejoin:miter;stroke-miterlimit:4;stroke-dasharray:none;stroke-opacity:1" />
        <path
           inkscape:connector-curvature="0"
           id="path10936"
           d="m 181.9592,160.96202 -0.81355,1.2273 c 0.66998,0.4076 1.13552,1.1222 1.1949,1.95722 h 1.46915 v -0.0417 c -0.0731,-1.3296 -0.7953,-2.47784 -1.8505,-3.14284 z"
           style="fill:#ff5555;fill-rule:evenodd;stroke:none;stroke-width:0.03059292;stroke-linecap:butt;stroke-linejoin:miter;stroke-miterlimit:4;stroke-dasharray:none;stroke-opacity:1" />
        <path
           style="opacity:1;fill:#808080;fill-opacity:1;stroke:none;stroke-width:0.01970902;stroke-linecap:butt;stroke-linejoin:miter;stroke-miterlimit:4;stroke-dasharray:none;stroke-dashoffset:0;stroke-opacity:1;paint-order:normal"
           d="m 182.74356,161.88059 c -0.24062,-0.32112 -0.70964,-0.20338 -0.96393,0.0357 -0.73414,0.49236 -1.50044,0.93628 -2.2411,1.41697 -0.33378,0.27084 -0.45144,0.8721 -0.0609,1.1481 0.33794,0.24681 0.80634,0.12571 1.09164,-0.14442 0.73991,-0.58448 1.47079,-1.18638 2.15266,-1.83648 0.12365,-0.17834 0.15816,-0.43835 0.0217,-0.61992 z"
           id="path10938"
           inkscape:connector-curvature="0" />
        <animateMotion
           repeatCount="indefinite"
           dur="6s"
           begin="0s">
          <mpath
             xlink:href="#pathToKamon" />
        </animateMotion>
      </g>
      <g
         inkscape:label="#g10968"
         transform="matrix(1.711789,0,0,1.711789,-186.82312,1152.4156)"
         id="metric2">
        <rect
           ry="0.078792952"
           y="156.27217"
           x="177.42941"
           height="2.4766641"
           width="5.1302652"
           id="rect10956"
           style="opacity:1;fill:#f2f2f2;fill-opacity:1;stroke:none;stroke-width:0.03059292;stroke-linecap:butt;stroke-linejoin:miter;stroke-miterlimit:4;stroke-dasharray:none;stroke-dashoffset:0;stroke-opacity:1;paint-order:normal" />
        <path
           sodipodi:nodetypes="ccccccc"
           inkscape:connector-curvature="0"
           id="path10958"
           d="m 179.91791,154.95385 c -2.12437,0.001 -3.87168,1.67386 -3.96577,3.79615 h 1.47713 c 0.0923,-1.30675 1.17863,-2.3201 2.48864,-2.3215 1.31102,10e-6 2.39887,1.01373 2.49127,2.3215 h 1.47201 c -0.0941,-2.12133 -1.83988,-3.79354 -3.96328,-3.79615 z"
           style="opacity:1;fill:#88e294;fill-opacity:1;stroke:none;stroke-width:0.19860359;stroke-linecap:butt;stroke-linejoin:miter;stroke-miterlimit:4;stroke-dasharray:none;stroke-dashoffset:0;stroke-opacity:1;paint-order:normal" />
        <path
           inkscape:connector-curvature="0"
           id="path10960"
           d="m 179.91795,154.95389 c -0.77513,5.4e-4 -1.4996,0.22428 -2.11235,0.61042 l 0.81511,1.22962 c 0.37891,-0.2314 0.82328,-0.36497 1.29724,-0.36548 0.47342,1e-5 0.91737,0.13268 1.29622,0.36316 l 0.81355,-1.2273 c -0.61208,-0.38574 -1.33552,-0.60947 -2.10977,-0.61042 z m -1.29724,1.84004 c -0.12465,0.0761 -0.24217,0.1628 -0.35129,0.25901 0.10913,-0.0962 0.22665,-0.18289 0.35129,-0.25901 z m 3.40714,-1.22949 c 0.0329,0.0208 0.0656,0.0419 0.0978,0.0636 -0.0323,-0.0217 -0.0649,-0.0429 -0.0978,-0.0636 z m 0.0978,0.0636 c 0.0619,0.0416 0.12257,0.085 0.18197,0.12996 -0.0594,-0.045 -0.12002,-0.0883 -0.18197,-0.12996 z m 0.18197,0.12996 c 0.004,0.003 0.009,0.007 0.0133,0.0101 -0.004,-0.003 -0.009,-0.007 -0.0133,-0.0101 z m 0.0133,0.0101 c 0.0896,0.0684 0.17615,0.14043 0.25953,0.21603 -0.0834,-0.0756 -0.16996,-0.14766 -0.25953,-0.21603 z m -4.51623,-0.20313 c -0.0326,0.0206 -0.0649,0.0415 -0.0969,0.063 0.032,-0.0215 0.0643,-0.0424 0.0969,-0.063 z m -0.0977,0.0635 c -0.0607,0.0408 -0.11998,0.0834 -0.17822,0.12738 0.0582,-0.044 0.11756,-0.0866 0.17822,-0.12738 z m -0.17822,0.12738 c -0.006,0.005 -0.012,0.009 -0.0179,0.0134 0.006,-0.005 0.012,-0.009 0.0179,-0.0134 z m -0.0179,0.0134 c -0.0877,0.067 -0.17237,0.13757 -0.25411,0.21152 0.0817,-0.0739 0.16644,-0.14454 0.25411,-0.21152 z m -0.25411,0.21152 c -0.006,0.006 -0.0122,0.0112 -0.0183,0.0168 0.006,-0.006 0.0122,-0.0112 0.0183,-0.0168 z m -0.0183,0.0168 c -0.053,0.0486 -0.1049,0.0985 -0.15525,0.14983 0.0504,-0.0514 0.1022,-0.10124 0.15525,-0.14983 z m 5.35095,-0.005 c 0.0556,0.0507 0.10972,0.10291 0.16235,0.15667 -0.0526,-0.0538 -0.10678,-0.10596 -0.16235,-0.15667 z m 0.16235,0.15667 c 0.0266,0.0272 0.0528,0.0547 0.0786,0.0826 -0.0258,-0.0279 -0.052,-0.0554 -0.0786,-0.0826 z m -5.67035,2.6e-4 c -0.026,0.0266 -0.0515,0.0535 -0.0768,0.0808 0.0252,-0.0273 0.0508,-0.0542 0.0768,-0.0808 z m -0.0768,0.0808 c -0.005,0.005 -0.01,0.0107 -0.0146,0.016 0.005,-0.005 0.01,-0.0107 0.0146,-0.016 z m -0.0146,0.016 c -0.0438,0.0478 -0.0864,0.0967 -0.12777,0.14661 0.0414,-0.0499 0.084,-0.0988 0.12777,-0.14661 z m -0.12777,0.14661 c -0.007,0.009 -0.0143,0.0171 -0.0213,0.0257 0.007,-0.009 0.0142,-0.0171 0.0213,-0.0257 z m -0.0213,0.0257 c -0.0678,0.0832 -0.13228,0.16921 -0.19332,0.25785 0.061,-0.0886 0.12548,-0.17467 0.19332,-0.25785 z m -0.19332,0.25785 c -0.007,0.01 -0.0134,0.0195 -0.02,0.0293 0.007,-0.01 0.0133,-0.0196 0.02,-0.0293 z m -0.02,0.0293 c -0.0383,0.0567 -0.0752,0.11433 -0.11059,0.17306 0.0354,-0.0587 0.0723,-0.11639 0.11059,-0.17306 z m 6.21019,-0.46562 c 0.0469,0.051 0.0924,0.10335 0.13667,0.1568 -0.0442,-0.0535 -0.0898,-0.10576 -0.13667,-0.1568 z m 0.13667,0.1568 c 0.006,0.007 0.0111,0.0133 0.0165,0.02 -0.005,-0.007 -0.011,-0.0133 -0.0165,-0.02 z m 0.0165,0.02 c 0.0677,0.0829 0.1321,0.16871 0.19306,0.25707 -0.061,-0.0884 -0.12534,-0.17411 -0.19306,-0.25707 z m 0.19306,0.25707 c 0.008,0.0117 0.016,0.0236 0.024,0.0354 -0.008,-0.0118 -0.0159,-0.0236 -0.024,-0.0354 z m 0.024,0.0354 c 0.0364,0.054 0.0716,0.10884 0.10531,0.16468 -0.0338,-0.0559 -0.0689,-0.11068 -0.10531,-0.16468 z m -1.99168,0.084 c 0.12349,0.0753 0.24002,0.16104 0.34832,0.25604 -0.10829,-0.095 -0.22482,-0.18073 -0.34832,-0.25604 z m 0.34832,0.25604 c 0.003,0.002 0.006,0.005 0.008,0.007 -0.003,-0.002 -0.006,-0.005 -0.008,-0.007 z m 0.008,0.007 c 0.0334,0.0296 0.066,0.06 0.0978,0.0914 -0.0318,-0.0313 -0.0644,-0.0618 -0.0978,-0.0914 z m 0.0978,0.0914 c 0.002,0.002 0.004,0.004 0.007,0.006 -0.002,-0.002 -0.004,-0.004 -0.007,-0.006 z m 0.007,0.006 c 0.0678,0.0673 0.13195,0.13856 0.19177,0.21332 -0.0598,-0.0748 -0.12391,-0.14595 -0.19177,-0.21332 z m 0.19177,0.21332 c 0.002,0.003 0.004,0.005 0.006,0.008 -0.002,-0.003 -0.004,-0.005 -0.006,-0.008 z m 0.006,0.008 c 0.0266,0.0336 0.0524,0.0678 0.0773,0.10272 -0.0249,-0.0349 -0.0507,-0.0692 -0.0773,-0.10272 z m 0.0773,0.10272 c 0.004,0.006 0.009,0.0125 0.0132,0.0187 -0.004,-0.006 -0.009,-0.0125 -0.0132,-0.0187 z m 0.0132,0.0187 c 0.0227,0.0325 0.0445,0.0657 0.0657,0.0992 -0.0212,-0.0336 -0.043,-0.0668 -0.0657,-0.0992 z m 0.0657,0.0992 c 0.004,0.007 0.009,0.0132 0.0128,0.0199 -0.004,-0.007 -0.009,-0.0132 -0.0128,-0.0199 z m 0.0128,0.0199 c 0.0246,0.0398 0.0482,0.0803 0.0706,0.12157 -0.0224,-0.0413 -0.046,-0.0817 -0.0706,-0.12157 z m 0.0706,0.12157 c 0.0218,0.0402 0.0422,0.0811 0.0618,0.1226 -0.0196,-0.0415 -0.0401,-0.0824 -0.0618,-0.1226 z m 0.0618,0.1226 c 0.004,0.009 0.008,0.0184 0.0125,0.0276 -0.004,-0.009 -0.008,-0.0185 -0.0125,-0.0276 z m 0.0125,0.0276 c 0.0153,0.0333 0.0298,0.0671 0.0436,0.10118 -0.0138,-0.0341 -0.0284,-0.0678 -0.0436,-0.10118 z m 0.0436,0.10118 c 0.004,0.0103 0.008,0.0207 0.0125,0.0311 -0.004,-0.0104 -0.008,-0.0207 -0.0125,-0.0311 z m 0.0125,0.0311 c 0.0147,0.0379 0.0286,0.0761 0.0416,0.11486 -0.0129,-0.0388 -0.0268,-0.077 -0.0416,-0.11486 z m 0.0416,0.11486 c 0.002,0.006 0.004,0.011 0.006,0.0165 -0.002,-0.006 -0.004,-0.011 -0.006,-0.0165 z m 0.006,0.0165 c 0.0142,0.0436 0.0271,0.0877 0.039,0.13227 -0.0118,-0.0446 -0.0248,-0.0887 -0.039,-0.13227 z m 0.039,0.13227 c 0.003,0.0127 0.006,0.0256 0.009,0.0383 -0.003,-0.0128 -0.006,-0.0256 -0.009,-0.0383 z m 0.009,0.0383 c 0.008,0.0331 0.0158,0.0663 0.0227,0.0999 -0.007,-0.0336 -0.0145,-0.0668 -0.0227,-0.0999 z m 0.0227,0.0999 c 0.003,0.0142 0.006,0.0284 0.008,0.0427 -0.003,-0.0143 -0.005,-0.0285 -0.008,-0.0427 z m 0.008,0.0427 c 0.006,0.034 0.0119,0.0683 0.0169,0.10272 -0.005,-0.0345 -0.0105,-0.0687 -0.0169,-0.10272 z m 0.0169,0.10272 c 0.002,0.0133 0.004,0.0266 0.006,0.04 -0.002,-0.0134 -0.004,-0.0267 -0.006,-0.04 z m 0.006,0.04 c 0.006,0.0467 0.0111,0.0938 0.0145,0.14131 -0.003,-0.0476 -0.008,-0.0946 -0.0145,-0.14131 z m 0.0145,0.14131 c 3e-5,4e-4 1.1e-4,7.8e-4 1.3e-4,0.001 h 1.47199 c -6.4e-4,-0.0144 -0.002,-0.0285 -0.003,-0.0428 v 0.0417 z m 1.46915,-0.0417 c -0.004,-0.0764 -0.0108,-0.15203 -0.0192,-0.22713 0.008,0.0751 0.015,0.15079 0.0192,0.22713 z m -0.0192,-0.22713 c -0.002,-0.0142 -0.003,-0.0284 -0.005,-0.0426 0.002,0.0142 0.003,0.0284 0.005,0.0426 z m -0.005,-0.0426 c -0.009,-0.0739 -0.02,-0.14722 -0.033,-0.21978 0.0131,0.0726 0.0239,0.14586 0.033,0.21978 z m -0.033,-0.21978 c -0.007,-0.0374 -0.014,-0.0745 -0.0218,-0.1115 0.008,0.037 0.0151,0.0741 0.0218,0.1115 z m -0.0218,-0.1115 c -0.002,-0.0104 -0.005,-0.0206 -0.007,-0.031 0.002,0.0103 0.005,0.0206 0.007,0.031 z m -0.007,-0.031 c -0.0135,-0.0617 -0.0284,-0.12281 -0.0446,-0.18339 0.0163,0.0606 0.0312,0.12167 0.0446,0.18339 z m -0.0446,-0.18339 c -0.004,-0.0133 -0.007,-0.0267 -0.0107,-0.04 0.004,0.0133 0.007,0.0267 0.0107,0.04 z m -0.0107,-0.04 c -0.01,-0.0345 -0.0197,-0.069 -0.0303,-0.10311 0.0106,0.0342 0.0206,0.0686 0.0303,0.10311 z m -0.0303,-0.10311 c -0.0217,-0.07 -0.0454,-0.13904 -0.0707,-0.20726 0.0254,0.0682 0.049,0.13729 0.0707,0.20726 z m -0.0707,-0.20726 c -0.004,-0.0117 -0.009,-0.0234 -0.0133,-0.0351 0.004,0.0117 0.009,0.0234 0.0133,0.0351 z m -0.0133,-0.0351 c -0.0262,-0.0684 -0.054,-0.13597 -0.0837,-0.20249 0.0298,0.0665 0.0576,0.13406 0.0837,0.20249 z m -0.0837,-0.20249 c -0.0149,-0.0334 -0.0305,-0.0664 -0.0463,-0.0992 0.0158,0.0328 0.0314,0.0659 0.0463,0.0992 z m -0.0463,-0.0992 c -0.004,-0.008 -0.008,-0.0162 -0.012,-0.0244 0.004,0.008 0.008,0.0162 0.012,0.0244 z m -0.012,-0.0244 c -0.0285,-0.0583 -0.0584,-0.11569 -0.0897,-0.17229 0.0313,0.0566 0.0611,0.11403 0.0897,0.17229 z m -0.0897,-0.17229 c -0.005,-0.009 -0.01,-0.0184 -0.0151,-0.0275 0.005,0.009 0.0101,0.0183 0.0151,0.0275 z m -0.0151,-0.0275 c -0.0173,-0.0308 -0.035,-0.0614 -0.0532,-0.0918 0.0181,0.0303 0.0358,0.0609 0.0532,0.0918 z m -6.86435,-0.0927 c -0.0184,0.0307 -0.0362,0.0618 -0.0538,0.093 0.0176,-0.0312 0.0354,-0.0623 0.0538,-0.093 z m -0.0538,0.093 c -0.005,0.008 -0.009,0.017 -0.0142,0.0256 0.005,-0.009 0.009,-0.0171 0.0142,-0.0256 z m -0.0142,0.0256 c -0.0318,0.0575 -0.0623,0.11589 -0.0913,0.17513 0.029,-0.0592 0.0594,-0.11761 0.0913,-0.17513 z m -0.0913,0.17513 c -0.004,0.008 -0.007,0.015 -0.0111,0.0226 0.004,-0.008 0.007,-0.0151 0.0111,-0.0226 z m -0.0111,0.0226 c -0.0157,0.0327 -0.0312,0.0655 -0.0461,0.0987 0.0149,-0.0332 0.0303,-0.066 0.0461,-0.0987 z m 1.92444,-0.1475 c -0.0349,0.0309 -0.0689,0.0626 -0.10195,0.0954 0.0331,-0.0327 0.0671,-0.0645 0.10195,-0.0954 z m -0.10569,0.0991 c -0.0683,0.0679 -0.13277,0.13964 -0.19294,0.21513 0.0602,-0.0754 0.12463,-0.14725 0.19294,-0.21513 z m -1.86857,0.15577 c -0.0282,0.0633 -0.0545,0.12761 -0.0795,0.19267 0.0249,-0.065 0.0513,-0.12936 0.0795,-0.19267 z m -0.0795,0.19267 c -0.005,0.0129 -0.01,0.0258 -0.0146,0.0387 0.005,-0.0129 0.01,-0.0259 0.0146,-0.0387 z m -0.0146,0.0387 c -0.0252,0.0678 -0.0488,0.13634 -0.0703,0.20584 0.0215,-0.0695 0.0452,-0.13807 0.0703,-0.20584 z m -0.0703,0.20584 c -0.0105,0.0338 -0.0203,0.0679 -0.0299,0.10208 0.01,-0.0342 0.0195,-0.0683 0.0299,-0.10208 z m -0.0299,0.10208 c -0.004,0.0144 -0.008,0.029 -0.0118,0.0435 0.004,-0.0145 0.008,-0.029 0.0118,-0.0435 z m -0.0118,0.0435 c -0.0153,0.0569 -0.0293,0.11436 -0.0421,0.17229 0.0128,-0.058 0.0268,-0.11535 0.0421,-0.17229 z m -0.0421,0.17229 c -0.003,0.0144 -0.006,0.0287 -0.009,0.0431 0.003,-0.0144 0.006,-0.0288 0.009,-0.0431 z m -0.009,0.0431 c -0.007,0.0352 -0.0144,0.0705 -0.0208,0.10608 0.006,-0.0355 0.0134,-0.0709 0.0208,-0.10608 z m 1.93,-0.7347 c -0.0277,0.0349 -0.0543,0.0705 -0.0802,0.10686 0.0258,-0.0363 0.0525,-0.072 0.0802,-0.10686 z m -0.0802,0.10686 c -0.004,0.005 -0.007,0.0104 -0.011,0.0156 0.004,-0.005 0.007,-0.0104 0.011,-0.0156 z m -0.011,0.0156 c -0.0243,0.0348 -0.0478,0.0702 -0.0703,0.10621 0.0225,-0.036 0.046,-0.0715 0.0703,-0.10621 z m -0.0703,0.10621 c -0.002,0.004 -0.005,0.008 -0.007,0.0115 0.002,-0.004 0.005,-0.008 0.007,-0.0115 z m -0.007,0.0115 c -0.0494,0.08 -0.0944,0.16324 -0.13473,0.24907 0.0404,-0.0858 0.0853,-0.16902 0.13473,-0.24907 z m -0.13473,0.24907 c -0.003,0.007 -0.007,0.0144 -0.01,0.0215 0.003,-0.007 0.006,-0.0144 0.01,-0.0215 z m -0.01,0.0215 c -0.0159,0.0347 -0.0311,0.0699 -0.0454,0.10544 0.0144,-0.0356 0.0295,-0.0707 0.0454,-0.10544 z m -0.0454,0.10544 c -0.004,0.01 -0.008,0.0195 -0.0118,0.0293 0.004,-0.01 0.008,-0.0196 0.0118,-0.0293 z m -0.0118,0.0293 c -0.0147,0.0377 -0.0284,0.0758 -0.0413,0.11447 0.0129,-0.0386 0.0266,-0.0768 0.0413,-0.11447 z m -0.0413,0.11447 c -0.002,0.006 -0.004,0.012 -0.006,0.0181 0.002,-0.006 0.004,-0.012 0.006,-0.0181 z m -0.006,0.0181 c -0.0144,0.0444 -0.0275,0.0893 -0.0395,0.13474 0.012,-0.0454 0.0251,-0.0904 0.0395,-0.13474 z m -0.0395,0.13474 c -0.002,0.009 -0.004,0.0172 -0.006,0.0258 0.002,-0.009 0.004,-0.0173 0.006,-0.0258 z m -0.006,0.0258 c -0.009,0.0366 -0.0177,0.0735 -0.0253,0.11073 0.008,-0.0372 0.0161,-0.0742 0.0253,-0.11073 z m -0.0253,0.11073 c -0.003,0.0137 -0.005,0.0274 -0.008,0.0412 0.003,-0.0138 0.005,-0.0275 0.008,-0.0412 z m -0.008,0.0412 c -0.006,0.0333 -0.0116,0.0669 -0.0165,0.10067 0.005,-0.0338 0.0103,-0.0673 0.0165,-0.10067 z m -0.0165,0.10067 c -0.002,0.0139 -0.004,0.0276 -0.006,0.0416 0.002,-0.0139 0.004,-0.0277 0.006,-0.0416 z m -0.006,0.0416 c -0.006,0.0467 -0.0109,0.0937 -0.0143,0.14118 0.003,-0.0475 0.008,-0.0945 0.0143,-0.14118 z m -0.0143,0.14118 h -1.4743 v -0.0417 c -7.9e-4,0.0143 -0.002,0.0285 -0.003,0.0428 h 1.47714 c 3e-5,-3.9e-4 1.1e-4,-7.7e-4 1.3e-4,-0.001 z m -1.4743,-0.0417 c 0.004,-0.0765 0.0109,-0.1523 0.0194,-0.22752 -0.008,0.0753 -0.0151,0.15101 -0.0194,0.22752 z m 0.0194,-0.22752 c 0.002,-0.0139 0.003,-0.0277 0.005,-0.0416 -0.002,0.0138 -0.003,0.0277 -0.005,0.0416 z m 0.005,-0.0416 c 0.009,-0.07 0.0188,-0.13947 0.031,-0.20829 -0.0122,0.0688 -0.0224,0.13827 -0.031,0.20829 z"
           style="opacity:1;fill:#ffe680;fill-opacity:1;stroke:none;stroke-width:0.19860359;stroke-linecap:butt;stroke-linejoin:miter;stroke-miterlimit:4;stroke-dasharray:none;stroke-dashoffset:0;stroke-opacity:1;paint-order:normal" />
        <path
           inkscape:connector-curvature="0"
           id="path10962"
           d="m 177.8056,155.56431 c -1.05518,0.66496 -1.77733,1.81318 -1.85049,3.14284 v 0.0417 h 1.4743 c 0.0593,-0.83346 0.52322,-1.5469 1.1913,-1.9549 z"
           style="fill:none;fill-rule:evenodd;stroke:none;stroke-width:0.03059292;stroke-linecap:butt;stroke-linejoin:miter;stroke-miterlimit:4;stroke-dasharray:none;stroke-opacity:1" />
        <path
           inkscape:connector-curvature="0"
           id="path10964"
           d="m 182.02772,155.56431 -0.81355,1.2273 c 0.66998,0.4076 1.13552,1.1222 1.1949,1.95722 h 1.46915 v -0.0417 c -0.0731,-1.3296 -0.7953,-2.47784 -1.8505,-3.14284 z"
           style="fill:#ff5555;fill-rule:evenodd;stroke:none;stroke-width:0.03059292;stroke-linecap:butt;stroke-linejoin:miter;stroke-miterlimit:4;stroke-dasharray:none;stroke-opacity:1" />
        <path
           sodipodi:nodetypes="scccscccs"
           inkscape:connector-curvature="0"
           id="path10966"
           d="m 176.7953,157.49988 c -0.0863,0.27873 0.10674,0.58613 0.43115,0.68657 0.74571,0.25894 1.48427,0.55471 2.21834,0.83755 0.0887,0.0274 0.24231,0.10549 0.346,0.13781 0.44683,0.13833 0.90341,-0.0543 1.01981,-0.43022 0.11639,-0.37593 -0.15147,-0.79285 -0.5983,-0.93118 -0.0852,-0.0262 -0.1794,-0.0482 -0.2703,-0.0684 -0.75402,-0.21533 -1.76434,-0.42105 -2.40302,-0.55493 -0.32442,-0.10047 -0.65738,0.0441 -0.74368,0.32282 z"
           style="opacity:1;fill:#808080;fill-opacity:1;stroke:none;stroke-width:0.01970902;stroke-linecap:butt;stroke-linejoin:miter;stroke-miterlimit:4;stroke-dasharray:none;stroke-dashoffset:0;stroke-opacity:1;paint-order:normal" />
      </g>
      <g
         inkscape:label="#g10982"
         transform="matrix(1.711789,0,0,1.711789,-121.19294,1146.5063)"
         id="metric3">
        <rect
           ry="0.078792952"
           y="156.27217"
           x="177.42941"
           height="2.4766641"
           width="5.1302652"
           id="rect10970"
           style="opacity:1;fill:#f2f2f2;fill-opacity:1;stroke:none;stroke-width:0.03059292;stroke-linecap:butt;stroke-linejoin:miter;stroke-miterlimit:4;stroke-dasharray:none;stroke-dashoffset:0;stroke-opacity:1;paint-order:normal" />
        <path
           sodipodi:nodetypes="ccccccc"
           inkscape:connector-curvature="0"
           id="path10972"
           d="m 179.91791,154.95385 c -2.12437,0.001 -3.87168,1.67386 -3.96577,3.79615 h 1.47713 c 0.0923,-1.30675 1.17863,-2.3201 2.48864,-2.3215 1.31102,10e-6 2.39887,1.01373 2.49127,2.3215 h 1.47201 c -0.0941,-2.12133 -1.83988,-3.79354 -3.96328,-3.79615 z"
           style="opacity:1;fill:#88e294;fill-opacity:1;stroke:none;stroke-width:0.19860359;stroke-linecap:butt;stroke-linejoin:miter;stroke-miterlimit:4;stroke-dasharray:none;stroke-dashoffset:0;stroke-opacity:1;paint-order:normal" />
        <path
           inkscape:connector-curvature="0"
           id="path10974"
           d="m 179.91795,154.95389 c -0.77513,5.4e-4 -1.4996,0.22428 -2.11235,0.61042 l 0.81511,1.22962 c 0.37891,-0.2314 0.82328,-0.36497 1.29724,-0.36548 0.47342,1e-5 0.91737,0.13268 1.29622,0.36316 l 0.81355,-1.2273 c -0.61208,-0.38574 -1.33552,-0.60947 -2.10977,-0.61042 z m -1.29724,1.84004 c -0.12465,0.0761 -0.24217,0.1628 -0.35129,0.25901 0.10913,-0.0962 0.22665,-0.18289 0.35129,-0.25901 z m 3.40714,-1.22949 c 0.0329,0.0208 0.0656,0.0419 0.0978,0.0636 -0.0323,-0.0217 -0.0649,-0.0429 -0.0978,-0.0636 z m 0.0978,0.0636 c 0.0619,0.0416 0.12257,0.085 0.18197,0.12996 -0.0594,-0.045 -0.12002,-0.0883 -0.18197,-0.12996 z m 0.18197,0.12996 c 0.004,0.003 0.009,0.007 0.0133,0.0101 -0.004,-0.003 -0.009,-0.007 -0.0133,-0.0101 z m 0.0133,0.0101 c 0.0896,0.0684 0.17615,0.14043 0.25953,0.21603 -0.0834,-0.0756 -0.16996,-0.14766 -0.25953,-0.21603 z m -4.51623,-0.20313 c -0.0326,0.0206 -0.0649,0.0415 -0.0969,0.063 0.032,-0.0215 0.0643,-0.0424 0.0969,-0.063 z m -0.0977,0.0635 c -0.0607,0.0408 -0.11998,0.0834 -0.17822,0.12738 0.0582,-0.044 0.11756,-0.0866 0.17822,-0.12738 z m -0.17822,0.12738 c -0.006,0.005 -0.012,0.009 -0.0179,0.0134 0.006,-0.005 0.012,-0.009 0.0179,-0.0134 z m -0.0179,0.0134 c -0.0877,0.067 -0.17237,0.13757 -0.25411,0.21152 0.0817,-0.0739 0.16644,-0.14454 0.25411,-0.21152 z m -0.25411,0.21152 c -0.006,0.006 -0.0122,0.0112 -0.0183,0.0168 0.006,-0.006 0.0122,-0.0112 0.0183,-0.0168 z m -0.0183,0.0168 c -0.053,0.0486 -0.1049,0.0985 -0.15525,0.14983 0.0504,-0.0514 0.1022,-0.10124 0.15525,-0.14983 z m 5.35095,-0.005 c 0.0556,0.0507 0.10972,0.10291 0.16235,0.15667 -0.0526,-0.0538 -0.10678,-0.10596 -0.16235,-0.15667 z m 0.16235,0.15667 c 0.0266,0.0272 0.0528,0.0547 0.0786,0.0826 -0.0258,-0.0279 -0.052,-0.0554 -0.0786,-0.0826 z m -5.67035,2.6e-4 c -0.026,0.0266 -0.0515,0.0535 -0.0768,0.0808 0.0252,-0.0273 0.0508,-0.0542 0.0768,-0.0808 z m -0.0768,0.0808 c -0.005,0.005 -0.01,0.0107 -0.0146,0.016 0.005,-0.005 0.01,-0.0107 0.0146,-0.016 z m -0.0146,0.016 c -0.0438,0.0478 -0.0864,0.0967 -0.12777,0.14661 0.0414,-0.0499 0.084,-0.0988 0.12777,-0.14661 z m -0.12777,0.14661 c -0.007,0.009 -0.0143,0.0171 -0.0213,0.0257 0.007,-0.009 0.0142,-0.0171 0.0213,-0.0257 z m -0.0213,0.0257 c -0.0678,0.0832 -0.13228,0.16921 -0.19332,0.25785 0.061,-0.0886 0.12548,-0.17467 0.19332,-0.25785 z m -0.19332,0.25785 c -0.007,0.01 -0.0134,0.0195 -0.02,0.0293 0.007,-0.01 0.0133,-0.0196 0.02,-0.0293 z m -0.02,0.0293 c -0.0383,0.0567 -0.0752,0.11433 -0.11059,0.17306 0.0354,-0.0587 0.0723,-0.11639 0.11059,-0.17306 z m 6.21019,-0.46562 c 0.0469,0.051 0.0924,0.10335 0.13667,0.1568 -0.0442,-0.0535 -0.0898,-0.10576 -0.13667,-0.1568 z m 0.13667,0.1568 c 0.006,0.007 0.0111,0.0133 0.0165,0.02 -0.005,-0.007 -0.011,-0.0133 -0.0165,-0.02 z m 0.0165,0.02 c 0.0677,0.0829 0.1321,0.16871 0.19306,0.25707 -0.061,-0.0884 -0.12534,-0.17411 -0.19306,-0.25707 z m 0.19306,0.25707 c 0.008,0.0117 0.016,0.0236 0.024,0.0354 -0.008,-0.0118 -0.0159,-0.0236 -0.024,-0.0354 z m 0.024,0.0354 c 0.0364,0.054 0.0716,0.10884 0.10531,0.16468 -0.0338,-0.0559 -0.0689,-0.11068 -0.10531,-0.16468 z m -1.99168,0.084 c 0.12349,0.0753 0.24002,0.16104 0.34832,0.25604 -0.10829,-0.095 -0.22482,-0.18073 -0.34832,-0.25604 z m 0.34832,0.25604 c 0.003,0.002 0.006,0.005 0.008,0.007 -0.003,-0.002 -0.006,-0.005 -0.008,-0.007 z m 0.008,0.007 c 0.0334,0.0296 0.066,0.06 0.0978,0.0914 -0.0318,-0.0313 -0.0644,-0.0618 -0.0978,-0.0914 z m 0.0978,0.0914 c 0.002,0.002 0.004,0.004 0.007,0.006 -0.002,-0.002 -0.004,-0.004 -0.007,-0.006 z m 0.007,0.006 c 0.0678,0.0673 0.13195,0.13856 0.19177,0.21332 -0.0598,-0.0748 -0.12391,-0.14595 -0.19177,-0.21332 z m 0.19177,0.21332 c 0.002,0.003 0.004,0.005 0.006,0.008 -0.002,-0.003 -0.004,-0.005 -0.006,-0.008 z m 0.006,0.008 c 0.0266,0.0336 0.0524,0.0678 0.0773,0.10272 -0.0249,-0.0349 -0.0507,-0.0692 -0.0773,-0.10272 z m 0.0773,0.10272 c 0.004,0.006 0.009,0.0125 0.0132,0.0187 -0.004,-0.006 -0.009,-0.0125 -0.0132,-0.0187 z m 0.0132,0.0187 c 0.0227,0.0325 0.0445,0.0657 0.0657,0.0992 -0.0212,-0.0336 -0.043,-0.0668 -0.0657,-0.0992 z m 0.0657,0.0992 c 0.004,0.007 0.009,0.0132 0.0128,0.0199 -0.004,-0.007 -0.009,-0.0132 -0.0128,-0.0199 z m 0.0128,0.0199 c 0.0246,0.0398 0.0482,0.0803 0.0706,0.12157 -0.0224,-0.0413 -0.046,-0.0817 -0.0706,-0.12157 z m 0.0706,0.12157 c 0.0218,0.0402 0.0422,0.0811 0.0618,0.1226 -0.0196,-0.0415 -0.0401,-0.0824 -0.0618,-0.1226 z m 0.0618,0.1226 c 0.004,0.009 0.008,0.0184 0.0125,0.0276 -0.004,-0.009 -0.008,-0.0185 -0.0125,-0.0276 z m 0.0125,0.0276 c 0.0153,0.0333 0.0298,0.0671 0.0436,0.10118 -0.0138,-0.0341 -0.0284,-0.0678 -0.0436,-0.10118 z m 0.0436,0.10118 c 0.004,0.0103 0.008,0.0207 0.0125,0.0311 -0.004,-0.0104 -0.008,-0.0207 -0.0125,-0.0311 z m 0.0125,0.0311 c 0.0147,0.0379 0.0286,0.0761 0.0416,0.11486 -0.0129,-0.0388 -0.0268,-0.077 -0.0416,-0.11486 z m 0.0416,0.11486 c 0.002,0.006 0.004,0.011 0.006,0.0165 -0.002,-0.006 -0.004,-0.011 -0.006,-0.0165 z m 0.006,0.0165 c 0.0142,0.0436 0.0271,0.0877 0.039,0.13227 -0.0118,-0.0446 -0.0248,-0.0887 -0.039,-0.13227 z m 0.039,0.13227 c 0.003,0.0127 0.006,0.0256 0.009,0.0383 -0.003,-0.0128 -0.006,-0.0256 -0.009,-0.0383 z m 0.009,0.0383 c 0.008,0.0331 0.0158,0.0663 0.0227,0.0999 -0.007,-0.0336 -0.0145,-0.0668 -0.0227,-0.0999 z m 0.0227,0.0999 c 0.003,0.0142 0.006,0.0284 0.008,0.0427 -0.003,-0.0143 -0.005,-0.0285 -0.008,-0.0427 z m 0.008,0.0427 c 0.006,0.034 0.0119,0.0683 0.0169,0.10272 -0.005,-0.0345 -0.0105,-0.0687 -0.0169,-0.10272 z m 0.0169,0.10272 c 0.002,0.0133 0.004,0.0266 0.006,0.04 -0.002,-0.0134 -0.004,-0.0267 -0.006,-0.04 z m 0.006,0.04 c 0.006,0.0467 0.0111,0.0938 0.0145,0.14131 -0.003,-0.0476 -0.008,-0.0946 -0.0145,-0.14131 z m 0.0145,0.14131 c 3e-5,4e-4 1.1e-4,7.8e-4 1.3e-4,0.001 h 1.47199 c -6.4e-4,-0.0144 -0.002,-0.0285 -0.003,-0.0428 v 0.0417 z m 1.46915,-0.0417 c -0.004,-0.0764 -0.0108,-0.15203 -0.0192,-0.22713 0.008,0.0751 0.015,0.15079 0.0192,0.22713 z m -0.0192,-0.22713 c -0.002,-0.0142 -0.003,-0.0284 -0.005,-0.0426 0.002,0.0142 0.003,0.0284 0.005,0.0426 z m -0.005,-0.0426 c -0.009,-0.0739 -0.02,-0.14722 -0.033,-0.21978 0.0131,0.0726 0.0239,0.14586 0.033,0.21978 z m -0.033,-0.21978 c -0.007,-0.0374 -0.014,-0.0745 -0.0218,-0.1115 0.008,0.037 0.0151,0.0741 0.0218,0.1115 z m -0.0218,-0.1115 c -0.002,-0.0104 -0.005,-0.0206 -0.007,-0.031 0.002,0.0103 0.005,0.0206 0.007,0.031 z m -0.007,-0.031 c -0.0135,-0.0617 -0.0284,-0.12281 -0.0446,-0.18339 0.0163,0.0606 0.0312,0.12167 0.0446,0.18339 z m -0.0446,-0.18339 c -0.004,-0.0133 -0.007,-0.0267 -0.0107,-0.04 0.004,0.0133 0.007,0.0267 0.0107,0.04 z m -0.0107,-0.04 c -0.01,-0.0345 -0.0197,-0.069 -0.0303,-0.10311 0.0106,0.0342 0.0206,0.0686 0.0303,0.10311 z m -0.0303,-0.10311 c -0.0217,-0.07 -0.0454,-0.13904 -0.0707,-0.20726 0.0254,0.0682 0.049,0.13729 0.0707,0.20726 z m -0.0707,-0.20726 c -0.004,-0.0117 -0.009,-0.0234 -0.0133,-0.0351 0.004,0.0117 0.009,0.0234 0.0133,0.0351 z m -0.0133,-0.0351 c -0.0262,-0.0684 -0.054,-0.13597 -0.0837,-0.20249 0.0298,0.0665 0.0576,0.13406 0.0837,0.20249 z m -0.0837,-0.20249 c -0.0149,-0.0334 -0.0305,-0.0664 -0.0463,-0.0992 0.0158,0.0328 0.0314,0.0659 0.0463,0.0992 z m -0.0463,-0.0992 c -0.004,-0.008 -0.008,-0.0162 -0.012,-0.0244 0.004,0.008 0.008,0.0162 0.012,0.0244 z m -0.012,-0.0244 c -0.0285,-0.0583 -0.0584,-0.11569 -0.0897,-0.17229 0.0313,0.0566 0.0611,0.11403 0.0897,0.17229 z m -0.0897,-0.17229 c -0.005,-0.009 -0.01,-0.0184 -0.0151,-0.0275 0.005,0.009 0.0101,0.0183 0.0151,0.0275 z m -0.0151,-0.0275 c -0.0173,-0.0308 -0.035,-0.0614 -0.0532,-0.0918 0.0181,0.0303 0.0358,0.0609 0.0532,0.0918 z m -6.86435,-0.0927 c -0.0184,0.0307 -0.0362,0.0618 -0.0538,0.093 0.0176,-0.0312 0.0354,-0.0623 0.0538,-0.093 z m -0.0538,0.093 c -0.005,0.008 -0.009,0.017 -0.0142,0.0256 0.005,-0.009 0.009,-0.0171 0.0142,-0.0256 z m -0.0142,0.0256 c -0.0318,0.0575 -0.0623,0.11589 -0.0913,0.17513 0.029,-0.0592 0.0594,-0.11761 0.0913,-0.17513 z m -0.0913,0.17513 c -0.004,0.008 -0.007,0.015 -0.0111,0.0226 0.004,-0.008 0.007,-0.0151 0.0111,-0.0226 z m -0.0111,0.0226 c -0.0157,0.0327 -0.0312,0.0655 -0.0461,0.0987 0.0149,-0.0332 0.0303,-0.066 0.0461,-0.0987 z m 1.92444,-0.1475 c -0.0349,0.0309 -0.0689,0.0626 -0.10195,0.0954 0.0331,-0.0327 0.0671,-0.0645 0.10195,-0.0954 z m -0.10569,0.0991 c -0.0683,0.0679 -0.13277,0.13964 -0.19294,0.21513 0.0602,-0.0754 0.12463,-0.14725 0.19294,-0.21513 z m -1.86857,0.15577 c -0.0282,0.0633 -0.0545,0.12761 -0.0795,0.19267 0.0249,-0.065 0.0513,-0.12936 0.0795,-0.19267 z m -0.0795,0.19267 c -0.005,0.0129 -0.01,0.0258 -0.0146,0.0387 0.005,-0.0129 0.01,-0.0259 0.0146,-0.0387 z m -0.0146,0.0387 c -0.0252,0.0678 -0.0488,0.13634 -0.0703,0.20584 0.0215,-0.0695 0.0452,-0.13807 0.0703,-0.20584 z m -0.0703,0.20584 c -0.0105,0.0338 -0.0203,0.0679 -0.0299,0.10208 0.01,-0.0342 0.0195,-0.0683 0.0299,-0.10208 z m -0.0299,0.10208 c -0.004,0.0144 -0.008,0.029 -0.0118,0.0435 0.004,-0.0145 0.008,-0.029 0.0118,-0.0435 z m -0.0118,0.0435 c -0.0153,0.0569 -0.0293,0.11436 -0.0421,0.17229 0.0128,-0.058 0.0268,-0.11535 0.0421,-0.17229 z m -0.0421,0.17229 c -0.003,0.0144 -0.006,0.0287 -0.009,0.0431 0.003,-0.0144 0.006,-0.0288 0.009,-0.0431 z m -0.009,0.0431 c -0.007,0.0352 -0.0144,0.0705 -0.0208,0.10608 0.006,-0.0355 0.0134,-0.0709 0.0208,-0.10608 z m 1.93,-0.7347 c -0.0277,0.0349 -0.0543,0.0705 -0.0802,0.10686 0.0258,-0.0363 0.0525,-0.072 0.0802,-0.10686 z m -0.0802,0.10686 c -0.004,0.005 -0.007,0.0104 -0.011,0.0156 0.004,-0.005 0.007,-0.0104 0.011,-0.0156 z m -0.011,0.0156 c -0.0243,0.0348 -0.0478,0.0702 -0.0703,0.10621 0.0225,-0.036 0.046,-0.0715 0.0703,-0.10621 z m -0.0703,0.10621 c -0.002,0.004 -0.005,0.008 -0.007,0.0115 0.002,-0.004 0.005,-0.008 0.007,-0.0115 z m -0.007,0.0115 c -0.0494,0.08 -0.0944,0.16324 -0.13473,0.24907 0.0404,-0.0858 0.0853,-0.16902 0.13473,-0.24907 z m -0.13473,0.24907 c -0.003,0.007 -0.007,0.0144 -0.01,0.0215 0.003,-0.007 0.006,-0.0144 0.01,-0.0215 z m -0.01,0.0215 c -0.0159,0.0347 -0.0311,0.0699 -0.0454,0.10544 0.0144,-0.0356 0.0295,-0.0707 0.0454,-0.10544 z m -0.0454,0.10544 c -0.004,0.01 -0.008,0.0195 -0.0118,0.0293 0.004,-0.01 0.008,-0.0196 0.0118,-0.0293 z m -0.0118,0.0293 c -0.0147,0.0377 -0.0284,0.0758 -0.0413,0.11447 0.0129,-0.0386 0.0266,-0.0768 0.0413,-0.11447 z m -0.0413,0.11447 c -0.002,0.006 -0.004,0.012 -0.006,0.0181 0.002,-0.006 0.004,-0.012 0.006,-0.0181 z m -0.006,0.0181 c -0.0144,0.0444 -0.0275,0.0893 -0.0395,0.13474 0.012,-0.0454 0.0251,-0.0904 0.0395,-0.13474 z m -0.0395,0.13474 c -0.002,0.009 -0.004,0.0172 -0.006,0.0258 0.002,-0.009 0.004,-0.0173 0.006,-0.0258 z m -0.006,0.0258 c -0.009,0.0366 -0.0177,0.0735 -0.0253,0.11073 0.008,-0.0372 0.0161,-0.0742 0.0253,-0.11073 z m -0.0253,0.11073 c -0.003,0.0137 -0.005,0.0274 -0.008,0.0412 0.003,-0.0138 0.005,-0.0275 0.008,-0.0412 z m -0.008,0.0412 c -0.006,0.0333 -0.0116,0.0669 -0.0165,0.10067 0.005,-0.0338 0.0103,-0.0673 0.0165,-0.10067 z m -0.0165,0.10067 c -0.002,0.0139 -0.004,0.0276 -0.006,0.0416 0.002,-0.0139 0.004,-0.0277 0.006,-0.0416 z m -0.006,0.0416 c -0.006,0.0467 -0.0109,0.0937 -0.0143,0.14118 0.003,-0.0475 0.008,-0.0945 0.0143,-0.14118 z m -0.0143,0.14118 h -1.4743 v -0.0417 c -7.9e-4,0.0143 -0.002,0.0285 -0.003,0.0428 h 1.47714 c 3e-5,-3.9e-4 1.1e-4,-7.7e-4 1.3e-4,-0.001 z m -1.4743,-0.0417 c 0.004,-0.0765 0.0109,-0.1523 0.0194,-0.22752 -0.008,0.0753 -0.0151,0.15101 -0.0194,0.22752 z m 0.0194,-0.22752 c 0.002,-0.0139 0.003,-0.0277 0.005,-0.0416 -0.002,0.0138 -0.003,0.0277 -0.005,0.0416 z m 0.005,-0.0416 c 0.009,-0.07 0.0188,-0.13947 0.031,-0.20829 -0.0122,0.0688 -0.0224,0.13827 -0.031,0.20829 z"
           style="opacity:1;fill:#ffe680;fill-opacity:1;stroke:none;stroke-width:0.19860359;stroke-linecap:butt;stroke-linejoin:miter;stroke-miterlimit:4;stroke-dasharray:none;stroke-dashoffset:0;stroke-opacity:1;paint-order:normal" />
        <path
           inkscape:connector-curvature="0"
           id="path10976"
           d="m 177.8056,155.56431 c -1.05518,0.66496 -1.77733,1.81318 -1.85049,3.14284 v 0.0417 h 1.4743 c 0.0593,-0.83346 0.52322,-1.5469 1.1913,-1.9549 z"
           style="fill:none;fill-rule:evenodd;stroke:none;stroke-width:0.03059292;stroke-linecap:butt;stroke-linejoin:miter;stroke-miterlimit:4;stroke-dasharray:none;stroke-opacity:1" />
        <path
           inkscape:connector-curvature="0"
           id="path10978"
           d="m 182.02772,155.56431 -0.81355,1.2273 c 0.66998,0.4076 1.13552,1.1222 1.1949,1.95722 h 1.46915 v -0.0417 c -0.0731,-1.3296 -0.7953,-2.47784 -1.8505,-3.14284 z"
           style="fill:#ff5555;fill-rule:evenodd;stroke:none;stroke-width:0.03059292;stroke-linecap:butt;stroke-linejoin:miter;stroke-miterlimit:4;stroke-dasharray:none;stroke-opacity:1" />
        <path
           sodipodi:nodetypes="scccscccs"
           inkscape:connector-curvature="0"
           id="path10980"
           d="m 178.55532,155.43331 c -0.25751,0.13723 -0.33679,0.49144 -0.17708,0.79115 0.34738,0.70885 0.66375,1.43882 0.98604,2.15645 0.0437,0.0819 0.0978,0.24549 0.14874,0.34143 0.21999,0.41279 0.67989,0.59738 1.02718,0.41231 0.3473,-0.18508 0.45053,-0.66976 0.23054,-1.08255 -0.0421,-0.0786 -0.0935,-0.16052 -0.14383,-0.23886 -0.38397,-0.68372 -0.95676,-1.54103 -1.31615,-2.08572 -0.1597,-0.29972 -0.49798,-0.4314 -0.75545,-0.29421 z"
           style="opacity:1;fill:#808080;fill-opacity:1;stroke:none;stroke-width:0.01970902;stroke-linecap:butt;stroke-linejoin:miter;stroke-miterlimit:4;stroke-dasharray:none;stroke-dashoffset:0;stroke-opacity:1;paint-order:normal" />
      </g>
      <path
         inkscape:label="#path10984"
         inkscape:connector-curvature="0"
         id="pathToKamon"
         d="m 247.2568,1384.362 221.89021,-44.3116 v 0 0"
         style="fill:none;fill-rule:evenodd;stroke:#000000;stroke-width:0.44050983px;stroke-linecap:butt;stroke-linejoin:miter;stroke-opacity:1" />
      <path
         inkscape:label="#path10986"
         inkscape:connector-curvature="0"
         id="pathToPrometheus"
         d="m 247.2568,1384.362 221.89021,-3.9265"
         style="fill:none;fill-rule:evenodd;stroke:#000000;stroke-width:0.43055928px;stroke-linecap:butt;stroke-linejoin:miter;stroke-opacity:1" />
      <path
         inkscape:label="#path10988"
         inkscape:connector-curvature="0"
         id="pathToZipkin"
         d="m 247.2568,1384.362 222.12581,35.0805"
         style="fill:none;fill-rule:evenodd;stroke:#000000;stroke-width:0.43055928px;stroke-linecap:butt;stroke-linejoin:miter;stroke-opacity:1" />
    </g>
  </g>
  <g
     inkscape:groupmode="layer"
     id="layer7"
     inkscape:label="components"
     style="display:none"
     sodipodi:insensitive="true">
    <g
       transform="matrix(0.11602151,0,0,0.11602151,-142.46362,-239.2085)"
       aria-label="Prometheus"
       style="font-style:normal;font-variant:normal;font-weight:normal;font-stretch:normal;font-size:259.09927368px;line-height:125%;font-family:Lato;-inkscape-font-specification:'Lato, Normal';font-variant-ligatures:normal;font-variant-caps:normal;font-variant-numeric:normal;font-feature-settings:normal;text-align:start;letter-spacing:0px;word-spacing:0px;writing-mode:lr-tb;text-anchor:start;display:inline;fill:#e6522c;fill-opacity:1;stroke:none;stroke-width:6.47748184px;stroke-linecap:butt;stroke-linejoin:miter;stroke-opacity:1;enable-background:new"
       id="text9817">
      <g
         id="g9871"
         transform="matrix(0.56511964,0,0,0.56511964,1598.6162,1113.2071)">
        <g
           style="display:inline;fill:#e6522c;fill-opacity:1"
           transform="matrix(2.5728373,0,0,2.5728373,1668.5691,2088.7091)"
           id="g9813">
          <g
             style="fill:#e6522c;fill-opacity:1"
             id="Layer_2" />
          <g
             style="fill:#e6522c;fill-opacity:1"
             id="g9801">
            <path
               style="fill:#e6522c;fill-opacity:1"
               inkscape:connector-curvature="0"
               d="M 56.667,0.667 C 25.372,0.667 0,26.036 0,57.332 c 0,31.295 25.372,56.666 56.667,56.666 31.295,0 56.666,-25.371 56.666,-56.666 0,-31.296 -25.372,-56.665 -56.666,-56.665 z m 0,106.055 c -8.904,0 -16.123,-5.948 -16.123,-13.283 H 72.79 c 0,7.334 -7.219,13.283 -16.123,13.283 z M 83.297,89.04 H 30.034 V 79.382 H 83.298 V 89.04 Z M 83.106,74.411 H 30.186 C 30.01,74.208 29.83,74.008 29.66,73.802 24.208,67.182 22.924,63.726 21.677,60.204 c -0.021,-0.116 6.611,1.355 11.314,2.413 0,0 2.42,0.56 5.958,1.205 -3.397,-3.982 -5.414,-9.044 -5.414,-14.218 0,-11.359 8.712,-21.285 5.569,-29.308 3.059,0.249 6.331,6.456 6.552,16.161 3.252,-4.494 4.613,-12.701 4.613,-17.733 0,-5.21 3.433,-11.262 6.867,-11.469 -3.061,5.045 0.793,9.37 4.219,20.099 1.285,4.03 1.121,10.812 2.113,15.113 C 63.797,33.534 65.333,20.5 71,16 c -2.5,5.667 0.37,12.758 2.333,16.167 3.167,5.5 5.087,9.667 5.087,17.548 0,5.284 -1.951,10.259 -5.242,14.148 3.742,-0.702 6.326,-1.335 6.326,-1.335 l 12.152,-2.371 c 10e-4,-10e-4 -1.765,7.261 -8.55,14.254 z"
               id="path9799" />
          </g>
        </g>
      </g>
    </g>
    <g
       style="display:inline;enable-background:new"
       id="g8797"
       inkscape:label="Gear12"
       transform="matrix(0.19522262,0,0,0.19522262,17.381584,33.831801)">
      <g
         id="g9720"
         transform="matrix(0.26458333,0,0,0.26458333,-128.47223,-68.755028)">
        <path
           id="path9440"
           d="m 836.35748,315.20241 c -6.023,-72.283 -66.861,-128.904 -140.95,-128.904 -39.153,0 -74.089,15.661 -99.991,40.96 -10.24,-4.819 -21.082,-7.228 -33.129,-7.228 -42.767,0 -77.704,34.936 -77.704,77.704 0,6.024 0.602,12.649 2.409,18.071 -35.538,7.227 -62.644,39.152 -62.644,77.1 0,42.767 34.936,77.704 77.704,77.704 h 326.475 c 42.767,0 77.704,-34.936 77.704,-77.704 -0.001,-40.357 -30.721,-73.487 -69.874,-77.703 z"
           style="fill:#27a2db"
           inkscape:connector-curvature="0" />
        <g
           id="g9446"
           transform="translate(424.34848,185.99741)">
          <path
             id="path9442"
             d="m 53.609,170.767 27.106,-5.421 -3.012,-11.445 -9.638,1.807 c -13.854,2.409 -25.901,10.842 -33.129,22.287 5.422,-3.011 11.445,-6.023 18.673,-7.228 z"
             style="fill:#2d93ba"
             inkscape:connector-curvature="0" />
          <path
             id="path9444"
             d="m 409.6,155.708 -21.685,-2.409 -1.807,-21.685 C 380.687,72.583 330.692,26.805 271.661,26.805 c -30.72,0 -59.633,12.047 -81.318,33.732 l -13.252,13.252 -16.866,-7.831 c -7.228,-3.012 -14.456,-4.819 -21.685,-4.819 -18.071,0 -33.732,9.035 -42.767,23.492 7.831,-5.421 18.071,-8.433 28.311,-8.433 7.228,0 15.059,1.807 21.685,4.819 l 16.866,7.831 13.252,-13.252 c 21.685,-21.685 50.598,-33.732 81.318,-33.732 59.031,0 109.628,46.381 114.447,104.809 l 1.807,21.685 21.685,2.409 c 26.504,3.012 46.381,24.696 46.381,51.2 0,10.24 -3.012,19.878 -8.433,28.311 13.854,-9.035 23.492,-25.299 23.492,-42.767 -1.205,-27.106 -21.083,-49.393 -46.984,-51.803 z"
             style="fill:#2d93ba"
             inkscape:connector-curvature="0" />
        </g>
        <g
           id="g10441"
           transform="translate(5.9297229,34.285849)">
          <g
             transform="translate(448.53675,-91.036429)"
             id="g9456">
            <path
               inkscape:connector-curvature="0"
               style="fill:#ebf0f3"
               d="M 377.073,397.252 H 104.809 c -4.819,0 -9.035,4.216 -9.035,9.035 v 66.259 c 0,5.421 3.614,9.035 9.035,9.035 h 272.264 c 4.819,0 9.035,-4.216 9.035,-9.035 V 406.89 c -0.602,-5.422 -4.216,-9.638 -9.035,-9.638 z"
               id="path9452" />
          </g>
          <circle
             style="fill:#3a556a"
             cx="578.64471"
             cy="348.98257"
             r="16.865999"
             id="circle9474" />
          <circle
             style="fill:#64798a"
             cx="579.24774"
             cy="348.37955"
             r="12.047"
             id="circle9476" />
          <circle
             style="fill:#e56353"
             cx="620.20776"
             cy="348.98257"
             r="8.4329996"
             id="circle9478" />
          <circle
             style="fill:#44c4a1"
             cx="654.54175"
             cy="348.98257"
             r="8.4329996"
             id="circle9480" />
          <g
             transform="translate(448.53675,-91.036429)"
             id="g9590">
            <rect
               x="242.748"
               y="411.10599"
               style="fill:#d5d6db"
               width="14.456"
               height="14.456"
               id="rect9554" />
            <rect
               x="271.66101"
               y="411.10599"
               style="fill:#d5d6db"
               width="14.456"
               height="14.456"
               id="rect9556" />
            <rect
               x="300.57401"
               y="411.10599"
               style="fill:#d5d6db"
               width="14.456"
               height="14.456"
               id="rect9558" />
            <rect
               x="328.88501"
               y="411.10599"
               style="fill:#d5d6db"
               width="14.456"
               height="14.456"
               id="rect9560" />
            <rect
               x="357.798"
               y="411.10599"
               style="fill:#d5d6db"
               width="14.456"
               height="14.456"
               id="rect9562" />
            <rect
               x="257.20499"
               y="425.56201"
               style="fill:#d5d6db"
               width="14.456"
               height="14.456"
               id="rect9564" />
            <rect
               x="286.11801"
               y="425.56201"
               style="fill:#d5d6db"
               width="14.456"
               height="14.456"
               id="rect9566" />
            <rect
               x="315.03101"
               y="425.56201"
               style="fill:#d5d6db"
               width="14.456"
               height="14.456"
               id="rect9568" />
            <rect
               x="343.341"
               y="425.56201"
               style="fill:#d5d6db"
               width="14.456"
               height="14.456"
               id="rect9570" />
            <rect
               x="242.748"
               y="440.01901"
               style="fill:#d5d6db"
               width="14.456"
               height="14.456"
               id="rect9572" />
            <rect
               x="271.66101"
               y="440.01901"
               style="fill:#d5d6db"
               width="14.456"
               height="14.456"
               id="rect9574" />
            <rect
               x="300.57401"
               y="440.01901"
               style="fill:#d5d6db"
               width="14.456"
               height="14.456"
               id="rect9576" />
            <rect
               x="328.88501"
               y="440.01901"
               style="fill:#d5d6db"
               width="14.456"
               height="14.456"
               id="rect9578" />
            <rect
               x="357.798"
               y="440.01901"
               style="fill:#d5d6db"
               width="14.456"
               height="14.456"
               id="rect9580" />
            <rect
               x="257.20499"
               y="453.87299"
               style="fill:#d5d6db"
               width="14.456"
               height="14.456"
               id="rect9582" />
            <rect
               x="286.11801"
               y="453.87299"
               style="fill:#d5d6db"
               width="14.456"
               height="14.456"
               id="rect9584" />
            <rect
               x="315.03101"
               y="453.87299"
               style="fill:#d5d6db"
               width="14.456"
               height="14.456"
               id="rect9586" />
            <rect
               x="343.341"
               y="453.87299"
               style="fill:#d5d6db"
               width="14.456"
               height="14.456"
               id="rect9588" />
          </g>
        </g>
        <g
           id="g9592" />
        <g
           id="g9594" />
        <g
           id="g9596" />
        <g
           id="g9598" />
        <g
           id="g9600" />
        <g
           id="g9602" />
        <g
           id="g9604" />
        <g
           id="g9606" />
        <g
           id="g9608" />
        <g
           id="g9610" />
        <g
           id="g9612" />
        <g
           id="g9614" />
        <g
           id="g9616" />
        <g
           id="g9618" />
        <g
           id="g9620" />
      </g>
    </g>
    <g
       style="display:inline;enable-background:new"
       id="g10625"
       transform="matrix(0.87007714,0,0,0.87007714,-45.971799,-74.433601)">
      <circle
         r="13.286891"
         cy="154.50824"
         cx="238.99332"
         id="path10606"
         style="opacity:1;fill:#f9f9f9;fill-opacity:0.94509804;stroke:none;stroke-width:0.19582133;stroke-linecap:butt;stroke-linejoin:miter;stroke-miterlimit:4;stroke-dasharray:none;stroke-dashoffset:0;stroke-opacity:1;paint-order:normal" />
      <g
         transform="matrix(0.0251308,0,0,0.0251308,227.87407,147.74121)"
         id="g10359"
         style="clip-rule:evenodd;fill-rule:evenodd">
        <g
           id="picture"
           transform="matrix(1.97717,0,0,1.97717,-147.142,-489.518)">
          <g
             id="Clip">
            <clipPath
               id="_clip1">
              <path
                 inkscape:connector-curvature="0"
                 d="m 297.97,254.996 c -24.502,0.001 -44.363,19.862 -44.363,44.364 0.012,18.531 11.545,35.102 28.916,41.556 v 5.675 l 5.736,5.741 -0.659,41.828 -149.649,-0.094 c -2.371,-0.006 -4.424,-1.733 -4.424,-1.733 -2.243,-2.267 1.512,-11.638 1.512,-11.638 l 2.829,-6.035 c 1.343,-3.006 1.835,-3.144 2.619,-4.589 -3.184,0.289 -4.974,0.663 -7.17,1.245 -6.674,1.886 -9.977,3.174 -17.661,6.622 -7.539,3.582 -10.666,5.048 -15.729,8.266 -8.085,4.687 -11.907,7.738 -18.149,11.599 0.458,0.389 0.939,0.692 1.44,0.957 4.978,3.209 8.844,6.069 15.873,10.143 5.063,3.218 8.19,4.684 15.729,8.266 7.684,3.448 10.987,4.736 17.661,6.622 2.196,0.582 3.986,0.95 7.17,1.24 -0.784,-1.446 -1.276,-1.577 -2.619,-4.584 l -2.829,-6.035 c 0,0 -3.755,-9.371 -1.512,-11.638 0,0 1.005,-0.828 2.409,-1.339 0.797,-0.147 1.637,-0.272 2.486,-0.394 l 43.045,-0.028 107.589,0.316 0.405,11.87 1.66,17.523 1.025,11.227 11.958,-0.005 0.997,-10.929 1.655,-17.877 0.438,-11.809 162.516,0.858 21.271,0.692 c 4.83,0.402 9.527,1.256 13.791,2.43 l 7.507,2.209 c 1.497,-1.324 2.234,-2.494 2.652,-3.975 0.584,-1.938 0.512,-4.132 0.532,-5.785 -0.068,-1.565 -0.056,-3.775 -0.349,-5.254 -0.458,-1.442 -1.15,-2.651 -2.647,-3.976 l -7.507,2.209 c -3.47,0.977 -8.264,2.023 -13.797,2.425 l -21.52,1.102 H 306.358 l -0.072,-41.816 5.741,-5.183 -0.006,-6.234 c 17.573,-6.334 30.288,-22.993 30.312,-41.672 0,-24.502 -19.862,-44.363 -44.363,-44.363 z m -0.105,7.945 c 24.953,0.414 36.781,20.345 36.568,36.623 -0.243,18.513 -15.845,35.815 -36.242,36.436 -20.113,0 -36.418,-16.305 -36.418,-36.419 0,-20.114 15.978,-36.64 36.092,-36.64 z"
                 id="path10316" />
            </clipPath>
            <g
               clip-path="url(#_clip1)"
               id="g10323">
              <path
                 inkscape:connector-curvature="0"
                 id="path27"
                 d="m 297.97,254.996 c -24.502,0.001 -44.363,19.862 -44.363,44.364 0.012,18.531 11.545,35.102 28.916,41.556 v 5.675 l 5.736,5.741 -0.659,41.828 -149.649,-0.094 c -2.371,-0.006 -4.424,-1.733 -4.424,-1.733 -2.243,-2.267 1.512,-11.638 1.512,-11.638 l 2.829,-6.035 c 1.343,-3.006 1.835,-3.144 2.619,-4.589 -3.184,0.289 -4.974,0.663 -7.17,1.245 -6.674,1.886 -9.977,3.174 -17.661,6.622 -7.539,3.582 -10.666,5.048 -15.729,8.266 -8.085,4.687 -11.907,7.738 -18.149,11.599 0.458,0.389 0.939,0.692 1.44,0.957 4.978,3.209 8.844,6.069 15.873,10.143 5.063,3.218 8.19,4.684 15.729,8.266 7.684,3.448 10.987,4.736 17.661,6.622 2.196,0.582 3.986,0.95 7.17,1.24 -0.784,-1.446 -1.276,-1.577 -2.619,-4.584 l -2.829,-6.035 c 0,0 -3.755,-9.371 -1.512,-11.638 0,0 1.005,-0.828 2.409,-1.339 0.797,-0.147 1.637,-0.272 2.486,-0.394 l 43.045,-0.028 107.589,0.316 0.405,11.87 1.66,17.523 1.025,11.227 11.958,-0.005 0.997,-10.929 1.655,-17.877 0.438,-11.809 162.516,0.858 21.271,0.692 c 4.83,0.402 9.527,1.256 13.791,2.43 l 7.507,2.209 c 1.497,-1.324 2.234,-2.494 2.652,-3.975 0.584,-1.938 0.512,-4.132 0.532,-5.785 -0.068,-1.565 -0.056,-3.775 -0.349,-5.254 -0.458,-1.442 -1.15,-2.651 -2.647,-3.976 l -7.507,2.209 c -3.47,0.977 -8.264,2.023 -13.797,2.425 l -21.52,1.102 H 306.358 l -0.072,-41.816 5.741,-5.183 -0.006,-6.234 c 17.573,-6.334 30.288,-22.993 30.312,-41.672 0,-24.502 -19.862,-44.363 -44.363,-44.363 z m -0.105,7.945 c 24.953,0.414 36.781,20.345 36.568,36.623 -0.243,18.513 -15.845,35.815 -36.242,36.436 -20.113,0 -36.418,-16.305 -36.418,-36.419 0,-20.114 15.978,-36.64 36.092,-36.64 z"
                 style="fill-opacity:0.997;fill-rule:nonzero" />
              <g
                 id="path21-0-4"
                 transform="matrix(0.264583,0,0,0.264583,81.1171,254.995)">
                <path
                   inkscape:connector-curvature="0"
                   d="m 819.611,0 c -92.604,0.001 -167.675,75.072 -167.676,167.676 0.047,70.041 43.623,132.674 109.278,157.068 v 21.448 l 21.692,21.692 -2.503,158.087 -565.6,-0.349 c -8.96,-0.023 -16.715,-6.555 -16.715,-6.555 -8.477,-8.566 5.709,-43.987 5.709,-43.987 l 10.696,-22.805 c 5.078,-11.364 6.945,-11.871 9.905,-17.334 -12.033,1.093 -18.811,2.495 -27.112,4.695 -25.226,7.127 -37.694,11.993 -66.736,25.024 -28.491,13.54 -40.319,19.079 -59.456,31.242 -30.558,17.716 -45.012,29.248 -68.602,43.838 1.728,1.472 3.559,2.634 5.454,3.637 18.813,12.128 33.423,22.924 59.987,38.323 19.137,12.163 30.964,17.708 59.455,31.248 29.043,13.031 41.511,17.898 66.736,25.024 8.302,2.2 15.079,3.597 27.112,4.69 -2.96,-5.463 -4.826,-5.97 -9.904,-17.335 l -10.697,-22.799 c 0,0 -14.185,-35.427 -5.708,-43.992 0,0 3.795,-3.14 9.102,-5.071 3.013,-0.555 6.201,-1.025 9.406,-1.484 l 162.688,-0.1 406.633,1.201 1.534,44.851 6.273,66.227 3.859,42.436 45.21,-0.017 3.754,-41.296 6.256,-67.572 1.672,-44.629 614.227,3.228 80.39,2.635 c 18.25,1.522 36.02,4.742 52.14,9.179 l 28.36,8.344 c 5.66,-5.005 8.43,-9.425 10.01,-15.02 2.21,-7.327 1.94,-15.608 2.02,-21.858 -0.26,-5.915 -0.21,-14.285 -1.31,-19.876 -1.73,-5.448 -4.36,-10.015 -10.01,-15.02 l -28.37,8.343 c -13.12,3.69 -31.23,7.657 -52.14,9.179 l -81.33,4.169 H 851.313 l -0.282,-158.056 21.699,-19.586 -0.02,-23.561 C 939.126,301.239 987.188,238.273 987.28,167.674 987.279,75.07 912.216,0.001 819.611,0 Z m -0.407,30.034 c 94.313,1.564 139.008,76.905 138.202,138.429 -0.918,69.969 -59.868,135.349 -136.959,137.695 -76.02,10e-4 -137.646,-61.626 -137.646,-137.646 0,-76.02 60.383,-138.478 136.403,-138.478 z"
                   style="fill:#231f20;fill-opacity:0.997;fill-rule:nonzero"
                   id="path10320" />
              </g>
            </g>
          </g>
          <path
             inkscape:connector-curvature="0"
             id="path57"
             d="m 149.207,465.01 29.356,0.11 -21.252,38.383 20.038,-0.017 -0.111,6.551 -31.011,0.046 21.21,-38.598 h -18.34 z"
             style="fill:#231f20;stroke:#231f20;stroke-width:0.75px" />
          <path
             inkscape:connector-curvature="0"
             id="path59"
             d="m 210.346,464.955 h 6.512 l -0.006,45.141 h -6.467 z"
             style="fill:#231f20;stroke:#231f20;stroke-width:0.75px" />
          <path
             inkscape:connector-curvature="0"
             id="path63"
             d="m 305.477,465.01 6.401,-0.055 -0.029,17.547 18.568,-17.538 9.286,0.078 -22.809,21.716 22.822,23.312 h -9.258 l -18.664,-19.236 0.05,19.339 h -6.368 z"
             style="fill:#231f20;stroke:#231f20;stroke-width:0.75px" />
          <path
             inkscape:connector-curvature="0"
             id="path65"
             d="m 370.424,465.065 6.511,-0.11 v 45.082 l -6.456,0.055 z"
             style="fill:#231f20;stroke:#231f20;stroke-width:0.75px" />
          <path
             inkscape:connector-curvature="0"
             id="path67"
             d="m 412.085,463.354 31.78,32.322 0.302,-31.122 6.369,0.046 0.055,47.047 -32.143,-32.263 -0.038,30.819 -6.493,-0.111 z"
             style="fill:#231f20;stroke:#231f20;stroke-width:0.75px" />
          <g
             transform="translate(74.4208,247.586)"
             id="g10333">
            <path
               inkscape:connector-curvature="0"
               d="m 177.973,217.369 c 4.745,0.074 13.409,0.055 13.409,0.055 2.314,0.24 4.716,1.363 6.661,2.816 2.157,1.92 3.423,3.746 3.921,5.873 0.393,2.937 0.381,5.385 0.097,8.196 -0.746,2.99 -1.892,4.822 -3.567,6.648 -2.085,1.738 -3.851,2.529 -6.412,3.106 -2.228,0.235 -5.339,0.195 -7.843,0.211 l 0.156,18.484 h -6.492 z m 6.243,20.366 0.083,-13.868 4.924,-0.017 c 2.669,0.265 4.252,0.9 5.304,2.126 1.071,1.559 1.348,2.538 1.379,4.304 0.143,1.071 -0.003,2.472 -0.882,4.36 -0.768,1.074 -0.843,1.389 -2.167,2.158 -1.556,0.642 -0.601,0.525 -3.848,0.932 z"
               style="fill:#231f20;stroke:#231f20;stroke-width:0.75px"
               id="path10331" />
          </g>
        </g>
      </g>
    </g>
    <g
       style="display:inline;enable-background:new"
       id="g10489"
       transform="translate(-107.77744,-96.272901)">
      <g
         transform="matrix(0.01041173,0,0,0.01041173,123.53018,92.777876)"
         id="g9746"
         style="display:inline">
        <circle
           style="opacity:1;fill:#f2f2f2;fill-opacity:1;stroke:none;stroke-width:3.20736885;stroke-linecap:butt;stroke-linejoin:miter;stroke-miterlimit:4;stroke-dasharray:none;stroke-dashoffset:0;stroke-opacity:0.99607843;paint-order:normal"
           id="path9736"
           cx="2130.3608"
           cy="4166.8472"
           r="445.4679" />
        <g
           id="g9734"
           transform="matrix(1.9281908,0,0,1.9281908,1847.9562,3893.0441)">
          <path
             style="fill:#cccccc;fill-opacity:1"
             d="m 153.7,244 36.5,38 c 1.2,1.2 3.1,2 5,2 h 89.5 c 5.2,0 8.3,-4.7 5.2,-8.1 l -83,-102.5 c -1.8,-2 -5.2,-1.9 -6.9,0.1 L 153.4,238 c -1.6,1.8 -1.4,4.2 0.3,6 z"
             class="st1"
             id="path9722"
             inkscape:connector-curvature="0" />
          <linearGradient
             xlink:href="#XMLID_15_-2"
             y2="-214.94597"
             x2="63.891499"
             y1="198.12531"
             x1="63.891499"
             gradientUnits="userSpaceOnUse"
             id="linearGradient9728">
            <stop
               id="stop9724"
               style="stop-color:#145643"
               offset="0" />
            <stop
               id="stop9726"
               style="stop-color:#14C441"
               offset="1" />
          </linearGradient>
          <path
             style="fill:#147242;fill-opacity:1"
             d="M 77,12.8 C 69.8,4.7 60.2,0 50.1,0 32.8,0 17.5,13.6 12.7,33.4 5.9,62 1.8,91.2 0.5,120.6 v 0 l 9.8,13.4 c 17.5,24.1 47.9,25.2 66.7,4.5 2.8,-2.3 5.4,-4.9 7.8,-7.8 L 127.4,79.2 C 127.3,79.2 79.5,15 77,12.8 Z"
             class="st2"
             id="path9730"
             inkscape:connector-curvature="0" />
          <path
             d="m 284.6,0 h -73.3 c -12.9,0 -24.8,5.9 -31.7,15.7 l -52.4,63.5 -42.6,51.5 c -2.4,2.9 -5,5.4 -7.8,7.8 C 58,159.2 27.6,158.1 10.1,134 L 0.3,120.6 v 0 0 0 c -1.4,30.8 0.2,61.7 4.9,92.2 0,0.1 0,0.1 0,0.2 0.4,2.3 0.7,4.7 1.1,7 0.1,0.4 0.1,0.8 0.2,1.2 0.3,2 0.7,4.1 1.1,6.1 0.1,0.5 0.2,1 0.3,1.5 0.4,2 0.8,3.9 1.2,5.9 0.1,0.5 0.2,0.9 0.3,1.4 0.5,2.2 0.9,4.4 1.4,6.6 0,0.2 0.1,0.4 0.1,0.5 4.9,22.3 20.9,38.4 39.9,40.5 0.2,0 0.3,0.1 0.5,0.1 1.3,0.1 2.5,0.2 3.8,0.2 0,0 0.1,0 0.1,0 v 0 c 32.3,0 50.7,-18.2 59.9,-30.8 L 291.7,11.8 C 295.4,6.7 291.4,0 284.6,0 Z"
             class="st3"
             id="path9732"
             inkscape:connector-curvature="0"
             style="fill:#14c441;fill-opacity:0.8627451" />
        </g>
      </g>
      <text
         id="text10396"
         y="143.76884"
         x="141.68295"
         style="font-style:normal;font-variant:normal;font-weight:normal;font-stretch:normal;font-size:4.08209133px;line-height:125%;font-family:'Harabara Mais Demo';-inkscape-font-specification:'Harabara Mais Demo, Normal';font-variant-ligatures:normal;font-variant-caps:normal;font-variant-numeric:normal;font-feature-settings:normal;text-align:start;letter-spacing:0px;word-spacing:0px;writing-mode:lr-tb;text-anchor:start;display:inline;fill:#808080;fill-opacity:1;stroke:none;stroke-width:0.10205308px;stroke-linecap:butt;stroke-linejoin:miter;stroke-opacity:1"
         xml:space="preserve"><tspan
           style="font-style:normal;font-variant:normal;font-weight:normal;font-stretch:normal;font-size:4.08209133px;font-family:'Harabara Mais Demo';-inkscape-font-specification:'Harabara Mais Demo, Normal';font-variant-ligatures:normal;font-variant-caps:normal;font-variant-numeric:normal;font-feature-settings:normal;text-align:start;writing-mode:lr-tb;text-anchor:start;fill:#808080;stroke-width:0.10205308px"
           y="143.76884"
           x="141.68295"
           id="tspan10394"
           sodipodi:role="line">core</tspan></text>
    </g>
    <g
       style="display:inline;enable-background:new"
       id="g10476"
       transform="matrix(1.8124792,0,0,1.8124792,-149.90801,-210.1353)">
      <g
         style="display:inline"
         id="g10459"
         transform="matrix(0.00963406,0,0,0.00963406,149.86137,81.920851)">
        <circle
           r="620.6438"
           cy="4342.0229"
           cx="2305.5366"
           id="circle10443"
           style="opacity:1;fill:#fafafa;fill-opacity:1;stroke:none;stroke-width:4.46863508;stroke-linecap:butt;stroke-linejoin:miter;stroke-miterlimit:4;stroke-dasharray:none;stroke-dashoffset:0;stroke-opacity:1;paint-order:normal" />
        <g
           transform="matrix(1.9281908,0,0,1.9281908,2023.132,3893.0441)"
           id="g10457">
          <path
             inkscape:connector-curvature="0"
             id="path10445"
             class="st1"
             d="m 153.7,244 36.5,38 c 1.2,1.2 3.1,2 5,2 h 89.5 c 5.2,0 8.3,-4.7 5.2,-8.1 l -83,-102.5 c -1.8,-2 -5.2,-1.9 -6.9,0.1 L 153.4,238 c -1.6,1.8 -1.4,4.2 0.3,6 z"
             style="fill:#cccccc;fill-opacity:1" />
          <linearGradient
             id="linearGradient10451"
             gradientUnits="userSpaceOnUse"
             x1="63.891499"
             y1="198.12531"
             x2="63.891499"
             y2="-214.94597"
             xlink:href="#XMLID_15_-2">
            <stop
               offset="0"
               style="stop-color:#145643"
               id="stop10447" />
            <stop
               offset="1"
               style="stop-color:#14C441"
               id="stop10449" />
          </linearGradient>
          <path
             inkscape:connector-curvature="0"
             id="path10453"
             class="st2"
             d="M 77,12.8 C 69.8,4.7 60.2,0 50.1,0 32.8,0 17.5,13.6 12.7,33.4 5.9,62 1.8,91.2 0.5,120.6 v 0 l 9.8,13.4 c 17.5,24.1 47.9,25.2 66.7,4.5 2.8,-2.3 5.4,-4.9 7.8,-7.8 L 127.4,79.2 C 127.3,79.2 79.5,15 77,12.8 Z"
             style="fill:#147242;fill-opacity:1" />
          <path
             style="fill:#14c441;fill-opacity:0.8627451"
             inkscape:connector-curvature="0"
             id="path10455"
             class="st3"
             d="m 284.6,0 h -73.3 c -12.9,0 -24.8,5.9 -31.7,15.7 l -52.4,63.5 -42.6,51.5 c -2.4,2.9 -5,5.4 -7.8,7.8 C 58,159.2 27.6,158.1 10.1,134 L 0.3,120.6 v 0 0 0 c -1.4,30.8 0.2,61.7 4.9,92.2 0,0.1 0,0.1 0,0.2 0.4,2.3 0.7,4.7 1.1,7 0.1,0.4 0.1,0.8 0.2,1.2 0.3,2 0.7,4.1 1.1,6.1 0.1,0.5 0.2,1 0.3,1.5 0.4,2 0.8,3.9 1.2,5.9 0.1,0.5 0.2,0.9 0.3,1.4 0.5,2.2 0.9,4.4 1.4,6.6 0,0.2 0.1,0.4 0.1,0.5 4.9,22.3 20.9,38.4 39.9,40.5 0.2,0 0.3,0.1 0.5,0.1 1.3,0.1 2.5,0.2 3.8,0.2 0,0 0.1,0 0.1,0 v 0 c 32.3,0 50.7,-18.2 59.9,-30.8 L 291.7,11.8 C 295.4,6.7 291.4,0 284.6,0 Z" />
        </g>
      </g>
      <text
         xml:space="preserve"
         style="font-style:normal;font-variant:normal;font-weight:normal;font-stretch:normal;font-size:3.40978217px;line-height:125%;font-family:'Harabara Mais Demo';-inkscape-font-specification:'Harabara Mais Demo, Normal';font-variant-ligatures:normal;font-variant-caps:normal;font-variant-numeric:normal;font-feature-settings:normal;text-align:start;letter-spacing:0px;word-spacing:0px;writing-mode:lr-tb;text-anchor:start;display:inline;fill:#808080;fill-opacity:1;stroke:none;stroke-width:0.08524523px;stroke-linecap:butt;stroke-linejoin:miter;stroke-opacity:1"
         x="168.86667"
         y="127.59587"
         id="text10463"><tspan
           sodipodi:role="line"
           id="tspan10461"
           x="168.86667"
           y="127.59587"
           style="font-style:normal;font-variant:normal;font-weight:normal;font-stretch:normal;font-size:3.40978217px;font-family:'Harabara Mais Demo';-inkscape-font-specification:'Harabara Mais Demo, Normal';font-variant-ligatures:normal;font-variant-caps:normal;font-variant-numeric:normal;font-feature-settings:normal;text-align:start;writing-mode:lr-tb;text-anchor:start;fill:#808080;stroke-width:0.08524523px">apm</tspan></text>
    </g>
  </g>
  <style
     type="text/css"
     id="style994">
	.st0{fill:#3A493E;}
	.st1{fill:#B3B3B3;}
	.st2{fill:url(#XMLID_15_);}
	.st3{fill:#14C441;}
</style>
  <style
     type="text/css"
     id="style994-2">
	.st0{fill:#3A493E;}
	.st1{fill:#B3B3B3;}
	.st2{fill:url(#XMLID_15_);}
	.st3{fill:#14C441;}
</style>
  <style
     type="text/css"
     id="style994-7">
	.st0{fill:#3A493E;}
	.st1{fill:#B3B3B3;}
	.st2{fill:url(#XMLID_15_);}
	.st3{fill:#14C441;}
</style>
</svg>
