<?xml version="1.0" encoding="UTF-8" standalone="no"?>
<!-- Created with Inkscape (http://www.inkscape.org/) -->

<svg
   xmlns:dc="http://purl.org/dc/elements/1.1/"
   xmlns:cc="http://creativecommons.org/ns#"
   xmlns:rdf="http://www.w3.org/1999/02/22-rdf-syntax-ns#"
   xmlns:svg="http://www.w3.org/2000/svg"
   xmlns="http://www.w3.org/2000/svg"
   xmlns:sodipodi="http://sodipodi.sourceforge.net/DTD/sodipodi-0.dtd"
   xmlns:inkscape="http://www.inkscape.org/namespaces/inkscape"
   width="80"
   height="80"
   viewBox="0 0 21.166666 21.166667"
   version="1.1"
   id="svg7235"
   inkscape:version="0.92.3 (2405546, 2018-03-11)"
   sodipodi:docname="kamon--apm-symbol.svg">
  <defs
     id="defs7229">
    <linearGradient
       gradientTransform="matrix(1,0,0,-1,0,564.4)"
       y2="283.35001"
       x2="274.68771"
       y1="283.35001"
       x1="128.8129"
       gradientUnits="userSpaceOnUse"
       id="XMLID_2_">
      <stop
         id="stop19"
         style="stop-color:#0a6e65;stop-opacity:1"
         offset="0" />
      <stop
         id="stop21"
         style="stop-color:#14c4b4;stop-opacity:1"
         offset="1" />
    </linearGradient>
  </defs>
  <sodipodi:namedview
     id="base"
     pagecolor="#ffffff"
     bordercolor="#666666"
     borderopacity="1.0"
     inkscape:pageopacity="0.0"
     inkscape:pageshadow="2"
     inkscape:zoom="5.6"
     inkscape:cx="47.440592"
     inkscape:cy="81.303159"
     inkscape:document-units="mm"
     inkscape:current-layer="layer1"
     showgrid="false"
     units="px"
     inkscape:window-width="2560"
     inkscape:window-height="1440"
     inkscape:window-x="0"
     inkscape:window-y="0"
     inkscape:window-maximized="0" />
  <metadata
     id="metadata7232">
    <rdf:RDF>
      <cc:Work
         rdf:about="">
        <dc:format>image/svg+xml</dc:format>
        <dc:type
           rdf:resource="http://purl.org/dc/dcmitype/StillImage" />
        <dc:title></dc:title>
      </cc:Work>
    </rdf:RDF>
  </metadata>
  <g
     inkscape:label="Layer 1"
     inkscape:groupmode="layer"
     id="layer1"
     transform="translate(0,-275.83332)">
    <g
       transform="matrix(0.07790062,0,0,0.07787589,1.1626865e-8,264.52574)"
       id="XMLID_1177_">
      <g
         id="XMLID_1183_">
        <path
           style="fill:#dadada;fill-opacity:1"
           d="m 7.1,256.4 85,-102.1 c 3.4,-3.8 0,-9.1 -5.8,-9.1 H 10.1 C 4.5,145.2 0,149.7 0,155.3 v 79 19.7 c 0,3.7 4.6,5.3 7.1,2.4 -0.1,0 0,0 0,0 z"
           class="st1"
           id="XMLID_1185_"
           inkscape:connector-curvature="0" />
        <path
           style="fill:#dadada;fill-opacity:1"
           d="M 7.1,305.8 7,305.7 c -2.4,-2.8 -7,-1.3 -7,2.5 v 19.7 79 c 0,5.6 4.5,10.1 10.1,10.1 h 76.1 c 5.8,0 9.2,-5.3 5.8,-9.1 z"
           class="st1"
           id="XMLID_1184_"
           inkscape:connector-curvature="0" />
      </g>
      <g
         id="XMLID_1178_">
        <linearGradient
           gradientTransform="matrix(1,0,0,-1,0,564.4)"
           y2="283.35001"
           x2="274.68771"
           y1="283.35001"
           x1="128.8129"
           gradientUnits="userSpaceOnUse"
           id="linearGradient7798">
          <stop
             id="stop7794"
             style="stop-color:#0a6e65;stop-opacity:1"
             offset="0" />
          <stop
             id="stop7796"
             style="stop-color:#14c4b4;stop-opacity:1"
             offset="1" />
        </linearGradient>
        <path
           d="m 179.2,281.1 91.1,-124.6 c 3.6,-4.8 -0.3,-11.3 -6.8,-11.3 h -70.1 c -12.3,0 -23.7,5.7 -30.3,15 l -80.6,96.1 c -12.1,14.3 -12.1,35.2 0,49.5 l 80.6,96.1 c 6.5,9.4 18,15 30.3,15 h 70.1 c 6.5,0 10.3,-6.5 6.8,-11.3 z"
           class="st2"
           id="XMLID_1182_"
           inkscape:connector-curvature="0"
           style="fill:url(#XMLID_2_)" />
        <g
           id="XMLID_1179_">
          <path
             style="fill:#14c4b4;fill-opacity:1"
             d="m 263.5,145.2 h -70.1 c -12.3,0 -23.7,5.7 -30.3,15 l -80.6,96.1 c -12.1,14.3 -12.1,35.2 0,49.5 l 42,50 8.4,10 v 0 l 6.3,7.5 c -1.8,-2.1 -14,-18.4 0.2,-37.8 v 0 l 131,-179 c 3.5,-4.8 -0.4,-11.3 -6.9,-11.3 z"
             class="st3"
             id="XMLID_1181_"
             inkscape:connector-curvature="0" />
          <path
             d="m 139.2,373.3 c 0.1,0.2 0.2,0.2 0.2,0.2 z"
             class="st3"
             id="XMLID_1180_"
             inkscape:connector-curvature="0"
             style="fill:#009688" />
        </g>
      </g>
    </g>
  </g>
</svg>
