<?xml version="1.0" encoding="UTF-8" standalone="no"?>
<svg
   xmlns:dc="http://purl.org/dc/elements/1.1/"
   xmlns:cc="http://creativecommons.org/ns#"
   xmlns:rdf="http://www.w3.org/1999/02/22-rdf-syntax-ns#"
   xmlns:svg="http://www.w3.org/2000/svg"
   xmlns="http://www.w3.org/2000/svg"
   xmlns:sodipodi="http://sodipodi.sourceforge.net/DTD/sodipodi-0.dtd"
   xmlns:inkscape="http://www.inkscape.org/namespaces/inkscape"
   xml:space="preserve"
   viewBox="0 145.2 1235.0341 271.8"
   y="0px"
   x="0px"
   id="Layer_1"
   version="1.1"
   sodipodi:docname="kamon-apm-logo.svg"
   inkscape:version="0.92.3 (2405546, 2018-03-11)"
   width="1235.0341"
   height="271.79999"><sodipodi:namedview
     pagecolor="#ffffff"
     bordercolor="#666666"
     borderopacity="1"
     objecttolerance="10"
     gridtolerance="10"
     guidetolerance="10"
     inkscape:pageopacity="0"
     inkscape:pageshadow="2"
     inkscape:window-width="1791"
     inkscape:window-height="1415"
     id="namedview5422"
     showgrid="false"
     inkscape:zoom="0.5"
     inkscape:cx="917.23726"
     inkscape:cy="578.56468"
     inkscape:window-x="1920"
     inkscape:window-y="0"
     inkscape:window-maximized="0"
     inkscape:current-layer="XMLID_1176_"
     fit-margin-top="0"
     fit-margin-left="0"
     fit-margin-right="0"
     fit-margin-bottom="0" /><metadata
     id="metadata31"><rdf:RDF><cc:Work
         rdf:about=""><dc:format>image/svg+xml</dc:format><dc:type
           rdf:resource="http://purl.org/dc/dcmitype/StillImage" /><dc:title></dc:title></cc:Work></rdf:RDF></metadata><defs
     id="defs29" /><style
     id="style3"
     type="text/css">
	.st0{fill:#333333;}
	.st1{fill:#BBBBBB;}
	.st2{fill:url(#XMLID_2_);}
	.st3{fill:#009688;}
</style><g
     id="XMLID_1176_"><g
       id="XMLID_1177_"><g
         id="XMLID_1183_"><path
           style="fill:#dadada;fill-opacity:1"
           d="m 7.1,256.4 85,-102.1 c 3.4,-3.8 0,-9.1 -5.8,-9.1 H 10.1 C 4.5,145.2 0,149.7 0,155.3 v 79 19.7 c 0,3.7 4.6,5.3 7.1,2.4 -0.1,0 0,0 0,0 z"
           class="st1"
           id="XMLID_1185_"
           inkscape:connector-curvature="0" /><path
           style="fill:#dadada;fill-opacity:1"
           d="M 7.1,305.8 7,305.7 c -2.4,-2.8 -7,-1.3 -7,2.5 v 19.7 79 c 0,5.6 4.5,10.1 10.1,10.1 h 76.1 c 5.8,0 9.2,-5.3 5.8,-9.1 z"
           class="st1"
           id="XMLID_1184_"
           inkscape:connector-curvature="0" /></g><g
         id="XMLID_1178_"><linearGradient
           gradientTransform="matrix(1,0,0,-1,0,564.4)"
           y2="283.35001"
           x2="274.68771"
           y1="283.35001"
           x1="128.8129"
           gradientUnits="userSpaceOnUse"
           id="XMLID_2_"><stop
             id="stop19"
             style="stop-color:#0a6e65;stop-opacity:1"
             offset="0" /><stop
             id="stop21"
             style="stop-color:#14c4b4;stop-opacity:1"
             offset="1" /></linearGradient><path
           d="m 179.2,281.1 91.1,-124.6 c 3.6,-4.8 -0.3,-11.3 -6.8,-11.3 h -70.1 c -12.3,0 -23.7,5.7 -30.3,15 l -80.6,96.1 c -12.1,14.3 -12.1,35.2 0,49.5 l 80.6,96.1 c 6.5,9.4 18,15 30.3,15 h 70.1 c 6.5,0 10.3,-6.5 6.8,-11.3 z"
           class="st2"
           id="XMLID_1182_"
           inkscape:connector-curvature="0"
           style="fill:url(#XMLID_2_)" /><g
           id="XMLID_1179_"><path
             style="fill:#14c4b4;fill-opacity:1"
             d="m 263.5,145.2 h -70.1 c -12.3,0 -23.7,5.7 -30.3,15 l -80.6,96.1 c -12.1,14.3 -12.1,35.2 0,49.5 l 42,50 8.4,10 v 0 l 6.3,7.5 c -1.8,-2.1 -14,-18.4 0.2,-37.8 v 0 l 131,-179 c 3.5,-4.8 -0.4,-11.3 -6.9,-11.3 z"
             class="st3"
             id="XMLID_1181_"
             inkscape:connector-curvature="0" /><path
             d="m 139.2,373.3 c 0.1,0.2 0.2,0.2 0.2,0.2 z"
             class="st3"
             id="XMLID_1180_"
             inkscape:connector-curvature="0"
             style="fill:#009688" /></g></g></g><g
       transform="matrix(0.99986889,0,0,0.99986889,-25.868539,133.881)"
       id="XMLID_903_-5"
       style="display:inline;fill:#616161;fill-opacity:1"><path
         style="fill:#616161;fill-opacity:1"
         d="m 388.3,82.3 v 62.3 l 34.9,-40 h 34 l -38.9,41.7 39.3,66.7 h -34 l -20,-37 c -3.6,-6.4 -7.2,-9.6 -10.8,-9.6 -3,0.6 -4.5,2.6 -4.5,5.5 v 41 H 360 V 68.4 h 14.7 c 7.5,0 13.6,6.4 13.6,13.9 z"
         class="st0"
         id="XMLID_914_-7"
         inkscape:connector-curvature="0" /><path
         style="fill:#616161;fill-opacity:1"
         d="m 492.9,129.9 h -28.3 c 3.4,-20.8 18.1,-31 44,-31 31,0 46.8,10.2 47.4,31 v 38.3 c 0,31 -18.7,44.8 -49.1,47 -27,2.1 -45.7,-10.4 -45.7,-35.3 0.6,-27 20.2,-34.2 48.7,-37 12.1,-1.5 18.3,-5.1 18.3,-11.3 -0.6,-6.4 -6.6,-9.6 -18.3,-9.6 -10,0 -15.5,2.5 -17,7.9 z m 35.7,36.9 v -10.4 c -6.6,2.8 -14.2,5.1 -22.5,6.8 -11.3,2.1 -17,7.4 -17,15.7 0.6,8.9 5.3,13.2 14.2,13.2 15.7,0 25.3,-9.3 25.3,-25.3 z"
         class="st0"
         id="XMLID_911_-4"
         inkscape:connector-curvature="0" /><path
         style="fill:#616161;fill-opacity:1"
         d="M 598.3,141.1 V 213 h -28.7 v -66.1 c 0,-32.1 16.2,-48 48.2,-48 14.5,0 25.5,3.2 33.6,9.6 8.1,-6.2 19.1,-9.1 33.6,-9.1 32.1,0 48,15.9 47.8,48 v 66.1 h -14.7 c -9.3,-0.6 -14,-5.1 -14,-14 v -57.8 c -0.6,-11.7 -7,-17.4 -19.6,-17.4 -12.5,0 -18.9,5.7 -19.1,17.4 V 213 H 637 v -71.8 c -0.6,-11.7 -7,-17.4 -19.6,-17.4 -12.6,0 -18.9,5.6 -19.1,17.3 z"
         class="st0"
         id="XMLID_909_-1"
         inkscape:connector-curvature="0" /><path
         style="fill:#616161;fill-opacity:1"
         d="m 850.6,157.3 c 0,38.7 -17.2,58.2 -51.2,58.2 -34,0 -51,-19.6 -51,-58.2 0,-39.1 17,-58.4 51,-58.4 34,0 51.2,19.3 51.2,58.4 z m -73.6,0 c 0.2,21.9 7.6,32.9 22.1,32.9 14.5,0 21.7,-11.5 21.9,-33.8 0,-21.9 -7.2,-32.7 -21.7,-32.7 -14.8,0 -22.3,11.3 -22.3,33.6 z"
         class="st0"
         id="XMLID_906_-8"
         inkscape:connector-curvature="0" /><path
         style="fill:#616161;fill-opacity:1"
         d="m 945.5,213 c -9.3,-0.6 -14,-5.1 -14,-14 v -57.8 c -0.6,-11.7 -7,-17.4 -19.6,-17.4 -12.6,0 -18.9,5.7 -19.1,17.4 V 213 h -28.7 v -66.1 c 0,-32.1 16.2,-48 48.2,-48 32.1,0 47.8,15.9 47.6,48 V 213 Z"
         class="st0"
         id="XMLID_904_-5"
         inkscape:connector-curvature="0" /></g><path
       d="m 994.16308,325.1747 -8.66344,19.6784 h -15.59417 l 38.11903,-86.51046 h 15.5942 l 38.119,86.51046 h -15.5941 l -8.6634,-19.6784 z m 37.37642,-13.49014 -15.7179,-35.64381 -15.7179,35.64381 z"
       style="font-style:normal;font-variant:normal;font-weight:normal;font-stretch:normal;font-size:medium;line-height:125%;font-family:Montserrat;-inkscape-font-specification:'Montserrat, Normal';font-variant-ligatures:normal;font-variant-caps:normal;font-variant-numeric:normal;font-feature-settings:normal;text-align:start;letter-spacing:0px;word-spacing:0px;writing-mode:lr-tb;text-anchor:start;fill:#b3b3b3;fill-opacity:1;stroke:none;stroke-width:3.0940783px;stroke-linecap:butt;stroke-linejoin:miter;stroke-opacity:1"
       id="path2586"
       inkscape:connector-curvature="0" /><path
       d="m 1094.5656,258.34264 q 19.6784,0 28.713,7.54955 9.0348,7.54955 9.0348,23.26747 0,15.71792 -9.2823,23.01997 -9.1585,7.30198 -28.218,7.30198 h -15.3466 v 25.37149 h -14.6041 v -86.51046 z m 1.8564,47.89632 q 12.1289,0 16.4606,-4.57922 4.4554,-4.70295 4.4554,-13.61397 0,-9.03468 -5.5693,-12.74758 -5.5694,-3.7129 -17.4506,-3.7129 h -14.8516 v 34.65367 z"
       style="font-style:normal;font-variant:normal;font-weight:normal;font-stretch:normal;font-size:medium;line-height:125%;font-family:Montserrat;-inkscape-font-specification:'Montserrat, Normal';font-variant-ligatures:normal;font-variant-caps:normal;font-variant-numeric:normal;font-feature-settings:normal;text-align:start;letter-spacing:0px;word-spacing:0px;writing-mode:lr-tb;text-anchor:start;fill:#b3b3b3;fill-opacity:1;stroke:none;stroke-width:3.0940783px;stroke-linecap:butt;stroke-linejoin:miter;stroke-opacity:1"
       id="path2588"
       inkscape:connector-curvature="0" /><path
       d="m 1151.9889,344.8531 h -14.604 v -86.51046 h 22.7724 l 26.1141,54.33206 26.114,-54.33206 h 22.6486 v 86.51046 h -14.604 v -67.57471 l -30.1982,60.02516 h -8.1684 l -30.0745,-60.02516 z"
       style="font-style:normal;font-variant:normal;font-weight:normal;font-stretch:normal;font-size:medium;line-height:125%;font-family:Montserrat;-inkscape-font-specification:'Montserrat, Normal';font-variant-ligatures:normal;font-variant-caps:normal;font-variant-numeric:normal;font-feature-settings:normal;text-align:start;letter-spacing:0px;word-spacing:0px;writing-mode:lr-tb;text-anchor:start;fill:#b3b3b3;fill-opacity:1;stroke:none;stroke-width:3.0940783px;stroke-linecap:butt;stroke-linejoin:miter;stroke-opacity:1"
       id="path2590"
       inkscape:connector-curvature="0" /></g></svg>