<svg width="721" height="517" viewBox="0 0 721 517" fill="none" xmlns="http://www.w3.org/2000/svg">
<rect y="36" width="587" height="440" rx="8" fill="#E5F6FF"/>
<mask id="mask0" mask-type="alpha" maskUnits="userSpaceOnUse" x="48" y="84" width="497" height="433">
<rect x="48" y="84" width="497" height="433" rx="8" fill="url(#paint0_linear)"/>
</mask>
<g mask="url(#mask0)">
<g filter="url(#filter0_dd)">
<mask id="mask1" mask-type="alpha" maskUnits="userSpaceOnUse" x="52" y="86" width="493" height="440">
<path fill-rule="evenodd" clip-rule="evenodd" d="M52 94C52 89.5817 55.5817 86 60 86H537C541.418 86 545 89.5817 545 94V518C545 522.418 541.418 526 537 526H60C55.5817 526 52 522.418 52 518V94Z" fill="white"/>
</mask>
<g mask="url(#mask1)">
<path fill-rule="evenodd" clip-rule="evenodd" d="M52 94C52 89.5817 55.5817 86 60 86H537C541.418 86 545 89.5817 545 94V518C545 522.418 541.418 526 537 526H60C55.5817 526 52 522.418 52 518V94Z" fill="#FAFAFC"/>
<rect x="52" y="110" width="64" height="366" fill="#2A3B44"/>
<rect opacity="0.1" x="68" y="342" width="32" height="32" rx="8" fill="#F2F2F5"/>
<rect opacity="0.2" x="68" y="294" width="32" height="32" rx="8" fill="#F2F2F5"/>
<rect opacity="0.3" x="68" y="246" width="32" height="32" rx="8" fill="#F2F2F5"/>
<rect x="68" y="198" width="32" height="32" rx="8" fill="#E3FFF1"/>
<circle cx="84" cy="214" r="7" fill="#3BC882"/>
<path d="M84.5011 134C84.2251 133.992 84 134.216 84 134.493L84 141.254C84 141.528 84.22 141.749 84.4925 141.769C88.8296 142.085 92.25 145.705 92.25 150.125C92.25 154.545 88.8296 158.165 84.4925 158.482C84.22 158.501 84 158.723 84 158.996L84 165.507C84 165.784 84.2251 166.008 84.5011 166C93.1058 165.735 100 158.673 100 150C100 141.327 93.1058 134.265 84.5011 134Z" fill="#39D98A"/>
<path d="M84.0001 144.751C83.9586 144.75 83.9169 144.75 83.8751 144.75C81.0447 144.75 78.7501 147.045 78.7501 149.875C78.7501 152.705 81.0447 155 83.8751 155C83.9169 155 83.9586 154.999 84.0001 154.999L84.0001 144.751Z" fill="#223C37"/>
<path d="M84.0001 154.999C86.7728 154.933 89.0001 152.664 89.0001 149.875C89.0001 147.087 86.7728 144.818 84.0001 144.752L84.0001 154.999Z" fill="#376C66"/>
<g filter="url(#filter1_dd)">
<path fill-rule="evenodd" clip-rule="evenodd" d="M52 86H545V110H52V86Z" fill="white"/>
</g>
</g>
</g>
<path fill-rule="evenodd" clip-rule="evenodd" d="M67 100C68.6569 100 70 98.6569 70 97C70 95.3431 68.6569 94 67 94C65.3431 94 64 95.3431 64 97C64 98.6569 65.3431 100 67 100Z" fill="#FF5C5C"/>
<path fill-rule="evenodd" clip-rule="evenodd" d="M77 100C78.6569 100 80 98.6569 80 97C80 95.3431 78.6569 94 77 94C75.3431 94 74 95.3431 74 97C74 98.6569 75.3431 100 77 100Z" fill="#FDDD48"/>
<path fill-rule="evenodd" clip-rule="evenodd" d="M87 100C88.6569 100 90 98.6569 90 97C90 95.3431 88.6569 94 87 94C85.3431 94 84 95.3431 84 97C84 98.6569 85.3431 100 87 100Z" fill="#39D98A"/>
</g>
<g opacity="0.56" filter="url(#filter2_dd)">
<rect x="150" y="155" width="270" height="189" rx="8" fill="white"/>
<path d="M158 285.7C167.277 286.186 174.493 303.192 190.678 302.481C206.863 301.771 225.58 264.094 247.679 264.094C269.778 264.094 277.312 290.624 299.929 290.624C322.546 290.624 329.972 209 358.74 209C387.508 209 380.914 243.162 395.457 243.162C410.001 243.162 412 251.298 412 251.298V330.996C412 333.759 409.759 335.998 406.996 335.996L163.996 335.814C160.684 335.811 158 333.141 158 329.829C158 317.47 158 289.909 158 285.7Z" fill="#E3FFF1"/>
<path d="M158 292.601C172.745 291.82 175.853 317.792 188.631 316.592C201.409 315.392 217.867 267.41 244.548 267.41C271.23 267.41 278.003 290.202 301.119 290.202C324.235 290.202 335.756 229.024 353.036 229.024C370.317 229.024 371.11 245.702 383.354 245.702C395.597 245.702 400.092 222 412 222V330C412 333.314 409.314 336 406 336H164.151C160.898 336 158.247 333.418 158.202 330.166C158.114 323.822 158 311.92 158 292.601Z" fill="#39D98A"/>
<rect x="166" y="171" width="40" height="17" rx="8" fill="#EBEBF0"/>
<rect x="214" y="171" width="17" height="17" rx="8" fill="#F2F2F5"/>
</g>
<rect opacity="0.1" width="255" height="82" transform="matrix(1 0 0 -1 157 282)" fill="url(#paint1_linear)"/>
<line x1="157" y1="281.5" x2="420" y2="281.5" stroke="#FF2525" stroke-dasharray="5 5"/>
<g filter="url(#filter3_dd)">
<rect x="285" y="252.921" width="392.063" height="117.619" rx="8" fill="white"/>
<path fill-rule="evenodd" clip-rule="evenodd" d="M343.809 348.976C363.297 348.976 379.095 333.178 379.095 313.69C379.095 294.202 363.297 278.404 343.809 278.404C324.322 278.404 308.524 294.202 308.524 313.69C308.524 333.178 324.322 348.976 343.809 348.976Z" fill="#FFFEE6"/>
<path d="M362.889 321.303L347.758 295.114C347.532 294.725 347.143 294.532 346.75 294.532C346.357 294.532 345.964 294.725 345.743 295.114L330.611 321.303C330.164 322.081 330.724 323.049 331.619 323.049H361.881C362.776 323.049 363.336 322.081 362.889 321.303ZM345.586 305.299C345.586 305.139 345.717 305.008 345.877 305.008H347.623C347.783 305.008 347.914 305.139 347.914 305.299V311.991C347.914 312.151 347.783 312.282 347.623 312.282H345.877C345.717 312.282 345.586 312.151 345.586 311.991V305.299ZM346.75 318.102C346.293 318.093 345.858 317.905 345.538 317.578C345.219 317.252 345.039 316.813 345.039 316.356C345.039 315.899 345.219 315.46 345.538 315.134C345.858 314.808 346.293 314.619 346.75 314.61C347.207 314.619 347.642 314.808 347.962 315.134C348.282 315.46 348.461 315.899 348.461 316.356C348.461 316.813 348.282 317.252 347.962 317.578C347.642 317.905 347.207 318.093 346.75 318.102Z" fill="#FFCC00"/>
<path d="M404.869 328.315H408.986V340H410.571V328.315H414.688V326.909H404.869V328.315ZM415.91 340H417.419V333.787C417.419 332.457 418.467 331.486 419.899 331.486C420.301 331.486 420.717 331.562 420.819 331.588V330.054C420.646 330.041 420.25 330.028 420.026 330.028C418.85 330.028 417.828 330.693 417.47 331.665H417.367V330.182H415.91V340ZM422.607 340H424.116V330.182H422.607V340ZM423.374 328.545C423.962 328.545 424.448 328.085 424.448 327.523C424.448 326.96 423.962 326.5 423.374 326.5C422.786 326.5 422.3 326.96 422.3 327.523C422.3 328.085 422.786 328.545 423.374 328.545ZM430.842 343.886C433.194 343.886 435.086 342.812 435.086 340.281V330.182H433.629V331.741H433.475C433.143 331.23 432.529 330.054 430.612 330.054C428.132 330.054 426.419 332.023 426.419 335.04C426.419 338.108 428.208 339.847 430.586 339.847C432.504 339.847 433.117 338.722 433.45 338.185H433.578V340.179C433.578 341.815 432.427 342.557 430.842 342.557C429.058 342.557 428.432 341.617 428.029 341.074L426.828 341.918C427.441 342.947 428.649 343.886 430.842 343.886ZM430.791 338.491C428.899 338.491 427.927 337.06 427.927 335.014C427.927 333.02 428.873 331.409 430.791 331.409C432.632 331.409 433.603 332.892 433.603 335.014C433.603 337.188 432.606 338.491 430.791 338.491ZM441.811 343.886C444.163 343.886 446.055 342.812 446.055 340.281V330.182H444.597V331.741H444.444C444.112 331.23 443.498 330.054 441.58 330.054C439.1 330.054 437.387 332.023 437.387 335.04C437.387 338.108 439.177 339.847 441.555 339.847C443.472 339.847 444.086 338.722 444.419 338.185H444.546V340.179C444.546 341.815 443.396 342.557 441.811 342.557C440.027 342.557 439.401 341.617 438.998 341.074L437.796 341.918C438.41 342.947 439.618 343.886 441.811 343.886ZM441.759 338.491C439.867 338.491 438.896 337.06 438.896 335.014C438.896 333.02 439.842 331.409 441.759 331.409C443.6 331.409 444.572 332.892 444.572 335.014C444.572 337.188 443.575 338.491 441.759 338.491ZM452.933 340.205C454.927 340.205 456.384 339.207 456.845 337.724L455.387 337.315C455.004 338.338 454.115 338.849 452.933 338.849C451.162 338.849 449.941 337.705 449.871 335.602H456.998V334.963C456.998 331.307 454.825 330.054 452.779 330.054C450.12 330.054 448.356 332.151 448.356 335.168C448.356 338.185 450.095 340.205 452.933 340.205ZM449.871 334.298C449.973 332.771 451.053 331.409 452.779 331.409C454.416 331.409 455.464 332.636 455.464 334.298H449.871ZM459.293 340H460.801V333.787C460.801 332.457 461.85 331.486 463.281 331.486C463.684 331.486 464.1 331.562 464.202 331.588V330.054C464.029 330.041 463.633 330.028 463.409 330.028C462.233 330.028 461.21 330.693 460.852 331.665H460.75V330.182H459.293V340ZM469.808 340.205C471.802 340.205 473.259 339.207 473.72 337.724L472.262 337.315C471.879 338.338 470.99 338.849 469.808 338.849C468.037 338.849 466.816 337.705 466.746 335.602H473.873V334.963C473.873 331.307 471.7 330.054 469.654 330.054C466.995 330.054 465.231 332.151 465.231 335.168C465.231 338.185 466.97 340.205 469.808 340.205ZM466.746 334.298C466.848 332.771 467.928 331.409 469.654 331.409C471.291 331.409 472.339 332.636 472.339 334.298H466.746ZM479.875 340.205C481.767 340.205 482.406 339.028 482.739 338.491H482.918V340H484.375V326.909H482.867V331.741H482.739C482.406 331.23 481.818 330.054 479.901 330.054C477.421 330.054 475.708 332.023 475.708 335.116C475.708 338.236 477.421 340.205 479.875 340.205ZM480.08 338.849C478.188 338.849 477.216 337.188 477.216 335.091C477.216 333.02 478.162 331.409 480.08 331.409C481.921 331.409 482.892 332.892 482.892 335.091C482.892 337.315 481.895 338.849 480.08 338.849ZM499.365 332.381C498.892 330.987 497.83 330.054 495.887 330.054C493.816 330.054 492.282 331.23 492.282 332.892C492.282 334.247 493.088 335.155 494.89 335.577L496.526 335.96C497.517 336.19 497.984 336.663 497.984 337.341C497.984 338.185 497.089 338.875 495.683 338.875C494.449 338.875 493.676 338.344 493.407 337.29L491.975 337.648C492.327 339.316 493.701 340.205 495.708 340.205C497.99 340.205 499.544 338.958 499.544 337.264C499.544 335.896 498.687 335.033 496.936 334.605L495.478 334.247C494.315 333.96 493.791 333.57 493.791 332.815C493.791 331.972 494.686 331.358 495.887 331.358C497.204 331.358 497.747 332.087 498.009 332.764L499.365 332.381ZM501.814 340H503.323V330.182H501.814V340ZM502.581 328.545C503.169 328.545 503.655 328.085 503.655 327.523C503.655 326.96 503.169 326.5 502.581 326.5C501.993 326.5 501.507 326.96 501.507 327.523C501.507 328.085 501.993 328.545 502.581 328.545ZM507.594 334.094C507.594 332.381 508.655 331.409 510.1 331.409C511.5 331.409 512.35 332.323 512.35 333.864V340H513.858V333.761C513.858 331.256 512.523 330.054 510.535 330.054C509.052 330.054 508.131 330.719 507.671 331.716H507.543V330.182H506.086V340H507.594V334.094ZM520.604 340.205C522.777 340.205 524.209 338.875 524.464 337.136H522.956C522.675 338.21 521.78 338.849 520.604 338.849C518.814 338.849 517.663 337.366 517.663 335.091C517.663 332.866 518.839 331.409 520.604 331.409C521.933 331.409 522.726 332.227 522.956 333.122H524.464C524.209 331.281 522.649 330.054 520.578 330.054C517.919 330.054 516.155 332.151 516.155 335.142C516.155 338.082 517.842 340.205 520.604 340.205ZM530.786 340.205C532.781 340.205 534.238 339.207 534.698 337.724L533.241 337.315C532.857 338.338 531.969 338.849 530.786 338.849C529.016 338.849 527.795 337.705 527.724 335.602H534.852V334.963C534.852 331.307 532.678 330.054 530.633 330.054C527.974 330.054 526.21 332.151 526.21 335.168C526.21 338.185 527.948 340.205 530.786 340.205ZM527.724 334.298C527.827 332.771 528.907 331.409 530.633 331.409C532.269 331.409 533.317 332.636 533.317 334.298H527.724ZM546.274 340.179C548.767 340.179 550.595 338.338 550.595 335.832C550.595 333.295 548.831 331.435 546.428 331.435C545.545 331.435 544.689 331.748 544.152 332.176H544.075L544.536 328.315H550.007V326.909H543.206L542.413 333.352L543.896 333.531C544.44 333.141 545.366 332.86 546.172 332.866C547.84 332.879 549.061 334.145 549.061 335.858C549.061 337.539 547.885 338.773 546.274 338.773C544.932 338.773 543.864 337.91 543.743 336.727H542.209C542.305 338.722 544.024 340.179 546.274 340.179ZM558.222 340H559.731V333.864C559.731 332.425 560.779 331.409 561.955 331.409C563.1 331.409 563.899 332.157 563.899 333.276V340H565.433V333.608C565.433 332.342 566.225 331.409 567.606 331.409C568.68 331.409 569.6 331.978 569.6 333.429V340H571.109V333.429C571.109 331.121 569.869 330.054 568.117 330.054C566.711 330.054 565.682 330.7 565.177 331.716H565.075C564.589 330.668 563.732 330.054 562.441 330.054C561.163 330.054 560.217 330.668 559.808 331.716H559.68V330.182H558.222V340ZM573.867 340H575.376V330.182H573.867V340ZM574.634 328.545C575.222 328.545 575.708 328.085 575.708 327.523C575.708 326.96 575.222 326.5 574.634 326.5C574.046 326.5 573.56 326.96 573.56 327.523C573.56 328.085 574.046 328.545 574.634 328.545ZM579.647 334.094C579.647 332.381 580.708 331.409 582.153 331.409C583.553 331.409 584.403 332.323 584.403 333.864V340H585.911V333.761C585.911 331.256 584.575 330.054 582.587 330.054C581.104 330.054 580.184 330.719 579.724 331.716H579.596V330.182H578.138V340H579.647V334.094ZM594.855 335.986C594.855 337.827 593.449 338.67 592.324 338.67C591.071 338.67 590.176 337.75 590.176 336.318V330.182H588.668V336.42C588.668 338.926 589.997 340.128 591.838 340.128C593.321 340.128 594.293 339.335 594.753 338.338H594.855V340H596.364V330.182H594.855V335.986ZM603.397 330.182H601.3V327.83H599.792V330.182H598.309V331.46H599.792V337.597C599.792 339.31 601.172 340.128 602.451 340.128C603.013 340.128 603.371 340.026 603.576 339.949L603.269 338.594C603.141 338.619 602.936 338.67 602.604 338.67C601.939 338.67 601.3 338.466 601.3 337.188V331.46H603.397V330.182ZM609.677 340.205C611.671 340.205 613.129 339.207 613.589 337.724L612.131 337.315C611.748 338.338 610.859 338.849 609.677 338.849C607.906 338.849 606.685 337.705 606.615 335.602H613.742V334.963C613.742 331.307 611.569 330.054 609.523 330.054C606.864 330.054 605.1 332.151 605.1 335.168C605.1 338.185 606.839 340.205 609.677 340.205ZM606.615 334.298C606.717 332.771 607.798 331.409 609.523 331.409C611.16 331.409 612.208 332.636 612.208 334.298H606.615ZM622.991 332.381C622.518 330.987 621.457 330.054 619.514 330.054C617.443 330.054 615.909 331.23 615.909 332.892C615.909 334.247 616.714 335.155 618.517 335.577L620.153 335.96C621.144 336.19 621.611 336.663 621.611 337.341C621.611 338.185 620.716 338.875 619.31 338.875C618.076 338.875 617.303 338.344 617.034 337.29L615.602 337.648C615.954 339.316 617.328 340.205 619.335 340.205C621.617 340.205 623.17 338.958 623.17 337.264C623.17 335.896 622.314 335.033 620.562 334.605L619.105 334.247C617.942 333.96 617.418 333.57 617.418 332.815C617.418 331.972 618.312 331.358 619.514 331.358C620.831 331.358 621.374 332.087 621.636 332.764L622.991 332.381ZM633.393 340.23C635.106 340.23 636.001 339.31 636.308 338.67H636.384V340H637.893V333.531C637.893 330.412 635.515 330.054 634.262 330.054C632.779 330.054 631.092 330.565 630.325 332.355L631.757 332.866C632.089 332.151 632.875 331.384 634.313 331.384C635.7 331.384 636.384 332.119 636.384 333.378V333.429C636.384 334.158 635.643 334.094 633.853 334.324C632.031 334.56 630.044 334.963 630.044 337.213C630.044 339.131 631.526 340.23 633.393 340.23ZM633.623 338.875C632.421 338.875 631.552 338.338 631.552 337.29C631.552 336.139 632.6 335.781 633.776 335.628C634.416 335.551 636.129 335.372 636.384 335.065V336.446C636.384 337.673 635.413 338.875 633.623 338.875ZM644.609 343.886C646.962 343.886 648.854 342.812 648.854 340.281V330.182H647.396V331.741H647.243C646.911 331.23 646.297 330.054 644.379 330.054C641.899 330.054 640.186 332.023 640.186 335.04C640.186 338.108 641.976 339.847 644.354 339.847C646.271 339.847 646.885 338.722 647.217 338.185H647.345V340.179C647.345 341.815 646.195 342.557 644.609 342.557C642.826 342.557 642.2 341.617 641.797 341.074L640.595 341.918C641.209 342.947 642.417 343.886 644.609 343.886ZM644.558 338.491C642.666 338.491 641.695 337.06 641.695 335.014C641.695 333.02 642.641 331.409 644.558 331.409C646.399 331.409 647.371 332.892 647.371 335.014C647.371 337.188 646.374 338.491 644.558 338.491ZM655.604 340.205C658.263 340.205 660.053 338.185 660.053 335.142C660.053 332.074 658.263 330.054 655.604 330.054C652.945 330.054 651.155 332.074 651.155 335.142C651.155 338.185 652.945 340.205 655.604 340.205ZM655.604 338.849C653.584 338.849 652.663 337.111 652.663 335.142C652.663 333.173 653.584 331.409 655.604 331.409C657.624 331.409 658.544 333.173 658.544 335.142C658.544 337.111 657.624 338.849 655.604 338.849Z" fill="#ACB5BD"/>
<path d="M416.875 297H418.875C418.281 293.906 415.688 291.781 412.312 291.781C408.211 291.781 405.313 294.938 405.313 300C405.313 305.062 408.188 308.219 412.438 308.219C416.25 308.219 418.969 305.68 418.969 301.719V300H412.875V301.719H417.094C417.039 304.594 415.148 306.406 412.438 306.406C409.469 306.406 407.188 304.156 407.188 300C407.188 295.844 409.469 293.594 412.312 293.594C414.625 293.594 416.195 294.898 416.875 297ZM435.162 297C434.568 293.719 431.943 291.781 428.725 291.781C424.631 291.781 421.662 294.938 421.662 300C421.662 305.062 424.631 308.219 428.725 308.219C431.943 308.219 434.568 306.281 435.162 303H433.225C432.756 305.219 430.85 306.406 428.725 306.406C425.818 306.406 423.537 304.156 423.537 300C423.537 295.844 425.818 293.594 428.725 293.594C430.85 293.594 432.756 294.781 433.225 297H435.162ZM449.449 296H446.887V293.125H445.043V296H443.23V297.562H445.043V305.062C445.043 307.156 446.73 308.156 448.293 308.156C448.98 308.156 449.418 308.031 449.668 307.937L449.293 306.281C449.137 306.312 448.887 306.375 448.48 306.375C447.668 306.375 446.887 306.125 446.887 304.562V297.562H449.449V296ZM452.223 308H454.066V296H452.223V308ZM453.16 294C453.879 294 454.473 293.438 454.473 292.75C454.473 292.063 453.879 291.5 453.16 291.5C452.441 291.5 451.848 292.063 451.848 292.75C451.848 293.438 452.441 294 453.16 294ZM457.443 308H459.287V300.5C459.287 298.742 460.568 297.5 462.006 297.5C463.404 297.5 464.381 298.414 464.381 299.781V308H466.256V300.187C466.256 298.641 467.225 297.5 468.912 297.5C470.225 297.5 471.35 298.195 471.35 299.969V308H473.193V299.969C473.193 297.148 471.678 295.844 469.537 295.844C467.818 295.844 466.561 296.633 465.943 297.875H465.818C465.225 296.594 464.178 295.844 462.6 295.844C461.037 295.844 459.881 296.594 459.381 297.875H459.225V296H457.443V308ZM481.596 308.25C484.033 308.25 485.814 307.031 486.377 305.219L484.596 304.719C484.127 305.969 483.041 306.594 481.596 306.594C479.432 306.594 477.939 305.195 477.854 302.625H486.564V301.844C486.564 297.375 483.908 295.844 481.408 295.844C478.158 295.844 476.002 298.406 476.002 302.094C476.002 305.781 478.127 308.25 481.596 308.25ZM477.854 301.031C477.979 299.164 479.299 297.5 481.408 297.5C483.408 297.5 484.689 299 484.689 301.031H477.854ZM495.557 308H497.4V296H495.557V308ZM496.494 294C497.213 294 497.807 293.438 497.807 292.75C497.807 292.063 497.213 291.5 496.494 291.5C495.775 291.5 495.182 292.063 495.182 292.75C495.182 293.438 495.775 294 496.494 294ZM509.277 298.687C508.699 296.984 507.402 295.844 505.027 295.844C502.496 295.844 500.621 297.281 500.621 299.312C500.621 300.969 501.605 302.078 503.809 302.594L505.809 303.062C507.02 303.344 507.59 303.922 507.59 304.75C507.59 305.781 506.496 306.625 504.777 306.625C503.27 306.625 502.324 305.977 501.996 304.687L500.246 305.125C500.676 307.164 502.355 308.25 504.809 308.25C507.598 308.25 509.496 306.727 509.496 304.656C509.496 302.984 508.449 301.93 506.309 301.406L504.527 300.969C503.105 300.617 502.465 300.141 502.465 299.219C502.465 298.187 503.559 297.437 505.027 297.437C506.637 297.437 507.301 298.328 507.621 299.156L509.277 298.687ZM520.303 300.781C520.303 298.687 521.639 297.5 523.459 297.5C525.193 297.5 526.24 298.594 526.24 300.5V308H528.084V300.375C528.084 297.289 526.443 295.844 523.99 295.844C522.1 295.844 521.021 296.633 520.459 297.875H520.303V292H518.459V308H520.303V300.781ZM531.457 308H533.301V296H531.457V308ZM532.395 294C533.113 294 533.707 293.438 533.707 292.75C533.707 292.063 533.113 291.5 532.395 291.5C531.676 291.5 531.082 292.063 531.082 292.75C531.082 293.438 531.676 294 532.395 294ZM541.521 312.75C544.396 312.75 546.709 311.438 546.709 308.344V296H544.928V297.906H544.74C544.334 297.281 543.584 295.844 541.24 295.844C538.209 295.844 536.115 298.25 536.115 301.937C536.115 305.687 538.303 307.812 541.209 307.812C543.553 307.812 544.303 306.438 544.709 305.781H544.865V308.219C544.865 310.219 543.459 311.125 541.521 311.125C539.342 311.125 538.576 309.977 538.084 309.313L536.615 310.344C537.365 311.602 538.842 312.75 541.521 312.75ZM541.459 306.156C539.146 306.156 537.959 304.406 537.959 301.906C537.959 299.469 539.115 297.5 541.459 297.5C543.709 297.5 544.896 299.312 544.896 301.906C544.896 304.562 543.678 306.156 541.459 306.156ZM551.928 300.781C551.928 298.687 553.264 297.5 555.084 297.5C556.818 297.5 557.865 298.594 557.865 300.5V308H559.709V300.375C559.709 297.289 558.068 295.844 555.615 295.844C553.725 295.844 552.646 296.633 552.084 297.875H551.928V292H550.084V308H551.928V300.781Z" fill="#212429"/>
</g>
<g filter="url(#filter4_dd)">
<rect x="285" y="2" width="392.063" height="117.619" rx="8" fill="white"/>
<path d="M405.585 87H407.17V81.1449H414.151V87H415.736V73.9091H414.151V79.7386H407.17V73.9091H405.585V87ZM422.821 87.2045C424.816 87.2045 426.273 86.2074 426.733 84.7244L425.276 84.3153C424.892 85.3381 424.004 85.8494 422.821 85.8494C421.051 85.8494 419.83 84.7053 419.76 82.6023H426.887V81.9631C426.887 78.3068 424.713 77.054 422.668 77.054C420.009 77.054 418.245 79.1506 418.245 82.1676C418.245 85.1847 419.983 87.2045 422.821 87.2045ZM419.76 81.2983C419.862 79.7706 420.942 78.4091 422.668 78.4091C424.304 78.4091 425.353 79.6364 425.353 81.2983H419.76ZM432.071 87.2301C433.784 87.2301 434.679 86.3097 434.985 85.6705H435.062V87H436.571V80.5312C436.571 77.4119 434.193 77.054 432.94 77.054C431.457 77.054 429.77 77.5653 429.002 79.3551L430.434 79.8665C430.767 79.1506 431.553 78.3835 432.991 78.3835C434.378 78.3835 435.062 79.1186 435.062 80.3778V80.429C435.062 81.1577 434.321 81.0938 432.531 81.3239C430.709 81.5604 428.721 81.9631 428.721 84.2131C428.721 86.1307 430.204 87.2301 432.071 87.2301ZM432.301 85.875C431.099 85.875 430.23 85.3381 430.23 84.2898C430.23 83.1392 431.278 82.7812 432.454 82.6278C433.093 82.5511 434.806 82.3722 435.062 82.0653V83.446C435.062 84.6733 434.091 85.875 432.301 85.875ZM440.833 73.9091H439.324V87H440.833V73.9091ZM447.865 77.1818H445.769V74.8295H444.26V77.1818H442.777V78.4602H444.26V84.5966C444.26 86.3097 445.641 87.1278 446.919 87.1278C447.482 87.1278 447.84 87.0256 448.044 86.9489L447.738 85.5938C447.61 85.6193 447.405 85.6705 447.073 85.6705C446.408 85.6705 445.769 85.4659 445.769 84.1875V78.4602H447.865V77.1818ZM451.854 81.0938C451.854 79.3807 452.947 78.4091 454.436 78.4091C455.855 78.4091 456.712 79.304 456.712 80.8636V87H458.221V80.7614C458.221 78.2365 456.878 77.054 454.871 77.054C453.324 77.054 452.442 77.6996 451.982 78.7159H451.854V73.9091H450.346V87H451.854V81.0938ZM461.6 90.6818C462.962 90.6818 463.921 89.9595 464.49 88.4318L468.67 77.2074L467.021 77.1818L464.311 85.0057H464.208L461.498 77.1818H459.862L463.492 87.0511L463.211 87.8182C462.661 89.3139 461.984 89.4545 460.884 89.1733L460.501 90.5028C460.654 90.5795 461.089 90.6818 461.6 90.6818ZM482.683 79.3807C482.21 77.9872 481.149 77.054 479.206 77.054C477.135 77.054 475.6 78.2301 475.6 79.892C475.6 81.2472 476.406 82.1548 478.208 82.5767L479.845 82.9602C480.836 83.1903 481.302 83.6634 481.302 84.3409C481.302 85.1847 480.407 85.875 479.001 85.875C477.767 85.875 476.994 85.3445 476.725 84.2898L475.294 84.6477C475.645 86.3161 477.02 87.2045 479.027 87.2045C481.309 87.2045 482.862 85.9581 482.862 84.2642C482.862 82.8963 482.005 82.0334 480.254 81.6051L478.797 81.2472C477.633 80.9595 477.109 80.5696 477.109 79.8153C477.109 78.9716 478.004 78.358 479.206 78.358C480.522 78.358 481.066 79.0866 481.328 79.7642L482.683 79.3807ZM485.133 87H486.641V77.1818H485.133V87ZM485.9 75.5455C486.488 75.5455 486.974 75.0852 486.974 74.5227C486.974 73.9602 486.488 73.5 485.9 73.5C485.312 73.5 484.826 73.9602 484.826 74.5227C484.826 75.0852 485.312 75.5455 485.9 75.5455ZM490.913 81.0938C490.913 79.3807 491.974 78.4091 493.418 78.4091C494.818 78.4091 495.668 79.3232 495.668 80.8636V87H497.177V80.7614C497.177 78.2557 495.841 77.054 493.853 77.054C492.37 77.054 491.45 77.7188 490.989 78.7159H490.862V77.1818H489.404V87H490.913V81.0938ZM503.922 87.2045C506.095 87.2045 507.527 85.875 507.783 84.1364H506.274C505.993 85.2102 505.098 85.8494 503.922 85.8494C502.132 85.8494 500.982 84.3665 500.982 82.0909C500.982 79.8665 502.158 78.4091 503.922 78.4091C505.252 78.4091 506.044 79.2273 506.274 80.1222H507.783C507.527 78.2812 505.968 77.054 503.896 77.054C501.237 77.054 499.473 79.1506 499.473 82.142C499.473 85.0824 501.161 87.2045 503.922 87.2045ZM514.105 87.2045C516.099 87.2045 517.556 86.2074 518.017 84.7244L516.559 84.3153C516.176 85.3381 515.287 85.8494 514.105 85.8494C512.334 85.8494 511.113 84.7053 511.043 82.6023H518.17V81.9631C518.17 78.3068 515.997 77.054 513.951 77.054C511.292 77.054 509.528 79.1506 509.528 82.1676C509.528 85.1847 511.267 87.2045 514.105 87.2045ZM511.043 81.2983C511.145 79.7706 512.225 78.4091 513.951 78.4091C515.588 78.4091 516.636 79.6364 516.636 81.2983H511.043ZM529.925 87.179C532.463 87.179 534.348 85.5874 534.348 83.446C534.348 81.7841 533.364 80.576 531.715 80.3011V80.1989C533.038 79.7962 533.862 78.7095 533.862 77.233C533.862 75.3793 532.399 73.7301 529.976 73.7301C527.713 73.7301 525.834 75.1236 525.757 77.1818H527.291C527.349 75.8778 528.589 75.1108 529.95 75.1108C531.395 75.1108 532.328 75.9865 532.328 77.3097C532.328 78.6903 531.248 79.5852 529.695 79.5852H528.646V80.9915H529.695C531.683 80.9915 532.789 82.0014 532.789 83.446C532.789 84.8331 531.58 85.7727 529.899 85.7727C528.384 85.7727 527.183 84.9929 527.087 83.7273H525.476C525.572 85.7855 527.387 87.179 529.925 87.179ZM545.758 87.2045C547.65 87.2045 548.289 86.0284 548.622 85.4915H548.801V87H550.258V73.9091H548.749V78.7415H548.622C548.289 78.2301 547.701 77.054 545.784 77.054C543.303 77.054 541.59 79.0227 541.59 82.1165C541.59 85.2358 543.303 87.2045 545.758 87.2045ZM545.963 85.8494C544.07 85.8494 543.099 84.1875 543.099 82.0909C543.099 80.0199 544.045 78.4091 545.963 78.4091C547.803 78.4091 548.775 79.892 548.775 82.0909C548.775 84.3153 547.778 85.8494 545.963 85.8494ZM556.119 87.2301C557.833 87.2301 558.727 86.3097 559.034 85.6705H559.111V87H560.619V80.5312C560.619 77.4119 558.242 77.054 556.989 77.054C555.506 77.054 553.818 77.5653 553.051 79.3551L554.483 79.8665C554.816 79.1506 555.602 78.3835 557.04 78.3835C558.427 78.3835 559.111 79.1186 559.111 80.3778V80.429C559.111 81.1577 558.369 81.0938 556.58 81.3239C554.758 81.5604 552.77 81.9631 552.77 84.2131C552.77 86.1307 554.253 87.2301 556.119 87.2301ZM556.35 85.875C555.148 85.875 554.279 85.3381 554.279 84.2898C554.279 83.1392 555.327 82.7812 556.503 82.6278C557.142 82.5511 558.855 82.3722 559.111 82.0653V83.446C559.111 84.6733 558.139 85.875 556.35 85.875ZM563.993 90.6818C565.354 90.6818 566.313 89.9595 566.882 88.4318L571.062 77.2074L569.413 77.1818L566.703 85.0057H566.601L563.891 77.1818H562.254L565.885 87.0511L565.604 87.8182C565.054 89.3139 564.376 89.4545 563.277 89.1733L562.893 90.5028C563.047 90.5795 563.482 90.6818 563.993 90.6818ZM580.013 79.3807C579.54 77.9872 578.479 77.054 576.536 77.054C574.465 77.054 572.931 78.2301 572.931 79.892C572.931 81.2472 573.736 82.1548 575.539 82.5767L577.175 82.9602C578.166 83.1903 578.632 83.6634 578.632 84.3409C578.632 85.1847 577.737 85.875 576.331 85.875C575.097 85.875 574.324 85.3445 574.056 84.2898L572.624 84.6477C572.975 86.3161 574.35 87.2045 576.357 87.2045C578.639 87.2045 580.192 85.9581 580.192 84.2642C580.192 82.8963 579.335 82.0334 577.584 81.6051L576.127 81.2472C574.963 80.9595 574.439 80.5696 574.439 79.8153C574.439 78.9716 575.334 78.358 576.536 78.358C577.852 78.358 578.396 79.0866 578.658 79.7642L580.013 79.3807ZM590.414 87.2301C592.127 87.2301 593.022 86.3097 593.329 85.6705H593.406V87H594.914V80.5312C594.914 77.4119 592.537 77.054 591.284 77.054C589.801 77.054 588.113 77.5653 587.346 79.3551L588.778 79.8665C589.11 79.1506 589.897 78.3835 591.335 78.3835C592.722 78.3835 593.406 79.1186 593.406 80.3778V80.429C593.406 81.1577 592.664 81.0938 590.875 81.3239C589.053 81.5604 587.065 81.9631 587.065 84.2131C587.065 86.1307 588.548 87.2301 590.414 87.2301ZM590.645 85.875C589.443 85.875 588.574 85.3381 588.574 84.2898C588.574 83.1392 589.622 82.7812 590.798 82.6278C591.437 82.5511 593.15 82.3722 593.406 82.0653V83.446C593.406 84.6733 592.434 85.875 590.645 85.875ZM601.631 90.8864C603.983 90.8864 605.875 89.8125 605.875 87.2812V77.1818H604.418V78.7415H604.264C603.932 78.2301 603.318 77.054 601.401 77.054C598.921 77.054 597.208 79.0227 597.208 82.0398C597.208 85.108 598.997 86.8466 601.375 86.8466C603.293 86.8466 603.906 85.7216 604.239 85.1847H604.367V87.179C604.367 88.8153 603.216 89.5568 601.631 89.5568C599.847 89.5568 599.221 88.6172 598.818 88.0739L597.617 88.9176C598.23 89.9467 599.438 90.8864 601.631 90.8864ZM601.58 85.4915C599.688 85.4915 598.716 84.0597 598.716 82.0142C598.716 80.0199 599.662 78.4091 601.58 78.4091C603.421 78.4091 604.392 79.892 604.392 82.0142C604.392 84.1875 603.395 85.4915 601.58 85.4915ZM612.625 87.2045C615.284 87.2045 617.074 85.1847 617.074 82.142C617.074 79.0739 615.284 77.054 612.625 77.054C609.966 77.054 608.176 79.0739 608.176 82.142C608.176 85.1847 609.966 87.2045 612.625 87.2045ZM612.625 85.8494C610.605 85.8494 609.685 84.1108 609.685 82.142C609.685 80.1733 610.605 78.4091 612.625 78.4091C614.645 78.4091 615.566 80.1733 615.566 82.142C615.566 84.1108 614.645 85.8494 612.625 85.8494Z" fill="#ACB5BD"/>
<path d="M405.938 55H415.313V53.2812H407.875V39H405.938V55ZM421.594 55.2813C423.688 55.2813 424.781 54.1562 425.156 53.375H425.25V55H427.094V47.0938C427.094 43.2812 424.188 42.8438 422.656 42.8438C420.844 42.8438 418.781 43.4687 417.844 45.6562L419.594 46.2812C420 45.4062 420.961 44.4687 422.719 44.4687C424.414 44.4687 425.25 45.3672 425.25 46.9062V46.9687C425.25 47.8594 424.344 47.7812 422.156 48.0625C419.93 48.3516 417.5 48.8437 417.5 51.5937C417.5 53.9375 419.313 55.2813 421.594 55.2813ZM421.875 53.625C420.406 53.625 419.344 52.9687 419.344 51.6875C419.344 50.2812 420.625 49.8438 422.063 49.6562C422.844 49.5625 424.938 49.3437 425.25 48.9687V50.6562C425.25 52.1562 424.063 53.625 421.875 53.625ZM435.678 43H433.115V40.125H431.271V43H429.459V44.5625H431.271V52.0625C431.271 54.1562 432.959 55.1563 434.521 55.1563C435.209 55.1563 435.646 55.0313 435.896 54.9375L435.521 53.2812C435.365 53.3125 435.115 53.375 434.709 53.375C433.896 53.375 433.115 53.125 433.115 51.5625V44.5625H435.678V43ZM443.354 55.25C445.791 55.25 447.572 54.0312 448.135 52.2188L446.354 51.7187C445.885 52.9687 444.799 53.5938 443.354 53.5938C441.189 53.5938 439.697 52.1953 439.611 49.625H448.322V48.8437C448.322 44.375 445.666 42.8438 443.166 42.8438C439.916 42.8438 437.76 45.4062 437.76 49.0938C437.76 52.7812 439.885 55.25 443.354 55.25ZM439.611 48.0312C439.736 46.1641 441.057 44.5 443.166 44.5C445.166 44.5 446.447 46 446.447 48.0312H439.611ZM452.971 47.7812C452.971 45.6875 454.268 44.5 456.033 44.5C457.744 44.5 458.783 45.6172 458.783 47.5V55H460.627V47.375C460.627 44.3125 458.994 42.8438 456.564 42.8438C454.752 42.8438 453.627 43.6562 453.064 44.875H452.908V43H451.127V55H452.971V47.7812ZM468.871 55.25C471.527 55.25 473.277 53.625 473.59 51.5H471.746C471.402 52.8125 470.309 53.5938 468.871 53.5938C466.684 53.5938 465.277 51.7812 465.277 49C465.277 46.2812 466.715 44.5 468.871 44.5C470.496 44.5 471.465 45.5 471.746 46.5937H473.59C473.277 44.3438 471.371 42.8438 468.84 42.8438C465.59 42.8438 463.434 45.4062 463.434 49.0625C463.434 52.6562 465.496 55.25 468.871 55.25ZM477.473 59.5C479.137 59.5 480.309 58.6172 481.004 56.75L486.113 43.0312L484.098 43L480.785 52.5625H480.66L477.348 43H475.348L479.785 55.0625L479.441 56C478.77 57.8281 477.941 58 476.598 57.6563L476.129 59.2813C476.316 59.375 476.848 59.5 477.473 59.5ZM494.74 55H496.584V43H494.74V55ZM495.678 41C496.396 41 496.99 40.4375 496.99 39.75C496.99 39.0625 496.396 38.5 495.678 38.5C494.959 38.5 494.365 39.0625 494.365 39.75C494.365 40.4375 494.959 41 495.678 41ZM508.461 45.6875C507.883 43.9844 506.586 42.8438 504.211 42.8438C501.68 42.8438 499.805 44.2812 499.805 46.3125C499.805 47.9687 500.789 49.0781 502.992 49.5937L504.992 50.0625C506.203 50.3437 506.773 50.9219 506.773 51.75C506.773 52.7812 505.68 53.625 503.961 53.625C502.453 53.625 501.508 52.9766 501.18 51.6875L499.43 52.125C499.859 54.1641 501.539 55.25 503.992 55.25C506.781 55.25 508.68 53.7266 508.68 51.6562C508.68 49.9844 507.633 48.9297 505.492 48.4063L503.711 47.9687C502.289 47.6172 501.648 47.1406 501.648 46.2187C501.648 45.1875 502.742 44.4375 504.211 44.4375C505.82 44.4375 506.484 45.3281 506.805 46.1562L508.461 45.6875ZM517.893 55H519.674V53.1562H519.893C520.299 53.8125 521.08 55.25 523.393 55.25C526.393 55.25 528.486 52.8437 528.486 49.0313C528.486 45.25 526.393 42.8438 523.361 42.8438C521.018 42.8438 520.299 44.2812 519.893 44.9062H519.736V39H517.893V55ZM519.705 49C519.705 46.3125 520.893 44.5 523.143 44.5C525.486 44.5 526.643 46.4687 526.643 49C526.643 51.5625 525.455 53.5938 523.143 53.5938C520.924 53.5938 519.705 51.7187 519.705 49ZM536.338 55.25C538.775 55.25 540.557 54.0312 541.119 52.2188L539.338 51.7187C538.869 52.9687 537.783 53.5938 536.338 53.5938C534.174 53.5938 532.682 52.1953 532.596 49.625H541.307V48.8437C541.307 44.375 538.65 42.8438 536.15 42.8438C532.9 42.8438 530.744 45.4062 530.744 49.0938C530.744 52.7812 532.869 55.25 536.338 55.25ZM532.596 48.0312C532.721 46.1641 534.041 44.5 536.15 44.5C538.15 44.5 539.432 46 539.432 48.0312H532.596ZM545.955 39H544.111V55H545.955V39ZM554.207 55.25C557.457 55.25 559.645 52.7812 559.645 49.0625C559.645 45.3125 557.457 42.8438 554.207 42.8438C550.957 42.8438 548.77 45.3125 548.77 49.0625C548.77 52.7812 550.957 55.25 554.207 55.25ZM554.207 53.5938C551.738 53.5938 550.613 51.4687 550.613 49.0625C550.613 46.6562 551.738 44.5 554.207 44.5C556.676 44.5 557.801 46.6562 557.801 49.0625C557.801 51.4687 556.676 53.5938 554.207 53.5938ZM564.77 55H566.582L569.207 45.7812H569.395L572.02 55H573.832L577.488 43H575.551L572.957 52.1562H572.832L570.301 43H568.332L565.77 52.1875H565.645L563.051 43H561.113L564.77 55ZM591.082 55.2187C594.129 55.2187 596.363 52.9687 596.363 49.9062C596.363 46.8047 594.207 44.5312 591.27 44.5312C590.191 44.5312 589.145 44.9141 588.488 45.4375H588.395L588.957 40.7187H595.645V39H587.332L586.363 46.875L588.176 47.0938C588.84 46.6172 589.973 46.2734 590.957 46.2812C592.996 46.2969 594.488 47.8437 594.488 49.9375C594.488 51.9922 593.051 53.5 591.082 53.5C589.441 53.5 588.137 52.4453 587.988 51H586.113C586.23 53.4375 588.332 55.2187 591.082 55.2187ZM604.686 55.2187C608.217 55.2187 610.248 52.2266 610.248 47C610.248 41.8125 608.186 38.7812 604.686 38.7812C601.186 38.7812 599.123 41.8125 599.123 47C599.123 52.2266 601.154 55.2187 604.686 55.2187ZM604.686 53.5C602.357 53.5 600.998 51.1641 600.998 47C600.998 42.8438 602.373 40.4687 604.686 40.4687C606.998 40.4687 608.373 42.8438 608.373 47C608.373 51.1641 607.014 53.5 604.686 53.5ZM618.436 55.2187C621.967 55.2187 623.998 52.2266 623.998 47C623.998 41.8125 621.936 38.7812 618.436 38.7812C614.936 38.7812 612.873 41.8125 612.873 47C612.873 52.2266 614.904 55.2187 618.436 55.2187ZM618.436 53.5C616.107 53.5 614.748 51.1641 614.748 47C614.748 42.8438 616.123 40.4687 618.436 40.4687C620.748 40.4687 622.123 42.8438 622.123 47C622.123 51.1641 620.764 53.5 618.436 53.5ZM626.998 55H628.842V47.5C628.842 45.7422 630.123 44.5 631.561 44.5C632.959 44.5 633.936 45.4141 633.936 46.7812V55H635.811V47.1875C635.811 45.6406 636.779 44.5 638.467 44.5C639.779 44.5 640.904 45.1953 640.904 46.9687V55H642.748V46.9687C642.748 44.1484 641.232 42.8438 639.092 42.8438C637.373 42.8438 636.115 43.6328 635.498 44.875H635.373C634.779 43.5937 633.732 42.8438 632.154 42.8438C630.592 42.8438 629.436 43.5937 628.936 44.875H628.779V43H626.998V55ZM654.619 45.6875C654.041 43.9844 652.744 42.8438 650.369 42.8438C647.838 42.8438 645.963 44.2812 645.963 46.3125C645.963 47.9687 646.947 49.0781 649.15 49.5937L651.15 50.0625C652.361 50.3437 652.932 50.9219 652.932 51.75C652.932 52.7812 651.838 53.625 650.119 53.625C648.611 53.625 647.666 52.9766 647.338 51.6875L645.588 52.125C646.018 54.1641 647.697 55.25 650.15 55.25C652.939 55.25 654.838 53.7266 654.838 51.6562C654.838 49.9844 653.791 48.9297 651.65 48.4063L649.869 47.9687C648.447 47.6172 647.807 47.1406 647.807 46.2187C647.807 45.1875 648.9 44.4375 650.369 44.4375C651.979 44.4375 652.643 45.3281 652.963 46.1562L654.619 45.6875Z" fill="#212429"/>
<path fill-rule="evenodd" clip-rule="evenodd" d="M343.809 96.0948C363.297 96.0948 379.095 80.2969 379.095 60.8091C379.095 41.3214 363.297 25.5234 343.809 25.5234C324.322 25.5234 308.524 41.3214 308.524 60.8091C308.524 80.2969 324.322 96.0948 343.809 96.0948Z" fill="#E3FFF1"/>
<path d="M343.809 45.3721C335.284 45.3721 328.372 52.2845 328.372 60.8096C328.372 69.3346 335.284 76.247 343.809 76.247C352.335 76.247 359.247 69.3346 359.247 60.8096C359.247 52.2845 352.335 45.3721 343.809 45.3721ZM350.477 55.7683L343.22 65.8302C343.119 65.9718 342.985 66.0871 342.83 66.1667C342.675 66.2463 342.504 66.2878 342.329 66.2878C342.155 66.2878 341.984 66.2463 341.829 66.1667C341.674 66.0871 341.54 65.9718 341.439 65.8302L337.142 59.8757C337.011 59.6931 337.142 59.4381 337.366 59.4381H338.982C339.333 59.4381 339.668 59.6069 339.874 59.8964L342.328 63.3009L347.745 55.7889C347.951 55.5029 348.282 55.3306 348.637 55.3306H350.253C350.477 55.3306 350.608 55.5856 350.477 55.7683Z" fill="#39D98A"/>
</g>
<g filter="url(#filter5_dd)">
<rect x="285" y="378.381" width="392.063" height="117.619" rx="8" fill="white"/>
<path fill-rule="evenodd" clip-rule="evenodd" d="M343.809 472.477C363.297 472.477 379.095 456.679 379.095 437.191C379.095 417.703 363.297 401.905 343.809 401.905C324.322 401.905 308.524 417.703 308.524 437.191C308.524 456.679 324.322 472.477 343.809 472.477Z" fill="#E3FFF1"/>
<path d="M343.809 421.753C335.284 421.753 328.372 428.665 328.372 437.19C328.372 445.715 335.284 452.628 343.809 452.628C352.335 452.628 359.247 445.715 359.247 437.19C359.247 428.665 352.335 421.753 343.809 421.753ZM350.477 432.149L343.22 442.211C343.119 442.353 342.985 442.468 342.83 442.548C342.675 442.627 342.504 442.669 342.329 442.669C342.155 442.669 341.984 442.627 341.829 442.548C341.674 442.468 341.54 442.353 341.439 442.211L337.142 436.257C337.011 436.074 337.142 435.819 337.366 435.819H338.982C339.333 435.819 339.668 435.988 339.874 436.277L342.328 439.682L347.745 432.17C347.951 431.884 348.282 431.711 348.637 431.711H350.253C350.477 431.711 350.608 431.966 350.477 432.149Z" fill="#39D98A"/>
<path d="M405.585 463H407.17V457.145H414.151V463H415.736V449.909H414.151V455.739H407.17V449.909H405.585V463ZM422.821 463.205C424.816 463.205 426.273 462.207 426.733 460.724L425.276 460.315C424.892 461.338 424.004 461.849 422.821 461.849C421.051 461.849 419.83 460.705 419.76 458.602H426.887V457.963C426.887 454.307 424.713 453.054 422.668 453.054C420.009 453.054 418.245 455.151 418.245 458.168C418.245 461.185 419.983 463.205 422.821 463.205ZM419.76 457.298C419.862 455.771 420.942 454.409 422.668 454.409C424.304 454.409 425.353 455.636 425.353 457.298H419.76ZM432.071 463.23C433.784 463.23 434.679 462.31 434.985 461.67H435.062V463H436.571V456.531C436.571 453.412 434.193 453.054 432.94 453.054C431.457 453.054 429.77 453.565 429.002 455.355L430.434 455.866C430.767 455.151 431.553 454.384 432.991 454.384C434.378 454.384 435.062 455.119 435.062 456.378V456.429C435.062 457.158 434.321 457.094 432.531 457.324C430.709 457.56 428.721 457.963 428.721 460.213C428.721 462.131 430.204 463.23 432.071 463.23ZM432.301 461.875C431.099 461.875 430.23 461.338 430.23 460.29C430.23 459.139 431.278 458.781 432.454 458.628C433.093 458.551 434.806 458.372 435.062 458.065V459.446C435.062 460.673 434.091 461.875 432.301 461.875ZM440.833 449.909H439.324V463H440.833V449.909ZM447.865 453.182H445.769V450.83H444.26V453.182H442.777V454.46H444.26V460.597C444.26 462.31 445.641 463.128 446.919 463.128C447.482 463.128 447.84 463.026 448.044 462.949L447.738 461.594C447.61 461.619 447.405 461.67 447.073 461.67C446.408 461.67 445.769 461.466 445.769 460.188V454.46H447.865V453.182ZM451.854 457.094C451.854 455.381 452.947 454.409 454.436 454.409C455.855 454.409 456.712 455.304 456.712 456.864V463H458.221V456.761C458.221 454.237 456.878 453.054 454.871 453.054C453.324 453.054 452.442 453.7 451.982 454.716H451.854V449.909H450.346V463H451.854V457.094ZM461.6 466.682C462.962 466.682 463.921 465.96 464.49 464.432L468.67 453.207L467.021 453.182L464.311 461.006H464.208L461.498 453.182H459.862L463.492 463.051L463.211 463.818C462.661 465.314 461.984 465.455 460.884 465.173L460.501 466.503C460.654 466.58 461.089 466.682 461.6 466.682ZM482.683 455.381C482.21 453.987 481.149 453.054 479.206 453.054C477.135 453.054 475.6 454.23 475.6 455.892C475.6 457.247 476.406 458.155 478.208 458.577L479.845 458.96C480.836 459.19 481.302 459.663 481.302 460.341C481.302 461.185 480.407 461.875 479.001 461.875C477.767 461.875 476.994 461.344 476.725 460.29L475.294 460.648C475.645 462.316 477.02 463.205 479.027 463.205C481.309 463.205 482.862 461.958 482.862 460.264C482.862 458.896 482.005 458.033 480.254 457.605L478.797 457.247C477.633 456.96 477.109 456.57 477.109 455.815C477.109 454.972 478.004 454.358 479.206 454.358C480.522 454.358 481.066 455.087 481.328 455.764L482.683 455.381ZM485.133 463H486.641V453.182H485.133V463ZM485.9 451.545C486.488 451.545 486.974 451.085 486.974 450.523C486.974 449.96 486.488 449.5 485.9 449.5C485.312 449.5 484.826 449.96 484.826 450.523C484.826 451.085 485.312 451.545 485.9 451.545ZM490.913 457.094C490.913 455.381 491.974 454.409 493.418 454.409C494.818 454.409 495.668 455.323 495.668 456.864V463H497.177V456.761C497.177 454.256 495.841 453.054 493.853 453.054C492.37 453.054 491.45 453.719 490.989 454.716H490.862V453.182H489.404V463H490.913V457.094ZM503.922 463.205C506.095 463.205 507.527 461.875 507.783 460.136H506.274C505.993 461.21 505.098 461.849 503.922 461.849C502.132 461.849 500.982 460.366 500.982 458.091C500.982 455.866 502.158 454.409 503.922 454.409C505.252 454.409 506.044 455.227 506.274 456.122H507.783C507.527 454.281 505.968 453.054 503.896 453.054C501.237 453.054 499.473 455.151 499.473 458.142C499.473 461.082 501.161 463.205 503.922 463.205ZM514.105 463.205C516.099 463.205 517.556 462.207 518.017 460.724L516.559 460.315C516.176 461.338 515.287 461.849 514.105 461.849C512.334 461.849 511.113 460.705 511.043 458.602H518.17V457.963C518.17 454.307 515.997 453.054 513.951 453.054C511.292 453.054 509.528 455.151 509.528 458.168C509.528 461.185 511.267 463.205 514.105 463.205ZM511.043 457.298C511.145 455.771 512.225 454.409 513.951 454.409C515.588 454.409 516.636 455.636 516.636 457.298H511.043ZM529.593 463.179C532.085 463.179 533.914 461.338 533.914 458.832C533.914 456.295 532.149 454.435 529.746 454.435C528.864 454.435 528.007 454.748 527.47 455.176H527.394L527.854 451.315H533.325V449.909H526.524L525.732 456.352L527.215 456.531C527.758 456.141 528.685 455.86 529.49 455.866C531.159 455.879 532.379 457.145 532.379 458.858C532.379 460.539 531.203 461.773 529.593 461.773C528.25 461.773 527.183 460.91 527.061 459.727H525.527C525.623 461.722 527.343 463.179 529.593 463.179ZM543.049 457.094C543.049 455.381 544.142 454.409 545.632 454.409C547.051 454.409 547.907 455.304 547.907 456.864V463H549.416V456.761C549.416 454.237 548.074 453.054 546.066 453.054C544.52 453.054 543.637 453.7 543.177 454.716H543.049V449.909H541.541V463H543.049V457.094ZM556.164 463.205C558.823 463.205 560.613 461.185 560.613 458.142C560.613 455.074 558.823 453.054 556.164 453.054C553.505 453.054 551.715 455.074 551.715 458.142C551.715 461.185 553.505 463.205 556.164 463.205ZM556.164 461.849C554.144 461.849 553.224 460.111 553.224 458.142C553.224 456.173 554.144 454.409 556.164 454.409C558.184 454.409 559.105 456.173 559.105 458.142C559.105 460.111 558.184 461.849 556.164 461.849ZM569.103 458.986C569.103 460.827 567.697 461.67 566.572 461.67C565.319 461.67 564.424 460.75 564.424 459.318V453.182H562.916V459.42C562.916 461.926 564.245 463.128 566.086 463.128C567.569 463.128 568.541 462.335 569.001 461.338H569.103V463H570.612V453.182H569.103V458.986ZM573.375 463H574.883V456.787C574.883 455.457 575.932 454.486 577.363 454.486C577.766 454.486 578.182 454.562 578.284 454.588V453.054C578.111 453.041 577.715 453.028 577.491 453.028C576.315 453.028 575.292 453.693 574.934 454.665H574.832V453.182H573.375V463ZM587.027 455.381C586.554 453.987 585.493 453.054 583.549 453.054C581.478 453.054 579.944 454.23 579.944 455.892C579.944 457.247 580.75 458.155 582.552 458.577L584.189 458.96C585.179 459.19 585.646 459.663 585.646 460.341C585.646 461.185 584.751 461.875 583.345 461.875C582.111 461.875 581.338 461.344 581.069 460.29L579.637 460.648C579.989 462.316 581.363 463.205 583.37 463.205C585.652 463.205 587.206 461.958 587.206 460.264C587.206 458.896 586.349 458.033 584.598 457.605L583.14 457.247C581.977 456.96 581.453 456.57 581.453 455.815C581.453 454.972 582.348 454.358 583.549 454.358C584.866 454.358 585.409 455.087 585.672 455.764L587.027 455.381ZM597.428 463.23C599.141 463.23 600.036 462.31 600.343 461.67H600.42V463H601.928V456.531C601.928 453.412 599.55 453.054 598.297 453.054C596.814 453.054 595.127 453.565 594.36 455.355L595.792 455.866C596.124 455.151 596.91 454.384 598.349 454.384C599.736 454.384 600.42 455.119 600.42 456.378V456.429C600.42 457.158 599.678 457.094 597.888 457.324C596.067 457.56 594.079 457.963 594.079 460.213C594.079 462.131 595.562 463.23 597.428 463.23ZM597.658 461.875C596.456 461.875 595.587 461.338 595.587 460.29C595.587 459.139 596.635 458.781 597.812 458.628C598.451 458.551 600.164 458.372 600.42 458.065V459.446C600.42 460.673 599.448 461.875 597.658 461.875ZM608.645 466.886C610.997 466.886 612.889 465.812 612.889 463.281V453.182H611.431V454.741H611.278C610.946 454.23 610.332 453.054 608.414 453.054C605.934 453.054 604.221 455.023 604.221 458.04C604.221 461.108 606.011 462.847 608.389 462.847C610.306 462.847 610.92 461.722 611.252 461.185H611.38V463.179C611.38 464.815 610.23 465.557 608.645 465.557C606.861 465.557 606.235 464.617 605.832 464.074L604.63 464.918C605.244 465.947 606.452 466.886 608.645 466.886ZM608.593 461.491C606.701 461.491 605.73 460.06 605.73 458.014C605.73 456.02 606.676 454.409 608.593 454.409C610.434 454.409 611.406 455.892 611.406 458.014C611.406 460.188 610.409 461.491 608.593 461.491ZM619.639 463.205C622.298 463.205 624.088 461.185 624.088 458.142C624.088 455.074 622.298 453.054 619.639 453.054C616.98 453.054 615.19 455.074 615.19 458.142C615.19 461.185 616.98 463.205 619.639 463.205ZM619.639 461.849C617.619 461.849 616.699 460.111 616.699 458.142C616.699 456.173 617.619 454.409 619.639 454.409C621.659 454.409 622.579 456.173 622.579 458.142C622.579 460.111 621.659 461.849 619.639 461.849Z" fill="#ACB5BD"/>
<path d="M418.813 420C418.219 416.719 415.594 414.781 412.375 414.781C408.281 414.781 405.313 417.938 405.313 423C405.313 428.062 408.281 431.219 412.375 431.219C415.594 431.219 418.219 429.281 418.813 426H416.875C416.406 428.219 414.5 429.406 412.375 429.406C409.469 429.406 407.188 427.156 407.188 423C407.188 418.844 409.469 416.594 412.375 416.594C414.5 416.594 416.406 417.781 416.875 420H418.813ZM426.568 431.25C429.818 431.25 432.006 428.781 432.006 425.062C432.006 421.312 429.818 418.844 426.568 418.844C423.318 418.844 421.131 421.312 421.131 425.062C421.131 428.781 423.318 431.25 426.568 431.25ZM426.568 429.594C424.1 429.594 422.975 427.469 422.975 425.062C422.975 422.656 424.1 420.5 426.568 420.5C429.037 420.5 430.162 422.656 430.162 425.062C430.162 427.469 429.037 429.594 426.568 429.594ZM436.664 423.781C436.664 421.687 437.961 420.5 439.727 420.5C441.438 420.5 442.477 421.617 442.477 423.5V431H444.32V423.375C444.32 420.312 442.688 418.844 440.258 418.844C438.445 418.844 437.32 419.656 436.758 420.875H436.602V419H434.82V431H436.664V423.781ZM456.189 421.687C455.611 419.984 454.314 418.844 451.939 418.844C449.408 418.844 447.533 420.281 447.533 422.312C447.533 423.969 448.518 425.078 450.721 425.594L452.721 426.062C453.932 426.344 454.502 426.922 454.502 427.75C454.502 428.781 453.408 429.625 451.689 429.625C450.182 429.625 449.236 428.977 448.908 427.687L447.158 428.125C447.588 430.164 449.268 431.25 451.721 431.25C454.51 431.25 456.408 429.727 456.408 427.656C456.408 425.984 455.361 424.93 453.221 424.406L451.439 423.969C450.018 423.617 449.377 423.141 449.377 422.219C449.377 421.187 450.471 420.437 451.939 420.437C453.549 420.437 454.213 421.328 454.533 422.156L456.189 421.687ZM466.746 426.094C466.746 428.344 465.027 429.375 463.652 429.375C462.121 429.375 461.027 428.25 461.027 426.5V419H459.184V426.625C459.184 429.687 460.809 431.156 463.059 431.156C464.871 431.156 466.059 430.187 466.621 428.969H466.746V431H468.59V419H466.746V426.094ZM471.967 431H473.811V423.5C473.811 421.742 475.092 420.5 476.529 420.5C477.928 420.5 478.904 421.414 478.904 422.781V431H480.779V423.187C480.779 421.641 481.748 420.5 483.436 420.5C484.748 420.5 485.873 421.195 485.873 422.969V431H487.717V422.969C487.717 420.148 486.201 418.844 484.061 418.844C482.342 418.844 481.084 419.633 480.467 420.875H480.342C479.748 419.594 478.701 418.844 477.123 418.844C475.561 418.844 474.404 419.594 473.904 420.875H473.748V419H471.967V431ZM496.119 431.25C498.557 431.25 500.338 430.031 500.9 428.219L499.119 427.719C498.65 428.969 497.564 429.594 496.119 429.594C493.955 429.594 492.463 428.195 492.377 425.625H501.088V424.844C501.088 420.375 498.432 418.844 495.932 418.844C492.682 418.844 490.525 421.406 490.525 425.094C490.525 428.781 492.65 431.25 496.119 431.25ZM492.377 424.031C492.502 422.164 493.822 420.5 495.932 420.5C497.932 420.5 499.213 422 499.213 424.031H492.377ZM503.893 431H505.736V423.406C505.736 421.781 507.018 420.594 508.768 420.594C509.26 420.594 509.768 420.688 509.893 420.719V418.844C509.682 418.828 509.197 418.812 508.924 418.812C507.486 418.812 506.236 419.625 505.799 420.812H505.674V419H503.893V431ZM520.109 415H518.266V431H520.109V415ZM527.018 431.281C529.111 431.281 530.205 430.156 530.58 429.375H530.674V431H532.518V423.094C532.518 419.281 529.611 418.844 528.08 418.844C526.268 418.844 524.205 419.469 523.268 421.656L525.018 422.281C525.424 421.406 526.385 420.469 528.143 420.469C529.838 420.469 530.674 421.367 530.674 422.906V422.969C530.674 423.859 529.768 423.781 527.58 424.063C525.354 424.352 522.924 424.844 522.924 427.594C522.924 429.937 524.736 431.281 527.018 431.281ZM527.299 429.625C525.83 429.625 524.768 428.969 524.768 427.687C524.768 426.281 526.049 425.844 527.486 425.656C528.268 425.562 530.361 425.344 530.674 424.969V426.656C530.674 428.156 529.486 429.625 527.299 429.625ZM540.727 435.75C543.602 435.75 545.914 434.438 545.914 431.344V419H544.133V420.906H543.945C543.539 420.281 542.789 418.844 540.445 418.844C537.414 418.844 535.32 421.25 535.32 424.937C535.32 428.687 537.508 430.812 540.414 430.812C542.758 430.812 543.508 429.438 543.914 428.781H544.07V431.219C544.07 433.219 542.664 434.125 540.727 434.125C538.547 434.125 537.781 432.977 537.289 432.313L535.82 433.344C536.57 434.602 538.047 435.75 540.727 435.75ZM540.664 429.156C538.352 429.156 537.164 427.406 537.164 424.906C537.164 422.469 538.32 420.5 540.664 420.5C542.914 420.5 544.102 422.312 544.102 424.906C544.102 427.562 542.883 429.156 540.664 429.156ZM555.477 431H557.32V419H555.477V431ZM556.414 417C557.133 417 557.727 416.438 557.727 415.75C557.727 415.063 557.133 414.5 556.414 414.5C555.695 414.5 555.102 415.063 555.102 415.75C555.102 416.438 555.695 417 556.414 417ZM569.197 421.687C568.619 419.984 567.322 418.844 564.947 418.844C562.416 418.844 560.541 420.281 560.541 422.312C560.541 423.969 561.525 425.078 563.729 425.594L565.729 426.062C566.939 426.344 567.51 426.922 567.51 427.75C567.51 428.781 566.416 429.625 564.697 429.625C563.189 429.625 562.244 428.977 561.916 427.687L560.166 428.125C560.596 430.164 562.275 431.25 564.729 431.25C567.518 431.25 569.416 429.727 569.416 427.656C569.416 425.984 568.369 424.93 566.229 424.406L564.447 423.969C563.025 423.617 562.385 423.141 562.385 422.219C562.385 421.187 563.479 420.437 564.947 420.437C566.557 420.437 567.221 421.328 567.541 422.156L569.197 421.687ZM580.223 423.781C580.223 421.687 581.559 420.5 583.379 420.5C585.113 420.5 586.16 421.594 586.16 423.5V431H588.004V423.375C588.004 420.289 586.363 418.844 583.91 418.844C582.02 418.844 580.941 419.633 580.379 420.875H580.223V415H578.379V431H580.223V423.781ZM591.377 431H593.221V419H591.377V431ZM592.314 417C593.033 417 593.627 416.438 593.627 415.75C593.627 415.063 593.033 414.5 592.314 414.5C591.596 414.5 591.002 415.063 591.002 415.75C591.002 416.438 591.596 417 592.314 417ZM601.441 435.75C604.316 435.75 606.629 434.438 606.629 431.344V419H604.848V420.906H604.66C604.254 420.281 603.504 418.844 601.16 418.844C598.129 418.844 596.035 421.25 596.035 424.937C596.035 428.687 598.223 430.812 601.129 430.812C603.473 430.812 604.223 429.438 604.629 428.781H604.785V431.219C604.785 433.219 603.379 434.125 601.441 434.125C599.262 434.125 598.496 432.977 598.004 432.313L596.535 433.344C597.285 434.602 598.762 435.75 601.441 435.75ZM601.379 429.156C599.066 429.156 597.879 427.406 597.879 424.906C597.879 422.469 599.035 420.5 601.379 420.5C603.629 420.5 604.816 422.312 604.816 424.906C604.816 427.562 603.598 429.156 601.379 429.156ZM611.848 423.781C611.848 421.687 613.184 420.5 615.004 420.5C616.738 420.5 617.785 421.594 617.785 423.5V431H619.629V423.375C619.629 420.289 617.988 418.844 615.535 418.844C613.645 418.844 612.566 419.633 612.004 420.875H611.848V415H610.004V431H611.848V423.781Z" fill="#212429"/>
</g>
<g filter="url(#filter6_dd)">
<rect x="320.286" y="127.46" width="392.063" height="117.619" rx="8" fill="white"/>
<path fill-rule="evenodd" clip-rule="evenodd" d="M379.095 221.555C398.583 221.555 414.381 205.757 414.381 186.269C414.381 166.781 398.583 150.983 379.095 150.983C359.607 150.983 343.809 166.781 343.809 186.269C343.809 205.757 359.607 221.555 379.095 221.555Z" fill="#FFE6E6"/>
<path d="M388.961 182.998C388.366 181.659 387.502 180.458 386.422 179.469L385.53 178.651C385.5 178.624 385.464 178.605 385.424 178.596C385.385 178.586 385.344 178.586 385.304 178.596C385.265 178.606 385.229 178.625 385.199 178.653C385.169 178.68 385.146 178.714 385.132 178.752L384.734 179.895C384.486 180.612 384.03 181.344 383.383 182.064C383.34 182.109 383.291 182.122 383.258 182.125C383.224 182.128 383.172 182.122 383.126 182.079C383.083 182.042 383.062 181.987 383.065 181.932C383.178 180.088 382.627 178.008 381.42 175.745C380.421 173.864 379.034 172.397 377.3 171.374L376.035 170.629C375.87 170.531 375.658 170.66 375.668 170.853L375.735 172.323C375.781 173.328 375.665 174.216 375.389 174.954C375.052 175.858 374.568 176.697 373.949 177.451C373.519 177.974 373.031 178.448 372.494 178.863C371.203 179.856 370.152 181.128 369.422 182.584C368.694 184.053 368.314 185.671 368.313 187.31C368.313 188.756 368.598 190.156 369.162 191.476C369.706 192.747 370.491 193.901 371.474 194.873C372.467 195.853 373.618 196.625 374.902 197.161C376.231 197.718 377.64 198 379.095 198C380.55 198 381.959 197.718 383.288 197.164C384.569 196.631 385.733 195.854 386.716 194.876C387.708 193.896 388.486 192.75 389.028 191.479C389.591 190.163 389.88 188.745 389.877 187.313C389.877 185.819 389.571 184.367 388.961 182.998Z" fill="#FF3B3B"/>
<path d="M439.869 200.315H443.986V212H445.571V200.315H449.688V198.909H439.869V200.315ZM450.91 212H452.419V205.787C452.419 204.457 453.467 203.486 454.899 203.486C455.301 203.486 455.717 203.562 455.819 203.588V202.054C455.646 202.041 455.25 202.028 455.026 202.028C453.85 202.028 452.828 202.693 452.47 203.665H452.367V202.182H450.91V212ZM457.607 212H459.116V202.182H457.607V212ZM458.374 200.545C458.962 200.545 459.448 200.085 459.448 199.523C459.448 198.96 458.962 198.5 458.374 198.5C457.786 198.5 457.3 198.96 457.3 199.523C457.3 200.085 457.786 200.545 458.374 200.545ZM465.842 215.886C468.194 215.886 470.086 214.812 470.086 212.281V202.182H468.629V203.741H468.475C468.143 203.23 467.529 202.054 465.612 202.054C463.132 202.054 461.419 204.023 461.419 207.04C461.419 210.108 463.208 211.847 465.586 211.847C467.504 211.847 468.117 210.722 468.45 210.185H468.578V212.179C468.578 213.815 467.427 214.557 465.842 214.557C464.058 214.557 463.432 213.617 463.029 213.074L461.828 213.918C462.441 214.947 463.649 215.886 465.842 215.886ZM465.791 210.491C463.899 210.491 462.927 209.06 462.927 207.014C462.927 205.02 463.873 203.409 465.791 203.409C467.632 203.409 468.603 204.892 468.603 207.014C468.603 209.188 467.606 210.491 465.791 210.491ZM476.811 215.886C479.163 215.886 481.055 214.812 481.055 212.281V202.182H479.597V203.741H479.444C479.112 203.23 478.498 202.054 476.58 202.054C474.1 202.054 472.387 204.023 472.387 207.04C472.387 210.108 474.177 211.847 476.555 211.847C478.472 211.847 479.086 210.722 479.419 210.185H479.546V212.179C479.546 213.815 478.396 214.557 476.811 214.557C475.027 214.557 474.401 213.617 473.998 213.074L472.796 213.918C473.41 214.947 474.618 215.886 476.811 215.886ZM476.759 210.491C474.867 210.491 473.896 209.06 473.896 207.014C473.896 205.02 474.842 203.409 476.759 203.409C478.6 203.409 479.572 204.892 479.572 207.014C479.572 209.188 478.575 210.491 476.759 210.491ZM487.933 212.205C489.927 212.205 491.384 211.207 491.845 209.724L490.387 209.315C490.004 210.338 489.115 210.849 487.933 210.849C486.162 210.849 484.941 209.705 484.871 207.602H491.998V206.963C491.998 203.307 489.825 202.054 487.779 202.054C485.12 202.054 483.356 204.151 483.356 207.168C483.356 210.185 485.095 212.205 487.933 212.205ZM484.871 206.298C484.973 204.771 486.053 203.409 487.779 203.409C489.416 203.409 490.464 204.636 490.464 206.298H484.871ZM494.293 212H495.801V205.787C495.801 204.457 496.85 203.486 498.281 203.486C498.684 203.486 499.1 203.562 499.202 203.588V202.054C499.029 202.041 498.633 202.028 498.409 202.028C497.233 202.028 496.21 202.693 495.852 203.665H495.75V202.182H494.293V212ZM504.808 212.205C506.802 212.205 508.259 211.207 508.72 209.724L507.262 209.315C506.879 210.338 505.99 210.849 504.808 210.849C503.037 210.849 501.816 209.705 501.746 207.602H508.873V206.963C508.873 203.307 506.7 202.054 504.654 202.054C501.995 202.054 500.231 204.151 500.231 207.168C500.231 210.185 501.97 212.205 504.808 212.205ZM501.746 206.298C501.848 204.771 502.928 203.409 504.654 203.409C506.291 203.409 507.339 204.636 507.339 206.298H501.746ZM514.875 212.205C516.767 212.205 517.406 211.028 517.739 210.491H517.918V212H519.375V198.909H517.867V203.741H517.739C517.406 203.23 516.818 202.054 514.901 202.054C512.421 202.054 510.708 204.023 510.708 207.116C510.708 210.236 512.421 212.205 514.875 212.205ZM515.08 210.849C513.188 210.849 512.216 209.188 512.216 207.091C512.216 205.02 513.162 203.409 515.08 203.409C516.921 203.409 517.892 204.892 517.892 207.091C517.892 209.315 516.895 210.849 515.08 210.849ZM534.365 204.381C533.892 202.987 532.83 202.054 530.887 202.054C528.816 202.054 527.282 203.23 527.282 204.892C527.282 206.247 528.088 207.155 529.89 207.577L531.526 207.96C532.517 208.19 532.984 208.663 532.984 209.341C532.984 210.185 532.089 210.875 530.683 210.875C529.449 210.875 528.676 210.344 528.407 209.29L526.975 209.648C527.327 211.316 528.701 212.205 530.708 212.205C532.99 212.205 534.544 210.958 534.544 209.264C534.544 207.896 533.687 207.033 531.936 206.605L530.478 206.247C529.315 205.96 528.791 205.57 528.791 204.815C528.791 203.972 529.686 203.358 530.887 203.358C532.204 203.358 532.747 204.087 533.009 204.764L534.365 204.381ZM536.814 212H538.323V202.182H536.814V212ZM537.581 200.545C538.169 200.545 538.655 200.085 538.655 199.523C538.655 198.96 538.169 198.5 537.581 198.5C536.993 198.5 536.507 198.96 536.507 199.523C536.507 200.085 536.993 200.545 537.581 200.545ZM542.594 206.094C542.594 204.381 543.655 203.409 545.1 203.409C546.5 203.409 547.35 204.323 547.35 205.864V212H548.858V205.761C548.858 203.256 547.523 202.054 545.535 202.054C544.052 202.054 543.131 202.719 542.671 203.716H542.543V202.182H541.086V212H542.594V206.094ZM555.604 212.205C557.777 212.205 559.209 210.875 559.464 209.136H557.956C557.675 210.21 556.78 210.849 555.604 210.849C553.814 210.849 552.663 209.366 552.663 207.091C552.663 204.866 553.839 203.409 555.604 203.409C556.933 203.409 557.726 204.227 557.956 205.122H559.464C559.209 203.281 557.649 202.054 555.578 202.054C552.919 202.054 551.155 204.151 551.155 207.142C551.155 210.082 552.842 212.205 555.604 212.205ZM565.786 212.205C567.781 212.205 569.238 211.207 569.698 209.724L568.241 209.315C567.857 210.338 566.969 210.849 565.786 210.849C564.016 210.849 562.795 209.705 562.724 207.602H569.852V206.963C569.852 203.307 567.678 202.054 565.633 202.054C562.974 202.054 561.21 204.151 561.21 207.168C561.21 210.185 562.948 212.205 565.786 212.205ZM562.724 206.298C562.827 204.771 563.907 203.409 565.633 203.409C567.269 203.409 568.317 204.636 568.317 206.298H562.724ZM581.607 212.179C584.144 212.179 586.03 210.587 586.03 208.446C586.03 206.784 585.045 205.576 583.396 205.301V205.199C584.719 204.796 585.544 203.71 585.544 202.233C585.544 200.379 584.08 198.73 581.658 198.73C579.395 198.73 577.516 200.124 577.439 202.182H578.973C579.031 200.878 580.271 200.111 581.632 200.111C583.077 200.111 584.01 200.987 584.01 202.31C584.01 203.69 582.93 204.585 581.376 204.585H580.328V205.991H581.376C583.364 205.991 584.47 207.001 584.47 208.446C584.47 209.833 583.262 210.773 581.581 210.773C580.066 210.773 578.864 209.993 578.768 208.727H577.158C577.254 210.786 579.069 212.179 581.607 212.179ZM593.732 212H595.241V205.864C595.241 204.425 596.289 203.409 597.465 203.409C598.609 203.409 599.408 204.157 599.408 205.276V212H600.942V205.608C600.942 204.342 601.735 203.409 603.116 203.409C604.19 203.409 605.11 203.978 605.11 205.429V212H606.619V205.429C606.619 203.121 605.379 202.054 603.627 202.054C602.221 202.054 601.192 202.7 600.687 203.716H600.585C600.099 202.668 599.242 202.054 597.951 202.054C596.673 202.054 595.727 202.668 595.317 203.716H595.19V202.182H593.732V212ZM609.377 212H610.885V202.182H609.377V212ZM610.144 200.545C610.732 200.545 611.218 200.085 611.218 199.523C611.218 198.96 610.732 198.5 610.144 198.5C609.556 198.5 609.07 198.96 609.07 199.523C609.07 200.085 609.556 200.545 610.144 200.545ZM615.157 206.094C615.157 204.381 616.218 203.409 617.662 203.409C619.062 203.409 619.912 204.323 619.912 205.864V212H621.421V205.761C621.421 203.256 620.085 202.054 618.097 202.054C616.614 202.054 615.694 202.719 615.233 203.716H615.106V202.182H613.648V212H615.157V206.094ZM630.365 207.986C630.365 209.827 628.959 210.67 627.834 210.67C626.581 210.67 625.686 209.75 625.686 208.318V202.182H624.178V208.42C624.178 210.926 625.507 212.128 627.348 212.128C628.831 212.128 629.803 211.335 630.263 210.338H630.365V212H631.874V202.182H630.365V207.986ZM638.906 202.182H636.81V199.83H635.301V202.182H633.818V203.46H635.301V209.597C635.301 211.31 636.682 212.128 637.96 212.128C638.523 212.128 638.881 212.026 639.085 211.949L638.779 210.594C638.651 210.619 638.446 210.67 638.114 210.67C637.449 210.67 636.81 210.466 636.81 209.188V203.46H638.906V202.182ZM645.187 212.205C647.181 212.205 648.638 211.207 649.099 209.724L647.641 209.315C647.258 210.338 646.369 210.849 645.187 210.849C643.416 210.849 642.195 209.705 642.125 207.602H649.252V206.963C649.252 203.307 647.079 202.054 645.033 202.054C642.374 202.054 640.61 204.151 640.61 207.168C640.61 210.185 642.349 212.205 645.187 212.205ZM642.125 206.298C642.227 204.771 643.307 203.409 645.033 203.409C646.67 203.409 647.718 204.636 647.718 206.298H642.125ZM658.501 204.381C658.028 202.987 656.967 202.054 655.024 202.054C652.953 202.054 651.419 203.23 651.419 204.892C651.419 206.247 652.224 207.155 654.027 207.577L655.663 207.96C656.654 208.19 657.121 208.663 657.121 209.341C657.121 210.185 656.226 210.875 654.819 210.875C653.586 210.875 652.812 210.344 652.544 209.29L651.112 209.648C651.464 211.316 652.838 212.205 654.845 212.205C657.127 212.205 658.68 210.958 658.68 209.264C658.68 207.896 657.824 207.033 656.072 206.605L654.615 206.247C653.452 205.96 652.927 205.57 652.927 204.815C652.927 203.972 653.822 203.358 655.024 203.358C656.341 203.358 656.884 204.087 657.146 204.764L658.501 204.381ZM668.903 212.23C670.616 212.23 671.511 211.31 671.817 210.67H671.894V212H673.403V205.531C673.403 202.412 671.025 202.054 669.772 202.054C668.289 202.054 666.602 202.565 665.835 204.355L667.266 204.866C667.599 204.151 668.385 203.384 669.823 203.384C671.21 203.384 671.894 204.119 671.894 205.378V205.429C671.894 206.158 671.153 206.094 669.363 206.324C667.541 206.56 665.553 206.963 665.553 209.213C665.553 211.131 667.036 212.23 668.903 212.23ZM669.133 210.875C667.931 210.875 667.062 210.338 667.062 209.29C667.062 208.139 668.11 207.781 669.286 207.628C669.925 207.551 671.638 207.372 671.894 207.065V208.446C671.894 209.673 670.923 210.875 669.133 210.875ZM680.119 215.886C682.471 215.886 684.363 214.812 684.363 212.281V202.182H682.906V203.741H682.753C682.42 203.23 681.807 202.054 679.889 202.054C677.409 202.054 675.696 204.023 675.696 207.04C675.696 210.108 677.486 211.847 679.863 211.847C681.781 211.847 682.395 210.722 682.727 210.185H682.855V212.179C682.855 213.815 681.704 214.557 680.119 214.557C678.336 214.557 677.709 213.617 677.307 213.074L676.105 213.918C676.719 214.947 677.927 215.886 680.119 215.886ZM680.068 210.491C678.176 210.491 677.204 209.06 677.204 207.014C677.204 205.02 678.15 203.409 680.068 203.409C681.909 203.409 682.881 204.892 682.881 207.014C682.881 209.188 681.883 210.491 680.068 210.491ZM691.113 212.205C693.773 212.205 695.562 210.185 695.562 207.142C695.562 204.074 693.773 202.054 691.113 202.054C688.454 202.054 686.665 204.074 686.665 207.142C686.665 210.185 688.454 212.205 691.113 212.205ZM691.113 210.849C689.094 210.849 688.173 209.111 688.173 207.142C688.173 205.173 689.094 203.409 691.113 203.409C693.133 203.409 694.054 205.173 694.054 207.142C694.054 209.111 693.133 210.849 691.113 210.849Z" fill="#ACB5BD"/>
<path d="M440.938 180H450.719V178.281H442.875V172.844H450.094V171.125H442.875V165.719H450.594V164H440.938V180ZM453.836 180H455.68V172.406C455.68 170.781 456.961 169.594 458.711 169.594C459.203 169.594 459.711 169.688 459.836 169.719V167.844C459.625 167.828 459.141 167.812 458.867 167.812C457.43 167.812 456.18 168.625 455.742 169.812H455.617V168H453.836V180ZM462.021 180H463.865V172.406C463.865 170.781 465.146 169.594 466.896 169.594C467.389 169.594 467.896 169.688 468.021 169.719V167.844C467.811 167.828 467.326 167.812 467.053 167.812C465.615 167.812 464.365 168.625 463.928 169.812H463.803V168H462.021V180ZM474.717 180.25C477.967 180.25 480.154 177.781 480.154 174.062C480.154 170.312 477.967 167.844 474.717 167.844C471.467 167.844 469.279 170.312 469.279 174.062C469.279 177.781 471.467 180.25 474.717 180.25ZM474.717 178.594C472.248 178.594 471.123 176.469 471.123 174.062C471.123 171.656 472.248 169.5 474.717 169.5C477.186 169.5 478.311 171.656 478.311 174.062C478.311 176.469 477.186 178.594 474.717 178.594ZM482.969 180H484.813V172.406C484.813 170.781 486.094 169.594 487.844 169.594C488.336 169.594 488.844 169.688 488.969 169.719V167.844C488.758 167.828 488.273 167.812 488 167.812C486.563 167.812 485.313 168.625 484.875 169.812H484.75V168H482.969V180ZM502.217 180.25C504.873 180.25 506.623 178.625 506.936 176.5H505.092C504.748 177.812 503.654 178.594 502.217 178.594C500.029 178.594 498.623 176.781 498.623 174C498.623 171.281 500.061 169.5 502.217 169.5C503.842 169.5 504.811 170.5 505.092 171.594H506.936C506.623 169.344 504.717 167.844 502.186 167.844C498.936 167.844 496.779 170.406 496.779 174.062C496.779 177.656 498.842 180.25 502.217 180.25ZM514.506 180.25C517.756 180.25 519.943 177.781 519.943 174.062C519.943 170.312 517.756 167.844 514.506 167.844C511.256 167.844 509.068 170.312 509.068 174.062C509.068 177.781 511.256 180.25 514.506 180.25ZM514.506 178.594C512.037 178.594 510.912 176.469 510.912 174.062C510.912 171.656 512.037 169.5 514.506 169.5C516.975 169.5 518.1 171.656 518.1 174.062C518.1 176.469 516.975 178.594 514.506 178.594ZM530.32 175.094C530.32 177.344 528.602 178.375 527.227 178.375C525.695 178.375 524.602 177.25 524.602 175.5V168H522.758V175.625C522.758 178.687 524.383 180.156 526.633 180.156C528.445 180.156 529.633 179.187 530.195 177.969H530.32V180H532.164V168H530.32V175.094ZM537.385 172.781C537.385 170.687 538.682 169.5 540.447 169.5C542.158 169.5 543.197 170.617 543.197 172.5V180H545.041V172.375C545.041 169.312 543.408 167.844 540.979 167.844C539.166 167.844 538.041 168.656 537.479 169.875H537.322V168H535.541V180H537.385V172.781ZM553.629 168H551.066V165.125H549.223V168H547.41V169.562H549.223V177.062C549.223 179.156 550.91 180.156 552.473 180.156C553.16 180.156 553.598 180.031 553.848 179.937L553.473 178.281C553.316 178.312 553.066 178.375 552.66 178.375C551.848 178.375 551.066 178.125 551.066 176.562V169.562H553.629V168ZM562.59 180H564.434V168H562.59V180ZM563.527 166C564.246 166 564.84 165.438 564.84 164.75C564.84 164.063 564.246 163.5 563.527 163.5C562.809 163.5 562.215 164.063 562.215 164.75C562.215 165.438 562.809 166 563.527 166ZM576.311 170.687C575.732 168.984 574.436 167.844 572.061 167.844C569.529 167.844 567.654 169.281 567.654 171.312C567.654 172.969 568.639 174.078 570.842 174.594L572.842 175.062C574.053 175.344 574.623 175.922 574.623 176.75C574.623 177.781 573.529 178.625 571.811 178.625C570.303 178.625 569.357 177.977 569.029 176.687L567.279 177.125C567.709 179.164 569.389 180.25 571.842 180.25C574.631 180.25 576.529 178.727 576.529 176.656C576.529 174.984 575.482 173.93 573.342 173.406L571.561 172.969C570.139 172.617 569.498 172.141 569.498 171.219C569.498 170.187 570.592 169.437 572.061 169.437C573.67 169.437 574.334 170.328 574.654 171.156L576.311 170.687ZM587.336 172.781C587.336 170.687 588.672 169.5 590.492 169.5C592.227 169.5 593.273 170.594 593.273 172.5V180H595.117V172.375C595.117 169.289 593.477 167.844 591.023 167.844C589.133 167.844 588.055 168.633 587.492 169.875H587.336V164H585.492V180H587.336V172.781ZM598.49 180H600.334V168H598.49V180ZM599.428 166C600.146 166 600.74 165.438 600.74 164.75C600.74 164.063 600.146 163.5 599.428 163.5C598.709 163.5 598.115 164.063 598.115 164.75C598.115 165.438 598.709 166 599.428 166ZM608.555 184.75C611.43 184.75 613.742 183.438 613.742 180.344V168H611.961V169.906H611.773C611.367 169.281 610.617 167.844 608.273 167.844C605.242 167.844 603.148 170.25 603.148 173.937C603.148 177.687 605.336 179.812 608.242 179.812C610.586 179.812 611.336 178.438 611.742 177.781H611.898V180.219C611.898 182.219 610.492 183.125 608.555 183.125C606.375 183.125 605.609 181.977 605.117 181.313L603.648 182.344C604.398 183.602 605.875 184.75 608.555 184.75ZM608.492 178.156C606.18 178.156 604.992 176.406 604.992 173.906C604.992 171.469 606.148 169.5 608.492 169.5C610.742 169.5 611.93 171.312 611.93 173.906C611.93 176.562 610.711 178.156 608.492 178.156ZM618.961 172.781C618.961 170.687 620.297 169.5 622.117 169.5C623.852 169.5 624.898 170.594 624.898 172.5V180H626.742V172.375C626.742 169.289 625.102 167.844 622.648 167.844C620.758 167.844 619.68 168.633 619.117 169.875H618.961V164H617.117V180H618.961V172.781Z" fill="#212429"/>
</g>
<defs>
<filter id="filter0_dd" x="50" y="84.5" width="497" height="444" filterUnits="userSpaceOnUse" color-interpolation-filters="sRGB">
<feFlood flood-opacity="0" result="BackgroundImageFix"/>
<feColorMatrix in="SourceAlpha" type="matrix" values="0 0 0 0 0 0 0 0 0 0 0 0 0 0 0 0 0 0 127 0"/>
<feOffset dy="0.5"/>
<feGaussianBlur stdDeviation="1"/>
<feColorMatrix type="matrix" values="0 0 0 0 0.376471 0 0 0 0 0.380392 0 0 0 0 0.439216 0 0 0 0.16 0"/>
<feBlend mode="normal" in2="BackgroundImageFix" result="effect1_dropShadow"/>
<feColorMatrix in="SourceAlpha" type="matrix" values="0 0 0 0 0 0 0 0 0 0 0 0 0 0 0 0 0 0 127 0"/>
<feOffset/>
<feGaussianBlur stdDeviation="0.5"/>
<feColorMatrix type="matrix" values="0 0 0 0 0.156863 0 0 0 0 0.160784 0 0 0 0 0.239216 0 0 0 0.08 0"/>
<feBlend mode="normal" in2="effect1_dropShadow" result="effect2_dropShadow"/>
<feBlend mode="normal" in="SourceGraphic" in2="effect2_dropShadow" result="shape"/>
</filter>
<filter id="filter1_dd" x="50" y="84.5" width="497" height="28" filterUnits="userSpaceOnUse" color-interpolation-filters="sRGB">
<feFlood flood-opacity="0" result="BackgroundImageFix"/>
<feColorMatrix in="SourceAlpha" type="matrix" values="0 0 0 0 0 0 0 0 0 0 0 0 0 0 0 0 0 0 127 0"/>
<feOffset dy="0.5"/>
<feGaussianBlur stdDeviation="1"/>
<feColorMatrix type="matrix" values="0 0 0 0 0.376471 0 0 0 0 0.380392 0 0 0 0 0.439216 0 0 0 0.16 0"/>
<feBlend mode="normal" in2="BackgroundImageFix" result="effect1_dropShadow"/>
<feColorMatrix in="SourceAlpha" type="matrix" values="0 0 0 0 0 0 0 0 0 0 0 0 0 0 0 0 0 0 127 0"/>
<feOffset/>
<feGaussianBlur stdDeviation="0.5"/>
<feColorMatrix type="matrix" values="0 0 0 0 0.156863 0 0 0 0 0.160784 0 0 0 0 0.239216 0 0 0 0.08 0"/>
<feBlend mode="normal" in2="effect1_dropShadow" result="effect2_dropShadow"/>
<feBlend mode="normal" in="SourceGraphic" in2="effect2_dropShadow" result="shape"/>
</filter>
<filter id="filter2_dd" x="126" y="147" width="318" height="237" filterUnits="userSpaceOnUse" color-interpolation-filters="sRGB">
<feFlood flood-opacity="0" result="BackgroundImageFix"/>
<feColorMatrix in="SourceAlpha" type="matrix" values="0 0 0 0 0 0 0 0 0 0 0 0 0 0 0 0 0 0 127 0"/>
<feOffset dy="16"/>
<feGaussianBlur stdDeviation="12"/>
<feColorMatrix type="matrix" values="0 0 0 0 0.376471 0 0 0 0 0.380392 0 0 0 0 0.439216 0 0 0 0.16 0"/>
<feBlend mode="normal" in2="BackgroundImageFix" result="effect1_dropShadow"/>
<feColorMatrix in="SourceAlpha" type="matrix" values="0 0 0 0 0 0 0 0 0 0 0 0 0 0 0 0 0 0 127 0"/>
<feOffset dy="2"/>
<feGaussianBlur stdDeviation="4"/>
<feColorMatrix type="matrix" values="0 0 0 0 0.156863 0 0 0 0 0.160784 0 0 0 0 0.239216 0 0 0 0.04 0"/>
<feBlend mode="normal" in2="effect1_dropShadow" result="effect2_dropShadow"/>
<feBlend mode="normal" in="SourceGraphic" in2="effect2_dropShadow" result="shape"/>
</filter>
<filter id="filter3_dd" x="283" y="251.421" width="396.063" height="121.619" filterUnits="userSpaceOnUse" color-interpolation-filters="sRGB">
<feFlood flood-opacity="0" result="BackgroundImageFix"/>
<feColorMatrix in="SourceAlpha" type="matrix" values="0 0 0 0 0 0 0 0 0 0 0 0 0 0 0 0 0 0 127 0"/>
<feOffset dy="0.5"/>
<feGaussianBlur stdDeviation="1"/>
<feColorMatrix type="matrix" values="0 0 0 0 0.376471 0 0 0 0 0.380392 0 0 0 0 0.439216 0 0 0 0.16 0"/>
<feBlend mode="normal" in2="BackgroundImageFix" result="effect1_dropShadow"/>
<feColorMatrix in="SourceAlpha" type="matrix" values="0 0 0 0 0 0 0 0 0 0 0 0 0 0 0 0 0 0 127 0"/>
<feOffset/>
<feGaussianBlur stdDeviation="0.5"/>
<feColorMatrix type="matrix" values="0 0 0 0 0.156863 0 0 0 0 0.160784 0 0 0 0 0.239216 0 0 0 0.08 0"/>
<feBlend mode="normal" in2="effect1_dropShadow" result="effect2_dropShadow"/>
<feBlend mode="normal" in="SourceGraphic" in2="effect2_dropShadow" result="shape"/>
</filter>
<filter id="filter4_dd" x="283" y="0.5" width="396.063" height="121.619" filterUnits="userSpaceOnUse" color-interpolation-filters="sRGB">
<feFlood flood-opacity="0" result="BackgroundImageFix"/>
<feColorMatrix in="SourceAlpha" type="matrix" values="0 0 0 0 0 0 0 0 0 0 0 0 0 0 0 0 0 0 127 0"/>
<feOffset dy="0.5"/>
<feGaussianBlur stdDeviation="1"/>
<feColorMatrix type="matrix" values="0 0 0 0 0.376471 0 0 0 0 0.380392 0 0 0 0 0.439216 0 0 0 0.16 0"/>
<feBlend mode="normal" in2="BackgroundImageFix" result="effect1_dropShadow"/>
<feColorMatrix in="SourceAlpha" type="matrix" values="0 0 0 0 0 0 0 0 0 0 0 0 0 0 0 0 0 0 127 0"/>
<feOffset/>
<feGaussianBlur stdDeviation="0.5"/>
<feColorMatrix type="matrix" values="0 0 0 0 0.156863 0 0 0 0 0.160784 0 0 0 0 0.239216 0 0 0 0.08 0"/>
<feBlend mode="normal" in2="effect1_dropShadow" result="effect2_dropShadow"/>
<feBlend mode="normal" in="SourceGraphic" in2="effect2_dropShadow" result="shape"/>
</filter>
<filter id="filter5_dd" x="283" y="376.881" width="396.063" height="121.619" filterUnits="userSpaceOnUse" color-interpolation-filters="sRGB">
<feFlood flood-opacity="0" result="BackgroundImageFix"/>
<feColorMatrix in="SourceAlpha" type="matrix" values="0 0 0 0 0 0 0 0 0 0 0 0 0 0 0 0 0 0 127 0"/>
<feOffset dy="0.5"/>
<feGaussianBlur stdDeviation="1"/>
<feColorMatrix type="matrix" values="0 0 0 0 0.376471 0 0 0 0 0.380392 0 0 0 0 0.439216 0 0 0 0.16 0"/>
<feBlend mode="normal" in2="BackgroundImageFix" result="effect1_dropShadow"/>
<feColorMatrix in="SourceAlpha" type="matrix" values="0 0 0 0 0 0 0 0 0 0 0 0 0 0 0 0 0 0 127 0"/>
<feOffset/>
<feGaussianBlur stdDeviation="0.5"/>
<feColorMatrix type="matrix" values="0 0 0 0 0.156863 0 0 0 0 0.160784 0 0 0 0 0.239216 0 0 0 0.08 0"/>
<feBlend mode="normal" in2="effect1_dropShadow" result="effect2_dropShadow"/>
<feBlend mode="normal" in="SourceGraphic" in2="effect2_dropShadow" result="shape"/>
</filter>
<filter id="filter6_dd" x="312.286" y="123.46" width="408.063" height="133.619" filterUnits="userSpaceOnUse" color-interpolation-filters="sRGB">
<feFlood flood-opacity="0" result="BackgroundImageFix"/>
<feColorMatrix in="SourceAlpha" type="matrix" values="0 0 0 0 0 0 0 0 0 0 0 0 0 0 0 0 0 0 127 0"/>
<feOffset dy="4"/>
<feGaussianBlur stdDeviation="4"/>
<feColorMatrix type="matrix" values="0 0 0 0 0.376471 0 0 0 0 0.380392 0 0 0 0 0.439216 0 0 0 0.16 0"/>
<feBlend mode="normal" in2="BackgroundImageFix" result="effect1_dropShadow"/>
<feColorMatrix in="SourceAlpha" type="matrix" values="0 0 0 0 0 0 0 0 0 0 0 0 0 0 0 0 0 0 127 0"/>
<feOffset/>
<feGaussianBlur stdDeviation="1"/>
<feColorMatrix type="matrix" values="0 0 0 0 0.156863 0 0 0 0 0.160784 0 0 0 0 0.239216 0 0 0 0.04 0"/>
<feBlend mode="normal" in2="effect1_dropShadow" result="effect2_dropShadow"/>
<feBlend mode="normal" in="SourceGraphic" in2="effect2_dropShadow" result="shape"/>
</filter>
<linearGradient id="paint0_linear" x1="130.173" y1="173" x2="252.683" y2="394.271" gradientUnits="userSpaceOnUse">
<stop/>
<stop offset="1" stop-opacity="0"/>
</linearGradient>
<linearGradient id="paint1_linear" x1="127.5" y1="0" x2="127.5" y2="82" gradientUnits="userSpaceOnUse">
<stop stop-color="#FF1414"/>
<stop offset="1" stop-color="#FF1616" stop-opacity="0"/>
</linearGradient>
</defs>
</svg>
