<svg width="704" height="505" viewBox="0 0 704 505" fill="none" xmlns="http://www.w3.org/2000/svg">
<rect width="587" height="440" rx="8" fill="#E5F6FF"/>
<mask id="mask0" mask-type="alpha" maskUnits="userSpaceOnUse" x="47" y="48" width="497" height="433">
<rect x="47" y="48" width="497" height="433" rx="8" fill="url(#paint0_linear)"/>
</mask>
<g mask="url(#mask0)">
<g filter="url(#filter0_dd)">
<mask id="mask1" mask-type="alpha" maskUnits="userSpaceOnUse" x="51" y="50" width="493" height="440">
<path fill-rule="evenodd" clip-rule="evenodd" d="M51 58C51 53.5817 54.5817 50 59 50H536C540.418 50 544 53.5817 544 58V482C544 486.418 540.418 490 536 490H59C54.5817 490 51 486.418 51 482V58Z" fill="white"/>
</mask>
<g mask="url(#mask1)">
<path fill-rule="evenodd" clip-rule="evenodd" d="M51 58C51 53.5817 54.5817 50 59 50H536C540.418 50 544 53.5817 544 58V482C544 486.418 540.418 490 536 490H59C54.5817 490 51 486.418 51 482V58Z" fill="#FAFAFC"/>
<rect x="51" y="74" width="64" height="366" fill="#2A3B44"/>
<rect opacity="0.1" x="67" y="306" width="32" height="32" rx="8" fill="#F2F2F5"/>
<rect opacity="0.2" x="67" y="258" width="32" height="32" rx="8" fill="#F2F2F5"/>
<rect opacity="0.3" x="67" y="210" width="32" height="32" rx="8" fill="#F2F2F5"/>
<rect x="67" y="162" width="32" height="32" rx="8" fill="#E3FFF1"/>
<circle cx="83" cy="178" r="7" fill="#3BC882"/>
<path d="M83.5011 98.0002C83.2251 97.9917 83 98.2165 83 98.4928L83 105.254C83 105.528 83.22 105.749 83.4925 105.769C87.8296 106.085 91.25 109.705 91.25 114.125C91.25 118.545 87.8296 122.165 83.4925 122.482C83.22 122.501 83 122.723 83 122.996L83 129.507C83 129.784 83.2251 130.008 83.5011 130C92.1058 129.735 99 122.673 99 114C99 105.327 92.1058 98.2651 83.5011 98.0002Z" fill="#39D98A"/>
<path d="M83.0001 108.751C82.9586 108.75 82.9169 108.75 82.8751 108.75C80.0447 108.75 77.7501 111.045 77.7501 113.875C77.7501 116.705 80.0447 119 82.8751 119C82.9169 119 82.9586 118.999 83.0001 118.999L83.0001 108.751Z" fill="#223C37"/>
<path d="M83.0001 118.999C85.7728 118.933 88.0001 116.664 88.0001 113.875C88.0001 111.087 85.7728 108.818 83.0001 108.752L83.0001 118.999Z" fill="#376C66"/>
<g filter="url(#filter1_dd)">
<path fill-rule="evenodd" clip-rule="evenodd" d="M51 50H544V74H51V50Z" fill="white"/>
</g>
</g>
</g>
<path fill-rule="evenodd" clip-rule="evenodd" d="M66 64C67.6569 64 69 62.6569 69 61C69 59.3431 67.6569 58 66 58C64.3431 58 63 59.3431 63 61C63 62.6569 64.3431 64 66 64Z" fill="#FF5C5C"/>
<path fill-rule="evenodd" clip-rule="evenodd" d="M76 64C77.6569 64 79 62.6569 79 61C79 59.3431 77.6569 58 76 58C74.3431 58 73 59.3431 73 61C73 62.6569 74.3431 64 76 64Z" fill="#FDDD48"/>
<path fill-rule="evenodd" clip-rule="evenodd" d="M86 64C87.6569 64 89 62.6569 89 61C89 59.3431 87.6569 58 86 58C84.3431 58 83 59.3431 83 61C83 62.6569 84.3431 64 86 64Z" fill="#39D98A"/>
</g>
<g opacity="0.85" filter="url(#filter2_dd)">
<rect x="133" y="247" width="376" height="44" rx="8" fill="white"/>
<rect x="157" y="263" width="120" height="12" rx="6" fill="#C7C9D9"/>
<rect x="326" y="263" width="37" height="12" rx="6" fill="#E4E4EB"/>
<rect x="391" y="263" width="31" height="12" rx="6" fill="#C7C9D9"/>
<rect x="446" y="263" width="46" height="12" rx="6" fill="#E4E4EB"/>
</g>
<g opacity="0.7" filter="url(#filter3_dd)">
<rect x="133" y="403" width="376" height="44" rx="8" fill="white"/>
<rect x="157" y="419" width="120" height="12" rx="6" fill="#C7C9D9"/>
<rect x="326" y="419" width="37" height="12" rx="6" fill="#E4E4EB"/>
<rect x="391" y="419" width="31" height="12" rx="6" fill="#C7C9D9"/>
<rect x="446" y="419" width="46" height="12" rx="6" fill="#E4E4EB"/>
</g>
<g opacity="0.5" filter="url(#filter4_dd)">
<rect x="133" y="455" width="376" height="44" rx="8" fill="white"/>
<rect x="157" y="471" width="120" height="12" rx="6" fill="#C7C9D9"/>
<rect x="326" y="471" width="37" height="12" rx="6" fill="#E4E4EB"/>
<rect x="391" y="471" width="31" height="12" rx="6" fill="#C7C9D9"/>
<rect x="446" y="471" width="46" height="12" rx="6" fill="#E4E4EB"/>
</g>
<g opacity="0.85" filter="url(#filter5_dd)">
<rect x="133" y="299" width="376" height="44" rx="8" fill="white"/>
<path d="M326.678 324H330.807V323.297H327.764V323.246L329.234 321.673C330.359 320.468 330.692 319.906 330.692 319.18C330.692 318.17 329.874 317.365 328.723 317.365C327.576 317.365 326.703 318.145 326.703 319.295H327.457C327.457 318.551 327.94 318.055 328.697 318.055C329.407 318.055 329.95 318.49 329.95 319.18C329.95 319.784 329.596 320.232 328.838 321.06L326.678 323.425V324ZM332.689 324.051C333.006 324.051 333.265 323.792 333.265 323.476C333.265 323.159 333.006 322.901 332.689 322.901C332.373 322.901 332.114 323.159 332.114 323.476C332.114 323.792 332.373 324.051 332.689 324.051ZM336.571 324.089C337.84 324.089 338.782 323.294 338.782 322.223C338.782 321.392 338.29 320.788 337.466 320.651V320.599C338.127 320.398 338.54 319.855 338.54 319.116C338.54 318.19 337.808 317.365 336.596 317.365C335.465 317.365 334.525 318.062 334.487 319.091H335.254C335.283 318.439 335.903 318.055 336.584 318.055C337.306 318.055 337.773 318.493 337.773 319.155C337.773 319.845 337.232 320.293 336.456 320.293H335.932V320.996H336.456C337.45 320.996 338.003 321.501 338.003 322.223C338.003 322.917 337.399 323.386 336.558 323.386C335.801 323.386 335.2 322.996 335.152 322.364H334.346C334.394 323.393 335.302 324.089 336.571 324.089ZM342.634 324H343.388V320.932C343.388 320.213 343.912 319.705 344.5 319.705C345.072 319.705 345.472 320.078 345.472 320.638V324H346.239V320.804C346.239 320.171 346.635 319.705 347.325 319.705C347.862 319.705 348.323 319.989 348.323 320.714V324H349.077V320.714C349.077 319.561 348.457 319.027 347.581 319.027C346.878 319.027 346.363 319.35 346.111 319.858H346.06C345.817 319.334 345.389 319.027 344.743 319.027C344.104 319.027 343.631 319.334 343.426 319.858H343.362V319.091H342.634V324ZM353.933 320.19C353.697 319.494 353.166 319.027 352.195 319.027C351.159 319.027 350.392 319.615 350.392 320.446C350.392 321.124 350.795 321.577 351.696 321.788L352.514 321.98C353.01 322.095 353.243 322.332 353.243 322.67C353.243 323.092 352.795 323.438 352.092 323.438C351.475 323.438 351.089 323.172 350.955 322.645L350.239 322.824C350.414 323.658 351.102 324.102 352.105 324.102C353.246 324.102 354.023 323.479 354.023 322.632C354.023 321.948 353.594 321.517 352.719 321.303L351.99 321.124C351.408 320.98 351.146 320.785 351.146 320.408C351.146 319.986 351.594 319.679 352.195 319.679C352.853 319.679 353.125 320.043 353.256 320.382L353.933 320.19Z" fill="#212429"/>
<path d="M161.135 324.115C161.991 324.115 162.439 323.655 162.592 323.335H162.631V324H163.385V320.766C163.385 319.206 162.196 319.027 161.57 319.027C160.828 319.027 159.984 319.283 159.601 320.178L160.317 320.433C160.483 320.075 160.876 319.692 161.595 319.692C162.289 319.692 162.631 320.059 162.631 320.689V320.714C162.631 321.079 162.26 321.047 161.365 321.162C160.454 321.28 159.46 321.482 159.46 322.607C159.46 323.565 160.202 324.115 161.135 324.115ZM161.25 323.438C160.649 323.438 160.214 323.169 160.214 322.645C160.214 322.07 160.739 321.891 161.327 321.814C161.646 321.776 162.503 321.686 162.631 321.533V322.223C162.631 322.837 162.145 323.438 161.25 323.438ZM164.762 324H165.516V322.162L166.043 321.673L167.881 324H168.84L166.612 321.188L168.686 319.091H167.753L165.605 321.277H165.516V317.455H164.762V324ZM169.657 324H170.411V322.162L170.939 321.673L172.776 324H173.735L171.508 321.188L173.582 319.091H172.649L170.501 321.277H170.411V317.455H169.657V324ZM175.997 324.115C176.854 324.115 177.301 323.655 177.455 323.335H177.493V324H178.247V320.766C178.247 319.206 177.058 319.027 176.432 319.027C175.69 319.027 174.847 319.283 174.463 320.178L175.179 320.433C175.345 320.075 175.738 319.692 176.457 319.692C177.151 319.692 177.493 320.059 177.493 320.689V320.714C177.493 321.079 177.122 321.047 176.227 321.162C175.316 321.28 174.323 321.482 174.323 322.607C174.323 323.565 175.064 324.115 175.997 324.115ZM176.112 323.438C175.511 323.438 175.077 323.169 175.077 322.645C175.077 322.07 175.601 321.891 176.189 321.814C176.509 321.776 177.365 321.686 177.493 321.533V322.223C177.493 322.837 177.007 323.438 176.112 323.438ZM180.174 324.051C180.49 324.051 180.749 323.792 180.749 323.476C180.749 323.159 180.49 322.901 180.174 322.901C179.857 322.901 179.598 323.159 179.598 323.476C179.598 323.792 179.857 324.051 180.174 324.051ZM184.097 324.102C185.183 324.102 185.899 323.438 186.027 322.568H185.273C185.132 323.105 184.685 323.425 184.097 323.425C183.202 323.425 182.627 322.683 182.627 321.545C182.627 320.433 183.215 319.705 184.097 319.705C184.762 319.705 185.158 320.114 185.273 320.561H186.027C185.899 319.641 185.119 319.027 184.084 319.027C182.754 319.027 181.872 320.075 181.872 321.571C181.872 323.041 182.716 324.102 184.097 324.102ZM187.884 317.455H187.13V324H187.884V317.455ZM192.359 321.993C192.359 322.913 191.656 323.335 191.094 323.335C190.467 323.335 190.02 322.875 190.02 322.159V319.091H189.266V322.21C189.266 323.463 189.93 324.064 190.851 324.064C191.592 324.064 192.078 323.668 192.308 323.169H192.359V324H193.114V319.091H192.359V321.993ZM197.972 320.19C197.736 319.494 197.205 319.027 196.234 319.027C195.198 319.027 194.431 319.615 194.431 320.446C194.431 321.124 194.834 321.577 195.735 321.788L196.553 321.98C197.049 322.095 197.282 322.332 197.282 322.67C197.282 323.092 196.835 323.438 196.131 323.438C195.515 323.438 195.128 323.172 194.994 322.645L194.278 322.824C194.453 323.658 195.141 324.102 196.144 324.102C197.285 324.102 198.062 323.479 198.062 322.632C198.062 321.948 197.634 321.517 196.758 321.303L196.029 321.124C195.447 320.98 195.185 320.785 195.185 320.408C195.185 319.986 195.633 319.679 196.234 319.679C196.892 319.679 197.164 320.043 197.295 320.382L197.972 320.19ZM201.332 319.091H200.284V317.915H199.53V319.091H198.788V319.73H199.53V322.798C199.53 323.655 200.22 324.064 200.859 324.064C201.14 324.064 201.319 324.013 201.422 323.974L201.268 323.297C201.204 323.31 201.102 323.335 200.936 323.335C200.603 323.335 200.284 323.233 200.284 322.594V319.73H201.332V319.091ZM204.472 324.102C205.469 324.102 206.198 323.604 206.428 322.862L205.699 322.658C205.508 323.169 205.063 323.425 204.472 323.425C203.587 323.425 202.976 322.853 202.941 321.801H206.505V321.482C206.505 319.653 205.418 319.027 204.396 319.027C203.066 319.027 202.184 320.075 202.184 321.584C202.184 323.092 203.053 324.102 204.472 324.102ZM202.941 321.149C202.992 320.385 203.533 319.705 204.396 319.705C205.214 319.705 205.738 320.318 205.738 321.149H202.941ZM207.652 324H208.407V320.893C208.407 320.229 208.931 319.743 209.647 319.743C209.848 319.743 210.056 319.781 210.107 319.794V319.027C210.021 319.021 209.822 319.014 209.71 319.014C209.122 319.014 208.611 319.347 208.432 319.832H208.381V319.091H207.652V324ZM210.988 324.051C211.305 324.051 211.563 323.792 211.563 323.476C211.563 323.159 211.305 322.901 210.988 322.901C210.672 322.901 210.413 323.159 210.413 323.476C210.413 323.792 210.672 324.051 210.988 324.051ZM216.394 320.19C216.158 319.494 215.627 319.027 214.656 319.027C213.62 319.027 212.853 319.615 212.853 320.446C212.853 321.124 213.256 321.577 214.157 321.788L214.975 321.98C215.471 322.095 215.704 322.332 215.704 322.67C215.704 323.092 215.256 323.438 214.553 323.438C213.936 323.438 213.55 323.172 213.415 322.645L212.7 322.824C212.875 323.658 213.562 324.102 214.566 324.102C215.707 324.102 216.484 323.479 216.484 322.632C216.484 321.948 216.055 321.517 215.18 321.303L214.451 321.124C213.869 320.98 213.607 320.785 213.607 320.408C213.607 319.986 214.055 319.679 214.656 319.679C215.314 319.679 215.586 320.043 215.717 320.382L216.394 320.19ZM218.373 321.047C218.373 320.19 218.92 319.705 219.665 319.705C220.374 319.705 220.802 320.152 220.802 320.932V324H221.557V320.881C221.557 319.618 220.885 319.027 219.882 319.027C219.108 319.027 218.667 319.35 218.437 319.858H218.373V317.455H217.619V324H218.373V321.047ZM224.381 324.115C225.238 324.115 225.685 323.655 225.838 323.335H225.877V324H226.631V320.766C226.631 319.206 225.442 319.027 224.816 319.027C224.074 319.027 223.23 319.283 222.847 320.178L223.563 320.433C223.729 320.075 224.122 319.692 224.841 319.692C225.535 319.692 225.877 320.059 225.877 320.689V320.714C225.877 321.079 225.506 321.047 224.611 321.162C223.7 321.28 222.706 321.482 222.706 322.607C222.706 323.565 223.448 324.115 224.381 324.115ZM224.496 323.438C223.895 323.438 223.461 323.169 223.461 322.645C223.461 322.07 223.985 321.891 224.573 321.814C224.892 321.776 225.749 321.686 225.877 321.533V322.223C225.877 322.837 225.391 323.438 224.496 323.438ZM228.008 324H228.762V320.893C228.762 320.229 229.286 319.743 230.002 319.743C230.203 319.743 230.411 319.781 230.462 319.794V319.027C230.376 319.021 230.178 319.014 230.066 319.014C229.478 319.014 228.967 319.347 228.788 319.832H228.736V319.091H228.008V324ZM233.061 324.102C234.007 324.102 234.326 323.514 234.492 323.246H234.582V324H235.311V317.455H234.556V319.871H234.492C234.326 319.615 234.032 319.027 233.073 319.027C231.833 319.027 230.977 320.011 230.977 321.558C230.977 323.118 231.833 324.102 233.061 324.102ZM233.163 323.425C232.217 323.425 231.731 322.594 231.731 321.545C231.731 320.51 232.204 319.705 233.163 319.705C234.083 319.705 234.569 320.446 234.569 321.545C234.569 322.658 234.071 323.425 233.163 323.425ZM236.797 324H237.551V319.091H236.797V324ZM237.18 318.273C237.474 318.273 237.717 318.043 237.717 317.761C237.717 317.48 237.474 317.25 237.18 317.25C236.886 317.25 236.643 317.48 236.643 317.761C236.643 318.043 236.886 318.273 237.18 318.273ZM239.687 321.047C239.687 320.19 240.217 319.705 240.94 319.705C241.64 319.705 242.065 320.162 242.065 320.932V324H242.819V320.881C242.819 319.628 242.151 319.027 241.157 319.027C240.415 319.027 239.955 319.359 239.725 319.858H239.661V319.091H238.933V324H239.687V321.047ZM246.179 325.943C247.355 325.943 248.301 325.406 248.301 324.141V319.091H247.572V319.871H247.495C247.329 319.615 247.022 319.027 246.064 319.027C244.824 319.027 243.967 320.011 243.967 321.52C243.967 323.054 244.862 323.923 246.051 323.923C247.01 323.923 247.316 323.361 247.483 323.092H247.547V324.089C247.547 324.908 246.971 325.278 246.179 325.278C245.287 325.278 244.974 324.809 244.772 324.537L244.172 324.959C244.478 325.473 245.082 325.943 246.179 325.943ZM246.153 323.246C245.207 323.246 244.721 322.53 244.721 321.507C244.721 320.51 245.194 319.705 246.153 319.705C247.074 319.705 247.559 320.446 247.559 321.507C247.559 322.594 247.061 323.246 246.153 323.246ZM250.231 324.051C250.548 324.051 250.807 323.792 250.807 323.476C250.807 323.159 250.548 322.901 250.231 322.901C249.915 322.901 249.656 323.159 249.656 323.476C249.656 323.792 249.915 324.051 250.231 324.051ZM255.842 319.091H256.609C256.574 318.103 255.663 317.365 254.397 317.365C253.144 317.365 252.16 318.094 252.16 319.193C252.16 320.075 252.799 320.599 253.822 320.893L254.627 321.124C255.318 321.315 255.931 321.558 255.931 322.21C255.931 322.926 255.241 323.399 254.333 323.399C253.554 323.399 252.863 323.054 252.799 322.312H251.981C252.058 323.386 252.927 324.115 254.333 324.115C255.842 324.115 256.698 323.284 256.698 322.223C256.698 320.996 255.535 320.599 254.858 320.42L254.193 320.241C253.707 320.114 252.927 319.858 252.927 319.155C252.927 318.528 253.502 318.068 254.372 318.068C255.164 318.068 255.765 318.445 255.842 319.091ZM258.654 321.047C258.654 320.19 259.2 319.705 259.945 319.705C260.654 319.705 261.083 320.152 261.083 320.932V324H261.837V320.881C261.837 319.618 261.166 319.027 260.162 319.027C259.389 319.027 258.948 319.35 258.718 319.858H258.654V317.455H257.899V324H258.654V321.047ZM264.661 324.115C265.518 324.115 265.965 323.655 266.119 323.335H266.157V324H266.911V320.766C266.911 319.206 265.722 319.027 265.096 319.027C264.354 319.027 263.511 319.283 263.127 320.178L263.843 320.433C264.009 320.075 264.402 319.692 265.122 319.692C265.815 319.692 266.157 320.059 266.157 320.689V320.714C266.157 321.079 265.786 321.047 264.891 321.162C263.981 321.28 262.987 321.482 262.987 322.607C262.987 323.565 263.728 324.115 264.661 324.115ZM264.776 323.438C264.176 323.438 263.741 323.169 263.741 322.645C263.741 322.07 264.265 321.891 264.853 321.814C265.173 321.776 266.029 321.686 266.157 321.533V322.223C266.157 322.837 265.671 323.438 264.776 323.438ZM268.288 324H269.042V320.893C269.042 320.229 269.566 319.743 270.282 319.743C270.484 319.743 270.691 319.781 270.743 319.794V319.027C270.656 319.021 270.458 319.014 270.346 319.014C269.758 319.014 269.247 319.347 269.068 319.832H269.017V319.091H268.288V324ZM273.341 324.102C274.287 324.102 274.607 323.514 274.773 323.246H274.862V324H275.591V317.455H274.837V319.871H274.773C274.607 319.615 274.312 319.027 273.354 319.027C272.114 319.027 271.257 320.011 271.257 321.558C271.257 323.118 272.114 324.102 273.341 324.102ZM273.443 323.425C272.497 323.425 272.011 322.594 272.011 321.545C272.011 320.51 272.484 319.705 273.443 319.705C274.364 319.705 274.849 320.446 274.849 321.545C274.849 322.658 274.351 323.425 273.443 323.425Z" fill="#212429"/>
<path d="M393.889 324.089C395.158 324.089 396.101 323.294 396.101 322.223C396.101 321.392 395.609 320.788 394.784 320.651V320.599C395.446 320.398 395.858 319.855 395.858 319.116C395.858 318.19 395.126 317.365 393.915 317.365C392.783 317.365 391.844 318.062 391.805 319.091H392.572C392.601 318.439 393.221 318.055 393.902 318.055C394.624 318.055 395.091 318.493 395.091 319.155C395.091 319.845 394.551 320.293 393.774 320.293H393.25V320.996H393.774C394.768 320.996 395.321 321.501 395.321 322.223C395.321 322.917 394.717 323.386 393.876 323.386C393.119 323.386 392.518 322.996 392.47 322.364H391.665C391.713 323.393 392.62 324.089 393.889 324.089ZM399.543 324.089C400.988 324.089 401.819 322.865 401.819 320.727C401.819 318.605 400.975 317.365 399.543 317.365C398.111 317.365 397.267 318.605 397.267 320.727C397.267 322.865 398.098 324.089 399.543 324.089ZM399.543 323.386C398.591 323.386 398.034 322.431 398.034 320.727C398.034 319.027 398.597 318.055 399.543 318.055C400.489 318.055 401.051 319.027 401.051 320.727C401.051 322.431 400.495 323.386 399.543 323.386ZM405.168 324.089C406.613 324.089 407.444 322.865 407.444 320.727C407.444 318.605 406.6 317.365 405.168 317.365C403.736 317.365 402.892 318.605 402.892 320.727C402.892 322.865 403.723 324.089 405.168 324.089ZM405.168 323.386C404.216 323.386 403.659 322.431 403.659 320.727C403.659 319.027 404.222 318.055 405.168 318.055C406.114 318.055 406.676 319.027 406.676 320.727C406.676 322.431 406.12 323.386 405.168 323.386Z" fill="#212429"/>
<path d="M448.812 324.089C450.257 324.089 451.088 322.865 451.088 320.727C451.088 318.605 450.244 317.365 448.812 317.365C447.381 317.365 446.537 318.605 446.537 320.727C446.537 322.865 447.368 324.089 448.812 324.089ZM448.812 323.386C447.86 323.386 447.304 322.431 447.304 320.727C447.304 319.027 447.866 318.055 448.812 318.055C449.759 318.055 450.321 319.027 450.321 320.727C450.321 322.431 449.765 323.386 448.812 323.386Z" fill="#212429"/>
</g>
<g opacity="0.85" filter="url(#filter6_dd)">
<rect x="133" y="351" width="376" height="44" rx="8" fill="white"/>
<path d="M326.678 376H330.807V375.297H327.764V375.246L329.234 373.673C330.359 372.468 330.692 371.906 330.692 371.18C330.692 370.17 329.874 369.365 328.723 369.365C327.576 369.365 326.703 370.145 326.703 371.295H327.457C327.457 370.551 327.94 370.055 328.697 370.055C329.407 370.055 329.95 370.49 329.95 371.18C329.95 371.784 329.596 372.232 328.838 373.06L326.678 375.425V376ZM332.689 376.051C333.006 376.051 333.265 375.792 333.265 375.476C333.265 375.159 333.006 374.901 332.689 374.901C332.373 374.901 332.114 375.159 332.114 375.476C332.114 375.792 332.373 376.051 332.689 376.051ZM336.571 376.089C337.84 376.089 338.782 375.294 338.782 374.223C338.782 373.392 338.29 372.788 337.466 372.651V372.599C338.127 372.398 338.54 371.855 338.54 371.116C338.54 370.19 337.808 369.365 336.596 369.365C335.465 369.365 334.525 370.062 334.487 371.091H335.254C335.283 370.439 335.903 370.055 336.584 370.055C337.306 370.055 337.773 370.493 337.773 371.155C337.773 371.845 337.232 372.293 336.456 372.293H335.932V372.996H336.456C337.45 372.996 338.003 373.501 338.003 374.223C338.003 374.917 337.399 375.386 336.558 375.386C335.801 375.386 335.2 374.996 335.152 374.364H334.346C334.394 375.393 335.302 376.089 336.571 376.089ZM342.634 376H343.388V372.932C343.388 372.213 343.912 371.705 344.5 371.705C345.072 371.705 345.472 372.078 345.472 372.638V376H346.239V372.804C346.239 372.171 346.635 371.705 347.325 371.705C347.862 371.705 348.323 371.989 348.323 372.714V376H349.077V372.714C349.077 371.561 348.457 371.027 347.581 371.027C346.878 371.027 346.363 371.35 346.111 371.858H346.06C345.817 371.334 345.389 371.027 344.743 371.027C344.104 371.027 343.631 371.334 343.426 371.858H343.362V371.091H342.634V376ZM353.933 372.19C353.697 371.494 353.166 371.027 352.195 371.027C351.159 371.027 350.392 371.615 350.392 372.446C350.392 373.124 350.795 373.577 351.696 373.788L352.514 373.98C353.01 374.095 353.243 374.332 353.243 374.67C353.243 375.092 352.795 375.438 352.092 375.438C351.475 375.438 351.089 375.172 350.955 374.645L350.239 374.824C350.414 375.658 351.102 376.102 352.105 376.102C353.246 376.102 354.023 375.479 354.023 374.632C354.023 373.948 353.594 373.517 352.719 373.303L351.99 373.124C351.408 372.98 351.146 372.785 351.146 372.408C351.146 371.986 351.594 371.679 352.195 371.679C352.853 371.679 353.125 372.043 353.256 372.382L353.933 372.19Z" fill="#212429"/>
<path d="M161.135 376.115C161.991 376.115 162.439 375.655 162.592 375.335H162.631V376H163.385V372.766C163.385 371.206 162.196 371.027 161.57 371.027C160.828 371.027 159.984 371.283 159.601 372.178L160.317 372.433C160.483 372.075 160.876 371.692 161.595 371.692C162.289 371.692 162.631 372.059 162.631 372.689V372.714C162.631 373.079 162.26 373.047 161.365 373.162C160.454 373.28 159.46 373.482 159.46 374.607C159.46 375.565 160.202 376.115 161.135 376.115ZM161.25 375.438C160.649 375.438 160.214 375.169 160.214 374.645C160.214 374.07 160.739 373.891 161.327 373.814C161.646 373.776 162.503 373.686 162.631 373.533V374.223C162.631 374.837 162.145 375.438 161.25 375.438ZM164.762 376H165.516V374.162L166.043 373.673L167.881 376H168.84L166.612 373.188L168.686 371.091H167.753L165.605 373.277H165.516V369.455H164.762V376ZM169.657 376H170.411V374.162L170.939 373.673L172.776 376H173.735L171.508 373.188L173.582 371.091H172.649L170.501 373.277H170.411V369.455H169.657V376ZM175.997 376.115C176.854 376.115 177.301 375.655 177.455 375.335H177.493V376H178.247V372.766C178.247 371.206 177.058 371.027 176.432 371.027C175.69 371.027 174.847 371.283 174.463 372.178L175.179 372.433C175.345 372.075 175.738 371.692 176.457 371.692C177.151 371.692 177.493 372.059 177.493 372.689V372.714C177.493 373.079 177.122 373.047 176.227 373.162C175.316 373.28 174.323 373.482 174.323 374.607C174.323 375.565 175.064 376.115 175.997 376.115ZM176.112 375.438C175.511 375.438 175.077 375.169 175.077 374.645C175.077 374.07 175.601 373.891 176.189 373.814C176.509 373.776 177.365 373.686 177.493 373.533V374.223C177.493 374.837 177.007 375.438 176.112 375.438ZM180.174 376.051C180.49 376.051 180.749 375.792 180.749 375.476C180.749 375.159 180.49 374.901 180.174 374.901C179.857 374.901 179.598 375.159 179.598 375.476C179.598 375.792 179.857 376.051 180.174 376.051ZM184.097 376.102C185.183 376.102 185.899 375.438 186.027 374.568H185.273C185.132 375.105 184.685 375.425 184.097 375.425C183.202 375.425 182.627 374.683 182.627 373.545C182.627 372.433 183.215 371.705 184.097 371.705C184.762 371.705 185.158 372.114 185.273 372.561H186.027C185.899 371.641 185.119 371.027 184.084 371.027C182.754 371.027 181.872 372.075 181.872 373.571C181.872 375.041 182.716 376.102 184.097 376.102ZM187.884 369.455H187.13V376H187.884V369.455ZM192.359 373.993C192.359 374.913 191.656 375.335 191.094 375.335C190.467 375.335 190.02 374.875 190.02 374.159V371.091H189.266V374.21C189.266 375.463 189.93 376.064 190.851 376.064C191.592 376.064 192.078 375.668 192.308 375.169H192.359V376H193.114V371.091H192.359V373.993ZM197.972 372.19C197.736 371.494 197.205 371.027 196.234 371.027C195.198 371.027 194.431 371.615 194.431 372.446C194.431 373.124 194.834 373.577 195.735 373.788L196.553 373.98C197.049 374.095 197.282 374.332 197.282 374.67C197.282 375.092 196.835 375.438 196.131 375.438C195.515 375.438 195.128 375.172 194.994 374.645L194.278 374.824C194.453 375.658 195.141 376.102 196.144 376.102C197.285 376.102 198.062 375.479 198.062 374.632C198.062 373.948 197.634 373.517 196.758 373.303L196.029 373.124C195.447 372.98 195.185 372.785 195.185 372.408C195.185 371.986 195.633 371.679 196.234 371.679C196.892 371.679 197.164 372.043 197.295 372.382L197.972 372.19ZM201.332 371.091H200.284V369.915H199.53V371.091H198.788V371.73H199.53V374.798C199.53 375.655 200.22 376.064 200.859 376.064C201.14 376.064 201.319 376.013 201.422 375.974L201.268 375.297C201.204 375.31 201.102 375.335 200.936 375.335C200.603 375.335 200.284 375.233 200.284 374.594V371.73H201.332V371.091ZM204.472 376.102C205.469 376.102 206.198 375.604 206.428 374.862L205.699 374.658C205.508 375.169 205.063 375.425 204.472 375.425C203.587 375.425 202.976 374.853 202.941 373.801H206.505V373.482C206.505 371.653 205.418 371.027 204.396 371.027C203.066 371.027 202.184 372.075 202.184 373.584C202.184 375.092 203.053 376.102 204.472 376.102ZM202.941 373.149C202.992 372.385 203.533 371.705 204.396 371.705C205.214 371.705 205.738 372.318 205.738 373.149H202.941ZM207.652 376H208.407V372.893C208.407 372.229 208.931 371.743 209.647 371.743C209.848 371.743 210.056 371.781 210.107 371.794V371.027C210.021 371.021 209.822 371.014 209.71 371.014C209.122 371.014 208.611 371.347 208.432 371.832H208.381V371.091H207.652V376ZM210.988 376.051C211.305 376.051 211.563 375.792 211.563 375.476C211.563 375.159 211.305 374.901 210.988 374.901C210.672 374.901 210.413 375.159 210.413 375.476C210.413 375.792 210.672 376.051 210.988 376.051ZM216.394 372.19C216.158 371.494 215.627 371.027 214.656 371.027C213.62 371.027 212.853 371.615 212.853 372.446C212.853 373.124 213.256 373.577 214.157 373.788L214.975 373.98C215.471 374.095 215.704 374.332 215.704 374.67C215.704 375.092 215.256 375.438 214.553 375.438C213.936 375.438 213.55 375.172 213.415 374.645L212.7 374.824C212.875 375.658 213.562 376.102 214.566 376.102C215.707 376.102 216.484 375.479 216.484 374.632C216.484 373.948 216.055 373.517 215.18 373.303L214.451 373.124C213.869 372.98 213.607 372.785 213.607 372.408C213.607 371.986 214.055 371.679 214.656 371.679C215.314 371.679 215.586 372.043 215.717 372.382L216.394 372.19ZM218.373 373.047C218.373 372.19 218.92 371.705 219.665 371.705C220.374 371.705 220.802 372.152 220.802 372.932V376H221.557V372.881C221.557 371.618 220.885 371.027 219.882 371.027C219.108 371.027 218.667 371.35 218.437 371.858H218.373V369.455H217.619V376H218.373V373.047ZM224.381 376.115C225.238 376.115 225.685 375.655 225.838 375.335H225.877V376H226.631V372.766C226.631 371.206 225.442 371.027 224.816 371.027C224.074 371.027 223.23 371.283 222.847 372.178L223.563 372.433C223.729 372.075 224.122 371.692 224.841 371.692C225.535 371.692 225.877 372.059 225.877 372.689V372.714C225.877 373.079 225.506 373.047 224.611 373.162C223.7 373.28 222.706 373.482 222.706 374.607C222.706 375.565 223.448 376.115 224.381 376.115ZM224.496 375.438C223.895 375.438 223.461 375.169 223.461 374.645C223.461 374.07 223.985 373.891 224.573 373.814C224.892 373.776 225.749 373.686 225.877 373.533V374.223C225.877 374.837 225.391 375.438 224.496 375.438ZM228.008 376H228.762V372.893C228.762 372.229 229.286 371.743 230.002 371.743C230.203 371.743 230.411 371.781 230.462 371.794V371.027C230.376 371.021 230.178 371.014 230.066 371.014C229.478 371.014 228.967 371.347 228.788 371.832H228.736V371.091H228.008V376ZM233.061 376.102C234.007 376.102 234.326 375.514 234.492 375.246H234.582V376H235.311V369.455H234.556V371.871H234.492C234.326 371.615 234.032 371.027 233.073 371.027C231.833 371.027 230.977 372.011 230.977 373.558C230.977 375.118 231.833 376.102 233.061 376.102ZM233.163 375.425C232.217 375.425 231.731 374.594 231.731 373.545C231.731 372.51 232.204 371.705 233.163 371.705C234.083 371.705 234.569 372.446 234.569 373.545C234.569 374.658 234.071 375.425 233.163 375.425ZM236.797 376H237.551V371.091H236.797V376ZM237.18 370.273C237.474 370.273 237.717 370.043 237.717 369.761C237.717 369.48 237.474 369.25 237.18 369.25C236.886 369.25 236.643 369.48 236.643 369.761C236.643 370.043 236.886 370.273 237.18 370.273ZM239.687 373.047C239.687 372.19 240.217 371.705 240.94 371.705C241.64 371.705 242.065 372.162 242.065 372.932V376H242.819V372.881C242.819 371.628 242.151 371.027 241.157 371.027C240.415 371.027 239.955 371.359 239.725 371.858H239.661V371.091H238.933V376H239.687V373.047ZM246.179 377.943C247.355 377.943 248.301 377.406 248.301 376.141V371.091H247.572V371.871H247.495C247.329 371.615 247.022 371.027 246.064 371.027C244.824 371.027 243.967 372.011 243.967 373.52C243.967 375.054 244.862 375.923 246.051 375.923C247.01 375.923 247.316 375.361 247.483 375.092H247.547V376.089C247.547 376.908 246.971 377.278 246.179 377.278C245.287 377.278 244.974 376.809 244.772 376.537L244.172 376.959C244.478 377.473 245.082 377.943 246.179 377.943ZM246.153 375.246C245.207 375.246 244.721 374.53 244.721 373.507C244.721 372.51 245.194 371.705 246.153 371.705C247.074 371.705 247.559 372.446 247.559 373.507C247.559 374.594 247.061 375.246 246.153 375.246ZM250.231 376.051C250.548 376.051 250.807 375.792 250.807 375.476C250.807 375.159 250.548 374.901 250.231 374.901C249.915 374.901 249.656 375.159 249.656 375.476C249.656 375.792 249.915 376.051 250.231 376.051ZM255.842 371.091H256.609C256.574 370.103 255.663 369.365 254.397 369.365C253.144 369.365 252.16 370.094 252.16 371.193C252.16 372.075 252.799 372.599 253.822 372.893L254.627 373.124C255.318 373.315 255.931 373.558 255.931 374.21C255.931 374.926 255.241 375.399 254.333 375.399C253.554 375.399 252.863 375.054 252.799 374.312H251.981C252.058 375.386 252.927 376.115 254.333 376.115C255.842 376.115 256.698 375.284 256.698 374.223C256.698 372.996 255.535 372.599 254.858 372.42L254.193 372.241C253.707 372.114 252.927 371.858 252.927 371.155C252.927 370.528 253.502 370.068 254.372 370.068C255.164 370.068 255.765 370.445 255.842 371.091ZM258.654 373.047C258.654 372.19 259.2 371.705 259.945 371.705C260.654 371.705 261.083 372.152 261.083 372.932V376H261.837V372.881C261.837 371.618 261.166 371.027 260.162 371.027C259.389 371.027 258.948 371.35 258.718 371.858H258.654V369.455H257.899V376H258.654V373.047ZM264.661 376.115C265.518 376.115 265.965 375.655 266.119 375.335H266.157V376H266.911V372.766C266.911 371.206 265.722 371.027 265.096 371.027C264.354 371.027 263.511 371.283 263.127 372.178L263.843 372.433C264.009 372.075 264.402 371.692 265.122 371.692C265.815 371.692 266.157 372.059 266.157 372.689V372.714C266.157 373.079 265.786 373.047 264.891 373.162C263.981 373.28 262.987 373.482 262.987 374.607C262.987 375.565 263.728 376.115 264.661 376.115ZM264.776 375.438C264.176 375.438 263.741 375.169 263.741 374.645C263.741 374.07 264.265 373.891 264.853 373.814C265.173 373.776 266.029 373.686 266.157 373.533V374.223C266.157 374.837 265.671 375.438 264.776 375.438ZM268.288 376H269.042V372.893C269.042 372.229 269.566 371.743 270.282 371.743C270.484 371.743 270.691 371.781 270.743 371.794V371.027C270.656 371.021 270.458 371.014 270.346 371.014C269.758 371.014 269.247 371.347 269.068 371.832H269.017V371.091H268.288V376ZM273.341 376.102C274.287 376.102 274.607 375.514 274.773 375.246H274.862V376H275.591V369.455H274.837V371.871H274.773C274.607 371.615 274.312 371.027 273.354 371.027C272.114 371.027 271.257 372.011 271.257 373.558C271.257 375.118 272.114 376.102 273.341 376.102ZM273.443 375.425C272.497 375.425 272.011 374.594 272.011 373.545C272.011 372.51 272.484 371.705 273.443 371.705C274.364 371.705 274.849 372.446 274.849 373.545C274.849 374.658 274.351 375.425 273.443 375.425Z" fill="#212429"/>
<path d="M393.889 376.089C395.158 376.089 396.101 375.294 396.101 374.223C396.101 373.392 395.609 372.788 394.784 372.651V372.599C395.446 372.398 395.858 371.855 395.858 371.116C395.858 370.19 395.126 369.365 393.915 369.365C392.783 369.365 391.844 370.062 391.805 371.091H392.572C392.601 370.439 393.221 370.055 393.902 370.055C394.624 370.055 395.091 370.493 395.091 371.155C395.091 371.845 394.551 372.293 393.774 372.293H393.25V372.996H393.774C394.768 372.996 395.321 373.501 395.321 374.223C395.321 374.917 394.717 375.386 393.876 375.386C393.119 375.386 392.518 374.996 392.47 374.364H391.665C391.713 375.393 392.62 376.089 393.889 376.089ZM399.543 376.089C400.988 376.089 401.819 374.865 401.819 372.727C401.819 370.605 400.975 369.365 399.543 369.365C398.111 369.365 397.267 370.605 397.267 372.727C397.267 374.865 398.098 376.089 399.543 376.089ZM399.543 375.386C398.591 375.386 398.034 374.431 398.034 372.727C398.034 371.027 398.597 370.055 399.543 370.055C400.489 370.055 401.051 371.027 401.051 372.727C401.051 374.431 400.495 375.386 399.543 375.386ZM405.168 376.089C406.613 376.089 407.444 374.865 407.444 372.727C407.444 370.605 406.6 369.365 405.168 369.365C403.736 369.365 402.892 370.605 402.892 372.727C402.892 374.865 403.723 376.089 405.168 376.089ZM405.168 375.386C404.216 375.386 403.659 374.431 403.659 372.727C403.659 371.027 404.222 370.055 405.168 370.055C406.114 370.055 406.676 371.027 406.676 372.727C406.676 374.431 406.12 375.386 405.168 375.386Z" fill="#212429"/>
<path d="M448.812 376.089C450.257 376.089 451.088 374.865 451.088 372.727C451.088 370.605 450.244 369.365 448.812 369.365C447.381 369.365 446.537 370.605 446.537 372.727C446.537 374.865 447.368 376.089 448.812 376.089ZM448.812 375.386C447.86 375.386 447.304 374.431 447.304 372.727C447.304 371.027 447.866 370.055 448.812 370.055C449.759 370.055 450.321 371.027 450.321 372.727C450.321 374.431 449.765 375.386 448.812 375.386Z" fill="#212429"/>
</g>
<g filter="url(#filter7_dd)">
<rect x="133" y="37" width="270" height="189" rx="8" fill="white"/>
<path d="M152.039 52.5455V62H153.396V55.1538H153.484L156.272 61.9862H157.398L160.187 55.1584H160.275V62H161.632V52.5455H159.901L156.891 59.8949H156.78L153.77 52.5455H152.039ZM165.658 62.157C166.831 62.157 167.491 61.5614 167.754 61.0305H167.81V62H169.158V57.2912C169.158 55.2276 167.533 54.8168 166.406 54.8168C165.123 54.8168 163.941 55.3338 163.479 56.6264L164.777 56.9219C164.98 56.4187 165.497 55.9339 166.425 55.9339C167.316 55.9339 167.773 56.4002 167.773 57.2035V57.2358C167.773 57.739 167.256 57.7298 165.982 57.8775C164.638 58.0344 163.263 58.3853 163.263 59.9964C163.263 61.3906 164.31 62.157 165.658 62.157ZM165.959 61.049C165.178 61.049 164.615 60.6982 164.615 60.0149C164.615 59.2763 165.271 59.0131 166.069 58.907C166.517 58.8469 167.579 58.7269 167.777 58.5284V59.4425C167.777 60.2827 167.108 61.049 165.959 61.049ZM170.996 62H172.377V54.9091H170.996V62ZM171.693 53.815C172.169 53.815 172.566 53.4457 172.566 52.9933C172.566 52.5408 172.169 52.1669 171.693 52.1669C171.213 52.1669 170.821 52.5408 170.821 52.9933C170.821 53.4457 171.213 53.815 171.693 53.815ZM175.614 52.5455H174.234V62H175.614V52.5455ZM177.582 62H178.93V60.8967H179.045C179.294 61.3491 179.802 62.1385 181.095 62.1385C182.812 62.1385 184.059 60.7628 184.059 58.4684C184.059 56.1694 182.794 54.8168 181.081 54.8168C179.765 54.8168 179.29 55.62 179.045 56.0586H178.962V52.5455H177.582V62ZM178.934 58.4545C178.934 56.9727 179.581 55.9893 180.786 55.9893C182.037 55.9893 182.664 57.0465 182.664 58.4545C182.664 59.8764 182.018 60.9613 180.786 60.9613C179.599 60.9613 178.934 59.9457 178.934 58.4545ZM188.595 62.1431C190.594 62.1431 191.901 60.6797 191.901 58.4869C191.901 56.2802 190.594 54.8168 188.595 54.8168C186.597 54.8168 185.29 56.2802 185.29 58.4869C185.29 60.6797 186.597 62.1431 188.595 62.1431ZM188.6 60.9844C187.294 60.9844 186.684 59.8441 186.684 58.4822C186.684 57.125 187.294 55.9709 188.6 55.9709C189.897 55.9709 190.507 57.125 190.507 58.4822C190.507 59.8441 189.897 60.9844 188.6 60.9844ZM194.239 54.9091H192.725L194.904 58.4545L192.697 62H194.211L195.804 59.3501L197.401 62H198.911L196.681 58.4545L198.892 54.9091H197.383L195.804 57.6697L194.239 54.9091ZM209.018 55.0291H210.393C210.352 53.5149 209.013 52.4162 207.093 52.4162C205.195 52.4162 203.741 53.5011 203.741 55.1307C203.741 56.4464 204.683 57.2173 206.202 57.6282L207.319 57.9329C208.33 58.2006 209.11 58.533 209.11 59.3732C209.11 60.2965 208.228 60.9059 207.014 60.9059C205.915 60.9059 205.001 60.4165 204.918 59.3871H203.487C203.579 61.0998 204.904 62.157 207.023 62.157C209.244 62.157 210.523 60.989 210.523 59.3871C210.523 57.6836 209.004 57.0234 207.803 56.728L206.88 56.4879C206.142 56.2987 205.158 55.9524 205.163 55.0476C205.163 54.2443 205.897 53.6488 207.06 53.6488C208.145 53.6488 208.916 54.1566 209.018 55.0291ZM212.116 62H213.497V54.9091H212.116V62ZM212.813 53.815C213.289 53.815 213.686 53.4457 213.686 52.9933C213.686 52.5408 213.289 52.1669 212.813 52.1669C212.333 52.1669 211.941 52.5408 211.941 52.9933C211.941 53.4457 212.333 53.815 212.813 53.815ZM215.206 62H220.898V60.7997H217.076V60.7351L220.769 55.9155V54.9091H215.331V56.1094H219.047V56.174L215.206 61.0536V62ZM225.38 62.1431C226.926 62.1431 228.02 61.3814 228.334 60.2273L227.028 59.9918C226.778 60.6612 226.178 61.0028 225.393 61.0028C224.212 61.0028 223.418 60.2365 223.381 58.87H228.422V58.3807C228.422 55.8185 226.889 54.8168 225.283 54.8168C223.307 54.8168 222.005 56.3217 222.005 58.5007C222.005 60.7028 223.288 62.1431 225.38 62.1431ZM223.385 57.8359C223.441 56.8295 224.17 55.957 225.292 55.957C226.363 55.957 227.065 56.7511 227.069 57.8359H223.385Z" fill="#555770"/>
<rect x="262" y="46" width="26" height="26" rx="8" fill="#E3FFF1"/>
<path d="M278.378 57.908V60.5295C277.977 61.2704 277.189 62.1476 276.415 62.4718V57.908C276.415 57.5272 276.724 57.2186 277.104 57.2186H277.688C278.069 57.2186 278.378 57.5272 278.378 57.908Z" fill="#3BC882"/>
<path d="M273.714 62.6878C274.038 62.7598 274.362 62.7958 274.704 62.7958C275.046 62.7958 275.37 62.7598 275.695 62.6878V60.5345C275.695 60.1537 275.386 59.8451 275.005 59.8451H274.403C274.022 59.8451 273.714 60.1537 273.714 60.5345V62.6878Z" fill="#3BC882"/>
<path d="M272.996 59.4541V62.4718C272.221 62.1477 271.537 61.6254 271.033 60.9591V59.4541C271.033 59.0734 271.342 58.7647 271.722 58.7647H272.306C272.687 58.7647 272.996 59.0734 272.996 59.4541Z" fill="#3BC882"/>
<path fill-rule="evenodd" clip-rule="evenodd" d="M269.984 53.9835C267.48 56.4876 267.48 60.5475 269.984 63.0516C272.368 65.4355 276.162 65.5499 278.681 63.3949L281.18 65.8933L281.182 65.8905L281.185 65.8935C281.845 66.5534 282.835 65.5635 282.175 64.9035L279.644 62.3717C281.538 59.8595 281.341 56.2719 279.052 53.9835C276.548 51.4794 272.488 51.4794 269.984 53.9835ZM270.976 54.9733C272.933 53.0159 276.107 53.0159 278.064 54.9733C280.021 56.9306 280.021 60.1041 278.064 62.0614C276.107 64.0187 272.933 64.0187 270.976 62.0614C269.019 60.1041 269.019 56.9306 270.976 54.9733Z" fill="#3BC882"/>
<path d="M301.36 55.0554H303.789V56H304.669V55.0554H305.32V54.2972H304.669V50.9091H303.521L301.36 54.3221V55.0554ZM303.799 54.2972H302.305V54.2575L303.759 51.9531H303.799V54.2972ZM306.115 56H309.605V55.2294H307.387V55.1946L308.265 54.3022C309.254 53.3526 309.528 52.8903 309.528 52.3161C309.528 51.4634 308.834 50.8395 307.81 50.8395C306.801 50.8395 306.085 51.4659 306.085 52.4329H306.962C306.962 51.9134 307.29 51.5877 307.797 51.5877C308.282 51.5877 308.643 51.8835 308.643 52.3633C308.643 52.7884 308.384 53.0916 307.882 53.6012L306.115 55.3338V56Z" fill="#28293D"/>
<path d="M351.334 56.0969C352.562 56.0994 353.295 55.13 353.295 53.4595C353.295 51.799 352.557 50.8395 351.334 50.8395C350.111 50.8395 349.375 51.7965 349.373 53.4595C349.373 55.1275 350.106 56.0969 351.334 56.0969ZM351.334 55.3189C350.7 55.3189 350.303 54.6825 350.305 53.4595C350.308 52.2464 350.703 51.6076 351.334 51.6076C351.968 51.6076 352.363 52.2464 352.366 53.4595C352.366 54.6825 351.971 55.3189 351.334 55.3189ZM354.487 56.0547C354.781 56.0547 355.032 55.8111 355.034 55.5078C355.032 55.2095 354.781 54.9659 354.487 54.9659C354.184 54.9659 353.938 55.2095 353.941 55.5078C353.938 55.8111 354.184 56.0547 354.487 56.0547ZM357.61 56.0696C358.698 56.0696 359.491 55.4457 359.489 54.5856C359.491 53.9492 359.094 53.4918 358.38 53.3899V53.3501C358.932 53.2308 359.302 52.8207 359.3 52.2489C359.302 51.4734 358.641 50.8395 357.624 50.8395C356.635 50.8395 355.869 51.4286 355.85 52.2812H356.737C356.752 51.8537 357.15 51.5877 357.619 51.5877C358.094 51.5877 358.41 51.8761 358.407 52.3036C358.41 52.7486 358.042 53.0444 357.515 53.0444H357.065V53.7553H357.515C358.159 53.7553 358.542 54.0785 358.539 54.5384C358.542 54.9883 358.151 55.2965 357.607 55.2965C357.095 55.2965 356.7 55.0305 356.677 54.6154H355.743C355.768 55.4755 356.536 56.0696 357.61 56.0696ZM362.112 56.0696C363.188 56.0696 363.939 55.3388 363.939 54.3271C363.939 53.3477 363.258 52.6417 362.333 52.6417C361.921 52.6417 361.555 52.8058 361.366 53.0295H361.336L361.483 51.6797H363.673V50.9091H360.72L360.454 53.5341L361.287 53.6708C361.458 53.4819 361.781 53.3551 362.087 53.3576C362.646 53.3601 363.049 53.7727 363.047 54.3494C363.049 54.9187 362.656 55.3239 362.112 55.3239C361.652 55.3239 361.282 55.033 361.249 54.6154H360.354C360.379 55.4606 361.118 56.0696 362.112 56.0696ZM366.653 56.0969C367.881 56.0994 368.615 55.13 368.615 53.4595C368.615 51.799 367.877 50.8395 366.653 50.8395C365.43 50.8395 364.695 51.7965 364.692 53.4595C364.692 55.1275 365.426 56.0969 366.653 56.0969ZM366.653 55.3189C366.02 55.3189 365.622 54.6825 365.624 53.4595C365.627 52.2464 366.022 51.6076 366.653 51.6076C367.287 51.6076 367.683 52.2464 367.685 53.4595C367.685 54.6825 367.29 55.3189 366.653 55.3189ZM373.265 50.6705H372.477L370.836 56.7656H371.624L373.265 50.6705ZM376.857 53.1911C376.733 52.5447 376.216 52.1321 375.321 52.1321C374.401 52.1321 373.775 52.5845 373.777 53.2905C373.775 53.8473 374.118 54.2152 374.851 54.3668L375.502 54.5036C375.853 54.5806 376.017 54.7223 376.017 54.9386C376.017 55.1996 375.733 55.396 375.306 55.396C374.893 55.396 374.625 55.217 374.548 54.8739L373.67 54.9585C373.782 55.6594 374.371 56.0746 375.308 56.0746C376.263 56.0746 376.937 55.5799 376.939 54.8565C376.937 54.3121 376.586 53.979 375.865 53.8224L375.214 53.6832C374.826 53.5962 374.672 53.462 374.675 53.2408C374.672 52.9822 374.958 52.8033 375.333 52.8033C375.748 52.8033 375.967 53.0295 376.037 53.2805L376.857 53.1911ZM379.371 56.0746C380.261 56.0746 380.873 55.6396 381.032 54.9759L380.192 54.8814C380.07 55.2045 379.772 55.3736 379.384 55.3736C378.802 55.3736 378.417 54.9908 378.409 54.337H381.069V54.0611C381.069 52.7212 380.264 52.1321 379.324 52.1321C378.23 52.1321 377.517 52.935 377.517 54.1133C377.517 55.3114 378.221 56.0746 379.371 56.0746ZM378.412 53.7305C378.439 53.2433 378.8 52.8331 379.337 52.8331C379.854 52.8331 380.202 53.2109 380.207 53.7305H378.412ZM383.496 56.0746C384.456 56.0746 385.067 55.5053 385.132 54.695H384.272C384.195 55.1051 383.899 55.3413 383.503 55.3413C382.942 55.3413 382.579 54.8714 382.579 54.0909C382.579 53.3203 382.949 52.858 383.503 52.858C383.936 52.858 384.202 53.1364 384.272 53.5043H385.132C385.07 52.6765 384.423 52.1321 383.491 52.1321C382.372 52.1321 381.666 52.94 381.666 54.1058C381.666 55.2617 382.355 56.0746 383.496 56.0746Z" fill="#28293D"/>
<path d="M301.616 68H302.233V66.0114H303.347C303.391 66.0114 303.434 66.0114 303.476 66.0089L304.55 68H305.266L304.115 65.897C304.763 65.6758 305.067 65.1463 305.067 64.4702C305.067 63.5703 304.53 62.9091 303.337 62.9091H301.616V68ZM302.233 65.4545V63.456H303.317C304.142 63.456 304.46 63.8587 304.46 64.4702C304.46 65.0817 304.142 65.4545 303.327 65.4545H302.233ZM307.574 68.0795C308.35 68.0795 308.917 67.6918 309.096 67.1151L308.529 66.956C308.38 67.3537 308.034 67.5526 307.574 67.5526C306.886 67.5526 306.411 67.1076 306.384 66.2898H309.155V66.0412C309.155 64.6193 308.31 64.1321 307.515 64.1321C306.481 64.1321 305.794 64.9474 305.794 66.1207C305.794 67.294 306.471 68.0795 307.574 68.0795ZM306.384 65.7827C306.423 65.1886 306.843 64.6591 307.515 64.6591C308.151 64.6591 308.559 65.1364 308.559 65.7827H306.384ZM313.239 69.4318V64.1818H312.673V64.7884H312.603C312.474 64.5895 312.245 64.1321 311.499 64.1321C310.535 64.1321 309.869 64.8977 309.869 66.1009C309.869 67.3139 310.535 68.0795 311.489 68.0795C312.225 68.0795 312.474 67.6222 312.603 67.4134H312.653V69.4318H313.239ZM312.663 66.0909C312.663 66.956 312.275 67.5526 311.569 67.5526C310.833 67.5526 310.455 66.9062 310.455 66.0909C310.455 65.2855 310.823 64.6591 311.569 64.6591C312.285 64.6591 312.663 65.2358 312.663 66.0909ZM316.72 66.4389C316.72 67.1548 316.173 67.483 315.735 67.483C315.248 67.483 314.9 67.125 314.9 66.5682V64.1818H314.313V66.608C314.313 67.5824 314.83 68.0497 315.546 68.0497C316.123 68.0497 316.501 67.7415 316.68 67.3537H316.72V68H317.306V64.1818H316.72V66.4389ZM319.982 68.0795C320.757 68.0795 321.324 67.6918 321.503 67.1151L320.936 66.956C320.787 67.3537 320.441 67.5526 319.982 67.5526C319.293 67.5526 318.818 67.1076 318.791 66.2898H321.562V66.0412C321.562 64.6193 320.717 64.1321 319.922 64.1321C318.888 64.1321 318.202 64.9474 318.202 66.1207C318.202 67.294 318.878 68.0795 319.982 68.0795ZM318.791 65.7827C318.831 65.1886 319.251 64.6591 319.922 64.6591C320.558 64.6591 320.966 65.1364 320.966 65.7827H318.791ZM325.159 65.0369C324.975 64.495 324.563 64.1321 323.807 64.1321C323.002 64.1321 322.405 64.5895 322.405 65.2358C322.405 65.7628 322.718 66.1158 323.419 66.2798L324.056 66.429C324.441 66.5185 324.623 66.7024 324.623 66.9659C324.623 67.294 324.275 67.5625 323.728 67.5625C323.248 67.5625 322.947 67.3562 322.843 66.946L322.286 67.0852C322.423 67.734 322.957 68.0795 323.738 68.0795C324.625 68.0795 325.229 67.5948 325.229 66.9361C325.229 66.4041 324.896 66.0685 324.215 65.902L323.648 65.7628C323.196 65.6509 322.992 65.4993 322.992 65.206C322.992 64.8778 323.34 64.6392 323.807 64.6392C324.319 64.6392 324.531 64.9226 324.632 65.1861L325.159 65.0369ZM327.773 64.1818H326.957V63.267H326.371V64.1818H325.794V64.679H326.371V67.0653C326.371 67.7315 326.908 68.0497 327.405 68.0497C327.623 68.0497 327.763 68.0099 327.842 67.9801L327.723 67.4531C327.673 67.4631 327.594 67.483 327.464 67.483C327.206 67.483 326.957 67.4034 326.957 66.9062V64.679H327.773V64.1818ZM331.291 65.0369C331.107 64.495 330.695 64.1321 329.939 64.1321C329.134 64.1321 328.537 64.5895 328.537 65.2358C328.537 65.7628 328.85 66.1158 329.551 66.2798L330.188 66.429C330.573 66.5185 330.754 66.7024 330.754 66.9659C330.754 67.294 330.406 67.5625 329.859 67.5625C329.38 67.5625 329.079 67.3562 328.975 66.946L328.418 67.0852C328.554 67.734 329.089 68.0795 329.869 68.0795C330.757 68.0795 331.361 67.5948 331.361 66.9361C331.361 66.4041 331.028 66.0685 330.347 65.902L329.78 65.7628C329.328 65.6509 329.124 65.4993 329.124 65.206C329.124 64.8778 329.472 64.6392 329.939 64.6392C330.451 64.6392 330.662 64.9226 330.764 65.1861L331.291 65.0369Z" fill="#8F90A6"/>
<path d="M349.338 63.456H350.939V68H351.555V63.456H353.156V62.9091H349.338V63.456ZM354.615 65.7031C354.615 65.0369 355.04 64.6591 355.619 64.6591C356.171 64.6591 356.504 65.0071 356.504 65.6136V68H357.091V65.5739C357.091 64.592 356.569 64.1321 355.788 64.1321C355.187 64.1321 354.843 64.3832 354.665 64.7784H354.615V62.9091H354.028V68H354.615V65.7031ZM358.164 68H358.751V65.5838C358.751 65.0668 359.158 64.6889 359.715 64.6889C359.872 64.6889 360.033 64.7188 360.073 64.7287V64.1321C360.006 64.1271 359.852 64.1222 359.765 64.1222C359.307 64.1222 358.91 64.3807 358.77 64.7585H358.731V64.1818H358.164V68ZM362.203 68.0795C363.237 68.0795 363.933 67.294 363.933 66.1108C363.933 64.9176 363.237 64.1321 362.203 64.1321C361.169 64.1321 360.473 64.9176 360.473 66.1108C360.473 67.294 361.169 68.0795 362.203 68.0795ZM362.203 67.5526C361.418 67.5526 361.06 66.8764 361.06 66.1108C361.06 65.3452 361.418 64.6591 362.203 64.6591C362.989 64.6591 363.347 65.3452 363.347 66.1108C363.347 66.8764 362.989 67.5526 362.203 67.5526ZM367.235 66.4389C367.235 67.1548 366.688 67.483 366.251 67.483C365.764 67.483 365.416 67.125 365.416 66.5682V64.1818H364.829V66.608C364.829 67.5824 365.346 68.0497 366.062 68.0497C366.639 68.0497 367.016 67.7415 367.195 67.3537H367.235V68H367.822V64.1818H367.235V66.4389ZM370.438 69.5114C371.352 69.5114 372.088 69.0938 372.088 68.1094V64.1818H371.521V64.7884H371.462C371.332 64.5895 371.094 64.1321 370.348 64.1321C369.384 64.1321 368.717 64.8977 368.717 66.071C368.717 67.2642 369.413 67.9403 370.338 67.9403C371.084 67.9403 371.322 67.5028 371.452 67.294H371.501V68.0696C371.501 68.706 371.054 68.9943 370.438 68.9943C369.744 68.9943 369.5 68.6289 369.344 68.4176L368.876 68.7457C369.115 69.146 369.585 69.5114 370.438 69.5114ZM370.418 67.4134C369.682 67.4134 369.304 66.8565 369.304 66.0611C369.304 65.2855 369.672 64.6591 370.418 64.6591C371.134 64.6591 371.511 65.2358 371.511 66.0611C371.511 66.9062 371.124 67.4134 370.418 67.4134ZM373.749 65.7031C373.749 65.0369 374.174 64.6591 374.753 64.6591C375.305 64.6591 375.638 65.0071 375.638 65.6136V68H376.224V65.5739C376.224 64.592 375.702 64.1321 374.922 64.1321C374.32 64.1321 373.977 64.3832 373.798 64.7784H373.749V62.9091H373.162V68H373.749V65.7031ZM377.298 69.4318H377.884V67.4134H377.934C378.063 67.6222 378.312 68.0795 379.048 68.0795C380.002 68.0795 380.668 67.3139 380.668 66.1009C380.668 64.8977 380.002 64.1321 379.038 64.1321C378.292 64.1321 378.063 64.5895 377.934 64.7884H377.864V64.1818H377.298V69.4318ZM377.874 66.0909C377.874 65.2358 378.252 64.6591 378.968 64.6591C379.714 64.6591 380.082 65.2855 380.082 66.0909C380.082 66.9062 379.704 67.5526 378.968 67.5526C378.262 67.5526 377.874 66.956 377.874 66.0909ZM383.97 66.4389C383.97 67.1548 383.423 67.483 382.985 67.483C382.498 67.483 382.15 67.125 382.15 66.5682V64.1818H381.563V66.608C381.563 67.5824 382.08 68.0497 382.796 68.0497C383.373 68.0497 383.751 67.7415 383.93 67.3537H383.97V68H384.556V64.1818H383.97V66.4389ZM387.291 64.1818H386.476V63.267H385.889V64.1818H385.312V64.679H385.889V67.0653C385.889 67.7315 386.426 68.0497 386.923 68.0497C387.142 68.0497 387.281 68.0099 387.361 67.9801L387.241 67.4531C387.192 67.4631 387.112 67.483 386.983 67.483C386.724 67.483 386.476 67.4034 386.476 66.9062V64.679H387.291V64.1818Z" fill="#8F90A6"/>
<rect x="142" y="207" width="23.2941" height="9" rx="4" fill="#3BC882"/>
<rect x="167.412" y="207" width="23.2941" height="9" rx="4" fill="#39D98A"/>
<rect x="192.824" y="207" width="23.2941" height="9" rx="4" fill="#23A966"/>
<rect x="218.235" y="207" width="23.2941" height="9" rx="4" fill="#23A966"/>
<rect x="243.647" y="207" width="23.2941" height="9" rx="4" fill="#23A966"/>
<rect x="269.059" y="207" width="23.2941" height="9" rx="4" fill="#23A966"/>
<rect x="294.471" y="207" width="23.2941" height="9" rx="4" fill="#3BC882"/>
<rect x="319.882" y="207" width="23.2941" height="9" rx="4" fill="#23A966"/>
<rect x="345.294" y="207" width="23.2941" height="9" rx="4" fill="#3BC882"/>
<rect x="370.706" y="207" width="23.2941" height="9" rx="4" fill="#23A966"/>
<rect x="142" y="196" width="23.2941" height="9" rx="4" fill="#39D98A"/>
<rect x="167.412" y="196" width="23.2941" height="9" rx="4" fill="#57EBA1"/>
<rect x="192.824" y="196" width="23.2941" height="9" rx="4" fill="#3BC882"/>
<rect x="218.235" y="196" width="23.2941" height="9" rx="4" fill="#23A966"/>
<rect x="243.647" y="196" width="23.2941" height="9" rx="4" fill="#23A966"/>
<rect x="269.059" y="196" width="23.2941" height="9" rx="4" fill="#23A966"/>
<rect x="294.471" y="196" width="23.2941" height="9" rx="4" fill="#3BC882"/>
<rect x="319.882" y="196" width="23.2941" height="9" rx="4" fill="#23A966"/>
<rect x="345.294" y="196" width="23.2941" height="9" rx="4" fill="#39D98A"/>
<rect x="370.706" y="196" width="23.2941" height="9" rx="4" fill="#23A966"/>
<rect x="142" y="185" width="23.2941" height="9" rx="4" fill="#39D98A"/>
<rect x="192.824" y="185" width="23.2941" height="9" rx="4" fill="#39D98A"/>
<rect x="218.235" y="185" width="23.2941" height="9" rx="4" fill="#3BC882"/>
<rect x="243.647" y="185" width="23.2941" height="9" rx="4" fill="#3BC882"/>
<rect x="269.059" y="185" width="23.2941" height="9" rx="4" fill="#3BC882"/>
<rect x="294.471" y="185" width="23.2941" height="9" rx="4" fill="#39D98A"/>
<rect x="319.882" y="185" width="23.2941" height="9" rx="4" fill="#3BC882"/>
<rect x="345.294" y="185" width="23.2941" height="9" rx="4" fill="#57EBA1"/>
<rect x="370.706" y="185" width="23.2941" height="9" rx="4" fill="#39D98A"/>
<rect x="142" y="174" width="23.2941" height="9" rx="4" fill="#57EBA1"/>
<rect x="167.412" y="174" width="23.2941" height="9" rx="4" fill="#57EBA1"/>
<rect x="192.824" y="174" width="23.2941" height="9" rx="4" fill="#57EBA1"/>
<rect x="218.235" y="174" width="23.2941" height="9" rx="4" fill="#3BC882"/>
<rect x="243.647" y="174" width="23.2941" height="9" rx="4" fill="#3BC882"/>
<rect x="269.059" y="174" width="23.2941" height="9" rx="4" fill="#3BC882"/>
<rect x="294.471" y="174" width="23.2941" height="9" rx="4" fill="#57EBA1"/>
<rect x="319.882" y="174" width="23.2941" height="9" rx="4" fill="#3BC882"/>
<rect x="345.294" y="174" width="23.2941" height="9" rx="4" fill="#E3FFF1"/>
<rect x="370.706" y="174" width="23.2941" height="9" rx="4" fill="#57EBA1"/>
<rect x="142" y="163" width="23.2941" height="9" rx="4" fill="#E3FFF1"/>
<rect x="167.412" y="163" width="23.2941" height="9" rx="4" fill="#E3FFF1"/>
<rect x="192.824" y="163" width="23.2941" height="9" rx="4" fill="#57EBA1"/>
<rect x="243.647" y="163" width="23.2941" height="9" rx="4" fill="#39D98A"/>
<rect x="269.059" y="163" width="23.2941" height="9" rx="4" fill="#39D98A"/>
<rect x="294.471" y="163" width="23.2941" height="9" rx="4" fill="#57EBA1"/>
<rect x="142" y="152" width="23.2941" height="9" rx="4" fill="#E3FFF1"/>
<rect x="192.824" y="152" width="23.2941" height="9" rx="4" fill="#E3FFF1"/>
<rect x="218.235" y="152" width="23.2941" height="9" rx="4" fill="#39D98A"/>
<rect x="243.647" y="152" width="23.2941" height="9" rx="4" fill="#39D98A"/>
<rect x="269.059" y="152" width="23.2941" height="9" rx="4" fill="#39D98A"/>
<rect x="294.471" y="152" width="23.2941" height="9" rx="4" fill="#E3FFF1"/>
<rect x="319.882" y="152" width="23.2941" height="9" rx="4" fill="#39D98A"/>
<rect x="345.294" y="152" width="23.2941" height="9" rx="4" fill="#39D98A"/>
<rect x="370.706" y="152" width="23.2941" height="9" rx="4" fill="#39D98A"/>
<rect x="142" y="141" width="23.2941" height="9" rx="4" fill="#57EBA1"/>
<rect x="167.412" y="141" width="23.2941" height="9" rx="4" fill="#57EBA1"/>
<rect x="218.235" y="141" width="23.2941" height="9" rx="4" fill="#57EBA1"/>
<rect x="243.647" y="141" width="23.2941" height="9" rx="4" fill="#57EBA1"/>
<rect x="269.059" y="141" width="23.2941" height="9" rx="4" fill="#57EBA1"/>
<rect x="319.882" y="141" width="23.2941" height="9" rx="4" fill="#57EBA1"/>
<rect x="345.294" y="141" width="23.2941" height="9" rx="4" fill="#57EBA1"/>
<rect x="370.706" y="141" width="23.2941" height="9" rx="4" fill="#57EBA1"/>
<rect x="142" y="130" width="23.2941" height="9" rx="4" fill="#57EBA1"/>
<rect x="167.412" y="130" width="23.2941" height="9" rx="4" fill="#57EBA1"/>
<rect x="218.235" y="130" width="23.2941" height="9" rx="4" fill="#57EBA1"/>
<rect x="243.647" y="130" width="23.2941" height="9" rx="4" fill="#57EBA1"/>
<rect x="269.059" y="130" width="23.2941" height="9" rx="4" fill="#57EBA1"/>
<rect x="319.882" y="130" width="23.2941" height="9" rx="4" fill="#57EBA1"/>
<rect x="345.294" y="130" width="23.2941" height="9" rx="4" fill="#57EBA1"/>
<rect x="370.706" y="130" width="23.2941" height="9" rx="4" fill="#57EBA1"/>
<rect x="142" y="119" width="23.2941" height="9" rx="4" fill="#E3FFF1"/>
<rect x="167.412" y="119" width="23.2941" height="9" rx="4" fill="#E3FFF1"/>
<rect x="218.235" y="119" width="23.2941" height="9" rx="4" fill="#E3FFF1"/>
<rect x="243.647" y="119" width="23.2941" height="9" rx="4" fill="#E3FFF1"/>
<rect x="269.059" y="119" width="23.2941" height="9" rx="4" fill="#E3FFF1"/>
<rect x="319.882" y="119" width="23.2941" height="9" rx="4" fill="#E3FFF1"/>
<rect x="345.294" y="119" width="23.2941" height="9" rx="4" fill="#E3FFF1"/>
<rect x="370.706" y="119" width="23.2941" height="9" rx="4" fill="#E3FFF1"/>
<rect x="142" y="108" width="23.2941" height="9" rx="4" fill="#E3FFF1"/>
<rect x="218.235" y="108" width="23.2941" height="9" rx="4" fill="#E3FFF1"/>
<rect x="269.059" y="108" width="23.2941" height="9" rx="4" fill="#E3FFF1"/>
<rect x="319.882" y="108" width="23.2941" height="9" rx="4" fill="#E3FFF1"/>
<rect x="370.706" y="108" width="23.2941" height="9" rx="4" fill="#E3FFF1"/>
<rect x="142" y="97" width="23.2941" height="9" rx="4" fill="#E3FFF1"/>
<rect x="192.824" y="97" width="23.2941" height="9" rx="4" fill="#E3FFF1"/>
<rect x="218.235" y="97" width="23.2941" height="9" rx="4" fill="#E3FFF1"/>
<rect x="269.059" y="97" width="23.2941" height="9" rx="4" fill="#E3FFF1"/>
<rect x="345.294" y="97" width="23.2941" height="9" rx="4" fill="#E3FFF1"/>
<rect x="370.706" y="97" width="23.2941" height="9" rx="4" fill="#E3FFF1"/>
<rect x="192.824" y="86" width="23.2941" height="9" rx="4" fill="#E3FFF1"/>
<rect x="269.059" y="86" width="23.2941" height="9" rx="4" fill="#E3FFF1"/>
<rect x="345.294" y="86" width="23.2941" height="9" rx="4" fill="#E3FFF1"/>
</g>
<g filter="url(#filter8_dd)">
<rect x="422" y="88" width="265" height="189" rx="8" fill="white"/>
<path d="M440.437 106.532H441.901C441.582 104.69 440.008 103.416 437.967 103.416C435.521 103.416 433.734 105.258 433.734 108.277C433.734 111.269 435.47 113.129 438.032 113.129C440.326 113.129 441.965 111.624 441.965 109.238V108.162H438.249V109.339H440.585C440.553 110.863 439.546 111.827 438.032 111.827C436.365 111.827 435.151 110.567 435.151 108.268C435.151 105.978 436.375 104.718 437.977 104.718C439.232 104.718 440.082 105.411 440.437 106.532ZM451.629 106.62C451.305 104.598 449.722 103.416 447.723 103.416C445.276 103.416 443.471 105.249 443.471 108.273C443.471 111.297 445.267 113.129 447.723 113.129C449.801 113.129 451.319 111.827 451.629 109.958L450.188 109.953C449.944 111.163 448.928 111.827 447.732 111.827C446.112 111.827 444.889 110.586 444.889 108.273C444.889 105.978 446.107 104.718 447.737 104.718C448.942 104.718 449.953 105.397 450.188 106.62H451.629ZM456.31 104.773H459.255V113H460.677V104.773H463.627V103.545H456.31V104.773ZM465.133 113H466.513V105.909H465.133V113ZM465.83 104.815C466.306 104.815 466.703 104.446 466.703 103.993C466.703 103.541 466.306 103.167 465.83 103.167C465.35 103.167 464.958 103.541 464.958 103.993C464.958 104.446 465.35 104.815 465.83 104.815ZM468.37 113H469.751V108.628C469.751 107.673 470.42 107.008 471.205 107.008C471.971 107.008 472.502 107.516 472.502 108.287V113H473.878V108.48C473.878 107.626 474.399 107.008 475.3 107.008C476.029 107.008 476.629 107.414 476.629 108.374V113H478.009V108.245C478.009 106.625 477.105 105.817 475.821 105.817C474.801 105.817 474.035 106.306 473.693 107.063H473.619C473.31 106.288 472.659 105.817 471.713 105.817C470.775 105.817 470.078 106.283 469.783 107.063H469.695V105.909H468.37V113ZM482.916 113.143C484.462 113.143 485.556 112.381 485.87 111.227L484.564 110.992C484.314 111.661 483.714 112.003 482.93 112.003C481.748 112.003 480.954 111.237 480.917 109.87H485.958V109.381C485.958 106.819 484.425 105.817 482.819 105.817C480.843 105.817 479.541 107.322 479.541 109.501C479.541 111.703 480.824 113.143 482.916 113.143ZM480.921 108.836C480.977 107.83 481.706 106.957 482.828 106.957C483.899 106.957 484.601 107.751 484.605 108.836H480.921Z" fill="#555770"/>
<rect x="556" y="97" width="26" height="26" rx="8" fill="#E3FFF1"/>
<path d="M572.378 108.908V111.53C571.977 112.27 571.189 113.148 570.415 113.472V108.908C570.415 108.527 570.724 108.219 571.104 108.219H571.688C572.069 108.219 572.378 108.527 572.378 108.908Z" fill="#3BC882"/>
<path d="M567.714 113.688C568.038 113.76 568.362 113.796 568.704 113.796C569.046 113.796 569.37 113.76 569.695 113.688V111.534C569.695 111.154 569.386 110.845 569.005 110.845H568.403C568.022 110.845 567.714 111.154 567.714 111.534V113.688Z" fill="#3BC882"/>
<path d="M566.996 110.454V113.472C566.222 113.148 565.537 112.625 565.033 111.959V110.454C565.033 110.073 565.342 109.765 565.722 109.765H566.306C566.687 109.765 566.996 110.073 566.996 110.454Z" fill="#3BC882"/>
<path fill-rule="evenodd" clip-rule="evenodd" d="M563.984 104.984C561.48 107.488 561.48 111.548 563.984 114.052C566.368 116.435 570.162 116.55 572.681 114.395L575.18 116.893L575.183 116.89L575.186 116.893C575.845 117.553 576.835 116.563 576.175 115.904L573.644 113.372C575.538 110.859 575.341 107.272 573.052 104.984C570.548 102.479 566.488 102.479 563.984 104.984ZM564.976 105.973C566.933 104.016 570.107 104.016 572.064 105.973C574.022 107.931 574.022 111.104 572.064 113.061C570.107 115.019 566.933 115.019 564.976 113.061C563.019 111.104 563.019 107.931 564.976 105.973Z" fill="#3BC882"/>
<path d="M595.36 106.055H597.789V107H598.669V106.055H599.32V105.297H598.669V101.909H597.521L595.36 105.322V106.055ZM597.799 105.297H596.305V105.257L597.759 102.953H597.799V105.297ZM600.115 107H603.605V106.229H601.387V106.195L602.265 105.302C603.254 104.353 603.528 103.89 603.528 103.316C603.528 102.463 602.834 101.839 601.81 101.839C600.801 101.839 600.085 102.466 600.085 103.433H600.962C600.962 102.913 601.29 102.588 601.797 102.588C602.282 102.588 602.643 102.884 602.643 103.363C602.643 103.788 602.384 104.092 601.882 104.601L600.115 106.334V107Z" fill="#28293D"/>
<path d="M638.334 107.097C639.562 107.099 640.295 106.13 640.295 104.46C640.295 102.799 639.557 101.839 638.334 101.839C637.111 101.839 636.375 102.797 636.373 104.46C636.373 106.127 637.106 107.097 638.334 107.097ZM638.334 106.319C637.7 106.319 637.303 105.683 637.305 104.46C637.308 103.246 637.703 102.608 638.334 102.608C638.968 102.608 639.363 103.246 639.366 104.46C639.366 105.683 638.971 106.319 638.334 106.319ZM641.487 107.055C641.781 107.055 642.032 106.811 642.034 106.508C642.032 106.21 641.781 105.966 641.487 105.966C641.184 105.966 640.938 106.21 640.941 106.508C640.938 106.811 641.184 107.055 641.487 107.055ZM644.61 107.07C645.698 107.07 646.491 106.446 646.489 105.586C646.491 104.949 646.094 104.492 645.38 104.39V104.35C645.932 104.231 646.302 103.821 646.3 103.249C646.302 102.473 645.641 101.839 644.624 101.839C643.635 101.839 642.869 102.429 642.85 103.281H643.737C643.752 102.854 644.15 102.588 644.619 102.588C645.094 102.588 645.41 102.876 645.407 103.304C645.41 103.749 645.042 104.044 644.515 104.044H644.065V104.755H644.515C645.159 104.755 645.542 105.078 645.539 105.538C645.542 105.988 645.151 106.297 644.607 106.297C644.095 106.297 643.7 106.031 643.677 105.615H642.743C642.768 106.475 643.536 107.07 644.61 107.07ZM649.112 107.07C650.188 107.07 650.939 106.339 650.939 105.327C650.939 104.348 650.258 103.642 649.333 103.642C648.921 103.642 648.555 103.806 648.366 104.029H648.336L648.483 102.68H650.673V101.909H647.72L647.454 104.534L648.287 104.671C648.458 104.482 648.781 104.355 649.087 104.358C649.646 104.36 650.049 104.773 650.047 105.349C650.049 105.919 649.656 106.324 649.112 106.324C648.652 106.324 648.282 106.033 648.249 105.615H647.354C647.379 106.461 648.118 107.07 649.112 107.07ZM653.653 107.097C654.881 107.099 655.615 106.13 655.615 104.46C655.615 102.799 654.877 101.839 653.653 101.839C652.43 101.839 651.695 102.797 651.692 104.46C651.692 106.127 652.426 107.097 653.653 107.097ZM653.653 106.319C653.02 106.319 652.622 105.683 652.624 104.46C652.627 103.246 653.022 102.608 653.653 102.608C654.287 102.608 654.683 103.246 654.685 104.46C654.685 105.683 654.29 106.319 653.653 106.319ZM660.265 101.67H659.477L657.836 107.766H658.624L660.265 101.67ZM663.857 104.191C663.733 103.545 663.216 103.132 662.321 103.132C661.401 103.132 660.775 103.585 660.777 104.29C660.775 104.847 661.118 105.215 661.851 105.367L662.502 105.504C662.853 105.581 663.017 105.722 663.017 105.939C663.017 106.2 662.733 106.396 662.306 106.396C661.893 106.396 661.625 106.217 661.548 105.874L660.67 105.958C660.782 106.659 661.371 107.075 662.308 107.075C663.263 107.075 663.937 106.58 663.939 105.857C663.937 105.312 663.586 104.979 662.865 104.822L662.214 104.683C661.826 104.596 661.672 104.462 661.675 104.241C661.672 103.982 661.958 103.803 662.333 103.803C662.748 103.803 662.967 104.029 663.037 104.281L663.857 104.191ZM666.371 107.075C667.261 107.075 667.873 106.64 668.032 105.976L667.192 105.881C667.07 106.205 666.772 106.374 666.384 106.374C665.802 106.374 665.417 105.991 665.409 105.337H668.069V105.061C668.069 103.721 667.264 103.132 666.324 103.132C665.23 103.132 664.517 103.935 664.517 105.113C664.517 106.311 665.221 107.075 666.371 107.075ZM665.412 104.73C665.439 104.243 665.8 103.833 666.337 103.833C666.854 103.833 667.202 104.211 667.207 104.73H665.412ZM670.496 107.075C671.456 107.075 672.067 106.505 672.132 105.695H671.272C671.195 106.105 670.899 106.341 670.503 106.341C669.942 106.341 669.579 105.871 669.579 105.091C669.579 104.32 669.949 103.858 670.503 103.858C670.936 103.858 671.202 104.136 671.272 104.504H672.132C672.07 103.676 671.423 103.132 670.491 103.132C669.372 103.132 668.666 103.94 668.666 105.106C668.666 106.262 669.355 107.075 670.496 107.075Z" fill="#28293D"/>
<path d="M595.616 119H596.233V117.011H597.347C597.391 117.011 597.434 117.011 597.476 117.009L598.55 119H599.266L598.115 116.897C598.763 116.676 599.067 116.146 599.067 115.47C599.067 114.57 598.53 113.909 597.337 113.909H595.616V119ZM596.233 116.455V114.456H597.317C598.142 114.456 598.46 114.859 598.46 115.47C598.46 116.082 598.142 116.455 597.327 116.455H596.233ZM601.574 119.08C602.35 119.08 602.917 118.692 603.096 118.115L602.529 117.956C602.38 118.354 602.034 118.553 601.574 118.553C600.886 118.553 600.411 118.108 600.384 117.29H603.155V117.041C603.155 115.619 602.31 115.132 601.515 115.132C600.481 115.132 599.794 115.947 599.794 117.121C599.794 118.294 600.471 119.08 601.574 119.08ZM600.384 116.783C600.423 116.189 600.843 115.659 601.515 115.659C602.151 115.659 602.559 116.136 602.559 116.783H600.384ZM607.239 120.432V115.182H606.673V115.788H606.603C606.474 115.589 606.245 115.132 605.499 115.132C604.535 115.132 603.869 115.898 603.869 117.101C603.869 118.314 604.535 119.08 605.489 119.08C606.225 119.08 606.474 118.622 606.603 118.413H606.653V120.432H607.239ZM606.663 117.091C606.663 117.956 606.275 118.553 605.569 118.553C604.833 118.553 604.455 117.906 604.455 117.091C604.455 116.286 604.823 115.659 605.569 115.659C606.285 115.659 606.663 116.236 606.663 117.091ZM610.72 117.439C610.72 118.155 610.173 118.483 609.735 118.483C609.248 118.483 608.9 118.125 608.9 117.568V115.182H608.313V117.608C608.313 118.582 608.83 119.05 609.546 119.05C610.123 119.05 610.501 118.741 610.68 118.354H610.72V119H611.306V115.182H610.72V117.439ZM613.982 119.08C614.757 119.08 615.324 118.692 615.503 118.115L614.936 117.956C614.787 118.354 614.441 118.553 613.982 118.553C613.293 118.553 612.818 118.108 612.791 117.29H615.562V117.041C615.562 115.619 614.717 115.132 613.922 115.132C612.888 115.132 612.202 115.947 612.202 117.121C612.202 118.294 612.878 119.08 613.982 119.08ZM612.791 116.783C612.831 116.189 613.251 115.659 613.922 115.659C614.558 115.659 614.966 116.136 614.966 116.783H612.791ZM619.159 116.037C618.975 115.495 618.563 115.132 617.807 115.132C617.002 115.132 616.405 115.589 616.405 116.236C616.405 116.763 616.718 117.116 617.419 117.28L618.056 117.429C618.441 117.518 618.623 117.702 618.623 117.966C618.623 118.294 618.275 118.562 617.728 118.562C617.248 118.562 616.947 118.356 616.843 117.946L616.286 118.085C616.423 118.734 616.957 119.08 617.738 119.08C618.625 119.08 619.229 118.595 619.229 117.936C619.229 117.404 618.896 117.069 618.215 116.902L617.648 116.763C617.196 116.651 616.992 116.499 616.992 116.206C616.992 115.878 617.34 115.639 617.807 115.639C618.319 115.639 618.531 115.923 618.632 116.186L619.159 116.037ZM621.773 115.182H620.957V114.267H620.371V115.182H619.794V115.679H620.371V118.065C620.371 118.732 620.908 119.05 621.405 119.05C621.623 119.05 621.763 119.01 621.842 118.98L621.723 118.453C621.673 118.463 621.594 118.483 621.464 118.483C621.206 118.483 620.957 118.403 620.957 117.906V115.679H621.773V115.182ZM625.291 116.037C625.107 115.495 624.695 115.132 623.939 115.132C623.134 115.132 622.537 115.589 622.537 116.236C622.537 116.763 622.85 117.116 623.551 117.28L624.188 117.429C624.573 117.518 624.754 117.702 624.754 117.966C624.754 118.294 624.406 118.562 623.859 118.562C623.38 118.562 623.079 118.356 622.975 117.946L622.418 118.085C622.554 118.734 623.089 119.08 623.869 119.08C624.757 119.08 625.361 118.595 625.361 117.936C625.361 117.404 625.028 117.069 624.347 116.902L623.78 116.763C623.328 116.651 623.124 116.499 623.124 116.206C623.124 115.878 623.472 115.639 623.939 115.639C624.451 115.639 624.662 115.923 624.764 116.186L625.291 116.037Z" fill="#8F90A6"/>
<path d="M636.338 114.456H637.939V119H638.555V114.456H640.156V113.909H636.338V114.456ZM641.615 116.703C641.615 116.037 642.04 115.659 642.619 115.659C643.171 115.659 643.504 116.007 643.504 116.614V119H644.091V116.574C644.091 115.592 643.569 115.132 642.788 115.132C642.187 115.132 641.843 115.383 641.665 115.778H641.615V113.909H641.028V119H641.615V116.703ZM645.164 119H645.751V116.584C645.751 116.067 646.158 115.689 646.715 115.689C646.872 115.689 647.033 115.719 647.073 115.729V115.132C647.006 115.127 646.852 115.122 646.765 115.122C646.307 115.122 645.91 115.381 645.77 115.759H645.731V115.182H645.164V119ZM649.203 119.08C650.237 119.08 650.933 118.294 650.933 117.111C650.933 115.918 650.237 115.132 649.203 115.132C648.169 115.132 647.473 115.918 647.473 117.111C647.473 118.294 648.169 119.08 649.203 119.08ZM649.203 118.553C648.418 118.553 648.06 117.876 648.06 117.111C648.06 116.345 648.418 115.659 649.203 115.659C649.989 115.659 650.347 116.345 650.347 117.111C650.347 117.876 649.989 118.553 649.203 118.553ZM654.235 117.439C654.235 118.155 653.688 118.483 653.251 118.483C652.764 118.483 652.416 118.125 652.416 117.568V115.182H651.829V117.608C651.829 118.582 652.346 119.05 653.062 119.05C653.639 119.05 654.016 118.741 654.195 118.354H654.235V119H654.822V115.182H654.235V117.439ZM657.438 120.511C658.352 120.511 659.088 120.094 659.088 119.109V115.182H658.521V115.788H658.462C658.332 115.589 658.094 115.132 657.348 115.132C656.384 115.132 655.717 115.898 655.717 117.071C655.717 118.264 656.413 118.94 657.338 118.94C658.084 118.94 658.322 118.503 658.452 118.294H658.501V119.07C658.501 119.706 658.054 119.994 657.438 119.994C656.744 119.994 656.5 119.629 656.344 119.418L655.876 119.746C656.115 120.146 656.585 120.511 657.438 120.511ZM657.418 118.413C656.682 118.413 656.304 117.857 656.304 117.061C656.304 116.286 656.672 115.659 657.418 115.659C658.134 115.659 658.511 116.236 658.511 117.061C658.511 117.906 658.124 118.413 657.418 118.413ZM660.749 116.703C660.749 116.037 661.174 115.659 661.753 115.659C662.305 115.659 662.638 116.007 662.638 116.614V119H663.224V116.574C663.224 115.592 662.702 115.132 661.922 115.132C661.32 115.132 660.977 115.383 660.798 115.778H660.749V113.909H660.162V119H660.749V116.703ZM664.298 120.432H664.884V118.413H664.934C665.063 118.622 665.312 119.08 666.048 119.08C667.002 119.08 667.668 118.314 667.668 117.101C667.668 115.898 667.002 115.132 666.038 115.132C665.292 115.132 665.063 115.589 664.934 115.788H664.864V115.182H664.298V120.432ZM664.874 117.091C664.874 116.236 665.252 115.659 665.968 115.659C666.714 115.659 667.082 116.286 667.082 117.091C667.082 117.906 666.704 118.553 665.968 118.553C665.262 118.553 664.874 117.956 664.874 117.091ZM670.97 117.439C670.97 118.155 670.423 118.483 669.985 118.483C669.498 118.483 669.15 118.125 669.15 117.568V115.182H668.563V117.608C668.563 118.582 669.08 119.05 669.796 119.05C670.373 119.05 670.751 118.741 670.93 118.354H670.97V119H671.556V115.182H670.97V117.439ZM674.291 115.182H673.476V114.267H672.889V115.182H672.312V115.679H672.889V118.065C672.889 118.732 673.426 119.05 673.923 119.05C674.142 119.05 674.281 119.01 674.361 118.98L674.241 118.453C674.192 118.463 674.112 118.483 673.983 118.483C673.724 118.483 673.476 118.403 673.476 117.906V115.679H674.291V115.182Z" fill="#8F90A6"/>
<rect x="433" y="201.742" width="11.05" height="66.2581" rx="2" fill="#57EBA1"/>
<rect x="433" y="217.678" width="11.05" height="50.3226" rx="2" fill="#39D98A"/>
<rect x="433" y="232.774" width="11.05" height="35.2258" rx="2" fill="#3BC882"/>
<rect x="446.059" y="209.29" width="11.05" height="58.7097" rx="2" fill="#57EBA1"/>
<rect x="446.059" y="222.709" width="11.05" height="45.2903" rx="2" fill="#39D98A"/>
<rect x="446.059" y="236.129" width="11.05" height="31.871" rx="2" fill="#3BC882"/>
<rect x="459.118" y="164" width="11.05" height="104" rx="2" fill="#57EBA1"/>
<rect x="459.118" y="188.322" width="11.05" height="79.6774" rx="2" fill="#39D98A"/>
<rect x="459.118" y="211.807" width="11.05" height="56.1936" rx="2" fill="#3BC882"/>
<rect x="472.177" y="195.871" width="11.05" height="72.129" rx="2" fill="#57EBA1"/>
<rect x="472.177" y="212.646" width="11.05" height="55.3548" rx="2" fill="#39D98A"/>
<rect x="472.177" y="229.419" width="11.05" height="38.5807" rx="2" fill="#3BC882"/>
<rect x="485.236" y="215.161" width="11.05" height="52.8387" rx="2" fill="#57EBA1"/>
<rect x="485.236" y="227.741" width="11.05" height="40.2581" rx="2" fill="#39D98A"/>
<rect x="485.236" y="239.483" width="11.05" height="28.5161" rx="2" fill="#3BC882"/>
<rect x="498.295" y="185.807" width="11.05" height="82.1936" rx="2" fill="#57EBA1"/>
<rect x="498.295" y="205.097" width="11.05" height="62.9032" rx="2" fill="#39D98A"/>
<rect x="498.295" y="223.548" width="11.05" height="44.4516" rx="2" fill="#3BC882"/>
<rect x="511.354" y="166.516" width="11.05" height="101.484" rx="2" fill="#57EBA1"/>
<rect x="511.354" y="190.838" width="11.05" height="77.1613" rx="2" fill="#39D98A"/>
<rect x="511.354" y="213.483" width="11.05" height="54.5161" rx="2" fill="#3BC882"/>
<rect x="524.414" y="201.742" width="11.05" height="66.2581" rx="2" fill="#57EBA1"/>
<rect x="524.414" y="217.678" width="11.05" height="50.3226" rx="2" fill="#39D98A"/>
<rect x="524.414" y="232.774" width="11.05" height="35.2258" rx="2" fill="#3BC882"/>
<rect x="603" y="201.742" width="11.05" height="66.2581" rx="2" fill="#57EBA1"/>
<rect x="603" y="217.678" width="11.05" height="50.3226" rx="2" fill="#39D98A"/>
<rect x="603" y="232.774" width="11.05" height="35.2258" rx="2" fill="#3BC882"/>
<rect x="537.473" y="209.29" width="11.05" height="58.7097" rx="2" fill="#57EBA1"/>
<rect x="537.473" y="222.709" width="11.05" height="45.2903" rx="2" fill="#39D98A"/>
<rect x="537.473" y="236.129" width="11.05" height="31.871" rx="2" fill="#3BC882"/>
<rect x="616.059" y="209.29" width="11.05" height="58.7097" rx="2" fill="#57EBA1"/>
<rect x="616.059" y="222.709" width="11.05" height="45.2903" rx="2" fill="#39D98A"/>
<rect x="616.059" y="236.129" width="11.05" height="31.871" rx="2" fill="#3BC882"/>
<rect x="550.532" y="164" width="11.05" height="104" rx="2" fill="#57EBA1"/>
<rect x="550.532" y="188.322" width="11.05" height="79.6774" rx="2" fill="#39D98A"/>
<rect x="550.532" y="211.807" width="11.05" height="56.1936" rx="2" fill="#3BC882"/>
<rect x="629.118" y="164" width="11.05" height="104" rx="2" fill="#57EBA1"/>
<rect x="629.118" y="188.322" width="11.05" height="79.6774" rx="2" fill="#39D98A"/>
<rect x="629.118" y="211.807" width="11.05" height="56.1936" rx="2" fill="#3BC882"/>
<rect x="563.591" y="195.871" width="11.05" height="72.129" rx="2" fill="#57EBA1"/>
<rect x="563.591" y="212.646" width="11.05" height="55.3548" rx="2" fill="#39D98A"/>
<rect x="563.591" y="229.419" width="11.05" height="38.5807" rx="2" fill="#3BC882"/>
<rect x="642.177" y="195.871" width="11.05" height="72.129" rx="2" fill="#57EBA1"/>
<rect x="642.177" y="212.646" width="11.05" height="55.3548" rx="2" fill="#39D98A"/>
<rect x="642.177" y="229.419" width="11.05" height="38.5807" rx="2" fill="#3BC882"/>
<rect x="576.65" y="215.161" width="11.05" height="52.8387" rx="2" fill="#57EBA1"/>
<rect x="576.65" y="227.741" width="11.05" height="40.2581" rx="2" fill="#39D98A"/>
<rect x="576.65" y="239.483" width="11.05" height="28.5161" rx="2" fill="#3BC882"/>
<rect x="655.236" y="215.161" width="11.05" height="52.8387" rx="2" fill="#57EBA1"/>
<rect x="655.236" y="227.741" width="11.05" height="40.2581" rx="2" fill="#39D98A"/>
<rect x="655.236" y="239.483" width="11.05" height="28.5161" rx="2" fill="#3BC882"/>
<rect x="589.709" y="185.807" width="11.05" height="82.1936" rx="2" fill="#57EBA1"/>
<rect x="589.709" y="205.097" width="11.05" height="62.9032" rx="2" fill="#39D98A"/>
<rect x="589.709" y="223.548" width="11.05" height="44.4516" rx="2" fill="#3BC882"/>
<rect x="668.296" y="185.807" width="11.05" height="82.1936" rx="2" fill="#57EBA1"/>
<rect x="668.296" y="205.097" width="11.05" height="62.9032" rx="2" fill="#39D98A"/>
<rect x="668.296" y="223.548" width="11.05" height="44.4516" rx="2" fill="#3BC882"/>
</g>
<rect x="704" y="70" width="240" height="116" transform="rotate(90 704 70)" fill="url(#paint1_linear)"/>
<rect x="704" y="88" width="189" height="221" transform="rotate(90 704 88)" fill="url(#paint2_linear)"/>
<defs>
<filter id="filter0_dd" x="49" y="48.5" width="497" height="444" filterUnits="userSpaceOnUse" color-interpolation-filters="sRGB">
<feFlood flood-opacity="0" result="BackgroundImageFix"/>
<feColorMatrix in="SourceAlpha" type="matrix" values="0 0 0 0 0 0 0 0 0 0 0 0 0 0 0 0 0 0 127 0"/>
<feOffset dy="0.5"/>
<feGaussianBlur stdDeviation="1"/>
<feColorMatrix type="matrix" values="0 0 0 0 0.376471 0 0 0 0 0.380392 0 0 0 0 0.439216 0 0 0 0.16 0"/>
<feBlend mode="normal" in2="BackgroundImageFix" result="effect1_dropShadow"/>
<feColorMatrix in="SourceAlpha" type="matrix" values="0 0 0 0 0 0 0 0 0 0 0 0 0 0 0 0 0 0 127 0"/>
<feOffset/>
<feGaussianBlur stdDeviation="0.5"/>
<feColorMatrix type="matrix" values="0 0 0 0 0.156863 0 0 0 0 0.160784 0 0 0 0 0.239216 0 0 0 0.08 0"/>
<feBlend mode="normal" in2="effect1_dropShadow" result="effect2_dropShadow"/>
<feBlend mode="normal" in="SourceGraphic" in2="effect2_dropShadow" result="shape"/>
</filter>
<filter id="filter1_dd" x="49" y="48.5" width="497" height="28" filterUnits="userSpaceOnUse" color-interpolation-filters="sRGB">
<feFlood flood-opacity="0" result="BackgroundImageFix"/>
<feColorMatrix in="SourceAlpha" type="matrix" values="0 0 0 0 0 0 0 0 0 0 0 0 0 0 0 0 0 0 127 0"/>
<feOffset dy="0.5"/>
<feGaussianBlur stdDeviation="1"/>
<feColorMatrix type="matrix" values="0 0 0 0 0.376471 0 0 0 0 0.380392 0 0 0 0 0.439216 0 0 0 0.16 0"/>
<feBlend mode="normal" in2="BackgroundImageFix" result="effect1_dropShadow"/>
<feColorMatrix in="SourceAlpha" type="matrix" values="0 0 0 0 0 0 0 0 0 0 0 0 0 0 0 0 0 0 127 0"/>
<feOffset/>
<feGaussianBlur stdDeviation="0.5"/>
<feColorMatrix type="matrix" values="0 0 0 0 0.156863 0 0 0 0 0.160784 0 0 0 0 0.239216 0 0 0 0.08 0"/>
<feBlend mode="normal" in2="effect1_dropShadow" result="effect2_dropShadow"/>
<feBlend mode="normal" in="SourceGraphic" in2="effect2_dropShadow" result="shape"/>
</filter>
<filter id="filter2_dd" x="129" y="245" width="384" height="52" filterUnits="userSpaceOnUse" color-interpolation-filters="sRGB">
<feFlood flood-opacity="0" result="BackgroundImageFix"/>
<feColorMatrix in="SourceAlpha" type="matrix" values="0 0 0 0 0 0 0 0 0 0 0 0 0 0 0 0 0 0 127 0"/>
<feOffset dy="2"/>
<feGaussianBlur stdDeviation="2"/>
<feColorMatrix type="matrix" values="0 0 0 0 0.376471 0 0 0 0 0.380392 0 0 0 0 0.439216 0 0 0 0.16 0"/>
<feBlend mode="normal" in2="BackgroundImageFix" result="effect1_dropShadow"/>
<feColorMatrix in="SourceAlpha" type="matrix" values="0 0 0 0 0 0 0 0 0 0 0 0 0 0 0 0 0 0 127 0"/>
<feOffset/>
<feGaussianBlur stdDeviation="0.5"/>
<feColorMatrix type="matrix" values="0 0 0 0 0.156863 0 0 0 0 0.160784 0 0 0 0 0.239216 0 0 0 0.04 0"/>
<feBlend mode="normal" in2="effect1_dropShadow" result="effect2_dropShadow"/>
<feBlend mode="normal" in="SourceGraphic" in2="effect2_dropShadow" result="shape"/>
</filter>
<filter id="filter3_dd" x="129" y="401" width="384" height="52" filterUnits="userSpaceOnUse" color-interpolation-filters="sRGB">
<feFlood flood-opacity="0" result="BackgroundImageFix"/>
<feColorMatrix in="SourceAlpha" type="matrix" values="0 0 0 0 0 0 0 0 0 0 0 0 0 0 0 0 0 0 127 0"/>
<feOffset dy="2"/>
<feGaussianBlur stdDeviation="2"/>
<feColorMatrix type="matrix" values="0 0 0 0 0.376471 0 0 0 0 0.380392 0 0 0 0 0.439216 0 0 0 0.16 0"/>
<feBlend mode="normal" in2="BackgroundImageFix" result="effect1_dropShadow"/>
<feColorMatrix in="SourceAlpha" type="matrix" values="0 0 0 0 0 0 0 0 0 0 0 0 0 0 0 0 0 0 127 0"/>
<feOffset/>
<feGaussianBlur stdDeviation="0.5"/>
<feColorMatrix type="matrix" values="0 0 0 0 0.156863 0 0 0 0 0.160784 0 0 0 0 0.239216 0 0 0 0.04 0"/>
<feBlend mode="normal" in2="effect1_dropShadow" result="effect2_dropShadow"/>
<feBlend mode="normal" in="SourceGraphic" in2="effect2_dropShadow" result="shape"/>
</filter>
<filter id="filter4_dd" x="129" y="453" width="384" height="52" filterUnits="userSpaceOnUse" color-interpolation-filters="sRGB">
<feFlood flood-opacity="0" result="BackgroundImageFix"/>
<feColorMatrix in="SourceAlpha" type="matrix" values="0 0 0 0 0 0 0 0 0 0 0 0 0 0 0 0 0 0 127 0"/>
<feOffset dy="2"/>
<feGaussianBlur stdDeviation="2"/>
<feColorMatrix type="matrix" values="0 0 0 0 0.376471 0 0 0 0 0.380392 0 0 0 0 0.439216 0 0 0 0.16 0"/>
<feBlend mode="normal" in2="BackgroundImageFix" result="effect1_dropShadow"/>
<feColorMatrix in="SourceAlpha" type="matrix" values="0 0 0 0 0 0 0 0 0 0 0 0 0 0 0 0 0 0 127 0"/>
<feOffset/>
<feGaussianBlur stdDeviation="0.5"/>
<feColorMatrix type="matrix" values="0 0 0 0 0.156863 0 0 0 0 0.160784 0 0 0 0 0.239216 0 0 0 0.04 0"/>
<feBlend mode="normal" in2="effect1_dropShadow" result="effect2_dropShadow"/>
<feBlend mode="normal" in="SourceGraphic" in2="effect2_dropShadow" result="shape"/>
</filter>
<filter id="filter5_dd" x="129" y="297" width="384" height="52" filterUnits="userSpaceOnUse" color-interpolation-filters="sRGB">
<feFlood flood-opacity="0" result="BackgroundImageFix"/>
<feColorMatrix in="SourceAlpha" type="matrix" values="0 0 0 0 0 0 0 0 0 0 0 0 0 0 0 0 0 0 127 0"/>
<feOffset dy="2"/>
<feGaussianBlur stdDeviation="2"/>
<feColorMatrix type="matrix" values="0 0 0 0 0.376471 0 0 0 0 0.380392 0 0 0 0 0.439216 0 0 0 0.16 0"/>
<feBlend mode="normal" in2="BackgroundImageFix" result="effect1_dropShadow"/>
<feColorMatrix in="SourceAlpha" type="matrix" values="0 0 0 0 0 0 0 0 0 0 0 0 0 0 0 0 0 0 127 0"/>
<feOffset/>
<feGaussianBlur stdDeviation="0.5"/>
<feColorMatrix type="matrix" values="0 0 0 0 0.156863 0 0 0 0 0.160784 0 0 0 0 0.239216 0 0 0 0.04 0"/>
<feBlend mode="normal" in2="effect1_dropShadow" result="effect2_dropShadow"/>
<feBlend mode="normal" in="SourceGraphic" in2="effect2_dropShadow" result="shape"/>
</filter>
<filter id="filter6_dd" x="129" y="349" width="384" height="52" filterUnits="userSpaceOnUse" color-interpolation-filters="sRGB">
<feFlood flood-opacity="0" result="BackgroundImageFix"/>
<feColorMatrix in="SourceAlpha" type="matrix" values="0 0 0 0 0 0 0 0 0 0 0 0 0 0 0 0 0 0 127 0"/>
<feOffset dy="2"/>
<feGaussianBlur stdDeviation="2"/>
<feColorMatrix type="matrix" values="0 0 0 0 0.376471 0 0 0 0 0.380392 0 0 0 0 0.439216 0 0 0 0.16 0"/>
<feBlend mode="normal" in2="BackgroundImageFix" result="effect1_dropShadow"/>
<feColorMatrix in="SourceAlpha" type="matrix" values="0 0 0 0 0 0 0 0 0 0 0 0 0 0 0 0 0 0 127 0"/>
<feOffset/>
<feGaussianBlur stdDeviation="0.5"/>
<feColorMatrix type="matrix" values="0 0 0 0 0.156863 0 0 0 0 0.160784 0 0 0 0 0.239216 0 0 0 0.04 0"/>
<feBlend mode="normal" in2="effect1_dropShadow" result="effect2_dropShadow"/>
<feBlend mode="normal" in="SourceGraphic" in2="effect2_dropShadow" result="shape"/>
</filter>
<filter id="filter7_dd" x="117" y="29" width="302" height="221" filterUnits="userSpaceOnUse" color-interpolation-filters="sRGB">
<feFlood flood-opacity="0" result="BackgroundImageFix"/>
<feColorMatrix in="SourceAlpha" type="matrix" values="0 0 0 0 0 0 0 0 0 0 0 0 0 0 0 0 0 0 127 0"/>
<feOffset dy="8"/>
<feGaussianBlur stdDeviation="8"/>
<feColorMatrix type="matrix" values="0 0 0 0 0.376471 0 0 0 0 0.380392 0 0 0 0 0.439216 0 0 0 0.16 0"/>
<feBlend mode="normal" in2="BackgroundImageFix" result="effect1_dropShadow"/>
<feColorMatrix in="SourceAlpha" type="matrix" values="0 0 0 0 0 0 0 0 0 0 0 0 0 0 0 0 0 0 127 0"/>
<feOffset dy="2"/>
<feGaussianBlur stdDeviation="2"/>
<feColorMatrix type="matrix" values="0 0 0 0 0.156863 0 0 0 0 0.160784 0 0 0 0 0.239216 0 0 0 0.04 0"/>
<feBlend mode="normal" in2="effect1_dropShadow" result="effect2_dropShadow"/>
<feBlend mode="normal" in="SourceGraphic" in2="effect2_dropShadow" result="shape"/>
</filter>
<filter id="filter8_dd" x="414" y="84" width="281" height="205" filterUnits="userSpaceOnUse" color-interpolation-filters="sRGB">
<feFlood flood-opacity="0" result="BackgroundImageFix"/>
<feColorMatrix in="SourceAlpha" type="matrix" values="0 0 0 0 0 0 0 0 0 0 0 0 0 0 0 0 0 0 127 0"/>
<feOffset dy="4"/>
<feGaussianBlur stdDeviation="4"/>
<feColorMatrix type="matrix" values="0 0 0 0 0.376471 0 0 0 0 0.380392 0 0 0 0 0.439216 0 0 0 0.16 0"/>
<feBlend mode="normal" in2="BackgroundImageFix" result="effect1_dropShadow"/>
<feColorMatrix in="SourceAlpha" type="matrix" values="0 0 0 0 0 0 0 0 0 0 0 0 0 0 0 0 0 0 127 0"/>
<feOffset/>
<feGaussianBlur stdDeviation="1"/>
<feColorMatrix type="matrix" values="0 0 0 0 0.156863 0 0 0 0 0.160784 0 0 0 0 0.239216 0 0 0 0.04 0"/>
<feBlend mode="normal" in2="effect1_dropShadow" result="effect2_dropShadow"/>
<feBlend mode="normal" in="SourceGraphic" in2="effect2_dropShadow" result="shape"/>
</filter>
<linearGradient id="paint0_linear" x1="129.173" y1="137" x2="251.683" y2="358.271" gradientUnits="userSpaceOnUse">
<stop/>
<stop offset="1" stop-opacity="0"/>
</linearGradient>
<linearGradient id="paint1_linear" x1="824" y1="70" x2="824" y2="186" gradientUnits="userSpaceOnUse">
<stop stop-color="white"/>
<stop offset="1" stop-color="white" stop-opacity="0"/>
</linearGradient>
<linearGradient id="paint2_linear" x1="798.5" y1="88" x2="798.5" y2="309" gradientUnits="userSpaceOnUse">
<stop stop-color="white"/>
<stop offset="1" stop-color="white" stop-opacity="0"/>
</linearGradient>
</defs>
</svg>
