<svg width="52" height="52" viewBox="0 0 52 52" fill="none" xmlns="http://www.w3.org/2000/svg">
<rect width="52" height="52" rx="8" fill="#E5F6FF"/>
<path d="M26 15.875C22.8969 15.875 19.9781 17.0844 17.7812 19.2812C15.5844 21.475 14.375 24.3938 14.375 27.5C14.375 30.8 15.7656 33.9219 18.2063 36.125H33.7938C35.0013 35.0362 35.9663 33.7057 36.6264 32.2198C37.2864 30.734 37.6267 29.1259 37.625 27.5C37.625 24.3969 36.4156 21.4781 34.2188 19.2812C32.025 17.0844 29.1062 15.875 26 15.875ZM25.0625 17.25C25.0625 17.1125 25.175 17 25.3125 17H26.6875C26.825 17 26.9375 17.1125 26.9375 17.25V19.75C26.9375 19.8875 26.825 20 26.6875 20H25.3125C25.175 20 25.0625 19.8875 25.0625 19.75V17.25ZM18.4375 28.1875C18.4375 28.325 18.325 28.4375 18.1875 28.4375H15.6875C15.55 28.4375 15.4375 28.325 15.4375 28.1875V26.8125C15.4375 26.675 15.55 26.5625 15.6875 26.5625H18.1875C18.325 26.5625 18.4375 26.675 18.4375 26.8125V28.1875ZM21.2719 21.8L20.3 22.7719C20.253 22.8184 20.1896 22.8445 20.1234 22.8445C20.0573 22.8445 19.9939 22.8184 19.9469 22.7719L18.1781 21.0031C18.1316 20.9561 18.1055 20.8927 18.1055 20.8266C18.1055 20.7604 18.1316 20.697 18.1781 20.65L19.15 19.6781C19.2469 19.5813 19.4062 19.5813 19.5031 19.6781L21.2719 21.4469C21.3688 21.5437 21.3688 21.7031 21.2719 21.8ZM30.3687 24.4094L27.7281 27.05C27.8844 27.6344 27.7344 28.2812 27.275 28.7406C27.1126 28.9033 26.9197 29.0324 26.7074 29.1205C26.495 29.2086 26.2674 29.2539 26.0375 29.2539C25.8076 29.2539 25.58 29.2086 25.3676 29.1205C25.1553 29.0324 24.9624 28.9033 24.8 28.7406C24.6373 28.5782 24.5082 28.3853 24.4201 28.173C24.3321 27.9606 24.2867 27.733 24.2867 27.5031C24.2867 27.2732 24.3321 27.0456 24.4201 26.8333C24.5082 26.6209 24.6373 26.428 24.8 26.2656C25.017 26.048 25.2876 25.8915 25.5844 25.8119C25.8813 25.7323 26.1939 25.7325 26.4906 25.8125L29.1313 23.1719C29.2281 23.075 29.3875 23.075 29.4844 23.1719L30.3687 24.0562C30.4656 24.1531 30.4656 24.3125 30.3687 24.4094ZM31.7125 22.7719L30.7406 21.8C30.6941 21.753 30.668 21.6896 30.668 21.6234C30.668 21.5573 30.6941 21.4939 30.7406 21.4469L32.5094 19.6781C32.6062 19.5813 32.7656 19.5813 32.8625 19.6781L33.8344 20.65C33.9312 20.7469 33.9312 20.9062 33.8344 21.0031L32.0656 22.7719C32.0186 22.8184 31.9552 22.8445 31.8891 22.8445C31.8229 22.8445 31.7595 22.8184 31.7125 22.7719ZM36.4375 26.8125V28.1875C36.4375 28.325 36.325 28.4375 36.1875 28.4375H33.6875C33.55 28.4375 33.4375 28.325 33.4375 28.1875V26.8125C33.4375 26.675 33.55 26.5625 33.6875 26.5625H36.1875C36.325 26.5625 36.4375 26.675 36.4375 26.8125Z" fill="#E5F6FF"/>
<path d="M29.4836 23.1719C29.4366 23.1253 29.3732 23.0992 29.3071 23.0992C29.2409 23.0992 29.1775 23.1253 29.1305 23.1719L26.4899 25.8125C25.9055 25.6562 25.2586 25.8062 24.7992 26.2656C24.6365 26.428 24.5074 26.6209 24.4194 26.8333C24.3313 27.0456 24.2859 27.2732 24.2859 27.5031C24.2859 27.733 24.3313 27.9606 24.4194 28.173C24.5074 28.3853 24.6365 28.5782 24.7992 28.7406C24.9616 28.9033 25.1545 29.0324 25.3669 29.1205C25.5792 29.2086 25.8068 29.2539 26.0367 29.2539C26.2666 29.2539 26.4942 29.2086 26.7066 29.1205C26.9189 29.0324 27.1118 28.9033 27.2742 28.7406C27.4919 28.5236 27.6484 28.253 27.728 27.9562C27.8075 27.6593 27.8073 27.3467 27.7274 27.05L30.368 24.4094C30.4649 24.3125 30.4649 24.1531 30.368 24.0562L29.4836 23.1719ZM25.3117 20H26.6867C26.8242 20 26.9367 19.8875 26.9367 19.75V17.25C26.9367 17.1125 26.8242 17 26.6867 17H25.3117C25.1742 17 25.0617 17.1125 25.0617 17.25V19.75C25.0617 19.8875 25.1742 20 25.3117 20Z" fill="#0E95F6"/>
<path d="M38.9 22.05C38.1972 20.3866 37.1784 18.8753 35.9 17.6C34.6247 16.3216 33.1134 15.3028 31.45 14.6C29.7219 13.8687 27.8906 13.5 26 13.5C24.1094 13.5 22.2781 13.8687 20.55 14.6C18.8866 15.3028 17.3753 16.3216 16.1 17.6C14.8216 18.8753 13.8028 20.3866 13.1 22.05C12.3687 23.7781 12 25.6094 12 27.5C12 31.6469 13.8219 35.5531 16.9969 38.2219L17.05 38.2656C17.2313 38.4156 17.4594 38.5 17.6937 38.5H34.3094C34.5438 38.5 34.7719 38.4156 34.9531 38.2656L35.0063 38.2219C38.1781 35.5531 40 31.6469 40 27.5C40 25.6094 39.6281 23.7781 38.9 22.05ZM33.7938 36.125H18.2063C16.9987 35.0362 16.0336 33.7057 15.3736 32.2198C14.7136 30.734 14.3733 29.1259 14.375 27.5C14.375 24.3938 15.5844 21.475 17.7812 19.2812C19.9781 17.0844 22.8969 15.875 26 15.875C29.1063 15.875 32.025 17.0844 34.2188 19.2812C36.4156 21.4781 37.625 24.3969 37.625 27.5C37.625 30.8 36.2344 33.9219 33.7938 36.125Z" fill="#0E95F6"/>
<path d="M33.8344 20.65L32.8625 19.6781C32.8155 19.6316 32.7521 19.6055 32.6859 19.6055C32.6198 19.6055 32.5564 19.6316 32.5094 19.6781L30.7406 21.4468C30.6941 21.4938 30.668 21.5573 30.668 21.6234C30.668 21.6895 30.6941 21.753 30.7406 21.8L31.7125 22.7718C31.8094 22.8687 31.9688 22.8687 32.0656 22.7718L33.8344 21.0031C33.9312 20.9062 33.9312 20.7468 33.8344 20.65ZM33.4375 26.8124V28.1874C33.4375 28.3249 33.55 28.4374 33.6875 28.4374H36.1875C36.325 28.4374 36.4375 28.3249 36.4375 28.1874V26.8124C36.4375 26.6749 36.325 26.5624 36.1875 26.5624H33.6875C33.55 26.5624 33.4375 26.6749 33.4375 26.8124ZM19.5031 19.6781C19.4561 19.6316 19.3927 19.6055 19.3266 19.6055C19.2604 19.6055 19.197 19.6316 19.15 19.6781L18.1781 20.65C18.1316 20.697 18.1055 20.7604 18.1055 20.8265C18.1055 20.8926 18.1316 20.9561 18.1781 21.0031L19.9469 22.7718C20.0437 22.8687 20.2031 22.8687 20.3 22.7718L21.2719 21.8C21.3688 21.7031 21.3688 21.5437 21.2719 21.4468L19.5031 19.6781ZM18.1875 26.5624H15.6875C15.55 26.5624 15.4375 26.6749 15.4375 26.8124V28.1874C15.4375 28.3249 15.55 28.4374 15.6875 28.4374H18.1875C18.325 28.4374 18.4375 28.3249 18.4375 28.1874V26.8124C18.4375 26.6749 18.325 26.5624 18.1875 26.5624Z" fill="#0E95F6"/>
</svg>
