<svg width="52" height="52" viewBox="0 0 52 52" fill="none" xmlns="http://www.w3.org/2000/svg">
<rect width="52" height="52" rx="8" fill="#E3FFF1"/>
<path fill-rule="evenodd" clip-rule="evenodd" d="M38.0788 39.0022L38.0858 39.0094C38.4659 39.397 38.9193 39.5624 39.3647 39.5357C39.7994 39.5096 40.1932 39.3031 40.4812 39.0094C40.7692 38.7157 40.9717 38.3141 40.9973 37.8707C41.0235 37.4165 40.8613 36.9541 40.4812 36.5665L36.1994 32.1997C39.4875 27.4433 39.0457 20.8249 34.8731 16.5696C30.2062 11.8101 22.6396 11.8101 17.9726 16.5696C17.5082 17.0432 17.0898 17.5464 16.7176 18.0732C16.1509 18.8753 16.4609 19.937 17.2381 20.4112C18.0673 20.9172 19.0852 20.597 19.6265 19.8779C19.8529 19.5771 20.1012 19.2878 20.3715 19.0121C23.7155 15.6018 29.1371 15.6018 32.4811 19.0121C35.8251 22.4224 35.8251 27.9516 32.4811 31.362C29.1371 34.7723 23.7155 34.7723 20.3715 31.362C20.312 31.3013 20.2536 31.24 20.1963 31.1781C19.6959 30.6375 18.9072 30.3794 18.1771 30.6669C17.1633 31.0661 16.6996 32.3775 17.4858 33.279C17.642 33.4581 17.8043 33.6337 17.9726 33.8053C22.3189 38.2378 29.1795 38.5423 33.8717 34.7192L36.275 37.1433L36.2783 37.1467L38.0788 39.0022Z" fill="#3BC882"/>
<path fill-rule="evenodd" clip-rule="evenodd" d="M28.5431 28.7472L26.7988 24.554L25.9069 29.2439C25.5464 31.1398 23.0856 31.5878 22.1042 29.9362L20.6413 27.4746H12.5258C11.6831 27.4746 11 26.778 11 25.9186C11 25.0592 11.6831 24.3626 12.5258 24.3626H21.194C21.918 24.3626 22.5893 24.7482 22.9645 25.3796L23.3955 26.1048L24.4149 20.7444C24.8039 18.6988 27.555 18.4036 28.353 20.3218L31.3523 27.5318C31.6814 28.3229 31.3193 29.2364 30.5436 29.572C29.7679 29.9076 28.8722 29.5384 28.5431 28.7472Z" fill="#3BC882"/>
</svg>
