<svg width="52" height="52" viewBox="0 0 52 52" fill="none" xmlns="http://www.w3.org/2000/svg">
<rect width="52" height="52" rx="8" fill="#E5F6FF"/>
<path d="M31.8285 23.4552V28.367C31.0767 29.7551 29.6017 31.3988 28.1508 32.0061V23.4552C28.1508 22.7419 28.7291 22.1636 29.4425 22.1636H30.5369C31.2502 22.1636 31.8285 22.7419 31.8285 23.4552Z" fill="#0E95F6"/>
<path d="M23.0897 32.4108C23.697 32.5457 24.3043 32.6132 24.9454 32.6132C25.5864 32.6132 26.1938 32.5457 26.8011 32.4108V28.3763C26.8011 27.6629 26.2228 27.0846 25.5094 27.0846H24.3813C23.668 27.0846 23.0897 27.6629 23.0897 28.3763V32.4108Z" fill="#0E95F6"/>
<path d="M21.7446 26.3521V32.0061C20.2938 31.3988 19.0116 30.4203 18.0669 29.1719V26.3521C18.0669 25.6388 18.6452 25.0605 19.3586 25.0605H20.4529C21.1663 25.0605 21.7446 25.6388 21.7446 26.3521Z" fill="#0E95F6"/>
<path fill-rule="evenodd" clip-rule="evenodd" d="M16.1018 16.1023C11.4101 20.794 11.4101 28.4008 16.1018 33.0925C20.5683 37.559 27.6767 37.7734 32.3968 33.7357L37.0779 38.4168L37.0833 38.4114L37.089 38.4171C38.3255 39.6536 40.1803 37.7988 38.9438 36.5622L34.2002 31.8186C37.7489 27.1116 37.3795 20.3898 33.092 16.1023C28.4003 11.4106 20.7935 11.4106 16.1018 16.1023ZM17.9602 17.9567C21.6275 14.2893 27.5734 14.2893 31.2407 17.9567C34.9081 21.624 34.9081 27.5699 31.2407 31.2372C27.5734 34.9045 21.6275 34.9045 17.9602 31.2372C14.2929 27.5699 14.2929 21.624 17.9602 17.9567Z" fill="#0E95F6"/>
</svg>
