<svg width="52" height="52" viewBox="0 0 52 52" fill="none" xmlns="http://www.w3.org/2000/svg">
<rect width="52" height="52" rx="8" fill="#E3FFF1"/>
<path d="M37.0906 15.3094L26.4719 11.6906C26.3437 11.6469 26.1719 11.625 26 11.625C25.8281 11.625 25.6562 11.6469 25.5281 11.6906L14.9094 15.3094C14.65 15.3969 14.4375 15.6969 14.4375 15.9719V31.0469C14.4375 31.3219 14.6156 31.6844 14.8313 31.8562L25.6031 40.25C25.7125 40.3344 25.8531 40.3781 25.9969 40.3781C26.1406 40.3781 26.2844 40.3344 26.3906 40.25L37.1625 31.8562C37.3781 31.6875 37.5562 31.325 37.5562 31.0469V15.9719C37.5625 15.6969 37.35 15.4 37.0906 15.3094ZM35.3125 30.4469L26 37.7031L16.6875 30.4469V17.0844L26 13.9094L35.3125 17.0844V30.4469Z" fill="#3BC882"/>
<path d="M24.3979 24.0969C24.3979 24.7607 24.6616 25.3974 25.1311 25.8669C25.6005 26.3363 26.2372 26.6 26.901 26.6C27.5649 26.6 28.2016 26.3363 28.671 25.8669C29.1404 25.3974 29.4042 24.7607 29.4042 24.0969C29.4042 23.433 29.1404 22.7963 28.671 22.3269C28.2016 21.8575 27.5649 21.5938 26.901 21.5938C26.2372 21.5938 25.6005 21.8575 25.1311 22.3269C24.6616 22.7963 24.3979 23.433 24.3979 24.0969Z" fill="#E3FFF1"/>
<path d="M16.6875 17.0852V30.4477L26 37.7039L35.3125 30.4477V17.0852L26 13.9102L16.6875 17.0852ZM30.0844 20.9133C31.8438 22.6727 31.8438 25.5227 30.0844 27.282C28.5688 28.7977 26.2406 29.007 24.5031 27.9102L22.0813 30.332C22.0343 30.3786 21.9708 30.4047 21.9047 30.4047C21.8386 30.4047 21.7751 30.3786 21.7281 30.332L20.6656 29.2695C20.6191 29.2225 20.593 29.1591 20.593 29.093C20.593 29.0268 20.6191 28.9634 20.6656 28.9164L23.0875 26.4945C21.9906 24.7539 22.2 22.4289 23.7156 20.9133C25.475 19.1539 28.325 19.1539 30.0844 20.9133Z" fill="#E3FFF1"/>
<path d="M23.0868 26.4945L20.6649 28.9164C20.6184 28.9634 20.5923 29.0268 20.5923 29.093C20.5923 29.1591 20.6184 29.2225 20.6649 29.2695L21.7274 30.332C21.8243 30.4289 21.9836 30.4289 22.0805 30.332L24.5024 27.9102C26.2399 29.007 28.568 28.7977 30.0836 27.282C31.843 25.5227 31.843 22.6727 30.0836 20.9133C28.3243 19.1539 25.4743 19.1539 23.7149 20.9133C22.1993 22.4289 21.9899 24.7539 23.0868 26.4945ZM25.1305 22.3289C25.363 22.0964 25.6389 21.9119 25.9427 21.7861C26.2464 21.6602 26.572 21.5954 26.9008 21.5954C27.2296 21.5954 27.5552 21.6602 27.8589 21.7861C28.1627 21.9119 28.4387 22.0964 28.6711 22.3289C28.9037 22.5614 29.0881 22.8373 29.214 23.1411C29.3398 23.4448 29.4046 23.7704 29.4046 24.0992C29.4046 24.428 29.3398 24.7536 29.214 25.0573C29.0881 25.3611 28.9037 25.6371 28.6711 25.8695C27.693 26.8477 26.1086 26.8477 25.1305 25.8695C24.1524 24.8914 24.1524 23.307 25.1305 22.3289Z" fill="#3BC882"/>
</svg>
