<svg width="52" height="52" viewBox="0 0 52 52" fill="none" xmlns="http://www.w3.org/2000/svg">
<rect width="52" height="52" rx="8" fill="#E5F6FF"/>
<path d="M20.625 28.2812C20.625 28.1094 20.7656 27.9688 20.9375 27.9688H22.3125C22.4844 27.9688 22.625 28.1094 22.625 28.2812V33.625H33.7188V27.5938C33.7188 23.3313 30.2625 19.875 26 19.875C21.7375 19.875 18.2812 23.3313 18.2812 27.5938V33.625H20.625V28.2812Z" fill="#E5F6FF"/>
<path d="M16.7782 19.7031L18.0157 18.4656C18.1125 18.3687 18.1125 18.2094 18.0157 18.1125L15.8938 15.9906C15.8468 15.9441 15.7833 15.918 15.7172 15.918C15.6511 15.918 15.5876 15.9441 15.5407 15.9906L14.3032 17.2281C14.2566 17.2751 14.2305 17.3386 14.2305 17.4047C14.2305 17.4708 14.2566 17.5343 14.3032 17.5813L16.425 19.7031C16.5219 19.8 16.6782 19.8 16.7782 19.7031ZM37.7032 17.2281L36.4657 15.9906C36.4187 15.9441 36.3552 15.918 36.2891 15.918C36.223 15.918 36.1595 15.9441 36.1125 15.9906L33.9907 18.1125C33.9441 18.1595 33.918 18.2229 33.918 18.2891C33.918 18.3552 33.9441 18.4186 33.9907 18.4656L35.2282 19.7031C35.325 19.8 35.4844 19.8 35.5813 19.7031L37.7032 17.5813C37.8 17.4813 37.8 17.325 37.7032 17.2281ZM25.125 15.625H26.875C27.0125 15.625 27.125 15.5125 27.125 15.375V12.375C27.125 12.2375 27.0125 12.125 26.875 12.125H25.125C24.9875 12.125 24.875 12.2375 24.875 12.375V15.375C24.875 15.5125 24.9875 15.625 25.125 15.625ZM36 37.875H16C15.4469 37.875 15 38.3219 15 38.875V39.625C15 39.7625 15.1125 39.875 15.25 39.875H36.75C36.8875 39.875 37 39.7625 37 39.625V38.875C37 38.3219 36.5532 37.875 36 37.875ZM16.0313 34.875C16.0313 35.4281 16.4782 35.875 17.0313 35.875H34.9688C35.5219 35.875 35.9688 35.4281 35.9688 34.875V27.5938C35.9688 22.0875 31.5063 17.625 26 17.625C20.4938 17.625 16.0313 22.0875 16.0313 27.5938V34.875ZM18.2813 27.5938C18.2813 23.3313 21.7375 19.875 26 19.875C30.2625 19.875 33.7188 23.3313 33.7188 27.5938V33.625H22.625V28.2812C22.625 28.1094 22.4844 27.9688 22.3125 27.9688H20.9375C20.7657 27.9688 20.625 28.1094 20.625 28.2812V33.625H18.2813V27.5938Z" fill="#0E95F6"/>
</svg>
