<svg width="52" height="52" viewBox="0 0 52 52" fill="none" xmlns="http://www.w3.org/2000/svg">
<rect width="52" height="52" rx="8" fill="#E3FFF1"/>
<path d="M39 15H13C12.4469 15 12 15.4469 12 16V36C12 36.5531 12.4469 37 13 37H39C39.5531 37 40 36.5531 40 36V16C40 15.4469 39.5531 15 39 15ZM37.75 34.75H14.25V17.25H37.75V34.75Z" fill="#3BC882"/>
<path d="M14.25 34.75H37.75V17.25H14.25V34.75ZM16.0125 30.6719L22.7281 23.9531C22.825 23.8562 22.9844 23.8562 23.0813 23.9531L26.6562 27.5312L34.6094 19.575C34.7062 19.4781 34.8656 19.4781 34.9625 19.575L36.1125 20.725C36.2094 20.8219 36.2094 20.9813 36.1125 21.0781L26.8312 30.3656C26.7843 30.4122 26.7208 30.4382 26.6547 30.4382C26.5886 30.4382 26.5251 30.4122 26.4781 30.3656L22.9031 26.7875L17.5125 32.1781C17.4655 32.2247 17.4021 32.2507 17.3359 32.2507C17.2698 32.2507 17.2064 32.2247 17.1594 32.1781L16.0125 31.025C15.966 30.978 15.9399 30.9146 15.9399 30.8484C15.9399 30.7823 15.966 30.7189 16.0125 30.6719Z" fill="#E3FFF1"/>
<path d="M17.1592 32.1777C17.2561 32.2746 17.4154 32.2746 17.5123 32.1777L22.9029 26.7871L26.4779 30.3652C26.5748 30.4621 26.7342 30.4621 26.8311 30.3652L36.1123 21.0777C36.2092 20.9808 36.2092 20.8215 36.1123 20.7246L34.9623 19.5746C34.9153 19.5281 34.8519 19.502 34.7858 19.502C34.7196 19.502 34.6562 19.5281 34.6092 19.5746L26.6561 27.5308L23.0811 23.9527C23.0341 23.9062 22.9706 23.8801 22.9045 23.8801C22.8384 23.8801 22.7749 23.9062 22.7279 23.9527L16.0123 30.6715C15.9658 30.7184 15.9397 30.7819 15.9397 30.848C15.9397 30.9141 15.9658 30.9776 16.0123 31.0246L17.1592 32.1777Z" fill="#3BC882"/>
</svg>
