<svg width="52" height="52" viewBox="0 0 52 52" fill="none" xmlns="http://www.w3.org/2000/svg">
<rect width="52" height="52" rx="8" fill="#E5F6FF"/>
<path fill-rule="evenodd" clip-rule="evenodd" d="M14.3117 11H22.1039C23.9329 11 25.4156 12.4827 25.4156 14.3117V22.1039C25.4156 23.9329 23.9329 25.4156 22.1039 25.4156H14.3117C12.4827 25.4156 11 23.9329 11 22.1039V14.3117C11 12.4827 12.4827 11 14.3117 11ZM14.3117 13.7273C13.9889 13.7273 13.7273 13.9889 13.7273 14.3117V22.1039C13.7273 22.4267 13.9889 22.6883 14.3117 22.6883H22.1039C22.4267 22.6883 22.6883 22.4267 22.6883 22.1039V14.3117C22.6883 13.9889 22.4267 13.7273 22.1039 13.7273H14.3117ZM29.8961 26.5844H37.6883C39.5173 26.5844 41 28.0671 41 29.8961V37.6883C41 39.5173 39.5173 41 37.6883 41H29.8961C28.0671 41 26.5844 39.5173 26.5844 37.6883V29.8961C26.5844 28.0671 28.0671 26.5844 29.8961 26.5844ZM29.8961 29.3117C29.5733 29.3117 29.3117 29.5733 29.3117 29.8961V37.6883C29.3117 38.0111 29.5733 38.2727 29.8961 38.2727H37.6883C38.0111 38.2727 38.2727 38.0111 38.2727 37.6883V29.8961C38.2727 29.5733 38.0111 29.3117 37.6883 29.3117H29.8961ZM29.8961 11H37.6883C39.5173 11 41 12.4827 41 14.3117V22.1039C41 23.9329 39.5173 25.4156 37.6883 25.4156H29.8961C28.0671 25.4156 26.5844 23.9329 26.5844 22.1039V14.3117C26.5844 12.4827 28.0671 11 29.8961 11ZM29.8961 13.7273C29.5733 13.7273 29.3117 13.9889 29.3117 14.3117V22.1039C29.3117 22.4267 29.5733 22.6883 29.8961 22.6883H37.6883C38.0111 22.6883 38.2727 22.4267 38.2727 22.1039V14.3117C38.2727 13.9889 38.0111 13.7273 37.6883 13.7273H29.8961ZM14.3117 26.5844H22.1039C23.9329 26.5844 25.4156 28.0671 25.4156 29.8961V37.6883C25.4156 39.5173 23.9329 41 22.1039 41H14.3117C12.4827 41 11 39.5173 11 37.6883V29.8961C11 28.0671 12.4827 26.5844 14.3117 26.5844ZM14.3117 29.3117C13.9889 29.3117 13.7273 29.5733 13.7273 29.8961V37.6883C13.7273 38.0111 13.9889 38.2727 14.3117 38.2727H22.1039C22.4267 38.2727 22.6883 38.0111 22.6883 37.6883V29.8961C22.6883 29.5733 22.4267 29.3117 22.1039 29.3117H14.3117Z" fill="#0E95F6"/>
</svg>
