<svg width="603" height="511" viewBox="0 0 603 511" fill="none" xmlns="http://www.w3.org/2000/svg">
    <rect y="30" width="587" height="440" rx="8" fill="#E5F6FF"/>
    <mask id="mask0" mask-type="alpha" maskUnits="userSpaceOnUse" x="48" y="78" width="497" height="433">
        <rect x="48" y="78" width="497" height="433" rx="8" fill="url(#paint0_linear)"/>
    </mask>
    <g mask="url(#mask0)">
        <g filter="url(#filter0_dd)">
            <mask id="mask1" mask-type="alpha" maskUnits="userSpaceOnUse" x="52" y="80" width="493" height="440">
                <path fill-rule="evenodd" clip-rule="evenodd" d="M52 88C52 83.5817 55.5817 80 60 80H537C541.418 80 545 83.5817 545 88V512C545 516.418 541.418 520 537 520H60C55.5817 520 52 516.418 52 512V88Z" fill="white"/>
            </mask>
            <g mask="url(#mask1)">
                <path fill-rule="evenodd" clip-rule="evenodd" d="M52 88C52 83.5817 55.5817 80 60 80H537C541.418 80 545 83.5817 545 88V512C545 516.418 541.418 520 537 520H60C55.5817 520 52 516.418 52 512V88Z" fill="#FAFAFC"/>
                <g filter="url(#filter1_dd)">
                    <rect x="52" y="104" width="64" height="416" fill="white"/>
                </g>
                <rect x="68" y="336" width="32" height="32" rx="8" fill="#F2F2F5"/>
                <rect x="68" y="288" width="32" height="32" rx="8" fill="#F2F2F5"/>
                <rect x="68" y="240" width="32" height="32" rx="8" fill="#F2F2F5"/>
                <rect x="68" y="192" width="32" height="32" rx="8" fill="#E3FFF1"/>
                <circle cx="84" cy="208" r="7" fill="#3BC882"/>
                <path d="M84.5011 128C84.2251 127.992 84 128.216 84 128.493L84 135.254C84 135.528 84.22 135.749 84.4925 135.769C88.8296 136.085 92.25 139.705 92.25 144.125C92.25 148.545 88.8296 152.165 84.4925 152.482C84.22 152.501 84 152.723 84 152.996L84 159.507C84 159.784 84.2251 160.008 84.5011 160C93.1058 159.735 100 152.673 100 144C100 135.327 93.1058 128.265 84.5011 128Z" fill="#39D98A"/>
                <path d="M84.0001 138.751C83.9586 138.75 83.9169 138.75 83.8751 138.75C81.0447 138.75 78.7501 141.045 78.7501 143.875C78.7501 146.705 81.0447 149 83.8751 149C83.9169 149 83.9586 148.999 84.0001 148.999L84.0001 138.751Z" fill="#223C37"/>
                <path d="M84.0001 148.999C86.7728 148.933 89.0001 146.664 89.0001 143.875C89.0001 141.087 86.7728 138.818 84.0001 138.752L84.0001 148.999Z" fill="#376C66"/>
                <g filter="url(#filter2_dd)">
                    <path fill-rule="evenodd" clip-rule="evenodd" d="M52 80H545V104H52V80Z" fill="white"/>
                </g>
            </g>
        </g>
        <path fill-rule="evenodd" clip-rule="evenodd" d="M67 94C68.6569 94 70 92.6569 70 91C70 89.3431 68.6569 88 67 88C65.3431 88 64 89.3431 64 91C64 92.6569 65.3431 94 67 94Z" fill="#FF5C5C"/>
        <path fill-rule="evenodd" clip-rule="evenodd" d="M77 94C78.6569 94 80 92.6569 80 91C80 89.3431 78.6569 88 77 88C75.3431 88 74 89.3431 74 91C74 92.6569 75.3431 94 77 94Z" fill="#FDDD48"/>
        <path fill-rule="evenodd" clip-rule="evenodd" d="M87 94C88.6569 94 90 92.6569 90 91C90 89.3431 88.6569 88 87 88C85.3431 88 84 89.3431 84 91C84 92.6569 85.3431 94 87 94Z" fill="#39D98A"/>
    </g>
    <g filter="url(#filter3_dd)">
        <rect x="275" y="258" width="296" height="120" rx="20" fill="white"/>
        <path fill-rule="evenodd" clip-rule="evenodd" d="M335 354C354.882 354 371 337.882 371 318C371 298.118 354.882 282 335 282C315.118 282 299 298.118 299 318C299 337.882 315.118 354 335 354Z" fill="#FFFEE6"/>
        <path d="M345.399 326.062L335.649 309.188C335.504 308.937 335.253 308.812 335 308.812C334.747 308.812 334.494 308.937 334.351 309.188L324.601 326.062C324.313 326.564 324.673 327.188 325.25 327.188H344.75C345.327 327.188 345.688 326.564 345.399 326.062ZM334.25 315.75C334.25 315.647 334.334 315.562 334.438 315.562H335.563C335.666 315.562 335.75 315.647 335.75 315.75V320.062C335.75 320.166 335.666 320.25 335.563 320.25H334.438C334.334 320.25 334.25 320.166 334.25 320.062V315.75ZM335 324C334.706 323.994 334.425 323.873 334.219 323.662C334.013 323.452 333.898 323.169 333.898 322.875C333.898 322.581 334.013 322.298 334.219 322.088C334.425 321.877 334.706 321.756 335 321.75C335.294 321.756 335.575 321.877 335.781 322.088C335.987 322.298 336.102 322.581 336.102 322.875C336.102 323.169 335.987 323.452 335.781 323.662C335.575 323.873 335.294 323.994 335 324Z" fill="#FFCC00"/>
        <rect x="395" y="331" width="64" height="8" rx="4" fill="#EBEBF0"/>
        <rect x="395" y="316" width="144" height="8" rx="4" fill="#EBEBF0"/>
        <rect x="395" y="292" width="68" height="16" rx="8" fill="#C7C9D9"/>
    </g>
    <g filter="url(#filter4_dd)">
        <rect x="275" y="2" width="296" height="120" rx="20" fill="white"/>
        <path fill-rule="evenodd" clip-rule="evenodd" d="M335 98C354.882 98 371 81.8823 371 62C371 42.1178 354.882 26 335 26C315.118 26 299 42.1178 299 62C299 81.8823 315.118 98 335 98Z" fill="#E3FFF1"/>
        <path d="M335 51.5C329.202 51.5 324.5 56.2016 324.5 62C324.5 67.7984 329.202 72.5 335 72.5C340.798 72.5 345.5 67.7984 345.5 62C345.5 56.2016 340.798 51.5 335 51.5ZM339.535 58.5711L334.599 65.4148C334.53 65.5111 334.439 65.5896 334.334 65.6437C334.229 65.6978 334.112 65.7261 333.993 65.7261C333.875 65.7261 333.758 65.6978 333.653 65.6437C333.547 65.5896 333.456 65.5111 333.388 65.4148L330.465 61.3648C330.376 61.2406 330.465 61.0672 330.617 61.0672H331.716C331.955 61.0672 332.183 61.182 332.323 61.3789L333.992 63.6945L337.677 58.5852C337.817 58.3906 338.042 58.2734 338.284 58.2734H339.383C339.535 58.2734 339.624 58.4469 339.535 58.5711Z" fill="#39D98A"/>
        <rect x="395" y="75" width="64" height="8" rx="4" fill="#EBEBF0"/>
        <rect x="395" y="60" width="144" height="8" rx="4" fill="#EBEBF0"/>
        <rect x="395" y="36" width="68" height="16" rx="8" fill="#C7C9D9"/>
    </g>
    <g filter="url(#filter5_dd)">
        <rect x="275" y="386" width="296" height="120" rx="20" fill="white"/>
        <path fill-rule="evenodd" clip-rule="evenodd" d="M335 482C354.882 482 371 465.882 371 446C371 426.118 354.882 410 335 410C315.118 410 299 426.118 299 446C299 465.882 315.118 482 335 482Z" fill="#E3FFF1"/>
        <path d="M335 435.5C329.202 435.5 324.5 440.202 324.5 446C324.5 451.798 329.202 456.5 335 456.5C340.798 456.5 345.5 451.798 345.5 446C345.5 440.202 340.798 435.5 335 435.5ZM339.535 442.571L334.599 449.415C334.53 449.511 334.439 449.59 334.334 449.644C334.229 449.698 334.112 449.726 333.993 449.726C333.875 449.726 333.758 449.698 333.653 449.644C333.547 449.59 333.456 449.511 333.388 449.415L330.465 445.365C330.376 445.241 330.465 445.067 330.617 445.067H331.716C331.955 445.067 332.183 445.182 332.323 445.379L333.992 447.695L337.677 442.585C337.817 442.391 338.042 442.273 338.284 442.273H339.383C339.535 442.273 339.624 442.447 339.535 442.571Z" fill="#39D98A"/>
        <rect x="395" y="459" width="64" height="8" rx="4" fill="#EBEBF0"/>
        <rect x="395" y="444" width="144" height="8" rx="4" fill="#EBEBF0"/>
        <rect x="395" y="420" width="68" height="16" rx="8" fill="#C7C9D9"/>
    </g>
    <g filter="url(#filter6_dd)">
        <rect x="299" y="130" width="296" height="120" rx="20" fill="white"/>
        <path fill-rule="evenodd" clip-rule="evenodd" d="M359 226C378.882 226 395 209.882 395 190C395 170.118 378.882 154 359 154C339.118 154 323 170.118 323 190C323 209.882 339.118 226 359 226Z" fill="#FFE6E6"/>
        <path d="M366.549 188.998C366.094 187.974 365.433 187.054 364.606 186.298L363.924 185.672C363.901 185.651 363.873 185.637 363.843 185.629C363.813 185.622 363.781 185.622 363.751 185.63C363.721 185.637 363.693 185.652 363.671 185.673C363.648 185.694 363.63 185.72 363.62 185.749L363.315 186.623C363.125 187.172 362.776 187.732 362.281 188.283C362.248 188.318 362.211 188.327 362.185 188.33C362.159 188.332 362.12 188.327 362.084 188.295C362.052 188.266 362.035 188.224 362.037 188.182C362.124 186.771 361.702 185.18 360.779 183.448C360.015 182.009 358.953 180.886 357.627 180.103L356.659 179.534C356.532 179.459 356.37 179.557 356.377 179.705L356.429 180.83C356.464 181.598 356.375 182.278 356.164 182.843C355.906 183.534 355.536 184.177 355.062 184.753C354.733 185.154 354.36 185.516 353.949 185.834C352.961 186.593 352.157 187.567 351.598 188.681C351.041 189.805 350.751 191.043 350.75 192.298C350.75 193.404 350.968 194.475 351.399 195.485C351.816 196.458 352.417 197.34 353.169 198.084C353.928 198.834 354.809 199.425 355.791 199.835C356.809 200.262 357.887 200.477 359 200.477C360.113 200.477 361.191 200.262 362.209 199.837C363.188 199.43 364.079 198.835 364.831 198.087C365.591 197.337 366.186 196.46 366.601 195.487C367.031 194.48 367.252 193.396 367.25 192.3C367.25 191.156 367.016 190.045 366.549 188.998Z" fill="#FF3B3B"/>
        <rect x="419" y="203" width="64" height="8" rx="4" fill="#EBEBF0"/>
        <rect x="419" y="188" width="144" height="8" rx="4" fill="#EBEBF0"/>
        <rect x="419" y="164" width="68" height="16" rx="8" fill="#C7C9D9"/>
    </g>
    <defs>
        <filter id="filter0_dd" x="50" y="78.5" width="497" height="444" filterUnits="userSpaceOnUse" color-interpolation-filters="sRGB">
            <feFlood flood-opacity="0" result="BackgroundImageFix"/>
            <feColorMatrix in="SourceAlpha" type="matrix" values="0 0 0 0 0 0 0 0 0 0 0 0 0 0 0 0 0 0 127 0"/>
            <feOffset dy="0.5"/>
            <feGaussianBlur stdDeviation="1"/>
            <feColorMatrix type="matrix" values="0 0 0 0 0.376471 0 0 0 0 0.380392 0 0 0 0 0.439216 0 0 0 0.16 0"/>
            <feBlend mode="normal" in2="BackgroundImageFix" result="effect1_dropShadow"/>
            <feColorMatrix in="SourceAlpha" type="matrix" values="0 0 0 0 0 0 0 0 0 0 0 0 0 0 0 0 0 0 127 0"/>
            <feOffset/>
            <feGaussianBlur stdDeviation="0.5"/>
            <feColorMatrix type="matrix" values="0 0 0 0 0.156863 0 0 0 0 0.160784 0 0 0 0 0.239216 0 0 0 0.08 0"/>
            <feBlend mode="normal" in2="effect1_dropShadow" result="effect2_dropShadow"/>
            <feBlend mode="normal" in="SourceGraphic" in2="effect2_dropShadow" result="shape"/>
        </filter>
        <filter id="filter1_dd" x="48" y="102" width="72" height="424" filterUnits="userSpaceOnUse" color-interpolation-filters="sRGB">
            <feFlood flood-opacity="0" result="BackgroundImageFix"/>
            <feColorMatrix in="SourceAlpha" type="matrix" values="0 0 0 0 0 0 0 0 0 0 0 0 0 0 0 0 0 0 127 0"/>
            <feOffset dy="2"/>
            <feGaussianBlur stdDeviation="2"/>
            <feColorMatrix type="matrix" values="0 0 0 0 0.376471 0 0 0 0 0.380392 0 0 0 0 0.439216 0 0 0 0.16 0"/>
            <feBlend mode="normal" in2="BackgroundImageFix" result="effect1_dropShadow"/>
            <feColorMatrix in="SourceAlpha" type="matrix" values="0 0 0 0 0 0 0 0 0 0 0 0 0 0 0 0 0 0 127 0"/>
            <feOffset/>
            <feGaussianBlur stdDeviation="0.5"/>
            <feColorMatrix type="matrix" values="0 0 0 0 0.156863 0 0 0 0 0.160784 0 0 0 0 0.239216 0 0 0 0.04 0"/>
            <feBlend mode="normal" in2="effect1_dropShadow" result="effect2_dropShadow"/>
            <feBlend mode="normal" in="SourceGraphic" in2="effect2_dropShadow" result="shape"/>
        </filter>
        <filter id="filter2_dd" x="50" y="78.5" width="497" height="28" filterUnits="userSpaceOnUse" color-interpolation-filters="sRGB">
            <feFlood flood-opacity="0" result="BackgroundImageFix"/>
            <feColorMatrix in="SourceAlpha" type="matrix" values="0 0 0 0 0 0 0 0 0 0 0 0 0 0 0 0 0 0 127 0"/>
            <feOffset dy="0.5"/>
            <feGaussianBlur stdDeviation="1"/>
            <feColorMatrix type="matrix" values="0 0 0 0 0.376471 0 0 0 0 0.380392 0 0 0 0 0.439216 0 0 0 0.16 0"/>
            <feBlend mode="normal" in2="BackgroundImageFix" result="effect1_dropShadow"/>
            <feColorMatrix in="SourceAlpha" type="matrix" values="0 0 0 0 0 0 0 0 0 0 0 0 0 0 0 0 0 0 127 0"/>
            <feOffset/>
            <feGaussianBlur stdDeviation="0.5"/>
            <feColorMatrix type="matrix" values="0 0 0 0 0.156863 0 0 0 0 0.160784 0 0 0 0 0.239216 0 0 0 0.08 0"/>
            <feBlend mode="normal" in2="effect1_dropShadow" result="effect2_dropShadow"/>
            <feBlend mode="normal" in="SourceGraphic" in2="effect2_dropShadow" result="shape"/>
        </filter>
        <filter id="filter3_dd" x="273" y="256.5" width="300" height="124" filterUnits="userSpaceOnUse" color-interpolation-filters="sRGB">
            <feFlood flood-opacity="0" result="BackgroundImageFix"/>
            <feColorMatrix in="SourceAlpha" type="matrix" values="0 0 0 0 0 0 0 0 0 0 0 0 0 0 0 0 0 0 127 0"/>
            <feOffset dy="0.5"/>
            <feGaussianBlur stdDeviation="1"/>
            <feColorMatrix type="matrix" values="0 0 0 0 0.376471 0 0 0 0 0.380392 0 0 0 0 0.439216 0 0 0 0.16 0"/>
            <feBlend mode="normal" in2="BackgroundImageFix" result="effect1_dropShadow"/>
            <feColorMatrix in="SourceAlpha" type="matrix" values="0 0 0 0 0 0 0 0 0 0 0 0 0 0 0 0 0 0 127 0"/>
            <feOffset/>
            <feGaussianBlur stdDeviation="0.5"/>
            <feColorMatrix type="matrix" values="0 0 0 0 0.156863 0 0 0 0 0.160784 0 0 0 0 0.239216 0 0 0 0.08 0"/>
            <feBlend mode="normal" in2="effect1_dropShadow" result="effect2_dropShadow"/>
            <feBlend mode="normal" in="SourceGraphic" in2="effect2_dropShadow" result="shape"/>
        </filter>
        <filter id="filter4_dd" x="273" y="0.5" width="300" height="124" filterUnits="userSpaceOnUse" color-interpolation-filters="sRGB">
            <feFlood flood-opacity="0" result="BackgroundImageFix"/>
            <feColorMatrix in="SourceAlpha" type="matrix" values="0 0 0 0 0 0 0 0 0 0 0 0 0 0 0 0 0 0 127 0"/>
            <feOffset dy="0.5"/>
            <feGaussianBlur stdDeviation="1"/>
            <feColorMatrix type="matrix" values="0 0 0 0 0.376471 0 0 0 0 0.380392 0 0 0 0 0.439216 0 0 0 0.16 0"/>
            <feBlend mode="normal" in2="BackgroundImageFix" result="effect1_dropShadow"/>
            <feColorMatrix in="SourceAlpha" type="matrix" values="0 0 0 0 0 0 0 0 0 0 0 0 0 0 0 0 0 0 127 0"/>
            <feOffset/>
            <feGaussianBlur stdDeviation="0.5"/>
            <feColorMatrix type="matrix" values="0 0 0 0 0.156863 0 0 0 0 0.160784 0 0 0 0 0.239216 0 0 0 0.08 0"/>
            <feBlend mode="normal" in2="effect1_dropShadow" result="effect2_dropShadow"/>
            <feBlend mode="normal" in="SourceGraphic" in2="effect2_dropShadow" result="shape"/>
        </filter>
        <filter id="filter5_dd" x="273" y="384.5" width="300" height="124" filterUnits="userSpaceOnUse" color-interpolation-filters="sRGB">
            <feFlood flood-opacity="0" result="BackgroundImageFix"/>
            <feColorMatrix in="SourceAlpha" type="matrix" values="0 0 0 0 0 0 0 0 0 0 0 0 0 0 0 0 0 0 127 0"/>
            <feOffset dy="0.5"/>
            <feGaussianBlur stdDeviation="1"/>
            <feColorMatrix type="matrix" values="0 0 0 0 0.376471 0 0 0 0 0.380392 0 0 0 0 0.439216 0 0 0 0.16 0"/>
            <feBlend mode="normal" in2="BackgroundImageFix" result="effect1_dropShadow"/>
            <feColorMatrix in="SourceAlpha" type="matrix" values="0 0 0 0 0 0 0 0 0 0 0 0 0 0 0 0 0 0 127 0"/>
            <feOffset/>
            <feGaussianBlur stdDeviation="0.5"/>
            <feColorMatrix type="matrix" values="0 0 0 0 0.156863 0 0 0 0 0.160784 0 0 0 0 0.239216 0 0 0 0.08 0"/>
            <feBlend mode="normal" in2="effect1_dropShadow" result="effect2_dropShadow"/>
            <feBlend mode="normal" in="SourceGraphic" in2="effect2_dropShadow" result="shape"/>
        </filter>
        <filter id="filter6_dd" x="291" y="126" width="312" height="136" filterUnits="userSpaceOnUse" color-interpolation-filters="sRGB">
            <feFlood flood-opacity="0" result="BackgroundImageFix"/>
            <feColorMatrix in="SourceAlpha" type="matrix" values="0 0 0 0 0 0 0 0 0 0 0 0 0 0 0 0 0 0 127 0"/>
            <feOffset dy="4"/>
            <feGaussianBlur stdDeviation="4"/>
            <feColorMatrix type="matrix" values="0 0 0 0 0.376471 0 0 0 0 0.380392 0 0 0 0 0.439216 0 0 0 0.16 0"/>
            <feBlend mode="normal" in2="BackgroundImageFix" result="effect1_dropShadow"/>
            <feColorMatrix in="SourceAlpha" type="matrix" values="0 0 0 0 0 0 0 0 0 0 0 0 0 0 0 0 0 0 127 0"/>
            <feOffset/>
            <feGaussianBlur stdDeviation="1"/>
            <feColorMatrix type="matrix" values="0 0 0 0 0.156863 0 0 0 0 0.160784 0 0 0 0 0.239216 0 0 0 0.04 0"/>
            <feBlend mode="normal" in2="effect1_dropShadow" result="effect2_dropShadow"/>
            <feBlend mode="normal" in="SourceGraphic" in2="effect2_dropShadow" result="shape"/>
        </filter>
        <linearGradient id="paint0_linear" x1="130.173" y1="167" x2="252.683" y2="388.271" gradientUnits="userSpaceOnUse">
            <stop/>
            <stop offset="1" stop-opacity="0"/>
        </linearGradient>
    </defs>
</svg>
