<svg width="729" height="462" viewBox="0 0 729 462" fill="none" xmlns="http://www.w3.org/2000/svg">
<g filter="url(#filter0_dd)">
<mask id="mask0" mask-type="alpha" maskUnits="userSpaceOnUse" x="2" y="118" width="352" height="300">
<path fill-rule="evenodd" clip-rule="evenodd" d="M2 126C2 121.582 5.58172 118 10 118H346C350.418 118 354 121.582 354 126V410C354 414.418 350.418 418 346 418H9.99999C5.58171 418 2 414.418 2 410V126Z" fill="white"/>
</mask>
<g mask="url(#mask0)">
<path fill-rule="evenodd" clip-rule="evenodd" d="M2 126C2 121.582 5.58172 118 10 118H346C350.418 118 354 121.582 354 126V410C354 414.418 350.418 418 346 418H9.99999C5.58171 418 2 414.418 2 410V126Z" fill="#FAFAFC"/>
<g filter="url(#filter1_dd)">
<path fill-rule="evenodd" clip-rule="evenodd" d="M2 118H354V142H2V118Z" fill="white"/>
</g>
</g>
</g>
<g filter="url(#filter2_dd)">
<rect x="64" y="174" width="228" height="189" rx="8" fill="white"/>
<path d="M80 199C80 198.448 80.4477 198 81 198H84.3321C84.8844 198 85.3321 198.448 85.3321 199V345.999C85.3321 346.551 84.8844 346.999 84.3321 346.999H81C80.4477 346.999 80 346.551 80 345.999V199Z" fill="#F2F2F5"/>
<path d="M87.3242 228.336C87.3242 227.784 87.7719 227.336 88.3242 227.336H91.6564C92.2086 227.336 92.6564 227.784 92.6564 228.336V345.999C92.6564 346.551 92.2086 346.999 91.6564 346.999H88.3242C87.7719 346.999 87.3242 346.551 87.3242 345.999V228.336Z" fill="#F2F2F5"/>
<path d="M94.6484 276.977C94.6484 276.424 95.0962 275.977 95.6484 275.977H98.9806C99.5329 275.977 99.9806 276.424 99.9806 276.977V346.002C99.9806 346.554 99.5329 347.002 98.9806 347.002H95.6484C95.0962 347.002 94.6484 346.554 94.6484 346.002V276.977Z" fill="#F2F2F5"/>
<path d="M101.973 257.673C101.973 257.12 102.421 256.673 102.973 256.673H106.305C106.858 256.673 107.305 257.12 107.305 257.673V345.998C107.305 346.551 106.858 346.998 106.305 346.998H102.973C102.421 346.998 101.973 346.551 101.973 345.998V257.673Z" fill="#F2F2F5"/>
<path d="M109.297 282.376C109.297 281.824 109.745 281.376 110.297 281.376H113.63C114.182 281.376 114.63 281.824 114.63 282.376V345.997C114.63 346.55 114.182 346.997 113.63 346.997H110.297C109.745 346.997 109.297 346.55 109.297 345.997V282.376Z" fill="#F2F2F5"/>
<path d="M116.622 228.336C116.622 227.784 117.07 227.336 117.622 227.336H120.954C121.506 227.336 121.954 227.784 121.954 228.336V345.999C121.954 346.551 121.506 346.999 120.954 346.999H117.622C117.07 346.999 116.622 346.551 116.622 345.999V228.336Z" fill="#F2F2F5"/>
<path d="M123.946 257.673C123.946 257.12 124.394 256.673 124.946 256.673H128.278C128.831 256.673 129.278 257.12 129.278 257.673V345.998C129.278 346.551 128.831 346.998 128.278 346.998H124.946C124.394 346.998 123.946 346.551 123.946 345.998V257.673Z" fill="#F2F2F5"/>
<path d="M131.271 276.977C131.271 276.424 131.718 275.977 132.271 275.977H135.603C136.155 275.977 136.603 276.424 136.603 276.977V346.002C136.603 346.554 136.155 347.002 135.603 347.002H132.271C131.718 347.002 131.271 346.554 131.271 346.002V276.977Z" fill="#F2F2F5"/>
<path d="M138.595 298.589C138.595 298.036 139.042 297.589 139.595 297.589H142.927C143.479 297.589 143.927 298.036 143.927 298.589V345.998C143.927 346.55 143.479 346.998 142.927 346.998H139.595C139.042 346.998 138.595 346.55 138.595 345.998V298.589Z" fill="#F2F2F5"/>
<path d="M145.919 307.854C145.919 307.302 146.367 306.854 146.919 306.854H150.251C150.803 306.854 151.251 307.302 151.251 307.854V345.999C151.251 346.551 150.803 346.999 150.251 346.999H146.919C146.367 346.999 145.919 346.551 145.919 345.999V307.854Z" fill="#F2F2F5"/>
<path d="M153.244 288.552C153.244 288 153.691 287.552 154.244 287.552H157.576C158.128 287.552 158.576 288 158.576 288.552V345.997C158.576 346.55 158.128 346.997 157.576 346.997H154.244C153.691 346.997 153.244 346.55 153.244 345.997V288.552Z" fill="#F2F2F5"/>
<path d="M160.568 298.589C160.568 298.036 161.016 297.589 161.568 297.589H164.9C165.452 297.589 165.9 298.036 165.9 298.589V345.998C165.9 346.55 165.452 346.998 164.9 346.998H161.568C161.016 346.998 160.568 346.55 160.568 345.998V298.589Z" fill="#F2F2F5"/>
<path d="M167.893 259.217C167.893 258.665 168.34 258.217 168.893 258.217H172.225C172.777 258.217 173.225 258.665 173.225 259.217V345.999C173.225 346.551 172.777 346.999 172.225 346.999H168.893C168.34 346.999 167.893 346.551 167.893 345.999V259.217Z" fill="#F2F2F5"/>
<path d="M175.217 282.376C175.217 281.824 175.665 281.376 176.217 281.376H179.549C180.101 281.376 180.549 281.824 180.549 282.376V345.997C180.549 346.55 180.101 346.997 179.549 346.997H176.217C175.665 346.997 175.217 346.55 175.217 345.997V282.376Z" fill="#F2F2F5"/>
<path d="M182.541 307.081C182.541 306.529 182.989 306.081 183.541 306.081H186.873C187.425 306.081 187.873 306.529 187.873 307.081V345.998C187.873 346.55 187.425 346.998 186.873 346.998H183.541C182.989 346.998 182.541 346.55 182.541 345.998V307.081Z" fill="#F2F2F5"/>
<path d="M189.865 302.452C189.865 301.9 190.313 301.452 190.865 301.452H194.197C194.75 301.452 195.197 301.9 195.197 302.452V346.001C195.197 346.553 194.75 347.001 194.197 347.001H190.865C190.313 347.001 189.865 346.553 189.865 346.001V302.452Z" fill="#F2F2F5"/>
<path d="M197.19 288.552C197.19 288 197.638 287.552 198.19 287.552H201.522C202.074 287.552 202.522 288 202.522 288.552V345.997C202.522 346.55 202.074 346.997 201.522 346.997H198.19C197.638 346.997 197.19 346.55 197.19 345.997V288.552Z" fill="#F2F2F5"/>
<path d="M204.514 266.163C204.514 265.611 204.962 265.163 205.514 265.163H208.846C209.399 265.163 209.846 265.611 209.846 266.163V345.997C209.846 346.549 209.399 346.997 208.846 346.997H205.514C204.962 346.997 204.514 346.549 204.514 345.997V266.163Z" fill="#F2F2F5"/>
<path d="M211.838 282.376C211.838 281.824 212.286 281.376 212.838 281.376H216.171C216.723 281.376 217.171 281.824 217.171 282.376V345.997C217.171 346.55 216.723 346.997 216.171 346.997H212.838C212.286 346.997 211.838 346.55 211.838 345.997V282.376Z" fill="#F2F2F5"/>
<path d="M219.163 212.124C219.163 211.571 219.611 211.124 220.163 211.124H223.495C224.048 211.124 224.495 211.571 224.495 212.124V345.999C224.495 346.551 224.048 346.999 223.495 346.999H220.163C219.611 346.999 219.163 346.551 219.163 345.999V212.124Z" fill="#F2F2F5"/>
<path d="M226.487 239.919C226.487 239.366 226.935 238.919 227.487 238.919H230.819C231.372 238.919 231.819 239.366 231.819 239.919V346.001C231.819 346.553 231.372 347.001 230.819 347.001H227.487C226.935 347.001 226.487 346.553 226.487 346.001V239.919Z" fill="#F2F2F5"/>
<path d="M233.812 266.163C233.812 265.611 234.259 265.163 234.812 265.163H238.144C238.696 265.163 239.144 265.611 239.144 266.163V345.997C239.144 346.549 238.696 346.997 238.144 346.997H234.812C234.259 346.997 233.812 346.549 233.812 345.997V266.163Z" fill="#F2F2F5"/>
<path d="M241.37 302.307C241.37 301.754 241.818 301.307 242.37 301.307H245.702C246.255 301.307 246.702 301.754 246.702 302.307V345.856C246.702 346.408 246.255 346.856 245.702 346.856H242.37C241.818 346.856 241.37 346.408 241.37 345.856V302.307Z" fill="#F2F2F5"/>
<path d="M248.695 288.41C248.695 287.857 249.143 287.41 249.695 287.41H253.027C253.579 287.41 254.027 287.857 254.027 288.41V345.855C254.027 346.407 253.579 346.855 253.027 346.855H249.695C249.143 346.855 248.695 346.407 248.695 345.855V288.41Z" fill="#F2F2F5"/>
<path d="M256.019 266.02C256.019 265.468 256.467 265.02 257.019 265.02H260.351C260.903 265.02 261.351 265.468 261.351 266.02V345.854C261.351 346.406 260.903 346.854 260.351 346.854H257.019C256.467 346.854 256.019 346.406 256.019 345.854V266.02Z" fill="#F2F2F5"/>
<path d="M263.344 282.233C263.344 281.681 263.791 281.233 264.344 281.233H267.676C268.228 281.233 268.676 281.681 268.676 282.233V345.855C268.676 346.407 268.228 346.855 267.676 346.855H264.344C263.791 346.855 263.344 346.407 263.344 345.855V282.233Z" fill="#F2F2F5"/>
<path d="M270.668 211.981C270.668 211.429 271.116 210.981 271.668 210.981H275C275.552 210.981 276 211.429 276 211.981V345.856C276 346.408 275.552 346.856 275 346.856H271.668C271.116 346.856 270.668 346.408 270.668 345.856V211.981Z" fill="#F2F2F5"/>
<path d="M80 291C80 290.448 80.4477 290 81 290H84.3321C84.8844 290 85.3321 290.448 85.3321 291V346C85.3321 346.552 84.8844 347 84.3321 347H81C80.4477 347 80 346.552 80 346V291Z" fill="#FDDD48"/>
<path d="M87.3242 302.223C87.3242 301.671 87.7719 301.223 88.3242 301.223H91.6564C92.2086 301.223 92.6564 301.671 92.6564 302.223V346C92.6564 346.552 92.2086 347 91.6564 347H88.3242C87.7719 347 87.3242 346.552 87.3242 346V302.223Z" fill="#FDDD48"/>
<path d="M94.6484 320.829C94.6484 320.277 95.0962 319.829 95.6484 319.829H98.9806C99.5329 319.829 99.9806 320.277 99.9806 320.829V346C99.9806 346.552 99.5329 347 98.9806 347H95.6484C95.0962 347 94.6484 346.552 94.6484 346V320.829Z" fill="#FDDD48"/>
<path d="M101.973 313.446C101.973 312.893 102.421 312.446 102.973 312.446H106.305C106.858 312.446 107.305 312.893 107.305 313.446V346C107.305 346.552 106.858 347 106.305 347H102.973C102.421 347 101.973 346.552 101.973 346V313.446Z" fill="#FDDD48"/>
<path d="M109.297 322.896C109.297 322.343 109.745 321.896 110.297 321.896H113.63C114.182 321.896 114.63 322.343 114.63 322.896V345.999C114.63 346.552 114.182 346.999 113.63 346.999H110.297C109.745 346.999 109.297 346.552 109.297 345.999V322.896Z" fill="#FDDD48"/>
<path d="M116.622 302.223C116.622 301.671 117.07 301.223 117.622 301.223H120.954C121.506 301.223 121.954 301.671 121.954 302.223V346C121.954 346.552 121.506 347 120.954 347H117.622C117.07 347 116.622 346.552 116.622 346V302.223Z" fill="#FDDD48"/>
<path d="M123.946 313.446C123.946 312.893 124.394 312.446 124.946 312.446H128.278C128.831 312.446 129.278 312.893 129.278 313.446V346C129.278 346.552 128.831 347 128.278 347H124.946C124.394 347 123.946 346.552 123.946 346V313.446Z" fill="#FDDD48"/>
<path d="M131.271 320.829C131.271 320.277 131.718 319.829 132.271 319.829H135.603C136.155 319.829 136.603 320.277 136.603 320.829V346C136.603 346.552 136.155 347 135.603 347H132.271C131.718 347 131.271 346.552 131.271 346V320.829Z" fill="#FDDD48"/>
<path d="M138.595 329.098C138.595 328.545 139.042 328.098 139.595 328.098H142.927C143.479 328.098 143.927 328.545 143.927 329.098V345.999C143.927 346.552 143.479 346.999 142.927 346.999H139.595C139.042 346.999 138.595 346.552 138.595 345.999V329.098Z" fill="#FDDD48"/>
<path d="M145.919 332.642C145.919 332.09 146.367 331.642 146.919 331.642H150.251C150.803 331.642 151.251 332.09 151.251 332.642V346C151.251 346.552 150.803 347 150.251 347H146.919C146.367 347 145.919 346.552 145.919 346V332.642Z" fill="#FDDD48"/>
<path d="M153.244 325.259C153.244 324.707 153.691 324.259 154.244 324.259H157.576C158.128 324.259 158.576 324.707 158.576 325.259V346C158.576 346.552 158.128 347 157.576 347H154.244C153.691 347 153.244 346.552 153.244 346V325.259Z" fill="#FDDD48"/>
<path d="M160.568 329.098C160.568 328.545 161.016 328.098 161.568 328.098H164.9C165.452 328.098 165.9 328.545 165.9 329.098V345.999C165.9 346.552 165.452 346.999 164.9 346.999H161.568C161.016 346.999 160.568 346.552 160.568 345.999V329.098Z" fill="#FDDD48"/>
<path d="M167.893 314.036C167.893 313.484 168.34 313.036 168.893 313.036H172.225C172.777 313.036 173.225 313.484 173.225 314.036V346C173.225 346.552 172.777 347 172.225 347H168.893C168.34 347 167.893 346.552 167.893 346V314.036Z" fill="#FDDD48"/>
<path d="M175.217 322.896C175.217 322.343 175.665 321.896 176.217 321.896H179.549C180.101 321.896 180.549 322.343 180.549 322.896V345.999C180.549 346.552 180.101 346.999 179.549 346.999H176.217C175.665 346.999 175.217 346.552 175.217 345.999V322.896Z" fill="#FDDD48"/>
<path d="M182.541 332.347C182.541 331.794 182.989 331.347 183.541 331.347H186.873C187.425 331.347 187.873 331.794 187.873 332.347V345.999C187.873 346.552 187.425 346.999 186.873 346.999H183.541C182.989 346.999 182.541 346.552 182.541 345.999V332.347Z" fill="#FDDD48"/>
<path d="M189.865 330.575C189.865 330.023 190.313 329.575 190.865 329.575H194.197C194.75 329.575 195.197 330.023 195.197 330.575V346C195.197 346.552 194.75 347 194.197 347H190.865C190.313 347 189.865 346.552 189.865 346V330.575Z" fill="#FDDD48"/>
<path d="M197.19 325.259C197.19 324.707 197.638 324.259 198.19 324.259H201.522C202.074 324.259 202.522 324.707 202.522 325.259V346C202.522 346.552 202.074 347 201.522 347H198.19C197.638 347 197.19 346.552 197.19 346V325.259Z" fill="#FDDD48"/>
<path d="M204.514 316.694C204.514 316.141 204.962 315.694 205.514 315.694H208.846C209.399 315.694 209.846 316.141 209.846 316.694V345.999C209.846 346.552 209.399 346.999 208.846 346.999H205.514C204.962 346.999 204.514 346.552 204.514 345.999V316.694Z" fill="#FDDD48"/>
<path d="M211.838 322.896C211.838 322.343 212.286 321.896 212.838 321.896H216.171C216.723 321.896 217.171 322.343 217.171 322.896V345.999C217.171 346.552 216.723 346.999 216.171 346.999H212.838C212.286 346.999 211.838 346.552 211.838 345.999V322.896Z" fill="#FDDD48"/>
<path d="M219.163 296.021C219.163 295.468 219.611 295.021 220.163 295.021H223.495C224.048 295.021 224.495 295.468 224.495 296.021V346C224.495 346.552 224.048 347 223.495 347H220.163C219.611 347 219.163 346.552 219.163 346V296.021Z" fill="#FDDD48"/>
<path d="M226.487 306.653C226.487 306.101 226.935 305.653 227.487 305.653H230.819C231.372 305.653 231.819 306.101 231.819 306.653V346C231.819 346.552 231.372 347 230.819 347H227.487C226.935 347 226.487 346.552 226.487 346V306.653Z" fill="#FDDD48"/>
<path d="M233.812 316.694C233.812 316.141 234.259 315.694 234.812 315.694H238.144C238.696 315.694 239.144 316.141 239.144 316.694V345.999C239.144 346.552 238.696 346.999 238.144 346.999H234.812C234.259 346.999 233.812 346.552 233.812 345.999V316.694Z" fill="#FDDD48"/>
<path d="M241.37 330.52C241.37 329.967 241.818 329.52 242.37 329.52H245.702C246.255 329.52 246.702 329.967 246.702 330.52V345.944C246.702 346.497 246.255 346.944 245.702 346.944H242.37C241.818 346.944 241.37 346.497 241.37 345.944V330.52Z" fill="#FDDD48"/>
<path d="M248.695 325.204C248.695 324.652 249.143 324.204 249.695 324.204H253.027C253.579 324.204 254.027 324.652 254.027 325.204V345.945C254.027 346.497 253.579 346.945 253.027 346.945H249.695C249.143 346.945 248.695 346.497 248.695 345.945V325.204Z" fill="#FDDD48"/>
<path d="M256.019 316.638C256.019 316.086 256.467 315.638 257.019 315.638H260.351C260.903 315.638 261.351 316.086 261.351 316.638V345.944C261.351 346.496 260.903 346.944 260.351 346.944H257.019C256.467 346.944 256.019 346.496 256.019 345.944V316.638Z" fill="#FDDD48"/>
<path d="M263.344 322.84C263.344 322.288 263.791 321.84 264.344 321.84H267.676C268.228 321.84 268.676 322.288 268.676 322.84V345.944C268.676 346.496 268.228 346.944 267.676 346.944H264.344C263.791 346.944 263.344 346.496 263.344 345.944V322.84Z" fill="#FDDD48"/>
<path d="M270.668 295.966C270.668 295.413 271.116 294.966 271.668 294.966H275C275.552 294.966 276 295.413 276 295.966V345.945C276 346.497 275.552 346.945 275 346.945H271.668C271.116 346.945 270.668 346.497 270.668 345.945V295.966Z" fill="#FDDD48"/>
</g>
<path fill-rule="evenodd" clip-rule="evenodd" d="M17 132C18.6569 132 20 130.657 20 129C20 127.343 18.6569 126 17 126C15.3431 126 14 127.343 14 129C14 130.657 15.3431 132 17 132Z" fill="#FF5C5C"/>
<path fill-rule="evenodd" clip-rule="evenodd" d="M27 132C28.6569 132 30 130.657 30 129C30 127.343 28.6569 126 27 126C25.3431 126 24 127.343 24 129C24 130.657 25.3431 132 27 132Z" fill="#FDDD48"/>
<path fill-rule="evenodd" clip-rule="evenodd" d="M37 132C38.6569 132 40 130.657 40 129C40 127.343 38.6569 126 37 126C35.3431 126 34 127.343 34 129C34 130.657 35.3431 132 37 132Z" fill="#39D98A"/>
<g filter="url(#filter3_dd)">
<mask id="mask1" mask-type="alpha" maskUnits="userSpaceOnUse" x="375" y="159" width="352" height="300">
<path fill-rule="evenodd" clip-rule="evenodd" d="M375 167C375 162.582 378.582 159 383 159H719C723.418 159 727 162.582 727 167V451C727 455.418 723.418 459 719 459H383C378.582 459 375 455.418 375 451V167Z" fill="white"/>
</mask>
<g mask="url(#mask1)">
<path fill-rule="evenodd" clip-rule="evenodd" d="M375 167C375 162.582 378.582 159 383 159H719C723.418 159 727 162.582 727 167V451C727 455.418 723.418 459 719 459H383C378.582 459 375 455.418 375 451V167Z" fill="#FAFAFC"/>
<g filter="url(#filter4_dd)">
<path fill-rule="evenodd" clip-rule="evenodd" d="M375 159H727V183H375V159Z" fill="white"/>
</g>
</g>
</g>
<path fill-rule="evenodd" clip-rule="evenodd" d="M390 173C391.657 173 393 171.657 393 170C393 168.343 391.657 167 390 167C388.343 167 387 168.343 387 170C387 171.657 388.343 173 390 173Z" fill="#FF5C5C"/>
<path fill-rule="evenodd" clip-rule="evenodd" d="M400 173C401.657 173 403 171.657 403 170C403 168.343 401.657 167 400 167C398.343 167 397 168.343 397 170C397 171.657 398.343 173 400 173Z" fill="#FDDD48"/>
<path fill-rule="evenodd" clip-rule="evenodd" d="M410 173C411.657 173 413 171.657 413 170C413 168.343 411.657 167 410 167C408.343 167 407 168.343 407 170C407 171.657 408.343 173 410 173Z" fill="#39D98A"/>
<g filter="url(#filter5_dd)">
<rect x="411" y="207" width="268" height="236" rx="8" fill="white"/>
<rect x="427" y="418" width="22" height="9" rx="4" fill="#3BC882"/>
<rect x="451" y="418" width="22" height="9" rx="4" fill="#39D98A"/>
<rect x="475" y="418" width="22" height="9" rx="4" fill="#23A966"/>
<rect x="499" y="418" width="22" height="9" rx="4" fill="#23A966"/>
<rect x="523" y="418" width="22" height="9" rx="4" fill="#23A966"/>
<rect x="547" y="418" width="22" height="9" rx="4" fill="#23A966"/>
<rect x="571" y="418" width="22" height="9" rx="4" fill="#3BC882"/>
<rect x="595" y="418" width="22" height="9" rx="4" fill="#23A966"/>
<rect x="619" y="418" width="22" height="9" rx="4" fill="#3BC882"/>
<rect x="643" y="418" width="22" height="9" rx="4" fill="#23A966"/>
<rect x="427" y="407" width="22" height="9" rx="4" fill="#39D98A"/>
<rect x="451" y="407" width="22" height="9" rx="4" fill="#57EBA1"/>
<rect x="475" y="407" width="22" height="9" rx="4" fill="#3BC882"/>
<rect x="499" y="407" width="22" height="9" rx="4" fill="#23A966"/>
<rect x="523" y="407" width="22" height="9" rx="4" fill="#23A966"/>
<rect x="547" y="407" width="22" height="9" rx="4" fill="#23A966"/>
<rect x="571" y="407" width="22" height="9" rx="4" fill="#3BC882"/>
<rect x="595" y="407" width="22" height="9" rx="4" fill="#23A966"/>
<rect x="619" y="407" width="22" height="9" rx="4" fill="#39D98A"/>
<rect x="643" y="407" width="22" height="9" rx="4" fill="#23A966"/>
<rect x="427" y="396" width="22" height="9" rx="4" fill="#39D98A"/>
<rect x="475" y="396" width="22" height="9" rx="4" fill="#39D98A"/>
<rect x="499" y="396" width="22" height="9" rx="4" fill="#3BC882"/>
<rect x="523" y="396" width="22" height="9" rx="4" fill="#3BC882"/>
<rect x="547" y="396" width="22" height="9" rx="4" fill="#3BC882"/>
<rect x="571" y="396" width="22" height="9" rx="4" fill="#39D98A"/>
<rect x="595" y="396" width="22" height="9" rx="4" fill="#3BC882"/>
<rect x="619" y="396" width="22" height="9" rx="4" fill="#57EBA1"/>
<rect x="643" y="396" width="22" height="9" rx="4" fill="#39D98A"/>
<rect x="427" y="385" width="22" height="9" rx="4" fill="#57EBA1"/>
<rect x="451" y="385" width="22" height="9" rx="4" fill="#57EBA1"/>
<rect x="475" y="385" width="22" height="9" rx="4" fill="#57EBA1"/>
<rect x="499" y="385" width="22" height="9" rx="4" fill="#3BC882"/>
<rect x="523" y="385" width="22" height="9" rx="4" fill="#3BC882"/>
<rect x="547" y="385" width="22" height="9" rx="4" fill="#3BC882"/>
<rect x="571" y="385" width="22" height="9" rx="4" fill="#57EBA1"/>
<rect x="595" y="385" width="22" height="9" rx="4" fill="#3BC882"/>
<rect x="619" y="385" width="22" height="9" rx="4" fill="#E3FFF1"/>
<rect x="643" y="385" width="22" height="9" rx="4" fill="#57EBA1"/>
<rect x="427" y="374" width="22" height="9" rx="4" fill="#E3FFF1"/>
<rect x="451" y="374" width="22" height="9" rx="4" fill="#E3FFF1"/>
<rect x="475" y="374" width="22" height="9" rx="4" fill="#57EBA1"/>
<rect x="523" y="374" width="22" height="9" rx="4" fill="#39D98A"/>
<rect x="547" y="374" width="22" height="9" rx="4" fill="#39D98A"/>
<rect x="571" y="374" width="22" height="9" rx="4" fill="#57EBA1"/>
<rect x="427" y="363" width="22" height="9" rx="4" fill="#E3FFF1"/>
<rect x="475" y="363" width="22" height="9" rx="4" fill="#E3FFF1"/>
<rect x="499" y="363" width="22" height="9" rx="4" fill="#39D98A"/>
<rect x="523" y="363" width="22" height="9" rx="4" fill="#39D98A"/>
<rect x="547" y="363" width="22" height="9" rx="4" fill="#39D98A"/>
<rect x="571" y="363" width="22" height="9" rx="4" fill="#E3FFF1"/>
<rect x="595" y="363" width="22" height="9" rx="4" fill="#39D98A"/>
<rect x="619" y="363" width="22" height="9" rx="4" fill="#39D98A"/>
<rect x="643" y="363" width="22" height="9" rx="4" fill="#39D98A"/>
<rect x="427" y="352" width="22" height="9" rx="4" fill="#57EBA1"/>
<rect x="451" y="352" width="22" height="9" rx="4" fill="#57EBA1"/>
<rect x="499" y="352" width="22" height="9" rx="4" fill="#57EBA1"/>
<rect x="523" y="352" width="22" height="9" rx="4" fill="#57EBA1"/>
<rect x="547" y="352" width="22" height="9" rx="4" fill="#57EBA1"/>
<rect x="595" y="352" width="22" height="9" rx="4" fill="#57EBA1"/>
<rect x="619" y="352" width="22" height="9" rx="4" fill="#57EBA1"/>
<rect x="643" y="352" width="22" height="9" rx="4" fill="#57EBA1"/>
<rect x="427" y="341" width="22" height="9" rx="4" fill="#57EBA1"/>
<rect x="451" y="341" width="22" height="9" rx="4" fill="#57EBA1"/>
<rect x="499" y="341" width="22" height="9" rx="4" fill="#57EBA1"/>
<rect x="523" y="341" width="22" height="9" rx="4" fill="#57EBA1"/>
<rect x="547" y="341" width="22" height="9" rx="4" fill="#57EBA1"/>
<rect x="595" y="341" width="22" height="9" rx="4" fill="#57EBA1"/>
<rect x="619" y="341" width="22" height="9" rx="4" fill="#57EBA1"/>
<rect x="643" y="341" width="22" height="9" rx="4" fill="#57EBA1"/>
<rect x="427" y="330" width="22" height="9" rx="4" fill="#E3FFF1"/>
<rect x="451" y="330" width="22" height="9" rx="4" fill="#E3FFF1"/>
<rect x="499" y="330" width="22" height="9" rx="4" fill="#E3FFF1"/>
<rect x="523" y="330" width="22" height="9" rx="4" fill="#E3FFF1"/>
<rect x="547" y="330" width="22" height="9" rx="4" fill="#E3FFF1"/>
<rect x="595" y="330" width="22" height="9" rx="4" fill="#E3FFF1"/>
<rect x="619" y="330" width="22" height="9" rx="4" fill="#E3FFF1"/>
<rect x="643" y="330" width="22" height="9" rx="4" fill="#E3FFF1"/>
<rect x="427" y="319" width="22" height="9" rx="4" fill="#E3FFF1"/>
<rect x="499" y="319" width="22" height="9" rx="4" fill="#E3FFF1"/>
<rect x="547" y="319" width="22" height="9" rx="4" fill="#E3FFF1"/>
<rect x="595" y="319" width="22" height="9" rx="4" fill="#E3FFF1"/>
<rect x="643" y="319" width="22" height="9" rx="4" fill="#E3FFF1"/>
<rect x="427" y="308" width="22" height="9" rx="4" fill="#E3FFF1"/>
<rect x="475" y="308" width="22" height="9" rx="4" fill="#E3FFF1"/>
<rect x="499" y="308" width="22" height="9" rx="4" fill="#E3FFF1"/>
<rect x="547" y="308" width="22" height="9" rx="4" fill="#E3FFF1"/>
<rect x="619" y="308" width="22" height="9" rx="4" fill="#E3FFF1"/>
<rect x="643" y="308" width="22" height="9" rx="4" fill="#E3FFF1"/>
<rect x="475" y="297" width="22" height="9" rx="4" fill="#E3FFF1"/>
<rect x="547" y="297" width="22" height="9" rx="4" fill="#E3FFF1"/>
<rect x="619" y="297" width="22" height="9" rx="4" fill="#E3FFF1"/>
<rect x="451" y="278" width="22" height="9" rx="4" fill="#E3FFF1"/>
<rect x="547" y="278" width="22" height="9" rx="4" fill="#E3FFF1"/>
<rect x="595" y="278" width="22" height="9" rx="4" fill="#E3FFF1"/>
<rect x="617.5" y="223.5" width="47" height="23" rx="11.5" fill="#EBEBF0" stroke="#E4E4EB"/>
<g filter="url(#filter6_dd)">
<rect x="620" y="226" width="18" height="18" rx="9" fill="white"/>
</g>
<rect x="427" y="227" width="45" height="17" rx="8" fill="#EBEBF0"/>
<rect x="482" y="227" width="63" height="17" rx="8" fill="#F2F2F5"/>
</g>
<g filter="url(#filter7_dd)">
<mask id="mask2" mask-type="alpha" maskUnits="userSpaceOnUse" x="156" y="44" width="352" height="300">
<path fill-rule="evenodd" clip-rule="evenodd" d="M156 52C156 47.5817 159.582 44 164 44H500C504.418 44 508 47.5817 508 52V336C508 340.418 504.418 344 500 344H164C159.582 344 156 340.418 156 336V52Z" fill="white"/>
</mask>
<g mask="url(#mask2)">
<path fill-rule="evenodd" clip-rule="evenodd" d="M156 52C156 47.5817 159.582 44 164 44H500C504.418 44 508 47.5817 508 52V336C508 340.418 504.418 344 500 344H164C159.582 344 156 340.418 156 336V52Z" fill="#FAFAFC"/>
<g filter="url(#filter8_dd)">
<path fill-rule="evenodd" clip-rule="evenodd" d="M156 44H508V68H156V44Z" fill="white"/>
</g>
</g>
</g>
<path fill-rule="evenodd" clip-rule="evenodd" d="M171 58C172.657 58 174 56.6569 174 55C174 53.3431 172.657 52 171 52C169.343 52 168 53.3431 168 55C168 56.6569 169.343 58 171 58Z" fill="#FF5C5C"/>
<path fill-rule="evenodd" clip-rule="evenodd" d="M181 58C182.657 58 184 56.6569 184 55C184 53.3431 182.657 52 181 52C179.343 52 178 53.3431 178 55C178 56.6569 179.343 58 181 58Z" fill="#FDDD48"/>
<path fill-rule="evenodd" clip-rule="evenodd" d="M191 58C192.657 58 194 56.6569 194 55C194 53.3431 192.657 52 191 52C189.343 52 188 53.3431 188 55C188 56.6569 189.343 58 191 58Z" fill="#39D98A"/>
<circle opacity="0.25" cx="325.5" cy="205.5" r="205" fill="#E3FFF1" stroke="#57EBA1"/>
<circle opacity="0.5" cx="326" cy="206" r="161.5" fill="#E3FFF1" stroke="#57EBA1"/>
<circle opacity="0.75" cx="325.5" cy="204.5" r="104" fill="#E3FFF1" stroke="#57EBA1"/>
<circle cx="325.5" cy="205.5" r="52" fill="#E3FFF1" stroke="#57EBA1"/>
<g filter="url(#filter9_dd)">
<rect x="191" y="111" width="270" height="189" rx="8" fill="white"/>
<path d="M199 241.7C208.277 242.186 215.493 259.192 231.678 258.481C247.863 257.771 266.58 220.094 288.679 220.094C310.778 220.094 318.312 246.624 340.929 246.624C363.546 246.624 370.972 165 399.74 165C428.508 165 421.914 199.162 436.457 199.162C451.001 199.162 453 207.298 453 207.298V286.996C453 289.759 450.759 291.998 447.996 291.996L204.996 291.814C201.684 291.811 199 289.141 199 285.829C199 273.47 199 245.909 199 241.7Z" fill="#E3FFF1"/>
<path d="M199 266.493C213.745 266.034 216.853 281.299 229.631 280.594C242.408 279.889 258.867 251.688 285.548 251.688C312.229 251.688 319.002 265.083 342.119 265.083C365.235 265.083 376.756 229.128 394.036 229.128C411.316 229.128 412.11 238.93 424.353 238.93C436.596 238.93 441.091 225 452.999 225V286C452.999 289.314 450.313 292 446.999 292H205.046C201.835 292 199.214 289.473 199.153 286.263C199.077 282.214 199 275.826 199 266.493Z" fill="#39D98A"/>
<rect x="207" y="127" width="40" height="17" rx="8" fill="#EBEBF0"/>
<rect x="255" y="127" width="17" height="17" rx="8" fill="#F2F2F5"/>
</g>
<defs>
<filter id="filter0_dd" x="0" y="116.5" width="356" height="304" filterUnits="userSpaceOnUse" color-interpolation-filters="sRGB">
<feFlood flood-opacity="0" result="BackgroundImageFix"/>
<feColorMatrix in="SourceAlpha" type="matrix" values="0 0 0 0 0 0 0 0 0 0 0 0 0 0 0 0 0 0 127 0"/>
<feOffset dy="0.5"/>
<feGaussianBlur stdDeviation="1"/>
<feColorMatrix type="matrix" values="0 0 0 0 0.376471 0 0 0 0 0.380392 0 0 0 0 0.439216 0 0 0 0.16 0"/>
<feBlend mode="normal" in2="BackgroundImageFix" result="effect1_dropShadow"/>
<feColorMatrix in="SourceAlpha" type="matrix" values="0 0 0 0 0 0 0 0 0 0 0 0 0 0 0 0 0 0 127 0"/>
<feOffset/>
<feGaussianBlur stdDeviation="0.5"/>
<feColorMatrix type="matrix" values="0 0 0 0 0.156863 0 0 0 0 0.160784 0 0 0 0 0.239216 0 0 0 0.08 0"/>
<feBlend mode="normal" in2="effect1_dropShadow" result="effect2_dropShadow"/>
<feBlend mode="normal" in="SourceGraphic" in2="effect2_dropShadow" result="shape"/>
</filter>
<filter id="filter1_dd" x="0" y="116.5" width="356" height="28" filterUnits="userSpaceOnUse" color-interpolation-filters="sRGB">
<feFlood flood-opacity="0" result="BackgroundImageFix"/>
<feColorMatrix in="SourceAlpha" type="matrix" values="0 0 0 0 0 0 0 0 0 0 0 0 0 0 0 0 0 0 127 0"/>
<feOffset dy="0.5"/>
<feGaussianBlur stdDeviation="1"/>
<feColorMatrix type="matrix" values="0 0 0 0 0.376471 0 0 0 0 0.380392 0 0 0 0 0.439216 0 0 0 0.16 0"/>
<feBlend mode="normal" in2="BackgroundImageFix" result="effect1_dropShadow"/>
<feColorMatrix in="SourceAlpha" type="matrix" values="0 0 0 0 0 0 0 0 0 0 0 0 0 0 0 0 0 0 127 0"/>
<feOffset/>
<feGaussianBlur stdDeviation="0.5"/>
<feColorMatrix type="matrix" values="0 0 0 0 0.156863 0 0 0 0 0.160784 0 0 0 0 0.239216 0 0 0 0.08 0"/>
<feBlend mode="normal" in2="effect1_dropShadow" result="effect2_dropShadow"/>
<feBlend mode="normal" in="SourceGraphic" in2="effect2_dropShadow" result="shape"/>
</filter>
<filter id="filter2_dd" x="62" y="172.5" width="232" height="193" filterUnits="userSpaceOnUse" color-interpolation-filters="sRGB">
<feFlood flood-opacity="0" result="BackgroundImageFix"/>
<feColorMatrix in="SourceAlpha" type="matrix" values="0 0 0 0 0 0 0 0 0 0 0 0 0 0 0 0 0 0 127 0"/>
<feOffset dy="0.5"/>
<feGaussianBlur stdDeviation="1"/>
<feColorMatrix type="matrix" values="0 0 0 0 0.376471 0 0 0 0 0.380392 0 0 0 0 0.439216 0 0 0 0.16 0"/>
<feBlend mode="normal" in2="BackgroundImageFix" result="effect1_dropShadow"/>
<feColorMatrix in="SourceAlpha" type="matrix" values="0 0 0 0 0 0 0 0 0 0 0 0 0 0 0 0 0 0 127 0"/>
<feOffset/>
<feGaussianBlur stdDeviation="0.5"/>
<feColorMatrix type="matrix" values="0 0 0 0 0.156863 0 0 0 0 0.160784 0 0 0 0 0.239216 0 0 0 0.08 0"/>
<feBlend mode="normal" in2="effect1_dropShadow" result="effect2_dropShadow"/>
<feBlend mode="normal" in="SourceGraphic" in2="effect2_dropShadow" result="shape"/>
</filter>
<filter id="filter3_dd" x="373" y="157.5" width="356" height="304" filterUnits="userSpaceOnUse" color-interpolation-filters="sRGB">
<feFlood flood-opacity="0" result="BackgroundImageFix"/>
<feColorMatrix in="SourceAlpha" type="matrix" values="0 0 0 0 0 0 0 0 0 0 0 0 0 0 0 0 0 0 127 0"/>
<feOffset dy="0.5"/>
<feGaussianBlur stdDeviation="1"/>
<feColorMatrix type="matrix" values="0 0 0 0 0.376471 0 0 0 0 0.380392 0 0 0 0 0.439216 0 0 0 0.16 0"/>
<feBlend mode="normal" in2="BackgroundImageFix" result="effect1_dropShadow"/>
<feColorMatrix in="SourceAlpha" type="matrix" values="0 0 0 0 0 0 0 0 0 0 0 0 0 0 0 0 0 0 127 0"/>
<feOffset/>
<feGaussianBlur stdDeviation="0.5"/>
<feColorMatrix type="matrix" values="0 0 0 0 0.156863 0 0 0 0 0.160784 0 0 0 0 0.239216 0 0 0 0.08 0"/>
<feBlend mode="normal" in2="effect1_dropShadow" result="effect2_dropShadow"/>
<feBlend mode="normal" in="SourceGraphic" in2="effect2_dropShadow" result="shape"/>
</filter>
<filter id="filter4_dd" x="373" y="157.5" width="356" height="28" filterUnits="userSpaceOnUse" color-interpolation-filters="sRGB">
<feFlood flood-opacity="0" result="BackgroundImageFix"/>
<feColorMatrix in="SourceAlpha" type="matrix" values="0 0 0 0 0 0 0 0 0 0 0 0 0 0 0 0 0 0 127 0"/>
<feOffset dy="0.5"/>
<feGaussianBlur stdDeviation="1"/>
<feColorMatrix type="matrix" values="0 0 0 0 0.376471 0 0 0 0 0.380392 0 0 0 0 0.439216 0 0 0 0.16 0"/>
<feBlend mode="normal" in2="BackgroundImageFix" result="effect1_dropShadow"/>
<feColorMatrix in="SourceAlpha" type="matrix" values="0 0 0 0 0 0 0 0 0 0 0 0 0 0 0 0 0 0 127 0"/>
<feOffset/>
<feGaussianBlur stdDeviation="0.5"/>
<feColorMatrix type="matrix" values="0 0 0 0 0.156863 0 0 0 0 0.160784 0 0 0 0 0.239216 0 0 0 0.08 0"/>
<feBlend mode="normal" in2="effect1_dropShadow" result="effect2_dropShadow"/>
<feBlend mode="normal" in="SourceGraphic" in2="effect2_dropShadow" result="shape"/>
</filter>
<filter id="filter5_dd" x="409" y="205.5" width="272" height="240" filterUnits="userSpaceOnUse" color-interpolation-filters="sRGB">
<feFlood flood-opacity="0" result="BackgroundImageFix"/>
<feColorMatrix in="SourceAlpha" type="matrix" values="0 0 0 0 0 0 0 0 0 0 0 0 0 0 0 0 0 0 127 0"/>
<feOffset dy="0.5"/>
<feGaussianBlur stdDeviation="1"/>
<feColorMatrix type="matrix" values="0 0 0 0 0.376471 0 0 0 0 0.380392 0 0 0 0 0.439216 0 0 0 0.16 0"/>
<feBlend mode="normal" in2="BackgroundImageFix" result="effect1_dropShadow"/>
<feColorMatrix in="SourceAlpha" type="matrix" values="0 0 0 0 0 0 0 0 0 0 0 0 0 0 0 0 0 0 127 0"/>
<feOffset/>
<feGaussianBlur stdDeviation="0.5"/>
<feColorMatrix type="matrix" values="0 0 0 0 0.156863 0 0 0 0 0.160784 0 0 0 0 0.239216 0 0 0 0.08 0"/>
<feBlend mode="normal" in2="effect1_dropShadow" result="effect2_dropShadow"/>
<feBlend mode="normal" in="SourceGraphic" in2="effect2_dropShadow" result="shape"/>
</filter>
<filter id="filter6_dd" x="616" y="224" width="26" height="26" filterUnits="userSpaceOnUse" color-interpolation-filters="sRGB">
<feFlood flood-opacity="0" result="BackgroundImageFix"/>
<feColorMatrix in="SourceAlpha" type="matrix" values="0 0 0 0 0 0 0 0 0 0 0 0 0 0 0 0 0 0 127 0"/>
<feOffset dy="2"/>
<feGaussianBlur stdDeviation="2"/>
<feColorMatrix type="matrix" values="0 0 0 0 0.376471 0 0 0 0 0.380392 0 0 0 0 0.439216 0 0 0 0.16 0"/>
<feBlend mode="normal" in2="BackgroundImageFix" result="effect1_dropShadow"/>
<feColorMatrix in="SourceAlpha" type="matrix" values="0 0 0 0 0 0 0 0 0 0 0 0 0 0 0 0 0 0 127 0"/>
<feOffset/>
<feGaussianBlur stdDeviation="0.5"/>
<feColorMatrix type="matrix" values="0 0 0 0 0.156863 0 0 0 0 0.160784 0 0 0 0 0.239216 0 0 0 0.04 0"/>
<feBlend mode="normal" in2="effect1_dropShadow" result="effect2_dropShadow"/>
<feBlend mode="normal" in="SourceGraphic" in2="effect2_dropShadow" result="shape"/>
</filter>
<filter id="filter7_dd" x="154" y="42.5" width="356" height="304" filterUnits="userSpaceOnUse" color-interpolation-filters="sRGB">
<feFlood flood-opacity="0" result="BackgroundImageFix"/>
<feColorMatrix in="SourceAlpha" type="matrix" values="0 0 0 0 0 0 0 0 0 0 0 0 0 0 0 0 0 0 127 0"/>
<feOffset dy="0.5"/>
<feGaussianBlur stdDeviation="1"/>
<feColorMatrix type="matrix" values="0 0 0 0 0.376471 0 0 0 0 0.380392 0 0 0 0 0.439216 0 0 0 0.16 0"/>
<feBlend mode="normal" in2="BackgroundImageFix" result="effect1_dropShadow"/>
<feColorMatrix in="SourceAlpha" type="matrix" values="0 0 0 0 0 0 0 0 0 0 0 0 0 0 0 0 0 0 127 0"/>
<feOffset/>
<feGaussianBlur stdDeviation="0.5"/>
<feColorMatrix type="matrix" values="0 0 0 0 0.156863 0 0 0 0 0.160784 0 0 0 0 0.239216 0 0 0 0.08 0"/>
<feBlend mode="normal" in2="effect1_dropShadow" result="effect2_dropShadow"/>
<feBlend mode="normal" in="SourceGraphic" in2="effect2_dropShadow" result="shape"/>
</filter>
<filter id="filter8_dd" x="154" y="42.5" width="356" height="28" filterUnits="userSpaceOnUse" color-interpolation-filters="sRGB">
<feFlood flood-opacity="0" result="BackgroundImageFix"/>
<feColorMatrix in="SourceAlpha" type="matrix" values="0 0 0 0 0 0 0 0 0 0 0 0 0 0 0 0 0 0 127 0"/>
<feOffset dy="0.5"/>
<feGaussianBlur stdDeviation="1"/>
<feColorMatrix type="matrix" values="0 0 0 0 0.376471 0 0 0 0 0.380392 0 0 0 0 0.439216 0 0 0 0.16 0"/>
<feBlend mode="normal" in2="BackgroundImageFix" result="effect1_dropShadow"/>
<feColorMatrix in="SourceAlpha" type="matrix" values="0 0 0 0 0 0 0 0 0 0 0 0 0 0 0 0 0 0 127 0"/>
<feOffset/>
<feGaussianBlur stdDeviation="0.5"/>
<feColorMatrix type="matrix" values="0 0 0 0 0.156863 0 0 0 0 0.160784 0 0 0 0 0.239216 0 0 0 0.08 0"/>
<feBlend mode="normal" in2="effect1_dropShadow" result="effect2_dropShadow"/>
<feBlend mode="normal" in="SourceGraphic" in2="effect2_dropShadow" result="shape"/>
</filter>
<filter id="filter9_dd" x="167" y="103" width="318" height="237" filterUnits="userSpaceOnUse" color-interpolation-filters="sRGB">
<feFlood flood-opacity="0" result="BackgroundImageFix"/>
<feColorMatrix in="SourceAlpha" type="matrix" values="0 0 0 0 0 0 0 0 0 0 0 0 0 0 0 0 0 0 127 0"/>
<feOffset dy="16"/>
<feGaussianBlur stdDeviation="12"/>
<feColorMatrix type="matrix" values="0 0 0 0 0.376471 0 0 0 0 0.380392 0 0 0 0 0.439216 0 0 0 0.16 0"/>
<feBlend mode="normal" in2="BackgroundImageFix" result="effect1_dropShadow"/>
<feColorMatrix in="SourceAlpha" type="matrix" values="0 0 0 0 0 0 0 0 0 0 0 0 0 0 0 0 0 0 127 0"/>
<feOffset dy="2"/>
<feGaussianBlur stdDeviation="4"/>
<feColorMatrix type="matrix" values="0 0 0 0 0.156863 0 0 0 0 0.160784 0 0 0 0 0.239216 0 0 0 0.04 0"/>
<feBlend mode="normal" in2="effect1_dropShadow" result="effect2_dropShadow"/>
<feBlend mode="normal" in="SourceGraphic" in2="effect2_dropShadow" result="shape"/>
</filter>
</defs>
</svg>
