<svg width="677" height="568" viewBox="0 0 677 568" fill="none" xmlns="http://www.w3.org/2000/svg">
    <rect width="587" height="440" rx="8" fill="#E3FFF1"/>
    <mask id="mask0" mask-type="alpha" maskUnits="userSpaceOnUse" x="24" y="31" width="579" height="433">
        <rect x="24" y="31" width="579" height="433" rx="8" fill="url(#paint0_linear)"/>
    </mask>
    <g mask="url(#mask0)">
        <g filter="url(#filter0_dd)">
            <mask id="mask1" mask-type="alpha" maskUnits="userSpaceOnUse" x="26" y="33" width="574" height="440">
                <path fill-rule="evenodd" clip-rule="evenodd" d="M26 41C26 36.5817 29.5817 33 34 33H592C596.418 33 600 36.5817 600 41V465C600 469.418 596.418 473 592 473H34C29.5817 473 26 469.418 26 465V41Z" fill="white"/>
            </mask>
            <g mask="url(#mask1)">
                <path fill-rule="evenodd" clip-rule="evenodd" d="M26 41C26 36.5817 29.5817 33 34 33H592C596.418 33 600 36.5817 600 41V465C600 469.418 596.418 473 592 473H34C29.5817 473 26 469.418 26 465V41Z" fill="#FAFAFC"/>
                <g filter="url(#filter1_dd)">
                    <rect x="26" y="57" width="64" height="416" fill="white"/>
                </g>
                <rect x="42" y="289" width="32" height="32" rx="8" fill="#F2F2F5"/>
                <rect x="42" y="241" width="32" height="32" rx="8" fill="#F2F2F5"/>
                <rect x="42" y="193" width="32" height="32" rx="8" fill="#F2F2F5"/>
                <rect x="42" y="145" width="32" height="32" rx="8" fill="#E3FFF1"/>
                <circle cx="58" cy="161" r="7" fill="#3BC882"/>
                <path d="M58.5011 81.0002C58.2251 80.9917 58 81.2165 58 81.4928L58 88.2541C58 88.5275 58.22 88.7487 58.4925 88.7686C62.8296 89.0848 66.25 92.7053 66.25 97.1251C66.25 101.545 62.8296 105.165 58.4925 105.482C58.22 105.501 58 105.723 58 105.996L58 112.507C58 112.784 58.2251 113.008 58.5011 113C67.1058 112.735 74 105.673 74 97C74 88.327 67.1058 81.2651 58.5011 81.0002Z" fill="#39D98A"/>
                <path d="M58.0001 91.7515C57.9586 91.7505 57.9169 91.75 57.8751 91.75C55.0447 91.75 52.7501 94.0445 52.7501 96.875C52.7501 99.7055 55.0447 102 57.8751 102C57.9169 102 57.9586 101.999 58.0001 101.999L58.0001 91.7515Z" fill="#223C37"/>
                <path d="M58.0001 101.999C60.7728 101.933 63.0001 99.6641 63.0001 96.8755C63.0001 94.0868 60.7728 91.8183 58.0001 91.752L58.0001 101.999Z" fill="#376C66"/>
                <g filter="url(#filter2_dd)">
                    <path fill-rule="evenodd" clip-rule="evenodd" d="M26 33H600V57H26V33Z" fill="white"/>
                </g>
            </g>
        </g>
        <path fill-rule="evenodd" clip-rule="evenodd" d="M41 47C42.6569 47 44 45.6569 44 44C44 42.3431 42.6569 41 41 41C39.3431 41 38 42.3431 38 44C38 45.6569 39.3431 47 41 47Z" fill="#FF5C5C"/>
        <path fill-rule="evenodd" clip-rule="evenodd" d="M51 47C52.6569 47 54 45.6569 54 44C54 42.3431 52.6569 41 51 41C49.3431 41 48 42.3431 48 44C48 45.6569 49.3431 47 51 47Z" fill="#FDDD48"/>
        <path fill-rule="evenodd" clip-rule="evenodd" d="M61 47C62.6569 47 64 45.6569 64 44C64 42.3431 62.6569 41 61 41C59.3431 41 58 42.3431 58 44C58 45.6569 59.3431 47 61 47Z" fill="#39D98A"/>
        <g filter="url(#filter3_dd)">
            <rect x="110" y="114" width="375" height="189" rx="8" fill="white"/>
            <rect x="122" y="212.363" width="11.05" height="79.6371" rx="2" fill="#57EBA1"/>
            <rect x="122" y="231.516" width="11.05" height="60.4839" rx="2" fill="#39D98A"/>
            <rect x="122" y="249.661" width="11.05" height="42.3387" rx="2" fill="#3BC882"/>
            <rect x="135.059" y="221.436" width="11.05" height="70.5645" rx="2" fill="#57EBA1"/>
            <rect x="135.059" y="237.564" width="11.05" height="54.4355" rx="2" fill="#39D98A"/>
            <rect x="135.059" y="253.693" width="11.05" height="38.3064" rx="2" fill="#3BC882"/>
            <rect x="148.118" y="167" width="11.05" height="125" rx="2" fill="#57EBA1"/>
            <rect x="148.118" y="196.234" width="11.05" height="95.7661" rx="2" fill="#39D98A"/>
            <rect x="148.118" y="224.46" width="11.05" height="67.5403" rx="2" fill="#3BC882"/>
            <rect x="161.177" y="205.307" width="11.05" height="86.6936" rx="2" fill="#57EBA1"/>
            <rect x="161.177" y="225.468" width="11.05" height="66.5323" rx="2" fill="#39D98A"/>
            <rect x="161.177" y="245.629" width="11.05" height="46.371" rx="2" fill="#3BC882"/>
            <rect x="174.236" y="228.492" width="11.05" height="63.5081" rx="2" fill="#57EBA1"/>
            <rect x="174.236" y="243.613" width="11.05" height="48.3871" rx="2" fill="#39D98A"/>
            <rect x="174.236" y="257.726" width="11.05" height="34.2742" rx="2" fill="#3BC882"/>
            <rect x="187.295" y="193.21" width="11.05" height="98.7903" rx="2" fill="#57EBA1"/>
            <rect x="187.295" y="216.396" width="11.05" height="75.6048" rx="2" fill="#39D98A"/>
            <rect x="187.295" y="238.572" width="11.05" height="53.4274" rx="2" fill="#3BC882"/>
            <rect x="200.355" y="170.024" width="11.05" height="121.976" rx="2" fill="#57EBA1"/>
            <rect x="200.355" y="199.258" width="11.05" height="92.7419" rx="2" fill="#39D98A"/>
            <rect x="200.355" y="226.476" width="11.05" height="65.5242" rx="2" fill="#3BC882"/>
            <rect x="213.414" y="212.363" width="11.05" height="79.6371" rx="2" fill="#57EBA1"/>
            <rect x="213.414" y="231.516" width="11.05" height="60.4839" rx="2" fill="#39D98A"/>
            <rect x="213.414" y="249.661" width="11.05" height="42.3387" rx="2" fill="#3BC882"/>
            <rect x="226.473" y="221.436" width="11.05" height="70.5645" rx="2" fill="#57EBA1"/>
            <rect x="226.473" y="237.564" width="11.05" height="54.4355" rx="2" fill="#39D98A"/>
            <rect x="226.473" y="253.693" width="11.05" height="38.3064" rx="2" fill="#3BC882"/>
            <rect x="239.532" y="167" width="11.05" height="125" rx="2" fill="#57EBA1"/>
            <rect x="239.532" y="196.234" width="11.05" height="95.7661" rx="2" fill="#39D98A"/>
            <rect x="239.532" y="224.46" width="11.05" height="67.5403" rx="2" fill="#3BC882"/>
            <rect x="252.591" y="205.307" width="11.05" height="86.6936" rx="2" fill="#57EBA1"/>
            <rect x="252.591" y="225.468" width="11.05" height="66.5323" rx="2" fill="#39D98A"/>
            <rect x="252.591" y="245.629" width="11.05" height="46.371" rx="2" fill="#3BC882"/>
            <rect x="265.65" y="228.492" width="11.05" height="63.5081" rx="2" fill="#57EBA1"/>
            <rect x="265.65" y="243.613" width="11.05" height="48.3871" rx="2" fill="#39D98A"/>
            <rect x="265.65" y="257.726" width="11.05" height="34.2742" rx="2" fill="#3BC882"/>
            <rect x="278.709" y="193.21" width="11.05" height="98.7903" rx="2" fill="#57EBA1"/>
            <rect x="278.709" y="216.396" width="11.05" height="75.6048" rx="2" fill="#39D98A"/>
            <rect x="278.709" y="238.572" width="11.05" height="53.4274" rx="2" fill="#3BC882"/>
            <rect x="291.768" y="170.024" width="11.05" height="121.976" rx="2" fill="#57EBA1"/>
            <rect x="291.768" y="199.258" width="11.05" height="92.7419" rx="2" fill="#39D98A"/>
            <rect x="291.768" y="226.476" width="11.05" height="65.5242" rx="2" fill="#3BC882"/>
            <rect x="304.827" y="212.363" width="11.05" height="79.6371" rx="2" fill="#57EBA1"/>
            <rect x="304.827" y="231.516" width="11.05" height="60.4839" rx="2" fill="#39D98A"/>
            <rect x="304.827" y="249.661" width="11.05" height="42.3387" rx="2" fill="#3BC882"/>
            <rect x="317.886" y="221.436" width="11.05" height="70.5645" rx="2" fill="#57EBA1"/>
            <rect x="317.886" y="237.564" width="11.05" height="54.4355" rx="2" fill="#39D98A"/>
            <rect x="317.886" y="253.693" width="11.05" height="38.3064" rx="2" fill="#3BC882"/>
            <rect x="330.945" y="167" width="11.05" height="125" rx="2" fill="#57EBA1"/>
            <rect x="330.945" y="196.234" width="11.05" height="95.7661" rx="2" fill="#39D98A"/>
            <rect x="330.945" y="224.46" width="11.05" height="67.5403" rx="2" fill="#3BC882"/>
            <rect x="344.005" y="205.307" width="11.05" height="86.6936" rx="2" fill="#57EBA1"/>
            <rect x="344.005" y="225.468" width="11.05" height="66.5323" rx="2" fill="#39D98A"/>
            <rect x="344.005" y="245.629" width="11.05" height="46.371" rx="2" fill="#3BC882"/>
            <rect x="357.064" y="228.492" width="11.05" height="63.5081" rx="2" fill="#57EBA1"/>
            <rect x="357.064" y="243.613" width="11.05" height="48.3871" rx="2" fill="#39D98A"/>
            <rect x="357.064" y="257.726" width="11.05" height="34.2742" rx="2" fill="#3BC882"/>
            <rect x="370.123" y="193.21" width="11.05" height="98.7903" rx="2" fill="#57EBA1"/>
            <rect x="370.123" y="216.396" width="11.05" height="75.6048" rx="2" fill="#39D98A"/>
            <rect x="370.123" y="238.572" width="11.05" height="53.4274" rx="2" fill="#3BC882"/>
            <rect x="383.182" y="170.024" width="11.05" height="121.976" rx="2" fill="#57EBA1"/>
            <rect x="383.182" y="199.258" width="11.05" height="92.7419" rx="2" fill="#39D98A"/>
            <rect x="383.182" y="226.476" width="11.05" height="65.5242" rx="2" fill="#3BC882"/>
            <rect x="396.241" y="212.363" width="11.05" height="79.6371" rx="2" fill="#57EBA1"/>
            <rect x="396.241" y="231.516" width="11.05" height="60.4839" rx="2" fill="#39D98A"/>
            <rect x="396.241" y="249.661" width="11.05" height="42.3387" rx="2" fill="#3BC882"/>
            <rect x="409.3" y="221.436" width="11.05" height="70.5645" rx="2" fill="#57EBA1"/>
            <rect x="409.3" y="237.564" width="11.05" height="54.4355" rx="2" fill="#39D98A"/>
            <rect x="409.3" y="253.693" width="11.05" height="38.3064" rx="2" fill="#3BC882"/>
            <rect x="422.359" y="167" width="11.05" height="125" rx="2" fill="#57EBA1"/>
            <rect x="422.359" y="196.234" width="11.05" height="95.7661" rx="2" fill="#39D98A"/>
            <rect x="422.359" y="224.46" width="11.05" height="67.5403" rx="2" fill="#3BC882"/>
            <rect x="435.418" y="205.307" width="11.05" height="86.6936" rx="2" fill="#57EBA1"/>
            <rect x="435.418" y="225.468" width="11.05" height="66.5323" rx="2" fill="#39D98A"/>
            <rect x="435.418" y="245.629" width="11.05" height="46.371" rx="2" fill="#3BC882"/>
            <rect x="448.477" y="228.492" width="11.05" height="63.5081" rx="2" fill="#57EBA1"/>
            <rect x="448.477" y="243.613" width="11.05" height="48.3871" rx="2" fill="#39D98A"/>
            <rect x="448.477" y="257.726" width="11.05" height="34.2742" rx="2" fill="#3BC882"/>
            <rect x="461.536" y="193.21" width="11.05" height="98.7903" rx="2" fill="#57EBA1"/>
            <rect x="461.536" y="216.396" width="11.05" height="75.6048" rx="2" fill="#39D98A"/>
            <rect x="461.536" y="238.572" width="11.05" height="53.4274" rx="2" fill="#3BC882"/>
        </g>
        <rect x="240" y="81" width="45" height="17" rx="8" fill="#E4E4EB"/>
        <rect x="179" y="81" width="45" height="17" rx="8" fill="#E4E4EB"/>
        <rect x="118" y="81" width="45" height="17" rx="8" fill="#3BC882"/>
    </g>
    <g opacity="0.15" filter="url(#filter4_dd)">
        <rect x="110" y="518" width="376" height="44" rx="8" fill="white"/>
        <path fill-rule="evenodd" clip-rule="evenodd" d="M142 556C150.837 556 158 548.837 158 540C158 531.163 150.837 524 142 524C133.163 524 126 531.163 126 540C126 548.837 133.163 556 142 556Z" fill="#E3FFF1"/>
        <path d="M145.287 537.205H144.463C144.283 537.205 144.113 537.291 144.007 537.439L141.244 541.271L139.993 539.534C139.887 539.388 139.718 539.3 139.537 539.3H138.713C138.599 539.3 138.532 539.43 138.599 539.524L140.789 542.561C140.841 542.633 140.909 542.692 140.988 542.733C141.067 542.773 141.154 542.795 141.243 542.795C141.332 542.795 141.42 542.773 141.499 542.733C141.578 542.692 141.646 542.633 141.698 542.561L145.4 537.428C145.468 537.335 145.401 537.205 145.287 537.205Z" fill="#39D98A"/>
        <path d="M142 532.125C137.651 532.125 134.125 535.651 134.125 540C134.125 544.349 137.651 547.875 142 547.875C146.349 547.875 149.875 544.349 149.875 540C149.875 535.651 146.349 532.125 142 532.125ZM142 546.539C138.389 546.539 135.461 543.611 135.461 540C135.461 536.389 138.389 533.461 142 533.461C145.611 533.461 148.539 536.389 148.539 540C148.539 543.611 145.611 546.539 142 546.539Z" fill="#39D98A"/>
        <rect x="170" y="534" width="45" height="12" rx="6" fill="#C7C9D9"/>
        <rect x="232" y="534" width="68" height="12" rx="6" fill="#E4E4EB"/>
        <rect x="328" y="534" width="78" height="12" rx="4" fill="#E3FFF1"/>
        <rect x="328" y="534" width="25" height="12" rx="4" fill="#39D98A"/>
        <path d="M463.652 536.895H462.736C462.537 536.895 462.348 536.99 462.231 537.154L459.16 541.412L457.77 539.482C457.652 539.32 457.465 539.223 457.264 539.223H456.348C456.221 539.223 456.147 539.367 456.221 539.471L458.654 542.846C458.712 542.926 458.788 542.991 458.875 543.036C458.963 543.082 459.06 543.105 459.159 543.105C459.258 543.105 459.355 543.082 459.443 543.036C459.531 542.991 459.607 542.926 459.664 542.846L463.777 537.143C463.854 537.039 463.779 536.895 463.652 536.895Z" fill="#39D98A"/>
        <path d="M460 531.25C455.168 531.25 451.25 535.168 451.25 540C451.25 544.832 455.168 548.75 460 548.75C464.832 548.75 468.75 544.832 468.75 540C468.75 535.168 464.832 531.25 460 531.25ZM460 547.266C455.988 547.266 452.734 544.012 452.734 540C452.734 535.988 455.988 532.734 460 532.734C464.012 532.734 467.266 535.988 467.266 540C467.266 544.012 464.012 547.266 460 547.266Z" fill="#39D98A"/>
    </g>
    <g opacity="0.45" filter="url(#filter5_dd)">
        <rect x="110" y="466" width="376" height="44" rx="8" fill="white"/>
        <path fill-rule="evenodd" clip-rule="evenodd" d="M142 504C150.837 504 158 496.837 158 488C158 479.163 150.837 472 142 472C133.163 472 126 479.163 126 488C126 496.837 133.163 504 142 504Z" fill="#E3FFF1"/>
        <path d="M145.287 485.205H144.463C144.283 485.205 144.113 485.291 144.007 485.439L141.244 489.271L139.993 487.534C139.887 487.388 139.718 487.3 139.537 487.3H138.713C138.599 487.3 138.532 487.43 138.599 487.524L140.789 490.561C140.841 490.633 140.909 490.692 140.988 490.733C141.067 490.773 141.154 490.795 141.243 490.795C141.332 490.795 141.42 490.773 141.499 490.733C141.578 490.692 141.646 490.633 141.698 490.561L145.4 485.428C145.468 485.335 145.401 485.205 145.287 485.205Z" fill="#39D98A"/>
        <path d="M142 480.125C137.651 480.125 134.125 483.651 134.125 488C134.125 492.349 137.651 495.875 142 495.875C146.349 495.875 149.875 492.349 149.875 488C149.875 483.651 146.349 480.125 142 480.125ZM142 494.539C138.389 494.539 135.461 491.611 135.461 488C135.461 484.389 138.389 481.461 142 481.461C145.611 481.461 148.539 484.389 148.539 488C148.539 491.611 145.611 494.539 142 494.539Z" fill="#39D98A"/>
        <rect x="170" y="482" width="45" height="12" rx="6" fill="#C7C9D9"/>
        <rect x="232" y="482" width="68" height="12" rx="6" fill="#E4E4EB"/>
        <rect x="328" y="482" width="78" height="12" rx="4" fill="#E3FFF1"/>
        <rect x="328" y="482" width="53" height="12" rx="4" fill="#39D98A"/>
        <path d="M463.652 484.895H462.736C462.537 484.895 462.348 484.99 462.231 485.154L459.16 489.412L457.77 487.482C457.652 487.32 457.465 487.223 457.264 487.223H456.348C456.221 487.223 456.147 487.367 456.221 487.471L458.654 490.846C458.712 490.926 458.788 490.991 458.875 491.036C458.963 491.082 459.06 491.105 459.159 491.105C459.258 491.105 459.355 491.082 459.443 491.036C459.531 490.991 459.607 490.926 459.664 490.846L463.777 485.143C463.854 485.039 463.779 484.895 463.652 484.895Z" fill="#39D98A"/>
        <path d="M460 479.25C455.168 479.25 451.25 483.168 451.25 488C451.25 492.832 455.168 496.75 460 496.75C464.832 496.75 468.75 492.832 468.75 488C468.75 483.168 464.832 479.25 460 479.25ZM460 495.266C455.988 495.266 452.734 492.012 452.734 488C452.734 483.988 455.988 480.734 460 480.734C464.012 480.734 467.266 483.988 467.266 488C467.266 492.012 464.012 495.266 460 495.266Z" fill="#39D98A"/>
    </g>
    <g opacity="0.85" filter="url(#filter6_dd)">
        <rect x="110" y="414" width="376" height="44" rx="8" fill="white"/>
        <path fill-rule="evenodd" clip-rule="evenodd" d="M142 452C150.837 452 158 444.837 158 436C158 427.163 150.837 420 142 420C133.163 420 126 427.163 126 436C126 444.837 133.163 452 142 452Z" fill="#E3FFF1"/>
        <path d="M145.287 433.205H144.463C144.283 433.205 144.113 433.291 144.007 433.439L141.244 437.271L139.993 435.534C139.887 435.388 139.718 435.3 139.537 435.3H138.713C138.599 435.3 138.532 435.43 138.599 435.524L140.789 438.561C140.841 438.633 140.909 438.692 140.988 438.733C141.067 438.773 141.154 438.795 141.243 438.795C141.332 438.795 141.42 438.773 141.499 438.733C141.578 438.692 141.646 438.633 141.698 438.561L145.4 433.428C145.468 433.335 145.401 433.205 145.287 433.205Z" fill="#39D98A"/>
        <path d="M142 428.125C137.651 428.125 134.125 431.651 134.125 436C134.125 440.349 137.651 443.875 142 443.875C146.349 443.875 149.875 440.349 149.875 436C149.875 431.651 146.349 428.125 142 428.125ZM142 442.539C138.389 442.539 135.461 439.611 135.461 436C135.461 432.389 138.389 429.461 142 429.461C145.611 429.461 148.539 432.389 148.539 436C148.539 439.611 145.611 442.539 142 442.539Z" fill="#39D98A"/>
        <rect x="170" y="430" width="45" height="12" rx="6" fill="#C7C9D9"/>
        <rect x="232" y="430" width="68" height="12" rx="6" fill="#E4E4EB"/>
        <rect x="328" y="430" width="78" height="12" rx="4" fill="#E3FFF1"/>
        <rect x="328" y="430" width="25" height="12" rx="4" fill="#39D98A"/>
        <path d="M463.652 432.895H462.736C462.537 432.895 462.348 432.99 462.231 433.154L459.16 437.412L457.77 435.482C457.652 435.32 457.465 435.223 457.264 435.223H456.348C456.221 435.223 456.147 435.367 456.221 435.471L458.654 438.846C458.712 438.926 458.788 438.991 458.875 439.036C458.963 439.082 459.06 439.105 459.159 439.105C459.258 439.105 459.355 439.082 459.443 439.036C459.531 438.991 459.607 438.926 459.664 438.846L463.777 433.143C463.854 433.039 463.779 432.895 463.652 432.895Z" fill="#39D98A"/>
        <path d="M460 427.25C455.168 427.25 451.25 431.168 451.25 436C451.25 440.832 455.168 444.75 460 444.75C464.832 444.75 468.75 440.832 468.75 436C468.75 431.168 464.832 427.25 460 427.25ZM460 443.266C455.988 443.266 452.734 440.012 452.734 436C452.734 431.988 455.988 428.734 460 428.734C464.012 428.734 467.266 431.988 467.266 436C467.266 440.012 464.012 443.266 460 443.266Z" fill="#39D98A"/>
    </g>
    <g filter="url(#filter7_dd)">
        <rect x="110" y="362" width="376" height="44" rx="8" fill="white"/>
        <path fill-rule="evenodd" clip-rule="evenodd" d="M142 400C150.837 400 158 392.837 158 384C158 375.163 150.837 368 142 368C133.163 368 126 375.163 126 384C126 392.837 133.163 400 142 400Z" fill="#E3FFF1"/>
        <path d="M145.287 381.205H144.463C144.283 381.205 144.113 381.291 144.007 381.439L141.244 385.271L139.993 383.534C139.887 383.388 139.718 383.3 139.537 383.3H138.713C138.599 383.3 138.532 383.43 138.599 383.524L140.789 386.561C140.841 386.633 140.909 386.692 140.988 386.733C141.067 386.773 141.154 386.795 141.243 386.795C141.332 386.795 141.42 386.773 141.499 386.733C141.578 386.692 141.646 386.633 141.698 386.561L145.4 381.428C145.468 381.335 145.401 381.205 145.287 381.205Z" fill="#39D98A"/>
        <path d="M142 376.125C137.651 376.125 134.125 379.651 134.125 384C134.125 388.349 137.651 391.875 142 391.875C146.349 391.875 149.875 388.349 149.875 384C149.875 379.651 146.349 376.125 142 376.125ZM142 390.539C138.389 390.539 135.461 387.611 135.461 384C135.461 380.389 138.389 377.461 142 377.461C145.611 377.461 148.539 380.389 148.539 384C148.539 387.611 145.611 390.539 142 390.539Z" fill="#39D98A"/>
        <rect x="170" y="378" width="45" height="12" rx="6" fill="#C7C9D9"/>
        <rect x="232" y="378" width="68" height="12" rx="6" fill="#E4E4EB"/>
        <rect x="328" y="378" width="78" height="12" rx="4" fill="#E3FFF1"/>
        <rect x="328" y="378" width="29" height="12" rx="4" fill="#39D98A"/>
        <path d="M463.652 380.895H462.736C462.537 380.895 462.348 380.99 462.231 381.154L459.16 385.412L457.77 383.482C457.652 383.32 457.465 383.223 457.264 383.223H456.348C456.221 383.223 456.147 383.367 456.221 383.471L458.654 386.846C458.712 386.926 458.788 386.991 458.875 387.036C458.963 387.082 459.06 387.105 459.159 387.105C459.258 387.105 459.355 387.082 459.443 387.036C459.531 386.991 459.607 386.926 459.664 386.846L463.777 381.143C463.854 381.039 463.779 380.895 463.652 380.895Z" fill="#39D98A"/>
        <path d="M460 375.25C455.168 375.25 451.25 379.168 451.25 384C451.25 388.832 455.168 392.75 460 392.75C464.832 392.75 468.75 388.832 468.75 384C468.75 379.168 464.832 375.25 460 375.25ZM460 391.266C455.988 391.266 452.734 388.012 452.734 384C452.734 379.988 455.988 376.734 460 376.734C464.012 376.734 467.266 379.988 467.266 384C467.266 388.012 464.012 391.266 460 391.266Z" fill="#39D98A"/>
    </g>
    <g filter="url(#filter8_dd)">
        <rect x="110" y="310" width="376" height="44" rx="8" fill="white"/>
        <path fill-rule="evenodd" clip-rule="evenodd" d="M142 348C150.837 348 158 340.837 158 332C158 323.163 150.837 316 142 316C133.163 316 126 323.163 126 332C126 340.837 133.163 348 142 348Z" fill="#E3FFF1"/>
        <path d="M145.287 329.205H144.463C144.283 329.205 144.113 329.291 144.007 329.439L141.244 333.271L139.993 331.534C139.887 331.388 139.718 331.3 139.537 331.3H138.713C138.599 331.3 138.532 331.43 138.599 331.524L140.789 334.561C140.841 334.633 140.909 334.692 140.988 334.733C141.067 334.773 141.154 334.795 141.243 334.795C141.332 334.795 141.42 334.773 141.499 334.733C141.578 334.692 141.646 334.633 141.698 334.561L145.4 329.428C145.468 329.335 145.401 329.205 145.287 329.205Z" fill="#39D98A"/>
        <path d="M142 324.125C137.651 324.125 134.125 327.651 134.125 332C134.125 336.349 137.651 339.875 142 339.875C146.349 339.875 149.875 336.349 149.875 332C149.875 327.651 146.349 324.125 142 324.125ZM142 338.539C138.389 338.539 135.461 335.611 135.461 332C135.461 328.389 138.389 325.461 142 325.461C145.611 325.461 148.539 328.389 148.539 332C148.539 335.611 145.611 338.539 142 338.539Z" fill="#39D98A"/>
        <rect x="170" y="326" width="45" height="12" rx="6" fill="#C7C9D9"/>
        <rect x="232" y="326" width="68" height="12" rx="6" fill="#E4E4EB"/>
        <rect x="328" y="326" width="78" height="12" rx="4" fill="#E3FFF1"/>
        <rect x="328" y="326" width="46" height="12" rx="4" fill="#39D98A"/>
        <path d="M463.652 328.895H462.736C462.537 328.895 462.348 328.99 462.231 329.154L459.16 333.412L457.77 331.482C457.652 331.32 457.465 331.223 457.264 331.223H456.348C456.221 331.223 456.147 331.367 456.221 331.471L458.654 334.846C458.712 334.926 458.788 334.991 458.875 335.036C458.963 335.082 459.06 335.105 459.159 335.105C459.258 335.105 459.355 335.082 459.443 335.036C459.531 334.991 459.607 334.926 459.664 334.846L463.777 329.143C463.854 329.039 463.779 328.895 463.652 328.895Z" fill="#39D98A"/>
        <path d="M460 323.25C455.168 323.25 451.25 327.168 451.25 332C451.25 336.832 455.168 340.75 460 340.75C464.832 340.75 468.75 336.832 468.75 332C468.75 327.168 464.832 323.25 460 323.25ZM460 339.266C455.988 339.266 452.734 336.012 452.734 332C452.734 327.988 455.988 324.734 460 324.734C464.012 324.734 467.266 327.988 467.266 332C467.266 336.012 464.012 339.266 460 339.266Z" fill="#39D98A"/>
    </g>
    <g filter="url(#filter9_dd)">
        <rect x="505" y="64" width="168" height="366" rx="6" fill="white"/>
        <rect x="521" y="282.344" width="78.2031" height="21.6562" rx="4" fill="#FAFAFC"/>
        <rect x="521" y="255.875" width="114.297" height="21.6562" rx="4" fill="#FAFAFC"/>
        <rect x="521" y="229.406" width="55.9453" height="21.6562" rx="4" fill="#FAFAFC"/>
        <rect x="521" y="202.938" width="108.281" height="21.6562" rx="4" fill="#FAFAFC"/>
        <rect x="521" y="176.469" width="84.2188" height="21.6562" rx="4" fill="#FAFAFC"/>
        <rect x="521" y="150" width="120.914" height="21.6562" rx="4" fill="#FAFAFC"/>
        <rect x="525.812" y="284.75" width="16.8438" height="16.8438" rx="4" fill="#57EBA1"/>
        <path d="M530.926 293.473L533.031 295.578L537.844 290.164" stroke="white" stroke-width="2" stroke-linecap="round" stroke-linejoin="round"/>
        <rect x="547.469" y="288.961" width="35.4922" height="7.82031" rx="3.91016" fill="#C7C9D9"/>
        <rect x="525.812" y="258.281" width="16.8438" height="16.8438" rx="4" fill="#57EBA1"/>
        <path d="M530.926 267.004L533.031 269.109L537.844 263.695" stroke="white" stroke-width="2" stroke-linecap="round" stroke-linejoin="round"/>
        <rect x="547.469" y="262.492" width="35.4922" height="7.82031" rx="3.91016" fill="#C7C9D9"/>
        <rect x="525.812" y="178.875" width="16.8438" height="16.8438" rx="4" fill="#57EBA1"/>
        <path d="M530.926 187.598L533.031 189.703L537.844 184.289" stroke="white" stroke-width="2" stroke-linecap="round" stroke-linejoin="round"/>
        <rect x="547.469" y="183.086" width="45.7188" height="7.82031" rx="3.91016" fill="#C7C9D9"/>
        <rect x="526.312" y="152.906" width="15.8438" height="15.8438" rx="3.5" stroke="#E4E4EB"/>
        <rect x="547.469" y="156.617" width="27.0703" height="7.82031" rx="3.91016" fill="#C7C9D9"/>
        <rect x="526.312" y="205.844" width="15.8438" height="15.8438" rx="3.5" stroke="#E4E4EB"/>
        <rect x="547" y="210" width="58" height="7" rx="3.5" fill="#C7C9D9"/>
        <rect x="526.312" y="232.312" width="15.8438" height="15.8438" rx="3.5" stroke="#E4E4EB"/>
        <rect x="547" y="236" width="24" height="8" rx="4" fill="#C7C9D9"/>
        <rect x="521" y="335.469" width="55.9453" height="21.6562" rx="4" fill="#FAFAFC"/>
        <rect x="521" y="309" width="108.281" height="21.6562" rx="4" fill="#FAFAFC"/>
        <rect x="526.312" y="311.906" width="15.8438" height="15.8438" rx="3.5" stroke="#E4E4EB"/>
        <rect x="547" y="316.062" width="58" height="7" rx="3.5" fill="#C7C9D9"/>
        <rect x="526.312" y="338.375" width="15.8438" height="15.8438" rx="3.5" stroke="#E4E4EB"/>
        <rect x="547" y="342.062" width="24" height="8" rx="4" fill="#C7C9D9"/>
        <rect x="521" y="114" width="136" height="20" rx="8" fill="#E4E4EB"/>
        <rect x="521" y="81" width="40" height="17" rx="8" fill="#EBEBF0"/>
        <rect x="569" y="81" width="17" height="17" rx="8" fill="#F2F2F5"/>
    </g>
    <defs>
        <filter id="filter0_dd" x="24" y="31.5" width="578" height="444" filterUnits="userSpaceOnUse" color-interpolation-filters="sRGB">
            <feFlood flood-opacity="0" result="BackgroundImageFix"/>
            <feColorMatrix in="SourceAlpha" type="matrix" values="0 0 0 0 0 0 0 0 0 0 0 0 0 0 0 0 0 0 127 0"/>
            <feOffset dy="0.5"/>
            <feGaussianBlur stdDeviation="1"/>
            <feColorMatrix type="matrix" values="0 0 0 0 0.376471 0 0 0 0 0.380392 0 0 0 0 0.439216 0 0 0 0.16 0"/>
            <feBlend mode="normal" in2="BackgroundImageFix" result="effect1_dropShadow"/>
            <feColorMatrix in="SourceAlpha" type="matrix" values="0 0 0 0 0 0 0 0 0 0 0 0 0 0 0 0 0 0 127 0"/>
            <feOffset/>
            <feGaussianBlur stdDeviation="0.5"/>
            <feColorMatrix type="matrix" values="0 0 0 0 0.156863 0 0 0 0 0.160784 0 0 0 0 0.239216 0 0 0 0.08 0"/>
            <feBlend mode="normal" in2="effect1_dropShadow" result="effect2_dropShadow"/>
            <feBlend mode="normal" in="SourceGraphic" in2="effect2_dropShadow" result="shape"/>
        </filter>
        <filter id="filter1_dd" x="22" y="55" width="72" height="424" filterUnits="userSpaceOnUse" color-interpolation-filters="sRGB">
            <feFlood flood-opacity="0" result="BackgroundImageFix"/>
            <feColorMatrix in="SourceAlpha" type="matrix" values="0 0 0 0 0 0 0 0 0 0 0 0 0 0 0 0 0 0 127 0"/>
            <feOffset dy="2"/>
            <feGaussianBlur stdDeviation="2"/>
            <feColorMatrix type="matrix" values="0 0 0 0 0.376471 0 0 0 0 0.380392 0 0 0 0 0.439216 0 0 0 0.16 0"/>
            <feBlend mode="normal" in2="BackgroundImageFix" result="effect1_dropShadow"/>
            <feColorMatrix in="SourceAlpha" type="matrix" values="0 0 0 0 0 0 0 0 0 0 0 0 0 0 0 0 0 0 127 0"/>
            <feOffset/>
            <feGaussianBlur stdDeviation="0.5"/>
            <feColorMatrix type="matrix" values="0 0 0 0 0.156863 0 0 0 0 0.160784 0 0 0 0 0.239216 0 0 0 0.04 0"/>
            <feBlend mode="normal" in2="effect1_dropShadow" result="effect2_dropShadow"/>
            <feBlend mode="normal" in="SourceGraphic" in2="effect2_dropShadow" result="shape"/>
        </filter>
        <filter id="filter2_dd" x="24" y="31.5" width="578" height="28" filterUnits="userSpaceOnUse" color-interpolation-filters="sRGB">
            <feFlood flood-opacity="0" result="BackgroundImageFix"/>
            <feColorMatrix in="SourceAlpha" type="matrix" values="0 0 0 0 0 0 0 0 0 0 0 0 0 0 0 0 0 0 127 0"/>
            <feOffset dy="0.5"/>
            <feGaussianBlur stdDeviation="1"/>
            <feColorMatrix type="matrix" values="0 0 0 0 0.376471 0 0 0 0 0.380392 0 0 0 0 0.439216 0 0 0 0.16 0"/>
            <feBlend mode="normal" in2="BackgroundImageFix" result="effect1_dropShadow"/>
            <feColorMatrix in="SourceAlpha" type="matrix" values="0 0 0 0 0 0 0 0 0 0 0 0 0 0 0 0 0 0 127 0"/>
            <feOffset/>
            <feGaussianBlur stdDeviation="0.5"/>
            <feColorMatrix type="matrix" values="0 0 0 0 0.156863 0 0 0 0 0.160784 0 0 0 0 0.239216 0 0 0 0.08 0"/>
            <feBlend mode="normal" in2="effect1_dropShadow" result="effect2_dropShadow"/>
            <feBlend mode="normal" in="SourceGraphic" in2="effect2_dropShadow" result="shape"/>
        </filter>
        <filter id="filter3_dd" x="108" y="112.5" width="379" height="193" filterUnits="userSpaceOnUse" color-interpolation-filters="sRGB">
            <feFlood flood-opacity="0" result="BackgroundImageFix"/>
            <feColorMatrix in="SourceAlpha" type="matrix" values="0 0 0 0 0 0 0 0 0 0 0 0 0 0 0 0 0 0 127 0"/>
            <feOffset dy="0.5"/>
            <feGaussianBlur stdDeviation="1"/>
            <feColorMatrix type="matrix" values="0 0 0 0 0.376471 0 0 0 0 0.380392 0 0 0 0 0.439216 0 0 0 0.16 0"/>
            <feBlend mode="normal" in2="BackgroundImageFix" result="effect1_dropShadow"/>
            <feColorMatrix in="SourceAlpha" type="matrix" values="0 0 0 0 0 0 0 0 0 0 0 0 0 0 0 0 0 0 127 0"/>
            <feOffset/>
            <feGaussianBlur stdDeviation="0.5"/>
            <feColorMatrix type="matrix" values="0 0 0 0 0.156863 0 0 0 0 0.160784 0 0 0 0 0.239216 0 0 0 0.08 0"/>
            <feBlend mode="normal" in2="effect1_dropShadow" result="effect2_dropShadow"/>
            <feBlend mode="normal" in="SourceGraphic" in2="effect2_dropShadow" result="shape"/>
        </filter>
        <filter id="filter4_dd" x="106" y="516" width="384" height="52" filterUnits="userSpaceOnUse" color-interpolation-filters="sRGB">
            <feFlood flood-opacity="0" result="BackgroundImageFix"/>
            <feColorMatrix in="SourceAlpha" type="matrix" values="0 0 0 0 0 0 0 0 0 0 0 0 0 0 0 0 0 0 127 0"/>
            <feOffset dy="2"/>
            <feGaussianBlur stdDeviation="2"/>
            <feColorMatrix type="matrix" values="0 0 0 0 0.376471 0 0 0 0 0.380392 0 0 0 0 0.439216 0 0 0 0.16 0"/>
            <feBlend mode="normal" in2="BackgroundImageFix" result="effect1_dropShadow"/>
            <feColorMatrix in="SourceAlpha" type="matrix" values="0 0 0 0 0 0 0 0 0 0 0 0 0 0 0 0 0 0 127 0"/>
            <feOffset/>
            <feGaussianBlur stdDeviation="0.5"/>
            <feColorMatrix type="matrix" values="0 0 0 0 0.156863 0 0 0 0 0.160784 0 0 0 0 0.239216 0 0 0 0.04 0"/>
            <feBlend mode="normal" in2="effect1_dropShadow" result="effect2_dropShadow"/>
            <feBlend mode="normal" in="SourceGraphic" in2="effect2_dropShadow" result="shape"/>
        </filter>
        <filter id="filter5_dd" x="106" y="464" width="384" height="52" filterUnits="userSpaceOnUse" color-interpolation-filters="sRGB">
            <feFlood flood-opacity="0" result="BackgroundImageFix"/>
            <feColorMatrix in="SourceAlpha" type="matrix" values="0 0 0 0 0 0 0 0 0 0 0 0 0 0 0 0 0 0 127 0"/>
            <feOffset dy="2"/>
            <feGaussianBlur stdDeviation="2"/>
            <feColorMatrix type="matrix" values="0 0 0 0 0.376471 0 0 0 0 0.380392 0 0 0 0 0.439216 0 0 0 0.16 0"/>
            <feBlend mode="normal" in2="BackgroundImageFix" result="effect1_dropShadow"/>
            <feColorMatrix in="SourceAlpha" type="matrix" values="0 0 0 0 0 0 0 0 0 0 0 0 0 0 0 0 0 0 127 0"/>
            <feOffset/>
            <feGaussianBlur stdDeviation="0.5"/>
            <feColorMatrix type="matrix" values="0 0 0 0 0.156863 0 0 0 0 0.160784 0 0 0 0 0.239216 0 0 0 0.04 0"/>
            <feBlend mode="normal" in2="effect1_dropShadow" result="effect2_dropShadow"/>
            <feBlend mode="normal" in="SourceGraphic" in2="effect2_dropShadow" result="shape"/>
        </filter>
        <filter id="filter6_dd" x="106" y="412" width="384" height="52" filterUnits="userSpaceOnUse" color-interpolation-filters="sRGB">
            <feFlood flood-opacity="0" result="BackgroundImageFix"/>
            <feColorMatrix in="SourceAlpha" type="matrix" values="0 0 0 0 0 0 0 0 0 0 0 0 0 0 0 0 0 0 127 0"/>
            <feOffset dy="2"/>
            <feGaussianBlur stdDeviation="2"/>
            <feColorMatrix type="matrix" values="0 0 0 0 0.376471 0 0 0 0 0.380392 0 0 0 0 0.439216 0 0 0 0.16 0"/>
            <feBlend mode="normal" in2="BackgroundImageFix" result="effect1_dropShadow"/>
            <feColorMatrix in="SourceAlpha" type="matrix" values="0 0 0 0 0 0 0 0 0 0 0 0 0 0 0 0 0 0 127 0"/>
            <feOffset/>
            <feGaussianBlur stdDeviation="0.5"/>
            <feColorMatrix type="matrix" values="0 0 0 0 0.156863 0 0 0 0 0.160784 0 0 0 0 0.239216 0 0 0 0.04 0"/>
            <feBlend mode="normal" in2="effect1_dropShadow" result="effect2_dropShadow"/>
            <feBlend mode="normal" in="SourceGraphic" in2="effect2_dropShadow" result="shape"/>
        </filter>
        <filter id="filter7_dd" x="106" y="360" width="384" height="52" filterUnits="userSpaceOnUse" color-interpolation-filters="sRGB">
            <feFlood flood-opacity="0" result="BackgroundImageFix"/>
            <feColorMatrix in="SourceAlpha" type="matrix" values="0 0 0 0 0 0 0 0 0 0 0 0 0 0 0 0 0 0 127 0"/>
            <feOffset dy="2"/>
            <feGaussianBlur stdDeviation="2"/>
            <feColorMatrix type="matrix" values="0 0 0 0 0.376471 0 0 0 0 0.380392 0 0 0 0 0.439216 0 0 0 0.16 0"/>
            <feBlend mode="normal" in2="BackgroundImageFix" result="effect1_dropShadow"/>
            <feColorMatrix in="SourceAlpha" type="matrix" values="0 0 0 0 0 0 0 0 0 0 0 0 0 0 0 0 0 0 127 0"/>
            <feOffset/>
            <feGaussianBlur stdDeviation="0.5"/>
            <feColorMatrix type="matrix" values="0 0 0 0 0.156863 0 0 0 0 0.160784 0 0 0 0 0.239216 0 0 0 0.04 0"/>
            <feBlend mode="normal" in2="effect1_dropShadow" result="effect2_dropShadow"/>
            <feBlend mode="normal" in="SourceGraphic" in2="effect2_dropShadow" result="shape"/>
        </filter>
        <filter id="filter8_dd" x="106" y="308" width="384" height="52" filterUnits="userSpaceOnUse" color-interpolation-filters="sRGB">
            <feFlood flood-opacity="0" result="BackgroundImageFix"/>
            <feColorMatrix in="SourceAlpha" type="matrix" values="0 0 0 0 0 0 0 0 0 0 0 0 0 0 0 0 0 0 127 0"/>
            <feOffset dy="2"/>
            <feGaussianBlur stdDeviation="2"/>
            <feColorMatrix type="matrix" values="0 0 0 0 0.376471 0 0 0 0 0.380392 0 0 0 0 0.439216 0 0 0 0.16 0"/>
            <feBlend mode="normal" in2="BackgroundImageFix" result="effect1_dropShadow"/>
            <feColorMatrix in="SourceAlpha" type="matrix" values="0 0 0 0 0 0 0 0 0 0 0 0 0 0 0 0 0 0 127 0"/>
            <feOffset/>
            <feGaussianBlur stdDeviation="0.5"/>
            <feColorMatrix type="matrix" values="0 0 0 0 0.156863 0 0 0 0 0.160784 0 0 0 0 0.239216 0 0 0 0.04 0"/>
            <feBlend mode="normal" in2="effect1_dropShadow" result="effect2_dropShadow"/>
            <feBlend mode="normal" in="SourceGraphic" in2="effect2_dropShadow" result="shape"/>
        </filter>
        <filter id="filter9_dd" x="501" y="62" width="176" height="374" filterUnits="userSpaceOnUse" color-interpolation-filters="sRGB">
            <feFlood flood-opacity="0" result="BackgroundImageFix"/>
            <feColorMatrix in="SourceAlpha" type="matrix" values="0 0 0 0 0 0 0 0 0 0 0 0 0 0 0 0 0 0 127 0"/>
            <feOffset dy="2"/>
            <feGaussianBlur stdDeviation="2"/>
            <feColorMatrix type="matrix" values="0 0 0 0 0.376471 0 0 0 0 0.380392 0 0 0 0 0.439216 0 0 0 0.16 0"/>
            <feBlend mode="normal" in2="BackgroundImageFix" result="effect1_dropShadow"/>
            <feColorMatrix in="SourceAlpha" type="matrix" values="0 0 0 0 0 0 0 0 0 0 0 0 0 0 0 0 0 0 127 0"/>
            <feOffset/>
            <feGaussianBlur stdDeviation="0.5"/>
            <feColorMatrix type="matrix" values="0 0 0 0 0.156863 0 0 0 0 0.160784 0 0 0 0 0.239216 0 0 0 0.04 0"/>
            <feBlend mode="normal" in2="effect1_dropShadow" result="effect2_dropShadow"/>
            <feBlend mode="normal" in="SourceGraphic" in2="effect2_dropShadow" result="shape"/>
        </filter>
        <linearGradient id="paint0_linear" x1="318.925" y1="247.5" x2="319.907" y2="420.7" gradientUnits="userSpaceOnUse">
            <stop/>
            <stop offset="1" stop-opacity="0"/>
        </linearGradient>
    </defs>
</svg>
