<svg width="154" height="154" viewBox="0 0 154 154" fill="none" xmlns="http://www.w3.org/2000/svg">
    <circle cx="77" cy="77" r="77" fill="#E3FFF1"/>
    <path fill-rule="evenodd" clip-rule="evenodd" d="M113 43H41C34.372 43 29 47.5662 29 53.2V100.8C29 106.434 34.372 111 41 111H113C119.628 111 125 106.434 125 100.8V53.2C125 47.5662 119.628 43 113 43Z" fill="url(#paint0_linear)"/>
    <g opacity="0.65" filter="url(#filter0_dd)">
        <path fill-rule="evenodd" clip-rule="evenodd" d="M130 23H58C51.372 23 46 27.7005 46 33.5V82.5C46 88.2995 51.372 93 58 93H130C136.628 93 142 88.2995 142 82.5V33.5C142 27.7005 136.628 23 130 23Z" fill="#376C66"/>
    </g>
    <path fill-rule="evenodd" clip-rule="evenodd" d="M75 57C75 55.897 75.897 55 77 55H81C82.103 55 83 55.897 83 57V69C83 70.103 82.103 71 81 71H77C75.897 71 75 70.103 75 69V57ZM77 73H81C83.209 73 85 71.209 85 69V57C85 54.791 83.209 53 81 53H77C74.791 53 73 54.791 73 57V69C73 71.209 74.791 73 77 73ZM90 42C90 40.897 90.897 40 92 40H96C97.103 40 98 40.897 98 42V69C98 70.103 97.103 71 96 71H92C90.897 71 90 70.103 90 69V42ZM92 73H96C98.209 73 100 71.209 100 69V42C100 39.791 98.209 38 96 38H92C89.791 38 88 39.791 88 42V69C88 71.209 89.791 73 92 73ZM105 51C105 49.897 105.897 49 107 49H111C112.103 49 113 49.897 113 51V69C113 70.103 112.103 71 111 71H107C105.897 71 105 70.103 105 69V51ZM107 73H111C113.209 73 115 71.209 115 69V51C115 48.791 113.209 47 111 47H107C104.791 47 103 48.791 103 51V69C103 71.209 104.791 73 107 73ZM117 76H71C70.447 76 70 76.448 70 77C70 77.552 70.447 78 71 78H117C117.553 78 118 77.552 118 77C118 76.448 117.553 76 117 76Z" fill="white"/>
    <defs>
        <filter id="filter0_dd" x="42" y="21" width="104" height="78" filterUnits="userSpaceOnUse" color-interpolation-filters="sRGB">
            <feFlood flood-opacity="0" result="BackgroundImageFix"/>
            <feColorMatrix in="SourceAlpha" type="matrix" values="0 0 0 0 0 0 0 0 0 0 0 0 0 0 0 0 0 0 127 0"/>
            <feOffset dy="2"/>
            <feGaussianBlur stdDeviation="2"/>
            <feColorMatrix type="matrix" values="0 0 0 0 0.376471 0 0 0 0 0.380392 0 0 0 0 0.439216 0 0 0 0.16 0"/>
            <feBlend mode="normal" in2="BackgroundImageFix" result="effect1_dropShadow"/>
            <feColorMatrix in="SourceAlpha" type="matrix" values="0 0 0 0 0 0 0 0 0 0 0 0 0 0 0 0 0 0 127 0"/>
            <feOffset/>
            <feGaussianBlur stdDeviation="0.5"/>
            <feColorMatrix type="matrix" values="0 0 0 0 0.156863 0 0 0 0 0.160784 0 0 0 0 0.239216 0 0 0 0.04 0"/>
            <feBlend mode="normal" in2="effect1_dropShadow" result="effect2_dropShadow"/>
            <feBlend mode="normal" in="SourceGraphic" in2="effect2_dropShadow" result="shape"/>
        </filter>
        <linearGradient id="paint0_linear" x1="77" y1="43" x2="77" y2="111" gradientUnits="userSpaceOnUse">
            <stop stop-color="#3BC882" stop-opacity="0"/>
            <stop offset="1" stop-color="#3BC882"/>
        </linearGradient>
    </defs>
</svg>
