<svg width="154" height="154" viewBox="0 0 154 154" fill="none" xmlns="http://www.w3.org/2000/svg">
    <circle cx="77" cy="77" r="77" fill="#E3FFF1"/>
    <path fill-rule="evenodd" clip-rule="evenodd" d="M102.5 43H51.5C46.8052 43 43 47.5662 43 53.2V100.8C43 106.434 46.8052 111 51.5 111H102.5C107.195 111 111 106.434 111 100.8V53.2C111 47.5662 107.195 43 102.5 43Z" fill="url(#paint0_linear)"/>
    <g opacity="0.65" filter="url(#filter0_dd)">
        <circle cx="103" cy="58" r="40" fill="#376C66"/>
    </g>
    <path fill-rule="evenodd" clip-rule="evenodd" d="M116.533 70.3553L111.81 65.6328C113.585 63.5861 114.667 60.9228 114.667 58.0011C114.667 51.8386 109.886 46.8053 103.833 46.3761V39.6886C113.557 40.1261 121.333 48.1711 121.333 58.0011C121.333 62.7561 119.513 67.0936 116.533 70.3553ZM84.6875 58.8328H91.375C91.8042 64.8853 96.8375 69.6661 103 69.6661C105.922 69.6661 108.585 68.5844 110.632 66.8103L115.354 71.5319C112.092 74.5119 107.755 76.3328 103 76.3328C93.17 76.3328 85.125 68.5561 84.6875 58.8328ZM102.167 39.6886V46.3761C96.39 46.7853 91.7842 51.3911 91.375 57.1678H84.6875C85.1125 47.7203 92.7192 40.1136 102.167 39.6886ZM103 68C97.4858 68 93 63.5142 93 58C93 52.4858 97.4858 48 103 48C108.514 48 113 52.4858 113 58C113 63.5142 108.514 68 103 68ZM103 38C91.9542 38 83 46.9542 83 58C83 69.0458 91.9542 78 103 78C114.046 78 123 69.0458 123 58C123 46.9542 114.046 38 103 38Z" fill="white"/>
    <path d="M116.533 70.3553L116.356 70.532L116.541 70.717L116.717 70.5239L116.533 70.3553ZM111.81 65.6328L111.621 65.469L111.469 65.6449L111.633 65.8095L111.81 65.6328ZM103.833 46.3761H103.583V46.609L103.816 46.6255L103.833 46.3761ZM103.833 39.6886L103.845 39.4389L103.583 39.4271V39.6886H103.833ZM84.6875 58.8328V58.5828H84.426L84.4378 58.844L84.6875 58.8328ZM91.375 58.8328L91.6244 58.8151L91.6079 58.5828H91.375V58.8328ZM110.632 66.8103L110.808 66.6335L110.644 66.4689L110.468 66.6214L110.632 66.8103ZM115.354 71.5319L115.523 71.7165L115.716 71.5401L115.531 71.3551L115.354 71.5319ZM102.167 39.6886H102.417V39.4271L102.155 39.4389L102.167 39.6886ZM102.167 46.3761L102.184 46.6255L102.417 46.609V46.3761H102.167ZM91.375 57.1678V57.4178H91.6079L91.6244 57.1854L91.375 57.1678ZM84.6875 57.1678L84.4378 57.1565L84.426 57.4178H84.6875V57.1678ZM116.709 70.1785L111.987 65.456L111.633 65.8095L116.356 70.532L116.709 70.1785ZM111.999 65.7966C113.811 63.7066 114.917 60.9858 114.917 58.0011H114.417C114.417 60.8597 113.359 63.4655 111.621 65.469L111.999 65.7966ZM114.917 58.0011C114.917 51.706 110.033 46.5651 103.851 46.1267L103.816 46.6255C109.739 47.0455 114.417 51.9712 114.417 58.0011H114.917ZM104.083 46.3761V39.6886H103.583V46.3761H104.083ZM103.822 39.9383C113.413 40.3699 121.083 48.3055 121.083 58.0011H121.583C121.583 48.0367 113.701 39.8823 103.845 39.4389L103.822 39.9383ZM121.083 58.0011C121.083 62.691 119.288 66.969 116.348 70.1866L116.717 70.5239C119.737 67.2182 121.583 62.8212 121.583 58.0011H121.083ZM84.6875 59.0828H91.375V58.5828H84.6875V59.0828ZM91.1256 58.8504C91.564 65.0324 96.7049 69.9161 103 69.9161V69.4161C96.9701 69.4161 92.0444 64.7381 91.6244 58.8151L91.1256 58.8504ZM103 69.9161C105.985 69.9161 108.706 68.8108 110.795 66.9992L110.468 66.6214C108.464 68.3581 105.859 69.4161 103 69.4161V69.9161ZM110.455 66.9871L115.177 71.7087L115.531 71.3551L110.808 66.6335L110.455 66.9871ZM115.186 71.3474C111.968 74.2871 107.69 76.0828 103 76.0828V76.5828C107.82 76.5828 112.217 74.7368 115.523 71.7165L115.186 71.3474ZM103 76.0828C93.3044 76.0828 85.3688 68.412 84.9372 58.8215L84.4378 58.844C84.8812 68.7002 93.0356 76.5828 103 76.5828V76.0828ZM101.917 39.6886V46.3761H102.417V39.6886H101.917ZM102.149 46.1267C96.2482 46.5447 91.5436 51.2493 91.1256 57.1501L91.6244 57.1854C92.0247 51.5329 96.5318 47.0258 102.184 46.6255L102.149 46.1267ZM91.375 56.9178H84.6875V57.4178H91.375V56.9178ZM84.9372 57.179C85.3564 47.8607 92.8596 40.3575 102.178 39.9383L102.155 39.4389C92.5787 39.8697 84.8686 47.5798 84.4378 57.1565L84.9372 57.179ZM103 67.75C97.6239 67.75 93.25 63.3761 93.25 58H92.75C92.75 63.6522 97.3478 68.25 103 68.25V67.75ZM93.25 58C93.25 52.6239 97.6239 48.25 103 48.25V47.75C97.3478 47.75 92.75 52.3478 92.75 58H93.25ZM103 48.25C108.376 48.25 112.75 52.6239 112.75 58H113.25C113.25 52.3478 108.652 47.75 103 47.75V48.25ZM112.75 58C112.75 63.3761 108.376 67.75 103 67.75V68.25C108.652 68.25 113.25 63.6522 113.25 58H112.75ZM103 37.75C91.8161 37.75 82.75 46.8161 82.75 58H83.25C83.25 47.0922 92.0922 38.25 103 38.25V37.75ZM82.75 58C82.75 69.1839 91.8161 78.25 103 78.25V77.75C92.0922 77.75 83.25 68.9078 83.25 58H82.75ZM103 78.25C114.184 78.25 123.25 69.1839 123.25 58H122.75C122.75 68.9078 113.908 77.75 103 77.75V78.25ZM123.25 58C123.25 46.8161 114.184 37.75 103 37.75V38.25C113.908 38.25 122.75 47.0922 122.75 58H123.25Z" fill="white"/>
    <defs>
        <filter id="filter0_dd" x="59" y="16" width="88" height="88" filterUnits="userSpaceOnUse" color-interpolation-filters="sRGB">
            <feFlood flood-opacity="0" result="BackgroundImageFix"/>
            <feColorMatrix in="SourceAlpha" type="matrix" values="0 0 0 0 0 0 0 0 0 0 0 0 0 0 0 0 0 0 127 0"/>
            <feOffset dy="2"/>
            <feGaussianBlur stdDeviation="2"/>
            <feColorMatrix type="matrix" values="0 0 0 0 0.376471 0 0 0 0 0.380392 0 0 0 0 0.439216 0 0 0 0.16 0"/>
            <feBlend mode="normal" in2="BackgroundImageFix" result="effect1_dropShadow"/>
            <feColorMatrix in="SourceAlpha" type="matrix" values="0 0 0 0 0 0 0 0 0 0 0 0 0 0 0 0 0 0 127 0"/>
            <feOffset/>
            <feGaussianBlur stdDeviation="0.5"/>
            <feColorMatrix type="matrix" values="0 0 0 0 0.156863 0 0 0 0 0.160784 0 0 0 0 0.239216 0 0 0 0.04 0"/>
            <feBlend mode="normal" in2="effect1_dropShadow" result="effect2_dropShadow"/>
            <feBlend mode="normal" in="SourceGraphic" in2="effect2_dropShadow" result="shape"/>
        </filter>
        <linearGradient id="paint0_linear" x1="77" y1="43" x2="77" y2="111" gradientUnits="userSpaceOnUse">
            <stop stop-color="#3BC882" stop-opacity="0"/>
            <stop offset="1" stop-color="#3BC882"/>
        </linearGradient>
    </defs>
</svg>
