<svg width="758" height="425" viewBox="0 0 758 425" fill="none" xmlns="http://www.w3.org/2000/svg">
<mask id="mask0" mask-type="alpha" maskUnits="userSpaceOnUse" x="404" y="201" width="186" height="126">
<rect x="590" y="327" width="186" height="126" rx="20" transform="rotate(-180 590 327)" fill="#C4C4C4"/>
</mask>
<g mask="url(#mask0)">
<path fill-rule="evenodd" clip-rule="evenodd" d="M-49 476.853L400.447 216L753 419.148L303.339 680L-49 476.853Z" stroke="#FF8080" stroke-width="2" stroke-linecap="round" stroke-linejoin="round" stroke-dasharray="1 4"/>
</g>
<mask id="mask1" mask-type="alpha" maskUnits="userSpaceOnUse" x="98" y="213" width="186" height="130">
<rect x="284" y="343" width="186" height="130" rx="20" transform="rotate(-180 284 343)" fill="#C4C4C4"/>
</mask>
<g mask="url(#mask1)">
<path fill-rule="evenodd" clip-rule="evenodd" d="M-166 469.853L283.447 209L636 412.148L186.339 673L-166 469.853Z" stroke="#FF8080" stroke-width="2" stroke-linecap="round" stroke-linejoin="round" stroke-dasharray="1 4"/>
</g>
<g filter="url(#filter0_dd)">
<path fill-rule="evenodd" clip-rule="evenodd" d="M157.016 192.585C155.202 191.529 154.184 190.101 154.184 188.614L154.184 183.948L516.184 152.935V156.114C516.184 157.601 515.167 159.028 513.353 160.084L314.26 276.07C310.438 278.296 304.204 278.297 300.381 276.071L157.016 192.585Z" fill="url(#paint0_linear)"/>
<g filter="url(#filter1_b)">
<path fill-rule="evenodd" clip-rule="evenodd" d="M157.092 188.76C153.277 186.557 153.277 182.986 157.092 180.783L356.241 65.8144C360.057 63.6116 366.243 63.6116 370.059 65.8144L513.373 148.55C517.189 150.752 517.189 154.324 513.373 156.527L314.224 271.495C310.409 273.698 304.222 273.698 300.407 271.495L157.092 188.76Z" fill="#28293D"/>
</g>
<rect width="67.9587" height="4.91268" rx="1.5" transform="matrix(0.86361 -0.498563 0.86361 0.498563 224.854 214.844)" fill="#555770"/>
<rect width="71.2338" height="4.91268" rx="1.5" transform="matrix(0.863611 -0.498562 0.863611 0.498562 241.824 224.641)" fill="#555770"/>
<rect width="30.2949" height="4.91268" rx="1.5" transform="matrix(0.863611 -0.498562 0.863611 0.498562 333.041 162.184)" fill="#555770"/>
<rect width="40.939" height="4.91268" rx="1.5" transform="matrix(0.86361 -0.498563 0.86361 0.498563 233.338 219.742)" fill="#555770"/>
<rect width="61.4085" height="4.91268" rx="1.5" transform="matrix(0.863611 -0.498562 0.863611 0.498562 274.352 196.066)" fill="#555770"/>
<rect width="40.939" height="4.91268" rx="1.5" transform="matrix(0.863611 -0.498562 0.863611 0.498562 289.199 177.696)" fill="#555770"/>
<rect width="48.308" height="4.91268" rx="1.5" transform="matrix(0.863611 -0.498562 0.863611 0.498562 330.213 154.021)" fill="#555770"/>
<rect width="67.9587" height="4.91268" rx="1.5" transform="matrix(0.863611 -0.498562 0.863611 0.498562 250.309 229.539)" fill="#555770"/>
<rect width="71.2338" height="4.91268" rx="1.5" transform="matrix(0.863611 -0.498562 0.863611 0.498562 267.279 239.336)" fill="#555770"/>
<rect width="10.6441" height="4.91268" rx="1.5" transform="matrix(0.863611 -0.498562 0.863611 0.498562 358.496 176.88)" fill="#555770"/>
<rect width="40.939" height="4.91268" rx="1.5" transform="matrix(0.863611 -0.498562 0.863611 0.498562 258.795 234.438)" fill="#555770"/>
<rect width="61.4085" height="4.91268" rx="1.5" transform="matrix(0.86361 -0.498563 0.86361 0.498563 299.807 210.762)" fill="#555770"/>
<rect width="14.738" height="4.91268" rx="1.5" transform="matrix(0.86361 -0.498563 0.86361 0.498563 314.656 192.392)" fill="#555770"/>
<rect width="8.18779" height="4.91267" rx="1.5" transform="matrix(0.86361 -0.498563 0.86361 0.498563 333.041 181.778)" fill="#555770"/>
<rect width="40.939" height="4.91268" rx="1.5" transform="matrix(0.863611 -0.498562 0.863611 0.498562 275.766 244.235)" fill="#555770"/>
<rect width="25.3822" height="4.91268" rx="1.5" transform="matrix(0.863611 -0.498562 0.863611 0.498562 292.736 254.032)" fill="#555770"/>
<rect width="13.9193" height="4.91268" rx="1.5" transform="matrix(0.86361 -0.498563 0.86361 0.498563 320.312 238.112)" fill="#555770"/>
<rect width="37.6639" height="4.91268" rx="1.5" transform="matrix(0.863611 -0.498562 0.863611 0.498562 325.262 225.457)" fill="#555770"/>
<rect width="13.1005" height="4.91268" rx="1.5" transform="matrix(0.863611 -0.498562 0.863611 0.498562 284.25 249.134)" fill="#555770"/>
<rect width="21.2883" height="4.91268" rx="1.5" transform="matrix(0.863611 -0.498562 0.863611 0.498562 301.221 239.336)" fill="#555770"/>
<rect width="14.738" height="4.91268" rx="1.5" transform="matrix(0.86361 -0.498563 0.86361 0.498563 316.777 220.559)" fill="#555770"/>
<rect width="33.57" height="4.91268" rx="1.5" transform="matrix(0.86361 -0.498563 0.86361 0.498563 335.162 209.945)" fill="#555770"/>
<path fill-rule="evenodd" clip-rule="evenodd" d="M176.747 184.948C178.505 183.934 178.505 182.289 176.747 181.274C174.99 180.26 172.141 180.26 170.383 181.274C168.626 182.289 168.626 183.934 170.383 184.948C172.141 185.963 174.99 185.963 176.747 184.948Z" fill="#FF5C5C"/>
<path fill-rule="evenodd" clip-rule="evenodd" d="M187.355 178.825C189.112 177.811 189.112 176.166 187.355 175.151C185.597 174.137 182.748 174.137 180.991 175.151C179.233 176.166 179.233 177.811 180.991 178.825C182.748 179.84 185.597 179.84 187.355 178.825Z" fill="#FDDD48"/>
<path fill-rule="evenodd" clip-rule="evenodd" d="M197.962 172.702C199.719 171.687 199.719 170.042 197.962 169.028C196.205 168.013 193.355 168.013 191.598 169.028C189.841 170.042 189.841 171.687 191.598 172.702C193.355 173.716 196.205 173.716 197.962 172.702Z" fill="#39D98A"/>
<rect y="0.498562" width="39.8148" height="225.237" rx="7.5" transform="matrix(0.863611 0.498562 -0.863611 0.498562 376.665 78.4204)" stroke="#57EBA1"/>
</g>
<path d="M219.182 172.436L185.433 153.436L185.182 192.356L218.182 211.935L406.682 99.936L406.682 63.9361L219.182 172.436Z" fill="url(#paint1_linear)"/>
<circle opacity="0.25" r="100.823" transform="matrix(0.866044 -0.499967 0.866044 0.499967 212.5 165.223)" fill="#E3FFF1" stroke="#57EBA1"/>
<circle opacity="0.5" r="79.0762" transform="matrix(0.866044 -0.499967 0.866044 0.499967 212.099 161.12)" fill="#E3FFF1" stroke="#57EBA1"/>
<circle opacity="0.75" r="56.1587" transform="matrix(0.866044 -0.499967 0.866044 0.499967 212.53 161.12)" fill="#E3FFF1" stroke="#57EBA1"/>
<circle r="35.6619" transform="matrix(0.866044 -0.499967 0.866044 0.499967 212.206 161.12)" fill="#E3FFF1" stroke="#57EBA1"/>
<g filter="url(#filter2_dd)">
<path d="M185.182 152.937L406.682 61.9357L406.682 64.5975C406.682 66.0945 405.651 67.5301 403.816 68.588L223.467 172.593C219.601 174.823 213.319 174.788 209.527 172.517L187.918 159.575C186.163 158.523 185.182 157.12 185.182 155.66L185.182 152.937Z" fill="url(#paint2_linear)"/>
<rect width="40.8148" height="225.382" rx="8" transform="matrix(0.863611 0.498562 -0.863611 0.498562 375.824 39.9363)" fill="white"/>
<path d="M214.197 157.605L205.135 152.373L210.941 149.022L212.299 149.806L208.1 152.229L210.414 153.565L213.975 151.51L215.333 152.293L211.772 154.349L214.446 155.893L218.783 153.389L220.141 154.173L214.197 157.605ZM222.879 152.593L216.076 148.665L217.392 147.905L219.069 148.713L219.11 148.689C218.907 148.166 218.907 147.681 219.11 147.233C219.314 146.775 219.711 146.375 220.302 146.033C220.579 145.873 220.838 145.751 221.078 145.665C221.318 145.569 221.591 145.492 221.895 145.433L222.907 146.401C222.611 146.487 222.362 146.572 222.159 146.657C221.956 146.732 221.725 146.844 221.466 146.993C220.995 147.265 220.676 147.604 220.51 148.009C220.344 148.414 220.417 148.91 220.732 149.497L224.487 151.665L222.879 152.593ZM231.187 147.796L224.384 143.869L225.7 143.109L227.377 143.917L227.419 143.893C227.215 143.37 227.215 142.885 227.419 142.437C227.622 141.978 228.019 141.578 228.61 141.237C228.887 141.077 229.146 140.954 229.386 140.869C229.626 140.773 229.899 140.696 230.204 140.637L231.215 141.605C230.92 141.69 230.67 141.776 230.467 141.861C230.264 141.936 230.033 142.048 229.774 142.197C229.303 142.469 228.984 142.807 228.818 143.213C228.652 143.618 228.726 144.114 229.04 144.701L232.795 146.868L231.187 147.796ZM242.018 141.736C241.574 141.992 241.066 142.195 240.493 142.344C239.921 142.493 239.325 142.571 238.706 142.576C238.087 142.581 237.459 142.512 236.821 142.368C236.193 142.219 235.598 141.981 235.034 141.656C234.471 141.331 234.06 140.987 233.801 140.624C233.551 140.256 233.431 139.894 233.441 139.536C233.45 139.179 233.584 138.835 233.842 138.504C234.092 138.168 234.438 137.872 234.882 137.616C235.325 137.361 235.838 137.161 236.42 137.017C236.992 136.867 237.588 136.79 238.207 136.785C238.826 136.779 239.45 136.851 240.078 137.001C240.715 137.145 241.315 137.379 241.879 137.704C242.442 138.03 242.849 138.376 243.098 138.744C243.357 139.107 243.482 139.467 243.472 139.824C243.463 140.182 243.329 140.525 243.071 140.856C242.812 141.187 242.461 141.48 242.018 141.736ZM240.715 140.984C241.269 140.664 241.5 140.296 241.408 139.88C241.306 139.459 240.914 139.051 240.23 138.656C239.537 138.256 238.831 138.03 238.11 137.976C237.38 137.918 236.738 138.048 236.184 138.368C235.63 138.688 235.404 139.059 235.505 139.48C235.598 139.896 235.99 140.304 236.683 140.704C237.367 141.099 238.073 141.325 238.803 141.384C239.523 141.437 240.161 141.304 240.715 140.984ZM247.804 138.204L241.001 134.276L242.317 133.516L243.994 134.324L244.035 134.3C243.832 133.777 243.832 133.292 244.035 132.844C244.238 132.386 244.636 131.986 245.227 131.644C245.504 131.484 245.762 131.362 246.003 131.276C246.243 131.18 246.515 131.103 246.82 131.044L247.832 132.012C247.536 132.098 247.287 132.183 247.083 132.268C246.88 132.343 246.649 132.455 246.391 132.604C245.92 132.876 245.601 133.215 245.435 133.62C245.268 134.025 245.342 134.521 245.656 135.108L249.411 137.276L247.804 138.204ZM258.634 132.143C258.237 132.373 257.78 132.487 257.262 132.487C256.736 132.482 256.269 132.362 255.863 132.127C255.456 131.893 255.253 131.626 255.253 131.327C255.244 131.023 255.438 130.757 255.835 130.528C256.232 130.298 256.694 130.186 257.221 130.192C257.738 130.192 258.2 130.309 258.606 130.544C259.013 130.778 259.221 131.047 259.23 131.351C259.23 131.65 259.031 131.914 258.634 132.143ZM266.942 127.347C266.545 127.576 266.088 127.691 265.57 127.691C265.044 127.686 264.577 127.566 264.171 127.331C263.765 127.096 263.561 126.83 263.561 126.531C263.552 126.227 263.746 125.96 264.143 125.731C264.541 125.502 265.002 125.39 265.529 125.395C266.046 125.395 266.508 125.513 266.915 125.747C267.321 125.982 267.529 126.251 267.538 126.555C267.538 126.854 267.339 127.118 266.942 127.347ZM275.25 122.551C274.853 122.78 274.396 122.895 273.879 122.895C273.352 122.889 272.886 122.769 272.479 122.535C272.073 122.3 271.87 122.033 271.87 121.735C271.86 121.431 272.054 121.164 272.452 120.935C272.849 120.706 273.311 120.594 273.837 120.599C274.354 120.599 274.816 120.716 275.223 120.951C275.629 121.185 275.837 121.455 275.846 121.759C275.846 122.057 275.648 122.321 275.25 122.551Z" fill="#8F90A6"/>
</g>
<g filter="url(#filter3_dd)">
<path d="M14.0585 323.809L141.161 322.5L141.161 330.151C141.161 333.526 138.839 336.764 134.704 339.15L93.1986 363.112C84.5892 368.082 70.6305 368.082 62.0211 363.112L20.5155 339.15C16.3811 336.764 14.0585 333.526 14.0585 330.151L14.0585 323.809Z" fill="url(#paint3_linear)"/>
<rect width="84.0609" height="84.0609" rx="18" transform="matrix(0.866044 0.499967 -0.866044 0.499967 77.6094 281)" fill="white"/>
<path d="M88.5825 322.818C89.0537 322.544 89.7433 322.438 90.3907 322.54L105.889 324.794C107.28 325.011 107.818 326.052 106.807 326.639L74.0096 345.573C72.9938 346.162 71.2471 345.889 70.873 345.082L66.9908 336.083C66.8186 335.712 67.0004 335.317 67.4683 335.046L88.5825 322.818Z" fill="#223C37"/>
<path d="M79.6832 322.546C79.8615 322.919 79.6788 323.318 79.205 323.591L67.4265 330.391C66.4141 330.976 64.6874 330.709 64.3192 329.911L54.5081 308.655C54.1396 307.857 55.4088 307.127 56.7904 307.342L72.6427 309.814C73.2758 309.912 73.7711 310.197 73.9458 310.562L79.6832 322.546Z" fill="#39D98A"/>
<path d="M105.521 326.622C106.156 326.715 106.537 326.795 107 326.528L121.059 318.412C122.088 317.818 121.619 316.821 120.202 316.627L84.0631 311.384C82.673 311.194 81.4485 311.941 81.8555 312.732L87.301 323.558L105.521 326.622Z" fill="#376C66"/>
</g>
<path d="M40.5 310.131C40.5 319.796 35.5 330.131 27.5 335.631C23.1368 338.227 20 342.131 13 335.031C10 331.988 9 330.114 9 325.526C9 315.861 15.7335 304.02 24.0396 299.078C28.1048 296.66 31.7932 296.342 34.5 297.781C43.5 304.131 40.5 305.196 40.5 310.131Z" fill="#FF8080"/>
<circle r="16" transform="matrix(0.859406 -0.511293 0 1 26.7505 318.95)" fill="white"/>
<g clip-path="url(#clip0)">
<path d="M27.188 301.857C18.8827 306.798 12.1484 318.64 12.1484 328.304C12.1484 337.968 18.8827 341.798 27.188 336.857C35.4934 331.916 42.2277 320.073 42.2277 310.409C42.2277 300.745 35.4934 296.916 27.188 301.857ZM32.7406 322.702L30.525 324.008L27.188 321.364L23.8545 327.973L21.6355 329.305C21.4878 329.393 21.3669 329.328 21.3669 329.152C21.3669 329.078 21.3904 328.993 21.4307 328.911L25.7982 320.258L21.4307 316.805C21.3901 316.772 21.3676 316.714 21.3669 316.64C21.3669 316.468 21.4878 316.256 21.6355 316.168L23.8545 314.859L27.188 317.505L30.5216 310.897L32.7373 309.567C32.885 309.479 33.0058 309.544 33.0058 309.72C33.0058 309.794 32.9823 309.878 32.942 309.961L28.5812 318.606L32.9454 322.064C32.9857 322.099 33.0092 322.155 33.0092 322.229C33.0092 322.401 32.8883 322.614 32.7406 322.702Z" fill="#FF3B3B"/>
</g>
<g filter="url(#filter4_dd)">
<rect width="242.359" height="98.2535" rx="20" transform="matrix(0.863611 -0.498562 0.863611 0.498562 457 375.831)" fill="white"/>
<path fill-rule="evenodd" clip-rule="evenodd" d="M567.309 390.527C581.368 382.411 581.368 369.252 567.309 361.136C553.25 353.019 530.456 353.019 516.397 361.136C502.338 369.252 502.338 382.411 516.397 390.527C530.456 398.643 553.25 398.643 567.309 390.527Z" fill="#FFE6E6"/>
<g clip-path="url(#clip1)">
<path d="M546.482 372.341C545.436 372.108 544.318 372.003 543.199 372.032L542.274 372.054C542.243 372.055 542.213 372.061 542.186 372.07C542.16 372.079 542.138 372.092 542.122 372.108C542.106 372.123 542.097 372.141 542.095 372.158C542.094 372.176 542.1 372.194 542.113 372.21L542.516 372.692C542.769 372.993 542.918 373.364 542.958 373.791C542.96 373.819 542.94 373.838 542.923 373.849C542.907 373.861 542.875 373.875 542.827 373.876C542.784 373.878 542.743 373.868 542.715 373.849C541.778 373.238 540.355 372.761 538.477 372.43C536.919 372.155 535.375 372.13 533.883 372.352L532.796 372.515C532.653 372.536 532.609 372.642 532.718 372.699L533.55 373.138C534.118 373.437 534.536 373.751 534.786 374.067C535.093 374.455 535.285 374.868 535.358 375.297C535.408 375.595 535.401 375.895 535.335 376.192C535.173 376.906 535.293 377.631 535.686 378.314C536.087 379.001 536.757 379.625 537.643 380.137C538.426 380.589 539.337 380.937 540.356 381.173C541.338 381.4 542.388 381.515 543.446 381.512C544.513 381.508 545.554 381.389 546.538 381.156C547.559 380.915 548.474 380.563 549.261 380.108C550.048 379.654 550.658 379.126 551.077 378.537C551.482 377.971 551.691 377.365 551.694 376.752C551.7 376.136 551.502 375.535 551.107 374.969C550.699 374.382 550.089 373.849 549.312 373.403C548.504 372.936 547.552 372.578 546.482 372.341Z" fill="#FF3B3B"/>
</g>
<rect width="52.4019" height="6.55023" rx="3.27512" transform="matrix(0.863611 -0.498562 0.863611 0.498562 593.473 356.645)" fill="#EBEBF0"/>
<rect width="117.904" height="6.55024" rx="3.27512" transform="matrix(0.863611 -0.498563 0.863611 0.498563 582.865 350.522)" fill="#EBEBF0"/>
<rect width="55.677" height="13.1005" rx="6.55024" transform="matrix(0.863611 -0.498563 0.863611 0.498563 565.895 340.725)" fill="#C7C9D9"/>
</g>
<g filter="url(#filter5_dd)">
<rect width="242.359" height="98.2536" rx="20" transform="matrix(0.863611 -0.498562 0.863611 0.498562 365 307.831)" fill="white"/>
<path fill-rule="evenodd" clip-rule="evenodd" d="M475.309 322.527C489.368 314.411 489.368 301.252 475.309 293.136C461.25 285.019 438.456 285.019 424.397 293.136C410.338 301.252 410.338 314.411 424.397 322.527C438.456 330.643 461.25 330.643 475.309 322.527Z" fill="#FFE6E6"/>
<g clip-path="url(#clip2)">
<path d="M454.482 304.341C453.436 304.108 452.318 304.003 451.199 304.032L450.274 304.054C450.243 304.055 450.213 304.061 450.186 304.07C450.16 304.079 450.138 304.092 450.122 304.108C450.106 304.123 450.097 304.141 450.095 304.158C450.094 304.176 450.1 304.194 450.113 304.21L450.516 304.692C450.769 304.993 450.919 305.364 450.958 305.791C450.96 305.819 450.94 305.838 450.923 305.849C450.907 305.861 450.875 305.875 450.827 305.876C450.784 305.878 450.743 305.868 450.715 305.849C449.778 305.238 448.355 304.761 446.477 304.43C444.919 304.155 443.375 304.13 441.883 304.352L440.796 304.515C440.653 304.536 440.609 304.642 440.718 304.699L441.55 305.138C442.118 305.437 442.536 305.751 442.786 306.067C443.093 306.455 443.285 306.868 443.358 307.297C443.408 307.595 443.401 307.895 443.335 308.192C443.173 308.906 443.293 309.631 443.686 310.314C444.087 311.001 444.757 311.625 445.643 312.137C446.426 312.589 447.337 312.937 448.356 313.173C449.339 313.4 450.388 313.515 451.446 313.512C452.513 313.508 453.554 313.389 454.538 313.156C455.559 312.915 456.474 312.563 457.261 312.108C458.048 311.654 458.658 311.126 459.077 310.537C459.482 309.971 459.691 309.365 459.694 308.752C459.7 308.136 459.502 307.535 459.107 306.969C458.699 306.382 458.089 305.849 457.312 305.403C456.504 304.936 455.552 304.578 454.482 304.341Z" fill="#FF3B3B"/>
</g>
<rect width="52.4019" height="6.55023" rx="3.27512" transform="matrix(0.863611 -0.498562 0.863611 0.498562 501.473 288.645)" fill="#EBEBF0"/>
<rect width="117.904" height="6.55024" rx="3.27512" transform="matrix(0.863611 -0.498563 0.863611 0.498563 490.865 282.522)" fill="#EBEBF0"/>
<rect width="55.677" height="13.1005" rx="6.55024" transform="matrix(0.863611 -0.498562 0.863611 0.498562 473.895 272.725)" fill="#C7C9D9"/>
</g>
<defs>
<filter id="filter0_dd" x="150.184" y="62.1623" width="370.051" height="221.578" filterUnits="userSpaceOnUse" color-interpolation-filters="sRGB">
<feFlood flood-opacity="0" result="BackgroundImageFix"/>
<feColorMatrix in="SourceAlpha" type="matrix" values="0 0 0 0 0 0 0 0 0 0 0 0 0 0 0 0 0 0 127 0"/>
<feOffset dy="2"/>
<feGaussianBlur stdDeviation="2"/>
<feColorMatrix type="matrix" values="0 0 0 0 0.376471 0 0 0 0 0.380392 0 0 0 0 0.439216 0 0 0 0.16 0"/>
<feBlend mode="normal" in2="BackgroundImageFix" result="effect1_dropShadow"/>
<feColorMatrix in="SourceAlpha" type="matrix" values="0 0 0 0 0 0 0 0 0 0 0 0 0 0 0 0 0 0 127 0"/>
<feOffset/>
<feGaussianBlur stdDeviation="0.5"/>
<feColorMatrix type="matrix" values="0 0 0 0 0.156863 0 0 0 0 0.160784 0 0 0 0 0.239216 0 0 0 0.04 0"/>
<feBlend mode="normal" in2="effect1_dropShadow" result="effect2_dropShadow"/>
<feBlend mode="normal" in="SourceGraphic" in2="effect2_dropShadow" result="shape"/>
</filter>
<filter id="filter1_b" x="149.23" y="59.1623" width="372.004" height="218.985" filterUnits="userSpaceOnUse" color-interpolation-filters="sRGB">
<feFlood flood-opacity="0" result="BackgroundImageFix"/>
<feGaussianBlur in="BackgroundImage" stdDeviation="2.5"/>
<feComposite in2="SourceAlpha" operator="in" result="effect1_backgroundBlur"/>
<feBlend mode="normal" in="SourceGraphic" in2="effect1_backgroundBlur" result="shape"/>
</filter>
<filter id="filter2_dd" x="181.182" y="40.2727" width="229.843" height="139.971" filterUnits="userSpaceOnUse" color-interpolation-filters="sRGB">
<feFlood flood-opacity="0" result="BackgroundImageFix"/>
<feColorMatrix in="SourceAlpha" type="matrix" values="0 0 0 0 0 0 0 0 0 0 0 0 0 0 0 0 0 0 127 0"/>
<feOffset dy="2"/>
<feGaussianBlur stdDeviation="2"/>
<feColorMatrix type="matrix" values="0 0 0 0 0.376471 0 0 0 0 0.380392 0 0 0 0 0.439216 0 0 0 0.16 0"/>
<feBlend mode="normal" in2="BackgroundImageFix" result="effect1_dropShadow"/>
<feColorMatrix in="SourceAlpha" type="matrix" values="0 0 0 0 0 0 0 0 0 0 0 0 0 0 0 0 0 0 127 0"/>
<feOffset/>
<feGaussianBlur stdDeviation="0.5"/>
<feColorMatrix type="matrix" values="0 0 0 0 0.156863 0 0 0 0 0.160784 0 0 0 0 0.239216 0 0 0 0.04 0"/>
<feBlend mode="normal" in2="effect1_dropShadow" result="effect2_dropShadow"/>
<feBlend mode="normal" in="SourceGraphic" in2="effect2_dropShadow" result="shape"/>
</filter>
<filter id="filter3_dd" x="0" y="276" width="148.295" height="96.8392" filterUnits="userSpaceOnUse" color-interpolation-filters="sRGB">
<feFlood flood-opacity="0" result="BackgroundImageFix"/>
<feColorMatrix in="SourceAlpha" type="matrix" values="0 0 0 0 0 0 0 0 0 0 0 0 0 0 0 0 0 0 127 0"/>
<feOffset dy="2"/>
<feGaussianBlur stdDeviation="2"/>
<feColorMatrix type="matrix" values="0 0 0 0 0.376471 0 0 0 0 0.380392 0 0 0 0 0.439216 0 0 0 0.16 0"/>
<feBlend mode="normal" in2="BackgroundImageFix" result="effect1_dropShadow"/>
<feColorMatrix in="SourceAlpha" type="matrix" values="0 0 0 0 0 0 0 0 0 0 0 0 0 0 0 0 0 0 127 0"/>
<feOffset/>
<feGaussianBlur stdDeviation="0.5"/>
<feColorMatrix type="matrix" values="0 0 0 0 0.156863 0 0 0 0 0.160784 0 0 0 0 0.239216 0 0 0 0.04 0"/>
<feBlend mode="normal" in2="effect1_dropShadow" result="effect2_dropShadow"/>
<feBlend mode="normal" in="SourceGraphic" in2="effect2_dropShadow" result="shape"/>
</filter>
<filter id="filter4_dd" x="463.117" y="258.841" width="281.921" height="166.134" filterUnits="userSpaceOnUse" color-interpolation-filters="sRGB">
<feFlood flood-opacity="0" result="BackgroundImageFix"/>
<feColorMatrix in="SourceAlpha" type="matrix" values="0 0 0 0 0 0 0 0 0 0 0 0 0 0 0 0 0 0 127 0"/>
<feOffset dy="2"/>
<feGaussianBlur stdDeviation="2"/>
<feColorMatrix type="matrix" values="0 0 0 0 0.376471 0 0 0 0 0.380392 0 0 0 0 0.439216 0 0 0 0.16 0"/>
<feBlend mode="normal" in2="BackgroundImageFix" result="effect1_dropShadow"/>
<feColorMatrix in="SourceAlpha" type="matrix" values="0 0 0 0 0 0 0 0 0 0 0 0 0 0 0 0 0 0 127 0"/>
<feOffset/>
<feGaussianBlur stdDeviation="0.5"/>
<feColorMatrix type="matrix" values="0 0 0 0 0.156863 0 0 0 0 0.160784 0 0 0 0 0.239216 0 0 0 0.04 0"/>
<feBlend mode="normal" in2="effect1_dropShadow" result="effect2_dropShadow"/>
<feBlend mode="normal" in="SourceGraphic" in2="effect2_dropShadow" result="shape"/>
</filter>
<filter id="filter5_dd" x="367.117" y="188.841" width="289.921" height="174.134" filterUnits="userSpaceOnUse" color-interpolation-filters="sRGB">
<feFlood flood-opacity="0" result="BackgroundImageFix"/>
<feColorMatrix in="SourceAlpha" type="matrix" values="0 0 0 0 0 0 0 0 0 0 0 0 0 0 0 0 0 0 127 0"/>
<feOffset dy="4"/>
<feGaussianBlur stdDeviation="4"/>
<feColorMatrix type="matrix" values="0 0 0 0 0.376471 0 0 0 0 0.380392 0 0 0 0 0.439216 0 0 0 0.16 0"/>
<feBlend mode="normal" in2="BackgroundImageFix" result="effect1_dropShadow"/>
<feColorMatrix in="SourceAlpha" type="matrix" values="0 0 0 0 0 0 0 0 0 0 0 0 0 0 0 0 0 0 127 0"/>
<feOffset/>
<feGaussianBlur stdDeviation="1"/>
<feColorMatrix type="matrix" values="0 0 0 0 0.156863 0 0 0 0 0.160784 0 0 0 0 0.239216 0 0 0 0.04 0"/>
<feBlend mode="normal" in2="effect1_dropShadow" result="effect2_dropShadow"/>
<feBlend mode="normal" in="SourceGraphic" in2="effect2_dropShadow" result="shape"/>
</filter>
<linearGradient id="paint0_linear" x1="175.414" y1="209.412" x2="559.056" y2="309.388" gradientUnits="userSpaceOnUse">
<stop stop-color="#8B90A4"/>
<stop offset="1" stop-color="#28293D"/>
</linearGradient>
<linearGradient id="paint1_linear" x1="238.682" y1="140.396" x2="262.682" y2="183.935" gradientUnits="userSpaceOnUse">
<stop stop-color="#39D98A"/>
<stop offset="1" stop-color="#47FFA4" stop-opacity="0"/>
</linearGradient>
<linearGradient id="paint2_linear" x1="223.682" y1="167.936" x2="220.079" y2="175.06" gradientUnits="userSpaceOnUse">
<stop stop-color="#E4E4EB"/>
<stop offset="1" stop-color="#EDF0F4"/>
</linearGradient>
<linearGradient id="paint3_linear" x1="67.4004" y1="304.294" x2="93.0029" y2="361.857" gradientUnits="userSpaceOnUse">
<stop stop-color="#E4E4EB"/>
<stop offset="1" stop-color="#EDF0F4"/>
</linearGradient>
<clipPath id="clip0">
<rect width="40" height="40" fill="white" transform="matrix(0.859406 -0.511293 0 1 10 309.583)"/>
</clipPath>
<clipPath id="clip1">
<rect width="19.6507" height="19.6507" fill="white" transform="matrix(0.863611 -0.498563 0.863611 0.498563 524.883 375.832)"/>
</clipPath>
<clipPath id="clip2">
<rect width="19.6507" height="19.6507" fill="white" transform="matrix(0.863611 -0.498562 0.863611 0.498562 432.883 307.832)"/>
</clipPath>
</defs>
</svg>
