<svg width="24" height="22" viewBox="0 0 24 22" fill="none" xmlns="http://www.w3.org/2000/svg">
<ellipse cx="11.9999" cy="11" rx="11.1415" ry="11" fill="#FFCC00"/>
<path d="M13.2864 10.7843C13.247 11.4657 12.6829 11.9981 12.0003 11.9981C11.3178 11.9981 10.7537 11.4657 10.7143 10.7843L10.5006 7.08898C10.4507 6.22666 11.1366 5.5 12.0003 5.5C12.8641 5.5 13.5499 6.22666 13.5001 7.08899L13.2864 10.7843ZM10.4382 14.4023C10.4382 13.9856 10.5708 13.6627 10.8361 13.4338C11.1013 13.2002 11.487 13.0834 11.993 13.0834C12.494 13.0834 12.8723 13.2002 13.1277 13.4338C13.3881 13.6627 13.5183 13.9856 13.5183 14.4023C13.5183 14.8144 13.3832 15.1373 13.113 15.3708C12.8477 15.5998 12.4744 15.7143 11.993 15.7143C11.5066 15.7143 11.1259 15.5998 10.8508 15.3708C10.5757 15.1373 10.4382 14.8144 10.4382 14.4023Z" fill="white"/>
</svg>
