<svg width="23" height="22" viewBox="0 0 23 22" fill="none" xmlns="http://www.w3.org/2000/svg">
<path fill-rule="evenodd" clip-rule="evenodd" d="M11.1415 22C17.2948 22 22.283 17.0751 22.283 11C22.283 4.92487 17.2948 0 11.1415 0C4.98821 0 0 4.92487 0 11C0 17.0751 4.98821 22 11.1415 22Z" fill="#FC4A54"/>
<path d="M11.7048 4.96404C11.7048 4.40158 10.9804 4.18959 10.6614 4.65587C7.73447 8.93411 11.8938 9.12672 11.8938 11.2064C11.8938 12.0484 11.2059 12.7298 10.3613 12.7187C9.53009 12.708 8.86885 12.0151 8.86885 11.184V9.16311C8.86885 8.65028 8.24329 8.40143 7.88974 8.77317C7.25709 9.43773 6.6001 10.5761 6.6001 11.9627C6.6001 14.4647 8.63559 16.5001 11.1376 16.5001C13.6396 16.5001 15.6751 14.4647 15.6751 11.9627C15.6751 7.93823 11.7048 7.40153 11.7048 4.96404Z" fill="white"/>
</svg>
