<svg width="20" height="20" viewBox="0 0 20 20" fill="none" xmlns="http://www.w3.org/2000/svg">
<path fill-rule="evenodd" clip-rule="evenodd" d="M9.94266 19.8853C15.4338 19.8853 19.8853 15.4338 19.8853 9.94266C19.8853 4.45148 15.4338 0 9.94266 0C4.45148 0 0 4.45148 0 9.94266C0 15.4338 4.45148 19.8853 9.94266 19.8853Z" fill="#8F90A6"/>
<path fill-rule="evenodd" clip-rule="evenodd" d="M10.81 10.0031L13.8281 13.0239C14.0513 13.2474 14.0512 13.6095 13.8277 13.8327C13.6043 14.0559 13.2422 14.0558 13.019 13.8323L10.0007 10.8113L6.97596 13.8315C6.75246 14.0546 6.39037 14.0544 6.1672 13.8309C5.94403 13.6074 5.9443 13.2453 6.1678 13.0221L9.19227 10.0021L6.16895 6.97608C5.94572 6.75264 5.94588 6.39055 6.16931 6.16732C6.39275 5.94408 6.75484 5.94425 6.97807 6.16768L10.0016 9.19398L13.0192 6.18087C13.2427 5.9577 13.6048 5.95797 13.828 6.18147C14.0511 6.40497 14.0509 6.76707 13.8274 6.99023L10.81 10.0031Z" fill="white"/>
<path d="M13.8281 13.0239L14.1818 12.6705L13.8281 13.0239ZM10.81 10.0031L10.4567 9.64929L10.1028 10.0027L10.4563 10.3565L10.81 10.0031ZM13.8277 13.8327L14.1811 14.1864L14.1811 14.1864L13.8277 13.8327ZM13.019 13.8323L12.6653 14.1857L13.019 13.8323ZM10.0007 10.8113L10.3544 10.4579L10.0011 10.1043L9.64737 10.4574L10.0007 10.8113ZM6.97596 13.8315L7.32925 14.1853L7.32925 14.1853L6.97596 13.8315ZM6.1672 13.8309L6.52102 13.4776L6.1672 13.8309ZM6.1678 13.0221L6.52109 13.3759H6.52109L6.1678 13.0221ZM9.19227 10.0021L9.54556 10.356L9.89948 10.0026L9.54598 9.64874L9.19227 10.0021ZM6.16895 6.97608L6.52266 6.62268L6.16895 6.97608ZM6.16931 6.16732L5.81592 5.8136L5.81592 5.8136L6.16931 6.16732ZM6.97807 6.16768L6.62436 6.52108H6.62436L6.97807 6.16768ZM10.0016 9.19398L9.64792 9.54737L10.0012 9.90098L10.3549 9.54779L10.0016 9.19398ZM13.0192 6.18087L13.3725 6.53469V6.53469L13.0192 6.18087ZM13.8274 6.99023L14.1807 7.34405V7.34405L13.8274 6.99023ZM14.1818 12.6705L11.1637 9.64971L10.4563 10.3565L13.4744 13.3773L14.1818 12.6705ZM14.1811 14.1864C14.5999 13.768 14.6002 13.0893 14.1818 12.6705L13.4744 13.3773C13.5025 13.4054 13.5024 13.4509 13.4744 13.479L14.1811 14.1864ZM12.6653 14.1857C13.0837 14.6045 13.7624 14.6048 14.1811 14.1864L13.4744 13.479C13.4463 13.507 13.4008 13.507 13.3727 13.4789L12.6653 14.1857ZM9.64695 11.1647L12.6653 14.1857L13.3727 13.4789L10.3544 10.4579L9.64695 11.1647ZM7.32925 14.1853L10.354 11.1651L9.64737 10.4574L6.62267 13.4777L7.32925 14.1853ZM5.81338 14.1842C6.23167 14.6031 6.91034 14.6036 7.32925 14.1853L6.62267 13.4777C6.59458 13.5057 6.54907 13.5057 6.52102 13.4776L5.81338 14.1842ZM5.81451 12.6683C5.3956 13.0866 5.3951 13.7653 5.81338 14.1842L6.52102 13.4776C6.49297 13.4495 6.493 13.404 6.52109 13.3759L5.81451 12.6683ZM8.83898 9.64832L5.81451 12.6683L6.52109 13.3759L9.54556 10.356L8.83898 9.64832ZM5.81523 7.32947L8.83856 10.3555L9.54598 9.64874L6.52266 6.62268L5.81523 7.32947ZM5.81592 5.8136C5.39714 6.23201 5.39683 6.91069 5.81523 7.32947L6.52266 6.62268C6.4946 6.5946 6.49462 6.54909 6.52271 6.52103L5.81592 5.8136ZM7.33179 5.81429C6.91338 5.3955 6.2347 5.3952 5.81592 5.8136L6.52271 6.52103C6.55079 6.49297 6.5963 6.49299 6.62436 6.52108L7.33179 5.81429ZM10.3553 8.84058L7.33179 5.81429L6.62436 6.52108L9.64792 9.54737L10.3553 8.84058ZM12.6659 5.82706L9.64834 8.84016L10.3549 9.54779L13.3725 6.53469L12.6659 5.82706ZM14.1818 5.82818C13.7635 5.40928 13.0848 5.40877 12.6659 5.82706L13.3725 6.53469C13.4006 6.50664 13.4461 6.50667 13.4742 6.53476L14.1818 5.82818ZM14.1807 7.34405C14.5996 6.92576 14.6001 6.24709 14.1818 5.82818L13.4742 6.53476C13.5022 6.56286 13.5022 6.60837 13.4741 6.63642L14.1807 7.34405ZM11.1633 10.3569L14.1807 7.34405L13.4741 6.63642L10.4567 9.64929L11.1633 10.3569Z" fill="white"/>
</svg>
