<svg width="23" height="23" viewBox="0 0 23 23" fill="none" xmlns="http://www.w3.org/2000/svg">
  <path fill-rule="evenodd" clip-rule="evenodd" d="M11.1069 22.1636C17.1821 22.1636 22.1069 17.2387 22.1069 11.1636C22.1069 5.08844 17.1821 0.163574 11.1069 0.163574C5.0318 0.163574 0.106934 5.08844 0.106934 11.1636C0.106934 17.2387 5.0318 22.1636 11.1069 22.1636Z" fill="#3BC882"/>
  <path d="M7.63403 10.1681C7.11521 9.63154 6.27945 9.63721 5.76731 10.1807C5.25517 10.7242 5.26058 11.5998 5.7794 12.1363L9.13345 15.6049C9.68524 16.1755 10.5854 16.1274 11.0789 15.5009L16.5248 8.58661C16.9888 7.99753 16.9091 7.12595 16.3468 6.63988C15.7845 6.15381 14.9525 6.23731 14.4885 6.82638L9.96108 12.5745L7.63403 10.1681Z" fill="white"/>
</svg>
