<svg width="20" height="20" viewBox="0 0 20 20" fill="none" xmlns="http://www.w3.org/2000/svg">
<path fill-rule="evenodd" clip-rule="evenodd" d="M10 20C15.5228 20 20 15.5228 20 10C20 4.47715 15.5228 0 10 0C4.47715 0 0 4.47715 0 10C0 15.5228 4.47715 20 10 20Z" fill="#8F90A6"/>
<path d="M5.35275 10.1244L5.77501 10.5417C5.87495 10.6405 6.037 10.6405 6.13696 10.5417L9.44549 7.27139V14.4692C9.44549 14.609 9.56008 14.7222 9.70142 14.7222H10.2986C10.4399 14.7222 10.5545 14.609 10.5545 14.4692V7.27139L13.8631 10.5417C13.963 10.6405 14.1251 10.6405 14.225 10.5417L14.6473 10.1244C14.7472 10.0256 14.7472 9.86539 14.6473 9.76658L10.181 5.35187C10.081 5.25308 9.91898 5.25308 9.81902 5.35187L5.35275 9.7666C5.25279 9.86539 5.25279 10.0256 5.35275 10.1244Z" fill="white"/>
<path fill-rule="evenodd" clip-rule="evenodd" d="M9.62376 5.15429C9.83192 4.94858 10.1681 4.94855 10.3762 5.15431L14.8426 9.56902C15.0525 9.77655 15.0525 10.1144 14.8426 10.3219L14.4203 10.7393C14.2121 10.945 13.876 10.9451 13.6678 10.7393L10.8323 7.93654V14.4692C10.8323 14.7654 10.5903 15 10.2986 15H9.70142C9.40972 15 9.16771 14.7654 9.16771 14.4692V7.93654L6.33224 10.7393C6.12408 10.945 5.7879 10.9451 5.57974 10.7393L5.1575 10.3219C4.94751 10.1144 4.9475 9.77657 5.15747 9.56905L9.62376 5.15429Z" fill="white"/>
</svg>
