<svg width="148" height="144" viewBox="0 0 148 144" fill="none" xmlns="http://www.w3.org/2000/svg">
<g filter="url(#filter0_dd)">
<path d="M10.0583 95.8093L137.161 94.4996L137.161 102.151C137.161 105.526 134.838 108.763 130.704 111.15L89.1985 135.111C80.589 140.082 66.6303 140.082 58.0209 135.111L16.5154 111.15C12.3809 108.763 10.0583 105.526 10.0583 102.151L10.0583 95.8093Z" fill="url(#paint0_linear)"/>
<rect width="84.0609" height="84.0609" rx="18" transform="matrix(0.866044 0.499967 -0.866044 0.499967 73.6097 53)" fill="#FAFAFC"/>
</g>
<g filter="url(#filter1_dd)">
<rect width="84.0609" height="84.0609" rx="18" transform="matrix(0.866044 0.499967 -0.866044 0.499967 73.8004 45.6741)" fill="url(#paint1_linear)"/>
<rect width="84.0609" height="84.0609" rx="18" transform="matrix(0.866044 0.499967 -0.866044 0.499967 73.8004 43)" fill="white"/>
<mask id="mask0" mask-type="alpha" maskUnits="userSpaceOnUse" x="19" y="53" width="111" height="64">
<rect width="74.1284" height="74.1284" rx="18" transform="matrix(0.866044 0.499967 -0.866044 0.499967 74.1985 47.9382)" fill="white"/>
</mask>
<g mask="url(#mask0)">
<rect width="80.1561" height="80.1561" rx="18" transform="matrix(0.866044 0.499967 -0.866044 0.499967 73.6975 45.0776)" fill="#E3FFF1"/>
<path d="M43.7975 122.631C46.8855 121.026 54.5479 122.813 59.4427 119.728C64.3375 116.643 58.3401 106.344 65.3306 102.309C72.3211 98.2732 83.0962 101.742 90.2505 97.6121C97.4047 93.482 73.9342 77.2201 83.0341 71.9668C92.134 66.7134 100.854 74.1561 105.455 71.5003C110.055 68.8445 113.261 69.9651 113.261 69.9651L135.721 82.931C138.114 84.3123 138.112 86.5522 135.718 87.9325L64.8443 128.786C61.9739 130.441 57.3244 130.44 54.4561 128.784C50.2375 126.349 44.8236 123.223 43.7975 122.631Z" fill="#57EBA1"/>
<path d="M51.7317 126.205C56.2507 123.428 62.0623 125.648 65.8812 123.186C69.7 120.724 65.9857 112.569 74.4256 107.696C82.8655 102.824 89.2451 104.033 96.5573 99.8119C103.869 95.5906 96.1403 86.9208 101.606 83.7652C107.072 80.6096 110.424 82.2547 114.297 80.0189C118.17 77.7832 115.185 74.4186 118.952 72.2439L134.949 81.4792C137.819 83.1359 137.819 85.822 134.949 87.4788L64.8683 127.937C62.0876 129.542 57.6414 129.583 54.8416 127.988C53.9422 127.476 52.9091 126.884 51.7317 126.205Z" fill="#3BC882"/>
</g>
</g>
<g filter="url(#filter2_dd)">
<rect width="58.8609" height="58.8609" rx="12" transform="matrix(0.866044 0.499967 -0.866044 0.499967 93.9761 6.85742)" fill="url(#paint2_linear)"/>
<rect width="58.8609" height="58.8609" rx="12" transform="matrix(0.866044 0.499967 -0.866044 0.499967 93.9761 5)" fill="white"/>
<g filter="url(#filter3_dd)">
<rect width="49.6999" height="20.1486" rx="8" transform="matrix(0.866044 -0.499967 0.866044 0.499967 74 46.8484)" fill="white"/>
<path fill-rule="evenodd" clip-rule="evenodd" d="M96.6844 49.8695C99.5756 48.2004 99.5756 45.4944 96.6844 43.8253C93.7933 42.1563 89.1058 42.1563 86.2147 43.8253C83.3236 45.4944 83.3236 48.2004 86.2147 49.8695C89.1058 51.5386 93.7933 51.5386 96.6844 49.8695Z" fill="#FFE6E6"/>
<path d="M93.0892 44.7383C92.6521 44.6412 92.185 44.5973 91.7171 44.6092L91.3306 44.6188C91.3177 44.6192 91.3051 44.6214 91.294 44.6253C91.2829 44.6292 91.2737 44.6346 91.267 44.641C91.2604 44.6475 91.2566 44.6547 91.256 44.6622C91.2554 44.6697 91.2579 44.6772 91.2634 44.6839L91.4318 44.8851C91.5377 45.011 91.6001 45.1661 91.6167 45.3445C91.6174 45.3561 91.6091 45.3641 91.6021 45.3689C91.5952 45.3737 91.582 45.3797 91.562 45.3801C91.544 45.3809 91.5266 45.3765 91.5149 45.3689C91.1235 45.1134 90.5286 44.9138 89.7439 44.7759C89.0928 44.6607 88.4473 44.6503 87.8239 44.7431L87.3696 44.8111C87.31 44.8199 87.2913 44.8643 87.337 44.8883L87.6847 45.0714C87.9223 45.1965 88.0968 45.3277 88.2014 45.46C88.3295 45.622 88.4099 45.7947 88.4404 45.9738C88.4614 46.0984 88.4582 46.2239 88.4307 46.3481C88.3631 46.6463 88.4133 46.9495 88.5775 47.2349C88.745 47.5218 89.0249 47.7825 89.3955 47.9966C89.7224 48.1854 90.1033 48.3309 90.5293 48.4297C90.9397 48.5246 91.3782 48.5726 91.8203 48.5712C92.2664 48.5696 92.7013 48.52 93.1127 48.4225C93.5394 48.3217 93.9217 48.1746 94.2507 47.9846C94.5797 47.7947 94.8346 47.574 95.0098 47.3281C95.1788 47.0914 95.2663 46.838 95.2674 46.582C95.2702 46.3245 95.1871 46.0734 95.0222 45.8367C94.8518 45.5914 94.5966 45.3687 94.2722 45.1821C93.9342 44.987 93.5366 44.8375 93.0892 44.7383Z" fill="#FF3B3B"/>
<rect width="10.7459" height="1.34324" rx="0.67162" transform="matrix(0.866044 -0.499967 0.866044 0.499967 102.065 42.9023)" fill="#EBEBF0"/>
<rect width="24.1783" height="1.34324" rx="0.67162" transform="matrix(0.866044 -0.499967 0.866044 0.499967 99.8835 41.6428)" fill="#EBEBF0"/>
<rect width="11.4175" height="2.68648" rx="1.34324" transform="matrix(0.866044 -0.499967 0.866044 0.499967 96.3936 39.6279)" fill="#C7C9D9"/>
</g>
<g filter="url(#filter4_dd)">
<rect width="49.6999" height="20.1486" rx="8" transform="matrix(0.866044 -0.499967 0.866044 0.499967 53 33.8484)" fill="white"/>
<path fill-rule="evenodd" clip-rule="evenodd" d="M75.6844 36.8695C78.5756 35.2004 78.5756 32.4944 75.6844 30.8253C72.7933 29.1563 68.1058 29.1563 65.2147 30.8253C62.3236 32.4944 62.3236 35.2004 65.2147 36.8695C68.1058 38.5386 72.7933 38.5386 75.6844 36.8695Z" fill="#E3FFF1"/>
<path d="M67.205 31.8728C65.4132 32.9071 65.4132 34.5846 67.205 35.6189C68.9967 36.6533 71.9023 36.6533 73.6941 35.6189C75.4858 34.5846 75.4858 32.9071 73.6941 31.8728C71.9023 30.8384 68.9967 30.8384 67.205 31.8728ZM70.7914 32.3252L71.3809 34.4265C71.3893 34.456 71.3855 34.4862 71.3696 34.5147C71.3538 34.5431 71.3264 34.569 71.2898 34.5901C71.2532 34.6112 71.2084 34.627 71.1592 34.6362C71.1099 34.6453 71.0575 34.6475 71.0065 34.6427L68.8519 34.4416C68.786 34.4353 68.7599 34.3885 68.807 34.3613L69.1466 34.1652C69.2205 34.1226 69.3262 34.1025 69.4305 34.1125L70.6617 34.2279L70.2214 32.6592C70.2047 32.5994 70.238 32.5384 70.3126 32.4953L70.6523 32.2992C70.6994 32.2721 70.7805 32.2871 70.7914 32.3252Z" fill="#39D98A"/>
<rect width="10.7459" height="1.34324" rx="0.67162" transform="matrix(0.866044 -0.499967 0.866044 0.499967 81.0647 29.9023)" fill="#EBEBF0"/>
<rect width="24.1783" height="1.34324" rx="0.67162" transform="matrix(0.866044 -0.499967 0.866044 0.499967 78.8835 28.6428)" fill="#EBEBF0"/>
<rect width="11.4175" height="2.68648" rx="1.34324" transform="matrix(0.866044 -0.499967 0.866044 0.499967 75.3936 26.6279)" fill="#C7C9D9"/>
</g>
</g>
<defs>
<filter id="filter0_dd" x="7.94104" y="56.7717" width="131.337" height="84.5672" filterUnits="userSpaceOnUse" color-interpolation-filters="sRGB">
<feFlood flood-opacity="0" result="BackgroundImageFix"/>
<feColorMatrix in="SourceAlpha" type="matrix" values="0 0 0 0 0 0 0 0 0 0 0 0 0 0 0 0 0 0 127 0"/>
<feOffset dy="0.5"/>
<feGaussianBlur stdDeviation="1"/>
<feColorMatrix type="matrix" values="0 0 0 0 0.376471 0 0 0 0 0.380392 0 0 0 0 0.439216 0 0 0 0.16 0"/>
<feBlend mode="normal" in2="BackgroundImageFix" result="effect1_dropShadow"/>
<feColorMatrix in="SourceAlpha" type="matrix" values="0 0 0 0 0 0 0 0 0 0 0 0 0 0 0 0 0 0 127 0"/>
<feOffset/>
<feGaussianBlur stdDeviation="0.5"/>
<feColorMatrix type="matrix" values="0 0 0 0 0.156863 0 0 0 0 0.160784 0 0 0 0 0.239216 0 0 0 0.08 0"/>
<feBlend mode="normal" in2="effect1_dropShadow" result="effect2_dropShadow"/>
<feBlend mode="normal" in="SourceGraphic" in2="effect2_dropShadow" result="shape"/>
</filter>
<filter id="filter1_dd" x="6.13171" y="46.2717" width="135.337" height="84.186" filterUnits="userSpaceOnUse" color-interpolation-filters="sRGB">
<feFlood flood-opacity="0" result="BackgroundImageFix"/>
<feColorMatrix in="SourceAlpha" type="matrix" values="0 0 0 0 0 0 0 0 0 0 0 0 0 0 0 0 0 0 127 0"/>
<feOffset dy="2"/>
<feGaussianBlur stdDeviation="2"/>
<feColorMatrix type="matrix" values="0 0 0 0 0.376471 0 0 0 0 0.380392 0 0 0 0 0.439216 0 0 0 0.16 0"/>
<feBlend mode="normal" in2="BackgroundImageFix" result="effect1_dropShadow"/>
<feColorMatrix in="SourceAlpha" type="matrix" values="0 0 0 0 0 0 0 0 0 0 0 0 0 0 0 0 0 0 127 0"/>
<feOffset/>
<feGaussianBlur stdDeviation="0.5"/>
<feColorMatrix type="matrix" values="0 0 0 0 0.156863 0 0 0 0 0.160784 0 0 0 0 0.239216 0 0 0 0.04 0"/>
<feBlend mode="normal" in2="effect1_dropShadow" result="effect2_dropShadow"/>
<feBlend mode="normal" in="SourceGraphic" in2="effect2_dropShadow" result="shape"/>
</filter>
<filter id="filter2_dd" x="45.0878" y="6.5144" width="97.7766" height="61.6855" filterUnits="userSpaceOnUse" color-interpolation-filters="sRGB">
<feFlood flood-opacity="0" result="BackgroundImageFix"/>
<feColorMatrix in="SourceAlpha" type="matrix" values="0 0 0 0 0 0 0 0 0 0 0 0 0 0 0 0 0 0 127 0"/>
<feOffset dy="2"/>
<feGaussianBlur stdDeviation="2"/>
<feColorMatrix type="matrix" values="0 0 0 0 0.376471 0 0 0 0 0.380392 0 0 0 0 0.439216 0 0 0 0.16 0"/>
<feBlend mode="normal" in2="BackgroundImageFix" result="effect1_dropShadow"/>
<feColorMatrix in="SourceAlpha" type="matrix" values="0 0 0 0 0 0 0 0 0 0 0 0 0 0 0 0 0 0 127 0"/>
<feOffset/>
<feGaussianBlur stdDeviation="0.5"/>
<feColorMatrix type="matrix" values="0 0 0 0 0.156863 0 0 0 0 0.160784 0 0 0 0 0.239216 0 0 0 0.04 0"/>
<feBlend mode="normal" in2="effect1_dropShadow" result="effect2_dropShadow"/>
<feBlend mode="normal" in="SourceGraphic" in2="effect2_dropShadow" result="shape"/>
</filter>
<filter id="filter3_dd" x="76.0585" y="22.843" width="56.3748" height="34.236" filterUnits="userSpaceOnUse" color-interpolation-filters="sRGB">
<feFlood flood-opacity="0" result="BackgroundImageFix"/>
<feColorMatrix in="SourceAlpha" type="matrix" values="0 0 0 0 0 0 0 0 0 0 0 0 0 0 0 0 0 0 127 0"/>
<feOffset dy="0.5"/>
<feGaussianBlur stdDeviation="1"/>
<feColorMatrix type="matrix" values="0 0 0 0 0.376471 0 0 0 0 0.380392 0 0 0 0 0.439216 0 0 0 0.16 0"/>
<feBlend mode="normal" in2="BackgroundImageFix" result="effect1_dropShadow"/>
<feColorMatrix in="SourceAlpha" type="matrix" values="0 0 0 0 0 0 0 0 0 0 0 0 0 0 0 0 0 0 127 0"/>
<feOffset/>
<feGaussianBlur stdDeviation="0.5"/>
<feColorMatrix type="matrix" values="0 0 0 0 0.156863 0 0 0 0 0.160784 0 0 0 0 0.239216 0 0 0 0.08 0"/>
<feBlend mode="normal" in2="effect1_dropShadow" result="effect2_dropShadow"/>
<feBlend mode="normal" in="SourceGraphic" in2="effect2_dropShadow" result="shape"/>
</filter>
<filter id="filter4_dd" x="55.0585" y="9.84302" width="56.3748" height="34.236" filterUnits="userSpaceOnUse" color-interpolation-filters="sRGB">
<feFlood flood-opacity="0" result="BackgroundImageFix"/>
<feColorMatrix in="SourceAlpha" type="matrix" values="0 0 0 0 0 0 0 0 0 0 0 0 0 0 0 0 0 0 127 0"/>
<feOffset dy="0.5"/>
<feGaussianBlur stdDeviation="1"/>
<feColorMatrix type="matrix" values="0 0 0 0 0.376471 0 0 0 0 0.380392 0 0 0 0 0.439216 0 0 0 0.16 0"/>
<feBlend mode="normal" in2="BackgroundImageFix" result="effect1_dropShadow"/>
<feColorMatrix in="SourceAlpha" type="matrix" values="0 0 0 0 0 0 0 0 0 0 0 0 0 0 0 0 0 0 127 0"/>
<feOffset/>
<feGaussianBlur stdDeviation="0.5"/>
<feColorMatrix type="matrix" values="0 0 0 0 0.156863 0 0 0 0 0.160784 0 0 0 0 0.239216 0 0 0 0.08 0"/>
<feBlend mode="normal" in2="effect1_dropShadow" result="effect2_dropShadow"/>
<feBlend mode="normal" in="SourceGraphic" in2="effect2_dropShadow" result="shape"/>
</filter>
<linearGradient id="paint0_linear" x1="63.4002" y1="76.2934" x2="89.0027" y2="133.857" gradientUnits="userSpaceOnUse">
<stop stop-color="#E4E4EB"/>
<stop offset="1" stop-color="#EDF0F4"/>
</linearGradient>
<linearGradient id="paint1_linear" x1="10.8427" y1="84.0963" x2="54.1464" y2="-2.51664" gradientUnits="userSpaceOnUse">
<stop stop-color="#E4E4EB"/>
<stop offset="1" stop-color="#EDF0F4"/>
</linearGradient>
<linearGradient id="paint2_linear" x1="7.59227" y1="58.8857" x2="37.9142" y2="-1.76219" gradientUnits="userSpaceOnUse">
<stop stop-color="#E4E4EB"/>
<stop offset="1" stop-color="#EDF0F4"/>
</linearGradient>
</defs>
</svg>
