<svg width="189" height="156" viewBox="0 0 189 156" fill="none" xmlns="http://www.w3.org/2000/svg">
    <g filter="url(#filter0_dd)">
        <path d="M50.0565 106.809L177.159 105.5L177.159 113.151C177.159 116.526 174.837 119.763 170.702 122.15L129.197 146.111C120.587 151.082 106.629 151.082 98.0191 146.111L56.5136 122.15C52.3792 119.763 50.0565 116.526 50.0565 113.151L50.0565 106.809Z" fill="url(#paint0_linear)"/>
        <rect width="84.0609" height="84.0609" rx="18" transform="matrix(0.866044 0.499967 -0.866044 0.499967 113.609 64)" fill="white"/>
    </g>
    <g filter="url(#filter1_dd)">
        <rect width="84.0609" height="84.0609" rx="18" transform="matrix(0.866044 0.499967 -0.866044 0.499967 113.801 35.6742)" fill="url(#paint1_linear)"/>
        <rect width="84.0609" height="84.0609" rx="18" transform="matrix(0.866044 0.499967 -0.866044 0.499967 113.801 33)" fill="white"/>
        <mask id="mask0" mask-type="alpha" maskUnits="userSpaceOnUse" x="59" y="43" width="111" height="64">
            <rect width="74.1284" height="74.1284" rx="18" transform="matrix(0.866044 0.499967 -0.866044 0.499967 114.199 38.0007)" fill="white"/>
        </mask>
        <g mask="url(#mask0)">
            <rect width="80.1561" height="80.1561" rx="18" transform="matrix(0.866044 0.499967 -0.866044 0.499967 113.699 35.1401)" fill="#E3FFF1"/>
            <path d="M83.7971 112.693C86.8852 111.088 94.5475 112.876 99.4423 109.79C104.337 106.705 98.3397 96.4069 105.33 92.3713C112.321 88.3357 123.096 91.8047 130.25 87.6746C137.404 83.5444 113.934 67.2826 123.034 62.0292C132.134 56.7759 140.854 64.2185 145.455 61.5627C150.055 58.9069 153.261 60.0275 153.261 60.0275L175.72 72.9934C178.113 74.3748 178.112 76.6146 175.717 77.995L104.844 118.849C101.974 120.503 97.324 120.502 94.4557 118.847C90.2372 116.411 84.8232 113.286 83.7971 112.693Z" fill="#57EBA1"/>
            <path d="M91.7308 116.267C96.2497 113.491 102.061 115.711 105.88 113.248C109.699 110.786 105.985 102.631 114.425 97.7588C122.865 92.8864 129.244 94.0957 136.556 89.8744C143.869 85.6531 136.139 76.9833 141.605 73.8277C147.071 70.6721 150.423 72.3172 154.296 70.0814C158.169 67.8457 155.184 64.4811 158.951 62.3064L174.948 71.5417C177.818 73.1984 177.818 75.8845 174.948 77.5413L104.867 117.999C102.087 119.604 97.6404 119.645 94.8406 118.051C93.9412 117.539 92.9082 116.947 91.7308 116.267Z" fill="#3BC882"/>
        </g>
    </g>
    <g filter="url(#filter2_dd)">
        <rect width="58.8609" height="58.8609" rx="12" transform="matrix(0.866044 0.499967 -0.866044 0.499967 133.977 1.85742)" fill="url(#paint2_linear)"/>
        <rect width="58.8609" height="58.8609" rx="12" transform="matrix(0.866044 0.499967 -0.866044 0.499967 133.977 0)" fill="white"/>
        <g filter="url(#filter3_dd)">
            <rect width="49.6999" height="20.1486" rx="8" transform="matrix(0.866044 -0.499967 0.866044 0.499967 114 41.8483)" fill="white"/>
            <path fill-rule="evenodd" clip-rule="evenodd" d="M136.685 44.8695C139.576 43.2004 139.576 40.4944 136.685 38.8253C133.794 37.1563 129.106 37.1563 126.215 38.8253C123.324 40.4944 123.324 43.2004 126.215 44.8695C129.106 46.5386 133.794 46.5386 136.685 44.8695Z" fill="#FFE6E6"/>
            <path d="M133.09 39.7383C132.653 39.6412 132.186 39.5972 131.718 39.6091L131.332 39.6187C131.319 39.6191 131.306 39.6214 131.295 39.6253C131.284 39.6291 131.275 39.6345 131.268 39.641C131.262 39.6474 131.258 39.6547 131.257 39.6622C131.257 39.6696 131.259 39.6771 131.265 39.6839L131.433 39.885C131.539 40.0109 131.601 40.1661 131.618 40.3444C131.619 40.356 131.61 40.364 131.603 40.3688C131.596 40.3736 131.583 40.3796 131.563 40.38C131.545 40.3808 131.528 40.3764 131.516 40.3688C131.125 40.1133 130.53 39.9138 129.745 39.7758C129.094 39.6607 128.449 39.6503 127.825 39.743L127.371 39.811C127.311 39.8198 127.293 39.8642 127.338 39.8882L127.686 40.0713C127.924 40.1965 128.098 40.3276 128.203 40.46C128.331 40.6219 128.411 40.7946 128.442 40.9738C128.463 41.0983 128.459 41.2239 128.432 41.348C128.364 41.6463 128.415 41.9494 128.579 42.2349C128.746 42.5217 129.026 42.7824 129.397 42.9966C129.724 43.1853 130.105 43.3309 130.531 43.4296C130.941 43.5245 131.379 43.5726 131.822 43.5712C132.268 43.5696 132.703 43.52 133.114 43.4224C133.541 43.3217 133.923 43.1745 134.252 42.9846C134.581 42.7947 134.836 42.5739 135.011 42.328C135.18 42.0914 135.268 41.8379 135.269 41.5819C135.271 41.3244 135.188 41.0733 135.024 40.8366C134.853 40.5913 134.598 40.3686 134.273 40.1821C133.935 39.987 133.538 39.8374 133.09 39.7383Z" fill="#FF3B3B"/>
            <rect width="10.7459" height="1.34324" rx="0.67162" transform="matrix(0.866044 -0.499967 0.866044 0.499967 142.066 37.9022)" fill="#EBEBF0"/>
            <rect width="24.1783" height="1.34324" rx="0.67162" transform="matrix(0.866044 -0.499967 0.866044 0.499967 139.883 36.6427)" fill="#EBEBF0"/>
            <rect width="11.4175" height="2.68648" rx="1.34324" transform="matrix(0.866044 -0.499967 0.866044 0.499967 136.395 34.6278)" fill="#C7C9D9"/>
        </g>
        <g filter="url(#filter4_dd)">
            <rect width="49.6999" height="20.1486" rx="8" transform="matrix(0.866044 -0.499967 0.866044 0.499967 93 28.8483)" fill="white"/>
            <path fill-rule="evenodd" clip-rule="evenodd" d="M115.685 31.8695C118.576 30.2004 118.576 27.4944 115.685 25.8253C112.794 24.1563 108.106 24.1563 105.215 25.8253C102.324 27.4944 102.324 30.2004 105.215 31.8695C108.106 33.5386 112.794 33.5386 115.685 31.8695Z" fill="#E3FFF1"/>
            <path d="M107.205 26.8728C105.414 27.9072 105.414 29.5846 107.205 30.619C108.997 31.6534 111.903 31.6534 113.695 30.619C115.486 29.5846 115.486 27.9072 113.695 26.8728C111.903 25.8385 108.997 25.8385 107.205 26.8728ZM110.792 27.3252L111.381 29.4266C111.39 29.4561 111.386 29.4863 111.37 29.5147C111.354 29.5432 111.327 29.569 111.29 29.5902C111.254 29.6113 111.209 29.6271 111.16 29.6362C111.11 29.6454 111.058 29.6476 111.007 29.6427L108.852 29.4416C108.786 29.4354 108.76 29.3885 108.807 29.3613L109.147 29.1653C109.221 29.1226 109.327 29.1025 109.431 29.1126L110.662 29.228L110.222 27.6593C110.205 27.5995 110.239 27.5384 110.313 27.4954L110.653 27.2993C110.7 27.2721 110.781 27.2872 110.792 27.3252Z" fill="#39D98A"/>
            <rect width="10.7459" height="1.34324" rx="0.67162" transform="matrix(0.866044 -0.499967 0.866044 0.499967 121.066 24.9022)" fill="#EBEBF0"/>
            <rect width="24.1783" height="1.34324" rx="0.67162" transform="matrix(0.866044 -0.499967 0.866044 0.499967 118.883 23.6427)" fill="#EBEBF0"/>
            <rect width="11.4175" height="2.68648" rx="1.34324" transform="matrix(0.866044 -0.499967 0.866044 0.499967 115.395 21.6278)" fill="#C7C9D9"/>
        </g>
    </g>
    <g filter="url(#filter5_dd)">
        <rect width="58.8609" height="58.8609" rx="12" transform="matrix(0.866044 0.499967 -0.866044 0.499967 50.9766 34.8574)" fill="url(#paint3_linear)"/>
        <rect width="58.8609" height="58.8609" rx="12" transform="matrix(0.866044 0.499967 -0.866044 0.499967 50.9766 33)" fill="white"/>
        <rect width="6.75722" height="2.76431" rx="1.38216" transform="matrix(0.866044 -0.499967 0.866044 0.499967 49.2422 83.3041)" fill="#3BC882"/>
        <rect width="6.75722" height="2.76431" rx="1.38216" transform="matrix(0.866044 -0.499967 0.866044 0.499967 55.6289 79.6195)" fill="#39D98A"/>
        <rect width="6.75722" height="2.76431" rx="1.38216" transform="matrix(0.866044 -0.499967 0.866044 0.499967 62.0117 75.9347)" fill="#23A966"/>
        <rect width="6.75722" height="2.76431" rx="1.38216" transform="matrix(0.866044 -0.499967 0.866044 0.499967 68.3945 72.2469)" fill="#23A966"/>
        <rect width="6.75722" height="2.76431" rx="1.38216" transform="matrix(0.866044 -0.499967 0.866044 0.499967 74.7773 68.5621)" fill="#23A966"/>
        <rect width="6.75722" height="2.76431" rx="1.38216" transform="matrix(0.866044 -0.499967 0.866044 0.499967 81.1641 64.8773)" fill="#23A966"/>
        <rect width="6.75722" height="2.76431" rx="1.38216" transform="matrix(0.866044 -0.499967 0.866044 0.499967 46.3164 81.6193)" fill="#39D98A"/>
        <rect width="6.75722" height="2.76431" rx="1.38216" transform="matrix(0.866044 -0.499967 0.866044 0.499967 52.7031 77.9348)" fill="#57EBA1"/>
        <rect width="6.75722" height="2.76431" rx="1.38216" transform="matrix(0.866044 -0.499967 0.866044 0.499967 59.0859 74.2471)" fill="#3BC882"/>
        <rect width="6.75722" height="2.76431" rx="1.38216" transform="matrix(0.866044 -0.499967 0.866044 0.499967 65.4688 70.5622)" fill="#23A966"/>
        <rect width="6.75722" height="2.76431" rx="1.38216" transform="matrix(0.866044 -0.499967 0.866044 0.499967 71.8555 66.8774)" fill="#23A966"/>
        <rect width="6.75722" height="2.76431" rx="1.38216" transform="matrix(0.866044 -0.499967 0.866044 0.499967 78.2383 63.1954)" fill="#23A966"/>
        <rect width="6.75722" height="2.76431" rx="1.38216" transform="matrix(0.866044 -0.499967 0.866044 0.499967 43.3906 79.9258)" fill="#39D98A"/>
        <rect width="6.75722" height="2.76431" rx="1.38216" transform="matrix(0.866044 -0.499967 0.866044 0.499967 56.1562 72.5562)" fill="#39D98A"/>
        <rect width="6.75722" height="2.76431" rx="1.38216" transform="matrix(0.866044 -0.499967 0.866044 0.499967 62.543 68.8713)" fill="#3BC882"/>
        <rect width="6.75722" height="2.76431" rx="1.38216" transform="matrix(0.866044 -0.499967 0.866044 0.499967 68.9258 65.1836)" fill="#3BC882"/>
        <rect width="6.75722" height="2.76431" rx="1.38216" transform="matrix(0.866044 -0.499967 0.866044 0.499967 75.3086 61.4987)" fill="#3BC882"/>
        <rect width="6.75722" height="2.76431" rx="1.38216" transform="matrix(0.866044 -0.499967 0.866044 0.499967 40.4648 78.2398)" fill="#57EBA1"/>
        <rect width="6.75722" height="2.76431" rx="1.38216" transform="matrix(0.866044 -0.499967 0.866044 0.499967 46.8516 74.5549)" fill="#57EBA1"/>
        <rect width="6.75722" height="2.76431" rx="1.38216" transform="matrix(0.866044 -0.499967 0.866044 0.499967 53.2344 70.8701)" fill="#57EBA1"/>
        <rect width="6.75722" height="2.76431" rx="1.38216" transform="matrix(0.866044 -0.499967 0.866044 0.499967 59.6172 67.1824)" fill="#3BC882"/>
        <rect width="6.75722" height="2.76431" rx="1.38216" transform="matrix(0.866044 -0.499967 0.866044 0.499967 66.0039 63.4976)" fill="#3BC882"/>
        <rect width="6.75722" height="2.76431" rx="1.38216" transform="matrix(0.866044 -0.499967 0.866044 0.499967 72.3867 59.8127)" fill="#3BC882"/>
        <rect width="6.75722" height="2.76431" rx="1.38216" transform="matrix(0.866044 -0.499967 0.866044 0.499967 37.5352 76.5498)" fill="#E3FFF1"/>
        <rect width="6.75722" height="2.76431" rx="1.38216" transform="matrix(0.866044 -0.499967 0.866044 0.499967 43.918 72.8678)" fill="#E3FFF1"/>
        <rect width="6.75722" height="2.76431" rx="1.38216" transform="matrix(0.866044 -0.499967 0.866044 0.499967 50.3047 69.1801)" fill="#57EBA1"/>
        <rect width="6.75722" height="2.76431" rx="1.38216" transform="matrix(0.866044 -0.499967 0.866044 0.499967 63.0703 61.8075)" fill="#39D98A"/>
        <rect width="6.75722" height="2.76431" rx="1.38216" transform="matrix(0.866044 -0.499967 0.866044 0.499967 69.4531 58.1227)" fill="#39D98A"/>
        <rect width="6.75722" height="2.76431" rx="1.38216" transform="matrix(0.866044 -0.499967 0.866044 0.499967 34.6094 74.8599)" fill="#E3FFF1"/>
        <rect width="6.75722" height="2.76431" rx="1.38216" transform="matrix(0.866044 -0.499967 0.866044 0.499967 47.3789 67.4875)" fill="#E3FFF1"/>
        <rect width="6.75722" height="2.76431" rx="1.38216" transform="matrix(0.866044 -0.499967 0.866044 0.499967 53.7617 63.8085)" fill="#39D98A"/>
        <rect width="6.75722" height="2.76431" rx="1.38216" transform="matrix(0.866044 -0.499967 0.866044 0.499967 60.1484 60.1208)" fill="#39D98A"/>
        <rect width="6.75722" height="2.76431" rx="1.38216" transform="matrix(0.866044 -0.499967 0.866044 0.499967 66.5312 56.4359)" fill="#39D98A"/>
        <rect width="6.75722" height="2.76431" rx="1.38216" transform="matrix(0.866044 -0.499967 0.866044 0.499967 31.6836 73.166)" fill="#57EBA1"/>
        <rect width="6.75722" height="2.76431" rx="1.38216" transform="matrix(0.866044 -0.499967 0.866044 0.499967 38.0664 69.4872)" fill="#57EBA1"/>
        <rect width="6.75722" height="2.76431" rx="1.38216" transform="matrix(0.866044 -0.499967 0.866044 0.499967 50.8359 62.1118)" fill="#57EBA1"/>
        <rect width="6.75722" height="2.76431" rx="1.38216" transform="matrix(0.866044 -0.499967 0.866044 0.499967 57.2188 58.424)" fill="#57EBA1"/>
        <rect width="6.75722" height="2.76431" rx="1.38216" transform="matrix(0.866044 -0.499967 0.866044 0.499967 63.6016 54.7391)" fill="#57EBA1"/>
        <rect width="6.75722" height="2.76431" rx="1.38216" transform="matrix(0.866044 -0.499967 0.866044 0.499967 28.7578 71.4798)" fill="#57EBA1"/>
        <rect width="6.75722" height="2.76431" rx="1.38216" transform="matrix(0.866044 -0.499967 0.866044 0.499967 35.1406 67.7979)" fill="#57EBA1"/>
        <rect width="6.75722" height="2.76431" rx="1.38216" transform="matrix(0.866044 -0.499967 0.866044 0.499967 47.9102 60.4282)" fill="#57EBA1"/>
        <rect width="6.75722" height="2.76431" rx="1.38216" transform="matrix(0.866044 -0.499967 0.866044 0.499967 54.293 56.7375)" fill="#57EBA1"/>
        <rect width="6.75722" height="2.76431" rx="1.38216" transform="matrix(0.866044 -0.499967 0.866044 0.499967 60.6797 53.0556)" fill="#57EBA1"/>
        <rect width="6.75722" height="2.76431" rx="1.38216" transform="matrix(0.866044 -0.499967 0.866044 0.499967 25.832 69.7898)" fill="#E3FFF1"/>
        <rect width="6.75722" height="2.76431" rx="1.38216" transform="matrix(0.866044 -0.499967 0.866044 0.499967 32.2188 66.1048)" fill="#E3FFF1"/>
        <rect width="6.75722" height="2.76431" rx="1.38216" transform="matrix(0.866044 -0.499967 0.866044 0.499967 44.9844 58.7322)" fill="#E3FFF1"/>
        <rect width="6.75722" height="2.76431" rx="1.38216" transform="matrix(0.866044 -0.499967 0.866044 0.499967 51.3711 55.0474)" fill="#E3FFF1"/>
        <rect width="6.75722" height="2.76431" rx="1.38216" transform="matrix(0.866044 -0.499967 0.866044 0.499967 57.7539 51.3625)" fill="#E3FFF1"/>
        <rect width="6.75722" height="2.76431" rx="1.38216" transform="matrix(0.866044 -0.499967 0.866044 0.499967 22.9062 68.1017)" fill="#E3FFF1"/>
        <rect width="6.75722" height="2.76431" rx="1.38216" transform="matrix(0.866044 -0.499967 0.866044 0.499967 42.0586 57.0443)" fill="#E3FFF1"/>
        <rect width="6.75722" height="2.76431" rx="1.38216" transform="matrix(0.866044 -0.499967 0.866044 0.499967 54.8281 49.6746)" fill="#E3FFF1"/>
        <rect width="6.75722" height="2.76431" rx="1.38216" transform="matrix(0.866044 -0.499967 0.866044 0.499967 19.9805 66.4134)" fill="#E3FFF1"/>
        <rect width="6.75722" height="2.76431" rx="1.38216" transform="matrix(0.866044 -0.499967 0.866044 0.499967 32.75 59.0466)" fill="#E3FFF1"/>
        <rect width="6.75722" height="2.76431" rx="1.38216" transform="matrix(0.866044 -0.499967 0.866044 0.499967 39.1328 55.3589)" fill="#E3FFF1"/>
        <rect width="6.75722" height="2.76431" rx="1.38216" transform="matrix(0.866044 -0.499967 0.866044 0.499967 51.9023 47.9892)" fill="#E3FFF1"/>
        <rect width="6.75722" height="2.76431" rx="1.38216" transform="matrix(0.866044 -0.499967 0.866044 0.499967 29.8203 57.3519)" fill="#E3FFF1"/>
        <rect width="6.75722" height="2.76431" rx="1.38216" transform="matrix(0.866044 -0.499967 0.866044 0.499967 48.9727 46.2944)" fill="#E3FFF1"/>
        <rect width="6.75722" height="2.76431" rx="1.38216" transform="matrix(0.866044 -0.499967 0.866044 0.499967 18.3867 58.1257)" fill="#E3FFF1"/>
        <rect width="6.75722" height="2.76431" rx="1.38216" transform="matrix(0.866044 -0.499967 0.866044 0.499967 43.9219 43.3806)" fill="#E3FFF1"/>
    </g>
    <defs>
        <filter id="filter0_dd" x="47.9414" y="67.7717" width="131.337" height="84.5674" filterUnits="userSpaceOnUse" color-interpolation-filters="sRGB">
            <feFlood flood-opacity="0" result="BackgroundImageFix"/>
            <feColorMatrix in="SourceAlpha" type="matrix" values="0 0 0 0 0 0 0 0 0 0 0 0 0 0 0 0 0 0 127 0"/>
            <feOffset dy="0.5"/>
            <feGaussianBlur stdDeviation="1"/>
            <feColorMatrix type="matrix" values="0 0 0 0 0.376471 0 0 0 0 0.380392 0 0 0 0 0.439216 0 0 0 0.16 0"/>
            <feBlend mode="normal" in2="BackgroundImageFix" result="effect1_dropShadow"/>
            <feColorMatrix in="SourceAlpha" type="matrix" values="0 0 0 0 0 0 0 0 0 0 0 0 0 0 0 0 0 0 127 0"/>
            <feOffset/>
            <feGaussianBlur stdDeviation="0.5"/>
            <feColorMatrix type="matrix" values="0 0 0 0 0.156863 0 0 0 0 0.160784 0 0 0 0 0.239216 0 0 0 0.08 0"/>
            <feBlend mode="normal" in2="effect1_dropShadow" result="effect2_dropShadow"/>
            <feBlend mode="normal" in="SourceGraphic" in2="effect2_dropShadow" result="shape"/>
        </filter>
        <filter id="filter1_dd" x="42.1328" y="34.2717" width="143.337" height="92.1861" filterUnits="userSpaceOnUse" color-interpolation-filters="sRGB">
            <feFlood flood-opacity="0" result="BackgroundImageFix"/>
            <feColorMatrix in="SourceAlpha" type="matrix" values="0 0 0 0 0 0 0 0 0 0 0 0 0 0 0 0 0 0 127 0"/>
            <feOffset dy="4"/>
            <feGaussianBlur stdDeviation="4"/>
            <feColorMatrix type="matrix" values="0 0 0 0 0.376471 0 0 0 0 0.380392 0 0 0 0 0.439216 0 0 0 0.16 0"/>
            <feBlend mode="normal" in2="BackgroundImageFix" result="effect1_dropShadow"/>
            <feColorMatrix in="SourceAlpha" type="matrix" values="0 0 0 0 0 0 0 0 0 0 0 0 0 0 0 0 0 0 127 0"/>
            <feOffset/>
            <feGaussianBlur stdDeviation="1"/>
            <feColorMatrix type="matrix" values="0 0 0 0 0.156863 0 0 0 0 0.160784 0 0 0 0 0.239216 0 0 0 0.04 0"/>
            <feBlend mode="normal" in2="effect1_dropShadow" result="effect2_dropShadow"/>
            <feBlend mode="normal" in="SourceGraphic" in2="effect2_dropShadow" result="shape"/>
        </filter>
        <filter id="filter2_dd" x="87.0898" y="2.01447" width="93.7766" height="57.6855" filterUnits="userSpaceOnUse" color-interpolation-filters="sRGB">
            <feFlood flood-opacity="0" result="BackgroundImageFix"/>
            <feColorMatrix in="SourceAlpha" type="matrix" values="0 0 0 0 0 0 0 0 0 0 0 0 0 0 0 0 0 0 127 0"/>
            <feOffset dy="0.5"/>
            <feGaussianBlur stdDeviation="1"/>
            <feColorMatrix type="matrix" values="0 0 0 0 0.376471 0 0 0 0 0.380392 0 0 0 0 0.439216 0 0 0 0.16 0"/>
            <feBlend mode="normal" in2="BackgroundImageFix" result="effect1_dropShadow"/>
            <feColorMatrix in="SourceAlpha" type="matrix" values="0 0 0 0 0 0 0 0 0 0 0 0 0 0 0 0 0 0 127 0"/>
            <feOffset/>
            <feGaussianBlur stdDeviation="0.5"/>
            <feColorMatrix type="matrix" values="0 0 0 0 0.156863 0 0 0 0 0.160784 0 0 0 0 0.239216 0 0 0 0.08 0"/>
            <feBlend mode="normal" in2="effect1_dropShadow" result="effect2_dropShadow"/>
            <feBlend mode="normal" in="SourceGraphic" in2="effect2_dropShadow" result="shape"/>
        </filter>
        <filter id="filter3_dd" x="116.059" y="17.843" width="56.3748" height="34.236" filterUnits="userSpaceOnUse" color-interpolation-filters="sRGB">
            <feFlood flood-opacity="0" result="BackgroundImageFix"/>
            <feColorMatrix in="SourceAlpha" type="matrix" values="0 0 0 0 0 0 0 0 0 0 0 0 0 0 0 0 0 0 127 0"/>
            <feOffset dy="0.5"/>
            <feGaussianBlur stdDeviation="1"/>
            <feColorMatrix type="matrix" values="0 0 0 0 0.376471 0 0 0 0 0.380392 0 0 0 0 0.439216 0 0 0 0.16 0"/>
            <feBlend mode="normal" in2="BackgroundImageFix" result="effect1_dropShadow"/>
            <feColorMatrix in="SourceAlpha" type="matrix" values="0 0 0 0 0 0 0 0 0 0 0 0 0 0 0 0 0 0 127 0"/>
            <feOffset/>
            <feGaussianBlur stdDeviation="0.5"/>
            <feColorMatrix type="matrix" values="0 0 0 0 0.156863 0 0 0 0 0.160784 0 0 0 0 0.239216 0 0 0 0.08 0"/>
            <feBlend mode="normal" in2="effect1_dropShadow" result="effect2_dropShadow"/>
            <feBlend mode="normal" in="SourceGraphic" in2="effect2_dropShadow" result="shape"/>
        </filter>
        <filter id="filter4_dd" x="95.0586" y="4.84302" width="56.3748" height="34.236" filterUnits="userSpaceOnUse" color-interpolation-filters="sRGB">
            <feFlood flood-opacity="0" result="BackgroundImageFix"/>
            <feColorMatrix in="SourceAlpha" type="matrix" values="0 0 0 0 0 0 0 0 0 0 0 0 0 0 0 0 0 0 127 0"/>
            <feOffset dy="0.5"/>
            <feGaussianBlur stdDeviation="1"/>
            <feColorMatrix type="matrix" values="0 0 0 0 0.376471 0 0 0 0 0.380392 0 0 0 0 0.439216 0 0 0 0.16 0"/>
            <feBlend mode="normal" in2="BackgroundImageFix" result="effect1_dropShadow"/>
            <feColorMatrix in="SourceAlpha" type="matrix" values="0 0 0 0 0 0 0 0 0 0 0 0 0 0 0 0 0 0 127 0"/>
            <feOffset/>
            <feGaussianBlur stdDeviation="0.5"/>
            <feColorMatrix type="matrix" values="0 0 0 0 0.156863 0 0 0 0 0.160784 0 0 0 0 0.239216 0 0 0 0.08 0"/>
            <feBlend mode="normal" in2="effect1_dropShadow" result="effect2_dropShadow"/>
            <feBlend mode="normal" in="SourceGraphic" in2="effect2_dropShadow" result="shape"/>
        </filter>
        <filter id="filter5_dd" x="4.08984" y="35.0145" width="93.7766" height="57.6855" filterUnits="userSpaceOnUse" color-interpolation-filters="sRGB">
            <feFlood flood-opacity="0" result="BackgroundImageFix"/>
            <feColorMatrix in="SourceAlpha" type="matrix" values="0 0 0 0 0 0 0 0 0 0 0 0 0 0 0 0 0 0 127 0"/>
            <feOffset dy="0.5"/>
            <feGaussianBlur stdDeviation="1"/>
            <feColorMatrix type="matrix" values="0 0 0 0 0.376471 0 0 0 0 0.380392 0 0 0 0 0.439216 0 0 0 0.16 0"/>
            <feBlend mode="normal" in2="BackgroundImageFix" result="effect1_dropShadow"/>
            <feColorMatrix in="SourceAlpha" type="matrix" values="0 0 0 0 0 0 0 0 0 0 0 0 0 0 0 0 0 0 127 0"/>
            <feOffset/>
            <feGaussianBlur stdDeviation="0.5"/>
            <feColorMatrix type="matrix" values="0 0 0 0 0.156863 0 0 0 0 0.160784 0 0 0 0 0.239216 0 0 0 0.08 0"/>
            <feBlend mode="normal" in2="effect1_dropShadow" result="effect2_dropShadow"/>
            <feBlend mode="normal" in="SourceGraphic" in2="effect2_dropShadow" result="shape"/>
        </filter>
        <linearGradient id="paint0_linear" x1="103.398" y1="87.2934" x2="129.001" y2="144.857" gradientUnits="userSpaceOnUse">
            <stop stop-color="#E4E4EB"/>
            <stop offset="1" stop-color="#EDF0F4"/>
        </linearGradient>
        <linearGradient id="paint1_linear" x1="10.8427" y1="84.0963" x2="54.1464" y2="-2.51664" gradientUnits="userSpaceOnUse">
            <stop stop-color="#E4E4EB"/>
            <stop offset="1" stop-color="#EDF0F4"/>
        </linearGradient>
        <linearGradient id="paint2_linear" x1="7.59227" y1="58.8857" x2="37.9142" y2="-1.76219" gradientUnits="userSpaceOnUse">
            <stop stop-color="#E4E4EB"/>
            <stop offset="1" stop-color="#EDF0F4"/>
        </linearGradient>
        <linearGradient id="paint3_linear" x1="7.59227" y1="58.8857" x2="37.9142" y2="-1.76219" gradientUnits="userSpaceOnUse">
            <stop stop-color="#E4E4EB"/>
            <stop offset="1" stop-color="#EDF0F4"/>
        </linearGradient>
    </defs>
</svg>
