<svg width="396" height="247" viewBox="0 0 396 247" fill="none" xmlns="http://www.w3.org/2000/svg">
<path d="M51.2369 246.158L111.7 211.252L133.843 224.035L159.308 209.335L137.165 196.551L152.788 187.532L131.444 175.211L115.821 184.23L33.3378 136.612L0 155.858L30.2623 234.049L51.2369 246.158ZM90.8485 198.646L56.7111 218.354L55.727 217.786L36.4132 168.357L37.3974 167.789L90.8485 198.646Z" fill="#57EBA1"/>
<path d="M244.836 163.155C276.513 144.868 271.531 119.905 230.074 95.9011C188.924 72.0745 145.93 69.6244 114.376 87.8405C82.7601 106.092 87.1273 130.771 128.338 154.633C169.611 178.602 213.036 181.442 244.836 163.155ZM222.754 150.407C208.3 158.752 184.434 155.769 155.464 138.974C126.923 122.426 121.818 108.755 136.211 100.446C150.543 92.1726 174.285 95.0844 202.887 111.596C231.981 128.321 237.147 142.098 222.754 150.407Z" fill="#57EBA1"/>
<path d="M287.877 109.545L348.34 74.64L370.483 87.4233L395.948 72.7225L373.805 59.9393L389.428 50.92L368.084 38.5983L352.461 47.6176L269.978 0L236.64 19.2459L266.902 97.4368L287.877 109.545ZM327.488 62.0343L293.351 81.7418L292.367 81.1737L273.053 31.7451L274.037 31.1769L327.488 62.0343Z" fill="#57EBA1"/>
</svg>
