<svg width="914" height="584" viewBox="0 0 914 584" fill="none" xmlns="http://www.w3.org/2000/svg">
<mask id="mask0" mask-type="alpha" maskUnits="userSpaceOnUse" x="218" y="387" width="187" height="146">
<rect x="405" y="533" width="187" height="146" rx="20" transform="rotate(-180 405 533)" fill="#C4C4C4"/>
</mask>
<g mask="url(#mask0)">
<path fill-rule="evenodd" clip-rule="evenodd" d="M-46 653.853L403.447 393L756 596.148L306.339 857L-46 653.853Z" stroke="#C7C9D9" stroke-width="2" stroke-linecap="round" stroke-linejoin="round" stroke-dasharray="1 4"/>
</g>
<mask id="mask1" mask-type="alpha" maskUnits="userSpaceOnUse" x="294" y="381" width="167" height="172">
<rect x="461" y="553" width="167" height="172" rx="20" transform="rotate(-180 461 553)" fill="#C4C4C4"/>
</mask>
<g mask="url(#mask1)">
<path fill-rule="evenodd" clip-rule="evenodd" d="M1106 413.147L656.553 674L304 470.853L753.661 210L1106 413.147Z" stroke="#C7C9D9" stroke-width="2" stroke-linecap="round" stroke-linejoin="round" stroke-dasharray="1 4"/>
</g>
<mask id="mask2" mask-type="alpha" maskUnits="userSpaceOnUse" x="144" y="332" width="271" height="115">
<rect x="144" y="332" width="271" height="115" rx="20" fill="#C4C4C4"/>
</mask>
<g mask="url(#mask2)">
<path fill-rule="evenodd" clip-rule="evenodd" d="M745 178.147L295.553 439L-57 235.853L392.661 -25L745 178.147Z" stroke="url(#paint0_linear)" stroke-width="4" stroke-linejoin="round"/>
<path fill-rule="evenodd" clip-rule="evenodd" d="M745.189 178.221L295.742 439.073L-56.8113 235.926L392.85 -24.9268L745.189 178.221Z" stroke="#57EBA1" stroke-width="2" stroke-linecap="round" stroke-linejoin="round" stroke-dasharray="1 4"/>
</g>
<g filter="url(#filter0_dd)">
<path fill-rule="evenodd" clip-rule="evenodd" d="M298.353 342.656C296.526 341.595 295.5 340.16 295.5 338.664L295.5 331.343L798.5 288V292.932C798.5 294.423 797.481 295.854 795.665 296.913L515.291 460.462C511.461 462.695 505.212 462.7 501.373 460.472L298.353 342.656Z" fill="url(#paint1_linear)"/>
<mask id="mask3" mask-type="alpha" maskUnits="userSpaceOnUse" x="295" y="165" width="504" height="291">
<path fill-rule="evenodd" clip-rule="evenodd" d="M298.127 336.758C294.298 334.548 294.298 330.964 298.127 328.754L578.315 167.001C582.143 164.791 588.35 164.791 592.179 167.001L795.461 284.356C799.289 286.566 799.289 290.15 795.461 292.36L515.273 454.112C511.444 456.323 505.237 456.323 501.409 454.112L298.127 336.758Z" fill="white"/>
</mask>
<g mask="url(#mask3)">
<path fill-rule="evenodd" clip-rule="evenodd" d="M298.127 336.758C294.298 334.548 294.298 330.964 298.127 328.754L578.315 167.001C582.143 164.791 588.35 164.791 592.179 167.001L795.461 284.356C799.289 286.566 799.289 290.15 795.461 292.36L515.273 454.112C511.444 456.323 505.237 456.323 501.409 454.112L298.127 336.758Z" fill="#28293D"/>
</g>
<rect width="67.7325" height="4.89633" rx="1.5" transform="matrix(0.866495 -0.500227 0.866495 0.500227 406 384.907)" fill="#555770"/>
<rect width="70.9968" height="4.89633" rx="1.5" transform="matrix(0.866495 -0.500227 0.866495 0.500227 422.971 394.704)" fill="#555770"/>
<rect width="30.194" height="4.89633" rx="1.5" transform="matrix(0.866494 -0.500228 0.866494 0.500228 514.188 332.247)" fill="#555770"/>
<rect width="40.8027" height="4.89633" rx="1.5" transform="matrix(0.866495 -0.500227 0.866495 0.500227 414.485 389.806)" fill="#555770"/>
<rect width="61.2041" height="4.89633" rx="1.5" transform="matrix(0.866495 -0.500227 0.866495 0.500227 455.498 366.13)" fill="#555770"/>
<rect width="40.8027" height="4.89633" rx="1.5" transform="matrix(0.866495 -0.500227 0.866495 0.500227 470.347 347.76)" fill="#555770"/>
<rect width="48.1472" height="4.89633" rx="1.5" transform="matrix(0.866494 -0.500228 0.866494 0.500228 511.359 324.084)" fill="#555770"/>
<rect width="67.7325" height="4.89633" rx="1.5" transform="matrix(0.866495 -0.500228 0.866495 0.500228 431.456 399.603)" fill="#555770"/>
<rect width="70.9967" height="4.89633" rx="1.5" transform="matrix(0.866494 -0.500228 0.866494 0.500228 448.427 409.4)" fill="#555770"/>
<rect width="10.6087" height="4.89632" rx="1.5" transform="matrix(0.866494 -0.500228 0.866494 0.500228 539.643 346.944)" fill="#555770"/>
<rect width="40.8027" height="4.89633" rx="1.5" transform="matrix(0.866494 -0.500228 0.866494 0.500228 439.941 404.501)" fill="#555770"/>
<rect width="61.2041" height="4.89633" rx="1.5" transform="matrix(0.866494 -0.500228 0.866494 0.500228 480.953 380.825)" fill="#555770"/>
<rect width="14.689" height="4.89633" rx="1.5" transform="matrix(0.866495 -0.500228 0.866495 0.500228 495.803 362.455)" fill="#555770"/>
<rect width="8.16055" height="4.89633" rx="1.5" transform="matrix(0.866495 -0.500227 0.866495 0.500227 514.188 351.842)" fill="#555770"/>
<rect width="40.8027" height="4.89632" rx="1.5" transform="matrix(0.866495 -0.500227 0.866495 0.500227 456.912 414.299)" fill="#555770"/>
<rect width="25.2977" height="4.89633" rx="1.5" transform="matrix(0.866494 -0.500228 0.866494 0.500228 473.882 424.096)" fill="#555770"/>
<rect width="13.8729" height="4.89633" rx="1.5" transform="matrix(0.866493 -0.500228 0.866493 0.500228 501.46 408.176)" fill="#555770"/>
<rect width="37.5385" height="4.89633" rx="1.5" transform="matrix(0.866494 -0.500228 0.866494 0.500228 506.409 395.521)" fill="#555770"/>
<rect width="13.0569" height="4.89632" rx="1.5" transform="matrix(0.866494 -0.500228 0.866494 0.500228 465.397 419.198)" fill="#555770"/>
<rect width="21.2174" height="4.89633" rx="1.5" transform="matrix(0.866494 -0.500228 0.866494 0.500228 482.368 409.4)" fill="#555770"/>
<rect width="14.689" height="4.89633" rx="1.5" transform="matrix(0.866495 -0.500228 0.866495 0.500228 497.924 390.622)" fill="#555770"/>
<rect width="33.4582" height="4.89633" rx="1.5" transform="matrix(0.866494 -0.500228 0.866494 0.500228 516.309 380.009)" fill="#555770"/>
<rect width="67.7325" height="4.89633" rx="1.5" transform="matrix(0.866495 -0.500227 0.866495 0.500227 330 340.908)" fill="#555770"/>
<rect width="70.9968" height="4.89633" rx="1.5" transform="matrix(0.866495 -0.500228 0.866495 0.500228 346.971 350.705)" fill="#555770"/>
<rect width="30.194" height="4.89633" rx="1.5" transform="matrix(0.866495 -0.500228 0.866495 0.500228 438.188 288.248)" fill="#555770"/>
<rect width="40.8027" height="4.89633" rx="1.5" transform="matrix(0.866495 -0.500228 0.866495 0.500228 338.486 345.806)" fill="#555770"/>
<rect width="61.2041" height="4.89633" rx="1.5" transform="matrix(0.866495 -0.500228 0.866495 0.500228 379.498 322.131)" fill="#555770"/>
<rect width="40.8027" height="4.89633" rx="1.5" transform="matrix(0.866495 -0.500228 0.866495 0.500228 394.347 303.76)" fill="#555770"/>
<rect width="48.1472" height="4.89633" rx="1.5" transform="matrix(0.866495 -0.500228 0.866495 0.500228 435.359 280.085)" fill="#555770"/>
<rect width="67.7325" height="4.89633" rx="1.5" transform="matrix(0.866495 -0.500228 0.866495 0.500228 355.456 355.603)" fill="#555770"/>
<rect width="70.9967" height="4.89633" rx="1.5" transform="matrix(0.866494 -0.500228 0.866494 0.500228 372.427 365.4)" fill="#555770"/>
<rect width="10.6087" height="4.89633" rx="1.5" transform="matrix(0.866495 -0.500227 0.866495 0.500227 463.644 302.944)" fill="#555770"/>
<rect width="40.8027" height="4.89633" rx="1.5" transform="matrix(0.866494 -0.500228 0.866494 0.500228 363.942 360.502)" fill="#555770"/>
<rect width="61.2041" height="4.89633" rx="1.5" transform="matrix(0.866494 -0.500228 0.866494 0.500228 404.954 336.826)" fill="#555770"/>
<rect width="14.689" height="4.89633" rx="1.5" transform="matrix(0.866494 -0.500228 0.866494 0.500228 419.803 318.456)" fill="#555770"/>
<rect width="8.16054" height="4.89632" rx="1.5" transform="matrix(0.866494 -0.500228 0.866494 0.500228 438.188 307.843)" fill="#555770"/>
<rect width="40.8027" height="4.89632" rx="1.5" transform="matrix(0.866495 -0.500227 0.866495 0.500227 380.912 370.3)" fill="#555770"/>
<rect width="25.2977" height="4.89633" rx="1.5" transform="matrix(0.866494 -0.500228 0.866494 0.500228 397.883 380.096)" fill="#555770"/>
<rect width="13.8729" height="4.89633" rx="1.5" transform="matrix(0.866493 -0.500229 0.866493 0.500229 425.46 364.177)" fill="#555770"/>
<rect width="37.5385" height="4.89633" rx="1.5" transform="matrix(0.866494 -0.500228 0.866494 0.500228 430.41 351.521)" fill="#555770"/>
<rect width="13.0569" height="4.89632" rx="1.5" transform="matrix(0.866494 -0.500228 0.866494 0.500228 389.397 375.198)" fill="#555770"/>
<rect width="21.2174" height="4.89633" rx="1.5" transform="matrix(0.866494 -0.500228 0.866494 0.500228 406.368 365.4)" fill="#555770"/>
<rect width="14.689" height="4.89633" rx="1.5" transform="matrix(0.866494 -0.500228 0.866494 0.500228 421.924 346.623)" fill="#555770"/>
<rect width="33.4582" height="4.89633" rx="1.5" transform="matrix(0.866494 -0.500228 0.866494 0.500228 440.309 336.01)" fill="#555770"/>
<path fill-rule="evenodd" clip-rule="evenodd" d="M319.546 332.012C321.303 330.997 321.303 329.353 319.546 328.338C317.788 327.324 314.939 327.324 313.182 328.338C311.424 329.353 311.424 330.997 313.182 332.012C314.939 333.027 317.788 333.027 319.546 332.012Z" fill="#FF5C5C"/>
<path fill-rule="evenodd" clip-rule="evenodd" d="M330.153 325.889C331.91 324.874 331.91 323.229 330.153 322.215C328.395 321.2 325.546 321.2 323.789 322.215C322.031 323.229 322.031 324.874 323.789 325.889C325.546 326.903 328.395 326.903 330.153 325.889Z" fill="#FDDD48"/>
<path fill-rule="evenodd" clip-rule="evenodd" d="M340.76 319.766C342.517 318.751 342.517 317.106 340.76 316.092C339.002 315.077 336.153 315.077 334.396 316.092C332.638 317.106 332.638 318.751 334.396 319.766C336.153 320.78 339.002 320.78 340.76 319.766Z" fill="#39D98A"/>
</g>
<path fill-rule="evenodd" clip-rule="evenodd" d="M286.082 259.575C284.249 258.514 283.22 257.077 283.22 255.578L283.22 248L816 201.5L816 207.998C816 209.499 814.967 210.938 813.129 212L515.083 384.094C511.252 386.307 505.037 386.305 501.21 384.09L286.082 259.575Z" fill="url(#paint2_linear)"/>
<mask id="mask4" mask-type="alpha" maskUnits="userSpaceOnUse" x="283" y="71" width="534" height="308">
<path fill-rule="evenodd" clip-rule="evenodd" d="M286.293 252.371C282.464 250.161 282.464 246.577 286.293 244.367L583.544 72.7642C587.372 70.5541 593.579 70.5541 597.408 72.7642L813.29 197.393C817.118 199.603 817.118 203.187 813.29 205.397L516.039 377C512.211 379.21 506.004 379.21 502.175 377L286.293 252.371Z" fill="white"/>
</mask>
<g mask="url(#mask4)">
<g filter="url(#filter1_b)">
<path fill-rule="evenodd" clip-rule="evenodd" d="M286.293 252.371C282.464 250.161 282.464 246.577 286.293 244.367L583.544 72.7642C587.372 70.5541 593.579 70.5541 597.408 72.7642L813.29 197.393C817.118 199.603 817.118 203.187 813.29 205.397L516.039 377C512.211 379.21 506.004 379.21 502.175 377L286.293 252.371Z" fill="white"/>
</g>
</g>
<rect width="24.8128" height="9.37371" rx="4.68686" transform="matrix(0.866495 -0.500227 0.866495 0.500227 411 190.962)" fill="#E4E4EB"/>
<rect width="11.5793" height="9.37371" rx="4.68686" transform="matrix(0.866495 -0.500227 0.866495 0.500227 437.277 175.792)" fill="#E4E4EB"/>
<rect width="77.1784" height="77.1784" rx="18" transform="matrix(0.866495 0.500228 -0.866495 0.500228 382.726 212)" fill="url(#paint3_linear)"/>
<rect width="116.905" height="112.895" rx="8" transform="matrix(0.866495 0.500228 -0.866495 0.500228 690.823 142)" fill="#F2F2F5"/>
<g filter="url(#filter2_dd)">
<rect width="122.59" height="121.045" rx="6" transform="matrix(0.866495 -0.500227 0.866495 0.500227 595 178.323)" fill="white"/>
<rect opacity="0.734766" width="4.12068" height="25.7542" rx="1" transform="matrix(0.866495 -0.500227 0.866495 0.500227 677.568 217.745)" fill="#57EBA1"/>
<rect opacity="0.734766" width="4.12068" height="61.8102" rx="1" transform="matrix(0.866495 -0.500227 0.866495 0.500227 650.343 197.39)" fill="#57EBA1"/>
<rect opacity="0.734766" width="4.12067" height="56.1442" rx="1" transform="matrix(0.866495 -0.500228 0.866495 0.500228 659.269 197.905)" fill="#57EBA1"/>
<rect opacity="0.734766" width="4.12067" height="41.2067" rx="1" transform="matrix(0.866494 -0.500228 0.866494 0.500228 676.229 203.058)" fill="#57EBA1"/>
<rect opacity="0.734766" width="4.12068" height="18.543" rx="1" transform="matrix(0.866495 -0.500227 0.866495 0.500227 699.884 212.077)" fill="#57EBA1"/>
<rect opacity="0.734766" width="4.12067" height="11.3319" rx="1" transform="matrix(0.866494 -0.500228 0.866494 0.500228 710.149 213.365)" fill="#57EBA1"/>
<rect opacity="0.734766" width="4.12068" height="29.8749" rx="1" transform="matrix(0.866495 -0.500227 0.866495 0.500227 698.099 201.77)" fill="#57EBA1"/>
<rect opacity="0.734766" width="4.12067" height="44.8123" rx="1" transform="matrix(0.866494 -0.500228 0.866494 0.500228 689.173 191.979)" fill="#57EBA1"/>
<rect opacity="0.734766" width="4.12066" height="7.72624" rx="1" transform="matrix(0.866493 -0.500229 0.866493 0.500229 725.324 208.212)" fill="#57EBA1"/>
<rect opacity="0.734766" width="4.12067" height="25.7542" rx="1" transform="matrix(-0.866495 0.500227 0.866495 0.500227 749.426 176.262)" fill="#57EBA1"/>
<rect opacity="0.734766" width="4.12068" height="61.8101" rx="1" transform="matrix(-0.866495 0.500227 0.866495 0.500227 714.166 160.544)" fill="#57EBA1"/>
<rect opacity="0.734766" width="4.12068" height="56.1442" rx="1" transform="matrix(-0.866495 0.500227 0.866495 0.500227 715.059 165.698)" fill="#57EBA1"/>
<rect opacity="0.734766" width="4.12068" height="41.2068" rx="1" transform="matrix(-0.866495 0.500227 0.866495 0.500227 723.985 175.489)" fill="#57EBA1"/>
<rect opacity="0.734766" width="4.12068" height="18.543" rx="1" transform="matrix(-0.866495 0.500227 0.866495 0.500227 739.607 189.145)" fill="#57EBA1"/>
<rect opacity="0.734766" width="4.12067" height="11.3319" rx="1" transform="matrix(-0.866494 0.500228 0.866494 0.500228 741.838 195.071)" fill="#57EBA1"/>
<rect opacity="0.734766" width="4.12067" height="29.8749" rx="1" transform="matrix(-0.866495 0.500227 0.866495 0.500227 721.754 188.114)" fill="#57EBA1"/>
<rect opacity="0.734766" width="4.12068" height="52.0235" rx="1" transform="matrix(-0.866495 0.500227 0.866495 0.500227 698.545 179.354)" fill="#57EBA1"/>
<rect opacity="0.734766" width="4.12067" height="15.9676" rx="1" transform="matrix(-0.866494 0.500228 0.866494 0.500228 725.771 199.709)" fill="#57EBA1"/>
<rect opacity="0.734766" width="4.12068" height="41.2068" rx="1" transform="matrix(-0.866495 0.500227 0.866495 0.500227 756.12 156.938)" fill="#57EBA1"/>
<rect opacity="0.734766" width="4.12068" height="18.5431" rx="1" transform="matrix(-0.866495 0.500227 0.866495 0.500227 771.741 170.593)" fill="#57EBA1"/>
<rect opacity="0.734766" width="4.12067" height="11.3319" rx="1" transform="matrix(-0.866494 0.500228 0.866494 0.500228 773.973 176.52)" fill="#57EBA1"/>
<rect opacity="0.734766" width="4.12067" height="29.8749" rx="1" transform="matrix(-0.866495 0.500227 0.866495 0.500227 753.889 169.563)" fill="#57EBA1"/>
<rect opacity="0.734766" width="4.12068" height="52.0235" rx="1" transform="matrix(-0.866495 0.500227 0.866495 0.500227 730.68 160.802)" fill="#57EBA1"/>
<rect width="4.12068" height="7.72627" rx="1" transform="matrix(0.866495 -0.500227 0.866495 0.500227 693.189 226.764)" fill="#39D98A"/>
<rect width="4.12068" height="22.6637" rx="1" transform="matrix(0.866495 -0.500227 0.866495 0.500227 684.263 216.973)" fill="#39D98A"/>
<rect width="4.12067" height="3.60559" rx="1" transform="matrix(0.866495 -0.500227 0.866495 0.500227 704.794 224.187)" fill="#39D98A"/>
<rect width="4.12068" height="7.21119" rx="1" transform="matrix(0.866497 -0.500226 0.866497 0.500226 705.686 220.065)" fill="#39D98A"/>
<rect width="4.12068" height="5.66593" rx="1" transform="matrix(0.866494 -0.500228 0.866494 0.500228 711.042 218.519)" fill="#39D98A"/>
<rect width="4.12068" height="3.60559" rx="1" transform="matrix(0.866494 -0.500228 0.866494 0.500228 716.844 217.23)" fill="#39D98A"/>
<rect width="4.12068" height="7.72627" rx="1" transform="matrix(0.866495 -0.500227 0.866495 0.500227 717.291 212.85)" fill="#39D98A"/>
<rect width="4.12067" height="22.1486" rx="1" transform="matrix(0.866495 -0.500227 0.866495 0.500227 708.811 203.317)" fill="#39D98A"/>
<rect width="4.12068" height="3.60559" rx="1" transform="matrix(0.866494 -0.500228 0.866494 0.500228 728.895 210.274)" fill="#39D98A"/>
<rect width="4.12068" height="7.72627" rx="1" transform="matrix(-0.866495 0.500227 0.866495 0.500227 765.047 185.281)" fill="#39D98A"/>
<rect width="4.12068" height="22.6637" rx="1" transform="matrix(-0.866495 0.500227 0.866495 0.500227 748.086 180.127)" fill="#39D98A"/>
<rect width="4.12068" height="44.8124" rx="1" transform="matrix(-0.866495 0.500228 0.866495 0.500228 724.878 171.367)" fill="#39D98A"/>
<rect width="4.12068" height="14.4224" rx="1" transform="matrix(-0.866495 0.500228 0.866495 0.500228 747.194 188.888)" fill="#39D98A"/>
<rect width="4.12067" height="5.66593" rx="1" transform="matrix(-0.866495 0.500227 0.866495 0.500227 750.764 195.587)" fill="#39D98A"/>
<rect width="4.12069" height="3.6056" rx="1" transform="matrix(-0.866499 0.500225 0.866499 0.500225 748.533 198.937)" fill="#39D98A"/>
<rect width="4.12067" height="16.4827" rx="1" transform="matrix(-0.866495 0.500227 0.866495 0.500227 733.358 194.814)" fill="#39D98A"/>
<rect width="4.12068" height="28.8447" rx="1" transform="matrix(-0.866494 0.500228 0.866494 0.500228 718.63 190.949)" fill="#39D98A"/>
<rect width="4.12068" height="14.4224" rx="1" transform="matrix(-0.866495 0.500228 0.866495 0.500228 779.329 170.336)" fill="#39D98A"/>
<rect width="4.12067" height="5.66593" rx="1" transform="matrix(-0.866495 0.500227 0.866495 0.500227 782.899 177.035)" fill="#39D98A"/>
<rect width="4.12068" height="3.60559" rx="1" transform="matrix(-0.866494 0.500228 0.866494 0.500228 780.668 180.385)" fill="#39D98A"/>
<rect width="4.12067" height="16.4827" rx="1" transform="matrix(-0.866493 0.500228 0.866493 0.500228 765.493 176.262)" fill="#39D98A"/>
<rect width="4.12068" height="28.8447" rx="1" transform="matrix(-0.866496 0.500227 0.866496 0.500227 750.764 172.397)" fill="#39D98A"/>
<rect width="4.12067" height="10.3017" rx="1" transform="matrix(-0.866494 0.500228 0.866494 0.500228 730.68 202.544)" fill="#39D98A"/>
<rect width="20.6034" height="8.75643" rx="4.37822" transform="matrix(0.866495 -0.500227 0.866495 0.500227 611 178.766)" fill="#EBEBF0"/>
<rect width="19.8082" height="8.75643" rx="4.37822" transform="matrix(0.866495 -0.500227 0.866495 0.500227 632.422 166.398)" fill="#F2F2F5"/>
</g>
<rect width="225.364" height="10.8937" rx="4" transform="matrix(0.866495 -0.500228 0.866495 0.500228 450.683 242.973)" fill="url(#paint4_linear)"/>
<rect width="225.364" height="10.8937" rx="4" transform="matrix(0.866495 -0.500227 0.866495 0.500227 432 229.733)" fill="url(#paint5_linear)"/>
<path d="M437 190.446C437 189.299 437.844 187.893 438.782 187.725C444.92 186.626 450.375 195.653 461.412 188.721C473.503 181.127 487.485 140.555 503.994 131.023C520.503 121.492 526.131 141.128 543.027 131.373C559.922 121.618 565.47 48.0051 586.961 35.5974C608.452 23.1898 603.526 55.5025 614.39 49.23C625.255 42.9574 626.748 49.1133 626.748 49.1133V117.166C626.748 119.933 624.809 123.296 622.417 124.674L442.19 228.572C439.323 230.225 437 228.88 437 225.563C437 215.893 437 197.259 437 190.446Z" fill="url(#paint6_linear)"/>
<path d="M440.615 191.937C440.615 190.789 441.46 189.384 442.397 189.216C448.536 188.117 453.99 197.144 465.028 190.212C477.118 182.618 491.1 142.045 507.609 132.514C524.119 122.982 529.747 142.618 546.642 132.863C563.538 123.109 569.086 49.4956 590.576 37.0879C612.067 24.6803 607.141 56.993 618.006 50.7204C628.87 44.4478 630.364 50.6037 630.364 50.6037V118.656C630.364 121.424 628.424 124.786 626.033 126.165L445.805 230.063C442.938 231.716 440.615 230.371 440.615 227.054C440.615 217.384 440.615 198.75 440.615 191.937Z" fill="url(#paint7_linear)"/>
<path d="M455.14 224.221C455.138 223.14 455.888 221.799 456.82 221.35C466.42 216.722 468.982 227.02 478.021 221.225C487.566 215.106 499.862 183.682 519.794 172.174C539.726 160.666 544.785 169.3 562.054 159.33C579.323 149.359 587.929 113.375 600.838 105.922C613.747 98.469 614.34 106.582 623.486 101.302C632.016 96.3766 635.512 83.9067 643.161 78.0826C644.105 77.3636 644.886 77.8269 644.886 78.9332V128.715C644.886 132.034 642.561 136.067 639.693 137.723L460.335 241.276C457.556 242.88 455.289 241.659 455.241 238.472C455.193 235.3 455.147 230.661 455.14 224.221Z" fill="url(#paint8_linear)"/>
<path d="M458.871 226.279C458.87 225.198 459.619 223.857 460.551 223.408C470.152 218.78 472.713 229.078 481.752 223.283C491.298 217.164 503.593 185.739 523.525 174.232C543.457 162.724 548.516 171.358 565.785 161.387C583.054 151.417 591.66 115.433 604.569 107.98C617.478 100.527 618.071 108.64 627.217 103.359C635.748 98.4345 639.243 85.9646 646.892 80.1405C647.836 79.4215 648.617 79.8848 648.617 80.9911V132.776C648.617 134.989 647.067 137.678 645.155 138.782L464.066 243.333C461.287 244.938 459.02 243.717 458.972 240.53C458.924 237.358 458.879 232.719 458.871 226.279Z" fill="url(#paint9_linear)"/>
<g filter="url(#filter3_dd)">
<rect width="181.385" height="59.5395" rx="8" transform="matrix(0.866495 -0.500227 0.866495 0.500227 463 328.734)" fill="white"/>
<path fill-rule="evenodd" clip-rule="evenodd" d="M530.068 337.669C538.616 332.734 538.616 324.734 530.068 319.799C521.52 314.864 507.661 314.864 499.114 319.799C490.566 324.734 490.566 332.734 499.114 337.669C507.661 342.604 521.52 342.604 530.068 337.669Z" fill="#E3FFF1"/>
<g clip-path="url(#clip0)">
<path d="M510.077 326.128C507.584 327.567 507.584 329.901 510.077 331.34C512.569 332.779 516.612 332.779 519.105 331.34C521.598 329.901 521.598 327.567 519.105 326.128C516.612 324.689 512.569 324.689 510.077 326.128ZM515.066 326.757L515.887 329.681C515.898 329.722 515.893 329.764 515.871 329.804C515.849 329.843 515.811 329.879 515.76 329.909C515.709 329.938 515.647 329.96 515.578 329.973C515.51 329.985 515.437 329.988 515.366 329.982L512.368 329.702C512.276 329.693 512.24 329.628 512.305 329.59L512.778 329.317C512.881 329.258 513.028 329.23 513.173 329.244L514.886 329.405L514.273 327.222C514.25 327.139 514.297 327.054 514.4 326.994L514.873 326.721C514.938 326.683 515.051 326.704 515.066 326.757Z" fill="#39D98A"/>
</g>
<rect width="31.7544" height="3.9693" rx="1.98465" transform="matrix(0.866494 -0.500228 0.866494 0.500228 545.975 317.069)" fill="#EBEBF0"/>
<rect width="71.4474" height="3.9693" rx="1.98465" transform="matrix(0.866495 -0.500227 0.866495 0.500227 539.526 313.346)" fill="#EBEBF0"/>
<rect width="33.7391" height="7.9386" rx="3.9693" transform="matrix(0.866494 -0.500228 0.866494 0.500228 529.208 307.389)" fill="#C7C9D9"/>
</g>
<g filter="url(#filter4_dd)">
<rect width="181.385" height="59.5395" rx="8" transform="matrix(0.866495 -0.500227 0.866495 0.500227 408 292.734)" fill="white"/>
<path fill-rule="evenodd" clip-rule="evenodd" d="M475.068 301.669C483.616 296.734 483.616 288.734 475.068 283.799C466.52 278.864 452.661 278.864 444.114 283.799C435.566 288.734 435.566 296.734 444.114 301.669C452.661 306.604 466.52 306.604 475.068 301.669Z" fill="#E3FFF1"/>
<g clip-path="url(#clip1)">
<path d="M455.077 290.128C452.584 291.567 452.584 293.901 455.077 295.34C457.569 296.779 461.612 296.779 464.105 295.34C466.598 293.901 466.598 291.567 464.105 290.128C461.612 288.689 457.569 288.689 455.077 290.128ZM460.066 290.757L460.887 293.681C460.898 293.722 460.893 293.764 460.871 293.804C460.849 293.843 460.811 293.879 460.76 293.909C460.709 293.938 460.647 293.96 460.578 293.973C460.51 293.985 460.437 293.988 460.366 293.982L457.368 293.702C457.276 293.693 457.24 293.628 457.305 293.59L457.778 293.317C457.881 293.258 458.028 293.23 458.173 293.244L459.886 293.405L459.273 291.222C459.25 291.139 459.297 291.054 459.4 290.994L459.873 290.721C459.938 290.683 460.051 290.704 460.066 290.757Z" fill="#39D98A"/>
</g>
<rect width="31.7544" height="3.9693" rx="1.98465" transform="matrix(0.866494 -0.500228 0.866494 0.500228 490.975 281.069)" fill="#EBEBF0"/>
<rect width="71.4474" height="3.9693" rx="1.98465" transform="matrix(0.866495 -0.500228 0.866495 0.500228 484.526 277.346)" fill="#EBEBF0"/>
<rect width="33.7391" height="7.9386" rx="3.9693" transform="matrix(0.866495 -0.500228 0.866495 0.500228 474.208 271.389)" fill="#C7C9D9"/>
</g>
<g filter="url(#filter5_dd)">
<rect width="80.1839" height="80.1839" rx="18" transform="matrix(0.866044 0.499967 -0.866044 0.499967 383.397 193.551)" fill="url(#paint10_linear)"/>
<rect width="80.1839" height="80.1839" rx="18" transform="matrix(0.866044 0.499967 -0.866044 0.499967 383.397 191)" fill="white"/>
<path d="M360.498 217.575C360.082 217.8 360.081 218.18 360.485 218.413L370.366 224.117C370.766 224.348 371.41 224.349 371.838 224.136C378.638 220.744 388.928 220.912 395.387 224.641C401.846 228.37 402.138 234.31 396.262 238.236C395.893 238.483 395.895 238.855 396.294 239.086L405.81 244.579C406.214 244.812 406.871 244.812 407.262 244.572C419.45 237.089 419.205 225.314 406.53 217.997C393.855 210.68 373.46 210.539 360.498 217.575Z" fill="#39D98A"/>
<path d="M375.478 227.068C375.415 227.102 375.354 227.137 375.293 227.172C371.156 229.56 371.156 233.432 375.293 235.82C379.429 238.208 386.136 238.208 390.272 235.82C390.333 235.785 390.393 235.749 390.453 235.713L375.478 227.068Z" fill="#223C37"/>
<path d="M390.453 235.713C394.408 233.318 394.348 229.525 390.272 227.172C386.197 224.82 379.627 224.785 375.478 227.068L390.453 235.713Z" fill="#376C66"/>
</g>
<g filter="url(#filter6_dd)">
<path d="M358.058 534.809L485.161 533.5L485.161 541.151C485.161 544.526 482.838 547.763 478.704 550.15L437.198 574.111C428.589 579.082 414.63 579.082 406.021 574.111L364.515 550.15C360.381 547.763 358.058 544.526 358.058 541.151L358.058 534.809Z" fill="url(#paint11_linear)"/>
<rect width="84.0609" height="84.0609" rx="18" transform="matrix(0.866044 0.499967 -0.866044 0.499967 421.61 492)" fill="white"/>
<path d="M412.534 538.919C412.88 538.72 412.88 538.396 412.534 538.197C412.188 537.997 411.628 537.997 411.282 538.197L405.827 541.346C403.93 540.592 401.309 540.699 399.623 541.672C397.724 542.769 397.724 544.553 399.623 545.65C401.523 546.747 404.614 546.747 406.514 545.65C408.2 544.677 408.384 543.164 407.079 542.069L412.534 538.919ZM405.262 544.927C404.052 545.626 402.085 545.625 400.875 544.927C399.666 544.229 399.666 543.093 400.875 542.395C402.085 541.697 404.053 541.697 405.262 542.395C406.472 543.093 406.471 544.229 405.262 544.927Z" fill="#C7C9D9" stroke="#C7C9D9" stroke-width="0.2"/>
<path d="M399.623 520.484C397.724 521.58 397.724 523.365 399.623 524.462C401.309 525.435 403.93 525.541 405.827 524.788L411.286 527.939C411.632 528.139 412.193 528.139 412.538 527.939C412.884 527.74 412.884 527.416 412.538 527.217L407.079 524.065C408.384 522.97 408.2 521.457 406.514 520.484C404.614 519.387 401.523 519.387 399.623 520.484ZM405.262 523.739C404.053 524.437 402.085 524.437 400.875 523.739C399.666 523.041 399.666 521.905 400.875 521.206C402.085 520.508 404.053 520.508 405.262 521.206C406.471 521.905 406.471 523.041 405.262 523.739Z" fill="#C7C9D9" stroke="#C7C9D9" stroke-width="0.2"/>
<path d="M443.217 541.672C441.531 540.699 438.91 540.592 437.014 541.346L431.554 538.194C431.208 537.995 430.648 537.995 430.302 538.194C429.956 538.394 429.956 538.718 430.302 538.917L435.762 542.069C434.456 543.164 434.641 544.677 436.327 545.65C438.226 546.747 441.317 546.747 443.217 545.65C445.117 544.553 445.117 542.769 443.217 541.672ZM441.965 544.927C440.756 545.626 438.788 545.626 437.578 544.927C436.369 544.229 436.369 543.093 437.578 542.395C438.787 541.697 440.756 541.697 441.965 542.395C443.174 543.093 443.174 544.229 441.965 544.927Z" fill="#C7C9D9" stroke="#C7C9D9" stroke-width="0.2"/>
<path d="M436.327 520.483C434.641 521.457 434.457 522.97 435.762 524.065L430.155 527.302C429.809 527.501 429.809 527.825 430.155 528.024C430.501 528.224 431.061 528.224 431.407 528.024L437.014 524.787C438.911 525.541 441.531 525.435 443.217 524.461C445.117 523.364 445.117 521.58 443.218 520.483C441.318 519.387 438.227 519.387 436.327 520.483ZM441.966 523.739C440.756 524.437 438.788 524.437 437.579 523.739C436.369 523.04 436.37 521.904 437.579 521.206C438.788 520.508 440.757 520.508 441.966 521.206C443.175 521.904 443.175 523.04 441.966 523.739Z" fill="#C7C9D9" stroke="#C7C9D9" stroke-width="0.2"/>
<path d="M430.993 533.911L422.883 538.593C422.077 539.058 420.765 539.058 419.96 538.593L411.849 533.911C411.043 533.446 411.043 532.689 411.849 532.223L419.96 527.541C420.766 527.076 422.077 527.076 422.883 527.541L430.994 532.223C431.799 532.688 431.799 533.446 430.993 533.911ZM412.844 532.798C412.587 532.946 412.587 533.188 412.844 533.336L420.955 538.019C421.212 538.167 421.63 538.167 421.887 538.019L429.998 533.336C430.255 533.188 430.255 532.946 429.998 532.798L421.887 528.116C421.63 527.967 421.212 527.967 420.955 528.116L412.844 532.798Z" fill="#C7C9D9"/>
<path d="M419.515 531.967L417.206 533.3C416.931 533.459 416.485 533.459 416.21 533.3C415.936 533.141 415.936 532.884 416.21 532.725L418.52 531.392C418.795 531.233 419.24 531.233 419.515 531.392C419.79 531.551 419.79 531.808 419.515 531.967Z" fill="#C7C9D9"/>
<path d="M424.228 532.021L419.61 534.687C419.335 534.846 418.889 534.846 418.614 534.687C418.339 534.529 418.339 534.271 418.614 534.113L423.232 531.446C423.507 531.288 423.953 531.288 424.228 531.446C424.503 531.605 424.503 531.862 424.228 532.021Z" fill="#C7C9D9"/>
<path d="M426.632 533.409L422.013 536.075C421.738 536.234 421.293 536.234 421.018 536.075C420.743 535.916 420.743 535.659 421.018 535.5L425.636 532.834C425.911 532.675 426.357 532.675 426.632 532.834C426.907 532.993 426.907 533.25 426.632 533.409Z" fill="#C7C9D9"/>
</g>
<g filter="url(#filter7_dd)">
<path d="M145.058 502.809L272.161 501.5L272.161 509.151C272.161 512.526 269.838 515.763 265.704 518.15L224.198 542.111C215.589 547.082 201.63 547.082 193.021 542.111L151.515 518.15C147.381 515.763 145.058 512.526 145.058 509.151L145.058 502.809Z" fill="url(#paint12_linear)"/>
<rect width="84.0609" height="84.0609" rx="18" transform="matrix(0.866044 0.499967 -0.866044 0.499967 208.61 460)" fill="white"/>
<path d="M200.534 507.919C200.88 507.72 200.88 507.396 200.534 507.197C200.188 506.997 199.628 506.997 199.282 507.197L193.827 510.346C191.93 509.592 189.309 509.699 187.623 510.672C185.723 511.769 185.724 513.553 187.623 514.65C189.523 515.747 192.614 515.747 194.514 514.65C196.2 513.677 196.384 512.164 195.079 511.069L200.534 507.919ZM193.262 513.927C192.052 514.626 190.085 514.625 188.875 513.927C187.666 513.229 187.666 512.093 188.875 511.395C190.085 510.697 192.053 510.697 193.262 511.395C194.472 512.093 194.471 513.229 193.262 513.927Z" fill="#C7C9D9" stroke="#C7C9D9" stroke-width="0.2"/>
<path d="M187.623 489.484C185.724 490.58 185.724 492.365 187.623 493.462C189.309 494.435 191.93 494.541 193.827 493.788L199.286 496.939C199.632 497.139 200.192 497.139 200.538 496.939C200.884 496.74 200.884 496.416 200.538 496.217L195.079 493.065C196.384 491.97 196.2 490.457 194.514 489.484C192.614 488.387 189.523 488.387 187.623 489.484ZM193.262 492.739C192.053 493.437 190.085 493.437 188.875 492.739C187.666 492.041 187.666 490.905 188.875 490.206C190.084 489.508 192.053 489.508 193.262 490.206C194.471 490.905 194.471 492.041 193.262 492.739Z" fill="#C7C9D9" stroke="#C7C9D9" stroke-width="0.2"/>
<path d="M231.217 510.672C229.531 509.699 226.91 509.592 225.014 510.346L219.554 507.194C219.208 506.995 218.648 506.995 218.302 507.194C217.956 507.394 217.956 507.718 218.302 507.917L223.762 511.069C222.456 512.164 222.641 513.677 224.327 514.65C226.226 515.747 229.317 515.747 231.217 514.65C233.117 513.553 233.117 511.769 231.217 510.672ZM229.965 513.927C228.756 514.626 226.788 514.626 225.578 513.927C224.369 513.229 224.369 512.093 225.578 511.395C226.787 510.697 228.756 510.697 229.965 511.395C231.174 512.093 231.174 513.229 229.965 513.927Z" fill="#C7C9D9" stroke="#C7C9D9" stroke-width="0.2"/>
<path d="M224.327 489.483C222.641 490.457 222.457 491.97 223.762 493.065L218.155 496.302C217.809 496.501 217.809 496.825 218.155 497.024C218.501 497.224 219.061 497.224 219.407 497.024L225.014 493.787C226.911 494.541 229.531 494.435 231.217 493.461C233.117 492.364 233.117 490.58 231.218 489.483C229.318 488.387 226.227 488.387 224.327 489.483ZM229.966 492.739C228.756 493.437 226.788 493.437 225.579 492.739C224.369 492.04 224.37 490.904 225.579 490.206C226.788 489.508 228.757 489.508 229.966 490.206C231.175 490.904 231.175 492.04 229.966 492.739Z" fill="#C7C9D9" stroke="#C7C9D9" stroke-width="0.2"/>
<path d="M218.993 502.911L210.883 507.593C210.077 508.058 208.765 508.058 207.96 507.593L199.849 502.911C199.043 502.446 199.043 501.689 199.849 501.223L207.96 496.541C208.766 496.076 210.077 496.076 210.883 496.541L218.994 501.223C219.799 501.688 219.799 502.446 218.993 502.911ZM200.844 501.798C200.587 501.946 200.587 502.188 200.844 502.336L208.955 507.019C209.212 507.167 209.63 507.167 209.887 507.019L217.998 502.336C218.255 502.188 218.255 501.946 217.998 501.798L209.887 497.116C209.63 496.967 209.212 496.967 208.955 497.116L200.844 501.798Z" fill="#C7C9D9"/>
<path d="M207.515 500.967L205.206 502.3C204.931 502.459 204.485 502.459 204.21 502.3C203.935 502.141 203.935 501.884 204.21 501.725L206.52 500.392C206.795 500.233 207.24 500.233 207.515 500.392C207.79 500.551 207.79 500.808 207.515 500.967Z" fill="#C7C9D9"/>
<path d="M212.228 501.021L207.61 503.687C207.335 503.846 206.889 503.846 206.614 503.687C206.339 503.529 206.339 503.271 206.614 503.113L211.232 500.446C211.507 500.288 211.953 500.288 212.228 500.446C212.503 500.605 212.503 500.862 212.228 501.021Z" fill="#C7C9D9"/>
<path d="M214.632 502.409L210.013 505.075C209.738 505.234 209.293 505.234 209.018 505.075C208.743 504.916 208.743 504.659 209.018 504.5L213.636 501.834C213.911 501.675 214.357 501.675 214.632 501.834C214.907 501.993 214.907 502.25 214.632 502.409Z" fill="#C7C9D9"/>
</g>
<circle opacity="0.25" r="100.823" transform="matrix(0.866044 -0.499967 0.866044 0.499967 175.5 376.316)" fill="#E3FFF1" stroke="#57EBA1"/>
<circle opacity="0.5" r="79.0762" transform="matrix(0.866044 -0.499967 0.866044 0.499967 175.099 372.213)" fill="#E3FFF1" stroke="#57EBA1"/>
<circle opacity="0.75" r="56.1587" transform="matrix(0.866044 -0.499967 0.866044 0.499967 175.531 372.213)" fill="#E3FFF1" stroke="#57EBA1"/>
<circle r="35.6619" transform="matrix(0.866044 -0.499967 0.866044 0.499967 175.207 372.213)" fill="#E3FFF1" stroke="#57EBA1"/>
<g filter="url(#filter8_dd)">
<path d="M112.058 363.809L239.161 362.5L239.161 370.151C239.161 373.526 236.838 376.764 232.704 379.15L191.198 403.111C182.589 408.082 168.63 408.082 160.021 403.111L118.515 379.15C114.381 376.763 112.058 373.526 112.058 370.151L112.058 363.809Z" fill="url(#paint13_linear)"/>
<rect width="84.0609" height="84.0609" rx="18" transform="matrix(0.866044 0.499967 -0.866044 0.499967 175.61 321)" fill="white"/>
</g>
<g opacity="0.45">
<path d="M236 322.913L175.739 358.065L115.24 322.913L175.5 288L236 322.913Z" fill="url(#paint14_linear)"/>
<path d="M235.999 322.913V351.457L175.739 386.609L175.739 358.065L235.999 322.913Z" fill="url(#paint15_linear)"/>
<path d="M175.739 358.065V386.609L115 351.457L115.239 322.913L175.739 358.065Z" fill="url(#paint16_linear)"/>
</g>
<g filter="url(#filter9_dd)">
<rect width="80.1839" height="80.1839" rx="18" transform="matrix(0.866044 0.499967 -0.866044 0.499967 175.397 283.551)" fill="url(#paint17_linear)"/>
<rect width="80.1839" height="80.1839" rx="18" transform="matrix(0.866044 0.499967 -0.866044 0.499967 175.397 281)" fill="white"/>
<path d="M185.583 321.818C186.054 321.544 186.744 321.438 187.391 321.54L202.89 323.794C204.28 324.011 204.819 325.052 203.807 325.639L171.01 344.573C169.994 345.162 168.248 344.889 167.873 344.082L163.991 335.083C163.819 334.712 164.001 334.317 164.469 334.046L185.583 321.818Z" fill="#223C37"/>
<path d="M176.683 321.546C176.861 321.919 176.679 322.318 176.205 322.591L164.426 329.391C163.414 329.976 161.687 329.709 161.319 328.911L151.508 307.655C151.139 306.857 152.409 306.127 153.79 306.342L169.643 308.814C170.276 308.912 170.771 309.197 170.946 309.562L176.683 321.546Z" fill="#39D98A"/>
<path d="M202.52 325.622C203.155 325.715 203.537 325.795 203.999 325.528L218.059 317.412C219.087 316.818 218.619 315.821 217.202 315.627L181.062 310.384C179.672 310.194 178.448 310.941 178.855 311.732L184.3 322.558L202.52 325.622Z" fill="#376C66"/>
</g>
<path d="M251.5 287C251.5 296.665 246.5 307 238.5 312.5C234.137 315.096 231 319 224 311.9C221 308.857 220 306.983 220 302.395C220 292.73 226.733 280.889 235.04 275.948C239.105 273.529 242.793 273.211 245.5 274.651C254.5 281 251.5 282.065 251.5 287Z" fill="#57EBA1"/>
<circle r="16" transform="matrix(0.859406 -0.511293 0 1 237.751 295.819)" fill="white"/>
<g clip-path="url(#clip2)">
<path d="M238.188 278.726C229.883 283.667 223.149 295.509 223.149 305.173C223.149 314.837 229.883 318.667 238.188 313.726C246.493 308.785 253.228 296.942 253.228 287.278C253.228 277.614 246.493 273.785 238.188 278.726ZM244.684 286.646L237.614 302.259C237.515 302.478 237.385 302.686 237.234 302.866C237.083 303.046 236.916 303.193 236.746 303.294C236.577 303.395 236.409 303.447 236.258 303.447C236.108 303.446 235.977 303.393 235.878 303.291L231.692 299.032C231.565 298.901 231.692 298.536 231.91 298.406L233.485 297.469C233.827 297.265 234.153 297.263 234.354 297.471L236.745 299.909L242.022 288.253C242.223 287.809 242.546 287.422 242.891 287.217L244.466 286.28C244.684 286.15 244.812 286.363 244.684 286.646Z" fill="#39D98A"/>
</g>
<defs>
<filter id="filter0_dd" x="291.255" y="163.344" width="511.245" height="304.796" filterUnits="userSpaceOnUse" color-interpolation-filters="sRGB">
<feFlood flood-opacity="0" result="BackgroundImageFix"/>
<feColorMatrix in="SourceAlpha" type="matrix" values="0 0 0 0 0 0 0 0 0 0 0 0 0 0 0 0 0 0 127 0"/>
<feOffset dy="2"/>
<feGaussianBlur stdDeviation="2"/>
<feColorMatrix type="matrix" values="0 0 0 0 0.376471 0 0 0 0 0.380392 0 0 0 0 0.439216 0 0 0 0.16 0"/>
<feBlend mode="normal" in2="BackgroundImageFix" result="effect1_dropShadow"/>
<feColorMatrix in="SourceAlpha" type="matrix" values="0 0 0 0 0 0 0 0 0 0 0 0 0 0 0 0 0 0 127 0"/>
<feOffset/>
<feGaussianBlur stdDeviation="0.5"/>
<feColorMatrix type="matrix" values="0 0 0 0 0.156863 0 0 0 0 0.160784 0 0 0 0 0.239216 0 0 0 0.04 0"/>
<feBlend mode="normal" in2="effect1_dropShadow" result="effect2_dropShadow"/>
<feBlend mode="normal" in="SourceGraphic" in2="effect2_dropShadow" result="shape"/>
</filter>
<filter id="filter1_b" x="278.422" y="66.1067" width="542.74" height="317.551" filterUnits="userSpaceOnUse" color-interpolation-filters="sRGB">
<feFlood flood-opacity="0" result="BackgroundImageFix"/>
<feGaussianBlur in="BackgroundImage" stdDeviation="2.5"/>
<feComposite in2="SourceAlpha" operator="in" result="effect1_backgroundBlur"/>
<feBlend mode="normal" in="SourceGraphic" in2="effect1_backgroundBlur" result="shape"/>
</filter>
<filter id="filter2_dd" x="594.045" y="116.759" width="213.017" height="126.357" filterUnits="userSpaceOnUse" color-interpolation-filters="sRGB">
<feFlood flood-opacity="0" result="BackgroundImageFix"/>
<feColorMatrix in="SourceAlpha" type="matrix" values="0 0 0 0 0 0 0 0 0 0 0 0 0 0 0 0 0 0 127 0"/>
<feOffset dy="2"/>
<feGaussianBlur stdDeviation="2"/>
<feColorMatrix type="matrix" values="0 0 0 0 0.376471 0 0 0 0 0.380392 0 0 0 0 0.439216 0 0 0 0.16 0"/>
<feBlend mode="normal" in2="BackgroundImageFix" result="effect1_dropShadow"/>
<feColorMatrix in="SourceAlpha" type="matrix" values="0 0 0 0 0 0 0 0 0 0 0 0 0 0 0 0 0 0 127 0"/>
<feOffset/>
<feGaussianBlur stdDeviation="0.5"/>
<feColorMatrix type="matrix" values="0 0 0 0 0.156863 0 0 0 0 0.160784 0 0 0 0 0.239216 0 0 0 0.04 0"/>
<feBlend mode="normal" in2="effect1_dropShadow" result="effect2_dropShadow"/>
<feBlend mode="normal" in="SourceGraphic" in2="effect2_dropShadow" result="shape"/>
</filter>
<filter id="filter3_dd" x="465.061" y="238.844" width="204.639" height="119.829" filterUnits="userSpaceOnUse" color-interpolation-filters="sRGB">
<feFlood flood-opacity="0" result="BackgroundImageFix"/>
<feColorMatrix in="SourceAlpha" type="matrix" values="0 0 0 0 0 0 0 0 0 0 0 0 0 0 0 0 0 0 127 0"/>
<feOffset dy="0.5"/>
<feGaussianBlur stdDeviation="1"/>
<feColorMatrix type="matrix" values="0 0 0 0 0.376471 0 0 0 0 0.380392 0 0 0 0 0.439216 0 0 0 0.16 0"/>
<feBlend mode="normal" in2="BackgroundImageFix" result="effect1_dropShadow"/>
<feColorMatrix in="SourceAlpha" type="matrix" values="0 0 0 0 0 0 0 0 0 0 0 0 0 0 0 0 0 0 127 0"/>
<feOffset/>
<feGaussianBlur stdDeviation="0.5"/>
<feColorMatrix type="matrix" values="0 0 0 0 0.156863 0 0 0 0 0.160784 0 0 0 0 0.239216 0 0 0 0.08 0"/>
<feBlend mode="normal" in2="effect1_dropShadow" result="effect2_dropShadow"/>
<feBlend mode="normal" in="SourceGraphic" in2="effect2_dropShadow" result="shape"/>
</filter>
<filter id="filter4_dd" x="404.061" y="200.344" width="216.639" height="131.829" filterUnits="userSpaceOnUse" color-interpolation-filters="sRGB">
<feFlood flood-opacity="0" result="BackgroundImageFix"/>
<feColorMatrix in="SourceAlpha" type="matrix" values="0 0 0 0 0 0 0 0 0 0 0 0 0 0 0 0 0 0 127 0"/>
<feOffset dy="4"/>
<feGaussianBlur stdDeviation="4"/>
<feColorMatrix type="matrix" values="0 0 0 0 0.376471 0 0 0 0 0.380392 0 0 0 0 0.439216 0 0 0 0.16 0"/>
<feBlend mode="normal" in2="BackgroundImageFix" result="effect1_dropShadow"/>
<feColorMatrix in="SourceAlpha" type="matrix" values="0 0 0 0 0 0 0 0 0 0 0 0 0 0 0 0 0 0 127 0"/>
<feOffset/>
<feGaussianBlur stdDeviation="1"/>
<feColorMatrix type="matrix" values="0 0 0 0 0.156863 0 0 0 0 0.160784 0 0 0 0 0.239216 0 0 0 0.04 0"/>
<feBlend mode="normal" in2="effect1_dropShadow" result="effect2_dropShadow"/>
<feBlend mode="normal" in="SourceGraphic" in2="effect2_dropShadow" result="shape"/>
</filter>
<filter id="filter5_dd" x="305" y="187" width="156.295" height="96.9922" filterUnits="userSpaceOnUse" color-interpolation-filters="sRGB">
<feFlood flood-opacity="0" result="BackgroundImageFix"/>
<feColorMatrix in="SourceAlpha" type="matrix" values="0 0 0 0 0 0 0 0 0 0 0 0 0 0 0 0 0 0 127 0"/>
<feOffset dy="4"/>
<feGaussianBlur stdDeviation="4"/>
<feColorMatrix type="matrix" values="0 0 0 0 0.376471 0 0 0 0 0.380392 0 0 0 0 0.439216 0 0 0 0.16 0"/>
<feBlend mode="normal" in2="BackgroundImageFix" result="effect1_dropShadow"/>
<feColorMatrix in="SourceAlpha" type="matrix" values="0 0 0 0 0 0 0 0 0 0 0 0 0 0 0 0 0 0 127 0"/>
<feOffset/>
<feGaussianBlur stdDeviation="1"/>
<feColorMatrix type="matrix" values="0 0 0 0 0.156863 0 0 0 0 0.160784 0 0 0 0 0.239216 0 0 0 0.04 0"/>
<feBlend mode="normal" in2="effect1_dropShadow" result="effect2_dropShadow"/>
<feBlend mode="normal" in="SourceGraphic" in2="effect2_dropShadow" result="shape"/>
</filter>
<filter id="filter6_dd" x="353.941" y="495.272" width="135.337" height="88.5672" filterUnits="userSpaceOnUse" color-interpolation-filters="sRGB">
<feFlood flood-opacity="0" result="BackgroundImageFix"/>
<feColorMatrix in="SourceAlpha" type="matrix" values="0 0 0 0 0 0 0 0 0 0 0 0 0 0 0 0 0 0 127 0"/>
<feOffset dy="2"/>
<feGaussianBlur stdDeviation="2"/>
<feColorMatrix type="matrix" values="0 0 0 0 0.376471 0 0 0 0 0.380392 0 0 0 0 0.439216 0 0 0 0.16 0"/>
<feBlend mode="normal" in2="BackgroundImageFix" result="effect1_dropShadow"/>
<feColorMatrix in="SourceAlpha" type="matrix" values="0 0 0 0 0 0 0 0 0 0 0 0 0 0 0 0 0 0 127 0"/>
<feOffset/>
<feGaussianBlur stdDeviation="0.5"/>
<feColorMatrix type="matrix" values="0 0 0 0 0.156863 0 0 0 0 0.160784 0 0 0 0 0.239216 0 0 0 0.04 0"/>
<feBlend mode="normal" in2="effect1_dropShadow" result="effect2_dropShadow"/>
<feBlend mode="normal" in="SourceGraphic" in2="effect2_dropShadow" result="shape"/>
</filter>
<filter id="filter7_dd" x="140.941" y="463.272" width="135.337" height="88.5672" filterUnits="userSpaceOnUse" color-interpolation-filters="sRGB">
<feFlood flood-opacity="0" result="BackgroundImageFix"/>
<feColorMatrix in="SourceAlpha" type="matrix" values="0 0 0 0 0 0 0 0 0 0 0 0 0 0 0 0 0 0 127 0"/>
<feOffset dy="2"/>
<feGaussianBlur stdDeviation="2"/>
<feColorMatrix type="matrix" values="0 0 0 0 0.376471 0 0 0 0 0.380392 0 0 0 0 0.439216 0 0 0 0.16 0"/>
<feBlend mode="normal" in2="BackgroundImageFix" result="effect1_dropShadow"/>
<feColorMatrix in="SourceAlpha" type="matrix" values="0 0 0 0 0 0 0 0 0 0 0 0 0 0 0 0 0 0 127 0"/>
<feOffset/>
<feGaussianBlur stdDeviation="0.5"/>
<feColorMatrix type="matrix" values="0 0 0 0 0.156863 0 0 0 0 0.160784 0 0 0 0 0.239216 0 0 0 0.04 0"/>
<feBlend mode="normal" in2="effect1_dropShadow" result="effect2_dropShadow"/>
<feBlend mode="normal" in="SourceGraphic" in2="effect2_dropShadow" result="shape"/>
</filter>
<filter id="filter8_dd" x="107.941" y="324.272" width="135.337" height="88.5675" filterUnits="userSpaceOnUse" color-interpolation-filters="sRGB">
<feFlood flood-opacity="0" result="BackgroundImageFix"/>
<feColorMatrix in="SourceAlpha" type="matrix" values="0 0 0 0 0 0 0 0 0 0 0 0 0 0 0 0 0 0 127 0"/>
<feOffset dy="2"/>
<feGaussianBlur stdDeviation="2"/>
<feColorMatrix type="matrix" values="0 0 0 0 0.376471 0 0 0 0 0.380392 0 0 0 0 0.439216 0 0 0 0.16 0"/>
<feBlend mode="normal" in2="BackgroundImageFix" result="effect1_dropShadow"/>
<feColorMatrix in="SourceAlpha" type="matrix" values="0 0 0 0 0 0 0 0 0 0 0 0 0 0 0 0 0 0 127 0"/>
<feOffset/>
<feGaussianBlur stdDeviation="0.5"/>
<feColorMatrix type="matrix" values="0 0 0 0 0.156863 0 0 0 0 0.160784 0 0 0 0 0.239216 0 0 0 0.04 0"/>
<feBlend mode="normal" in2="effect1_dropShadow" result="effect2_dropShadow"/>
<feBlend mode="normal" in="SourceGraphic" in2="effect2_dropShadow" result="shape"/>
</filter>
<filter id="filter9_dd" x="97" y="275" width="148.295" height="89.4577" filterUnits="userSpaceOnUse" color-interpolation-filters="sRGB">
<feFlood flood-opacity="0" result="BackgroundImageFix"/>
<feColorMatrix in="SourceAlpha" type="matrix" values="0 0 0 0 0 0 0 0 0 0 0 0 0 0 0 0 0 0 127 0"/>
<feOffset dy="2"/>
<feGaussianBlur stdDeviation="2"/>
<feColorMatrix type="matrix" values="0 0 0 0 0.376471 0 0 0 0 0.380392 0 0 0 0 0.439216 0 0 0 0.16 0"/>
<feBlend mode="normal" in2="BackgroundImageFix" result="effect1_dropShadow"/>
<feColorMatrix in="SourceAlpha" type="matrix" values="0 0 0 0 0 0 0 0 0 0 0 0 0 0 0 0 0 0 127 0"/>
<feOffset/>
<feGaussianBlur stdDeviation="0.5"/>
<feColorMatrix type="matrix" values="0 0 0 0 0.156863 0 0 0 0 0.160784 0 0 0 0 0.239216 0 0 0 0.04 0"/>
<feBlend mode="normal" in2="effect1_dropShadow" result="effect2_dropShadow"/>
<feBlend mode="normal" in="SourceGraphic" in2="effect2_dropShadow" result="shape"/>
</filter>
<linearGradient id="paint0_linear" x1="400" y1="368" x2="214.5" y2="370.5" gradientUnits="userSpaceOnUse">
<stop stop-color="#84F0BA" stop-opacity="0"/>
<stop offset="0.270833" stop-color="#84F0BA"/>
<stop offset="0.552083" stop-color="#84F0BA" stop-opacity="0"/>
</linearGradient>
<linearGradient id="paint1_linear" x1="326.048" y1="366.809" x2="856.232" y2="504.974" gradientUnits="userSpaceOnUse">
<stop stop-color="#8B90A4"/>
<stop offset="1" stop-color="#28293D"/>
</linearGradient>
<linearGradient id="paint2_linear" x1="730.22" y1="242.918" x2="407.267" y2="67.9291" gradientUnits="userSpaceOnUse">
<stop stop-color="#C7C8D1"/>
<stop offset="0.442708" stop-color="#DCDDE6"/>
<stop offset="1" stop-color="#E8E9F5"/>
</linearGradient>
<linearGradient id="paint3_linear" x1="-1.71206" y1="14.7061" x2="85.7481" y2="102.166" gradientUnits="userSpaceOnUse">
<stop stop-color="#868AC1"/>
<stop offset="1" stop-color="#28293D"/>
</linearGradient>
<linearGradient id="paint4_linear" x1="-4.99927" y1="2.07576" x2="-3.80859" y2="26.7081" gradientUnits="userSpaceOnUse">
<stop stop-color="#868AC1"/>
<stop offset="1" stop-color="#28293D"/>
</linearGradient>
<linearGradient id="paint5_linear" x1="-4.99927" y1="2.07576" x2="-3.80859" y2="26.7081" gradientUnits="userSpaceOnUse">
<stop stop-color="#868AC1"/>
<stop offset="1" stop-color="#28293D"/>
</linearGradient>
<linearGradient id="paint6_linear" x1="496.544" y1="-1.57939" x2="600.406" y2="116.851" gradientUnits="userSpaceOnUse">
<stop stop-color="#57EBA1"/>
<stop offset="1" stop-color="#F0FFF8"/>
</linearGradient>
<linearGradient id="paint7_linear" x1="535.49" y1="68.8924" x2="582.927" y2="151.056" gradientUnits="userSpaceOnUse">
<stop stop-color="#57EBA1"/>
<stop offset="1" stop-color="#57EBA1" stop-opacity="0.45"/>
</linearGradient>
<linearGradient id="paint8_linear" x1="549.863" y1="126.691" x2="577.172" y2="173.733" gradientUnits="userSpaceOnUse">
<stop stop-color="#DEFFEF"/>
<stop offset="1" stop-color="#1EFF93"/>
</linearGradient>
<linearGradient id="paint9_linear" x1="553.744" y1="133.763" x2="578.769" y2="177.109" gradientUnits="userSpaceOnUse">
<stop stop-color="#39D98A"/>
<stop offset="1" stop-color="#47FFA4" stop-opacity="0.42"/>
</linearGradient>
<linearGradient id="paint10_linear" x1="-0.36535" y1="12.5162" x2="83.3447" y2="23.3705" gradientUnits="userSpaceOnUse">
<stop stop-color="#E4E4EB"/>
<stop offset="1" stop-color="#EDF0F4"/>
</linearGradient>
<linearGradient id="paint11_linear" x1="411.4" y1="515.293" x2="437.003" y2="572.857" gradientUnits="userSpaceOnUse">
<stop stop-color="#E4E4EB"/>
<stop offset="1" stop-color="#EDF0F4"/>
</linearGradient>
<linearGradient id="paint12_linear" x1="198.4" y1="483.293" x2="224.003" y2="540.857" gradientUnits="userSpaceOnUse">
<stop stop-color="#E4E4EB"/>
<stop offset="1" stop-color="#EDF0F4"/>
</linearGradient>
<linearGradient id="paint13_linear" x1="165.4" y1="344.293" x2="191.003" y2="401.857" gradientUnits="userSpaceOnUse">
<stop stop-color="#E4E4EB"/>
<stop offset="1" stop-color="#EDF0F4"/>
</linearGradient>
<linearGradient id="paint14_linear" x1="175.62" y1="288" x2="175.62" y2="358.065" gradientUnits="userSpaceOnUse">
<stop stop-color="#39D98A"/>
<stop offset="1" stop-color="#47FFA4" stop-opacity="0.42"/>
</linearGradient>
<linearGradient id="paint15_linear" x1="195.508" y1="336.113" x2="213.134" y2="361.362" gradientUnits="userSpaceOnUse">
<stop stop-color="#39D98A"/>
<stop offset="1" stop-color="#47FFA4" stop-opacity="0"/>
</linearGradient>
<linearGradient id="paint16_linear" x1="151.681" y1="336.59" x2="135.008" y2="363.267" gradientUnits="userSpaceOnUse">
<stop stop-color="#39D98A"/>
<stop offset="1" stop-color="#47FFA4" stop-opacity="0"/>
</linearGradient>
<linearGradient id="paint17_linear" x1="-0.36535" y1="12.5162" x2="83.3447" y2="23.3705" gradientUnits="userSpaceOnUse">
<stop stop-color="#E4E4EB"/>
<stop offset="1" stop-color="#EDF0F4"/>
</linearGradient>
<clipPath id="clip0">
<rect width="11.9079" height="11.9079" fill="white" transform="matrix(0.866495 -0.500228 0.866495 0.500228 504.273 328.734)"/>
</clipPath>
<clipPath id="clip1">
<rect width="11.9079" height="11.9079" fill="white" transform="matrix(0.866495 -0.500227 0.866495 0.500227 449.273 292.734)"/>
</clipPath>
<clipPath id="clip2">
<rect width="40" height="40" fill="white" transform="matrix(0.859406 -0.511293 0 1 221 286.452)"/>
</clipPath>
</defs>
</svg>
