<svg width="362" height="208" viewBox="0 0 362 208" fill="none" xmlns="http://www.w3.org/2000/svg">
<mask id="mask0" mask-type="alpha" maskUnits="userSpaceOnUse" x="53" y="29" width="257" height="149">
<circle r="104.779" transform="matrix(0.866044 -0.499967 0.866044 0.499967 181.486 103.772)" fill="url(#paint0_radial)"/>
</mask>
<g mask="url(#mask0)">
<path opacity="0.15" d="M226.627 338.464L227.5 337.96L272.034 312.251L272.907 311.746L317.441 286.037L318.314 285.533L362.848 259.824L363.721 259.32L408.255 233.611L409.128 233.106L453.661 207.397L454.535 206.893L499.068 181.184L499.941 180.68L544.475 154.97L545.348 154.466L589.882 128.757L590.755 128.253L589.882 127.749L545.387 102.062L544.515 101.558L500.019 75.8712L499.147 75.3675L454.651 49.6803L453.779 49.1767L409.283 23.4894L408.411 22.9858L363.915 -2.70146L363.043 -3.20512L318.548 -28.8923L317.675 -29.396L273.18 -55.0832L272.307 -55.5869L227.812 -81.2741L226.939 -81.7778L182.444 -107.465L181.571 -107.969L180.698 -107.465L45.3509 -29.3286L44.4777 -28.8245L-90.8695 49.3114L-91.7427 49.8155L-227.963 128.456L-91.8594 207.028L-90.987 207.532L44.2443 285.601L45.1168 286.105L180.348 364.174L181.22 364.677L182.094 364.173L226.627 338.464ZM137.037 -81.2517L181.571 -106.961L226.066 -81.2737L181.532 -55.5644L137.037 -81.2517ZM182.405 -55.0608L226.939 -80.77L271.434 -55.0828L226.9 -29.3735L182.405 -55.0608ZM227.773 -28.8699L272.306 -54.5791L316.802 -28.8919L272.268 -3.18266L227.773 -28.8699ZM273.141 -2.67898L317.674 -28.3882L362.17 -2.70102L317.636 23.0082L273.141 -2.67898ZM318.509 23.5119L363.042 -2.19736L407.538 23.4899L363.004 49.1991L318.509 23.5119ZM363.877 49.7028L408.41 23.9935L452.906 49.6808L408.372 75.39L363.877 49.7028ZM409.244 75.8937L453.778 50.1844L498.273 75.8716L453.74 101.581L409.244 75.8937ZM454.612 102.085L499.146 76.3753L543.641 102.063L499.108 127.772L454.612 102.085ZM499.98 128.275L544.514 102.566L589.009 128.253L544.476 153.963L499.98 128.275ZM91.6302 -55.0383L136.164 -80.7476L180.659 -55.0603L136.126 -29.3511L91.6302 -55.0383ZM136.998 -28.8474L181.532 -54.5567L226.027 -28.8694L181.494 -3.1602L136.998 -28.8474ZM182.366 -2.65653L226.9 -28.3658L271.395 -2.67856L226.861 23.0307L182.366 -2.65653ZM227.734 23.5344L272.268 -2.17488L316.763 23.5123L272.229 49.2216L227.734 23.5344ZM273.102 49.7252L317.635 24.016L362.131 49.7032L317.597 75.4125L273.102 49.7252ZM318.47 75.9161L363.003 50.2069L407.499 75.8941L362.965 101.603L318.47 75.9161ZM363.838 102.107L408.371 76.3978L452.867 102.085L408.333 127.794L363.838 102.107ZM409.206 128.298L453.739 102.589L498.235 128.276L453.701 153.985L409.206 128.298ZM454.573 154.489L499.107 128.78L543.602 154.467L499.069 180.176L454.573 154.489ZM46.2234 -28.825L90.757 -54.5342L135.252 -28.847L90.7188 -3.13774L46.2234 -28.825ZM91.5913 -2.63407L136.125 -28.3433L180.62 -2.6561L136.087 23.0531L91.5913 -2.63407ZM136.959 23.5568L181.493 -2.15243L225.988 23.5348L181.455 49.244L136.959 23.5568ZM182.327 49.7477L226.861 24.0385L271.356 49.7257L226.823 75.4349L182.327 49.7477ZM227.695 75.9386L272.229 50.2293L316.724 75.9166L272.19 101.626L227.695 75.9386ZM273.063 102.129L317.597 76.4202L362.092 102.107L317.558 127.817L273.063 102.129ZM318.431 128.32L362.964 102.611L407.46 128.298L362.926 154.008L318.431 128.32ZM363.799 154.511L408.332 128.802L452.828 154.489L408.294 180.198L363.799 154.511ZM409.167 180.702L453.7 154.993L498.196 180.68L453.662 206.389L409.167 180.702ZM0.816582 -2.61162L45.3502 -28.3209L89.8456 -2.63364L45.312 23.0756L0.816582 -2.61162ZM46.1845 23.5793L90.7181 -2.12997L135.214 23.5572L90.6799 49.2665L46.1845 23.5793ZM91.5524 49.7702L136.086 24.0609L180.581 49.7481L136.048 75.4574L91.5524 49.7702ZM136.92 75.9611L181.454 50.2518L225.949 75.939L181.416 101.648L136.92 75.9611ZM182.288 102.152L226.822 76.4427L271.317 102.13L226.784 127.839L182.288 102.152ZM227.656 128.343L272.19 102.634L316.685 128.321L272.152 154.03L227.656 128.343ZM273.024 154.534L317.558 128.824L362.053 154.512L317.519 180.221L273.024 154.534ZM318.392 180.725L362.926 155.015L407.421 180.703L362.887 206.412L318.392 180.725ZM363.76 206.915L408.293 181.206L452.789 206.893L408.255 232.603L363.76 206.915ZM-44.5902 23.6017L-0.0566411 -2.1075L44.4388 23.5797L-0.0947866 49.289L-44.5902 23.6017ZM0.777672 49.7926L45.3113 24.0834L89.8067 49.7706L45.2731 75.4798L0.777672 49.7926ZM46.1456 75.9835L90.6792 50.2743L135.175 75.9615L90.641 101.671L46.1456 75.9835ZM91.5135 102.174L136.047 76.4652L180.543 102.152L136.009 127.862L91.5135 102.174ZM136.881 128.365L181.415 102.656L225.91 128.343L181.377 154.053L136.881 128.365ZM182.249 154.556L226.783 128.847L271.278 154.534L226.745 180.243L182.249 154.556ZM227.617 180.747L272.151 155.038L316.646 180.725L272.113 206.434L227.617 180.747ZM272.985 206.938L317.519 181.229L362.014 206.916L317.481 232.625L272.985 206.938ZM318.353 233.129L362.887 207.42L407.382 233.107L362.848 258.816L318.353 233.129ZM-89.997 49.8151L-45.4634 24.1058L-0.967998 49.7931L-45.5016 75.5023L-89.997 49.8151ZM-44.6291 76.006L-0.0955395 50.2967L44.3999 75.984L-0.133696 101.693L-44.6291 76.006ZM0.738763 102.197L45.2724 76.4876L89.7678 102.175L45.2342 127.884L0.738763 102.197ZM46.1067 128.388L90.6403 102.679L135.136 128.366L90.6021 154.075L46.1067 128.388ZM91.4746 154.579L136.008 128.869L180.504 154.557L135.97 180.266L91.4746 154.579ZM136.842 180.77L181.376 155.06L225.872 180.748L181.338 206.457L136.842 180.77ZM182.21 206.96L226.744 181.251L271.239 206.938L226.706 232.648L182.21 206.96ZM227.578 233.151L272.112 207.442L316.607 233.129L272.074 258.839L227.578 233.151ZM272.946 259.342L317.48 233.633L361.975 259.32L317.442 285.029L272.946 259.342ZM-135.404 76.0284L-90.8702 50.3192L-46.3748 76.0064L-90.9084 101.716L-135.404 76.0284ZM-90.0359 102.219L-45.5023 76.5101L-1.0069 102.197L-45.5405 127.907L-90.0359 102.219ZM-44.668 128.41L-0.134437 102.701L44.361 128.388L-0.172602 154.097L-44.668 128.41ZM0.699863 154.601L45.2335 128.892L89.7289 154.579L45.1953 180.288L0.699863 154.601ZM46.0678 180.792L90.6014 155.083L135.097 180.77L90.5632 206.479L46.0678 180.792ZM91.4357 206.983L135.969 181.274L180.465 206.961L135.931 232.67L91.4357 206.983ZM136.804 233.174L181.337 207.465L225.833 233.152L181.299 258.861L136.804 233.174ZM182.171 259.365L226.705 233.655L271.201 259.343L226.667 285.052L182.171 259.365ZM227.539 285.556L272.073 259.846L316.568 285.534L272.035 311.243L227.539 285.556ZM-180.811 102.242L-136.277 76.5325L-91.7816 102.22L-136.315 127.929L-180.811 102.242ZM-135.443 128.433L-90.9092 102.723L-46.4137 128.411L-90.9473 154.12L-135.443 128.433ZM-90.0748 154.624L-45.5413 128.914L-1.04581 154.602L-45.5794 180.311L-90.0748 154.624ZM-44.7069 180.814L-0.173343 155.105L44.3221 180.792L-0.2115 206.502L-44.7069 180.814ZM0.660954 207.005L45.1946 181.296L89.69 206.983L45.1564 232.693L0.660954 207.005ZM46.0289 233.196L90.5625 207.487L135.058 233.174L90.5243 258.883L46.0289 233.196ZM91.3968 259.387L135.93 233.678L180.426 259.365L135.892 285.074L91.3968 259.387ZM136.765 285.578L181.298 259.869L225.794 285.556L181.26 311.265L136.765 285.578ZM182.133 311.769L226.666 286.06L271.162 311.747L226.628 337.456L182.133 311.769ZM-226.217 128.455L-181.684 102.746L-137.188 128.433L-181.722 154.142L-226.217 128.455ZM-180.85 154.646L-136.316 128.937L-91.8205 154.624L-136.354 180.333L-180.85 154.646ZM-135.482 180.837L-90.9481 155.128L-46.4526 180.815L-90.9862 206.524L-135.482 180.837ZM-90.1138 207.028L-45.5802 181.319L-1.08471 207.006L-45.6183 232.715L-90.1138 207.028ZM-44.7459 233.219L-0.212255 207.509L44.2832 233.197L-0.250412 258.906L-44.7459 233.219ZM0.622052 259.41L45.1557 233.7L89.6511 259.388L45.1175 285.097L0.622052 259.41ZM45.99 285.6L90.5236 259.891L135.019 285.578L90.4854 311.288L45.99 285.6ZM91.3579 311.791L135.891 286.082L180.387 311.769L135.853 337.479L91.3579 311.791ZM136.726 337.982L181.259 312.273L225.755 337.96L181.221 363.669L136.726 337.982Z" fill="#C7C9D9"/>
<path d="M-92.6925 154.624L-90.9461 153.616L-89.2012 154.623L-90.9476 155.631L-92.6925 154.624ZM-181.683 103.249L-179.937 102.241L-181.682 101.234L-183.428 102.242L-181.683 103.249ZM-45.5603 155.62L-43.8138 154.612L-45.5588 153.604L-47.3052 154.612L-45.5603 155.62ZM-136.315 129.44L-134.569 128.432L-136.314 127.425L-138.06 128.433L-136.315 129.44ZM-90.9282 129.429L-89.1817 128.421L-90.9267 127.413L-92.6731 128.422L-90.9282 129.429ZM-181.703 129.451L-179.956 128.443L-181.701 127.436L-183.448 128.444L-181.703 129.451ZM-136.354 181.844L-134.608 180.836L-136.353 179.829L-138.099 180.837L-136.354 181.844ZM-90.9671 181.833L-89.2206 180.825L-90.9656 179.818L-92.712 180.826L-90.9671 181.833ZM-181.721 153.638L-183.467 154.646L-181.722 155.654L-179.976 154.645L-181.721 153.638ZM-136.335 155.642L-134.589 154.634L-136.333 153.627L-138.08 154.635L-136.335 155.642ZM-90.8893 77.0247L-89.1428 76.0165L-90.8878 75.0091L-92.6342 76.0174L-90.8893 77.0247ZM-136.296 103.238L-134.55 102.23L-136.295 101.222L-138.041 102.231L-136.296 103.238ZM-45.5214 103.216L-43.7749 102.207L-45.5199 101.2L-47.2663 102.208L-45.5214 103.216ZM-0.153457 129.406L1.59295 128.398L-0.151963 127.391L-1.89838 128.399L-0.153457 129.406ZM-45.5408 129.418L-43.7944 128.409L-45.5393 127.402L-47.2857 128.41L-45.5408 129.418ZM-90.9087 103.227L-89.1623 102.219L-90.9072 101.211L-92.6536 102.219L-90.9087 103.227ZM-136.277 77.0359L-134.53 76.0277L-136.275 75.0204L-138.022 76.0286L-136.277 77.0359ZM-230.579 125.936L-231.452 126.44L-227.962 128.455L-231.455 130.471L-230.583 130.975L-227.09 128.959L-223.6 130.973L-222.727 130.469L-226.217 128.455L-222.724 126.438L-223.596 125.935L-227.089 127.951L-230.579 125.936ZM45.2728 76.991L47.0192 75.9828L45.2743 74.9755L43.5279 75.9837L45.2728 76.991ZM-45.463 24.6092L-43.7166 23.601L-45.4615 22.5937L-47.2079 23.6019L-45.463 24.6092ZM90.6601 76.9798L92.4066 75.9716L90.6616 74.9642L88.9152 75.9724L90.6601 76.9798ZM-0.0951154 50.8001L1.6513 49.7919L-0.0936269 48.7846L-1.84004 49.7928L-0.0951154 50.8001ZM45.2922 50.7889L47.0387 49.7807L45.2937 48.7733L43.5473 49.7816L45.2922 50.7889ZM-45.4825 50.8114L-43.736 49.8031L-45.481 48.7958L-47.2274 49.804L-45.4825 50.8114ZM-0.134022 103.204L1.6124 102.196L-0.132516 101.189L-1.87894 102.197L-0.134022 103.204ZM45.2533 103.193L46.9998 102.185L45.2548 101.178L43.5084 102.186L45.2533 103.193ZM-45.5004 74.9979L-47.2468 76.0061L-45.5019 77.0135L-43.7555 76.0053L-45.5004 74.9979ZM-0.114568 77.0022L1.63185 75.994L-0.113063 74.9867L-1.85949 75.9949L-0.114568 77.0022ZM45.3311 -1.61534L47.0776 -2.62355L45.3326 -3.63089L43.5862 -2.62268L45.3311 -1.61534ZM-0.0756651 24.598L1.67076 23.5898L-0.0741623 22.5825L-1.82059 23.5907L-0.0756651 24.598ZM90.699 24.5755L92.4455 23.5673L90.7005 22.56L88.9541 23.5682L90.699 24.5755ZM136.067 50.7664L137.813 49.7582L136.068 48.7509L134.322 49.7591L136.067 50.7664ZM90.6796 50.7777L92.426 49.7695L90.6811 48.7621L88.9346 49.7703L90.6796 50.7777ZM45.3117 24.5868L47.0581 23.5786L45.3132 22.5712L43.5667 23.5794L45.3117 24.5868ZM-0.0562253 -1.6041L1.6902 -2.61231L-0.0547211 -3.61966L-1.80114 -2.61145L-0.0562253 -1.6041ZM-94.3585 47.2962L-95.2317 47.8003L-91.7419 49.815L-95.2347 51.8314L-94.3623 52.3351L-90.8694 50.3187L-87.3796 52.3334L-86.5064 51.8293L-89.9962 49.8146L-86.5034 47.7982L-87.3759 47.2945L-90.8687 49.3109L-94.3585 47.2962ZM181.493 -1.64902L183.24 -2.65723L181.495 -3.66457L179.748 -2.65636L181.493 -1.64902ZM90.7574 -54.0308L92.5038 -55.039L90.7589 -56.0464L89.0125 -55.0381L90.7574 -54.0308ZM226.881 -1.66026L228.627 -2.66845L226.882 -3.67579L225.136 -2.6676L226.881 -1.66026ZM136.125 -27.8399L137.872 -28.8481L136.127 -29.8555L134.38 -28.8473L136.125 -27.8399ZM181.513 -27.8511L183.259 -28.8593L181.514 -29.8667L179.768 -28.8585L181.513 -27.8511ZM90.7379 -27.8287L92.4843 -28.8369L90.7394 -29.8442L88.993 -28.836L90.7379 -27.8287ZM136.086 24.5643L137.833 23.5561L136.088 22.5488L134.341 23.557L136.086 24.5643ZM181.474 24.5531L183.22 23.5449L181.475 22.5376L179.729 23.5457L181.474 24.5531ZM90.72 -3.64212L88.9735 -2.63391L90.7185 -1.62656L92.4649 -2.63477L90.72 -3.64212ZM136.106 -1.6378L137.852 -2.646L136.107 -3.65334L134.361 -2.64514L136.106 -1.6378ZM181.552 -80.2554L183.298 -81.2636L181.553 -82.2709L179.807 -81.2627L181.552 -80.2554ZM272.307 -54.0757L274.053 -55.0839L272.308 -56.0913L270.562 -55.0831L272.307 -54.0757ZM226.94 -82.2821L225.194 -81.2739L226.939 -80.2666L228.685 -81.2748L226.94 -82.2821ZM136.145 -54.042L137.891 -55.0502L136.146 -56.0576L134.4 -55.0494L136.145 -54.042ZM226.919 -54.0645L228.666 -55.0727L226.921 -56.08L225.175 -55.0718L226.919 -54.0645ZM272.287 -27.8736L274.034 -28.8818L272.289 -29.8891L270.542 -28.8809L272.287 -27.8736ZM226.9 -27.8624L228.646 -28.8706L226.901 -29.8779L225.155 -28.8697L226.9 -27.8624ZM181.532 -54.0533L183.278 -55.0615L181.534 -56.0688L179.787 -55.0606L181.532 -54.0533ZM136.164 -80.2441L137.911 -81.2524L136.166 -82.2597L134.419 -81.2515L136.164 -80.2441ZM181.572 -107.969L178.082 -109.984L177.209 -109.48L180.699 -107.465L177.206 -105.449L178.079 -104.945L181.571 -106.961L185.061 -104.947L185.934 -105.451L182.445 -107.465L185.937 -109.482L185.065 -109.986L181.572 -107.969ZM41.8619 -31.3438L40.9886 -30.8397L44.4785 -28.825L40.9857 -26.8086L41.8581 -26.3049L45.3509 -28.3213L48.8408 -26.3067L49.714 -26.8108L46.2242 -28.8254L49.717 -30.8419L48.8445 -31.3455L45.3517 -29.3291L41.8619 -31.3438ZM45.1561 234.204L46.9025 233.196L45.1576 232.188L43.4112 233.196L45.1561 234.204ZM-45.5797 181.822L-43.8333 180.814L-45.5782 179.806L-47.3246 180.815L-45.5797 181.822ZM90.5434 234.192L92.2898 233.184L90.5449 232.177L88.7985 233.185L90.5434 234.192ZM-0.211811 208.013L1.53461 207.005L-0.210323 205.997L-1.95674 207.005L-0.211811 208.013ZM45.1755 208.002L46.922 206.993L45.177 205.986L43.4306 206.994L45.1755 208.002ZM-45.5992 208.024L-43.8527 207.016L-45.5977 206.009L-47.3441 207.017L-45.5992 208.024ZM-0.250714 260.417L1.4957 259.409L-0.249228 258.402L-1.99564 259.41L-0.250714 260.417ZM45.1366 260.406L46.883 259.398L45.1381 258.39L43.3917 259.398L45.1366 260.406ZM-45.6171 232.211L-47.3635 233.219L-45.6186 234.226L-43.8722 233.218L-45.6171 232.211ZM-0.231255 234.215L1.51516 233.207L-0.22977 232.199L-1.97618 233.208L-0.231255 234.215ZM45.2144 155.597L46.9608 154.589L45.2159 153.582L43.4695 154.59L45.2144 155.597ZM-0.192364 181.811L1.55405 180.803L-0.190869 179.795L-1.93728 180.803L-0.192364 181.811ZM90.5823 181.788L92.3288 180.78L90.5838 179.773L88.8374 180.781L90.5823 181.788ZM135.95 207.979L137.697 206.971L135.952 205.964L134.205 206.972L135.95 207.979ZM90.5629 207.99L92.3093 206.982L90.5644 205.975L88.8179 206.983L90.5629 207.99ZM45.195 181.799L46.9414 180.791L45.1965 179.784L43.4501 180.792L45.195 181.799ZM-0.172922 155.609L1.5735 154.6L-0.171422 153.593L-1.91784 154.601L-0.172922 155.609ZM-94.4752 204.509L-95.3484 205.013L-91.8586 207.028L-95.3514 209.044L-94.479 209.548L-90.9861 207.531L-87.4963 209.546L-86.6231 209.042L-90.1129 207.027L-86.6201 205.011L-87.4926 204.507L-90.9854 206.524L-94.4752 204.509ZM181.376 155.564L183.123 154.555L181.378 153.548L179.632 154.556L181.376 155.564ZM90.6407 103.182L92.3871 102.174L90.6422 101.166L88.8958 102.175L90.6407 103.182ZM226.764 155.552L228.51 154.544L226.765 153.537L225.019 154.545L226.764 155.552ZM136.009 129.373L137.755 128.365L136.01 127.357L134.264 128.365L136.009 129.373ZM181.396 129.362L183.142 128.353L181.397 127.346L179.651 128.354L181.396 129.362ZM90.6212 129.384L92.3676 128.376L90.6227 127.368L88.8763 128.377L90.6212 129.384ZM135.97 181.777L137.716 180.769L135.971 179.761L134.225 180.77L135.97 181.777ZM181.357 181.766L183.103 180.758L181.359 179.75L179.612 180.758L181.357 181.766ZM90.6033 153.571L88.8568 154.579L90.6018 155.586L92.3482 154.578L90.6033 153.571ZM135.989 155.575L137.736 154.567L135.991 153.559L134.244 154.568L135.989 155.575ZM181.435 76.9573L183.181 75.9491L181.436 74.9418L179.69 75.95L181.435 76.9573ZM136.028 103.171L137.774 102.162L136.03 101.155L134.283 102.163L136.028 103.171ZM226.803 103.148L228.549 102.14L226.804 101.133L225.058 102.141L226.803 103.148ZM272.171 129.339L273.917 128.331L272.172 127.324L270.426 128.332L272.171 129.339ZM226.783 129.35L228.53 128.342L226.785 127.335L225.038 128.343L226.783 129.35ZM181.415 103.159L183.162 102.151L181.417 101.144L179.67 102.152L181.415 103.159ZM136.047 76.9686L137.794 75.9603L136.049 74.953L134.303 75.9612L136.047 76.9686ZM41.7452 125.869L40.872 126.373L44.3618 128.388L40.869 130.404L41.7414 130.908L45.2343 128.891L48.7241 130.906L49.5973 130.402L46.1075 128.387L49.6003 126.371L48.7278 125.867L45.235 127.884L41.7452 125.869ZM317.597 76.9236L319.343 75.9154L317.598 74.9081L315.852 75.9163L317.597 76.9236ZM226.861 24.5419L228.607 23.5337L226.863 22.5263L225.116 23.5345L226.861 24.5419ZM362.984 76.9124L364.731 75.9042L362.986 74.8969L361.239 75.9051L362.984 76.9124ZM272.229 50.7328L273.975 49.7245L272.23 48.7172L270.484 49.7254L272.229 50.7328ZM317.616 50.7215L319.363 49.7133L317.618 48.706L315.871 49.7142L317.616 50.7215ZM226.842 50.744L228.588 49.7358L226.843 48.7284L225.097 49.7366L226.842 50.744ZM272.19 103.137L273.936 102.129L272.192 101.121L270.445 102.13L272.19 103.137ZM317.577 103.126L319.324 102.118L317.579 101.11L315.832 102.118L317.577 103.126ZM226.824 74.9305L225.077 75.9388L226.822 76.9461L228.569 75.9379L226.824 74.9305ZM272.21 76.9349L273.956 75.9267L272.211 74.9193L270.465 75.9275L272.21 76.9349ZM317.655 -1.68272L319.402 -2.69091L317.657 -3.69826L315.91 -2.69006L317.655 -1.68272ZM408.41 24.4969L410.157 23.4888L408.412 22.4814L406.666 23.4896L408.41 24.4969ZM363.044 -3.70948L361.298 -2.70129L363.043 -1.69394L364.789 -2.70213L363.044 -3.70948ZM272.248 24.5306L273.995 23.5224L272.25 22.5151L270.503 23.5233L272.248 24.5306ZM363.023 24.5082L364.77 23.5L363.025 22.4926L361.278 23.5008L363.023 24.5082ZM408.391 50.6991L410.137 49.6909L408.392 48.6835L406.646 49.6917L408.391 50.6991ZM363.004 50.7103L364.75 49.7021L363.005 48.6947L361.259 49.7029L363.004 50.7103ZM317.636 24.5194L319.382 23.5112L317.637 22.5039L315.891 23.5121L317.636 24.5194ZM272.268 -1.67148L274.014 -2.67969L272.269 -3.68703L270.523 -2.67882L272.268 -1.67148ZM314.186 -31.4112L313.313 -30.9071L316.803 -28.8924L313.31 -26.876L314.182 -26.3723L317.675 -28.3887L321.165 -26.374L322.038 -26.8781L318.548 -28.8928L322.041 -30.9092L321.169 -31.4129L317.676 -29.3965L314.186 -31.4112ZM177.966 47.2289L177.092 47.733L180.582 49.7477L177.089 51.7641L177.962 52.2677L181.455 50.2513L184.944 52.266L185.818 51.7619L182.328 49.7472L185.821 47.7308L184.948 47.2271L181.455 49.2435L177.966 47.2289ZM226.628 338.967L228.374 337.959L226.629 336.952L224.883 337.96L226.628 338.967ZM181.26 312.776L183.006 311.768L181.261 310.761L179.515 311.769L181.26 312.776ZM90.524 260.395L92.2704 259.386L90.5255 258.379L88.7791 259.387L90.524 260.395ZM226.647 312.765L228.394 311.757L226.649 310.75L224.902 311.758L226.647 312.765ZM135.892 286.585L137.638 285.577L135.893 284.57L134.147 285.578L135.892 286.585ZM181.279 286.574L183.026 285.566L181.281 284.559L179.534 285.567L181.279 286.574ZM90.5045 286.597L92.2509 285.589L90.506 284.581L88.7596 285.589L90.5045 286.597ZM135.853 338.99L137.599 337.982L135.854 336.974L134.108 337.982L135.853 338.99ZM181.24 338.979L182.987 337.97L181.242 336.963L179.495 337.971L181.24 338.979ZM90.4866 310.783L88.7402 311.792L90.4851 312.799L92.2315 311.791L90.4866 310.783ZM135.872 312.788L137.619 311.779L135.874 310.772L134.128 311.78L135.872 312.788ZM181.318 234.17L183.065 233.162L181.32 232.154L179.573 233.163L181.318 234.17ZM135.911 260.383L137.658 259.375L135.913 258.368L134.166 259.376L135.911 260.383ZM226.686 260.361L228.432 259.353L226.688 258.345L224.941 259.354L226.686 260.361ZM272.054 286.552L273.8 285.544L272.055 284.536L270.309 285.544L272.054 286.552ZM272.034 312.754L273.781 311.746L272.036 310.738L270.29 311.747L272.034 312.754ZM226.667 286.563L228.413 285.555L226.668 284.547L224.922 285.556L226.667 286.563ZM181.299 260.372L183.045 259.364L181.3 258.357L179.554 259.365L181.299 260.372ZM135.931 234.181L137.677 233.173L135.932 232.166L134.186 233.174L135.931 234.181ZM41.6285 283.082L40.7553 283.586L44.2451 285.6L40.7523 287.617L41.6247 288.12L45.1176 286.104L48.6074 288.119L49.4806 287.615L45.9908 285.6L49.4836 283.584L48.6111 283.08L45.1183 285.096L41.6285 283.082ZM177.732 361.654L176.859 362.158L180.349 364.173L176.856 366.189L177.728 366.693L181.221 364.677L184.711 366.691L185.584 366.187L182.094 364.173L185.587 362.156L184.715 361.653L181.222 363.669L177.732 361.654ZM362.848 260.327L364.594 259.319L362.85 258.312L361.103 259.32L362.848 260.327ZM317.48 234.136L319.227 233.128L317.482 232.121L315.735 233.129L317.48 234.136ZM226.744 181.755L228.491 180.746L226.746 179.739L224.999 180.747L226.744 181.755ZM362.868 234.125L364.614 233.117L362.869 232.11L361.123 233.118L362.868 234.125ZM272.112 207.945L273.859 206.937L272.114 205.93L270.367 206.938L272.112 207.945ZM317.5 207.934L319.246 206.926L317.501 205.919L315.755 206.927L317.5 207.934ZM226.725 207.957L228.471 206.948L226.726 205.941L224.98 206.949L226.725 207.957ZM272.073 260.35L273.82 259.341L272.075 258.334L270.328 259.342L272.073 260.35ZM317.461 260.338L319.207 259.33L317.462 258.323L315.716 259.331L317.461 260.338ZM226.707 232.143L224.961 233.151L226.705 234.159L228.452 233.151L226.707 232.143ZM272.093 234.148L273.839 233.139L272.094 232.132L270.348 233.14L272.093 234.148ZM317.539 155.53L319.285 154.522L317.54 153.514L315.794 154.523L317.539 155.53ZM272.132 181.743L273.878 180.735L272.133 179.728L270.387 180.736L272.132 181.743ZM362.906 181.721L364.653 180.713L362.908 179.705L361.161 180.714L362.906 181.721ZM408.274 207.912L410.021 206.904L408.276 205.896L406.529 206.904L408.274 207.912ZM408.255 234.114L410.001 233.106L408.256 232.098L406.51 233.107L408.255 234.114ZM362.887 207.923L364.633 206.915L362.888 205.907L361.142 206.916L362.887 207.923ZM317.519 181.732L319.265 180.724L317.521 179.717L315.774 180.725L317.519 181.732ZM272.151 155.541L273.898 154.533L272.153 153.526L270.406 154.534L272.151 155.541ZM177.849 204.442L176.976 204.946L180.465 206.96L176.973 208.977L177.845 209.48L181.338 207.464L184.828 209.479L185.701 208.975L182.211 206.96L185.704 204.944L184.832 204.44L181.339 206.456L177.849 204.442ZM313.953 283.014L313.079 283.518L316.569 285.533L313.076 287.549L313.949 288.053L317.442 286.037L320.931 288.051L321.805 287.547L318.315 285.533L321.808 283.516L320.935 283.012L317.442 285.029L313.953 283.014ZM499.068 181.687L500.815 180.679L499.07 179.672L497.324 180.68L499.068 181.687ZM453.701 155.496L455.447 154.488L453.702 153.481L451.956 154.489L453.701 155.496ZM362.965 103.115L364.711 102.106L362.966 101.099L361.22 102.107L362.965 103.115ZM499.088 155.485L500.834 154.477L499.089 153.47L497.343 154.478L499.088 155.485ZM408.333 129.305L410.079 128.297L408.334 127.29L406.588 128.298L408.333 129.305ZM453.72 129.294L455.466 128.286L453.721 127.279L451.975 128.287L453.72 129.294ZM362.945 129.317L364.692 128.308L362.947 127.301L361.2 128.309L362.945 129.317ZM408.294 181.71L410.04 180.701L408.295 179.694L406.549 180.702L408.294 181.71ZM453.681 181.698L455.428 180.69L453.683 179.683L451.936 180.691L453.681 181.698ZM362.927 153.503L361.181 154.511L362.926 155.519L364.672 154.511L362.927 153.503ZM408.313 155.508L410.06 154.499L408.315 153.492L406.568 154.5L408.313 155.508ZM453.759 76.89L455.505 75.8818L453.76 74.8744L452.014 75.8826L453.759 76.89ZM544.514 103.07L546.261 102.061L544.516 101.054L542.769 102.062L544.514 103.07ZM499.148 74.8632L497.401 75.8714L499.146 76.8787L500.893 75.8705L499.148 74.8632ZM408.352 103.103L410.099 102.095L408.354 101.088L406.607 102.096L408.352 103.103ZM499.127 103.081L500.873 102.073L499.128 101.065L497.382 102.073L499.127 103.081ZM544.495 129.272L546.241 128.264L544.496 127.256L542.75 128.264L544.495 129.272ZM544.475 155.474L546.222 154.466L544.477 153.458L542.73 154.467L544.475 155.474ZM499.107 129.283L500.854 128.275L499.109 127.267L497.362 128.276L499.107 129.283ZM453.739 103.092L455.486 102.084L453.741 101.077L451.995 102.085L453.739 103.092ZM408.372 76.9012L410.118 75.893L408.373 74.8856L406.627 75.8938L408.372 76.9012ZM586.393 125.734L585.52 126.238L589.01 128.253L585.517 130.269L586.39 130.773L589.882 128.757L593.372 130.771L594.245 130.267L590.756 128.252L594.248 126.236L593.376 125.732L589.883 127.749L586.393 125.734ZM450.29 47.1615L449.416 47.6656L452.906 49.6803L449.413 51.6967L450.286 52.2004L453.779 50.1839L457.269 52.1986L458.142 51.6945L454.652 49.6798L458.145 47.6635L457.272 47.1598L453.779 49.1762L450.29 47.1615ZM314.069 125.802L313.196 126.306L316.686 128.32L313.193 130.337L314.065 130.84L317.558 128.824L321.048 130.839L321.921 130.335L318.432 128.32L321.924 126.303L321.052 125.8L317.559 127.816L314.069 125.802ZM450.173 204.374L449.3 204.878L452.79 206.893L449.297 208.909L450.169 209.413L453.662 207.397L457.152 209.411L458.025 208.907L454.535 206.893L458.028 204.876L457.156 204.372L453.663 206.389L450.173 204.374Z" fill="#C7C9D9"/>
<g filter="url(#filter0_dd)">
<rect width="84.0609" height="84.0609" rx="18" transform="matrix(0.866045 0.499967 -0.866045 0.499967 181.856 61.6741)" fill="url(#paint1_linear)"/>
<rect width="84.0609" height="84.0609" rx="18" transform="matrix(0.866044 0.499967 -0.866044 0.499967 181.856 59)" fill="white"/>
</g>
</g>
<circle cx="180" cy="70" r="44" fill="#E3FFF1"/>
<path fill-rule="evenodd" clip-rule="evenodd" d="M199.75 47H162.25C158.798 47 156 50.156 156 54.05V86.95C156 90.8439 158.798 94 162.25 94H199.75C203.202 94 206 90.8439 206 86.95V54.05C206 50.156 203.202 47 199.75 47Z" fill="url(#paint2_linear)"/>
<g opacity="0.75" filter="url(#filter1_dd)">
<path fill-rule="evenodd" clip-rule="evenodd" d="M219.75 34H182.25C178.798 34 176 37.156 176 41.05V73.95C176 77.8439 178.798 81 182.25 81H219.75C223.202 81 226 77.8439 226 73.95V41.05C226 37.156 223.202 34 219.75 34Z" fill="#376C66"/>
</g>
<path fill-rule="evenodd" clip-rule="evenodd" d="M190.375 59.375H210.625V57.125H190.375V59.375ZM212.875 61.625V67.25C212.875 67.8704 212.37 68.375 211.75 68.375H209.5V60.5H211.75C212.37 60.5 212.875 61.0046 212.875 61.625ZM203.875 68.375H208.375V60.5H203.875V68.375ZM188.125 67.25V61.625C188.125 61.0046 188.63 60.5 189.25 60.5H202.75V68.375H189.25C188.63 68.375 188.125 67.8704 188.125 67.25ZM188.125 54.875V49.25C188.125 48.6296 188.63 48.125 189.25 48.125H202.75V56H189.25C188.63 56 188.125 55.4954 188.125 54.875ZM203.875 56H208.375V48.125H203.875V56ZM212.875 49.25V54.875C212.875 55.4954 212.37 56 211.75 56H209.5V48.125H211.75C212.37 48.125 212.875 48.6296 212.875 49.25ZM214 54.875V49.25C214 48.0074 212.993 47 211.75 47H189.25C188.007 47 187 48.0074 187 49.25V54.875C187 56.1176 188.007 57.125 189.25 57.125V59.375C188.007 59.375 187 60.3824 187 61.625V67.25C187 68.4926 188.007 69.5 189.25 69.5H211.75C212.993 69.5 214 68.4926 214 67.25V61.625C214 60.3824 212.993 59.375 211.75 59.375V57.125C212.993 57.125 214 56.1176 214 54.875ZM191.5 53.1875C192.122 53.1875 192.625 52.6841 192.625 52.0625C192.625 51.4409 192.122 50.9375 191.5 50.9375C190.878 50.9375 190.375 51.4409 190.375 52.0625C190.375 52.6841 190.878 53.1875 191.5 53.1875ZM194.875 53.1875C195.497 53.1875 196 52.6841 196 52.0625C196 51.4409 195.497 50.9375 194.875 50.9375C194.253 50.9375 193.75 51.4409 193.75 52.0625C193.75 52.6841 194.253 53.1875 194.875 53.1875ZM194.875 63.3125C194.253 63.3125 193.75 63.8159 193.75 64.4375C193.75 65.0591 194.253 65.5625 194.875 65.5625C195.497 65.5625 196 65.0591 196 64.4375C196 63.8159 195.497 63.3125 194.875 63.3125ZM191.5 63.3125C190.878 63.3125 190.375 63.8159 190.375 64.4375C190.375 65.0591 190.878 65.5625 191.5 65.5625C192.122 65.5625 192.625 65.0591 192.625 64.4375C192.625 63.8159 192.122 63.3125 191.5 63.3125Z" fill="white"/>
<defs>
<filter id="filter0_dd" x="114.187" y="62.2717" width="135.337" height="84.1859" filterUnits="userSpaceOnUse" color-interpolation-filters="sRGB">
<feFlood flood-opacity="0" result="BackgroundImageFix"/>
<feColorMatrix in="SourceAlpha" type="matrix" values="0 0 0 0 0 0 0 0 0 0 0 0 0 0 0 0 0 0 127 0"/>
<feOffset dy="2"/>
<feGaussianBlur stdDeviation="2"/>
<feColorMatrix type="matrix" values="0 0 0 0 0.376471 0 0 0 0 0.380392 0 0 0 0 0.439216 0 0 0 0.16 0"/>
<feBlend mode="normal" in2="BackgroundImageFix" result="effect1_dropShadow"/>
<feColorMatrix in="SourceAlpha" type="matrix" values="0 0 0 0 0 0 0 0 0 0 0 0 0 0 0 0 0 0 127 0"/>
<feOffset/>
<feGaussianBlur stdDeviation="0.5"/>
<feColorMatrix type="matrix" values="0 0 0 0 0.156863 0 0 0 0 0.160784 0 0 0 0 0.239216 0 0 0 0.04 0"/>
<feBlend mode="normal" in2="effect1_dropShadow" result="effect2_dropShadow"/>
<feBlend mode="normal" in="SourceGraphic" in2="effect2_dropShadow" result="shape"/>
</filter>
<filter id="filter1_dd" x="172" y="32" width="58" height="55" filterUnits="userSpaceOnUse" color-interpolation-filters="sRGB">
<feFlood flood-opacity="0" result="BackgroundImageFix"/>
<feColorMatrix in="SourceAlpha" type="matrix" values="0 0 0 0 0 0 0 0 0 0 0 0 0 0 0 0 0 0 127 0"/>
<feOffset dy="2"/>
<feGaussianBlur stdDeviation="2"/>
<feColorMatrix type="matrix" values="0 0 0 0 0.376471 0 0 0 0 0.380392 0 0 0 0 0.439216 0 0 0 0.16 0"/>
<feBlend mode="normal" in2="BackgroundImageFix" result="effect1_dropShadow"/>
<feColorMatrix in="SourceAlpha" type="matrix" values="0 0 0 0 0 0 0 0 0 0 0 0 0 0 0 0 0 0 127 0"/>
<feOffset/>
<feGaussianBlur stdDeviation="0.5"/>
<feColorMatrix type="matrix" values="0 0 0 0 0.156863 0 0 0 0 0.160784 0 0 0 0 0.239216 0 0 0 0.04 0"/>
<feBlend mode="normal" in2="effect1_dropShadow" result="effect2_dropShadow"/>
<feBlend mode="normal" in="SourceGraphic" in2="effect2_dropShadow" result="shape"/>
</filter>
<radialGradient id="paint0_radial" cx="0" cy="0" r="1" gradientUnits="userSpaceOnUse" gradientTransform="translate(111.685 100.761) rotate(93.632) scale(109.016 102.123)">
<stop offset="0.744792" stop-color="#C4C4C4"/>
<stop offset="1" stop-color="#C4C4C4" stop-opacity="0"/>
</radialGradient>
<linearGradient id="paint1_linear" x1="-0.383015" y1="13.1213" x2="87.3745" y2="24.5005" gradientUnits="userSpaceOnUse">
<stop stop-color="#E4E4EB"/>
<stop offset="1" stop-color="#EDF0F4"/>
</linearGradient>
<linearGradient id="paint2_linear" x1="181" y1="47" x2="181" y2="94" gradientUnits="userSpaceOnUse">
<stop stop-color="#3BC882" stop-opacity="0"/>
<stop offset="1" stop-color="#3BC882"/>
</linearGradient>
</defs>
</svg>
