<svg width="1051" height="886" viewBox="0 0 1051 886" fill="none" xmlns="http://www.w3.org/2000/svg">
<g filter="url(#filter0_dd)">
<g filter="url(#filter1_b)">
<path fill-rule="evenodd" clip-rule="evenodd" d="M255.94 587.5L905.94 647L905.94 651.646C905.94 653.145 904.919 654.584 903.097 655.652L640.03 809.854C636.162 812.121 629.83 812.126 625.952 809.864L258.8 595.658C256.968 594.589 255.94 593.146 255.94 591.642L255.94 587.5Z" fill="url(#paint0_linear)"/>
</g>
<g filter="url(#filter2_b)">
<path fill-rule="evenodd" clip-rule="evenodd" d="M521.907 432.078C525.77 429.848 532.033 429.848 535.895 432.078L902.967 643.989C906.829 646.219 906.829 649.834 902.967 652.064L639.82 803.978C635.958 806.208 629.695 806.208 625.833 803.978L258.761 592.068C254.898 589.838 254.898 586.222 258.761 583.993L521.907 432.078Z" fill="#28293D"/>
</g>
<g opacity="0.45">
<mask id="mask0" mask-type="alpha" maskUnits="userSpaceOnUse" x="324" y="485" width="472" height="273">
<ellipse rx="166.045" ry="215.299" transform="matrix(0.86551 -0.499659 0.86551 0.499659 559.997 621.542)" fill="url(#paint1_radial)"/>
</mask>
<g mask="url(#mask0)">
<path opacity="0.15" d="M629.063 825.598L629.936 825.094L674.469 799.384L675.343 798.88L719.876 773.171L720.749 772.667L765.283 746.958L766.156 746.454L810.69 720.744L811.563 720.24L856.097 694.531L856.97 694.027L901.503 668.318L902.377 667.813L946.91 642.104L947.783 641.6L992.317 615.891L993.19 615.387L992.318 614.883L947.822 589.196L946.95 588.692L902.454 563.005L901.582 562.501L857.086 536.814L856.214 536.31L811.719 510.623L810.846 510.12L766.351 484.432L765.478 483.929L720.983 458.241L720.11 457.738L675.615 432.051L674.742 431.547L630.247 405.86L629.374 405.356L584.879 379.669L584.007 379.165L583.133 379.669L447.786 457.805L446.913 458.309L311.566 536.445L310.693 536.949L174.472 615.589L310.576 694.162L311.448 694.666L446.68 772.735L447.552 773.238L582.783 851.307L583.656 851.811L584.529 851.307L629.063 825.598ZM539.472 405.882L584.006 380.173L628.501 405.86L583.968 431.569L539.472 405.882ZM584.84 432.073L629.374 406.364L673.869 432.051L629.336 457.76L584.84 432.073ZM630.208 458.264L674.742 432.555L719.237 458.242L674.703 483.951L630.208 458.264ZM675.576 484.455L720.11 458.746L764.605 484.433L720.071 510.142L675.576 484.455ZM720.944 510.646L765.477 484.936L809.973 510.624L765.439 536.333L720.944 510.646ZM766.312 536.837L810.845 511.127L855.341 536.815L810.807 562.524L766.312 536.837ZM811.68 563.027L856.213 537.318L900.709 563.005L856.175 588.715L811.68 563.027ZM857.048 589.218L901.581 563.509L946.077 589.196L901.543 614.906L857.048 589.218ZM902.415 615.409L946.949 589.7L991.445 615.387L946.911 641.096L902.415 615.409ZM494.065 432.095L538.599 406.386L583.094 432.073L538.561 457.783L494.065 432.095ZM539.433 458.286L583.967 432.577L628.462 458.264L583.929 483.974L539.433 458.286ZM584.801 484.477L629.335 458.768L673.83 484.455L629.297 510.164L584.801 484.477ZM630.169 510.668L674.703 484.959L719.198 510.646L674.665 536.355L630.169 510.668ZM675.537 536.859L720.071 511.15L764.566 536.837L720.033 562.546L675.537 536.859ZM720.905 563.05L765.439 537.341L809.934 563.028L765.4 588.737L720.905 563.05ZM766.273 589.241L810.806 563.532L855.302 589.219L810.768 614.928L766.273 589.241ZM811.641 615.432L856.174 589.722L900.67 615.41L856.136 641.119L811.641 615.432ZM857.009 641.623L901.542 615.913L946.038 641.601L901.504 667.31L857.009 641.623ZM448.659 458.309L493.192 432.6L537.688 458.287L493.154 483.996L448.659 458.309ZM494.027 484.5L538.56 458.79L583.056 484.478L538.522 510.187L494.027 484.5ZM539.394 510.691L583.928 484.981L628.423 510.669L583.89 536.378L539.394 510.691ZM584.762 536.882L629.296 511.172L673.791 536.859L629.258 562.569L584.762 536.882ZM630.13 563.072L674.664 537.363L719.159 563.05L674.626 588.76L630.13 563.072ZM675.498 589.263L720.032 563.554L764.527 589.241L719.994 614.951L675.498 589.263ZM720.866 615.454L765.4 589.745L809.895 615.432L765.361 641.141L720.866 615.454ZM766.234 641.645L810.768 615.936L855.263 641.623L810.729 667.332L766.234 641.645ZM811.602 667.836L856.135 642.127L900.631 667.814L856.097 693.523L811.602 667.836ZM403.252 484.522L447.785 458.813L492.281 484.5L447.747 510.209L403.252 484.522ZM448.62 510.713L493.153 485.004L537.649 510.691L493.115 536.4L448.62 510.713ZM493.988 536.904L538.521 511.195L583.017 536.882L538.483 562.591L493.988 536.904ZM539.356 563.095L583.889 537.386L628.385 563.073L583.851 588.782L539.356 563.095ZM584.723 589.286L629.257 563.576L673.753 589.264L629.219 614.973L584.723 589.286ZM630.091 615.477L674.625 589.767L719.12 615.455L674.587 641.164L630.091 615.477ZM675.459 641.668L719.993 615.958L764.488 641.645L719.955 667.355L675.459 641.668ZM720.827 667.858L765.361 642.149L809.856 667.836L765.323 693.546L720.827 667.858ZM766.195 694.049L810.729 668.34L855.224 694.027L810.691 719.737L766.195 694.049ZM357.845 510.736L402.379 485.026L446.874 510.714L402.34 536.423L357.845 510.736ZM403.213 536.926L447.747 511.217L492.242 536.904L447.708 562.614L403.213 536.926ZM448.581 563.117L493.114 537.408L537.61 563.095L493.076 588.805L448.581 563.117ZM493.949 589.308L538.482 563.599L582.978 589.286L538.444 614.995L493.949 589.308ZM539.317 615.499L583.85 589.79L628.346 615.477L583.812 641.186L539.317 615.499ZM584.685 641.69L629.218 615.981L673.714 641.668L629.18 667.377L584.685 641.69ZM630.052 667.881L674.586 642.172L719.081 667.859L674.548 693.568L630.052 667.881ZM675.42 694.072L719.954 668.363L764.449 694.05L719.916 719.759L675.42 694.072ZM720.788 720.263L765.322 694.553L809.817 720.241L765.284 745.95L720.788 720.263ZM312.438 536.949L356.972 511.24L401.467 536.927L356.934 562.636L312.438 536.949ZM357.806 563.14L402.34 537.431L446.835 563.118L402.302 588.827L357.806 563.14ZM403.174 589.331L447.708 563.621L492.203 589.309L447.669 615.018L403.174 589.331ZM448.542 615.522L493.076 589.812L537.571 615.5L493.037 641.209L448.542 615.522ZM493.91 641.712L538.443 616.003L582.939 641.69L538.405 667.4L493.91 641.712ZM539.278 667.903L583.811 642.194L628.307 667.881L583.773 693.591L539.278 667.903ZM584.646 694.094L629.179 668.385L673.675 694.072L629.141 719.781L584.646 694.094ZM630.014 720.285L674.547 694.576L719.043 720.263L674.509 745.972L630.014 720.285ZM675.381 746.476L719.915 720.767L764.411 746.454L719.877 772.163L675.381 746.476ZM267.031 563.162L311.565 537.453L356.06 563.14L311.527 588.849L267.031 563.162ZM312.399 589.353L356.933 563.644L401.428 589.331L356.895 615.04L312.399 589.353ZM357.767 615.544L402.301 589.835L446.796 615.522L402.263 641.231L357.767 615.544ZM403.135 641.735L447.669 616.026L492.164 641.713L447.631 667.422L403.135 641.735ZM448.503 667.926L493.037 642.217L537.532 667.904L492.998 693.613L448.503 667.926ZM493.871 694.117L538.405 668.407L582.9 694.095L538.366 719.804L493.871 694.117ZM539.239 720.308L583.772 694.598L628.268 720.286L583.734 745.995L539.239 720.308ZM584.607 746.498L629.14 720.789L673.636 746.476L629.102 772.186L584.607 746.498ZM629.975 772.689L674.508 746.98L719.004 772.667L674.47 798.377L629.975 772.689ZM221.625 589.376L266.158 563.666L310.654 589.354L266.12 615.063L221.625 589.376ZM266.993 615.566L311.526 589.857L356.022 615.544L311.488 641.254L266.993 615.566ZM312.36 641.757L356.894 616.048L401.389 641.735L356.856 667.445L312.36 641.757ZM357.728 667.948L402.262 642.239L446.757 667.926L402.224 693.635L357.728 667.948ZM403.096 694.139L447.63 668.43L492.125 694.117L447.592 719.826L403.096 694.139ZM448.464 720.33L492.998 694.621L537.493 720.308L492.96 746.017L448.464 720.33ZM493.832 746.521L538.366 720.812L582.861 746.499L538.327 772.208L493.832 746.521ZM539.2 772.712L583.734 747.003L628.229 772.69L583.695 798.399L539.2 772.712ZM584.568 798.903L629.101 773.193L673.597 798.881L629.063 824.59L584.568 798.903ZM176.218 615.589L220.751 589.88L265.247 615.567L220.713 641.276L176.218 615.589ZM221.586 641.78L266.119 616.071L310.615 641.758L266.081 667.467L221.586 641.78ZM266.954 667.971L311.487 642.261L355.983 667.949L311.449 693.658L266.954 667.971ZM312.322 694.162L356.855 668.452L401.351 694.14L356.817 719.849L312.322 694.162ZM357.689 720.352L402.223 694.643L446.718 720.33L402.185 746.04L357.689 720.352ZM403.057 746.543L447.591 720.834L492.086 746.521L447.553 772.231L403.057 746.543ZM448.425 772.734L492.959 747.025L537.454 772.712L492.921 798.421L448.425 772.734ZM493.793 798.925L538.327 773.216L582.822 798.903L538.289 824.612L493.793 798.925ZM539.161 825.116L583.695 799.407L628.19 825.094L583.656 850.803L539.161 825.116Z" fill="#8F90A6"/>
<path d="M309.743 641.757L311.489 640.749L313.234 641.756L311.488 642.765L309.743 641.757ZM220.752 590.383L222.498 589.375L220.753 588.367L219.007 589.375L220.752 590.383ZM356.875 642.753L358.621 641.745L356.876 640.738L355.13 641.746L356.875 642.753ZM266.12 616.574L267.866 615.565L266.121 614.558L264.375 615.566L266.12 616.574ZM311.507 616.562L313.253 615.554L311.509 614.547L309.762 615.555L311.507 616.562ZM220.732 616.585L222.479 615.577L220.734 614.569L218.987 615.578L220.732 616.585ZM266.081 668.978L267.827 667.97L266.082 666.962L264.336 667.971L266.081 668.978ZM311.468 668.967L313.215 667.958L311.47 666.951L309.723 667.959L311.468 668.967ZM220.714 640.771L218.968 641.78L220.713 642.787L222.459 641.779L220.714 640.771ZM266.1 642.776L267.847 641.768L266.102 640.76L264.355 641.768L266.1 642.776ZM311.546 564.158L313.292 563.15L311.547 562.143L309.801 563.151L311.546 564.158ZM266.139 590.372L267.886 589.363L266.141 588.356L264.394 589.364L266.139 590.372ZM356.914 590.349L358.66 589.341L356.915 588.334L355.169 589.342L356.914 590.349ZM402.282 616.54L404.028 615.532L402.283 614.524L400.537 615.533L402.282 616.54ZM356.894 616.551L358.641 615.543L356.896 614.536L355.149 615.544L356.894 616.551ZM311.527 590.36L313.273 589.352L311.528 588.345L309.782 589.353L311.527 590.36ZM266.159 564.169L267.905 563.161L266.16 562.154L264.414 563.162L266.159 564.169ZM171.856 613.07L170.983 613.574L174.473 615.589L170.98 617.605L171.853 618.109L175.345 616.092L178.835 618.107L179.708 617.603L176.219 615.588L179.711 613.572L178.839 613.068L175.346 615.085L171.856 613.07ZM447.708 564.125L449.454 563.116L447.709 562.109L445.963 563.117L447.708 564.125ZM356.972 511.743L358.719 510.735L356.974 509.727L355.227 510.735L356.972 511.743ZM493.095 564.113L494.842 563.105L493.097 562.098L491.35 563.106L493.095 564.113ZM402.34 537.934L404.087 536.925L402.342 535.918L400.595 536.926L402.34 537.934ZM447.727 537.922L449.474 536.914L447.729 535.907L445.983 536.915L447.727 537.922ZM356.953 537.945L358.699 536.937L356.954 535.929L355.208 536.938L356.953 537.945ZM402.301 590.338L404.048 589.33L402.303 588.322L400.556 589.331L402.301 590.338ZM447.689 590.327L449.435 589.318L447.69 588.311L445.944 589.319L447.689 590.327ZM356.935 562.131L355.188 563.14L356.933 564.147L358.68 563.139L356.935 562.131ZM402.321 564.136L404.067 563.128L402.322 562.12L400.576 563.128L402.321 564.136ZM447.766 485.518L449.513 484.51L447.768 483.503L446.021 484.511L447.766 485.518ZM402.36 511.732L404.106 510.723L402.361 509.716L400.615 510.724L402.36 511.732ZM493.134 511.709L494.881 510.701L493.136 509.694L491.389 510.702L493.134 511.709ZM538.502 537.9L540.249 536.892L538.504 535.884L536.757 536.893L538.502 537.9ZM493.115 537.911L494.861 536.903L493.116 535.896L491.37 536.904L493.115 537.911ZM447.747 511.72L449.493 510.712L447.748 509.705L446.002 510.713L447.747 511.72ZM402.379 485.529L404.125 484.521L402.38 483.514L400.634 484.522L402.379 485.529ZM308.077 534.43L307.203 534.934L310.693 536.949L307.2 538.965L308.073 539.469L311.566 537.452L315.056 539.467L315.929 538.963L312.439 536.948L315.932 534.932L315.059 534.428L311.567 536.444L308.077 534.43ZM583.928 485.485L585.675 484.476L583.93 483.469L582.183 484.477L583.928 485.485ZM493.193 433.103L494.939 432.095L493.194 431.087L491.448 432.095L493.193 433.103ZM629.316 485.473L631.062 484.465L629.317 483.458L627.571 484.466L629.316 485.473ZM538.56 459.294L540.307 458.285L538.562 457.278L536.816 458.286L538.56 459.294ZM583.948 459.282L585.694 458.274L583.949 457.267L582.203 458.275L583.948 459.282ZM493.173 459.305L494.92 458.297L493.175 457.289L491.428 458.298L493.173 459.305ZM538.522 511.698L540.268 510.69L538.523 509.682L536.777 510.691L538.522 511.698ZM583.909 511.687L585.655 510.678L583.91 509.671L582.164 510.679L583.909 511.687ZM493.155 483.491L491.409 484.5L493.154 485.507L494.9 484.499L493.155 483.491ZM538.541 485.496L540.287 484.488L538.543 483.48L536.796 484.488L538.541 485.496ZM583.987 406.878L585.733 405.87L583.988 404.863L582.242 405.871L583.987 406.878ZM674.742 433.058L676.488 432.05L674.743 431.042L672.997 432.05L674.742 433.058ZM629.376 404.851L627.629 405.86L629.374 406.867L631.121 405.859L629.376 404.851ZM538.58 433.092L540.326 432.083L538.581 431.076L536.835 432.084L538.58 433.092ZM629.355 433.069L631.101 432.061L629.356 431.054L627.61 432.062L629.355 433.069ZM674.723 459.26L676.469 458.252L674.724 457.244L672.978 458.253L674.723 459.26ZM629.335 459.271L631.082 458.263L629.337 457.256L627.59 458.264L629.335 459.271ZM583.967 433.08L585.714 432.072L583.969 431.065L582.222 432.073L583.967 433.08ZM538.599 406.889L540.346 405.881L538.601 404.874L536.854 405.882L538.599 406.889ZM584.007 379.164L580.517 377.15L579.644 377.654L583.134 379.668L579.641 381.685L580.514 382.189L584.007 380.172L587.496 382.187L588.37 381.683L584.88 379.668L588.373 377.652L587.5 377.148L584.007 379.164ZM444.297 455.79L443.424 456.294L446.914 458.309L443.421 460.325L444.293 460.829L447.786 458.812L451.276 460.827L452.149 460.323L448.659 458.308L452.152 456.292L451.28 455.788L447.787 457.804L444.297 455.79ZM447.591 721.337L449.338 720.329L447.593 719.322L445.846 720.33L447.591 721.337ZM356.855 668.955L358.602 667.947L356.857 666.94L355.111 667.948L356.855 668.955ZM492.979 721.326L494.725 720.318L492.98 719.31L491.234 720.319L492.979 721.326ZM402.223 695.146L403.97 694.138L402.225 693.131L400.478 694.139L402.223 695.146ZM447.611 695.135L449.357 694.127L447.612 693.12L445.866 694.128L447.611 695.135ZM356.836 695.158L358.582 694.149L356.838 693.142L355.091 694.15L356.836 695.158ZM402.184 747.551L403.931 746.542L402.186 745.535L400.44 746.543L402.184 747.551ZM447.572 747.539L449.318 746.531L447.573 745.524L445.827 746.532L447.572 747.539ZM356.818 719.344L355.072 720.352L356.817 721.36L358.563 720.351L356.818 719.344ZM402.204 721.348L403.95 720.34L402.205 719.333L400.459 720.341L402.204 721.348ZM447.65 642.731L449.396 641.723L447.651 640.715L445.905 641.724L447.65 642.731ZM402.243 668.944L403.989 667.936L402.244 666.929L400.498 667.937L402.243 668.944ZM493.018 668.922L494.764 667.914L493.019 666.906L491.273 667.914L493.018 668.922ZM538.385 695.113L540.132 694.104L538.387 693.097L536.641 694.105L538.385 695.113ZM492.998 695.124L494.744 694.116L493 693.108L491.253 694.117L492.998 695.124ZM447.63 668.933L449.377 667.925L447.632 666.917L445.885 667.926L447.63 668.933ZM402.262 642.742L404.009 641.734L402.264 640.727L400.517 641.735L402.262 642.742ZM307.96 691.642L307.087 692.147L310.577 694.161L307.084 696.178L307.956 696.681L311.449 694.665L314.939 696.68L315.812 696.176L312.322 694.161L315.815 692.144L314.943 691.641L311.45 693.657L307.96 691.642ZM583.812 642.697L585.558 641.689L583.813 640.682L582.067 641.69L583.812 642.697ZM493.076 590.315L494.822 589.307L493.077 588.3L491.331 589.308L493.076 590.315ZM629.199 642.686L630.945 641.678L629.201 640.67L627.454 641.679L629.199 642.686ZM538.444 616.506L540.19 615.498L538.445 614.491L536.699 615.499L538.444 616.506ZM583.831 616.495L585.578 615.487L583.833 614.48L582.086 615.488L583.831 616.495ZM493.056 616.518L494.803 615.509L493.058 614.502L491.312 615.51L493.056 616.518ZM538.405 668.911L540.151 667.902L538.406 666.895L536.66 667.903L538.405 668.911ZM583.792 668.899L585.539 667.891L583.794 666.884L582.047 667.892L583.792 668.899ZM493.038 640.704L491.292 641.712L493.037 642.72L494.783 641.711L493.038 640.704ZM538.424 642.708L540.171 641.7L538.426 640.693L536.679 641.701L538.424 642.708ZM583.87 564.091L585.616 563.083L583.872 562.075L582.125 563.084L583.87 564.091ZM538.463 590.304L540.21 589.296L538.465 588.289L536.718 589.297L538.463 590.304ZM629.238 590.282L630.984 589.274L629.239 588.266L627.493 589.274L629.238 590.282ZM674.606 616.473L676.352 615.464L674.607 614.457L672.861 615.465L674.606 616.473ZM629.218 616.484L630.965 615.476L629.22 614.468L627.474 615.477L629.218 616.484ZM583.851 590.293L585.597 589.285L583.852 588.277L582.106 589.286L583.851 590.293ZM538.483 564.102L540.229 563.094L538.484 562.087L536.738 563.095L538.483 564.102ZM444.18 613.002L443.307 613.507L446.797 615.521L443.304 617.538L444.177 618.041L447.669 616.025L451.159 618.04L452.033 617.535L448.543 615.521L452.035 613.504L451.163 613.001L447.67 615.017L444.18 613.002ZM720.032 564.057L721.778 563.049L720.034 562.042L718.287 563.05L720.032 564.057ZM629.296 511.675L631.043 510.667L629.298 509.66L627.551 510.668L629.296 511.675ZM765.419 564.046L767.166 563.038L765.421 562.03L763.675 563.039L765.419 564.046ZM674.664 537.866L676.411 536.858L674.666 535.851L672.919 536.859L674.664 537.866ZM720.052 537.855L721.798 536.847L720.053 535.84L718.307 536.848L720.052 537.855ZM629.277 537.878L631.023 536.869L629.278 535.862L627.532 536.87L629.277 537.878ZM674.625 590.271L676.372 589.262L674.627 588.255L672.88 589.263L674.625 590.271ZM720.013 590.259L721.759 589.251L720.014 588.244L718.268 589.252L720.013 590.259ZM629.259 562.064L627.512 563.072L629.257 564.08L631.004 563.071L629.259 562.064ZM674.645 564.068L676.391 563.06L674.646 562.053L672.9 563.061L674.645 564.068ZM720.09 485.451L721.837 484.443L720.092 483.435L718.346 484.443L720.09 485.451ZM810.846 511.63L812.592 510.622L810.847 509.615L809.101 510.623L810.846 511.63ZM765.479 483.424L763.733 484.432L765.478 485.44L767.224 484.431L765.479 483.424ZM674.684 511.664L676.43 510.656L674.685 509.649L672.939 510.657L674.684 511.664ZM765.458 511.642L767.205 510.634L765.46 509.626L763.713 510.634L765.458 511.642ZM810.826 537.833L812.573 536.824L810.828 535.817L809.081 536.825L810.826 537.833ZM765.439 537.844L767.185 536.836L765.44 535.828L763.694 536.836L765.439 537.844ZM720.071 511.653L721.817 510.645L720.072 509.637L718.326 510.646L720.071 511.653ZM674.703 485.462L676.449 484.454L674.705 483.447L672.958 484.455L674.703 485.462ZM716.621 455.722L715.748 456.226L719.238 458.241L715.745 460.258L716.617 460.761L720.11 458.745L723.6 460.76L724.473 460.255L720.983 458.241L724.476 456.224L723.604 455.721L720.111 457.737L716.621 455.722ZM580.401 534.362L579.528 534.867L583.017 536.881L579.525 538.898L580.397 539.401L583.89 537.385L587.38 539.4L588.253 538.895L584.763 536.881L588.256 534.864L587.383 534.361L583.891 536.377L580.401 534.362ZM629.063 826.101L630.809 825.093L629.064 824.085L627.318 825.093L629.063 826.101ZM583.695 799.91L585.441 798.902L583.696 797.894L581.95 798.903L583.695 799.91ZM492.959 747.528L494.706 746.52L492.961 745.513L491.214 746.521L492.959 747.528ZM629.082 799.899L630.829 798.89L629.084 797.883L627.337 798.891L629.082 799.899ZM538.327 773.719L540.073 772.711L538.329 771.703L536.582 772.712L538.327 773.719ZM583.714 773.708L585.461 772.7L583.716 771.692L581.969 772.7L583.714 773.708ZM492.94 773.73L494.686 772.722L492.941 771.715L491.195 772.723L492.94 773.73ZM538.288 826.123L540.035 825.115L538.29 824.108L536.543 825.116L538.288 826.123ZM583.676 826.112L585.422 825.104L583.677 824.096L581.931 825.105L583.676 826.112ZM492.922 797.917L491.175 798.925L492.92 799.932L494.667 798.924L492.922 797.917ZM538.308 799.921L540.054 798.913L538.309 797.906L536.563 798.914L538.308 799.921ZM583.753 721.304L585.5 720.295L583.755 719.288L582.008 720.296L583.753 721.304ZM538.347 747.517L540.093 746.509L538.348 745.501L536.602 746.51L538.347 747.517ZM629.121 747.494L630.868 746.486L629.123 745.479L627.376 746.487L629.121 747.494ZM674.489 773.685L676.236 772.677L674.491 771.67L672.744 772.678L674.489 773.685ZM674.47 799.887L676.216 798.879L674.471 797.872L672.725 798.88L674.47 799.887ZM629.102 773.697L630.848 772.688L629.103 771.681L627.357 772.689L629.102 773.697ZM583.734 747.506L585.48 746.497L583.735 745.49L581.989 746.498L583.734 747.506ZM538.366 721.315L540.112 720.307L538.367 719.299L536.621 720.307L538.366 721.315ZM444.064 770.215L443.19 770.719L446.68 772.734L443.187 774.75L444.06 775.254L447.553 773.238L451.043 775.252L451.916 774.748L448.426 772.733L451.919 770.717L451.046 770.213L447.553 772.23L444.064 770.215ZM580.167 848.788L579.294 849.292L582.784 851.307L579.291 853.323L580.164 853.827L583.656 851.81L587.146 853.825L588.019 853.321L584.53 851.306L588.022 849.29L587.15 848.786L583.657 850.802L580.167 848.788ZM765.283 747.461L767.03 746.453L765.285 745.445L763.538 746.453L765.283 747.461ZM719.915 721.27L721.662 720.262L719.917 719.254L718.17 720.263L719.915 721.27ZM629.18 668.888L630.926 667.88L629.181 666.873L627.435 667.881L629.18 668.888ZM765.303 721.259L767.049 720.25L765.304 719.243L763.558 720.251L765.303 721.259ZM674.547 695.079L676.294 694.071L674.549 693.063L672.803 694.072L674.547 695.079ZM719.935 695.068L721.681 694.06L719.936 693.052L718.19 694.06L719.935 695.068ZM629.16 695.09L630.907 694.082L629.162 693.075L627.415 694.083L629.16 695.09ZM674.509 747.483L676.255 746.475L674.51 745.468L672.764 746.476L674.509 747.483ZM719.896 747.472L721.642 746.464L719.897 745.456L718.151 746.465L719.896 747.472ZM629.142 719.277L627.396 720.285L629.141 721.292L630.887 720.284L629.142 719.277ZM674.528 721.281L676.274 720.273L674.53 719.266L672.783 720.274L674.528 721.281ZM719.974 642.664L721.72 641.655L719.975 640.648L718.229 641.656L719.974 642.664ZM674.567 668.877L676.313 667.869L674.568 666.861L672.822 667.87L674.567 668.877ZM765.342 668.854L767.088 667.846L765.343 666.839L763.597 667.847L765.342 668.854ZM810.71 695.045L812.456 694.037L810.711 693.03L808.965 694.038L810.71 695.045ZM810.69 721.247L812.436 720.239L810.692 719.232L808.945 720.24L810.69 721.247ZM765.322 695.057L767.069 694.048L765.324 693.041L763.577 694.049L765.322 695.057ZM719.954 668.866L721.701 667.857L719.956 666.85L718.209 667.858L719.954 668.866ZM674.586 642.675L676.333 641.667L674.588 640.659L672.841 641.667L674.586 642.675ZM580.284 691.575L579.411 692.079L582.901 694.094L579.408 696.11L580.28 696.614L583.773 694.598L587.263 696.612L588.136 696.108L584.646 694.093L588.139 692.077L587.267 691.573L583.774 693.59L580.284 691.575ZM716.388 770.148L715.515 770.652L719.004 772.667L715.512 774.683L716.384 775.187L719.877 773.17L723.367 775.185L724.24 774.681L720.75 772.666L724.243 770.65L723.37 770.146L719.878 772.162L716.388 770.148ZM901.504 668.821L903.25 667.813L901.505 666.805L899.759 667.813L901.504 668.821ZM856.136 642.63L857.882 641.622L856.137 640.614L854.391 641.622L856.136 642.63ZM765.4 590.248L767.146 589.24L765.401 588.233L763.655 589.241L765.4 590.248ZM901.523 642.619L903.27 641.61L901.525 640.603L899.778 641.611L901.523 642.619ZM810.768 616.439L812.514 615.431L810.769 614.423L809.023 615.432L810.768 616.439ZM856.155 616.428L857.902 615.42L856.157 614.412L854.41 615.42L856.155 616.428ZM765.381 616.45L767.127 615.442L765.382 614.435L763.636 615.443L765.381 616.45ZM810.729 668.843L812.475 667.835L810.73 666.828L808.984 667.836L810.729 668.843ZM856.116 668.832L857.863 667.824L856.118 666.816L854.371 667.825L856.116 668.832ZM765.363 640.637L763.616 641.645L765.361 642.652L767.107 641.644L765.363 640.637ZM810.748 642.641L812.495 641.633L810.75 640.626L809.004 641.634L810.748 642.641ZM856.194 564.023L857.941 563.015L856.196 562.008L854.449 563.016L856.194 564.023ZM946.949 590.203L948.696 589.195L946.951 588.188L945.204 589.196L946.949 590.203ZM901.583 561.997L899.837 563.005L901.581 564.012L903.328 563.004L901.583 561.997ZM810.787 590.237L812.534 589.229L810.789 588.221L809.042 589.229L810.787 590.237ZM901.562 590.214L903.308 589.206L901.564 588.199L899.817 589.207L901.562 590.214ZM946.93 616.405L948.676 615.397L946.931 614.39L945.185 615.398L946.93 616.405ZM946.91 642.607L948.657 641.599L946.912 640.592L945.166 641.6L946.91 642.607ZM901.543 616.416L903.289 615.408L901.544 614.401L899.798 615.409L901.543 616.416ZM856.175 590.226L857.921 589.217L856.176 588.21L854.43 589.218L856.175 590.226ZM810.807 564.035L812.553 563.027L810.808 562.019L809.062 563.027L810.807 564.035ZM988.829 612.868L987.955 613.372L991.445 615.386L987.952 617.403L988.825 617.907L992.318 615.89L995.807 617.905L996.681 617.401L993.191 615.386L996.684 613.37L995.811 612.866L992.318 614.882L988.829 612.868ZM852.725 534.295L851.852 534.799L855.341 536.814L851.849 538.83L852.721 539.334L856.214 537.317L859.704 539.332L860.577 538.828L857.087 536.813L860.58 534.797L859.708 534.293L856.215 536.31L852.725 534.295ZM716.504 612.935L715.631 613.439L719.121 615.454L715.628 617.47L716.501 617.974L719.994 615.958L723.483 617.972L724.357 617.468L720.867 615.453L724.36 613.437L723.487 612.933L719.994 614.95L716.504 612.935ZM852.608 691.508L851.735 692.012L855.225 694.026L851.732 696.043L852.604 696.547L856.097 694.53L859.587 696.545L860.46 696.041L856.97 694.026L860.463 692.01L859.591 691.506L856.098 693.522L852.608 691.508Z" fill="#8F90A6"/>
</g>
</g>
<rect width="67.1327" height="4.85297" rx="1.5" transform="matrix(0.874237 0.504698 -0.874237 0.504698 374.672 546.041)" fill="#555770"/>
<rect width="70.368" height="4.85296" rx="1.5" transform="matrix(0.874237 0.504697 -0.874237 0.504697 357.702 555.838)" fill="#555770"/>
<rect width="29.9266" height="4.85295" rx="1.5" transform="matrix(0.874238 0.504697 -0.874238 0.504697 465.889 608.497)" fill="#555770"/>
<rect width="40.4414" height="4.85296" rx="1.5" transform="matrix(0.874237 0.504697 -0.874237 0.504697 366.187 550.939)" fill="#555770"/>
<rect width="60.662" height="4.85296" rx="1.5" transform="matrix(0.874237 0.504697 -0.874237 0.504697 407.199 574.615)" fill="#555770"/>
<rect width="40.4413" height="4.85296" rx="1.5" transform="matrix(0.874238 0.504697 -0.874238 0.504697 439.019 583.188)" fill="#555770"/>
<rect width="47.7208" height="4.85296" rx="1.5" transform="matrix(0.874236 0.504698 -0.874236 0.504698 480.031 606.864)" fill="#555770"/>
<rect width="67.1327" height="4.85297" rx="1.5" transform="matrix(0.874237 0.504698 -0.874237 0.504698 349.217 560.736)" fill="#555770"/>
<rect width="70.368" height="4.85296" rx="1.5" transform="matrix(0.874237 0.504697 -0.874237 0.504697 332.246 570.533)" fill="#555770"/>
<rect width="10.5148" height="4.85297" rx="1.5" transform="matrix(0.874238 0.504697 -0.874238 0.504697 440.433 623.193)" fill="#555770"/>
<rect width="40.4414" height="4.85296" rx="1.5" transform="matrix(0.874237 0.504697 -0.874237 0.504697 340.731 565.635)" fill="#555770"/>
<rect width="60.662" height="4.85296" rx="1.5" transform="matrix(0.874237 0.504697 -0.874237 0.504697 381.744 589.311)" fill="#555770"/>
<rect width="14.5589" height="4.85295" rx="1.5" transform="matrix(0.87424 0.504696 -0.87424 0.504696 413.563 597.884)" fill="#555770"/>
<rect width="8.08829" height="4.85298" rx="1.5" transform="matrix(0.874236 0.504698 -0.874236 0.504698 431.948 608.497)" fill="#555770"/>
<rect width="40.4413" height="4.85296" rx="1.5" transform="matrix(0.874238 0.504697 -0.874238 0.504697 323.761 575.432)" fill="#555770"/>
<rect width="25.0736" height="4.85296" rx="1.5" transform="matrix(0.874237 0.504698 -0.874237 0.504698 306.79 585.229)" fill="#555770"/>
<rect width="13.75" height="4.85295" rx="1.5" transform="matrix(0.874239 0.504696 -0.874239 0.504696 334.367 601.149)" fill="#555770"/>
<rect width="37.2061" height="4.85297" rx="1.5" transform="matrix(0.874236 0.504698 -0.874236 0.504698 356.288 604.007)" fill="#555770"/>
<rect width="12.9412" height="4.85297" rx="1.5" transform="matrix(0.874235 0.504698 -0.874235 0.504698 315.275 580.331)" fill="#555770"/>
<rect width="21.0295" height="4.85296" rx="1.5" transform="matrix(0.874237 0.504697 -0.874237 0.504697 332.246 590.127)" fill="#555770"/>
<rect width="14.5589" height="4.85296" rx="1.5" transform="matrix(0.874236 0.504698 -0.874236 0.504698 364.773 599.108)" fill="#555770"/>
<rect width="33.1619" height="4.85297" rx="1.5" transform="matrix(0.874236 0.504698 -0.874236 0.504698 383.158 609.722)" fill="#555770"/>
<rect width="67.1326" height="4.85296" rx="1.5" transform="matrix(0.874238 0.504697 -0.874238 0.504697 442.672 507.041)" fill="#555770"/>
<rect width="70.368" height="4.85296" rx="1.5" transform="matrix(0.874237 0.504697 -0.874237 0.504697 425.702 516.838)" fill="#555770"/>
<rect width="29.9266" height="4.85296" rx="1.5" transform="matrix(0.874238 0.504697 -0.874238 0.504697 533.889 569.497)" fill="#555770"/>
<rect width="40.4413" height="4.85296" rx="1.5" transform="matrix(0.874238 0.504697 -0.874238 0.504697 434.187 511.939)" fill="#555770"/>
<rect width="60.662" height="4.85296" rx="1.5" transform="matrix(0.874237 0.504697 -0.874237 0.504697 475.199 535.615)" fill="#555770"/>
<rect width="40.4414" height="4.85296" rx="1.5" transform="matrix(0.874237 0.504697 -0.874237 0.504697 507.019 544.188)" fill="#555770"/>
<rect width="47.7208" height="4.85297" rx="1.5" transform="matrix(0.874236 0.504698 -0.874236 0.504698 548.031 567.864)" fill="#555770"/>
<rect width="67.1327" height="4.85296" rx="1.5" transform="matrix(0.874237 0.504697 -0.874237 0.504697 417.217 521.736)" fill="#555770"/>
<rect width="70.368" height="4.85296" rx="1.5" transform="matrix(0.874237 0.504697 -0.874237 0.504697 400.246 531.533)" fill="#555770"/>
<rect width="10.5147" height="4.85296" rx="1.5" transform="matrix(0.874236 0.504698 -0.874236 0.504698 508.433 584.193)" fill="#555770"/>
<rect width="40.4414" height="4.85296" rx="1.5" transform="matrix(0.874237 0.504697 -0.874237 0.504697 408.731 526.635)" fill="#555770"/>
<rect width="60.6621" height="4.85296" rx="1.5" transform="matrix(0.874237 0.504697 -0.874237 0.504697 449.743 550.311)" fill="#555770"/>
<rect width="14.5589" height="4.85297" rx="1.5" transform="matrix(0.874237 0.504697 -0.874237 0.504697 481.563 558.884)" fill="#555770"/>
<rect width="8.08829" height="4.85298" rx="1.5" transform="matrix(0.874236 0.504698 -0.874236 0.504698 499.948 569.497)" fill="#555770"/>
<rect width="40.4414" height="4.85297" rx="1.5" transform="matrix(0.874238 0.504697 -0.874238 0.504697 391.761 536.432)" fill="#555770"/>
<rect width="37.2061" height="4.85297" rx="1.5" transform="matrix(0.874236 0.504698 -0.874236 0.504698 424.288 565.007)" fill="#555770"/>
<rect width="12.9412" height="4.85297" rx="1.5" transform="matrix(0.874235 0.504698 -0.874235 0.504698 383.275 541.331)" fill="#555770"/>
<rect width="21.0296" height="4.85298" rx="1.5" transform="matrix(0.874236 0.504698 -0.874236 0.504698 400.246 551.127)" fill="#555770"/>
<rect width="14.5589" height="4.85296" rx="1.5" transform="matrix(0.874236 0.504698 -0.874236 0.504698 432.773 560.108)" fill="#555770"/>
<rect width="33.1619" height="4.85297" rx="1.5" transform="matrix(0.874237 0.504698 -0.874237 0.504698 451.158 570.722)" fill="#555770"/>
<path fill-rule="evenodd" clip-rule="evenodd" d="M526.073 439.47C527.635 440.372 530.168 440.372 531.73 439.47C533.292 438.569 533.292 437.106 531.73 436.205C530.168 435.303 527.635 435.303 526.073 436.205C524.511 437.106 524.511 438.569 526.073 439.47Z" fill="#FF5C5C"/>
<path fill-rule="evenodd" clip-rule="evenodd" d="M537.387 446.002C538.949 446.904 541.481 446.904 543.043 446.002C544.606 445.1 544.606 443.638 543.043 442.736C541.481 441.835 538.949 441.835 537.387 442.736C535.824 443.638 535.824 445.1 537.387 446.002Z" fill="#FDDD48"/>
<path fill-rule="evenodd" clip-rule="evenodd" d="M548.7 452.533C550.262 453.435 552.795 453.435 554.357 452.533C555.919 451.632 555.919 450.169 554.357 449.268C552.795 448.366 550.262 448.366 548.7 449.268C547.138 450.169 547.138 451.632 548.7 452.533Z" fill="#39D98A"/>
</g>
<g opacity="0.75">
<circle opacity="0.25" r="158.826" transform="matrix(0.866044 -0.499967 0.866044 0.499967 513.518 507.316)" fill="#E3FFF1" stroke="#57EBA1"/>
<circle opacity="0.5" r="124.631" transform="matrix(0.866044 -0.499967 0.866044 0.499967 512.888 500.864)" fill="#E3FFF1" stroke="#57EBA1"/>
<circle opacity="0.75" r="88.5937" transform="matrix(0.866044 -0.499967 0.866044 0.499967 513.566 500.864)" fill="#E3FFF1" stroke="#57EBA1"/>
<circle r="56.3633" transform="matrix(0.866044 -0.499967 0.866044 0.499967 513.057 500.864)" fill="#E3FFF1" stroke="#57EBA1"/>
</g>
<g filter="url(#filter3_dd)">
<path d="M449.609 493.81L576.711 492.5L576.711 500.151C576.711 503.527 574.389 506.764 570.254 509.151L528.749 533.112C520.139 538.082 506.181 538.082 497.571 533.112L456.066 509.151C451.931 506.764 449.609 503.527 449.609 500.151L449.609 493.81Z" fill="url(#paint2_linear)"/>
<rect width="84.0609" height="84.0609" rx="18" transform="matrix(0.866044 0.499967 -0.866044 0.499967 513.16 451)" fill="white"/>
<path d="M511.795 498.402C512.283 498.683 512.473 499.094 512.292 499.48L508.261 508.715C507.872 509.544 506.011 509.865 504.962 509.262L471.109 489.718C470.055 489.113 470.543 488.072 471.986 487.849L488.076 485.536C488.74 485.433 489.446 485.542 489.931 485.821L511.795 498.402Z" fill="#223C37"/>
<path d="M512.28 493.099C511.614 493.205 510.9 493.096 510.411 492.814L498.254 485.795C497.209 485.192 497.685 484.163 499.111 483.944L537.116 478.097C538.544 477.878 539.85 478.634 539.464 479.457L535.045 488.903C534.869 489.281 534.361 489.576 533.708 489.68L512.28 493.099Z" fill="#39D98A"/>
<path d="M504.992 508.495C504.826 508.873 504.683 509.101 505.16 509.376L519.672 517.754C520.734 518.367 522.516 518.088 522.863 517.244L532.238 495.709C532.578 494.88 531.242 494.15 529.828 494.393L510.471 497.638L504.992 508.495Z" fill="#376C66"/>
</g>
<g filter="url(#filter4_dd)">
<path fill-rule="evenodd" clip-rule="evenodd" d="M537.941 81.0374C534.078 78.8075 527.816 78.8075 523.953 81.0374L225.269 253.468C221.407 255.698 221.407 259.313 225.269 261.543L634.691 497.902C638.554 500.132 644.816 500.132 648.679 497.902L947.363 325.472C951.226 323.242 951.226 319.627 947.363 317.397L537.941 81.0374ZM529.243 106.084C520.552 101.067 506.461 101.067 497.771 106.084L456.443 129.943C447.752 134.96 447.752 143.095 456.443 148.112L497.771 171.971C506.461 176.988 520.552 176.988 529.243 171.971L570.571 148.112C579.262 143.095 579.262 134.96 570.571 129.943L529.243 106.084Z" fill="#C7C9D9"/>
<path fill-rule="evenodd" clip-rule="evenodd" d="M537.941 76.0373C534.078 73.8075 527.816 73.8074 523.953 76.0373L225.269 248.468C221.407 250.698 221.407 254.313 225.269 256.543L634.691 492.902C638.554 495.132 644.816 495.132 648.679 492.902L947.363 320.472C951.226 318.242 951.226 314.627 947.363 312.397L537.941 76.0373ZM529.243 101.084C520.552 96.0671 506.461 96.0671 497.771 101.084L456.443 124.943C447.752 129.96 447.752 138.095 456.443 143.112L497.771 166.971C506.461 171.988 520.552 171.988 529.243 166.971L570.571 143.112C579.262 138.095 579.262 129.96 570.571 124.943L529.243 101.084Z" fill="#FAFAFC"/>
<path fill-rule="evenodd" clip-rule="evenodd" d="M523.953 76.0376C527.816 73.8077 534.078 73.8077 537.941 76.0376L947.363 312.397C951.226 314.627 951.226 318.242 947.363 320.472L938.723 325.46L515.313 81.0253L523.953 76.0376Z" fill="white"/>
<path fill-rule="evenodd" clip-rule="evenodd" d="M531.598 82.9057C532.677 83.5287 534.427 83.5287 535.506 82.9057C536.585 82.2827 536.585 81.2726 535.506 80.6495C534.427 80.0265 532.677 80.0265 531.598 80.6495C530.519 81.2726 530.519 82.2827 531.598 82.9057Z" fill="#FF5C5C"/>
<path fill-rule="evenodd" clip-rule="evenodd" d="M538.113 86.6654C539.192 87.2884 540.942 87.2884 542.021 86.6654C543.1 86.0424 543.1 85.0323 542.021 84.4093C540.942 83.7863 539.192 83.7863 538.113 84.4093C537.034 85.0323 537.034 86.0424 538.113 86.6654Z" fill="#FDDD48"/>
<path fill-rule="evenodd" clip-rule="evenodd" d="M544.627 90.4262C545.706 91.0492 547.456 91.0492 548.535 90.4262C549.614 89.8032 549.614 88.7931 548.535 88.17C547.456 87.547 545.706 87.547 544.627 88.17C543.548 88.7931 543.548 89.8032 544.627 90.4262Z" fill="#39D98A"/>
<g filter="url(#filter5_dd)">
<rect width="23.8434" height="23.8434" rx="8" transform="matrix(0.874237 0.504697 -0.874237 0.504697 349.551 209.151)" fill="white"/>
<rect width="23.8434" height="23.8434" rx="8" transform="matrix(0.874237 0.504697 -0.874237 0.504697 380.818 191.101)" fill="white"/>
<rect width="23.8434" height="23.8434" rx="8" transform="matrix(0.874237 0.504697 -0.874237 0.504697 412.086 173.05)" fill="white"/>
<rect width="23.8434" height="23.8434" rx="8" transform="matrix(0.874237 0.504697 -0.874237 0.504697 443.353 155)" fill="#E3FFF1"/>
<circle r="5.21575" transform="matrix(0.874237 0.504697 -0.874237 0.504697 443.353 167.033)" fill="#3BC882"/>
</g>
<g filter="url(#filter6_dd)">
<rect width="261.76" height="140.825" rx="8" transform="matrix(0.874237 0.504697 -0.874237 0.504697 569.821 155.905)" fill="white"/>
<rect width="8.23342" height="59.3381" rx="2" transform="matrix(0.874237 0.504697 -0.874237 0.504697 515.821 196.059)" fill="#57EBA1"/>
<rect width="8.23343" height="45.0669" rx="2" transform="matrix(0.874237 0.504697 -0.874237 0.504697 503.344 203.261)" fill="#39D98A"/>
<rect width="8.23342" height="31.5468" rx="2" transform="matrix(0.874237 0.504697 -0.874237 0.504697 491.525 210.085)" fill="#3BC882"/>
<rect width="8.23342" height="52.578" rx="2" transform="matrix(0.874237 0.504697 -0.874237 0.504697 518.417 204.381)" fill="#57EBA1"/>
<rect width="8.23342" height="40.5602" rx="2" transform="matrix(0.874237 0.504697 -0.874237 0.504697 507.911 210.446)" fill="#39D98A"/>
<rect width="8.23343" height="28.5424" rx="2" transform="matrix(0.874237 0.504698 -0.874237 0.504698 497.405 216.512)" fill="#3BC882"/>
<rect width="8.23342" height="93.1383" rx="2" transform="matrix(0.874237 0.504697 -0.874237 0.504697 562.383 188.822)" fill="#57EBA1"/>
<rect width="8.23342" height="71.3559" rx="2" transform="matrix(0.874237 0.504697 -0.874237 0.504697 543.34 199.815)" fill="#39D98A"/>
<rect width="8.23342" height="50.3247" rx="2" transform="matrix(0.874238 0.504697 -0.874238 0.504697 524.954 210.43)" fill="#3BC882"/>
<rect width="8.23342" height="64.5959" rx="2" transform="matrix(0.874237 0.504697 -0.874237 0.504697 545.937 208.138)" fill="#57EBA1"/>
<rect width="8.23343" height="49.5736" rx="2" transform="matrix(0.874237 0.504697 -0.874237 0.504697 532.804 215.72)" fill="#39D98A"/>
<rect width="8.23342" height="34.5513" rx="2" transform="matrix(0.874237 0.504697 -0.874237 0.504697 519.671 223.302)" fill="#3BC882"/>
<rect width="8.23343" height="47.3203" rx="2" transform="matrix(0.874237 0.504697 -0.874237 0.504697 539.341 221.768)" fill="#57EBA1"/>
<rect width="8.23343" height="36.0535" rx="2" transform="matrix(0.874238 0.504697 -0.874238 0.504697 529.491 227.454)" fill="#39D98A"/>
<rect width="8.23343" height="25.5379" rx="2" transform="matrix(0.874237 0.504697 -0.874237 0.504697 520.298 232.762)" fill="#3BC882"/>
<rect width="8.23342" height="73.6093" rx="2" transform="matrix(0.874237 0.504697 -0.874237 0.504697 570.831 213.412)" fill="#57EBA1"/>
<rect width="8.23343" height="56.3336" rx="2" transform="matrix(0.874238 0.504697 -0.874238 0.504697 555.728 222.129)" fill="#39D98A"/>
<rect width="8.23343" height="39.8091" rx="2" transform="matrix(0.874237 0.504698 -0.874237 0.504698 541.281 230.47)" fill="#3BC882"/>
<rect width="8.23342" height="90.8849" rx="2" transform="matrix(0.874237 0.504697 -0.874237 0.504697 594.44 209.603)" fill="#57EBA1"/>
<rect width="8.23342" height="69.1026" rx="2" transform="matrix(0.874237 0.504697 -0.874237 0.504697 575.397 220.596)" fill="#39D98A"/>
<rect width="8.23343" height="48.8225" rx="2" transform="matrix(0.874237 0.504697 -0.874237 0.504697 557.668 230.832)" fill="#3BC882"/>
<rect width="8.23343" height="59.3381" rx="2" transform="matrix(0.874237 0.504697 -0.874237 0.504697 575.368 230.435)" fill="#57EBA1"/>
<rect width="8.23342" height="45.0669" rx="2" transform="matrix(0.874237 0.504697 -0.874237 0.504697 562.891 237.637)" fill="#39D98A"/>
<rect width="8.23343" height="31.5469" rx="2" transform="matrix(0.874237 0.504697 -0.874237 0.504697 551.071 244.461)" fill="#3BC882"/>
<rect width="8.23342" height="52.578" rx="2" transform="matrix(0.874237 0.504697 -0.874237 0.504697 577.964 238.758)" fill="#57EBA1"/>
<rect width="8.23343" height="40.5602" rx="2" transform="matrix(0.874237 0.504697 -0.874237 0.504697 567.458 244.823)" fill="#39D98A"/>
<rect width="8.23342" height="28.5424" rx="2" transform="matrix(0.874238 0.504697 -0.874238 0.504697 556.952 250.888)" fill="#3BC882"/>
<rect width="8.23343" height="93.1383" rx="2" transform="matrix(0.874237 0.504697 -0.874237 0.504697 621.93 223.198)" fill="#57EBA1"/>
<rect width="8.23342" height="71.3559" rx="2" transform="matrix(0.874237 0.504697 -0.874237 0.504697 602.887 234.191)" fill="#39D98A"/>
<rect width="8.23342" height="50.3247" rx="2" transform="matrix(0.874237 0.504698 -0.874237 0.504698 584.501 244.806)" fill="#3BC882"/>
<rect width="8.23342" height="64.5959" rx="2" transform="matrix(0.874237 0.504697 -0.874237 0.504697 605.484 242.515)" fill="#57EBA1"/>
<rect width="8.23343" height="49.5736" rx="2" transform="matrix(0.874238 0.504697 -0.874238 0.504697 592.351 250.096)" fill="#39D98A"/>
<rect width="8.23343" height="34.5513" rx="2" transform="matrix(0.874237 0.504697 -0.874237 0.504697 579.218 257.678)" fill="#3BC882"/>
<rect width="8.23342" height="47.3202" rx="2" transform="matrix(0.874237 0.504697 -0.874237 0.504697 598.887 256.145)" fill="#57EBA1"/>
<rect width="8.23342" height="36.0535" rx="2" transform="matrix(0.874237 0.504697 -0.874237 0.504697 589.038 261.831)" fill="#39D98A"/>
<rect width="8.23342" height="25.5379" rx="2" transform="matrix(0.874238 0.504697 -0.874238 0.504697 579.845 267.138)" fill="#3BC882"/>
<rect width="8.23342" height="73.6093" rx="2" transform="matrix(0.874237 0.504697 -0.874237 0.504697 630.377 247.787)" fill="#57EBA1"/>
<rect width="8.23342" height="56.3336" rx="2" transform="matrix(0.874237 0.504697 -0.874237 0.504697 615.274 256.506)" fill="#39D98A"/>
<rect width="8.23342" height="39.8091" rx="2" transform="matrix(0.874237 0.504697 -0.874237 0.504697 600.828 264.846)" fill="#3BC882"/>
<rect width="8.23343" height="90.885" rx="2" transform="matrix(0.874237 0.504697 -0.874237 0.504697 653.987 243.98)" fill="#57EBA1"/>
<rect width="8.23343" height="69.1026" rx="2" transform="matrix(0.874237 0.504697 -0.874237 0.504697 634.944 254.974)" fill="#39D98A"/>
<rect width="8.23342" height="48.8225" rx="2" transform="matrix(0.874237 0.504697 -0.874237 0.504697 617.214 265.208)" fill="#3BC882"/>
<rect width="8.23343" height="59.3381" rx="2" transform="matrix(0.874237 0.504697 -0.874237 0.504697 634.915 264.812)" fill="#57EBA1"/>
<rect width="8.23342" height="45.0669" rx="2" transform="matrix(0.874237 0.504697 -0.874237 0.504697 622.438 272.015)" fill="#39D98A"/>
<rect width="8.23343" height="31.5469" rx="2" transform="matrix(0.874237 0.504697 -0.874237 0.504697 610.618 278.838)" fill="#3BC882"/>
<rect width="8.23343" height="52.5781" rx="2" transform="matrix(0.874237 0.504697 -0.874237 0.504697 637.511 273.135)" fill="#57EBA1"/>
<rect width="8.23342" height="40.5602" rx="2" transform="matrix(0.874237 0.504697 -0.874237 0.504697 627.005 279.2)" fill="#39D98A"/>
<rect width="8.23342" height="28.5424" rx="2" transform="matrix(0.874237 0.504697 -0.874237 0.504697 616.498 285.266)" fill="#3BC882"/>
<rect width="8.23343" height="93.1383" rx="2" transform="matrix(0.874237 0.504697 -0.874237 0.504697 681.477 257.575)" fill="#57EBA1"/>
<rect width="8.23343" height="71.3559" rx="2" transform="matrix(0.874237 0.504697 -0.874237 0.504697 662.434 268.569)" fill="#39D98A"/>
<rect width="8.23343" height="50.3247" rx="2" transform="matrix(0.874237 0.504697 -0.874237 0.504697 644.047 279.183)" fill="#3BC882"/>
<rect width="8.23343" height="64.5959" rx="2" transform="matrix(0.874238 0.504697 -0.874238 0.504697 665.031 276.891)" fill="#57EBA1"/>
<rect width="8.23342" height="49.5736" rx="2" transform="matrix(0.874237 0.504697 -0.874237 0.504697 651.898 284.472)" fill="#39D98A"/>
<rect width="8.23342" height="34.5513" rx="2" transform="matrix(0.874237 0.504697 -0.874237 0.504697 638.765 292.054)" fill="#3BC882"/>
<rect width="8.23342" height="47.3202" rx="2" transform="matrix(0.874237 0.504697 -0.874237 0.504697 658.434 290.521)" fill="#57EBA1"/>
<rect width="8.23343" height="36.0535" rx="2" transform="matrix(0.874238 0.504697 -0.874238 0.504697 648.585 296.207)" fill="#39D98A"/>
<rect width="8.23343" height="25.5379" rx="2" transform="matrix(0.874237 0.504697 -0.874237 0.504697 639.391 301.514)" fill="#3BC882"/>
<rect width="8.23343" height="73.6093" rx="2" transform="matrix(0.874237 0.504697 -0.874237 0.504697 689.924 282.163)" fill="#57EBA1"/>
<rect width="8.23342" height="56.3336" rx="2" transform="matrix(0.874238 0.504697 -0.874238 0.504697 674.821 290.881)" fill="#39D98A"/>
<rect width="8.23342" height="39.8091" rx="2" transform="matrix(0.874237 0.504697 -0.874237 0.504697 660.375 299.222)" fill="#3BC882"/>
<rect width="8.23342" height="90.8849" rx="2" transform="matrix(0.874237 0.504697 -0.874237 0.504697 713.534 278.356)" fill="#57EBA1"/>
<rect width="8.23342" height="69.1026" rx="2" transform="matrix(0.874238 0.504697 -0.874238 0.504697 694.491 289.349)" fill="#39D98A"/>
<rect width="8.23343" height="48.8225" rx="2" transform="matrix(0.874237 0.504697 -0.874237 0.504697 676.761 299.584)" fill="#3BC882"/>
<rect width="8.23342" height="59.3381" rx="2" transform="matrix(0.874237 0.504697 -0.874237 0.504697 694.461 299.188)" fill="#57EBA1"/>
<rect width="8.23342" height="45.0669" rx="2" transform="matrix(0.874237 0.504697 -0.874237 0.504697 681.985 306.39)" fill="#39D98A"/>
<rect width="8.23341" height="31.5468" rx="2" transform="matrix(0.874237 0.504697 -0.874237 0.504697 670.165 313.214)" fill="#3BC882"/>
<rect width="8.23343" height="52.5781" rx="2" transform="matrix(0.874237 0.504697 -0.874237 0.504697 697.058 307.51)" fill="#57EBA1"/>
<rect width="8.23342" height="40.5602" rx="2" transform="matrix(0.874237 0.504697 -0.874237 0.504697 686.552 313.575)" fill="#39D98A"/>
<rect width="8.23342" height="28.5424" rx="2" transform="matrix(0.874237 0.504697 -0.874237 0.504697 676.045 319.641)" fill="#3BC882"/>
<rect width="8.23343" height="93.1383" rx="2" transform="matrix(0.874237 0.504697 -0.874237 0.504697 741.024 291.951)" fill="#57EBA1"/>
<rect width="8.23342" height="71.3559" rx="2" transform="matrix(0.874237 0.504697 -0.874237 0.504697 721.981 302.945)" fill="#39D98A"/>
<rect width="8.23342" height="50.3247" rx="2" transform="matrix(0.874237 0.504697 -0.874237 0.504697 703.594 313.56)" fill="#3BC882"/>
<rect width="8.23342" height="64.5959" rx="2" transform="matrix(0.874237 0.504697 -0.874237 0.504697 724.577 311.267)" fill="#57EBA1"/>
<rect width="8.23342" height="49.5736" rx="2" transform="matrix(0.874237 0.504697 -0.874237 0.504697 711.444 318.848)" fill="#39D98A"/>
<rect width="8.23343" height="34.5513" rx="2" transform="matrix(0.874237 0.504698 -0.874237 0.504698 698.311 326.43)" fill="#3BC882"/>
</g>
<g filter="url(#filter7_dd)">
<rect width="105.974" height="331.511" rx="8" transform="matrix(0.874237 0.504697 -0.874237 0.504697 840.111 271.662)" fill="#F2F2F5"/>
<rect width="84.1212" height="12.6668" rx="6.3334" transform="matrix(0.874237 0.504697 -0.874237 0.504697 814.018 294)" fill="#EBEBF0"/>
<rect width="56.7658" height="15.7198" rx="4" transform="matrix(0.874237 0.504697 -0.874237 0.504697 713.683 352.483)" fill="#EBEBF0"/>
<rect width="82.9654" height="15.7198" rx="4" transform="matrix(0.874237 0.504697 -0.874237 0.504697 730.48 342.787)" fill="#EBEBF0"/>
<rect width="40.6094" height="15.7198" rx="4" transform="matrix(0.874238 0.504697 -0.874238 0.504697 747.276 333.09)" fill="#EBEBF0"/>
<rect width="78.5988" height="15.7198" rx="4" transform="matrix(0.874237 0.504697 -0.874237 0.504697 764.073 323.393)" fill="#EBEBF0"/>
<rect width="61.1324" height="15.7198" rx="4" transform="matrix(0.874237 0.504697 -0.874237 0.504697 780.87 313.696)" fill="#EBEBF0"/>
<rect width="87.7686" height="15.7198" rx="4" transform="matrix(0.874238 0.504697 -0.874238 0.504697 797.667 304)" fill="#EBEBF0"/>
<rect width="12.2265" height="12.2265" rx="4" transform="matrix(0.874237 0.504697 -0.874237 0.504697 715.21 355.128)" fill="#39D98A"/>
<path d="M712.92 360.196L712.92 361.739L719.409 361.519" stroke="white" stroke-width="1.5" stroke-linecap="round" stroke-linejoin="round"/>
<rect width="25.7629" height="5.67658" rx="2.83829" transform="matrix(0.874237 0.504697 -0.874237 0.504697 726.28 364.604)" fill="#C7C9D9"/>
<rect width="12.2265" height="12.2265" rx="4" transform="matrix(0.874237 0.504697 -0.874237 0.504697 732.007 345.431)" fill="#39D98A"/>
<path d="M729.716 350.5V352.042L736.205 351.822" stroke="white" stroke-width="1.5" stroke-linecap="round" stroke-linejoin="round"/>
<rect width="25.7629" height="5.67658" rx="2.83829" transform="matrix(0.874237 0.504697 -0.874237 0.504697 743.077 354.908)" fill="#C7C9D9"/>
<rect width="12.2265" height="12.2265" rx="4" transform="matrix(0.874237 0.504697 -0.874237 0.504697 782.397 316.341)" fill="#39D98A"/>
<path d="M780.107 321.41V322.952L786.596 322.732" stroke="white" stroke-width="1.5" stroke-linecap="round" stroke-linejoin="round"/>
<rect width="33.1861" height="5.67657" rx="2.83828" transform="matrix(0.874237 0.504698 -0.874237 0.504698 793.468 325.817)" fill="#C7C9D9"/>
<rect y="0.504697" width="11.2265" height="11.2265" rx="3.5" transform="matrix(0.874237 0.504697 -0.874237 0.504697 799.635 306.894)" stroke="#C7C9D9"/>
<rect width="19.6497" height="5.67658" rx="2.83829" transform="matrix(0.874237 0.504697 -0.874237 0.504697 810.264 316.121)" fill="#C7C9D9"/>
<rect y="0.504697" width="11.2265" height="11.2265" rx="3.5" transform="matrix(0.874237 0.504697 -0.874237 0.504697 766.041 326.288)" stroke="#C7C9D9"/>
<rect width="23.5796" height="5.67657" rx="2.83829" transform="matrix(0.874238 0.504697 -0.874238 0.504697 776.671 335.514)" fill="#C7C9D9"/>
<rect y="0.504697" width="11.2265" height="11.2265" rx="3.5" transform="matrix(0.874237 0.504697 -0.874237 0.504697 749.245 335.984)" stroke="#C7C9D9"/>
<rect width="15.7197" height="5.67658" rx="2.83829" transform="matrix(0.874236 0.504698 -0.874236 0.504698 759.874 345.211)" fill="#C7C9D9"/>
<rect width="33.5298" height="12.6668" rx="6.33341" transform="matrix(0.874237 0.504697 -0.874237 0.504697 834.018 283)" fill="#C7C9D9"/>
<rect width="15.6472" height="12.6668" rx="6.33341" transform="matrix(0.874236 0.504698 -0.874236 0.504698 869.845 303.683)" fill="#C7C9D9"/>
</g>
<rect width="33.5298" height="12.6668" rx="6.3334" transform="matrix(0.874237 0.504697 -0.874237 0.504697 676.489 193.879)" fill="#E4E4EB"/>
<rect width="33.5298" height="12.6668" rx="6.3334" transform="matrix(0.874237 0.504697 -0.874237 0.504697 636.754 170.939)" fill="#E4E4EB"/>
<rect width="33.5298" height="12.6668" rx="6.3334" transform="matrix(0.874237 0.504697 -0.874237 0.504697 597.018 148)" fill="#3BC882"/>
</g>
<g opacity="0.15">
<rect width="254.833" height="33.666" rx="8" transform="matrix(0.874237 0.504697 -0.874237 0.504697 279.372 326.396)" fill="white"/>
<path fill-rule="evenodd" clip-rule="evenodd" d="M271.197 348.107C275.712 350.713 283.033 350.713 287.548 348.107C292.063 345.5 292.063 341.274 287.548 338.667C283.033 336.06 275.712 336.06 271.197 338.667C266.682 341.274 266.682 345.5 271.197 348.107Z" fill="#E3FFF1"/>
<g clip-path="url(#clip0)">
<path d="M282.687 343.542L282.238 343.282C282.14 343.226 282 343.199 281.863 343.213L278.268 343.549L278.532 342.609C278.554 342.529 278.51 342.449 278.412 342.392L277.962 342.132C277.9 342.096 277.793 342.116 277.778 342.167L277.316 343.812C277.305 343.851 277.31 343.891 277.331 343.928C277.352 343.966 277.388 344 277.437 344.028C277.485 344.056 277.545 344.077 277.61 344.089C277.675 344.101 277.744 344.104 277.812 344.097L282.627 343.647C282.715 343.64 282.75 343.578 282.687 343.542Z" fill="#39D98A"/>
<path d="M283.665 340.909C281.294 339.541 277.451 339.541 275.08 340.909C272.71 342.277 272.71 344.496 275.08 345.865C277.451 347.233 281.294 347.233 283.665 345.865C286.035 344.496 286.035 342.277 283.665 340.909ZM275.808 345.444C273.841 344.308 273.841 342.465 275.808 341.329C277.776 340.193 280.969 340.193 282.937 341.329C284.904 342.465 284.904 344.308 282.937 345.444C280.969 346.581 277.776 346.581 275.808 345.444Z" fill="#39D98A"/>
</g>
<rect width="31.7957" height="7.48134" rx="3.74067" transform="matrix(0.874237 0.504697 -0.874237 0.504697 297.359 349.994)" fill="#C7C9D9"/>
<rect width="48.1611" height="7.48134" rx="3.74067" transform="matrix(0.874237 0.504697 -0.874237 0.504697 338.237 373.593)" fill="#E4E4EB"/>
<rect width="48.1611" height="7.48133" rx="3.74067" transform="matrix(0.874237 0.504697 -0.874237 0.504697 401.597 410.171)" fill="#E3FFF1"/>
<rect width="10.7544" height="7.48133" rx="3.74067" transform="matrix(0.874238 0.504697 -0.874238 0.504697 401.597 410.171)" fill="#39D98A"/>
<g clip-path="url(#clip1)">
<path d="M474.814 454.456L474.364 454.196C474.266 454.14 474.127 454.113 473.989 454.127L470.394 454.463L470.658 453.523C470.68 453.444 470.636 453.363 470.538 453.306L470.088 453.046C470.026 453.01 469.919 453.03 469.904 453.081L469.443 454.726C469.431 454.765 469.436 454.805 469.457 454.842C469.478 454.88 469.515 454.914 469.563 454.942C469.611 454.97 469.671 454.991 469.736 455.003C469.801 455.015 469.87 455.018 469.938 455.012L474.753 454.561C474.841 454.554 474.876 454.492 474.814 454.456Z" fill="#39D98A"/>
<path d="M475.791 451.823C473.42 450.455 469.577 450.455 467.206 451.823C464.836 453.191 464.836 455.41 467.206 456.779C469.577 458.147 473.42 458.147 475.791 456.779C478.161 455.41 478.161 453.191 475.791 451.823ZM467.935 456.358C465.967 455.222 465.967 453.38 467.935 452.243C469.902 451.107 473.095 451.107 475.063 452.243C477.03 453.38 477.03 455.222 475.063 456.358C473.095 457.495 469.902 457.495 467.935 456.358Z" fill="#39D98A"/>
</g>
</g>
<g opacity="0.4">
<rect width="254.833" height="33.666" rx="8" transform="matrix(0.874237 0.504697 -0.874237 0.504697 312.075 307.516)" fill="white"/>
<path fill-rule="evenodd" clip-rule="evenodd" d="M303.899 329.228C308.414 331.834 315.735 331.834 320.25 329.228C324.766 326.621 324.766 322.395 320.25 319.788C315.735 317.181 308.414 317.181 303.899 319.788C299.384 322.395 299.384 326.621 303.899 329.228Z" fill="#E3FFF1"/>
<g clip-path="url(#clip2)">
<path d="M315.39 324.663L314.94 324.403C314.843 324.347 314.703 324.32 314.565 324.334L310.97 324.67L311.235 323.73C311.257 323.651 311.212 323.57 311.114 323.513L310.664 323.253C310.602 323.217 310.495 323.237 310.481 323.288L310.019 324.933C310.008 324.972 310.013 325.012 310.034 325.049C310.055 325.087 310.091 325.121 310.139 325.149C310.188 325.177 310.247 325.198 310.312 325.21C310.377 325.222 310.447 325.225 310.514 325.219L315.329 324.768C315.418 324.761 315.452 324.699 315.39 324.663Z" fill="#39D98A"/>
<path d="M316.367 322.03C313.997 320.662 310.153 320.662 307.783 322.03C305.412 323.398 305.412 325.618 307.783 326.986C310.153 328.354 313.997 328.354 316.367 326.986C318.737 325.618 318.737 323.398 316.367 322.03ZM308.511 326.566C306.543 325.429 306.543 323.587 308.511 322.45C310.479 321.314 313.671 321.314 315.639 322.45C317.607 323.587 317.607 325.429 315.639 326.566C313.671 327.702 310.479 327.702 308.511 326.566Z" fill="#39D98A"/>
</g>
<rect width="31.7957" height="7.48134" rx="3.74067" transform="matrix(0.874237 0.504698 -0.874237 0.504698 330.061 331.115)" fill="#C7C9D9"/>
<rect width="48.1611" height="7.48134" rx="3.74067" transform="matrix(0.874237 0.504697 -0.874237 0.504697 370.939 354.714)" fill="#E4E4EB"/>
<rect width="48.1611" height="7.48134" rx="3.74067" transform="matrix(0.874238 0.504697 -0.874238 0.504697 434.3 391.292)" fill="#E3FFF1"/>
<rect width="10.7544" height="7.48133" rx="3.74067" transform="matrix(0.874238 0.504697 -0.874238 0.504697 434.3 391.292)" fill="#39D98A"/>
<g clip-path="url(#clip3)">
<path d="M507.516 435.577L507.067 435.317C506.969 435.261 506.829 435.234 506.691 435.248L503.096 435.584L503.361 434.644C503.383 434.565 503.339 434.484 503.24 434.427L502.791 434.167C502.728 434.132 502.621 434.151 502.607 434.202L502.145 435.847C502.134 435.886 502.139 435.926 502.16 435.963C502.181 436.001 502.217 436.035 502.265 436.063C502.314 436.091 502.373 436.112 502.438 436.124C502.503 436.136 502.573 436.139 502.64 436.133L507.456 435.682C507.544 435.675 507.578 435.613 507.516 435.577Z" fill="#39D98A"/>
<path d="M508.493 432.944C506.123 431.576 502.279 431.576 499.909 432.944C497.538 434.313 497.538 436.532 499.909 437.9C502.279 439.268 506.123 439.268 508.493 437.9C510.863 436.532 510.863 434.313 508.493 432.944ZM500.637 437.48C498.669 436.344 498.669 434.501 500.637 433.365C502.605 432.228 505.797 432.228 507.765 433.365C509.733 434.501 509.733 436.344 507.765 437.48C505.797 438.616 502.605 438.616 500.637 437.48Z" fill="#39D98A"/>
</g>
</g>
<g opacity="0.75" filter="url(#filter8_dd)">
<rect width="254.833" height="33.666" rx="8" transform="matrix(0.874237 0.504697 -0.874237 0.504697 344.777 288.637)" fill="white"/>
<path fill-rule="evenodd" clip-rule="evenodd" d="M336.601 310.348C341.117 312.955 348.437 312.955 352.953 310.348C357.468 307.742 357.468 303.515 352.953 300.909C348.437 298.302 341.117 298.302 336.601 300.909C332.086 303.515 332.086 307.742 336.601 310.348Z" fill="#E3FFF1"/>
<g clip-path="url(#clip4)">
<path d="M348.092 305.783L347.643 305.524C347.545 305.467 347.405 305.441 347.267 305.454L343.672 305.791L343.937 304.85C343.959 304.771 343.915 304.69 343.816 304.633L343.367 304.374C343.304 304.338 343.197 304.358 343.183 304.408L342.721 306.053C342.71 306.092 342.715 306.132 342.736 306.17C342.757 306.207 342.793 306.242 342.841 306.27C342.89 306.298 342.949 306.318 343.014 306.331C343.08 306.343 343.149 306.346 343.216 306.339L348.032 305.889C348.12 305.881 348.154 305.819 348.092 305.783Z" fill="#39D98A"/>
<path d="M349.069 303.151C346.699 301.782 342.855 301.782 340.485 303.151C338.115 304.519 338.115 306.738 340.485 308.106C342.855 309.475 346.699 309.475 349.069 308.106C351.44 306.738 351.44 304.519 349.069 303.151ZM341.213 307.686C339.245 306.55 339.245 304.707 341.213 303.571C343.181 302.435 346.373 302.435 348.341 303.571C350.309 304.707 350.309 306.55 348.341 307.686C346.373 308.822 343.181 308.822 341.213 307.686Z" fill="#39D98A"/>
</g>
<rect width="31.7957" height="7.48134" rx="3.74067" transform="matrix(0.874237 0.504697 -0.874237 0.504697 362.763 312.236)" fill="#C7C9D9"/>
<rect width="48.1611" height="7.48134" rx="3.74067" transform="matrix(0.874237 0.504697 -0.874237 0.504697 403.641 335.835)" fill="#E4E4EB"/>
<rect width="48.1611" height="7.48134" rx="3.74067" transform="matrix(0.874238 0.504697 -0.874238 0.504697 467.002 372.413)" fill="#E3FFF1"/>
<rect width="10.7544" height="7.48134" rx="3.74067" transform="matrix(0.874239 0.504696 -0.874239 0.504696 467.002 372.413)" fill="#39D98A"/>
<g clip-path="url(#clip5)">
<path d="M540.218 416.697L539.769 416.438C539.671 416.382 539.531 416.355 539.393 416.368L535.798 416.705L536.063 415.764C536.085 415.685 536.041 415.604 535.942 415.547L535.493 415.288C535.431 415.252 535.323 415.272 535.309 415.322L534.847 416.967C534.836 417.006 534.841 417.046 534.862 417.084C534.883 417.122 534.919 417.156 534.968 417.184C535.016 417.212 535.075 417.233 535.14 417.245C535.206 417.257 535.275 417.26 535.342 417.253L540.158 416.803C540.246 416.795 540.28 416.733 540.218 416.697Z" fill="#39D98A"/>
<path d="M541.195 414.065C538.825 412.696 534.981 412.696 532.611 414.065C530.241 415.433 530.241 417.652 532.611 419.021C534.981 420.389 538.825 420.389 541.195 419.021C543.566 417.652 543.566 415.433 541.195 414.065ZM533.339 418.6C531.371 417.464 531.371 415.621 533.339 414.485C535.307 413.349 538.499 413.349 540.467 414.485C542.435 415.621 542.435 417.464 540.467 418.6C538.499 419.736 535.307 419.736 533.339 418.6Z" fill="#39D98A"/>
</g>
</g>
<g filter="url(#filter9_dd)">
<rect width="254.833" height="33.666" rx="8" transform="matrix(0.874237 0.504697 -0.874237 0.504697 377.479 269.758)" fill="white"/>
<path fill-rule="evenodd" clip-rule="evenodd" d="M369.304 291.469C373.819 294.076 381.14 294.076 385.655 291.469C390.17 288.863 390.17 284.636 385.655 282.03C381.14 279.423 373.819 279.423 369.304 282.03C364.789 284.636 364.789 288.863 369.304 291.469Z" fill="#E3FFF1"/>
<g clip-path="url(#clip6)">
<path d="M380.794 286.904L380.345 286.645C380.247 286.589 380.107 286.562 379.969 286.575L376.375 286.912L376.639 285.971C376.661 285.892 376.617 285.811 376.518 285.755L376.069 285.495C376.007 285.459 375.899 285.479 375.885 285.529L375.423 287.174C375.412 287.213 375.417 287.253 375.438 287.291C375.459 287.329 375.495 287.363 375.544 287.391C375.592 287.419 375.651 287.44 375.717 287.452C375.782 287.464 375.851 287.467 375.919 287.46L380.734 287.01C380.822 287.002 380.857 286.94 380.794 286.904Z" fill="#39D98A"/>
<path d="M381.772 284.272C379.401 282.903 375.557 282.903 373.187 284.272C370.817 285.64 370.817 287.859 373.187 289.228C375.557 290.596 379.401 290.596 381.772 289.228C384.142 287.859 384.142 285.64 381.772 284.272ZM373.915 288.807C371.947 287.671 371.947 285.828 373.915 284.692C375.883 283.556 379.076 283.556 381.043 284.692C383.011 285.828 383.011 287.671 381.043 288.807C379.076 289.943 375.883 289.943 373.915 288.807Z" fill="#39D98A"/>
</g>
<rect width="31.7957" height="7.48134" rx="3.74067" transform="matrix(0.874237 0.504697 -0.874237 0.504697 395.466 293.357)" fill="#C7C9D9"/>
<rect width="48.1611" height="7.48134" rx="3.74067" transform="matrix(0.874238 0.504697 -0.874238 0.504697 436.344 316.956)" fill="#E4E4EB"/>
<rect width="48.1611" height="7.48134" rx="3.74067" transform="matrix(0.874237 0.504697 -0.874237 0.504697 499.704 353.534)" fill="#E3FFF1"/>
<rect width="10.7544" height="7.48133" rx="3.74067" transform="matrix(0.874238 0.504697 -0.874238 0.504697 499.704 353.534)" fill="#39D98A"/>
<g clip-path="url(#clip7)">
<path d="M572.921 397.818L572.471 397.559C572.373 397.503 572.234 397.476 572.096 397.489L568.501 397.826L568.765 396.885C568.787 396.806 568.743 396.726 568.645 396.669L568.195 396.409C568.133 396.373 568.026 396.393 568.011 396.443L567.55 398.088C567.538 398.127 567.543 398.167 567.564 398.205C567.585 398.243 567.622 398.277 567.67 398.305C567.718 398.333 567.778 398.354 567.843 398.366C567.908 398.378 567.977 398.381 568.045 398.374L572.86 397.924C572.948 397.916 572.983 397.854 572.921 397.818Z" fill="#39D98A"/>
<path d="M573.898 395.186C571.527 393.818 567.684 393.818 565.313 395.186C562.943 396.554 562.943 398.773 565.313 400.142C567.684 401.51 571.527 401.51 573.898 400.142C576.268 398.773 576.268 396.554 573.898 395.186ZM566.042 399.721C564.074 398.585 564.074 396.742 566.042 395.606C568.009 394.47 571.202 394.47 573.17 395.606C575.137 396.742 575.137 398.585 573.17 399.721C571.202 400.857 568.009 400.857 566.042 399.721Z" fill="#39D98A"/>
</g>
</g>
<g filter="url(#filter10_dd)">
<rect width="254.833" height="33.666" rx="8" transform="matrix(0.874237 0.504697 -0.874237 0.504697 410.182 250.879)" fill="white"/>
<path fill-rule="evenodd" clip-rule="evenodd" d="M402.006 272.59C406.521 275.197 413.842 275.197 418.357 272.59C422.873 269.984 422.873 265.758 418.357 263.151C413.842 260.544 406.521 260.544 402.006 263.151C397.491 265.758 397.491 269.984 402.006 272.59Z" fill="#FFE6E6"/>
<g clip-path="url(#clip8)">
<path d="M413.35 267.96C413.392 267.936 413.392 267.896 413.35 267.872L412.714 267.509L410.627 267.614L410.81 266.41L410.179 266.043C410.137 266.019 410.069 266.018 410.026 266.043C410.008 266.053 409.997 266.067 409.994 266.082L409.756 267.659L407.025 267.796C407 267.798 406.976 267.804 406.957 267.814C406.915 267.839 406.915 267.879 406.957 267.903L407.593 268.267L409.68 268.161L409.497 269.365L410.127 269.731C410.169 269.756 410.237 269.756 410.28 269.731C410.298 269.721 410.309 269.707 410.311 269.692L410.551 268.117L413.282 267.979C413.307 267.978 413.331 267.971 413.35 267.96Z" fill="#FF3B3B"/>
<path d="M414.464 265.398C412.094 264.03 408.25 264.03 405.88 265.398C403.51 266.767 403.51 268.986 405.88 270.354C408.25 271.722 412.094 271.722 414.464 270.354C416.835 268.986 416.835 266.767 414.464 265.398ZM406.608 269.934C404.64 268.798 404.64 266.955 406.608 265.819C408.576 264.683 411.768 264.683 413.736 265.819C415.704 266.955 415.704 268.798 413.736 269.934C411.768 271.07 408.576 271.07 406.608 269.934Z" fill="#FF3B3B"/>
</g>
<rect width="31.7957" height="7.48133" rx="3.74067" transform="matrix(0.874237 0.504697 -0.874237 0.504697 428.168 274.478)" fill="#C7C9D9"/>
<rect width="48.1611" height="7.48134" rx="3.74067" transform="matrix(0.874237 0.504697 -0.874237 0.504697 469.046 298.077)" fill="#E4E4EB"/>
<rect width="48.1611" height="7.48134" rx="3.74067" transform="matrix(0.874237 0.504697 -0.874237 0.504697 532.407 334.655)" fill="#FFE6E6"/>
<rect width="23.8468" height="7.48135" rx="3.74067" transform="matrix(0.874238 0.504697 -0.874238 0.504697 532.407 334.655)" fill="#FF3B3B"/>
<g clip-path="url(#clip9)">
<path d="M605.476 378.874C605.518 378.85 605.518 378.81 605.476 378.786L604.84 378.423L602.753 378.528L602.936 377.324L602.305 376.957C602.263 376.933 602.195 376.932 602.152 376.957C602.134 376.967 602.123 376.981 602.12 376.996L601.882 378.573L599.151 378.71C599.126 378.712 599.102 378.718 599.083 378.728C599.041 378.753 599.041 378.793 599.083 378.817L599.719 379.181L601.806 379.075L601.623 380.279L602.253 380.646C602.295 380.67 602.363 380.67 602.406 380.646C602.424 380.635 602.435 380.621 602.438 380.606L602.677 379.031L605.409 378.893C605.433 378.892 605.457 378.885 605.476 378.874Z" fill="#FF3B3B"/>
<path d="M606.59 376.312C604.22 374.944 600.376 374.944 598.006 376.312C595.636 377.681 595.636 379.9 598.006 381.268C600.376 382.636 604.22 382.636 606.59 381.268C608.961 379.9 608.961 377.681 606.59 376.312ZM598.734 380.848C596.766 379.712 596.766 377.869 598.734 376.733C600.702 375.597 603.894 375.597 605.862 376.733C607.83 377.869 607.83 379.712 605.862 380.848C603.894 381.984 600.702 381.984 598.734 380.848Z" fill="#FF3B3B"/>
</g>
</g>
<g filter="url(#filter11_dd)">
<rect width="254.833" height="33.666" rx="8" transform="matrix(0.874237 0.504697 -0.874237 0.504697 442.884 232)" fill="white"/>
<path fill-rule="evenodd" clip-rule="evenodd" d="M434.708 253.712C439.224 256.318 446.544 256.318 451.06 253.712C455.575 251.105 455.575 246.879 451.06 244.272C446.544 241.665 439.224 241.665 434.708 244.272C430.193 246.879 430.193 251.105 434.708 253.712Z" fill="#E3FFF1"/>
<g clip-path="url(#clip10)">
<path d="M446.199 249.147L445.75 248.887C445.652 248.831 445.512 248.804 445.374 248.818L441.779 249.154L442.044 248.214C442.066 248.134 442.022 248.054 441.923 247.997L441.474 247.737C441.411 247.701 441.304 247.721 441.29 247.772L440.828 249.417C440.817 249.456 440.822 249.495 440.843 249.533C440.864 249.571 440.9 249.605 440.948 249.633C440.997 249.661 441.056 249.682 441.121 249.694C441.187 249.706 441.256 249.709 441.323 249.702L446.139 249.252C446.227 249.244 446.261 249.183 446.199 249.147Z" fill="#39D98A"/>
<path d="M447.176 246.514C444.806 245.146 440.962 245.146 438.592 246.514C436.222 247.882 436.222 250.101 438.592 251.47C440.962 252.838 444.806 252.838 447.176 251.47C449.546 250.101 449.546 247.882 447.176 246.514ZM439.32 251.049C437.352 249.913 437.352 248.07 439.32 246.934C441.288 245.798 444.48 245.798 446.448 246.934C448.416 248.07 448.416 249.913 446.448 251.049C444.48 252.185 441.288 252.185 439.32 251.049Z" fill="#39D98A"/>
</g>
<rect width="31.7957" height="7.48134" rx="3.74067" transform="matrix(0.874238 0.504697 -0.874238 0.504697 460.87 255.599)" fill="#C7C9D9"/>
<rect width="48.1611" height="7.48134" rx="3.74067" transform="matrix(0.874237 0.504697 -0.874237 0.504697 501.748 279.198)" fill="#E4E4EB"/>
<rect width="48.1611" height="7.48133" rx="3.74067" transform="matrix(0.874237 0.504697 -0.874237 0.504697 565.109 315.776)" fill="#E3FFF1"/>
<rect width="28.055" height="7.48134" rx="3.74067" transform="matrix(0.874237 0.504697 -0.874237 0.504697 565.109 315.776)" fill="#39D98A"/>
<g clip-path="url(#clip11)">
<path d="M638.325 360.06L637.876 359.801C637.778 359.744 637.638 359.718 637.5 359.731L633.905 360.067L634.17 359.127C634.192 359.048 634.148 358.967 634.049 358.91L633.6 358.651C633.538 358.615 633.43 358.635 633.416 358.685L632.954 360.33C632.943 360.369 632.948 360.409 632.969 360.447C632.99 360.484 633.026 360.519 633.074 360.547C633.123 360.574 633.182 360.595 633.247 360.607C633.313 360.62 633.382 360.622 633.449 360.616L638.265 360.166C638.353 360.158 638.387 360.096 638.325 360.06Z" fill="#39D98A"/>
<path d="M639.302 357.428C636.932 356.059 633.088 356.059 630.718 357.428C628.348 358.796 628.348 361.015 630.718 362.383C633.088 363.752 636.932 363.752 639.302 362.383C641.673 361.015 641.673 358.796 639.302 357.428ZM631.446 361.963C629.478 360.827 629.478 358.984 631.446 357.848C633.414 356.712 636.606 356.712 638.574 357.848C640.542 358.984 640.542 360.827 638.574 361.963C636.606 363.099 633.414 363.099 631.446 361.963Z" fill="#39D98A"/>
</g>
</g>
<g opacity="0.45">
<path d="M576.945 52.6443L513.696 89.5395L450.196 52.6443L513.445 16L576.945 52.6443Z" fill="url(#paint3_linear)"/>
<path d="M576.944 52.6445V277.53L513.695 314.425V89.5398L576.944 52.6445Z" fill="url(#paint4_linear)"/>
<path d="M513.695 89.5398V314.425L449.944 277.53L450.195 52.6445L513.695 89.5398Z" fill="url(#paint5_linear)"/>
</g>
<g filter="url(#filter12_dd)">
<path d="M449.764 47.8103L576.867 46.5006L576.867 54.1518C576.867 57.5273 574.545 60.7645 570.41 63.1513L528.905 87.1124C520.295 92.0827 506.337 92.0826 497.727 87.1124L456.222 63.1513C452.087 60.7645 449.764 57.5273 449.764 54.1519L449.764 47.8103Z" fill="url(#paint6_linear)"/>
<rect width="84.0609" height="84.0609" rx="18" transform="matrix(0.866044 0.499967 -0.866044 0.499967 513.316 5.00098)" fill="white"/>
<path d="M539.004 30.3033C538.6 30.0555 537.922 30.0552 537.505 30.2958L527.306 36.1839C526.893 36.422 526.891 36.8061 527.272 37.0608C533.338 41.113 533.036 47.2446 526.369 51.0935C519.702 54.9423 509.081 55.1166 502.061 51.6151C501.62 51.395 500.955 51.3961 500.542 51.6342L490.72 57.3044C490.304 57.545 490.304 57.9367 490.733 58.1697C504.113 65.4324 525.165 65.2863 538.248 57.7335C551.331 50.1808 551.584 38.0272 539.004 30.3033Z" fill="#39D98A"/>
<path d="M522.03 39.2299C521.969 39.1929 521.906 39.1562 521.843 39.1198C517.574 36.6549 510.651 36.6549 506.382 39.1198C502.112 41.5847 502.112 45.581 506.382 48.0459C506.445 48.0823 506.508 48.1181 506.572 48.1534L522.03 39.2299Z" fill="#223C37"/>
<path d="M506.572 48.1535C510.855 50.5103 517.637 50.4744 521.843 48.0459C526.05 45.6174 526.112 41.7024 522.03 39.23L506.572 48.1535Z" fill="#376C66"/>
</g>
<defs>
<filter id="filter0_dd" x="251.864" y="428.406" width="658.076" height="389.152" filterUnits="userSpaceOnUse" color-interpolation-filters="sRGB">
<feFlood flood-opacity="0" result="BackgroundImageFix"/>
<feColorMatrix in="SourceAlpha" type="matrix" values="0 0 0 0 0 0 0 0 0 0 0 0 0 0 0 0 0 0 127 0"/>
<feOffset dy="2"/>
<feGaussianBlur stdDeviation="2"/>
<feColorMatrix type="matrix" values="0 0 0 0 0.376471 0 0 0 0 0.380392 0 0 0 0 0.439216 0 0 0 0.16 0"/>
<feBlend mode="normal" in2="BackgroundImageFix" result="effect1_dropShadow"/>
<feColorMatrix in="SourceAlpha" type="matrix" values="0 0 0 0 0 0 0 0 0 0 0 0 0 0 0 0 0 0 127 0"/>
<feOffset/>
<feGaussianBlur stdDeviation="0.5"/>
<feColorMatrix type="matrix" values="0 0 0 0 0.156863 0 0 0 0 0.160784 0 0 0 0 0.239216 0 0 0 0.04 0"/>
<feBlend mode="normal" in2="effect1_dropShadow" result="effect2_dropShadow"/>
<feBlend mode="normal" in="SourceGraphic" in2="effect2_dropShadow" result="shape"/>
</filter>
<filter id="filter1_b" x="250.94" y="582.5" width="660" height="234.058" filterUnits="userSpaceOnUse" color-interpolation-filters="sRGB">
<feFlood flood-opacity="0" result="BackgroundImageFix"/>
<feGaussianBlur in="BackgroundImage" stdDeviation="2.5"/>
<feComposite in2="SourceAlpha" operator="in" result="effect1_backgroundBlur"/>
<feBlend mode="normal" in="SourceGraphic" in2="effect1_backgroundBlur" result="shape"/>
</filter>
<filter id="filter2_b" x="250.864" y="425.406" width="660" height="385.245" filterUnits="userSpaceOnUse" color-interpolation-filters="sRGB">
<feFlood flood-opacity="0" result="BackgroundImageFix"/>
<feGaussianBlur in="BackgroundImage" stdDeviation="2.5"/>
<feComposite in2="SourceAlpha" operator="in" result="effect1_backgroundBlur"/>
<feBlend mode="normal" in="SourceGraphic" in2="effect1_backgroundBlur" result="shape"/>
</filter>
<filter id="filter3_dd" x="443.115" y="446" width="152.813" height="96.8395" filterUnits="userSpaceOnUse" color-interpolation-filters="sRGB">
<feFlood flood-opacity="0" result="BackgroundImageFix"/>
<feColorMatrix in="SourceAlpha" type="matrix" values="0 0 0 0 0 0 0 0 0 0 0 0 0 0 0 0 0 0 127 0"/>
<feOffset dy="2"/>
<feGaussianBlur stdDeviation="2"/>
<feColorMatrix type="matrix" values="0 0 0 0 0.376471 0 0 0 0 0.380392 0 0 0 0 0.439216 0 0 0 0.16 0"/>
<feBlend mode="normal" in2="BackgroundImageFix" result="effect1_dropShadow"/>
<feColorMatrix in="SourceAlpha" type="matrix" values="0 0 0 0 0 0 0 0 0 0 0 0 0 0 0 0 0 0 127 0"/>
<feOffset/>
<feGaussianBlur stdDeviation="0.5"/>
<feColorMatrix type="matrix" values="0 0 0 0 0.156863 0 0 0 0 0.160784 0 0 0 0 0.239216 0 0 0 0.04 0"/>
<feBlend mode="normal" in2="effect1_dropShadow" result="effect2_dropShadow"/>
<feBlend mode="normal" in="SourceGraphic" in2="effect2_dropShadow" result="shape"/>
</filter>
<filter id="filter4_dd" x="214.372" y="70.3647" width="743.888" height="441.21" filterUnits="userSpaceOnUse" color-interpolation-filters="sRGB">
<feFlood flood-opacity="0" result="BackgroundImageFix"/>
<feColorMatrix in="SourceAlpha" type="matrix" values="0 0 0 0 0 0 0 0 0 0 0 0 0 0 0 0 0 0 127 0"/>
<feOffset dy="4"/>
<feGaussianBlur stdDeviation="4"/>
<feColorMatrix type="matrix" values="0 0 0 0 0.376471 0 0 0 0 0.380392 0 0 0 0 0.439216 0 0 0 0.16 0"/>
<feBlend mode="normal" in2="BackgroundImageFix" result="effect1_dropShadow"/>
<feColorMatrix in="SourceAlpha" type="matrix" values="0 0 0 0 0 0 0 0 0 0 0 0 0 0 0 0 0 0 127 0"/>
<feOffset/>
<feGaussianBlur stdDeviation="1"/>
<feColorMatrix type="matrix" values="0 0 0 0 0.156863 0 0 0 0 0.160784 0 0 0 0 0.239216 0 0 0 0.04 0"/>
<feBlend mode="normal" in2="effect1_dropShadow" result="effect2_dropShadow"/>
<feBlend mode="normal" in="SourceGraphic" in2="effect2_dropShadow" result="shape"/>
</filter>
<filter id="filter5_dd" x="330.803" y="155.865" width="131.297" height="77.4884" filterUnits="userSpaceOnUse" color-interpolation-filters="sRGB">
<feFlood flood-opacity="0" result="BackgroundImageFix"/>
<feColorMatrix in="SourceAlpha" type="matrix" values="0 0 0 0 0 0 0 0 0 0 0 0 0 0 0 0 0 0 127 0"/>
<feOffset dy="0.5"/>
<feGaussianBlur stdDeviation="1"/>
<feColorMatrix type="matrix" values="0 0 0 0 0.376471 0 0 0 0 0.380392 0 0 0 0 0.439216 0 0 0 0.16 0"/>
<feBlend mode="normal" in2="BackgroundImageFix" result="effect1_dropShadow"/>
<feColorMatrix in="SourceAlpha" type="matrix" values="0 0 0 0 0 0 0 0 0 0 0 0 0 0 0 0 0 0 127 0"/>
<feOffset/>
<feGaussianBlur stdDeviation="0.5"/>
<feColorMatrix type="matrix" values="0 0 0 0 0.156863 0 0 0 0 0.160784 0 0 0 0 0.239216 0 0 0 0.08 0"/>
<feBlend mode="normal" in2="effect1_dropShadow" result="effect2_dropShadow"/>
<feBlend mode="normal" in="SourceGraphic" in2="effect2_dropShadow" result="shape"/>
</filter>
<filter id="filter6_dd" x="446.803" y="156.271" width="351.761" height="206.453" filterUnits="userSpaceOnUse" color-interpolation-filters="sRGB">
<feFlood flood-opacity="0" result="BackgroundImageFix"/>
<feColorMatrix in="SourceAlpha" type="matrix" values="0 0 0 0 0 0 0 0 0 0 0 0 0 0 0 0 0 0 127 0"/>
<feOffset dy="2"/>
<feGaussianBlur stdDeviation="2"/>
<feColorMatrix type="matrix" values="0 0 0 0 0.376471 0 0 0 0 0.380392 0 0 0 0 0.439216 0 0 0 0.16 0"/>
<feBlend mode="normal" in2="BackgroundImageFix" result="effect1_dropShadow"/>
<feColorMatrix in="SourceAlpha" type="matrix" values="0 0 0 0 0 0 0 0 0 0 0 0 0 0 0 0 0 0 127 0"/>
<feOffset/>
<feGaussianBlur stdDeviation="0.5"/>
<feColorMatrix type="matrix" values="0 0 0 0 0.156863 0 0 0 0 0.160784 0 0 0 0 0.239216 0 0 0 0.04 0"/>
<feBlend mode="normal" in2="effect1_dropShadow" result="effect2_dropShadow"/>
<feBlend mode="normal" in="SourceGraphic" in2="effect2_dropShadow" result="shape"/>
</filter>
<filter id="filter7_dd" x="552.388" y="272.527" width="378.272" height="220.067" filterUnits="userSpaceOnUse" color-interpolation-filters="sRGB">
<feFlood flood-opacity="0" result="BackgroundImageFix"/>
<feColorMatrix in="SourceAlpha" type="matrix" values="0 0 0 0 0 0 0 0 0 0 0 0 0 0 0 0 0 0 127 0"/>
<feOffset dy="0.5"/>
<feGaussianBlur stdDeviation="1"/>
<feColorMatrix type="matrix" values="0 0 0 0 0.376471 0 0 0 0 0.380392 0 0 0 0 0.439216 0 0 0 0.16 0"/>
<feBlend mode="normal" in2="BackgroundImageFix" result="effect1_dropShadow"/>
<feColorMatrix in="SourceAlpha" type="matrix" values="0 0 0 0 0 0 0 0 0 0 0 0 0 0 0 0 0 0 127 0"/>
<feOffset/>
<feGaussianBlur stdDeviation="0.5"/>
<feColorMatrix type="matrix" values="0 0 0 0 0.156863 0 0 0 0 0.160784 0 0 0 0 0.239216 0 0 0 0.08 0"/>
<feBlend mode="normal" in2="effect1_dropShadow" result="effect2_dropShadow"/>
<feBlend mode="normal" in="SourceGraphic" in2="effect2_dropShadow" result="shape"/>
</filter>
<filter id="filter8_dd" x="311.442" y="287.002" width="260.023" height="156.874" filterUnits="userSpaceOnUse" color-interpolation-filters="sRGB">
<feFlood flood-opacity="0" result="BackgroundImageFix"/>
<feColorMatrix in="SourceAlpha" type="matrix" values="0 0 0 0 0 0 0 0 0 0 0 0 0 0 0 0 0 0 127 0"/>
<feOffset dy="4"/>
<feGaussianBlur stdDeviation="4"/>
<feColorMatrix type="matrix" values="0 0 0 0 0.376471 0 0 0 0 0.380392 0 0 0 0 0.439216 0 0 0 0.16 0"/>
<feBlend mode="normal" in2="BackgroundImageFix" result="effect1_dropShadow"/>
<feColorMatrix in="SourceAlpha" type="matrix" values="0 0 0 0 0 0 0 0 0 0 0 0 0 0 0 0 0 0 127 0"/>
<feOffset/>
<feGaussianBlur stdDeviation="1"/>
<feColorMatrix type="matrix" values="0 0 0 0 0.156863 0 0 0 0 0.160784 0 0 0 0 0.239216 0 0 0 0.04 0"/>
<feBlend mode="normal" in2="effect1_dropShadow" result="effect2_dropShadow"/>
<feBlend mode="normal" in="SourceGraphic" in2="effect2_dropShadow" result="shape"/>
</filter>
<filter id="filter9_dd" x="348.144" y="270.124" width="252.023" height="148.874" filterUnits="userSpaceOnUse" color-interpolation-filters="sRGB">
<feFlood flood-opacity="0" result="BackgroundImageFix"/>
<feColorMatrix in="SourceAlpha" type="matrix" values="0 0 0 0 0 0 0 0 0 0 0 0 0 0 0 0 0 0 127 0"/>
<feOffset dy="2"/>
<feGaussianBlur stdDeviation="2"/>
<feColorMatrix type="matrix" values="0 0 0 0 0.376471 0 0 0 0 0.380392 0 0 0 0 0.439216 0 0 0 0.16 0"/>
<feBlend mode="normal" in2="BackgroundImageFix" result="effect1_dropShadow"/>
<feColorMatrix in="SourceAlpha" type="matrix" values="0 0 0 0 0 0 0 0 0 0 0 0 0 0 0 0 0 0 127 0"/>
<feOffset/>
<feGaussianBlur stdDeviation="0.5"/>
<feColorMatrix type="matrix" values="0 0 0 0 0.156863 0 0 0 0 0.160784 0 0 0 0 0.239216 0 0 0 0.04 0"/>
<feBlend mode="normal" in2="effect1_dropShadow" result="effect2_dropShadow"/>
<feBlend mode="normal" in="SourceGraphic" in2="effect2_dropShadow" result="shape"/>
</filter>
<filter id="filter10_dd" x="382.847" y="251.745" width="248.023" height="144.874" filterUnits="userSpaceOnUse" color-interpolation-filters="sRGB">
<feFlood flood-opacity="0" result="BackgroundImageFix"/>
<feColorMatrix in="SourceAlpha" type="matrix" values="0 0 0 0 0 0 0 0 0 0 0 0 0 0 0 0 0 0 127 0"/>
<feOffset dy="0.5"/>
<feGaussianBlur stdDeviation="1"/>
<feColorMatrix type="matrix" values="0 0 0 0 0.376471 0 0 0 0 0.380392 0 0 0 0 0.439216 0 0 0 0.16 0"/>
<feBlend mode="normal" in2="BackgroundImageFix" result="effect1_dropShadow"/>
<feColorMatrix in="SourceAlpha" type="matrix" values="0 0 0 0 0 0 0 0 0 0 0 0 0 0 0 0 0 0 127 0"/>
<feOffset/>
<feGaussianBlur stdDeviation="0.5"/>
<feColorMatrix type="matrix" values="0 0 0 0 0.156863 0 0 0 0 0.160784 0 0 0 0 0.239216 0 0 0 0.08 0"/>
<feBlend mode="normal" in2="effect1_dropShadow" result="effect2_dropShadow"/>
<feBlend mode="normal" in="SourceGraphic" in2="effect2_dropShadow" result="shape"/>
</filter>
<filter id="filter11_dd" x="415.549" y="232.866" width="248.023" height="144.874" filterUnits="userSpaceOnUse" color-interpolation-filters="sRGB">
<feFlood flood-opacity="0" result="BackgroundImageFix"/>
<feColorMatrix in="SourceAlpha" type="matrix" values="0 0 0 0 0 0 0 0 0 0 0 0 0 0 0 0 0 0 127 0"/>
<feOffset dy="0.5"/>
<feGaussianBlur stdDeviation="1"/>
<feColorMatrix type="matrix" values="0 0 0 0 0.376471 0 0 0 0 0.380392 0 0 0 0 0.439216 0 0 0 0.16 0"/>
<feBlend mode="normal" in2="BackgroundImageFix" result="effect1_dropShadow"/>
<feColorMatrix in="SourceAlpha" type="matrix" values="0 0 0 0 0 0 0 0 0 0 0 0 0 0 0 0 0 0 127 0"/>
<feOffset/>
<feGaussianBlur stdDeviation="0.5"/>
<feColorMatrix type="matrix" values="0 0 0 0 0.156863 0 0 0 0 0.160784 0 0 0 0 0.239216 0 0 0 0.08 0"/>
<feBlend mode="normal" in2="effect1_dropShadow" result="effect2_dropShadow"/>
<feBlend mode="normal" in="SourceGraphic" in2="effect2_dropShadow" result="shape"/>
</filter>
<filter id="filter12_dd" x="437.706" y="0" width="152.813" height="96.84" filterUnits="userSpaceOnUse" color-interpolation-filters="sRGB">
<feFlood flood-opacity="0" result="BackgroundImageFix"/>
<feColorMatrix in="SourceAlpha" type="matrix" values="0 0 0 0 0 0 0 0 0 0 0 0 0 0 0 0 0 0 127 0"/>
<feOffset dy="2"/>
<feGaussianBlur stdDeviation="2"/>
<feColorMatrix type="matrix" values="0 0 0 0 0.376471 0 0 0 0 0.380392 0 0 0 0 0.439216 0 0 0 0.16 0"/>
<feBlend mode="normal" in2="BackgroundImageFix" result="effect1_dropShadow"/>
<feColorMatrix in="SourceAlpha" type="matrix" values="0 0 0 0 0 0 0 0 0 0 0 0 0 0 0 0 0 0 127 0"/>
<feOffset/>
<feGaussianBlur stdDeviation="0.5"/>
<feColorMatrix type="matrix" values="0 0 0 0 0.156863 0 0 0 0 0.160784 0 0 0 0 0.239216 0 0 0 0.04 0"/>
<feBlend mode="normal" in2="effect1_dropShadow" result="effect2_dropShadow"/>
<feBlend mode="normal" in="SourceGraphic" in2="effect2_dropShadow" result="shape"/>
</filter>
<linearGradient id="paint0_linear" x1="463.257" y1="462.365" x2="425.083" y2="871.278" gradientUnits="userSpaceOnUse">
<stop stop-color="#8B90A4"/>
<stop offset="1" stop-color="#28293D"/>
</linearGradient>
<radialGradient id="paint1_radial" cx="0" cy="0" r="1" gradientUnits="userSpaceOnUse" gradientTransform="translate(176.989 207.043) rotate(92.8026) scale(223.823 161.968)">
<stop offset="0.744792" stop-color="#C4C4C4"/>
<stop offset="1" stop-color="#C4C4C4" stop-opacity="0"/>
</radialGradient>
<linearGradient id="paint2_linear" x1="502.951" y1="474.294" x2="528.553" y2="531.857" gradientUnits="userSpaceOnUse">
<stop stop-color="#E4E4EB"/>
<stop offset="1" stop-color="#EDF0F4"/>
</linearGradient>
<linearGradient id="paint3_linear" x1="513.57" y1="16" x2="513.57" y2="89.5395" gradientUnits="userSpaceOnUse">
<stop stop-color="#39D98A"/>
<stop offset="1" stop-color="#47FFA4" stop-opacity="0.42"/>
</linearGradient>
<linearGradient id="paint4_linear" x1="545.319" y1="52.6445" x2="545.319" y2="134.5" gradientUnits="userSpaceOnUse">
<stop stop-color="#39D98A"/>
<stop offset="1" stop-color="#47FFA4" stop-opacity="0"/>
</linearGradient>
<linearGradient id="paint5_linear" x1="481.819" y1="52.6445" x2="481.819" y2="130.5" gradientUnits="userSpaceOnUse">
<stop stop-color="#39D98A"/>
<stop offset="1" stop-color="#47FFA4" stop-opacity="0"/>
</linearGradient>
<linearGradient id="paint6_linear" x1="503.106" y1="28.2944" x2="528.709" y2="85.8577" gradientUnits="userSpaceOnUse">
<stop stop-color="#E4E4EB"/>
<stop offset="1" stop-color="#EDF0F4"/>
</linearGradient>
<clipPath id="clip0">
<rect width="11.222" height="11.222" fill="white" transform="matrix(0.874237 0.504698 -0.874237 0.504698 279.372 337.723)"/>
</clipPath>
<clipPath id="clip1">
<rect width="11.222" height="11.222" fill="white" transform="matrix(0.874236 0.504698 -0.874236 0.504698 471.499 448.637)"/>
</clipPath>
<clipPath id="clip2">
<rect width="11.222" height="11.222" fill="white" transform="matrix(0.874238 0.504697 -0.874238 0.504697 312.075 318.844)"/>
</clipPath>
<clipPath id="clip3">
<rect width="11.222" height="11.222" fill="white" transform="matrix(0.874238 0.504697 -0.874238 0.504697 504.201 429.758)"/>
</clipPath>
<clipPath id="clip4">
<rect width="11.222" height="11.222" fill="white" transform="matrix(0.874238 0.504697 -0.874238 0.504697 344.777 299.965)"/>
</clipPath>
<clipPath id="clip5">
<rect width="11.222" height="11.222" fill="white" transform="matrix(0.874237 0.504698 -0.874237 0.504698 536.903 410.879)"/>
</clipPath>
<clipPath id="clip6">
<rect width="11.222" height="11.222" fill="white" transform="matrix(0.874238 0.504697 -0.874238 0.504697 377.479 281.086)"/>
</clipPath>
<clipPath id="clip7">
<rect width="11.222" height="11.222" fill="white" transform="matrix(0.874238 0.504697 -0.874238 0.504697 569.606 392)"/>
</clipPath>
<clipPath id="clip8">
<rect width="11.222" height="11.222" fill="white" transform="matrix(0.874238 0.504697 -0.874238 0.504697 410.182 262.207)"/>
</clipPath>
<clipPath id="clip9">
<rect width="11.222" height="11.222" fill="white" transform="matrix(0.874237 0.504698 -0.874237 0.504698 602.308 373.121)"/>
</clipPath>
<clipPath id="clip10">
<rect width="11.222" height="11.222" fill="white" transform="matrix(0.874238 0.504697 -0.874238 0.504697 442.884 243.328)"/>
</clipPath>
<clipPath id="clip11">
<rect width="11.222" height="11.222" fill="white" transform="matrix(0.874238 0.504697 -0.874238 0.504697 635.01 354.242)"/>
</clipPath>
</defs>
</svg>
