<svg width="362" height="208" viewBox="0 0 362 208" fill="none" xmlns="http://www.w3.org/2000/svg">
<mask id="mask0" mask-type="alpha" maskUnits="userSpaceOnUse" x="53" y="29" width="257" height="149">
<circle r="104.779" transform="matrix(0.866044 -0.499967 0.866044 0.499967 181.486 103.772)" fill="url(#paint0_radial)"/>
</mask>
<g mask="url(#mask0)">
<path opacity="0.15" d="M226.627 338.464L227.501 337.96L272.034 312.251L272.907 311.747L317.441 286.037L318.314 285.533L362.848 259.824L363.721 259.32L408.255 233.611L409.128 233.107L453.661 207.397L454.535 206.893L499.068 181.184L499.941 180.68L544.475 154.971L545.348 154.467L589.882 128.757L590.755 128.253L589.883 127.75L545.387 102.062L544.515 101.559L500.019 75.8715L499.147 75.3678L454.651 49.6806L453.779 49.1769L409.283 23.4897L408.411 22.986L363.915 -2.7012L363.043 -3.20487L318.548 -28.8921L317.675 -29.3958L273.18 -55.083L272.307 -55.5867L227.812 -81.2739L226.939 -81.7775L182.444 -107.465L181.571 -107.968L180.698 -107.464L45.3509 -29.3284L44.4777 -28.8243L-90.8695 49.3117L-91.7427 49.8158L-227.963 128.456L-91.8594 207.028L-90.987 207.532L44.2443 285.601L45.1168 286.105L180.348 364.174L181.22 364.677L182.094 364.173L226.627 338.464ZM137.037 -81.2514L181.571 -106.961L226.066 -81.2734L181.532 -55.5642L137.037 -81.2514ZM182.405 -55.0605L226.939 -80.7698L271.434 -55.0826L226.9 -29.3733L182.405 -55.0605ZM227.773 -28.8696L272.306 -54.5789L316.802 -28.8917L272.268 -3.18241L227.773 -28.8696ZM273.141 -2.67875L317.674 -28.388L362.17 -2.70078L317.636 23.0085L273.141 -2.67875ZM318.509 23.5121L363.042 -2.1971L407.538 23.4901L363.004 49.1994L318.509 23.5121ZM363.877 49.703L408.41 23.9938L452.906 49.681L408.372 75.3903L363.877 49.703ZM409.244 75.8939L453.778 50.1847L498.274 75.8719L453.74 101.581L409.244 75.8939ZM454.612 102.085L499.146 76.3756L543.641 102.063L499.108 127.772L454.612 102.085ZM499.98 128.276L544.514 102.566L589.009 128.254L544.476 153.963L499.98 128.276ZM91.6302 -55.0381L136.164 -80.7473L180.659 -55.0601L136.126 -29.3508L91.6302 -55.0381ZM136.998 -28.8472L181.532 -54.5564L226.027 -28.8692L181.494 -3.15996L136.998 -28.8472ZM182.366 -2.65629L226.9 -28.3655L271.395 -2.6783L226.861 23.0309L182.366 -2.65629ZM227.734 23.5346L272.268 -2.17463L316.763 23.5126L272.229 49.2218L227.734 23.5346ZM273.102 49.7255L317.635 24.0163L362.131 49.7035L317.597 75.4127L273.102 49.7255ZM318.47 75.9164L363.003 50.2071L407.499 75.8944L362.965 101.604L318.47 75.9164ZM363.838 102.107L408.371 76.398L452.867 102.085L408.333 127.794L363.838 102.107ZM409.206 128.298L453.739 102.589L498.235 128.276L453.701 153.985L409.206 128.298ZM454.573 154.489L499.107 128.78L543.603 154.467L499.069 180.176L454.573 154.489ZM46.2234 -28.8247L90.757 -54.534L135.252 -28.8467L90.7189 -3.1375L46.2234 -28.8247ZM91.5913 -2.63383L136.125 -28.3431L180.62 -2.65584L136.087 23.0534L91.5913 -2.63383ZM136.959 23.5571L181.493 -2.15217L225.988 23.535L181.455 49.2443L136.959 23.5571ZM182.327 49.7479L226.861 24.0387L271.356 49.7259L226.823 75.4352L182.327 49.7479ZM227.695 75.9388L272.229 50.2296L316.724 75.9168L272.19 101.626L227.695 75.9388ZM273.063 102.13L317.597 76.4205L362.092 102.108L317.558 127.817L273.063 102.13ZM318.431 128.321L362.964 102.611L407.46 128.299L362.926 154.008L318.431 128.321ZM363.799 154.512L408.332 128.802L452.828 154.489L408.294 180.199L363.799 154.512ZM409.167 180.702L453.7 154.993L498.196 180.68L453.662 206.39L409.167 180.702ZM0.816595 -2.61137L45.3502 -28.3206L89.8456 -2.63339L45.312 23.0759L0.816595 -2.61137ZM46.1845 23.5795L90.7181 -2.12972L135.214 23.5575L90.6799 49.2667L46.1845 23.5795ZM91.5524 49.7704L136.086 24.0612L180.581 49.7484L136.048 75.4576L91.5524 49.7704ZM136.92 75.9613L181.454 50.2521L225.949 75.9393L181.416 101.649L136.92 75.9613ZM182.288 102.152L226.822 76.443L271.317 102.13L226.784 127.839L182.288 102.152ZM227.656 128.343L272.19 102.634L316.685 128.321L272.152 154.03L227.656 128.343ZM273.024 154.534L317.558 128.825L362.053 154.512L317.519 180.221L273.024 154.534ZM318.392 180.725L362.926 155.016L407.421 180.703L362.887 206.412L318.392 180.725ZM363.76 206.916L408.293 181.207L452.789 206.894L408.255 232.603L363.76 206.916ZM-44.5902 23.602L-0.0566281 -2.10726L44.4388 23.58L-0.0947793 49.2892L-44.5902 23.602ZM0.77768 49.7929L45.3113 24.0836L89.8067 49.7709L45.2731 75.4801L0.77768 49.7929ZM46.1456 75.9838L90.6792 50.2745L135.175 75.9617L90.641 101.671L46.1456 75.9838ZM91.5135 102.175L136.047 76.4654L180.543 102.153L136.009 127.862L91.5135 102.175ZM136.881 128.366L181.415 102.656L225.91 128.344L181.377 154.053L136.881 128.366ZM182.249 154.556L226.783 128.847L271.278 154.534L226.745 180.244L182.249 154.556ZM227.617 180.747L272.151 155.038L316.646 180.725L272.113 206.435L227.617 180.747ZM272.985 206.938L317.519 181.229L362.014 206.916L317.481 232.625L272.985 206.938ZM318.353 233.129L362.887 207.42L407.382 233.107L362.848 258.816L318.353 233.129ZM-89.997 49.8153L-45.4634 24.1061L-0.967991 49.7933L-45.5016 75.5026L-89.997 49.8153ZM-44.6291 76.0062L-0.0955321 50.297L44.3999 75.9842L-0.133683 101.693L-44.6291 76.0062ZM0.738776 102.197L45.2724 76.4879L89.7678 102.175L45.2342 127.884L0.738776 102.197ZM46.1067 128.388L90.6403 102.679L135.136 128.366L90.6021 154.075L46.1067 128.388ZM91.4746 154.579L136.008 128.87L180.504 154.557L135.97 180.266L91.4746 154.579ZM136.842 180.77L181.376 155.061L225.872 180.748L181.338 206.457L136.842 180.77ZM182.21 206.961L226.744 181.251L271.239 206.939L226.706 232.648L182.21 206.961ZM227.578 233.152L272.112 207.442L316.607 233.13L272.074 258.839L227.578 233.152ZM272.946 259.342L317.48 233.633L361.975 259.32L317.442 285.03L272.946 259.342ZM-135.404 76.0287L-90.8702 50.3194L-46.3748 76.0067L-90.9084 101.716L-135.404 76.0287ZM-90.0359 102.22L-45.5023 76.5103L-1.00689 102.198L-45.5405 127.907L-90.0359 102.22ZM-44.668 128.41L-0.134435 102.701L44.361 128.388L-0.172583 154.098L-44.668 128.41ZM0.69987 154.601L45.2335 128.892L89.7289 154.579L45.1953 180.289L0.69987 154.601ZM46.0678 180.792L90.6014 155.083L135.097 180.77L90.5632 206.479L46.0678 180.792ZM91.4357 206.983L135.969 181.274L180.465 206.961L135.931 232.67L91.4357 206.983ZM136.804 233.174L181.337 207.465L225.833 233.152L181.299 258.861L136.804 233.174ZM182.171 259.365L226.705 233.656L271.201 259.343L226.667 285.052L182.171 259.365ZM227.539 285.556L272.073 259.847L316.568 285.534L272.035 311.243L227.539 285.556ZM-180.811 102.242L-136.277 76.5328L-91.7816 102.22L-136.315 127.929L-180.811 102.242ZM-135.443 128.433L-90.9092 102.724L-46.4137 128.411L-90.9473 154.12L-135.443 128.433ZM-90.0748 154.624L-45.5412 128.915L-1.04579 154.602L-45.5794 180.311L-90.0748 154.624ZM-44.7069 180.815L-0.173342 155.105L44.3221 180.793L-0.211492 206.502L-44.7069 180.815ZM0.660973 207.006L45.1946 181.296L89.69 206.984L45.1564 232.693L0.660973 207.006ZM46.0289 233.196L90.5625 207.487L135.058 233.174L90.5243 258.884L46.0289 233.196ZM91.3968 259.387L135.93 233.678L180.426 259.365L135.892 285.075L91.3968 259.387ZM136.765 285.578L181.298 259.869L225.794 285.556L181.26 311.265L136.765 285.578ZM182.133 311.769L226.666 286.06L271.162 311.747L226.628 337.456L182.133 311.769ZM-226.217 128.455L-181.684 102.746L-137.188 128.433L-181.722 154.143L-226.217 128.455ZM-180.85 154.646L-136.316 128.937L-91.8205 154.624L-136.354 180.333L-180.85 154.646ZM-135.482 180.837L-90.9481 155.128L-46.4526 180.815L-90.9862 206.524L-135.482 180.837ZM-90.1138 207.028L-45.5802 181.319L-1.0847 207.006L-45.6183 232.715L-90.1138 207.028ZM-44.7458 233.219L-0.212236 207.51L44.2832 233.197L-0.250399 258.906L-44.7458 233.219ZM0.622065 259.41L45.1557 233.701L89.6511 259.388L45.1175 285.097L0.622065 259.41ZM45.99 285.601L90.5236 259.891L135.019 285.579L90.4854 311.288L45.99 285.601ZM91.3579 311.792L135.891 286.082L180.387 311.77L135.853 337.479L91.3579 311.792ZM136.726 337.982L181.259 312.273L225.755 337.96L181.221 363.67L136.726 337.982Z" fill="#C7C9D9"/>
<path d="M-92.6924 154.624L-90.946 153.616L-89.2011 154.623L-90.9475 155.631L-92.6924 154.624ZM-181.683 103.25L-179.937 102.241L-181.682 101.234L-183.428 102.242L-181.683 103.25ZM-45.5601 155.62L-43.8137 154.612L-45.5586 153.605L-47.305 154.613L-45.5601 155.62ZM-136.315 129.44L-134.569 128.432L-136.314 127.425L-138.06 128.433L-136.315 129.44ZM-90.928 129.429L-89.1816 128.421L-90.9265 127.414L-92.6729 128.422L-90.928 129.429ZM-181.703 129.452L-179.956 128.443L-181.701 127.436L-183.448 128.444L-181.703 129.452ZM-136.354 181.845L-134.608 180.836L-136.353 179.829L-138.099 180.837L-136.354 181.845ZM-90.9669 181.833L-89.2205 180.825L-90.9654 179.818L-92.7118 180.826L-90.9669 181.833ZM-181.721 153.638L-183.467 154.646L-181.722 155.654L-179.976 154.646L-181.721 153.638ZM-136.335 155.643L-134.588 154.634L-136.333 153.627L-138.08 154.635L-136.335 155.643ZM-90.8891 77.0249L-89.1427 76.0167L-90.8876 75.0094L-92.634 76.0176L-90.8891 77.0249ZM-136.296 103.238L-134.55 102.23L-136.294 101.223L-138.041 102.231L-136.296 103.238ZM-45.5212 103.216L-43.7748 102.208L-45.5197 101.2L-47.2661 102.208L-45.5212 103.216ZM-0.153314 129.407L1.5931 128.399L-0.15182 127.391L-1.89823 128.399L-0.153314 129.407ZM-45.5407 129.418L-43.7943 128.41L-45.5392 127.402L-47.2856 128.411L-45.5407 129.418ZM-90.9086 103.227L-89.1622 102.219L-90.9071 101.212L-92.6535 102.22L-90.9086 103.227ZM-136.276 77.0362L-134.53 76.028L-136.275 75.0206L-138.021 76.0288L-136.276 77.0362ZM-230.579 125.937L-231.452 126.441L-227.962 128.455L-231.455 130.472L-230.583 130.975L-227.09 128.959L-223.6 130.974L-222.727 130.47L-226.216 128.455L-222.724 126.438L-223.596 125.935L-227.089 127.951L-230.579 125.937ZM45.2729 76.9913L47.0193 75.983L45.2744 74.9757L43.528 75.9839L45.2729 76.9913ZM-45.4629 24.6095L-43.7164 23.6013L-45.4614 22.5939L-47.2078 23.6022L-45.4629 24.6095ZM90.6603 76.98L92.4067 75.9718L90.6618 74.9645L88.9154 75.9727L90.6603 76.98ZM-0.094972 50.8004L1.65145 49.7922L-0.0934663 48.7848L-1.83989 49.793L-0.094972 50.8004ZM45.2924 50.7891L47.0388 49.7809L45.2939 48.7736L43.5475 49.7818L45.2924 50.7891ZM-45.4823 50.8116L-43.7359 49.8034L-45.4808 48.7961L-47.2272 49.8043L-45.4823 50.8116ZM-0.133872 103.205L1.61254 102.196L-0.132378 101.189L-1.87879 102.197L-0.133872 103.205ZM45.2535 103.193L46.9999 102.185L45.255 101.178L43.5086 102.186L45.2535 103.193ZM-45.5003 74.9982L-47.2467 76.0064L-45.5018 77.0137L-43.7554 76.0055L-45.5003 74.9982ZM-0.114419 77.0025L1.63199 75.9943L-0.112925 74.9869L-1.85934 75.9951L-0.114419 77.0025ZM45.3313 -1.61509L47.0777 -2.62328L45.3328 -3.63062L43.5864 -2.62243L45.3313 -1.61509ZM-0.075516 24.5983L1.67091 23.5901L-0.0740104 22.5827L-1.82043 23.5909L-0.075516 24.5983ZM90.6992 24.5758L92.4456 23.5676L90.7007 22.5603L88.9543 23.5685L90.6992 24.5758ZM136.067 50.7667L137.813 49.7585L136.069 48.7511L134.322 49.7593L136.067 50.7667ZM90.6797 50.7779L92.4261 49.7697L90.6812 48.7624L88.9348 49.7706L90.6797 50.7779ZM45.3118 24.587L47.0582 23.5788L45.3133 22.5715L43.5669 23.5797L45.3118 24.587ZM-0.0560715 -1.60385L1.69035 -2.61206L-0.0545669 -3.6194L-1.80099 -2.61119L-0.0560715 -1.60385ZM-94.3584 47.2965L-95.2316 47.8006L-91.7418 49.8153L-95.2346 51.8317L-94.3621 52.3354L-90.8693 50.3189L-87.3795 52.3336L-86.5062 51.8295L-89.9961 49.8148L-86.5032 47.7984L-87.3757 47.2948L-90.8685 49.3112L-94.3584 47.2965ZM181.493 -1.64878L183.24 -2.65697L181.495 -3.66431L179.748 -2.65612L181.493 -1.64878ZM90.7575 -54.0305L92.5039 -55.0387L90.759 -56.0461L89.0126 -55.0379L90.7575 -54.0305ZM226.881 -1.66L228.627 -2.66821L226.882 -3.67555L225.136 -2.66734L226.881 -1.66ZM136.125 -27.8397L137.872 -28.8479L136.127 -29.8552L134.381 -28.847L136.125 -27.8397ZM181.513 -27.8509L183.259 -28.8591L181.514 -29.8664L179.768 -28.8582L181.513 -27.8509ZM90.7381 -27.8284L92.4845 -28.8366L90.7396 -29.844L88.9932 -28.8358L90.7381 -27.8284ZM136.087 24.5646L137.833 23.5564L136.088 22.549L134.342 23.5572L136.087 24.5646ZM181.474 24.5533L183.22 23.5451L181.475 22.5378L179.729 23.546L181.474 24.5533ZM90.7201 -3.64186L88.9737 -2.63365L90.7186 -1.62631L92.4651 -2.63452L90.7201 -3.64186ZM136.106 -1.63754L137.852 -2.64575L136.107 -3.65309L134.361 -2.64488L136.106 -1.63754ZM181.552 -80.2551L183.298 -81.2633L181.553 -82.2707L179.807 -81.2625L181.552 -80.2551ZM272.307 -54.0755L274.053 -55.0837L272.308 -56.091L270.562 -55.0828L272.307 -54.0755ZM226.941 -82.2819L225.194 -81.2737L226.939 -80.2663L228.685 -81.2745L226.941 -82.2819ZM136.145 -54.0418L137.891 -55.05L136.146 -56.0573L134.4 -55.0491L136.145 -54.0418ZM226.92 -54.0642L228.666 -55.0724L226.921 -56.0798L225.175 -55.0716L226.92 -54.0642ZM272.287 -27.8733L274.034 -28.8815L272.289 -29.8889L270.543 -28.8807L272.287 -27.8733ZM226.9 -27.8621L228.647 -28.8703L226.902 -29.8777L225.155 -28.8695L226.9 -27.8621ZM181.532 -54.053L183.279 -55.0612L181.534 -56.0685L179.787 -55.0603L181.532 -54.053ZM136.164 -80.2439L137.911 -81.2521L136.166 -82.2594L134.419 -81.2512L136.164 -80.2439ZM181.572 -107.969L178.082 -109.984L177.209 -109.479L180.699 -107.465L177.206 -105.448L178.079 -104.945L181.572 -106.961L185.061 -104.946L185.935 -105.451L182.445 -107.465L185.938 -109.482L185.065 -109.985L181.572 -107.969ZM41.862 -31.3435L40.9888 -30.8394L44.4786 -28.8248L40.9858 -26.8083L41.8583 -26.3047L45.3511 -28.3211L48.8409 -26.3064L49.7142 -26.8105L46.2243 -28.8252L49.7172 -30.8416L48.8447 -31.3453L45.3519 -29.3289L41.862 -31.3435ZM45.1562 234.204L46.9026 233.196L45.1577 232.188L43.4113 233.197L45.1562 234.204ZM-45.5796 181.822L-43.8332 180.814L-45.5781 179.807L-47.3245 180.815L-45.5796 181.822ZM90.5436 234.193L92.29 233.184L90.5451 232.177L88.7986 233.185L90.5436 234.193ZM-0.211685 208.013L1.53473 207.005L-0.210185 205.998L-1.9566 207.006L-0.211685 208.013ZM45.1757 208.002L46.9221 206.994L45.1772 205.986L43.4307 206.994L45.1757 208.002ZM-45.599 208.024L-43.8526 207.016L-45.5975 206.009L-47.3439 207.017L-45.599 208.024ZM-0.250583 260.417L1.49583 259.409L-0.249097 258.402L-1.99551 259.41L-0.250583 260.417ZM45.1368 260.406L46.8832 259.398L45.1383 258.39L43.3918 259.399L45.1368 260.406ZM-45.617 232.211L-47.3634 233.219L-45.6185 234.226L-43.8721 233.218L-45.617 232.211ZM-0.231127 234.215L1.51529 233.207L-0.229641 232.2L-1.97606 233.208L-0.231127 234.215ZM45.2146 155.598L46.961 154.589L45.2161 153.582L43.4697 154.59L45.2146 155.598ZM-0.192232 181.811L1.55419 180.803L-0.190732 179.795L-1.93715 180.804L-0.192232 181.811ZM90.5825 181.788L92.3289 180.78L90.584 179.773L88.8376 180.781L90.5825 181.788ZM135.95 207.979L137.697 206.971L135.952 205.964L134.205 206.972L135.95 207.979ZM90.563 207.991L92.3094 206.982L90.5645 205.975L88.8181 206.983L90.563 207.991ZM45.1951 181.8L46.9415 180.792L45.1966 179.784L43.4502 180.792L45.1951 181.8ZM-0.172773 155.609L1.57364 154.601L-0.171279 153.593L-1.91769 154.601L-0.172773 155.609ZM-94.4751 204.509L-95.3483 205.013L-91.8585 207.028L-95.3513 209.044L-94.4788 209.548L-90.986 207.532L-87.4962 209.546L-86.623 209.042L-90.1128 207.028L-86.62 205.011L-87.4924 204.507L-90.9853 206.524L-94.4751 204.509ZM181.377 155.564L183.123 154.556L181.378 153.548L179.632 154.557L181.377 155.564ZM90.6408 103.182L92.3872 102.174L90.6423 101.167L88.8959 102.175L90.6408 103.182ZM226.764 155.553L228.51 154.544L226.765 153.537L225.019 154.545L226.764 155.553ZM136.009 129.373L137.755 128.365L136.01 127.357L134.264 128.366L136.009 129.373ZM181.396 129.362L183.143 128.354L181.398 127.346L179.651 128.354L181.396 129.362ZM90.6214 129.384L92.3678 128.376L90.6229 127.369L88.8765 128.377L90.6214 129.384ZM135.97 181.777L137.716 180.769L135.971 179.762L134.225 180.77L135.97 181.777ZM181.357 181.766L183.104 180.758L181.359 179.75L179.612 180.759L181.357 181.766ZM90.6034 153.571L88.857 154.579L90.6019 155.586L92.3483 154.578L90.6034 153.571ZM135.989 155.575L137.736 154.567L135.991 153.56L134.244 154.568L135.989 155.575ZM181.435 76.9576L183.181 75.9494L181.436 74.942L179.69 75.9502L181.435 76.9576ZM136.028 103.171L137.775 102.163L136.03 101.155L134.283 102.164L136.028 103.171ZM226.803 103.148L228.549 102.14L226.804 101.133L225.058 102.141L226.803 103.148ZM272.171 129.339L273.917 128.331L272.172 127.324L270.426 128.332L272.171 129.339ZM226.783 129.351L228.53 128.342L226.785 127.335L225.038 128.343L226.783 129.351ZM181.416 103.16L183.162 102.151L181.417 101.144L179.671 102.152L181.416 103.16ZM136.048 76.9688L137.794 75.9606L136.049 74.9533L134.303 75.9615L136.048 76.9688ZM41.7453 125.869L40.8721 126.373L44.3619 128.388L40.8691 130.404L41.7416 130.908L45.2344 128.892L48.7242 130.906L49.5974 130.402L46.1076 128.387L49.6004 126.371L48.728 125.867L45.2352 127.884L41.7453 125.869ZM317.597 76.9239L319.343 75.9157L317.599 74.9083L315.852 75.9165L317.597 76.9239ZM226.861 24.5421L228.608 23.5339L226.863 22.5266L225.116 23.5348L226.861 24.5421ZM362.984 76.9126L364.731 75.9044L362.986 74.8971L361.239 75.9053L362.984 76.9126ZM272.229 50.733L273.976 49.7248L272.231 48.7175L270.484 49.7256L272.229 50.733ZM317.616 50.7218L319.363 49.7136L317.618 48.7062L315.872 49.7144L317.616 50.7218ZM226.842 50.7442L228.588 49.736L226.843 48.7287L225.097 49.7369L226.842 50.7442ZM272.19 103.137L273.937 102.129L272.192 101.122L270.445 102.13L272.19 103.137ZM317.578 103.126L319.324 102.118L317.579 101.11L315.833 102.119L317.578 103.126ZM226.824 74.9308L225.077 75.939L226.822 76.9463L228.569 75.9381L226.824 74.9308ZM272.21 76.9351L273.956 75.9269L272.211 74.9196L270.465 75.9278L272.21 76.9351ZM317.655 -1.68247L319.402 -2.69066L317.657 -3.698L315.91 -2.68981L317.655 -1.68247ZM408.411 24.4972L410.157 23.489L408.412 22.4816L406.666 23.4898L408.411 24.4972ZM363.044 -3.70923L361.298 -2.70103L363.043 -1.69369L364.789 -2.70189L363.044 -3.70923ZM272.249 24.5309L273.995 23.5227L272.25 22.5153L270.504 23.5235L272.249 24.5309ZM363.023 24.5084L364.77 23.5002L363.025 22.4929L361.278 23.5011L363.023 24.5084ZM408.391 50.6993L410.138 49.6911L408.393 48.6838L406.646 49.692L408.391 50.6993ZM363.004 50.7105L364.75 49.7023L363.005 48.695L361.259 49.7032L363.004 50.7105ZM317.636 24.5197L319.382 23.5114L317.637 22.5041L315.891 23.5123L317.636 24.5197ZM272.268 -1.67123L274.014 -2.67944L272.27 -3.68678L270.523 -2.67857L272.268 -1.67123ZM314.186 -31.4109L313.313 -30.9068L316.803 -28.8921L313.31 -26.8757L314.182 -26.3721L317.675 -28.3885L321.165 -26.3738L322.038 -26.8779L318.548 -28.8926L322.041 -30.909L321.169 -31.4126L317.676 -29.3962L314.186 -31.4109ZM177.966 47.2291L177.092 47.7332L180.582 49.7479L177.09 51.7643L177.962 52.268L181.455 50.2516L184.945 52.2663L185.818 51.7621L182.328 49.7475L185.821 47.7311L184.948 47.2274L181.456 49.2438L177.966 47.2291ZM226.628 338.967L228.374 337.959L226.629 336.952L224.883 337.96L226.628 338.967ZM181.26 312.777L183.006 311.768L181.261 310.761L179.515 311.769L181.26 312.777ZM90.5241 260.395L92.2705 259.387L90.5256 258.379L88.7792 259.387L90.5241 260.395ZM226.647 312.765L228.394 311.757L226.649 310.75L224.902 311.758L226.647 312.765ZM135.892 286.586L137.638 285.577L135.894 284.57L134.147 285.578L135.892 286.586ZM181.279 286.574L183.026 285.566L181.281 284.559L179.534 285.567L181.279 286.574ZM90.5047 286.597L92.2511 285.589L90.5062 284.581L88.7598 285.59L90.5047 286.597ZM135.853 338.99L137.6 337.982L135.855 336.974L134.108 337.983L135.853 338.99ZM181.24 338.979L182.987 337.97L181.242 336.963L179.496 337.971L181.24 338.979ZM90.4867 310.783L88.7403 311.792L90.4852 312.799L92.2316 311.791L90.4867 310.783ZM135.873 312.788L137.619 311.78L135.874 310.772L134.128 311.78L135.873 312.788ZM181.318 234.17L183.065 233.162L181.32 232.155L179.573 233.163L181.318 234.17ZM135.911 260.384L137.658 259.375L135.913 258.368L134.167 259.376L135.911 260.384ZM226.686 260.361L228.433 259.353L226.688 258.346L224.941 259.354L226.686 260.361ZM272.054 286.552L273.8 285.544L272.056 284.536L270.309 285.545L272.054 286.552ZM272.035 312.754L273.781 311.746L272.036 310.739L270.29 311.747L272.035 312.754ZM226.667 286.563L228.413 285.555L226.668 284.548L224.922 285.556L226.667 286.563ZM181.299 260.372L183.045 259.364L181.3 258.357L179.554 259.365L181.299 260.372ZM135.931 234.181L137.677 233.173L135.932 232.166L134.186 233.174L135.931 234.181ZM41.6286 283.082L40.7554 283.586L44.2452 285.601L40.7524 287.617L41.6248 288.121L45.1177 286.104L48.6075 288.119L49.4807 287.615L45.9909 285.6L49.4837 283.584L48.6113 283.08L45.1184 285.096L41.6286 283.082ZM177.732 361.654L176.859 362.159L180.349 364.173L176.856 366.19L177.729 366.693L181.221 364.677L184.711 366.692L185.584 366.188L182.095 364.173L185.587 362.156L184.715 361.653L181.222 363.669L177.732 361.654ZM362.848 260.327L364.595 259.319L362.85 258.312L361.103 259.32L362.848 260.327ZM317.48 234.137L319.227 233.128L317.482 232.121L315.735 233.129L317.48 234.137ZM226.745 181.755L228.491 180.747L226.746 179.739L225 180.747L226.745 181.755ZM362.868 234.125L364.614 233.117L362.869 232.11L361.123 233.118L362.868 234.125ZM272.112 207.946L273.859 206.937L272.114 205.93L270.367 206.938L272.112 207.946ZM317.5 207.934L319.246 206.926L317.501 205.919L315.755 206.927L317.5 207.934ZM226.725 207.957L228.471 206.949L226.727 205.941L224.98 206.95L226.725 207.957ZM272.074 260.35L273.82 259.342L272.075 258.334L270.329 259.343L272.074 260.35ZM317.461 260.339L319.207 259.33L317.462 258.323L315.716 259.331L317.461 260.339ZM226.707 232.143L224.961 233.152L226.706 234.159L228.452 233.151L226.707 232.143ZM272.093 234.148L273.839 233.14L272.094 232.132L270.348 233.14L272.093 234.148ZM317.539 155.53L319.285 154.522L317.54 153.515L315.794 154.523L317.539 155.53ZM272.132 181.744L273.878 180.735L272.133 179.728L270.387 180.736L272.132 181.744ZM362.907 181.721L364.653 180.713L362.908 179.706L361.162 180.714L362.907 181.721ZM408.274 207.912L410.021 206.904L408.276 205.896L406.53 206.905L408.274 207.912ZM408.255 234.114L410.001 233.106L408.256 232.099L406.51 233.107L408.255 234.114ZM362.887 207.923L364.634 206.915L362.889 205.908L361.142 206.916L362.887 207.923ZM317.519 181.732L319.266 180.724L317.521 179.717L315.774 180.725L317.519 181.732ZM272.151 155.541L273.898 154.533L272.153 153.526L270.406 154.534L272.151 155.541ZM177.849 204.442L176.976 204.946L180.466 206.961L176.973 208.977L177.845 209.481L181.338 207.464L184.828 209.479L185.701 208.975L182.211 206.96L185.704 204.944L184.832 204.44L181.339 206.456L177.849 204.442ZM313.953 283.014L313.079 283.519L316.569 285.533L313.077 287.55L313.949 288.053L317.442 286.037L320.932 288.052L321.805 287.547L318.315 285.533L321.808 283.516L320.935 283.013L317.443 285.029L313.953 283.014ZM499.069 181.687L500.815 180.679L499.07 179.672L497.324 180.68L499.069 181.687ZM453.701 155.497L455.447 154.488L453.702 153.481L451.956 154.489L453.701 155.497ZM362.965 103.115L364.711 102.107L362.966 101.099L361.22 102.107L362.965 103.115ZM499.088 155.485L500.834 154.477L499.09 153.47L497.343 154.478L499.088 155.485ZM408.333 129.306L410.079 128.297L408.334 127.29L406.588 128.298L408.333 129.306ZM453.72 129.294L455.467 128.286L453.722 127.279L451.975 128.287L453.72 129.294ZM362.945 129.317L364.692 128.309L362.947 127.301L361.201 128.31L362.945 129.317ZM408.294 181.71L410.04 180.702L408.295 179.694L406.549 180.703L408.294 181.71ZM453.681 181.699L455.428 180.69L453.683 179.683L451.936 180.691L453.681 181.699ZM362.928 153.503L361.181 154.512L362.926 155.519L364.672 154.511L362.928 153.503ZM408.313 155.508L410.06 154.5L408.315 153.492L406.568 154.5L408.313 155.508ZM453.759 76.8902L455.505 75.882L453.761 74.8746L452.014 75.8828L453.759 76.8902ZM544.514 103.07L546.261 102.062L544.516 101.054L542.769 102.062L544.514 103.07ZM499.148 74.8634L497.402 75.8716L499.146 76.879L500.893 75.8708L499.148 74.8634ZM408.352 103.104L410.099 102.095L408.354 101.088L406.607 102.096L408.352 103.104ZM499.127 103.081L500.873 102.073L499.128 101.066L497.382 102.074L499.127 103.081ZM544.495 129.272L546.241 128.264L544.496 127.256L542.75 128.265L544.495 129.272ZM544.475 155.474L546.222 154.466L544.477 153.459L542.73 154.467L544.475 155.474ZM499.108 129.283L500.854 128.275L499.109 127.268L497.363 128.276L499.108 129.283ZM453.74 103.092L455.486 102.084L453.741 101.077L451.995 102.085L453.74 103.092ZM408.372 76.9014L410.118 75.8932L408.373 74.8859L406.627 75.8941L408.372 76.9014ZM586.394 125.734L585.52 126.238L589.01 128.253L585.517 130.27L586.39 130.773L589.883 128.757L593.372 130.772L594.246 130.267L590.756 128.253L594.249 126.236L593.376 125.733L589.883 127.749L586.394 125.734ZM450.29 47.1617L449.417 47.6658L452.906 49.6805L449.414 51.6969L450.286 52.2006L453.779 50.1842L457.269 52.1989L458.142 51.6948L454.652 49.6801L458.145 47.6637L457.272 47.16L453.78 49.1764L450.29 47.1617ZM314.069 125.802L313.196 126.306L316.686 128.321L313.193 130.337L314.066 130.841L317.558 128.824L321.048 130.839L321.922 130.335L318.432 128.32L321.925 126.304L321.052 125.8L317.559 127.816L314.069 125.802ZM450.173 204.374L449.3 204.879L452.79 206.893L449.297 208.91L450.169 209.413L453.662 207.397L457.152 209.412L458.025 208.907L454.535 206.893L458.028 204.876L457.156 204.373L453.663 206.389L450.173 204.374Z" fill="#C7C9D9"/>
<g filter="url(#filter0_dd)">
<rect width="84.0609" height="84.0609" rx="18" transform="matrix(0.866044 0.499968 -0.866044 0.499968 181.855 61.6741)" fill="url(#paint1_linear)"/>
<rect width="84.0609" height="84.0609" rx="18" transform="matrix(0.866044 0.499968 -0.866044 0.499968 181.855 59)" fill="white"/>
</g>
</g>
<circle cx="182.055" cy="70" r="44" fill="#E3FFF1"/>
<path fill-rule="evenodd" clip-rule="evenodd" d="M204.43 46H158.68C154.468 46 151.055 49.4247 151.055 53.65V84.25C151.055 88.4753 154.468 91.9 158.68 91.9H180.284V94.45H172.659C171.957 94.45 171.388 95.0212 171.388 95.725C171.388 96.4288 171.957 97 172.659 97H190.451C191.152 97 191.721 96.4288 191.721 95.725C191.721 95.0212 191.152 94.45 190.451 94.45H182.826V91.9H204.43C208.641 91.9 212.055 88.4753 212.055 84.25V53.65C212.055 49.4247 208.641 46 204.43 46Z" fill="url(#paint2_linear)"/>
<g opacity="0.75" filter="url(#filter1_dd)">
<path fill-rule="evenodd" clip-rule="evenodd" d="M222.055 76.125C222.055 79.3651 219.445 82 216.237 82H163.873C160.664 82 158.055 79.3651 158.055 76.125V40.875C158.055 37.6349 160.664 35 163.873 35H216.237C219.445 35 222.055 37.6349 222.055 40.875V76.125Z" fill="#376C66"/>
</g>
<path fill-rule="evenodd" clip-rule="evenodd" d="M209.231 47.0984C209.068 47.0332 208.895 47 208.721 47H202.055C201.319 47 200.721 47.5724 200.721 48.2778C200.721 48.9831 201.319 49.5556 202.055 49.5556H205.503L192.722 61.8043L185.664 55.0411C185.143 54.5414 184.299 54.5414 183.779 55.0411L170.446 67.8188C169.924 68.3172 169.924 69.126 170.446 69.6256C170.706 69.8748 171.047 70 171.388 70C171.73 70 172.071 69.8748 172.331 69.6256L184.722 57.7512L191.779 64.5145C192.299 65.0128 193.143 65.0128 193.664 64.5145L207.388 51.3623V54.6667C207.388 55.372 207.985 55.9444 208.721 55.9444C209.457 55.9444 210.055 55.372 210.055 54.6667V48.2778C210.055 48.1117 210.019 47.9456 209.952 47.7897C209.816 47.4766 209.556 47.2274 209.231 47.0984Z" fill="white"/>
<defs>
<filter id="filter0_dd" x="114.187" y="62.2717" width="135.337" height="84.186" filterUnits="userSpaceOnUse" color-interpolation-filters="sRGB">
<feFlood flood-opacity="0" result="BackgroundImageFix"/>
<feColorMatrix in="SourceAlpha" type="matrix" values="0 0 0 0 0 0 0 0 0 0 0 0 0 0 0 0 0 0 127 0"/>
<feOffset dy="2"/>
<feGaussianBlur stdDeviation="2"/>
<feColorMatrix type="matrix" values="0 0 0 0 0.376471 0 0 0 0 0.380392 0 0 0 0 0.439216 0 0 0 0.16 0"/>
<feBlend mode="normal" in2="BackgroundImageFix" result="effect1_dropShadow"/>
<feColorMatrix in="SourceAlpha" type="matrix" values="0 0 0 0 0 0 0 0 0 0 0 0 0 0 0 0 0 0 127 0"/>
<feOffset/>
<feGaussianBlur stdDeviation="0.5"/>
<feColorMatrix type="matrix" values="0 0 0 0 0.156863 0 0 0 0 0.160784 0 0 0 0 0.239216 0 0 0 0.04 0"/>
<feBlend mode="normal" in2="effect1_dropShadow" result="effect2_dropShadow"/>
<feBlend mode="normal" in="SourceGraphic" in2="effect2_dropShadow" result="shape"/>
</filter>
<filter id="filter1_dd" x="154.055" y="33" width="72" height="55" filterUnits="userSpaceOnUse" color-interpolation-filters="sRGB">
<feFlood flood-opacity="0" result="BackgroundImageFix"/>
<feColorMatrix in="SourceAlpha" type="matrix" values="0 0 0 0 0 0 0 0 0 0 0 0 0 0 0 0 0 0 127 0"/>
<feOffset dy="2"/>
<feGaussianBlur stdDeviation="2"/>
<feColorMatrix type="matrix" values="0 0 0 0 0.376471 0 0 0 0 0.380392 0 0 0 0 0.439216 0 0 0 0.16 0"/>
<feBlend mode="normal" in2="BackgroundImageFix" result="effect1_dropShadow"/>
<feColorMatrix in="SourceAlpha" type="matrix" values="0 0 0 0 0 0 0 0 0 0 0 0 0 0 0 0 0 0 127 0"/>
<feOffset/>
<feGaussianBlur stdDeviation="0.5"/>
<feColorMatrix type="matrix" values="0 0 0 0 0.156863 0 0 0 0 0.160784 0 0 0 0 0.239216 0 0 0 0.04 0"/>
<feBlend mode="normal" in2="effect1_dropShadow" result="effect2_dropShadow"/>
<feBlend mode="normal" in="SourceGraphic" in2="effect2_dropShadow" result="shape"/>
</filter>
<radialGradient id="paint0_radial" cx="0" cy="0" r="1" gradientUnits="userSpaceOnUse" gradientTransform="translate(111.685 100.761) rotate(93.632) scale(109.016 102.123)">
<stop offset="0.744792" stop-color="#C4C4C4"/>
<stop offset="1" stop-color="#C4C4C4" stop-opacity="0"/>
</radialGradient>
<linearGradient id="paint1_linear" x1="-0.383015" y1="13.1213" x2="87.3745" y2="24.5005" gradientUnits="userSpaceOnUse">
<stop stop-color="#E4E4EB"/>
<stop offset="1" stop-color="#EDF0F4"/>
</linearGradient>
<linearGradient id="paint2_linear" x1="181.555" y1="46" x2="181.555" y2="97" gradientUnits="userSpaceOnUse">
<stop stop-color="#3BC882" stop-opacity="0"/>
<stop offset="1" stop-color="#3BC882"/>
</linearGradient>
</defs>
</svg>
