<svg width="855" height="483" viewBox="0 0 855 483" fill="none" xmlns="http://www.w3.org/2000/svg">
<g opacity="0.45">
<mask id="mask0" mask-type="alpha" maskUnits="userSpaceOnUse" x="119" y="68" width="577" height="334">
<circle r="235.199" transform="matrix(0.866044 -0.499967 0.866044 0.499967 407.386 235.184)" fill="url(#paint0_radial)"/>
</mask>
<g mask="url(#mask0)">
<path opacity="0.15" d="M452.572 445.102L453.446 444.598L497.979 418.889L498.852 418.385L543.386 392.675L544.259 392.171L588.793 366.462L589.666 365.958L634.2 340.249L635.073 339.745L679.606 314.035L680.48 313.531L725.013 287.822L725.886 287.318L770.42 261.609L771.293 261.105L815.827 235.395L816.7 234.891L815.827 234.388L771.332 208.7L770.46 208.197L725.964 182.509L725.092 182.006L680.596 156.319L679.724 155.815L635.228 130.128L634.356 129.624L589.86 103.937L588.988 103.433L544.493 77.7459L543.62 77.2422L499.125 51.555L498.252 51.0513L453.757 25.3641L452.884 24.8604L408.389 -0.826813L407.516 -1.33048L406.643 -0.826382L271.296 77.3096L270.423 77.8137L135.076 155.95L134.202 156.454L-2.01807 235.094L134.086 313.666L134.958 314.17L270.189 392.239L271.062 392.743L406.293 470.812L407.165 471.315L408.039 470.811L452.572 445.102ZM362.982 25.3865L407.516 -0.322711L452.011 25.3645L407.477 51.0738L362.982 25.3865ZM408.35 51.5774L452.884 25.8682L497.379 51.5554L452.845 77.2646L408.35 51.5774ZM453.718 77.7683L498.251 52.0591L542.747 77.7463L498.213 103.456L453.718 77.7683ZM499.086 103.959L543.619 78.25L588.115 103.937L543.581 129.646L499.086 103.959ZM544.454 130.15L588.987 104.441L633.483 130.128L588.949 155.837L544.454 130.15ZM589.822 156.341L634.355 130.632L678.851 156.319L634.317 182.028L589.822 156.341ZM635.189 182.532L679.723 156.823L724.218 182.51L679.685 208.219L635.189 182.532ZM680.557 208.723L725.091 183.014L769.586 208.701L725.053 234.41L680.557 208.723ZM725.925 234.914L770.459 209.204L814.954 234.892L770.421 260.601L725.925 234.914ZM317.575 51.5999L362.109 25.8906L406.604 51.5779L362.071 77.2871L317.575 51.5999ZM362.943 77.7908L407.477 52.0815L451.972 77.7688L407.439 103.478L362.943 77.7908ZM408.311 103.982L452.845 78.2724L497.34 103.96L452.806 129.669L408.311 103.982ZM453.679 130.173L498.213 104.463L542.708 130.151L498.174 155.86L453.679 130.173ZM499.047 156.363L543.58 130.654L588.076 156.341L543.542 182.051L499.047 156.363ZM544.415 182.554L588.948 156.845L633.444 182.532L588.91 208.242L544.415 182.554ZM589.783 208.745L634.316 183.036L678.812 208.723L634.278 234.432L589.783 208.745ZM635.151 234.936L679.684 209.227L724.18 234.914L679.646 260.623L635.151 234.936ZM680.518 261.127L725.052 235.418L769.547 261.105L725.014 286.814L680.518 261.127ZM272.168 77.8132L316.702 52.104L361.197 77.7912L316.664 103.5L272.168 77.8132ZM317.536 104.004L362.07 78.2949L406.565 103.982L362.032 129.691L317.536 104.004ZM362.904 130.195L407.438 104.486L451.933 130.173L407.4 155.882L362.904 130.195ZM408.272 156.386L452.806 130.677L497.301 156.364L452.768 182.073L408.272 156.386ZM453.64 182.577L498.174 156.868L542.669 182.555L498.135 208.264L453.64 182.577ZM499.008 208.768L543.542 183.058L588.037 208.746L543.503 234.455L499.008 208.768ZM544.376 234.959L588.909 209.249L633.405 234.937L588.871 260.646L544.376 234.959ZM589.744 261.149L634.277 235.44L678.773 261.127L634.239 286.837L589.744 261.149ZM635.112 287.34L679.645 261.631L724.141 287.318L679.607 313.028L635.112 287.34ZM226.762 104.027L271.295 78.3173L315.791 104.005L271.257 129.714L226.762 104.027ZM272.13 130.217L316.663 104.508L361.159 130.195L316.625 155.905L272.13 130.217ZM317.497 156.408L362.031 130.699L406.526 156.386L361.993 182.096L317.497 156.408ZM362.865 182.599L407.399 156.89L451.894 182.577L407.361 208.286L362.865 182.599ZM408.233 208.79L452.767 183.081L497.262 208.768L452.729 234.477L408.233 208.79ZM453.601 234.981L498.135 209.272L542.63 234.959L498.097 260.668L453.601 234.981ZM498.969 261.172L543.503 235.463L587.998 261.15L543.464 286.859L498.969 261.172ZM544.337 287.363L588.871 261.654L633.366 287.341L588.832 313.05L544.337 287.363ZM589.705 313.554L634.238 287.844L678.734 313.532L634.2 339.241L589.705 313.554ZM181.355 130.24L225.888 104.531L270.384 130.218L225.85 155.927L181.355 130.24ZM226.723 156.431L271.256 130.722L315.752 156.409L271.218 182.118L226.723 156.431ZM272.091 182.622L316.624 156.912L361.12 182.6L316.586 208.309L272.091 182.622ZM317.459 208.813L361.992 183.103L406.488 208.791L361.954 234.5L317.459 208.813ZM362.826 235.003L407.36 209.294L451.855 234.981L407.322 260.691L362.826 235.003ZM408.194 261.194L452.728 235.485L497.223 261.172L452.69 286.882L408.194 261.194ZM453.562 287.385L498.096 261.676L542.591 287.363L498.058 313.072L453.562 287.385ZM498.93 313.576L543.464 287.867L587.959 313.554L543.426 339.263L498.93 313.576ZM544.298 339.767L588.832 314.058L633.327 339.745L588.793 365.454L544.298 339.767ZM135.948 156.453L180.482 130.744L224.977 156.431L180.443 182.14L135.948 156.453ZM181.316 182.644L225.849 156.935L270.345 182.622L225.811 208.331L181.316 182.644ZM226.684 208.835L271.217 183.126L315.713 208.813L271.179 234.522L226.684 208.835ZM272.052 235.026L316.585 209.317L361.081 235.004L316.547 260.713L272.052 235.026ZM317.42 261.217L361.953 235.508L406.449 261.195L361.915 286.904L317.42 261.217ZM362.788 287.408L407.321 261.698L451.817 287.386L407.283 313.095L362.788 287.408ZM408.155 313.599L452.689 287.889L497.184 313.577L452.651 339.286L408.155 313.599ZM453.523 339.79L498.057 314.08L542.552 339.767L498.019 365.477L453.523 339.79ZM498.891 365.98L543.425 340.271L587.92 365.958L543.387 391.668L498.891 365.98ZM90.5412 182.667L135.075 156.957L179.57 182.645L135.037 208.354L90.5412 182.667ZM135.909 208.858L180.443 183.148L224.938 208.835L180.405 234.545L135.909 208.858ZM181.277 235.048L225.811 209.339L270.306 235.026L225.772 260.736L181.277 235.048ZM226.645 261.239L271.179 235.53L315.674 261.217L271.14 286.927L226.645 261.239ZM272.013 287.43L316.546 261.721L361.042 287.408L316.508 313.117L272.013 287.43ZM317.381 313.621L361.914 287.912L406.41 313.599L361.876 339.308L317.381 313.621ZM362.749 339.812L407.282 314.103L451.778 339.79L407.244 365.499L362.749 339.812ZM408.117 366.003L452.65 340.294L497.146 365.981L452.612 391.69L408.117 366.003ZM453.484 392.194L498.018 366.485L542.513 392.172L497.98 417.881L453.484 392.194ZM45.1344 208.88L89.668 183.171L134.163 208.858L89.6298 234.567L45.1344 208.88ZM90.5023 235.071L135.036 209.362L179.531 235.049L134.998 260.758L90.5023 235.071ZM135.87 261.262L180.404 235.553L224.899 261.24L180.366 286.949L135.87 261.262ZM181.238 287.453L225.772 261.743L270.267 287.431L225.734 313.14L181.238 287.453ZM226.606 313.644L271.14 287.934L315.635 313.622L271.101 339.331L226.606 313.644ZM271.974 339.834L316.508 314.125L361.003 339.812L316.469 365.522L271.974 339.834ZM317.342 366.025L361.875 340.316L406.371 366.003L361.837 391.713L317.342 366.025ZM362.71 392.216L407.243 366.507L451.739 392.194L407.205 417.903L362.71 392.216ZM408.078 418.407L452.611 392.698L497.107 418.385L452.573 444.094L408.078 418.407ZM-0.272399 235.093L44.2612 209.384L88.7566 235.071L44.223 260.781L-0.272399 235.093ZM45.0955 261.284L89.6291 235.575L134.125 261.262L89.5909 286.971L45.0955 261.284ZM90.4634 287.475L134.997 261.766L179.492 287.453L134.959 313.162L90.4634 287.475ZM135.831 313.666L180.365 287.957L224.86 313.644L180.327 339.353L135.831 313.666ZM181.199 339.857L225.733 314.148L270.228 339.835L225.695 365.544L181.199 339.857ZM226.567 366.048L271.101 340.339L315.596 366.026L271.063 391.735L226.567 366.048ZM271.935 392.239L316.469 366.529L360.964 392.217L316.43 417.926L271.935 392.239ZM317.303 418.43L361.837 392.72L406.332 418.408L361.798 444.117L317.303 418.43ZM362.671 444.62L407.204 418.911L451.7 444.598L407.166 470.308L362.671 444.62Z" fill="#8F90A6"/>
<path d="M133.252 261.262L134.999 260.253L136.744 261.261L134.997 262.269L133.252 261.262ZM44.2616 209.887L46.008 208.879L44.263 207.872L42.5166 208.88L44.2616 209.887ZM180.385 262.258L182.131 261.25L180.386 260.242L178.64 261.25L180.385 262.258ZM89.6294 236.078L91.3759 235.07L89.6309 234.063L87.8845 235.071L89.6294 236.078ZM135.017 236.067L136.763 235.059L135.018 234.051L133.272 235.06L135.017 236.067ZM44.2421 236.089L45.9885 235.081L44.2436 234.074L42.4972 235.082L44.2421 236.089ZM89.5905 288.482L91.3369 287.474L89.592 286.467L87.8456 287.475L89.5905 288.482ZM134.978 288.471L136.724 287.463L134.979 286.456L133.233 287.464L134.978 288.471ZM44.2241 260.276L42.4777 261.284L44.2226 262.291L45.9691 261.283L44.2241 260.276ZM89.61 262.28L91.3564 261.272L89.6115 260.265L87.8651 261.273L89.61 262.28ZM135.056 183.663L136.802 182.654L135.057 181.647L133.311 182.655L135.056 183.663ZM89.6489 209.876L91.3953 208.868L89.6504 207.86L87.904 208.869L89.6489 209.876ZM180.424 209.854L182.17 208.845L180.425 207.838L178.679 208.846L180.424 209.854ZM225.791 236.044L227.538 235.036L225.793 234.029L224.047 235.037L225.791 236.044ZM180.404 236.056L182.151 235.047L180.406 234.04L178.659 235.048L180.404 236.056ZM135.036 209.865L136.783 208.857L135.038 207.849L133.291 208.857L135.036 209.865ZM89.6683 183.674L91.4148 182.666L89.6698 181.658L87.9234 182.667L89.6683 183.674ZM-4.63396 232.574L-5.50717 233.078L-2.01733 235.093L-5.51016 237.109L-4.6377 237.613L-1.14487 235.597L2.34497 237.611L3.21817 237.107L-0.271665 235.093L3.22117 233.076L2.34871 232.572L-1.14412 234.589L-4.63396 232.574ZM271.218 183.629L272.964 182.621L271.219 181.613L269.473 182.622L271.218 183.629ZM180.482 131.247L182.228 130.239L180.483 129.232L178.737 130.24L180.482 131.247ZM316.605 183.618L318.351 182.61L316.607 181.602L314.86 182.61L316.605 183.618ZM225.85 157.438L227.596 156.43L225.851 155.423L224.105 156.431L225.85 157.438ZM271.237 157.427L272.984 156.419L271.239 155.411L269.492 156.419L271.237 157.427ZM180.462 157.449L182.209 156.441L180.464 155.434L178.718 156.442L180.462 157.449ZM225.811 209.842L227.557 208.834L225.812 207.827L224.066 208.835L225.811 209.842ZM271.198 209.831L272.945 208.823L271.2 207.816L269.453 208.824L271.198 209.831ZM180.445 181.636L178.698 182.644L180.443 183.651L182.189 182.643L180.445 181.636ZM225.83 183.64L227.577 182.632L225.832 181.625L224.085 182.633L225.83 183.64ZM271.276 105.023L273.023 104.014L271.278 103.007L269.531 104.015L271.276 105.023ZM225.869 131.236L227.616 130.228L225.871 129.22L224.124 130.229L225.869 131.236ZM316.644 131.213L318.39 130.205L316.645 129.198L314.899 130.206L316.644 131.213ZM362.012 157.404L363.758 156.396L362.013 155.389L360.267 156.397L362.012 157.404ZM316.625 157.416L318.371 156.407L316.626 155.4L314.88 156.408L316.625 157.416ZM271.257 131.225L273.003 130.217L271.258 129.209L269.512 130.217L271.257 131.225ZM225.889 105.034L227.635 104.026L225.89 103.018L224.144 104.026L225.889 105.034ZM131.586 153.934L130.713 154.438L134.203 156.453L130.71 158.469L131.583 158.973L135.076 156.957L138.565 158.971L139.439 158.467L135.949 156.453L139.442 154.436L138.569 153.932L135.076 155.949L131.586 153.934ZM407.438 104.989L409.185 103.981L407.44 102.973L405.693 103.982L407.438 104.989ZM316.702 52.6071L318.449 51.5989L316.704 50.5916L314.957 51.5998L316.702 52.6071ZM452.825 104.978L454.572 103.969L452.827 102.962L451.081 103.97L452.825 104.978ZM362.07 78.798L363.817 77.7898L362.072 76.7825L360.325 77.7907L362.07 78.798ZM407.458 78.7868L409.204 77.7786L407.459 76.7713L405.713 77.7795L407.458 78.7868ZM316.683 78.8092L318.429 77.801L316.684 76.7937L314.938 77.8019L316.683 78.8092ZM362.031 131.202L363.778 130.194L362.033 129.187L360.286 130.195L362.031 131.202ZM407.419 131.191L409.165 130.183L407.42 129.175L405.674 130.184L407.419 131.191ZM316.665 102.996L314.919 104.004L316.663 105.011L318.41 104.003L316.665 102.996ZM362.051 105L363.797 103.992L362.052 102.985L360.306 103.993L362.051 105ZM407.496 26.3826L409.243 25.3744L407.498 24.367L405.752 25.3752L407.496 26.3826ZM498.252 52.5622L499.998 51.554L498.253 50.5467L496.507 51.5549L498.252 52.5622ZM452.885 24.3558L451.139 25.364L452.884 26.3713L454.63 25.3631L452.885 24.3558ZM362.09 52.5959L363.836 51.5877L362.091 50.5804L360.345 51.5886L362.09 52.5959ZM452.864 52.5735L454.611 51.5652L452.866 50.5579L451.119 51.5661L452.864 52.5735ZM498.232 78.7643L499.979 77.7561L498.234 76.7488L496.487 77.757L498.232 78.7643ZM452.845 78.7756L454.591 77.7674L452.846 76.76L451.1 77.7682L452.845 78.7756ZM407.477 52.5847L409.223 51.5765L407.479 50.5691L405.732 51.5773L407.477 52.5847ZM362.109 26.3938L363.856 25.3856L362.111 24.3783L360.364 25.3865L362.109 26.3938ZM407.517 -1.33122L404.027 -3.3459L403.154 -2.8418L406.644 -0.827115L403.151 1.18931L404.023 1.69298L407.516 -0.323445L411.006 1.69124L411.879 1.18714L408.39 -0.827547L411.882 -2.84396L411.01 -3.34763L407.517 -1.33122ZM267.807 75.2941L266.934 75.7982L270.423 77.8129L266.931 79.8293L267.803 80.333L271.296 78.3166L274.786 80.3313L275.659 79.8272L272.169 77.8125L275.662 75.7961L274.789 75.2924L271.297 77.3088L267.807 75.2941ZM271.101 340.842L272.847 339.833L271.102 338.826L269.356 339.834L271.101 340.842ZM180.365 288.46L182.112 287.452L180.367 286.444L178.62 287.453L180.365 288.46ZM316.488 340.83L318.235 339.822L316.49 338.815L314.743 339.823L316.488 340.83ZM225.733 314.651L227.48 313.643L225.735 312.635L223.988 313.643L225.733 314.651ZM271.12 314.64L272.867 313.631L271.122 312.624L269.376 313.632L271.12 314.64ZM180.346 314.662L182.092 313.654L180.347 312.646L178.601 313.655L180.346 314.662ZM225.694 367.055L227.441 366.047L225.696 365.039L223.949 366.048L225.694 367.055ZM271.082 367.044L272.828 366.036L271.083 365.028L269.337 366.036L271.082 367.044ZM180.328 338.849L178.581 339.857L180.326 340.864L182.073 339.856L180.328 338.849ZM225.714 340.853L227.46 339.845L225.715 338.837L223.969 339.846L225.714 340.853ZM271.159 262.235L272.906 261.227L271.161 260.22L269.414 261.228L271.159 262.235ZM225.753 288.449L227.499 287.44L225.754 286.433L224.008 287.441L225.753 288.449ZM316.527 288.426L318.274 287.418L316.529 286.411L314.782 287.419L316.527 288.426ZM361.895 314.617L363.642 313.609L361.897 312.602L360.15 313.61L361.895 314.617ZM316.508 314.628L318.254 313.62L316.509 312.613L314.763 313.621L316.508 314.628ZM271.14 288.437L272.886 287.429L271.141 286.422L269.395 287.43L271.14 288.437ZM225.772 262.247L227.518 261.238L225.774 260.231L224.027 261.239L225.772 262.247ZM131.47 311.147L130.597 311.651L134.086 313.666L130.594 315.682L131.466 316.186L134.959 314.169L138.449 316.184L139.322 315.68L135.832 313.665L139.325 311.649L138.452 311.145L134.96 313.162L131.47 311.147ZM407.321 262.202L409.068 261.193L407.323 260.186L405.576 261.194L407.321 262.202ZM316.586 209.82L318.332 208.812L316.587 207.804L314.841 208.812L316.586 209.82ZM452.709 262.19L454.455 261.182L452.71 260.175L450.964 261.183L452.709 262.19ZM361.954 236.011L363.7 235.003L361.955 233.995L360.209 235.003L361.954 236.011ZM407.341 235.999L409.087 234.991L407.342 233.984L405.596 234.992L407.341 235.999ZM316.566 236.022L318.313 235.014L316.568 234.006L314.821 235.015L316.566 236.022ZM361.915 288.415L363.661 287.407L361.916 286.399L360.17 287.408L361.915 288.415ZM407.302 288.404L409.048 287.396L407.303 286.388L405.557 287.396L407.302 288.404ZM316.548 260.209L314.802 261.217L316.547 262.224L318.293 261.216L316.548 260.209ZM361.934 262.213L363.68 261.205L361.936 260.197L360.189 261.205L361.934 262.213ZM407.38 183.595L409.126 182.587L407.381 181.58L405.635 182.588L407.38 183.595ZM361.973 209.809L363.719 208.8L361.974 207.793L360.228 208.801L361.973 209.809ZM452.748 209.786L454.494 208.778L452.749 207.771L451.003 208.779L452.748 209.786ZM498.116 235.977L499.862 234.969L498.117 233.961L496.371 234.97L498.116 235.977ZM452.728 235.988L454.475 234.98L452.73 233.973L450.983 234.981L452.728 235.988ZM407.36 209.797L409.107 208.789L407.362 207.782L405.615 208.79L407.36 209.797ZM361.992 183.606L363.739 182.598L361.994 181.591L360.247 182.599L361.992 183.606ZM267.69 232.507L266.817 233.011L270.307 235.026L266.814 237.042L267.686 237.546L271.179 235.529L274.669 237.544L275.542 237.04L272.052 235.025L275.545 233.009L274.673 232.505L271.18 234.522L267.69 232.507ZM543.542 183.562L545.288 182.553L543.543 181.546L541.797 182.554L543.542 183.562ZM452.806 131.18L454.552 130.172L452.807 129.164L451.061 130.172L452.806 131.18ZM588.929 183.55L590.676 182.542L588.931 181.535L587.184 182.543L588.929 183.55ZM498.174 157.371L499.92 156.362L498.175 155.355L496.429 156.363L498.174 157.371ZM543.561 157.359L545.308 156.351L543.563 155.344L541.816 156.352L543.561 157.359ZM452.787 157.382L454.533 156.374L452.788 155.366L451.042 156.375L452.787 157.382ZM498.135 209.775L499.881 208.767L498.136 207.759L496.39 208.768L498.135 209.775ZM543.522 209.764L545.269 208.755L543.524 207.748L541.777 208.756L543.522 209.764ZM452.769 181.568L451.022 182.577L452.767 183.584L454.514 182.576L452.769 181.568ZM498.154 183.573L499.901 182.565L498.156 181.557L496.41 182.565L498.154 183.573ZM543.6 104.955L545.347 103.947L543.602 102.94L541.855 103.948L543.6 104.955ZM634.355 131.135L636.102 130.127L634.357 129.119L632.61 130.128L634.355 131.135ZM588.989 102.928L587.243 103.937L588.987 104.944L590.734 103.936L588.989 102.928ZM498.193 131.169L499.94 130.16L498.195 129.153L496.448 130.161L498.193 131.169ZM588.968 131.146L590.714 130.138L588.97 129.131L587.223 130.139L588.968 131.146ZM634.336 157.337L636.082 156.329L634.337 155.321L632.591 156.33L634.336 157.337ZM588.949 157.348L590.695 156.34L588.95 155.333L587.204 156.341L588.949 157.348ZM543.581 131.157L545.327 130.149L543.582 129.142L541.836 130.15L543.581 131.157ZM498.213 104.966L499.959 103.958L498.214 102.951L496.468 103.959L498.213 104.966ZM540.131 75.2268L539.258 75.7309L542.748 77.7455L539.255 79.762L540.127 80.2656L543.62 78.2492L547.11 80.2639L547.983 79.7598L544.493 77.7451L547.986 75.7287L547.114 75.225L543.621 77.2414L540.131 75.2268ZM403.91 153.867L403.037 154.371L406.527 156.386L403.034 158.402L403.907 158.906L407.4 156.889L410.889 158.904L411.763 158.4L408.273 156.385L411.766 154.369L410.893 153.865L407.4 155.881L403.91 153.867ZM452.573 445.605L454.319 444.597L452.574 443.59L450.828 444.598L452.573 445.605ZM407.205 419.414L408.951 418.406L407.206 417.399L405.46 418.407L407.205 419.414ZM316.469 367.033L318.215 366.024L316.47 365.017L314.724 366.025L316.469 367.033ZM452.592 419.403L454.338 418.395L452.594 417.388L450.847 418.396L452.592 419.403ZM361.837 393.223L363.583 392.215L361.838 391.208L360.092 392.216L361.837 393.223ZM407.224 393.212L408.971 392.204L407.226 391.197L405.479 392.205L407.224 393.212ZM316.449 393.235L318.196 392.226L316.451 391.219L314.705 392.227L316.449 393.235ZM361.798 445.628L363.544 444.619L361.799 443.612L360.053 444.62L361.798 445.628ZM407.185 445.616L408.932 444.608L407.187 443.601L405.44 444.609L407.185 445.616ZM316.431 417.421L314.685 418.429L316.43 419.437L318.176 418.429L316.431 417.421ZM361.817 419.426L363.564 418.417L361.819 417.41L360.072 418.418L361.817 419.426ZM407.263 340.808L409.009 339.8L407.265 338.792L405.518 339.801L407.263 340.808ZM361.856 367.021L363.603 366.013L361.858 365.006L360.111 366.014L361.856 367.021ZM452.631 366.999L454.377 365.991L452.632 364.983L450.886 365.991L452.631 366.999ZM497.999 393.19L499.745 392.182L498 391.174L496.254 392.182L497.999 393.19ZM497.979 419.392L499.726 418.384L497.981 417.376L496.234 418.384L497.979 419.392ZM452.611 393.201L454.358 392.193L452.613 391.185L450.867 392.194L452.611 393.201ZM407.244 367.01L408.99 366.002L407.245 364.995L405.499 366.003L407.244 367.01ZM361.876 340.819L363.622 339.811L361.877 338.804L360.131 339.812L361.876 340.819ZM267.573 389.72L266.7 390.224L270.19 392.238L266.697 394.255L267.57 394.758L271.062 392.742L274.552 394.757L275.426 394.253L271.936 392.238L275.429 390.221L274.556 389.718L271.063 391.734L267.573 389.72ZM403.677 468.292L402.804 468.796L406.294 470.811L402.801 472.827L403.673 473.331L407.166 471.315L410.656 473.329L411.529 472.825L408.039 470.811L411.532 468.794L410.66 468.29L407.167 470.307L403.677 468.292ZM588.793 366.965L590.539 365.957L588.794 364.95L587.048 365.958L588.793 366.965ZM543.425 340.774L545.171 339.766L543.427 338.759L541.68 339.767L543.425 340.774ZM452.689 288.392L454.436 287.384L452.691 286.377L450.944 287.385L452.689 288.392ZM588.812 340.763L590.559 339.755L588.814 338.747L587.068 339.756L588.812 340.763ZM498.057 314.583L499.804 313.575L498.059 312.568L496.312 313.576L498.057 314.583ZM543.445 314.572L545.191 313.564L543.446 312.557L541.7 313.565L543.445 314.572ZM452.67 314.595L454.416 313.586L452.671 312.579L450.925 313.587L452.67 314.595ZM498.018 366.988L499.765 365.979L498.02 364.972L496.273 365.98L498.018 366.988ZM543.406 366.976L545.152 365.968L543.407 364.961L541.661 365.969L543.406 366.976ZM452.652 338.781L450.905 339.789L452.65 340.797L454.397 339.789L452.652 338.781ZM498.038 340.785L499.784 339.777L498.039 338.77L496.293 339.778L498.038 340.785ZM543.483 262.168L545.23 261.16L543.485 260.152L541.739 261.161L543.483 262.168ZM498.077 288.381L499.823 287.373L498.078 286.366L496.332 287.374L498.077 288.381ZM588.851 288.359L590.598 287.351L588.853 286.343L587.106 287.351L588.851 288.359ZM634.219 314.55L635.966 313.541L634.221 312.534L632.474 313.542L634.219 314.55ZM634.2 340.752L635.946 339.744L634.201 338.736L632.455 339.744L634.2 340.752ZM588.832 314.561L590.578 313.553L588.833 312.545L587.087 313.554L588.832 314.561ZM543.464 288.37L545.21 287.362L543.465 286.354L541.719 287.363L543.464 288.37ZM498.096 262.179L499.843 261.171L498.098 260.164L496.351 261.172L498.096 262.179ZM403.794 311.079L402.921 311.584L406.41 313.598L402.918 315.615L403.79 316.118L407.283 314.102L410.773 316.117L411.646 315.613L408.156 313.598L411.649 311.581L410.776 311.078L407.284 313.094L403.794 311.079ZM539.897 389.652L539.024 390.156L542.514 392.171L539.021 394.187L539.894 394.691L543.387 392.675L546.876 394.689L547.75 394.185L544.26 392.171L547.753 390.154L546.88 389.65L543.387 391.667L539.897 389.652ZM725.013 288.325L726.76 287.317L725.015 286.31L723.268 287.318L725.013 288.325ZM679.645 262.134L681.392 261.126L679.647 260.119L677.901 261.127L679.645 262.134ZM588.91 209.752L590.656 208.744L588.911 207.737L587.165 208.745L588.91 209.752ZM725.033 262.123L726.779 261.115L725.034 260.107L723.288 261.116L725.033 262.123ZM634.278 235.943L636.024 234.935L634.279 233.928L632.533 234.936L634.278 235.943ZM679.665 235.932L681.411 234.924L679.666 233.917L677.92 234.925L679.665 235.932ZM588.89 235.955L590.637 234.946L588.892 233.939L587.145 234.947L588.89 235.955ZM634.239 288.348L635.985 287.339L634.24 286.332L632.494 287.34L634.239 288.348ZM679.626 288.336L681.372 287.328L679.628 286.321L677.881 287.329L679.626 288.336ZM588.872 260.141L587.126 261.149L588.871 262.157L590.617 261.148L588.872 260.141ZM634.258 262.145L636.005 261.137L634.26 260.13L632.513 261.138L634.258 262.145ZM679.704 183.528L681.45 182.52L679.705 181.512L677.959 182.521L679.704 183.528ZM770.459 209.708L772.205 208.699L770.461 207.692L768.714 208.7L770.459 209.708ZM725.093 181.501L723.346 182.509L725.091 183.517L726.838 182.508L725.093 181.501ZM634.297 209.741L636.043 208.733L634.299 207.726L632.552 208.734L634.297 209.741ZM725.072 209.719L726.818 208.711L725.073 207.703L723.327 208.711L725.072 209.719ZM770.44 235.91L772.186 234.901L770.441 233.894L768.695 234.902L770.44 235.91ZM770.42 262.112L772.167 261.104L770.422 260.096L768.675 261.104L770.42 262.112ZM725.052 235.921L726.799 234.913L725.054 233.905L723.307 234.914L725.052 235.921ZM679.684 209.73L681.431 208.722L679.686 207.714L677.939 208.723L679.684 209.73ZM634.316 183.539L636.063 182.531L634.318 181.524L632.572 182.532L634.316 183.539ZM812.338 232.372L811.465 232.876L814.955 234.891L811.462 236.907L812.334 237.411L815.827 235.395L819.317 237.409L820.19 236.905L816.701 234.89L820.193 232.874L819.321 232.37L815.828 234.387L812.338 232.372ZM676.235 153.799L675.361 154.304L678.851 156.318L675.358 158.335L676.231 158.838L679.724 156.822L683.213 158.837L684.087 158.332L680.597 156.318L684.09 154.301L683.217 153.798L679.724 155.814L676.235 153.799ZM540.014 232.439L539.141 232.944L542.631 234.958L539.138 236.975L540.01 237.478L543.503 235.462L546.993 237.477L547.866 236.972L544.376 234.958L547.869 232.941L546.997 232.438L543.504 234.454L540.014 232.439ZM676.118 311.012L675.245 311.516L678.734 313.531L675.242 315.547L676.114 316.051L679.607 314.035L683.097 316.049L683.97 315.545L680.48 313.53L683.973 311.514L683.1 311.01L679.608 313.027L676.118 311.012Z" fill="#8F90A6"/>
</g>
</g>
<mask id="mask1" mask-type="alpha" maskUnits="userSpaceOnUse" x="552" y="20" width="249" height="197">
<rect x="801" y="217" width="249" height="197" rx="20" transform="rotate(-180 801 217)" fill="#C4C4C4"/>
</mask>
<g mask="url(#mask1)">
<path fill-rule="evenodd" clip-rule="evenodd" d="M1015 269.147L565.553 530L213 326.853L662.661 66L1015 269.147Z" stroke="#C7C9D9" stroke-width="2" stroke-linecap="round" stroke-linejoin="round" stroke-dasharray="1 4"/>
</g>
<mask id="mask2" mask-type="alpha" maskUnits="userSpaceOnUse" x="532" y="270" width="150" height="99">
<rect x="671.366" y="367.354" width="160.137" height="19.1712" transform="rotate(-150 671.366 367.354)" fill="#FAFAFC" stroke="#39D98A" stroke-linecap="round" stroke-dasharray="1 12"/>
</mask>
<g mask="url(#mask2)">
<path fill-rule="evenodd" clip-rule="evenodd" d="M1332.08 217.414L882.63 478.267L530.077 275.119L979.738 14.2666L1332.08 217.414Z" stroke="#39D98A" stroke-width="2" stroke-linecap="round" stroke-linejoin="round" stroke-dasharray="1 4"/>
</g>
<mask id="mask3" mask-type="alpha" maskUnits="userSpaceOnUse" x="218" y="248" width="167" height="172">
<rect x="385" y="420" width="167" height="172" rx="20" transform="rotate(-180 385 420)" fill="#C4C4C4"/>
</mask>
<g mask="url(#mask3)">
<path fill-rule="evenodd" clip-rule="evenodd" d="M1030 280.147L580.553 541L228 337.853L677.661 77L1030 280.147Z" stroke="#C7C9D9" stroke-width="2" stroke-linecap="round" stroke-linejoin="round" stroke-dasharray="1 4"/>
</g>
<g filter="url(#filter0_dd)">
<path fill-rule="evenodd" clip-rule="evenodd" d="M199.701 236.655C197.875 235.596 196.85 234.161 196.85 232.666L196.85 225.343L699.85 182L699.849 186.934C699.85 188.424 698.831 189.854 697.016 190.913L416.637 354.464C412.809 356.697 406.563 356.702 402.726 354.475L199.701 236.655Z" fill="url(#paint1_linear)"/>
<mask id="mask4" mask-type="alpha" maskUnits="userSpaceOnUse" x="196" y="59" width="504" height="291">
<path fill-rule="evenodd" clip-rule="evenodd" d="M199.472 230.757C195.646 228.548 195.646 224.966 199.472 222.757L479.668 61.0004C483.494 58.7914 489.698 58.7914 493.524 61.0004L696.814 178.359C700.64 180.568 700.64 184.15 696.814 186.359L416.618 348.115C412.792 350.324 406.588 350.324 402.762 348.115L199.472 230.757Z" fill="white"/>
</mask>
<g mask="url(#mask4)">
<g filter="url(#filter1_b)">
<path fill-rule="evenodd" clip-rule="evenodd" d="M199.472 230.757C195.646 228.548 195.646 224.966 199.472 222.757L479.668 61.0004C483.494 58.7914 489.698 58.7914 493.524 61.0004L696.814 178.359C700.64 180.568 700.64 184.15 696.814 186.359L416.618 348.115C412.792 350.324 406.588 350.324 402.762 348.115L199.472 230.757Z" fill="#28293D"/>
</g>
</g>
<rect width="67.7677" height="4.89887" rx="1.5" transform="matrix(0.866044 -0.499967 0.866044 0.499967 306 279.908)" fill="#555770"/>
<rect width="71.0337" height="4.89887" rx="1.5" transform="matrix(0.866044 -0.499967 0.866044 0.499967 322.971 289.705)" fill="#555770"/>
<rect width="30.2097" height="4.89887" rx="1.5" transform="matrix(0.866044 -0.499967 0.866044 0.499967 414.188 227.248)" fill="#555770"/>
<rect width="40.8239" height="4.89887" rx="1.5" transform="matrix(0.866044 -0.499967 0.866044 0.499967 314.486 284.807)" fill="#555770"/>
<rect width="61.2359" height="4.89887" rx="1.5" transform="matrix(0.866044 -0.499967 0.866044 0.499967 355.498 261.131)" fill="#555770"/>
<rect width="40.8239" height="4.89887" rx="1.5" transform="matrix(0.866044 -0.499967 0.866044 0.499967 370.347 242.761)" fill="#555770"/>
<rect width="48.1723" height="4.89887" rx="1.5" transform="matrix(0.866044 -0.499967 0.866044 0.499967 411.359 219.085)" fill="#555770"/>
<rect width="67.7677" height="4.89887" rx="1.5" transform="matrix(0.866044 -0.499967 0.866044 0.499967 331.456 294.604)" fill="#555770"/>
<rect width="71.0337" height="4.89887" rx="1.5" transform="matrix(0.866044 -0.499967 0.866044 0.499967 348.427 304.4)" fill="#555770"/>
<rect width="10.6142" height="4.89887" rx="1.5" transform="matrix(0.866044 -0.499967 0.866044 0.499967 439.644 241.944)" fill="#555770"/>
<rect width="40.8239" height="4.89887" rx="1.5" transform="matrix(0.866044 -0.499967 0.866044 0.499967 339.941 299.502)" fill="#555770"/>
<rect width="61.2359" height="4.89887" rx="1.5" transform="matrix(0.866044 -0.499967 0.866044 0.499967 380.954 275.826)" fill="#555770"/>
<rect width="14.6966" height="4.89887" rx="1.5" transform="matrix(0.866044 -0.499967 0.866044 0.499967 395.803 257.456)" fill="#555770"/>
<rect width="8.16479" height="4.89887" rx="1.5" transform="matrix(0.866044 -0.499967 0.866044 0.499967 414.188 246.843)" fill="#555770"/>
<rect width="40.8239" height="4.89887" rx="1.5" transform="matrix(0.866044 -0.499967 0.866044 0.499967 356.912 309.3)" fill="#555770"/>
<rect width="25.3108" height="4.89887" rx="1.5" transform="matrix(0.866044 -0.499967 0.866044 0.499967 373.883 319.097)" fill="#555770"/>
<rect width="13.8801" height="4.89887" rx="1.5" transform="matrix(0.866044 -0.499967 0.866044 0.499967 401.46 303.177)" fill="#555770"/>
<rect width="37.558" height="4.89887" rx="1.5" transform="matrix(0.866044 -0.499967 0.866044 0.499967 406.41 290.521)" fill="#555770"/>
<rect width="13.0637" height="4.89887" rx="1.5" transform="matrix(0.866044 -0.499967 0.866044 0.499967 365.397 314.198)" fill="#555770"/>
<rect width="21.2284" height="4.89887" rx="1.5" transform="matrix(0.866044 -0.499967 0.866044 0.499967 382.368 304.4)" fill="#555770"/>
<rect width="14.6966" height="4.89887" rx="1.5" transform="matrix(0.866044 -0.499967 0.866044 0.499967 397.924 285.623)" fill="#555770"/>
<rect width="33.4756" height="4.89887" rx="1.5" transform="matrix(0.866044 -0.499967 0.866044 0.499967 416.309 275.01)" fill="#555770"/>
<path fill-rule="evenodd" clip-rule="evenodd" d="M220.895 226.013C222.653 224.998 222.653 223.353 220.895 222.339C219.138 221.324 216.289 221.324 214.531 222.339C212.774 223.353 212.774 224.998 214.531 226.013C216.289 227.027 219.138 227.027 220.895 226.013Z" fill="#FF5C5C"/>
<path fill-rule="evenodd" clip-rule="evenodd" d="M231.502 219.89C233.26 218.875 233.26 217.23 231.502 216.216C229.745 215.201 226.895 215.201 225.138 216.216C223.381 217.23 223.381 218.875 225.138 219.89C226.895 220.904 229.745 220.904 231.502 219.89Z" fill="#FDDD48"/>
<path fill-rule="evenodd" clip-rule="evenodd" d="M242.109 213.767C243.866 212.752 243.866 211.107 242.109 210.093C240.352 209.078 237.502 209.078 235.745 210.093C233.988 211.107 233.988 212.752 235.745 213.767C237.502 214.781 240.352 214.781 242.109 213.767Z" fill="#39D98A"/>
<rect y="0.499967" width="83.0609" height="83.0609" rx="17.5" transform="matrix(0.866044 0.499967 -0.866044 0.499967 298.233 190.25)" stroke="#57EBA1"/>
</g>
<g filter="url(#filter2_dd)">
<rect width="84.0609" height="84.0609" rx="18" transform="matrix(0.866044 0.499968 -0.866044 0.499968 781.8 93.6738)" fill="url(#paint2_linear)"/>
<rect width="84.0609" height="84.0609" rx="18" transform="matrix(0.866044 0.499968 -0.866044 0.499968 781.8 91)" fill="white"/>
<g clip-path="url(#clip0)">
<path d="M759.392 119.977C746.623 127.348 746.615 139.296 759.376 146.663C772.136 154.029 792.833 154.025 805.602 146.654C818.37 139.282 818.377 127.334 805.617 119.968C792.856 112.601 772.16 112.606 759.392 119.977ZM802.635 144.941C799.002 147.038 793.631 147.339 790.641 145.612L803.797 138.017C806.787 139.743 806.268 142.844 802.635 144.941ZM806.29 134.506L784.559 147.052L780.621 144.779L802.353 132.233L806.291 134.506L806.29 134.506ZM800.248 131.108L778.656 143.573C778.501 143.566 778.346 143.562 778.193 143.553C773.269 143.279 771.336 142.768 769.391 142.233C769.336 142.21 772.641 140.995 774.992 140.136C774.992 140.136 776.207 139.698 777.914 139.016C774.904 138.879 772.017 138.162 769.908 136.945C765.276 134.271 764.783 129.882 760.23 128.734C761.579 128.072 765.445 128.763 769.492 130.995C768.987 129.171 766.196 126.919 764.144 125.734C762.02 124.508 760.953 122.275 762.269 121.417C763.078 123.326 766.414 123.436 772.186 125.154C774.353 125.8 777.052 127.435 779.21 128.214C775.702 126.034 771.014 122.604 771.492 120.21C772.782 122.133 776.845 123.126 779.036 123.466C782.57 124.015 785.053 124.543 788.266 126.398C790.421 127.642 791.653 129.273 791.896 130.963C793.137 129.917 793.933 129.159 793.933 129.159L797.924 125.739C797.924 125.738 800.165 127.864 800.248 131.108Z" fill="#E6522C"/>
</g>
</g>
<g filter="url(#filter3_dd)">
<rect width="84.0609" height="84.0609" rx="18" transform="matrix(0.866045 0.499966 -0.866045 0.499966 402.8 397.674)" fill="url(#paint3_linear)"/>
<rect width="84.0609" height="84.0609" rx="18" transform="matrix(0.866044 0.499968 -0.866044 0.499968 402.8 395)" fill="white"/>
<path d="M420.912 434.432L401.255 431.329L428.478 447.045L439.509 428.594L379.052 420.307L393.406 455.21L425.367 448.842L398.144 433.125L403.518 444.474L410.589 443.167L414.124 445.208L400.336 448.107L391.85 427.696L427.206 432.595L422.185 440.555L418.65 438.514L420.912 434.432Z" fill="#FE7139"/>
</g>
<g filter="url(#filter4_dd)">
<path d="M234.058 197.808L361.161 196.498L361.161 204.149C361.161 207.525 358.839 210.762 354.704 213.149L313.199 237.11C304.589 242.08 290.631 242.08 282.021 237.11L240.516 213.149C236.381 210.762 234.058 207.525 234.058 204.149L234.058 197.808Z" fill="url(#paint4_linear)"/>
<rect width="84.0609" height="84.0609" rx="18" transform="matrix(0.866044 0.499968 -0.866044 0.499968 297.61 154.999)" fill="url(#paint5_linear)"/>
<path fill-rule="evenodd" clip-rule="evenodd" d="M281.989 196.753C280.772 196.75 279.793 197.315 279.798 198.018L279.858 205.205C279.864 205.908 280.852 206.479 282.069 206.482L294.52 206.516C295.127 206.518 295.677 206.378 296.073 206.149C296.47 205.92 296.713 205.602 296.71 205.252C296.704 204.549 295.716 203.979 294.499 203.975L284.249 203.947L284.2 198.03C284.194 197.327 283.206 196.757 281.989 196.753Z" fill="#C7C9D9"/>
<path fill-rule="evenodd" clip-rule="evenodd" d="M297.478 187.812C296.261 187.809 295.282 188.374 295.288 189.077C295.294 189.779 296.282 190.35 297.499 190.353L307.749 190.382L307.798 196.299C307.804 197.002 308.792 197.572 310.009 197.576C310.616 197.577 311.166 197.437 311.563 197.208C311.959 196.979 312.203 196.662 312.2 196.311L312.14 189.123C312.134 188.421 311.146 187.85 309.929 187.847L297.478 187.812Z" fill="#C7C9D9"/>
<path fill-rule="evenodd" clip-rule="evenodd" d="M287.072 187.943C286.023 188.276 285.636 189.052 286.232 189.669L301.93 205.884C302.525 206.5 303.867 206.723 304.927 206.386C305.11 206.327 305.273 206.257 305.415 206.174C306.087 205.786 306.26 205.168 305.767 204.66L290.069 188.445C289.474 187.829 288.132 187.605 287.072 187.943Z" fill="#C7C9D9"/>
</g>
<g filter="url(#filter5_dd)">
<path d="M628.058 366.81L755.161 365.5L755.161 373.151C755.161 376.527 752.839 379.764 748.704 382.151L707.199 406.112C698.589 411.082 684.631 411.082 676.021 406.112L634.516 382.151C630.381 379.764 628.058 376.527 628.058 373.151L628.058 366.81Z" fill="url(#paint6_linear)"/>
<rect width="84.0609" height="84.0609" rx="18" transform="matrix(0.866044 0.499968 -0.866044 0.499968 691.61 324)" fill="white"/>
</g>
<g opacity="0.45">
<path d="M755 330.644L691.751 367.539L628.251 330.644L691.5 294L755 330.644Z" fill="url(#paint7_linear)"/>
<path d="M754.999 330.644V360.604L691.75 397.499L691.75 367.539L754.999 330.644Z" fill="url(#paint8_linear)"/>
<path d="M691.751 367.539V397.499L628 360.604L628.251 330.644L691.751 367.539Z" fill="url(#paint9_linear)"/>
</g>
<g filter="url(#filter6_dd)">
<rect width="84.0609" height="84.0609" rx="18" transform="matrix(0.866044 0.499968 -0.866044 0.499968 691.8 288.674)" fill="url(#paint10_linear)"/>
<rect width="84.0609" height="84.0609" rx="18" transform="matrix(0.866044 0.499968 -0.866044 0.499968 691.8 286)" fill="white"/>
<path d="M667.794 313.86C667.358 314.096 667.358 314.494 667.781 314.739L678.14 320.719C678.559 320.961 679.234 320.962 679.682 320.738C686.812 317.182 697.599 317.359 704.37 321.268C711.141 325.177 711.448 331.404 705.288 335.52C704.901 335.779 704.903 336.169 705.321 336.411L715.297 342.17C715.72 342.414 716.409 342.414 716.819 342.162C729.597 334.317 729.34 321.974 716.052 314.303C702.764 306.632 681.383 306.483 667.794 313.86Z" fill="#39D98A"/>
<path d="M683.498 323.812C683.433 323.848 683.368 323.884 683.304 323.921C678.968 326.425 678.968 330.484 683.304 332.987C687.641 335.49 694.672 335.49 699.008 332.987C699.072 332.95 699.135 332.913 699.197 332.875L683.498 323.812Z" fill="#223C37"/>
<path d="M699.198 332.876C703.344 330.365 703.281 326.388 699.008 323.922C694.736 321.455 687.848 321.419 683.499 323.812L699.198 332.876Z" fill="#376C66"/>
</g>
<g filter="url(#filter7_dd)">
<rect width="58.8609" height="58.8609" rx="12" transform="matrix(0.866044 0.499967 -0.866044 0.499967 617.976 292.857)" fill="url(#paint11_linear)"/>
<rect width="58.8609" height="58.8609" rx="12" transform="matrix(0.866044 0.499967 -0.866044 0.499967 617.976 291)" fill="white"/>
<rect width="6.75722" height="2.76431" rx="1.38216" transform="matrix(0.866044 -0.499967 0.866044 0.499967 616.241 341.305)" fill="#3BC882"/>
<rect width="6.75722" height="2.76431" rx="1.38216" transform="matrix(0.866044 -0.499967 0.866044 0.499967 622.625 337.62)" fill="#39D98A"/>
<rect width="6.75722" height="2.76431" rx="1.38216" transform="matrix(0.866044 -0.499967 0.866044 0.499967 629.01 333.936)" fill="#23A966"/>
<rect width="6.75722" height="2.76431" rx="1.38216" transform="matrix(0.866044 -0.499967 0.866044 0.499967 635.394 330.248)" fill="#23A966"/>
<rect width="6.75722" height="2.76431" rx="1.38216" transform="matrix(0.866044 -0.499967 0.866044 0.499967 641.778 326.562)" fill="#23A966"/>
<rect width="6.75722" height="2.76431" rx="1.38216" transform="matrix(0.866044 -0.499967 0.866044 0.499967 648.162 322.878)" fill="#23A966"/>
<rect width="6.75722" height="2.76431" rx="1.38216" transform="matrix(0.866044 -0.499967 0.866044 0.499967 613.315 339.619)" fill="#39D98A"/>
<rect width="6.75722" height="2.76431" rx="1.38216" transform="matrix(0.866044 -0.499967 0.866044 0.499967 619.7 335.936)" fill="#57EBA1"/>
<rect width="6.75722" height="2.76431" rx="1.38216" transform="matrix(0.866044 -0.499967 0.866044 0.499967 626.084 332.247)" fill="#3BC882"/>
<rect width="6.75722" height="2.76431" rx="1.38216" transform="matrix(0.866044 -0.499967 0.866044 0.499967 632.468 328.562)" fill="#23A966"/>
<rect width="6.75722" height="2.76431" rx="1.38216" transform="matrix(0.866044 -0.499967 0.866044 0.499967 638.852 324.878)" fill="#23A966"/>
<rect width="6.75722" height="2.76431" rx="1.38216" transform="matrix(0.866044 -0.499967 0.866044 0.499967 645.236 321.195)" fill="#23A966"/>
<rect width="6.75722" height="2.76431" rx="1.38216" transform="matrix(0.866044 -0.499967 0.866044 0.499967 610.39 337.927)" fill="#39D98A"/>
<rect width="6.75722" height="2.76431" rx="1.38216" transform="matrix(0.866044 -0.499967 0.866044 0.499967 623.156 330.557)" fill="#39D98A"/>
<rect width="6.75722" height="2.76431" rx="1.38216" transform="matrix(0.866044 -0.499967 0.866044 0.499967 629.541 326.872)" fill="#3BC882"/>
<rect width="6.75722" height="2.76431" rx="1.38216" transform="matrix(0.866044 -0.499967 0.866044 0.499967 635.924 323.185)" fill="#3BC882"/>
<rect width="6.75722" height="2.76431" rx="1.38216" transform="matrix(0.866044 -0.499967 0.866044 0.499967 642.309 319.499)" fill="#3BC882"/>
<rect width="6.75722" height="2.76431" rx="1.38216" transform="matrix(0.866044 -0.499967 0.866044 0.499967 607.463 336.24)" fill="#57EBA1"/>
<rect width="6.75722" height="2.76431" rx="1.38216" transform="matrix(0.866044 -0.499967 0.866044 0.499967 613.848 332.556)" fill="#57EBA1"/>
<rect width="6.75722" height="2.76431" rx="1.38216" transform="matrix(0.866044 -0.499967 0.866044 0.499967 620.232 328.871)" fill="#57EBA1"/>
<rect width="6.75722" height="2.76431" rx="1.38216" transform="matrix(0.866044 -0.499967 0.866044 0.499967 626.616 325.183)" fill="#3BC882"/>
<rect width="6.75722" height="2.76431" rx="1.38216" transform="matrix(0.866044 -0.499967 0.866044 0.499967 633 321.498)" fill="#3BC882"/>
<rect width="6.75722" height="2.76431" rx="1.38216" transform="matrix(0.866044 -0.499967 0.866044 0.499967 639.384 317.813)" fill="#3BC882"/>
<rect width="6.75722" height="2.76431" rx="1.38216" transform="matrix(0.866044 -0.499967 0.866044 0.499967 604.538 334.55)" fill="#E3FFF1"/>
<rect width="6.75722" height="2.76431" rx="1.38216" transform="matrix(0.866044 -0.499967 0.866044 0.499967 610.921 330.868)" fill="#E3FFF1"/>
<rect width="6.75722" height="2.76431" rx="1.38216" transform="matrix(0.866044 -0.499967 0.866044 0.499967 617.305 327.181)" fill="#57EBA1"/>
<rect width="6.75722" height="2.76431" rx="1.38216" transform="matrix(0.866044 -0.499967 0.866044 0.499967 630.073 319.808)" fill="#39D98A"/>
<rect width="6.75722" height="2.76431" rx="1.38216" transform="matrix(0.866044 -0.499967 0.866044 0.499967 636.457 316.123)" fill="#39D98A"/>
<rect width="6.75722" height="2.76431" rx="1.38216" transform="matrix(0.866044 -0.499967 0.866044 0.499967 601.611 332.86)" fill="#E3FFF1"/>
<rect width="6.75722" height="2.76431" rx="1.38216" transform="matrix(0.866044 -0.499967 0.866044 0.499967 614.38 325.488)" fill="#E3FFF1"/>
<rect width="6.75722" height="2.76431" rx="1.38216" transform="matrix(0.866044 -0.499967 0.866044 0.499967 620.765 321.81)" fill="#39D98A"/>
<rect width="6.75722" height="2.76431" rx="1.38216" transform="matrix(0.866044 -0.499967 0.866044 0.499967 627.148 318.122)" fill="#39D98A"/>
<rect width="6.75722" height="2.76431" rx="1.38216" transform="matrix(0.866044 -0.499967 0.866044 0.499967 633.533 314.437)" fill="#39D98A"/>
<rect width="6.75722" height="2.76431" rx="1.38216" transform="matrix(0.866044 -0.499967 0.866044 0.499967 598.686 331.166)" fill="#57EBA1"/>
<rect width="6.75722" height="2.76431" rx="1.38216" transform="matrix(0.866044 -0.499967 0.866044 0.499967 605.069 327.487)" fill="#57EBA1"/>
<rect width="6.75722" height="2.76431" rx="1.38216" transform="matrix(0.866044 -0.499967 0.866044 0.499967 617.837 320.112)" fill="#57EBA1"/>
<rect width="6.75722" height="2.76431" rx="1.38216" transform="matrix(0.866044 -0.499967 0.866044 0.499967 624.221 316.424)" fill="#57EBA1"/>
<rect width="6.75722" height="2.76431" rx="1.38216" transform="matrix(0.866044 -0.499967 0.866044 0.499967 630.605 312.739)" fill="#57EBA1"/>
<rect width="6.75722" height="2.76431" rx="1.38216" transform="matrix(0.866044 -0.499967 0.866044 0.499967 595.76 329.479)" fill="#57EBA1"/>
<rect width="6.75722" height="2.76431" rx="1.38216" transform="matrix(0.866044 -0.499967 0.866044 0.499967 602.144 325.798)" fill="#57EBA1"/>
<rect width="6.75722" height="2.76431" rx="1.38216" transform="matrix(0.866044 -0.499967 0.866044 0.499967 614.912 318.428)" fill="#57EBA1"/>
<rect width="6.75722" height="2.76431" rx="1.38216" transform="matrix(0.866044 -0.499967 0.866044 0.499967 621.296 314.737)" fill="#57EBA1"/>
<rect width="6.75722" height="2.76431" rx="1.38216" transform="matrix(0.866044 -0.499967 0.866044 0.499967 627.68 311.056)" fill="#57EBA1"/>
<rect width="6.75722" height="2.76431" rx="1.38216" transform="matrix(0.866044 -0.499967 0.866044 0.499967 592.832 327.79)" fill="#E3FFF1"/>
<rect width="6.75722" height="2.76431" rx="1.38216" transform="matrix(0.866044 -0.499967 0.866044 0.499967 599.218 324.105)" fill="#E3FFF1"/>
<rect width="6.75722" height="2.76431" rx="1.38216" transform="matrix(0.866044 -0.499967 0.866044 0.499967 611.986 316.732)" fill="#E3FFF1"/>
<rect width="6.75722" height="2.76431" rx="1.38216" transform="matrix(0.866044 -0.499967 0.866044 0.499967 618.37 313.048)" fill="#E3FFF1"/>
<rect width="6.75722" height="2.76431" rx="1.38216" transform="matrix(0.866044 -0.499967 0.866044 0.499967 624.754 309.362)" fill="#E3FFF1"/>
<rect width="6.75722" height="2.76431" rx="1.38216" transform="matrix(0.866044 -0.499967 0.866044 0.499967 589.907 326.103)" fill="#E3FFF1"/>
<rect width="6.75722" height="2.76431" rx="1.38216" transform="matrix(0.866044 -0.499967 0.866044 0.499967 609.059 315.045)" fill="#E3FFF1"/>
<rect width="6.75722" height="2.76431" rx="1.38216" transform="matrix(0.866044 -0.499967 0.866044 0.499967 621.827 307.675)" fill="#E3FFF1"/>
<rect width="6.75722" height="2.76431" rx="1.38216" transform="matrix(0.866044 -0.499967 0.866044 0.499967 586.981 324.414)" fill="#E3FFF1"/>
<rect width="6.75722" height="2.76431" rx="1.38216" transform="matrix(0.866044 -0.499967 0.866044 0.499967 599.749 317.047)" fill="#E3FFF1"/>
<rect width="6.75722" height="2.76431" rx="1.38216" transform="matrix(0.866044 -0.499967 0.866044 0.499967 606.133 313.359)" fill="#E3FFF1"/>
<rect width="6.75722" height="2.76431" rx="1.38216" transform="matrix(0.866044 -0.499967 0.866044 0.499967 618.901 305.99)" fill="#E3FFF1"/>
<rect width="6.75722" height="2.76431" rx="1.38216" transform="matrix(0.866044 -0.499967 0.866044 0.499967 596.822 315.352)" fill="#E3FFF1"/>
<rect width="6.75722" height="2.76431" rx="1.38216" transform="matrix(0.866044 -0.499967 0.866044 0.499967 615.974 304.295)" fill="#E3FFF1"/>
<rect width="6.75722" height="2.76431" rx="1.38216" transform="matrix(0.866044 -0.499967 0.866044 0.499967 585.385 316.127)" fill="#E3FFF1"/>
<rect width="6.75722" height="2.76431" rx="1.38216" transform="matrix(0.866044 -0.499967 0.866044 0.499967 610.922 301.382)" fill="#E3FFF1"/>
</g>
<g filter="url(#filter8_dd)">
<rect width="58.8609" height="58.8609" rx="12" transform="matrix(0.866044 0.499967 -0.866044 0.499967 710.976 246.857)" fill="url(#paint12_linear)"/>
<rect width="58.8609" height="58.8609" rx="12" transform="matrix(0.866044 0.499967 -0.866044 0.499967 710.976 245)" fill="white"/>
<g filter="url(#filter9_dd)">
<rect width="49.6999" height="20.1486" rx="8" transform="matrix(0.866044 -0.499967 0.866044 0.499967 691 286.849)" fill="white"/>
<path fill-rule="evenodd" clip-rule="evenodd" d="M713.685 289.87C716.576 288.201 716.576 285.495 713.685 283.826C710.793 282.157 706.106 282.157 703.215 283.826C700.324 285.495 700.324 288.201 703.215 289.87C706.106 291.539 710.793 291.539 713.685 289.87Z" fill="#FFE6E6"/>
<path d="M710.089 284.738C709.652 284.641 709.185 284.597 708.717 284.609L708.331 284.619C708.318 284.619 708.305 284.621 708.294 284.625C708.283 284.629 708.274 284.634 708.267 284.641C708.261 284.647 708.257 284.655 708.256 284.662C708.256 284.669 708.258 284.677 708.264 284.684L708.432 284.885C708.538 285.011 708.6 285.166 708.617 285.344C708.618 285.356 708.609 285.364 708.602 285.369C708.596 285.373 708.582 285.379 708.562 285.38C708.544 285.381 708.527 285.376 708.515 285.369C708.124 285.113 707.529 284.914 706.744 284.776C706.093 284.66 705.448 284.65 704.824 284.743L704.37 284.811C704.31 284.82 704.292 284.864 704.337 284.888L704.685 285.071C704.923 285.196 705.097 285.327 705.202 285.46C705.33 285.622 705.41 285.794 705.441 285.974C705.462 286.098 705.458 286.224 705.431 286.348C705.363 286.646 705.414 286.949 705.578 287.235C705.745 287.522 706.025 287.782 706.396 287.996C706.723 288.185 707.104 288.331 707.53 288.429C707.94 288.524 708.378 288.572 708.821 288.571C709.267 288.569 709.702 288.52 710.113 288.422C710.54 288.321 710.922 288.174 711.251 287.984C711.58 287.794 711.835 287.574 712.01 287.328C712.179 287.091 712.267 286.838 712.268 286.582C712.271 286.324 712.187 286.073 712.023 285.836C711.852 285.591 711.597 285.368 711.272 285.182C710.934 284.987 710.537 284.837 710.089 284.738Z" fill="#FF3B3B"/>
<rect width="10.7459" height="1.34324" rx="0.67162" transform="matrix(0.866044 -0.499967 0.866044 0.499967 719.065 282.902)" fill="#EBEBF0"/>
<rect width="24.1783" height="1.34324" rx="0.67162" transform="matrix(0.866044 -0.499967 0.866044 0.499967 716.883 281.643)" fill="#EBEBF0"/>
<rect width="11.4175" height="2.68648" rx="1.34324" transform="matrix(0.866044 -0.499967 0.866044 0.499967 713.394 279.628)" fill="#C7C9D9"/>
</g>
<g filter="url(#filter10_dd)">
<rect width="49.6999" height="20.1486" rx="8" transform="matrix(0.866044 -0.499967 0.866044 0.499967 670 273.849)" fill="white"/>
<path fill-rule="evenodd" clip-rule="evenodd" d="M692.685 276.87C695.576 275.201 695.576 272.495 692.685 270.826C689.793 269.157 685.106 269.157 682.215 270.826C679.324 272.495 679.324 275.201 682.215 276.87C685.106 278.539 689.793 278.539 692.685 276.87Z" fill="#E3FFF1"/>
<path d="M684.205 271.873C682.413 272.907 682.413 274.585 684.205 275.619C685.997 276.654 688.902 276.654 690.694 275.619C692.486 274.585 692.486 272.907 690.694 271.873C688.902 270.839 685.997 270.839 684.205 271.873ZM687.791 272.325L688.381 274.427C688.389 274.456 688.385 274.486 688.37 274.515C688.354 274.543 688.326 274.569 688.29 274.59C688.253 274.611 688.208 274.627 688.159 274.636C688.11 274.646 688.058 274.648 688.006 274.643L685.852 274.442C685.786 274.436 685.76 274.389 685.807 274.362L686.147 274.165C686.221 274.123 686.326 274.103 686.431 274.113L687.662 274.228L687.221 272.659C687.205 272.6 687.238 272.539 687.313 272.496L687.652 272.299C687.699 272.272 687.78 272.287 687.791 272.325Z" fill="#39D98A"/>
<rect width="10.7459" height="1.34324" rx="0.67162" transform="matrix(0.866044 -0.499967 0.866044 0.499967 698.065 269.902)" fill="#EBEBF0"/>
<rect width="24.1783" height="1.34324" rx="0.67162" transform="matrix(0.866044 -0.499967 0.866044 0.499967 695.883 268.643)" fill="#EBEBF0"/>
<rect width="11.4175" height="2.68648" rx="1.34324" transform="matrix(0.866044 -0.499967 0.866044 0.499967 692.394 266.628)" fill="#C7C9D9"/>
</g>
</g>
<g opacity="0.45">
<path d="M361 147.643L297.751 184.538L234.251 147.643L297.5 110.999L361 147.643Z" fill="url(#paint13_linear)"/>
<path d="M360.999 147.643V177.603L297.75 214.498L297.75 184.538L360.999 147.643Z" fill="url(#paint14_linear)"/>
<path d="M297.751 184.538V214.498L234 177.603L234.251 147.643L297.751 184.538Z" fill="url(#paint15_linear)"/>
</g>
<g filter="url(#filter11_dd)">
<rect width="84.0609" height="84.0609" rx="18" transform="matrix(0.866044 0.499968 -0.866044 0.499968 297.8 105.674)" fill="url(#paint16_linear)"/>
<rect width="84.0609" height="84.0609" rx="18" transform="matrix(0.866044 0.499968 -0.866044 0.499968 297.8 103)" fill="white"/>
<path d="M310.672 144.984C311.166 144.698 311.889 144.587 312.568 144.693L328.816 147.056C330.273 147.284 330.838 148.375 329.778 148.99L295.395 168.84C294.33 169.457 292.499 169.171 292.107 168.325L288.037 158.891C287.856 158.502 288.047 158.088 288.537 157.803L310.672 144.984Z" fill="#223C37"/>
<path d="M301.342 144.7C301.529 145.09 301.338 145.509 300.841 145.795L288.493 152.924C287.432 153.537 285.621 153.257 285.235 152.421L274.95 130.137C274.564 129.3 275.894 128.535 277.343 128.761L293.961 131.352C294.625 131.455 295.144 131.753 295.327 132.136L301.342 144.7Z" fill="#39D98A"/>
<path d="M328.429 148.973C329.094 149.07 329.494 149.154 329.979 148.874L344.719 140.365C345.797 139.743 345.306 138.698 343.82 138.494L305.934 132.998C304.476 132.798 303.193 133.582 303.619 134.411L309.328 145.761L328.429 148.973Z" fill="#376C66"/>
</g>
<defs>
<filter id="filter0_dd" x="192.603" y="57.3438" width="511.247" height="304.799" filterUnits="userSpaceOnUse" color-interpolation-filters="sRGB">
<feFlood flood-opacity="0" result="BackgroundImageFix"/>
<feColorMatrix in="SourceAlpha" type="matrix" values="0 0 0 0 0 0 0 0 0 0 0 0 0 0 0 0 0 0 127 0"/>
<feOffset dy="2"/>
<feGaussianBlur stdDeviation="2"/>
<feColorMatrix type="matrix" values="0 0 0 0 0.376471 0 0 0 0 0.380392 0 0 0 0 0.439216 0 0 0 0.16 0"/>
<feBlend mode="normal" in2="BackgroundImageFix" result="effect1_dropShadow"/>
<feColorMatrix in="SourceAlpha" type="matrix" values="0 0 0 0 0 0 0 0 0 0 0 0 0 0 0 0 0 0 127 0"/>
<feOffset/>
<feGaussianBlur stdDeviation="0.5"/>
<feColorMatrix type="matrix" values="0 0 0 0 0.156863 0 0 0 0 0.160784 0 0 0 0 0.239216 0 0 0 0.04 0"/>
<feBlend mode="normal" in2="effect1_dropShadow" result="effect2_dropShadow"/>
<feBlend mode="normal" in="SourceGraphic" in2="effect2_dropShadow" result="shape"/>
</filter>
<filter id="filter1_b" x="191.603" y="54.3438" width="513.081" height="300.429" filterUnits="userSpaceOnUse" color-interpolation-filters="sRGB">
<feFlood flood-opacity="0" result="BackgroundImageFix"/>
<feGaussianBlur in="BackgroundImage" stdDeviation="2.5"/>
<feComposite in2="SourceAlpha" operator="in" result="effect1_backgroundBlur"/>
<feBlend mode="normal" in="SourceGraphic" in2="effect1_backgroundBlur" result="shape"/>
</filter>
<filter id="filter2_dd" x="714.131" y="94.2715" width="135.337" height="84.1858" filterUnits="userSpaceOnUse" color-interpolation-filters="sRGB">
<feFlood flood-opacity="0" result="BackgroundImageFix"/>
<feColorMatrix in="SourceAlpha" type="matrix" values="0 0 0 0 0 0 0 0 0 0 0 0 0 0 0 0 0 0 127 0"/>
<feOffset dy="2"/>
<feGaussianBlur stdDeviation="2"/>
<feColorMatrix type="matrix" values="0 0 0 0 0.376471 0 0 0 0 0.380392 0 0 0 0 0.439216 0 0 0 0.16 0"/>
<feBlend mode="normal" in2="BackgroundImageFix" result="effect1_dropShadow"/>
<feColorMatrix in="SourceAlpha" type="matrix" values="0 0 0 0 0 0 0 0 0 0 0 0 0 0 0 0 0 0 127 0"/>
<feOffset/>
<feGaussianBlur stdDeviation="0.5"/>
<feColorMatrix type="matrix" values="0 0 0 0 0.156863 0 0 0 0 0.160784 0 0 0 0 0.239216 0 0 0 0.04 0"/>
<feBlend mode="normal" in2="effect1_dropShadow" result="effect2_dropShadow"/>
<feBlend mode="normal" in="SourceGraphic" in2="effect2_dropShadow" result="shape"/>
</filter>
<filter id="filter3_dd" x="335.131" y="398.271" width="135.338" height="84.1856" filterUnits="userSpaceOnUse" color-interpolation-filters="sRGB">
<feFlood flood-opacity="0" result="BackgroundImageFix"/>
<feColorMatrix in="SourceAlpha" type="matrix" values="0 0 0 0 0 0 0 0 0 0 0 0 0 0 0 0 0 0 127 0"/>
<feOffset dy="2"/>
<feGaussianBlur stdDeviation="2"/>
<feColorMatrix type="matrix" values="0 0 0 0 0.376471 0 0 0 0 0.380392 0 0 0 0 0.439216 0 0 0 0.16 0"/>
<feBlend mode="normal" in2="BackgroundImageFix" result="effect1_dropShadow"/>
<feColorMatrix in="SourceAlpha" type="matrix" values="0 0 0 0 0 0 0 0 0 0 0 0 0 0 0 0 0 0 127 0"/>
<feOffset/>
<feGaussianBlur stdDeviation="0.5"/>
<feColorMatrix type="matrix" values="0 0 0 0 0.156863 0 0 0 0 0.160784 0 0 0 0 0.239216 0 0 0 0.04 0"/>
<feBlend mode="normal" in2="effect1_dropShadow" result="effect2_dropShadow"/>
<feBlend mode="normal" in="SourceGraphic" in2="effect2_dropShadow" result="shape"/>
</filter>
<filter id="filter4_dd" x="231.941" y="158.771" width="131.337" height="84.567" filterUnits="userSpaceOnUse" color-interpolation-filters="sRGB">
<feFlood flood-opacity="0" result="BackgroundImageFix"/>
<feColorMatrix in="SourceAlpha" type="matrix" values="0 0 0 0 0 0 0 0 0 0 0 0 0 0 0 0 0 0 127 0"/>
<feOffset dy="0.5"/>
<feGaussianBlur stdDeviation="1"/>
<feColorMatrix type="matrix" values="0 0 0 0 0.376471 0 0 0 0 0.380392 0 0 0 0 0.439216 0 0 0 0.16 0"/>
<feBlend mode="normal" in2="BackgroundImageFix" result="effect1_dropShadow"/>
<feColorMatrix in="SourceAlpha" type="matrix" values="0 0 0 0 0 0 0 0 0 0 0 0 0 0 0 0 0 0 127 0"/>
<feOffset/>
<feGaussianBlur stdDeviation="0.5"/>
<feColorMatrix type="matrix" values="0 0 0 0 0.156863 0 0 0 0 0.160784 0 0 0 0 0.239216 0 0 0 0.08 0"/>
<feBlend mode="normal" in2="effect1_dropShadow" result="effect2_dropShadow"/>
<feBlend mode="normal" in="SourceGraphic" in2="effect2_dropShadow" result="shape"/>
</filter>
<filter id="filter5_dd" x="625.941" y="327.771" width="131.337" height="84.568" filterUnits="userSpaceOnUse" color-interpolation-filters="sRGB">
<feFlood flood-opacity="0" result="BackgroundImageFix"/>
<feColorMatrix in="SourceAlpha" type="matrix" values="0 0 0 0 0 0 0 0 0 0 0 0 0 0 0 0 0 0 127 0"/>
<feOffset dy="0.5"/>
<feGaussianBlur stdDeviation="1"/>
<feColorMatrix type="matrix" values="0 0 0 0 0.376471 0 0 0 0 0.380392 0 0 0 0 0.439216 0 0 0 0.16 0"/>
<feBlend mode="normal" in2="BackgroundImageFix" result="effect1_dropShadow"/>
<feColorMatrix in="SourceAlpha" type="matrix" values="0 0 0 0 0 0 0 0 0 0 0 0 0 0 0 0 0 0 127 0"/>
<feOffset/>
<feGaussianBlur stdDeviation="0.5"/>
<feColorMatrix type="matrix" values="0 0 0 0 0.156863 0 0 0 0 0.160784 0 0 0 0 0.239216 0 0 0 0.08 0"/>
<feBlend mode="normal" in2="effect1_dropShadow" result="effect2_dropShadow"/>
<feBlend mode="normal" in="SourceGraphic" in2="effect2_dropShadow" result="shape"/>
</filter>
<filter id="filter6_dd" x="602" y="278" width="179.078" height="116.908" filterUnits="userSpaceOnUse" color-interpolation-filters="sRGB">
<feFlood flood-opacity="0" result="BackgroundImageFix"/>
<feColorMatrix in="SourceAlpha" type="matrix" values="0 0 0 0 0 0 0 0 0 0 0 0 0 0 0 0 0 0 127 0"/>
<feOffset dy="8"/>
<feGaussianBlur stdDeviation="8"/>
<feColorMatrix type="matrix" values="0 0 0 0 0.376471 0 0 0 0 0.380392 0 0 0 0 0.439216 0 0 0 0.16 0"/>
<feBlend mode="normal" in2="BackgroundImageFix" result="effect1_dropShadow"/>
<feColorMatrix in="SourceAlpha" type="matrix" values="0 0 0 0 0 0 0 0 0 0 0 0 0 0 0 0 0 0 127 0"/>
<feOffset dy="2"/>
<feGaussianBlur stdDeviation="2"/>
<feColorMatrix type="matrix" values="0 0 0 0 0.156863 0 0 0 0 0.160784 0 0 0 0 0.239216 0 0 0 0.04 0"/>
<feBlend mode="normal" in2="effect1_dropShadow" result="effect2_dropShadow"/>
<feBlend mode="normal" in="SourceGraphic" in2="effect2_dropShadow" result="shape"/>
</filter>
<filter id="filter7_dd" x="569.088" y="292.515" width="97.7766" height="61.6855" filterUnits="userSpaceOnUse" color-interpolation-filters="sRGB">
<feFlood flood-opacity="0" result="BackgroundImageFix"/>
<feColorMatrix in="SourceAlpha" type="matrix" values="0 0 0 0 0 0 0 0 0 0 0 0 0 0 0 0 0 0 127 0"/>
<feOffset dy="2"/>
<feGaussianBlur stdDeviation="2"/>
<feColorMatrix type="matrix" values="0 0 0 0 0.376471 0 0 0 0 0.380392 0 0 0 0 0.439216 0 0 0 0.16 0"/>
<feBlend mode="normal" in2="BackgroundImageFix" result="effect1_dropShadow"/>
<feColorMatrix in="SourceAlpha" type="matrix" values="0 0 0 0 0 0 0 0 0 0 0 0 0 0 0 0 0 0 127 0"/>
<feOffset/>
<feGaussianBlur stdDeviation="0.5"/>
<feColorMatrix type="matrix" values="0 0 0 0 0.156863 0 0 0 0 0.160784 0 0 0 0 0.239216 0 0 0 0.04 0"/>
<feBlend mode="normal" in2="effect1_dropShadow" result="effect2_dropShadow"/>
<feBlend mode="normal" in="SourceGraphic" in2="effect2_dropShadow" result="shape"/>
</filter>
<filter id="filter8_dd" x="664.088" y="247.015" width="93.7766" height="57.6855" filterUnits="userSpaceOnUse" color-interpolation-filters="sRGB">
<feFlood flood-opacity="0" result="BackgroundImageFix"/>
<feColorMatrix in="SourceAlpha" type="matrix" values="0 0 0 0 0 0 0 0 0 0 0 0 0 0 0 0 0 0 127 0"/>
<feOffset dy="0.5"/>
<feGaussianBlur stdDeviation="1"/>
<feColorMatrix type="matrix" values="0 0 0 0 0.376471 0 0 0 0 0.380392 0 0 0 0 0.439216 0 0 0 0.16 0"/>
<feBlend mode="normal" in2="BackgroundImageFix" result="effect1_dropShadow"/>
<feColorMatrix in="SourceAlpha" type="matrix" values="0 0 0 0 0 0 0 0 0 0 0 0 0 0 0 0 0 0 127 0"/>
<feOffset/>
<feGaussianBlur stdDeviation="0.5"/>
<feColorMatrix type="matrix" values="0 0 0 0 0.156863 0 0 0 0 0.160784 0 0 0 0 0.239216 0 0 0 0.08 0"/>
<feBlend mode="normal" in2="effect1_dropShadow" result="effect2_dropShadow"/>
<feBlend mode="normal" in="SourceGraphic" in2="effect2_dropShadow" result="shape"/>
</filter>
<filter id="filter9_dd" x="693.059" y="262.844" width="56.3748" height="34.236" filterUnits="userSpaceOnUse" color-interpolation-filters="sRGB">
<feFlood flood-opacity="0" result="BackgroundImageFix"/>
<feColorMatrix in="SourceAlpha" type="matrix" values="0 0 0 0 0 0 0 0 0 0 0 0 0 0 0 0 0 0 127 0"/>
<feOffset dy="0.5"/>
<feGaussianBlur stdDeviation="1"/>
<feColorMatrix type="matrix" values="0 0 0 0 0.376471 0 0 0 0 0.380392 0 0 0 0 0.439216 0 0 0 0.16 0"/>
<feBlend mode="normal" in2="BackgroundImageFix" result="effect1_dropShadow"/>
<feColorMatrix in="SourceAlpha" type="matrix" values="0 0 0 0 0 0 0 0 0 0 0 0 0 0 0 0 0 0 127 0"/>
<feOffset/>
<feGaussianBlur stdDeviation="0.5"/>
<feColorMatrix type="matrix" values="0 0 0 0 0.156863 0 0 0 0 0.160784 0 0 0 0 0.239216 0 0 0 0.08 0"/>
<feBlend mode="normal" in2="effect1_dropShadow" result="effect2_dropShadow"/>
<feBlend mode="normal" in="SourceGraphic" in2="effect2_dropShadow" result="shape"/>
</filter>
<filter id="filter10_dd" x="672.059" y="249.844" width="56.3748" height="34.236" filterUnits="userSpaceOnUse" color-interpolation-filters="sRGB">
<feFlood flood-opacity="0" result="BackgroundImageFix"/>
<feColorMatrix in="SourceAlpha" type="matrix" values="0 0 0 0 0 0 0 0 0 0 0 0 0 0 0 0 0 0 127 0"/>
<feOffset dy="0.5"/>
<feGaussianBlur stdDeviation="1"/>
<feColorMatrix type="matrix" values="0 0 0 0 0.376471 0 0 0 0 0.380392 0 0 0 0 0.439216 0 0 0 0.16 0"/>
<feBlend mode="normal" in2="BackgroundImageFix" result="effect1_dropShadow"/>
<feColorMatrix in="SourceAlpha" type="matrix" values="0 0 0 0 0 0 0 0 0 0 0 0 0 0 0 0 0 0 127 0"/>
<feOffset/>
<feGaussianBlur stdDeviation="0.5"/>
<feColorMatrix type="matrix" values="0 0 0 0 0.156863 0 0 0 0 0.160784 0 0 0 0 0.239216 0 0 0 0.08 0"/>
<feBlend mode="normal" in2="effect1_dropShadow" result="effect2_dropShadow"/>
<feBlend mode="normal" in="SourceGraphic" in2="effect2_dropShadow" result="shape"/>
</filter>
<filter id="filter11_dd" x="198" y="90" width="195.078" height="134.457" filterUnits="userSpaceOnUse" color-interpolation-filters="sRGB">
<feFlood flood-opacity="0" result="BackgroundImageFix"/>
<feColorMatrix in="SourceAlpha" type="matrix" values="0 0 0 0 0 0 0 0 0 0 0 0 0 0 0 0 0 0 127 0"/>
<feOffset dy="16"/>
<feGaussianBlur stdDeviation="12"/>
<feColorMatrix type="matrix" values="0 0 0 0 0.376471 0 0 0 0 0.380392 0 0 0 0 0.439216 0 0 0 0.16 0"/>
<feBlend mode="normal" in2="BackgroundImageFix" result="effect1_dropShadow"/>
<feColorMatrix in="SourceAlpha" type="matrix" values="0 0 0 0 0 0 0 0 0 0 0 0 0 0 0 0 0 0 127 0"/>
<feOffset dy="2"/>
<feGaussianBlur stdDeviation="4"/>
<feColorMatrix type="matrix" values="0 0 0 0 0.156863 0 0 0 0 0.160784 0 0 0 0 0.239216 0 0 0 0.04 0"/>
<feBlend mode="normal" in2="effect1_dropShadow" result="effect2_dropShadow"/>
<feBlend mode="normal" in="SourceGraphic" in2="effect2_dropShadow" result="shape"/>
</filter>
<radialGradient id="paint0_radial" cx="0" cy="0" r="1" gradientUnits="userSpaceOnUse" gradientTransform="translate(250.701 226.18) rotate(93.632) scale(244.71 229.238)">
<stop offset="0.744792" stop-color="#C4C4C4"/>
<stop offset="1" stop-color="#C4C4C4" stop-opacity="0"/>
</radialGradient>
<linearGradient id="paint1_linear" x1="227.398" y1="260.81" x2="757.582" y2="398.974" gradientUnits="userSpaceOnUse">
<stop stop-color="#8B90A4"/>
<stop offset="1" stop-color="#28293D"/>
</linearGradient>
<linearGradient id="paint2_linear" x1="-0.383015" y1="13.1213" x2="87.3745" y2="24.5005" gradientUnits="userSpaceOnUse">
<stop stop-color="#E4E4EB"/>
<stop offset="1" stop-color="#EDF0F4"/>
</linearGradient>
<linearGradient id="paint3_linear" x1="-0.383015" y1="13.1213" x2="87.3745" y2="24.5005" gradientUnits="userSpaceOnUse">
<stop stop-color="#E4E4EB"/>
<stop offset="1" stop-color="#EDF0F4"/>
</linearGradient>
<linearGradient id="paint4_linear" x1="281.631" y1="168.484" x2="281.837" y2="263.887" gradientUnits="userSpaceOnUse">
<stop stop-color="#8B90A4"/>
<stop offset="1" stop-color="#28293D"/>
</linearGradient>
<linearGradient id="paint5_linear" x1="19.6297" y1="24.3751" x2="86.1719" y2="75.5019" gradientUnits="userSpaceOnUse">
<stop stop-color="#40415A"/>
<stop offset="1" stop-color="#28293D"/>
</linearGradient>
<linearGradient id="paint6_linear" x1="681.4" y1="347.294" x2="707.003" y2="404.857" gradientUnits="userSpaceOnUse">
<stop stop-color="#E4E4EB"/>
<stop offset="1" stop-color="#EDF0F4"/>
</linearGradient>
<linearGradient id="paint7_linear" x1="691.626" y1="294" x2="691.626" y2="367.539" gradientUnits="userSpaceOnUse">
<stop stop-color="#39D98A"/>
<stop offset="1" stop-color="#47FFA4" stop-opacity="0.42"/>
</linearGradient>
<linearGradient id="paint8_linear" x1="712.5" y1="344.499" x2="731" y2="370.999" gradientUnits="userSpaceOnUse">
<stop stop-color="#39D98A"/>
<stop offset="1" stop-color="#47FFA4" stop-opacity="0"/>
</linearGradient>
<linearGradient id="paint9_linear" x1="666.5" y1="344.999" x2="649" y2="372.999" gradientUnits="userSpaceOnUse">
<stop stop-color="#39D98A"/>
<stop offset="1" stop-color="#47FFA4" stop-opacity="0"/>
</linearGradient>
<linearGradient id="paint10_linear" x1="-0.383015" y1="13.1213" x2="87.3745" y2="24.5005" gradientUnits="userSpaceOnUse">
<stop stop-color="#E4E4EB"/>
<stop offset="1" stop-color="#EDF0F4"/>
</linearGradient>
<linearGradient id="paint11_linear" x1="7.59227" y1="58.8857" x2="37.9142" y2="-1.76219" gradientUnits="userSpaceOnUse">
<stop stop-color="#E4E4EB"/>
<stop offset="1" stop-color="#EDF0F4"/>
</linearGradient>
<linearGradient id="paint12_linear" x1="7.59227" y1="58.8857" x2="37.9142" y2="-1.76219" gradientUnits="userSpaceOnUse">
<stop stop-color="#E4E4EB"/>
<stop offset="1" stop-color="#EDF0F4"/>
</linearGradient>
<linearGradient id="paint13_linear" x1="297.626" y1="110.999" x2="297.626" y2="184.538" gradientUnits="userSpaceOnUse">
<stop stop-color="#39D98A"/>
<stop offset="1" stop-color="#47FFA4" stop-opacity="0.42"/>
</linearGradient>
<linearGradient id="paint14_linear" x1="318.5" y1="161.498" x2="337" y2="187.998" gradientUnits="userSpaceOnUse">
<stop stop-color="#39D98A"/>
<stop offset="1" stop-color="#47FFA4" stop-opacity="0"/>
</linearGradient>
<linearGradient id="paint15_linear" x1="272.5" y1="161.998" x2="255" y2="189.998" gradientUnits="userSpaceOnUse">
<stop stop-color="#39D98A"/>
<stop offset="1" stop-color="#47FFA4" stop-opacity="0"/>
</linearGradient>
<linearGradient id="paint16_linear" x1="-0.383015" y1="13.1213" x2="87.3745" y2="24.5005" gradientUnits="userSpaceOnUse">
<stop stop-color="#E4E4EB"/>
<stop offset="1" stop-color="#EDF0F4"/>
</linearGradient>
<clipPath id="clip0">
<rect width="54.3348" height="53.6722" fill="white" transform="matrix(0.866044 -0.499967 0.866044 0.499967 736 133.167)"/>
</clipPath>
</defs>
</svg>
