<svg width="180" height="64" viewBox="0 0 180 64" fill="none" xmlns="http://www.w3.org/2000/svg">
<path fill-rule="evenodd" clip-rule="evenodd" d="M91.9602 25.035C91.9602 26.0441 91.1358 26.8569 90.1124 26.8569C89.089 26.8569 88.2646 26.0441 88.2646 25.035C88.2646 24.026 89.0606 23.2132 90.1124 23.2132C91.1642 23.2413 91.9602 24.0541 91.9602 25.035ZM84.3415 28.7067C84.3415 28.8749 84.3415 29.1551 84.3415 29.1551C84.3415 29.1551 83.4603 28.034 81.584 28.034C78.4854 28.034 76.069 30.3604 76.069 33.5836C76.069 36.7788 78.457 39.1331 81.584 39.1331C83.4887 39.1331 84.3415 37.984 84.3415 37.984V38.4605C84.3415 38.6847 84.5121 38.8528 84.7395 38.8528H87.0422V28.3143C87.0422 28.3143 84.9385 28.3143 84.7395 28.3143C84.5121 28.3143 84.3415 28.5105 84.3415 28.7067ZM84.3415 35.4615C83.9151 36.0781 83.0623 36.6106 82.0389 36.6106C80.2195 36.6106 78.8265 35.4895 78.8265 33.5836C78.8265 31.6777 80.2195 30.5565 82.0389 30.5565C83.0338 30.5565 83.9435 31.1171 84.3415 31.7057V35.4615ZM88.7478 28.3143H91.4769V38.8528H88.7478V28.3143ZM129.513 28.034C127.637 28.034 126.756 29.1552 126.756 29.1552V23.2412H124.027V38.8529C124.027 38.8529 126.131 38.8529 126.33 38.8529C126.557 38.8529 126.728 38.6567 126.728 38.4605V37.984C126.728 37.984 127.609 39.1331 129.485 39.1331C132.584 39.1331 135 36.7788 135 33.5836C135 30.3884 132.584 28.034 129.513 28.034ZM129.059 36.5826C128.007 36.5826 127.182 36.0501 126.756 35.4334V31.6777C127.182 31.1171 128.092 30.5285 129.059 30.5285C130.878 30.5285 132.271 31.6497 132.271 33.5556C132.271 35.4615 130.878 36.5826 129.059 36.5826ZM122.605 32.6026V38.8809H119.876V32.9109C119.876 31.1732 119.308 30.4725 117.773 30.4725C116.948 30.4725 116.095 30.8929 115.555 31.5095V38.8528H112.826V28.3143H114.987C115.214 28.3143 115.385 28.5105 115.385 28.7067V29.1551C116.181 28.3423 117.233 28.034 118.284 28.034C119.478 28.034 120.473 28.3704 121.269 29.043C122.236 29.8278 122.605 30.8368 122.605 32.6026ZM106.203 28.034C104.326 28.034 103.445 29.1552 103.445 29.1552V23.2412H100.716V38.8529C100.716 38.8529 102.82 38.8529 103.019 38.8529C103.246 38.8529 103.417 38.6567 103.417 38.4605V37.984C103.417 37.984 104.298 39.1331 106.174 39.1331C109.273 39.1331 111.689 36.7788 111.689 33.5836C111.718 30.3884 109.301 28.034 106.203 28.034ZM105.748 36.5826C104.696 36.5826 103.871 36.0501 103.445 35.4334V31.6777C103.871 31.1171 104.781 30.5285 105.748 30.5285C107.567 30.5285 108.96 31.6497 108.96 33.5556C108.96 35.4615 107.567 36.5826 105.748 36.5826ZM98.3565 28.034C99.1809 28.034 99.6073 28.1742 99.6073 28.1742V30.6687C99.6073 30.6687 97.3331 29.9119 95.9117 31.5095V38.8809H93.1826V28.3143C93.1826 28.3143 95.2863 28.3143 95.4852 28.3143C95.7127 28.3143 95.8832 28.5105 95.8832 28.7067V29.1551C96.3949 28.5666 97.5036 28.034 98.3565 28.034ZM70.0139 37.8999C69.8717 37.5636 69.7296 37.1992 69.5875 36.8909C69.36 36.3864 69.1326 35.9099 68.9336 35.4615L68.9052 35.4334C66.9437 31.2292 64.84 26.969 62.6226 22.7648L62.5373 22.5966C62.3099 22.1762 62.0825 21.7277 61.8551 21.2793C61.5708 20.7748 61.2865 20.2422 60.8317 19.7377C59.922 18.6166 58.6143 18 57.2213 18C55.7999 18 54.5207 18.6166 53.5826 19.6817C53.1561 20.1862 52.8434 20.7187 52.5592 21.2232C52.3317 21.6717 52.1043 22.1201 51.8769 22.5405L51.7916 22.7087C49.6027 26.9129 47.4706 31.1732 45.509 35.3774L45.4806 35.4334C45.2816 35.8819 45.0542 36.3584 44.8268 36.8629C44.6846 37.1712 44.5425 37.5075 44.4004 37.8719C44.0308 38.9089 43.9171 39.8899 44.0592 40.8989C44.3719 43.001 45.7933 44.7668 47.7548 45.5516C48.494 45.8599 49.2615 46 50.0575 46C50.2849 46 50.5692 45.972 50.7966 45.9439C51.7348 45.8318 52.7013 45.5235 53.6394 44.991C54.805 44.3463 55.9136 43.4214 57.1645 42.0761C58.4153 43.4214 59.5524 44.3463 60.6895 44.991C61.6277 45.5235 62.5942 45.8318 63.5323 45.9439C63.7597 45.972 64.044 46 64.2714 46C65.0674 46 65.8634 45.8599 66.5741 45.5516C68.5641 44.7668 69.957 42.973 70.2697 40.8989C70.4971 39.9179 70.3834 38.9369 70.0139 37.8999ZM57.1929 39.3573C55.6578 37.4514 54.6628 35.6576 54.3217 34.1441C54.1795 33.4995 54.1511 32.9389 54.2364 32.4344C54.2933 31.986 54.4638 31.5936 54.6912 31.2573C55.2314 30.5005 56.1411 30.024 57.1929 30.024C58.2447 30.024 59.1829 30.4725 59.6946 31.2573C59.922 31.5936 60.0925 31.986 60.1494 32.4344C60.2347 32.9389 60.2063 33.5275 60.0641 34.1441C59.723 35.6296 58.728 37.4234 57.1929 39.3573ZM68.5356 40.6747C68.3366 42.1321 67.3417 43.3934 65.9487 43.954C65.2664 44.2342 64.5273 44.3183 63.7882 44.2342C63.0775 44.1502 62.3668 43.9259 61.6277 43.5055C60.6042 42.9449 59.5808 42.0761 58.3869 40.7868C60.2631 38.5165 61.4002 36.4424 61.8266 34.5926C62.0256 33.7237 62.0541 32.9389 61.9688 32.2102C61.8551 31.5095 61.5992 30.8649 61.2012 30.3043C60.32 29.043 58.8417 28.3143 57.1929 28.3143C55.5441 28.3143 54.0658 29.0711 53.1846 30.3043C52.7866 30.8649 52.5307 31.5095 52.417 32.2102C52.3033 32.9389 52.3317 33.7518 52.5592 34.5926C52.9856 36.4424 54.1511 38.5445 55.9989 40.8148C54.8334 42.1041 53.7816 42.973 52.7582 43.5335C52.019 43.954 51.3083 44.1782 50.5976 44.2623C49.8301 44.3463 49.091 44.2342 48.4371 43.982C47.0442 43.4214 46.0492 42.1602 45.8502 40.7027C45.7649 40.002 45.8218 39.3013 46.106 38.5165C46.1913 38.2362 46.3335 37.956 46.4756 37.6196C46.6746 37.1712 46.902 36.6947 47.1294 36.2182L47.1579 36.1622C49.1194 31.986 51.2231 27.7257 53.412 23.5776L53.4973 23.4094C53.7247 22.989 53.9521 22.5405 54.1796 22.1201C54.407 21.6717 54.6628 21.2513 54.9755 20.8869C55.5725 20.2142 56.3685 19.8499 57.2498 19.8499C58.131 19.8499 58.927 20.2142 59.524 20.8869C59.8367 21.2513 60.0925 21.6717 60.32 22.1201C60.5474 22.5405 60.7748 22.989 61.0022 23.4094L61.0875 23.5776C63.248 27.7538 65.3517 32.014 67.3132 36.1902V36.2182C67.5407 36.6667 67.7396 37.1712 67.9671 37.6196C68.1092 37.956 68.2513 38.2362 68.3366 38.5165C68.5641 39.2452 68.6493 39.9459 68.5356 40.6747Z" fill="#8F90A6"/>
</svg>
