<svg width="20" height="18" viewBox="0 0 20 18" fill="none" xmlns="http://www.w3.org/2000/svg">
<path d="M19.9997 9.13609C19.9549 7.91191 18.9397 6.956 17.7266 6.99756C17.1892 7.01645 16.6778 7.23937 16.2897 7.61343C14.5802 6.43459 12.5722 5.7885 10.5082 5.74316L11.4823 1.00138L14.6959 1.68526C14.7855 2.52027 15.5245 3.12479 16.3494 3.03412C17.1742 2.94344 17.7714 2.19533 17.6818 1.36032C17.5923 0.525318 16.8533 -0.0792114 16.0284 0.011468C15.5544 0.0605861 15.1289 0.340181 14.8937 0.755795L11.2136 0.011468C10.9635 -0.0452066 10.7135 0.113482 10.6575 0.370407C10.6575 0.374186 10.6575 0.374186 10.6575 0.377964L9.54896 5.65248C7.45883 5.68649 5.42467 6.33636 3.69284 7.52275C2.812 6.68396 1.42355 6.72552 0.59496 7.62098C-0.233631 8.51266 -0.192574 9.91819 0.692002 10.757C0.863692 10.9194 1.06151 11.0592 1.28172 11.1575C1.26679 11.3804 1.26679 11.6033 1.28172 11.8262C1.28172 15.2305 5.20073 18 10.0342 18C14.8676 18 18.7866 15.2343 18.7866 11.8262C18.8016 11.6033 18.8016 11.3804 18.7866 11.1575C19.5406 10.7759 20.0146 9.98998 19.9997 9.13609ZM4.98425 10.6587C4.98425 9.81996 5.65981 9.13609 6.4884 9.13609C7.31699 9.13609 7.99256 9.81996 7.99256 10.6587C7.99256 11.4975 7.31699 12.1814 6.4884 12.1814C5.65608 12.1738 4.98425 11.4975 4.98425 10.6587ZM13.7068 14.8376C12.6394 15.6499 11.333 16.0655 9.99685 16.0088C8.66066 16.0655 7.35432 15.6499 6.28685 14.8376C6.14502 14.6638 6.17115 14.403 6.34284 14.2595C6.49214 14.1348 6.70488 14.1348 6.85791 14.2595C7.76115 14.9282 8.8622 15.2683 9.98192 15.2154C11.1016 15.2758 12.2064 14.9509 13.1209 14.2897C13.2851 14.1272 13.5538 14.131 13.7143 14.2973C13.8748 14.4635 13.8711 14.7355 13.7068 14.898V14.8376ZM13.4381 12.2343C12.6095 12.2343 11.934 11.5504 11.934 10.7116C11.934 9.87286 12.6095 9.18898 13.4381 9.18898C14.2667 9.18898 14.9423 9.87286 14.9423 10.7116C14.9759 11.5504 14.3302 12.257 13.5016 12.291C13.4754 12.291 13.453 12.291 13.4269 12.291L13.4381 12.2343Z" fill="white"/>
</svg>
