<svg width="20" height="16" viewBox="0 0 20 16" fill="none" xmlns="http://www.w3.org/2000/svg">
<path d="M19.7501 1.96017C19.033 2.26954 18.2525 2.4922 17.4486 2.57892C18.2832 2.08306 18.9082 1.2997 19.2064 0.375791C18.4232 0.841703 17.5652 1.16841 16.6705 1.34142C16.2965 0.941634 15.8442 0.62315 15.3418 0.405808C14.8394 0.188467 14.2976 0.0769255 13.7501 0.0781347C11.5353 0.0781347 9.75405 1.87345 9.75405 4.07657C9.75405 4.38595 9.79155 4.69532 9.85249 4.99298C6.53608 4.81954 3.57827 3.23517 1.61187 0.809385C1.25357 1.42137 1.0658 2.1182 1.06811 2.82735C1.06811 4.21485 1.77358 5.43829 2.84936 6.15782C2.21539 6.13285 1.59626 5.9586 1.04233 5.64923V5.69845C1.04233 7.64142 2.41577 9.25157 4.24624 9.62189C3.90255 9.71116 3.54899 9.75683 3.1939 9.75782C2.93374 9.75782 2.68765 9.73204 2.43921 9.69689C2.94546 11.2813 4.41968 12.432 6.17515 12.4695C4.80171 13.5453 3.0814 14.1781 1.21343 14.1781C0.878272 14.1781 0.568896 14.1664 0.247803 14.1289C2.01968 15.2656 4.12202 15.9219 6.38608 15.9219C13.7361 15.9219 17.758 9.83282 17.758 4.54767C17.758 4.37423 17.758 4.20079 17.7462 4.02735C18.5244 3.45782 19.2064 2.75235 19.7501 1.96017Z" fill="#8F90A6"/>
</svg>
