<svg width="1920" height="1080" viewBox="0 0 1920 1080" fill="none" xmlns="http://www.w3.org/2000/svg">
<mask id="mask0" mask-type="alpha" maskUnits="userSpaceOnUse" x="0" y="0" width="1920" height="1080">
<path fill-rule="evenodd" clip-rule="evenodd" d="M0 0H1920V1080H0V0Z" fill="white"/>
</mask>
<g mask="url(#mask0)">
<path fill-rule="evenodd" clip-rule="evenodd" d="M3371.94 -376.3C3505.06 -299.45 3505.34 -107.396 3372.43 -30.1652L2166.12 670.818C2104.18 706.807 2027.73 706.927 1965.69 671.132L1106.27 175.315C973.086 98.4786 972.806 -93.6428 1105.76 -170.867L2312.63 -871.835C2374.57 -907.814 2451.03 -907.915 2513.07 -872.102L3371.94 -376.3Z" fill="#F2F2F5"/>
<path fill-rule="evenodd" clip-rule="evenodd" d="M1964.94 -265.3C2098.06 -188.45 2098.34 3.60382 1965.43 80.8348L759.118 781.818C697.185 817.807 620.734 817.927 558.688 782.132L-300.731 286.315C-433.914 209.479 -434.194 17.3572 -301.236 -59.8672L905.631 -760.835C967.575 -796.814 1044.03 -796.915 1106.07 -761.102L1964.94 -265.3Z" fill="#FAFAFC"/>
</g>
</svg>
