<svg width="1500" height="740" viewBox="0 0 1500 740" fill="none" xmlns="http://www.w3.org/2000/svg">
<g clip-path="url(#clip0_3585_10256)">
<rect width="1500" height="740" fill="white"/>
<path opacity="0.15" d="M1044.7 648.231L1045.78 647.564L1100.97 613.555L1102.05 612.888L1157.24 578.878L1158.32 578.212L1213.51 544.202L1214.59 543.535L1269.78 509.526L1270.87 508.859L1326.05 474.849L1327.14 474.183L1382.33 440.173L1383.41 439.506L1438.6 405.497L1439.68 404.83L1494.87 370.82L1495.95 370.154L1494.87 369.487L1439.73 335.507L1438.65 334.841L1383.5 300.861L1382.42 300.194L1327.28 266.214L1326.2 265.547L1271.06 231.567L1269.98 230.902L1214.83 196.921L1213.75 196.255L1158.61 162.274L1157.53 161.608L1102.39 127.628L1101.31 126.962L1046.16 92.9813L1045.08 92.315L989.939 58.3347L988.858 57.6685L987.776 58.3352L820.043 161.697L818.961 162.364L651.227 265.726L650.145 266.393L481.329 370.422L650 474.362L651.081 475.028L818.671 578.302L819.752 578.967L987.342 682.242L988.424 682.907L989.506 682.241L1044.7 648.231ZM933.667 93.011L988.857 59.0016L1044 92.9818L988.81 126.991L933.667 93.011ZM989.891 127.658L1045.08 93.6481L1100.22 127.628L1045.03 161.638L989.891 127.658ZM1046.11 162.304L1101.3 128.295L1156.45 162.275L1101.26 196.284L1046.11 162.304ZM1102.34 196.951L1157.53 162.941L1212.67 196.922L1157.48 230.931L1102.34 196.951ZM1158.56 231.598L1213.75 197.588L1268.89 231.568L1213.7 265.578L1158.56 231.598ZM1214.79 266.243L1269.98 232.235L1325.12 266.215L1269.93 300.224L1214.79 266.243ZM1271.01 300.89L1326.2 266.881L1381.34 300.861L1326.15 334.871L1271.01 300.89ZM1327.23 335.537L1382.42 301.528L1437.57 335.508L1382.38 369.518L1327.23 335.537ZM1383.46 370.183L1438.65 336.174L1493.79 370.155L1438.6 404.164L1383.46 370.183ZM877.395 127.687L932.585 93.6778L987.728 127.658L932.538 161.668L877.395 127.687ZM933.619 162.334L988.809 128.324L1043.95 162.305L988.762 196.314L933.619 162.334ZM989.843 196.98L1045.03 162.971L1100.18 196.951L1044.99 230.96L989.843 196.98ZM1046.07 231.627L1101.26 197.618L1156.4 231.598L1101.21 265.607L1046.07 231.627ZM1102.29 266.274L1157.48 232.264L1212.62 266.244L1157.43 300.254L1102.29 266.274ZM1158.51 300.92L1213.7 266.911L1268.85 300.891L1213.66 334.9L1158.51 300.92ZM1214.74 335.567L1269.93 301.557L1325.07 335.537L1269.88 369.547L1214.74 335.567ZM1270.96 370.214L1326.15 336.204L1381.29 370.184L1326.1 404.194L1270.96 370.214ZM1327.18 404.86L1382.37 370.851L1437.52 404.831L1382.33 438.84L1327.18 404.86ZM821.123 162.364L876.314 128.354L931.456 162.334L876.266 196.344L821.123 162.364ZM877.347 197.01L932.537 163.001L987.68 196.981L932.49 230.991L877.347 197.01ZM933.571 231.656L988.761 197.647L1043.9 231.628L988.713 265.637L933.571 231.656ZM989.795 266.303L1044.98 232.293L1100.13 266.274L1044.94 300.284L989.795 266.303ZM1046.02 300.95L1101.21 266.94L1156.35 300.921L1101.16 334.931L1046.02 300.95ZM1102.24 335.596L1157.43 301.587L1212.57 335.568L1157.38 369.576L1102.24 335.596ZM1158.47 370.243L1213.66 336.233L1268.8 370.214L1213.61 404.223L1158.47 370.243ZM1214.69 404.89L1269.88 370.88L1325.02 404.861L1269.83 438.87L1214.69 404.89ZM1270.91 439.536L1326.1 405.527L1381.25 439.507L1326.06 473.516L1270.91 439.536ZM764.852 197.04L820.042 163.03L875.184 197.011L819.994 231.02L764.852 197.04ZM821.075 231.687L876.265 197.677L931.408 231.657L876.218 265.667L821.075 231.687ZM877.3 266.333L932.489 232.324L987.631 266.304L932.441 300.313L877.3 266.333ZM933.523 300.98L988.712 266.97L1043.85 300.95L988.666 334.96L933.523 300.98ZM989.747 335.626L1044.94 301.617L1100.08 335.597L1044.89 369.607L989.747 335.626ZM1045.97 370.272L1101.16 336.264L1156.3 370.244L1101.11 404.253L1045.97 370.272ZM1102.19 404.919L1157.38 370.91L1212.53 404.89L1157.34 438.9L1102.19 404.919ZM1158.42 439.566L1213.61 405.556L1268.75 439.537L1213.56 473.547L1158.42 439.566ZM1214.64 474.212L1269.83 440.203L1324.97 474.184L1269.78 508.192L1214.64 474.212ZM708.58 231.716L763.77 197.707L818.912 231.687L763.722 265.696L708.58 231.716ZM764.803 266.363L819.993 232.353L875.136 266.334L819.946 300.343L764.803 266.363ZM821.028 301.009L876.217 267L931.359 300.981L876.169 334.989L821.028 301.009ZM877.251 335.656L932.44 301.646L987.583 335.626L932.394 369.636L877.251 335.656ZM933.475 370.303L988.665 336.293L1043.81 370.273L988.617 404.283L933.475 370.303ZM989.698 404.949L1044.89 370.94L1100.03 404.92L1044.84 438.929L989.698 404.949ZM1045.92 439.596L1101.11 405.586L1156.25 439.566L1101.06 473.576L1045.92 439.596ZM1102.15 474.243L1157.34 440.233L1212.48 474.213L1157.29 508.223L1102.15 474.243ZM1158.37 508.888L1213.56 474.88L1268.7 508.86L1213.51 542.869L1158.37 508.888ZM652.308 266.392L707.498 232.383L762.64 266.363L707.45 300.373L652.308 266.392ZM708.532 301.039L763.721 267.03L818.864 301.01L763.674 335.02L708.532 301.039ZM764.756 335.685L819.945 301.676L875.087 335.657L819.898 369.666L764.756 335.685ZM820.979 370.332L876.169 336.322L931.311 370.303L876.122 404.312L820.979 370.332ZM877.203 404.979L932.393 370.969L987.535 404.95L932.345 438.959L877.203 404.979ZM933.426 439.625L988.616 405.616L1043.76 439.597L988.569 473.605L933.426 439.625ZM989.65 474.272L1044.84 440.262L1099.98 474.243L1044.79 508.252L989.65 474.272ZM1045.87 508.919L1101.06 474.909L1156.21 508.889L1101.02 542.899L1045.87 508.919ZM1102.1 543.565L1157.29 509.556L1212.43 543.536L1157.24 577.545L1102.1 543.565ZM596.036 301.069L651.226 267.059L706.368 301.039L651.179 335.049L596.036 301.069ZM652.26 335.716L707.45 301.706L762.592 335.686L707.402 369.696L652.26 335.716ZM708.483 370.361L763.673 336.353L818.815 370.333L763.626 404.342L708.483 370.361ZM764.707 405.008L819.897 370.999L875.039 404.979L819.85 438.989L764.707 405.008ZM820.931 439.655L876.121 405.646L931.263 439.626L876.073 473.636L820.931 439.655ZM877.154 474.301L932.344 440.293L987.487 474.273L932.297 508.282L877.154 474.301ZM933.378 508.948L988.568 474.938L1043.71 508.919L988.52 542.929L933.378 508.948ZM989.602 543.595L1044.79 509.585L1099.93 543.566L1044.74 577.575L989.602 543.595ZM1045.83 578.241L1101.01 544.232L1156.16 578.213L1100.97 612.221L1045.83 578.241ZM539.764 335.745L594.954 301.735L650.096 335.716L594.907 369.725L539.764 335.745ZM595.988 370.392L651.178 336.382L706.32 370.363L651.13 404.372L595.988 370.392ZM652.212 405.038L707.401 371.029L762.544 405.009L707.354 439.018L652.212 405.038ZM708.435 439.685L763.625 405.675L818.767 439.655L763.578 473.665L708.435 439.685ZM764.659 474.332L819.849 440.322L874.992 474.302L819.801 508.312L764.659 474.332ZM820.882 508.978L876.072 474.969L931.215 508.949L876.025 542.958L820.882 508.978ZM877.106 543.625L932.296 509.615L987.439 543.595L932.249 577.605L877.106 543.625ZM933.33 578.271L988.52 544.262L1043.66 578.242L988.472 612.252L933.33 578.271ZM989.554 612.917L1044.74 578.909L1099.89 612.889L1044.7 646.898L989.554 612.917ZM483.492 370.421L538.682 336.411L593.825 370.392L538.635 404.402L483.492 370.421ZM539.716 405.068L594.906 371.058L650.048 405.039L594.859 439.049L539.716 405.068ZM595.94 439.714L651.129 405.705L706.272 439.686L651.082 473.694L595.94 439.714ZM652.163 474.361L707.353 440.351L762.495 474.332L707.306 508.341L652.163 474.361ZM708.387 509.008L763.577 474.998L818.72 508.979L763.53 542.988L708.387 509.008ZM764.61 543.654L819.801 509.645L874.943 543.626L819.753 577.634L764.61 543.654ZM820.834 578.301L876.024 544.291L931.167 578.271L875.977 612.281L820.834 578.301ZM877.059 612.948L932.248 578.938L987.39 612.918L932.201 646.928L877.059 612.948ZM933.282 647.594L988.471 613.585L1043.61 647.565L988.425 681.574L933.282 647.594Z" fill="url(#paint0_radial_3585_10256)"/>
<path d="M648.966 405.038L651.131 403.705L653.293 405.037L651.129 406.371L648.966 405.038ZM538.681 337.077L540.846 335.744L538.683 334.411L536.519 335.745L538.681 337.077ZM707.377 406.356L709.541 405.022L707.378 403.69L705.214 405.023L707.377 406.356ZM594.905 371.724L597.07 370.39L594.907 369.058L592.743 370.391L594.905 371.724ZM651.153 371.709L653.317 370.376L651.155 369.043L648.991 370.377L651.153 371.709ZM538.658 371.739L540.821 370.405L538.659 369.073L536.495 370.406L538.658 371.739ZM594.857 441.047L597.021 439.713L594.859 438.381L592.695 439.714L594.857 441.047ZM651.105 441.032L653.269 439.698L651.107 438.366L648.942 439.699L651.105 441.032ZM538.635 403.734L536.471 405.067L538.633 406.4L540.798 405.066L538.635 403.734ZM594.881 406.385L597.045 405.052L594.883 403.719L592.719 405.053L594.881 406.385ZM651.201 302.387L653.366 301.053L651.203 299.72L649.039 301.054L651.201 302.387ZM594.929 337.063L597.094 335.729L594.931 334.397L592.767 335.73L594.929 337.063ZM707.425 337.033L709.589 335.699L707.427 334.366L705.262 335.7L707.425 337.033ZM763.648 371.68L765.813 370.345L763.65 369.013L761.486 370.346L763.648 371.68ZM707.401 371.695L709.565 370.361L707.403 369.029L705.238 370.362L707.401 371.695ZM651.177 337.048L653.341 335.714L651.179 334.382L649.015 335.716L651.177 337.048ZM594.953 302.401L597.118 301.068L594.955 299.735L592.791 301.069L594.953 302.401ZM478.087 367.089L477.004 367.756L481.328 370.421L477 373.089L478.082 373.754L482.41 371.087L486.735 373.752L487.817 373.086L483.492 370.42L487.821 367.753L486.74 367.087L482.411 369.754L478.087 367.089ZM819.944 302.342L822.109 301.008L819.946 299.676L817.782 301.009L819.944 302.342ZM707.497 233.048L709.662 231.715L707.499 230.382L705.335 231.716L707.497 233.048ZM876.192 302.327L878.357 300.993L876.194 299.661L874.03 300.995L876.192 302.327ZM763.721 267.695L765.885 266.361L763.723 265.029L761.559 266.363L763.721 267.695ZM819.969 267.68L822.133 266.347L819.971 265.014L817.806 266.348L819.969 267.68ZM707.473 267.71L709.637 266.376L707.475 265.044L705.311 266.377L707.473 267.71ZM763.672 337.018L765.837 335.684L763.674 334.352L761.51 335.685L763.672 337.018ZM819.92 337.003L822.085 335.669L819.922 334.337L817.758 335.671L819.92 337.003ZM707.451 299.705L705.287 301.039L707.449 302.371L709.613 301.037L707.451 299.705ZM763.697 302.356L765.861 301.023L763.699 299.69L761.534 301.024L763.697 302.356ZM820.017 198.357L822.181 197.024L820.019 195.691L817.854 197.025L820.017 198.357ZM763.745 233.034L765.909 231.7L763.747 230.368L761.582 231.701L763.745 233.034ZM876.241 233.004L878.405 231.671L876.243 230.337L874.078 231.672L876.241 233.004ZM932.464 267.651L934.628 266.316L932.466 264.984L930.301 266.319L932.464 267.651ZM876.216 267.666L878.381 266.332L876.218 265L874.054 266.333L876.216 267.666ZM819.993 233.019L822.157 231.685L819.994 230.353L817.831 231.687L819.993 233.019ZM763.769 198.372L765.934 197.039L763.771 195.706L761.606 197.04L763.769 198.372ZM646.902 263.06L645.82 263.727L650.145 266.392L645.816 269.06L646.897 269.725L651.226 267.058L655.551 269.723L656.633 269.057L652.308 266.391L656.637 263.724L655.555 263.058L651.227 265.725L646.902 263.06ZM988.76 198.313L990.925 196.979L988.762 195.647L986.598 196.98L988.76 198.313ZM876.313 129.02L878.478 127.686L876.315 126.354L874.15 127.687L876.313 129.02ZM1045.01 198.298L1047.17 196.964L1045.01 195.632L1042.85 196.965L1045.01 198.298ZM932.536 163.666L934.701 162.333L932.538 161L930.374 162.334L932.536 163.666ZM988.785 163.651L990.948 162.318L988.787 160.985L986.622 162.319L988.785 163.651ZM876.289 163.681L878.453 162.347L876.291 161.015L874.126 162.349L876.289 163.681ZM932.488 232.989L934.653 231.655L932.49 230.323L930.326 231.656L932.488 232.989ZM988.736 232.974L990.9 231.64L988.738 230.308L986.573 231.642L988.736 232.974ZM876.266 195.676L874.103 197.01L876.264 198.343L878.429 197.009L876.266 195.676ZM932.513 198.328L934.676 196.994L932.515 195.661L930.35 196.995L932.513 198.328ZM988.832 94.3286L990.997 92.9949L988.834 91.6623L986.67 92.996L988.832 94.3286ZM1101.3 128.96L1103.47 127.627L1101.31 126.294L1099.14 127.628L1101.3 128.96ZM1045.08 91.6475L1042.92 92.9812L1045.08 94.3137L1047.24 92.98L1045.08 91.6475ZM932.56 129.005L934.725 127.671L932.562 126.339L930.398 127.672L932.56 129.005ZM1045.06 128.975L1047.22 127.641L1045.06 126.309L1042.89 127.643L1045.06 128.975ZM1101.28 163.622L1103.44 162.288L1101.28 160.955L1099.12 162.289L1101.28 163.622ZM1045.03 163.637L1047.2 162.303L1045.03 160.97L1042.87 162.304L1045.03 163.637ZM988.808 128.99L990.973 127.656L988.81 126.324L986.646 127.657L988.808 128.99ZM932.585 94.3434L934.749 93.0097L932.587 91.6772L930.422 93.0109L932.585 94.3434ZM988.858 57.6675L984.533 55.0023L983.451 55.6692L987.776 58.3343L983.447 61.0017L984.528 61.668L988.857 59.0006L993.182 61.6657L994.264 60.9988L989.94 58.3337L994.268 55.6664L993.186 55L988.858 57.6675ZM815.717 159.031L814.635 159.698L818.96 162.363L814.632 165.031L815.712 165.697L820.041 163.029L824.367 165.695L825.448 165.028L821.124 162.363L825.452 159.695L824.371 159.029L820.042 161.696L815.717 159.031ZM819.8 510.311L821.965 508.977L819.802 507.645L817.637 508.978L819.8 510.311ZM707.353 441.017L709.517 439.684L707.354 438.351L705.19 439.685L707.353 441.017ZM876.048 510.296L878.212 508.961L876.049 507.629L873.885 508.962L876.048 510.296ZM763.576 475.664L765.74 474.33L763.578 472.998L761.414 474.331L763.576 475.664ZM819.824 475.649L821.988 474.316L819.826 472.982L817.662 474.317L819.824 475.649ZM707.328 475.679L709.493 474.345L707.33 473.013L705.166 474.346L707.328 475.679ZM763.528 544.987L765.693 543.653L763.53 542.321L761.365 543.654L763.528 544.987ZM819.776 544.972L821.94 543.638L819.778 542.306L817.613 543.639L819.776 544.972ZM707.306 507.674L705.142 509.007L707.304 510.34L709.469 509.006L707.306 507.674ZM763.552 510.325L765.716 508.992L763.554 507.659L761.39 508.993L763.552 510.325ZM819.872 406.326L822.037 404.992L819.874 403.66L817.71 404.993L819.872 406.326ZM763.6 441.003L765.765 439.669L763.602 438.337L761.438 439.67L763.6 441.003ZM876.096 440.972L878.26 439.639L876.097 438.306L873.934 439.64L876.096 440.972ZM932.319 475.619L934.484 474.285L932.321 472.953L930.157 474.286L932.319 475.619ZM876.072 475.635L878.237 474.3L876.074 472.968L873.909 474.301L876.072 475.635ZM819.848 440.988L822.012 439.653L819.85 438.321L817.685 439.654L819.848 440.988ZM763.625 406.341L765.789 405.008L763.627 403.674L761.462 405.009L763.625 406.341ZM646.757 471.028L645.675 471.696L650 474.36L645.671 477.028L646.753 477.694L651.081 475.027L655.406 477.692L656.488 477.025L652.163 474.36L656.492 471.693L655.411 471.026L651.082 473.694L646.757 471.028ZM988.616 406.282L990.779 404.948L988.618 403.616L986.453 404.949L988.616 406.282ZM876.169 336.988L878.332 335.655L876.17 334.322L874.006 335.656L876.169 336.988ZM1044.86 406.267L1047.03 404.933L1044.86 403.6L1042.7 404.934L1044.86 406.267ZM932.392 371.635L934.556 370.301L932.394 368.969L930.229 370.302L932.392 371.635ZM988.639 371.62L990.804 370.287L988.641 368.954L986.478 370.288L988.639 371.62ZM876.144 371.65L878.309 370.316L876.146 368.984L873.982 370.317L876.144 371.65ZM932.344 440.958L934.508 439.624L932.346 438.292L930.181 439.625L932.344 440.958ZM988.591 440.943L990.756 439.609L988.593 438.277L986.429 439.61L988.591 440.943ZM876.122 403.645L873.957 404.978L876.12 406.311L878.284 404.977L876.122 403.645ZM932.367 406.296L934.532 404.963L932.369 403.63L930.206 404.964L932.367 406.296ZM988.688 302.298L990.853 300.963L988.69 299.631L986.525 300.964L988.688 302.298ZM932.416 336.974L934.581 335.64L932.418 334.308L930.253 335.641L932.416 336.974ZM1044.91 336.943L1047.08 335.61L1044.91 334.277L1042.75 335.611L1044.91 336.943ZM1101.13 371.59L1103.3 370.256L1101.14 368.924L1098.97 370.258L1101.13 371.59ZM1044.89 371.606L1047.05 370.271L1044.89 368.939L1042.72 370.272L1044.89 371.606ZM988.664 336.959L990.828 335.625L988.666 334.292L986.501 335.626L988.664 336.959ZM932.44 302.312L934.604 300.979L932.442 299.645L930.278 300.98L932.44 302.312ZM815.573 366.999L814.491 367.667L818.816 370.332L814.487 372.999L815.568 373.665L819.897 370.998L824.221 373.663L825.304 372.996L820.979 370.331L825.308 367.664L824.226 366.997L819.898 369.665L815.573 366.999ZM1157.43 302.253L1159.6 300.919L1157.43 299.587L1155.27 300.92L1157.43 302.253ZM1044.98 232.959L1047.15 231.626L1044.99 230.293L1042.82 231.627L1044.98 232.959ZM1213.68 302.238L1215.84 300.904L1213.68 299.572L1211.52 300.906L1213.68 302.238ZM1101.21 267.606L1103.37 266.272L1101.21 264.94L1099.05 266.274L1101.21 267.606ZM1157.46 267.591L1159.62 266.258L1157.46 264.925L1155.29 266.259L1157.46 267.591ZM1044.96 267.621L1047.12 266.287L1044.96 264.955L1042.8 266.288L1044.96 267.621ZM1101.16 336.929L1103.32 335.595L1101.16 334.263L1099 335.596L1101.16 336.929ZM1157.41 336.914L1159.57 335.58L1157.41 334.248L1155.24 335.582L1157.41 336.914ZM1044.94 299.616L1042.77 300.95L1044.94 302.282L1047.1 300.948L1044.94 299.616ZM1101.18 302.267L1103.35 300.934L1101.19 299.601L1099.02 300.935L1101.18 302.267ZM1157.5 198.268L1159.67 196.935L1157.51 195.602L1155.34 196.936L1157.5 198.268ZM1269.98 232.9L1272.14 231.566L1269.98 230.234L1267.81 231.567L1269.98 232.9ZM1213.75 195.587L1211.59 196.921L1213.75 198.253L1215.92 196.92L1213.75 195.587ZM1101.23 232.945L1103.4 231.611L1101.23 230.279L1099.07 231.612L1101.23 232.945ZM1213.73 232.915L1215.89 231.581L1213.73 230.248L1211.56 231.582L1213.73 232.915ZM1269.95 267.561L1272.12 266.227L1269.95 264.895L1267.79 266.229L1269.95 267.561ZM1213.7 267.577L1215.87 266.243L1213.71 264.91L1211.54 266.244L1213.7 267.577ZM1157.48 232.93L1159.64 231.596L1157.48 230.263L1155.32 231.598L1157.48 232.93ZM1101.26 198.283L1103.42 196.949L1101.26 195.617L1099.09 196.951L1101.26 198.283ZM1153.2 158.942L1152.12 159.609L1156.45 162.274L1152.12 164.941L1153.2 165.608L1157.53 162.94L1161.85 165.605L1162.93 164.939L1158.61 162.273L1162.94 159.606L1161.86 158.94L1157.53 161.607L1153.2 158.942ZM984.389 262.971L983.306 263.638L987.632 266.303L983.303 268.971L984.384 269.636L988.712 266.969L993.037 269.634L994.119 268.968L989.794 266.302L994.123 263.635L993.042 262.968L988.713 265.636L984.389 262.971ZM1044.69 648.897L1046.86 647.563L1044.7 646.23L1042.53 647.564L1044.69 648.897ZM988.47 614.25L990.635 612.916L988.472 611.583L986.309 612.917L988.47 614.25ZM876.023 544.957L878.188 543.624L876.025 542.29L873.861 543.625L876.023 544.957ZM1044.72 614.235L1046.88 612.901L1044.72 611.569L1042.56 612.902L1044.72 614.235ZM932.247 579.604L934.412 578.27L932.249 576.937L930.085 578.271L932.247 579.604ZM988.495 579.588L990.659 578.255L988.497 576.922L986.332 578.256L988.495 579.588ZM876 579.619L878.163 578.285L876.002 576.952L873.837 578.286L876 579.619ZM932.199 648.926L934.363 647.593L932.2 646.26L930.037 647.594L932.199 648.926ZM988.447 648.912L990.611 647.578L988.449 646.245L986.284 647.579L988.447 648.912ZM875.977 611.614L873.813 612.947L875.975 614.28L878.14 612.946L875.977 611.614ZM932.223 614.265L934.387 612.932L932.225 611.599L930.06 612.933L932.223 614.265ZM988.544 510.266L990.707 508.932L988.545 507.6L986.381 508.933L988.544 510.266ZM932.272 544.943L934.435 543.608L932.274 542.275L930.109 543.609L932.272 544.943ZM1044.77 544.912L1046.93 543.579L1044.77 542.246L1042.6 543.58L1044.77 544.912ZM1100.99 579.559L1103.16 578.225L1100.99 576.893L1098.83 578.226L1100.99 579.559ZM1100.97 614.22L1103.13 612.887L1100.97 611.554L1098.8 612.888L1100.97 614.22ZM1044.74 579.574L1046.91 578.24L1044.74 576.908L1042.58 578.241L1044.74 579.574ZM988.519 544.927L990.684 543.593L988.521 542.261L986.357 543.594L988.519 544.927ZM932.295 510.28L934.46 508.947L932.297 507.614L930.133 508.948L932.295 510.28ZM815.428 574.968L814.346 575.636L818.671 578.3L814.342 580.968L815.423 581.634L819.752 578.966L824.077 581.632L825.159 580.965L820.834 578.3L825.163 575.633L824.082 574.966L819.753 577.633L815.428 574.968ZM984.099 678.908L983.017 679.575L987.342 682.24L983.014 684.908L984.095 685.574L988.423 682.906L992.748 685.571L993.83 684.905L989.505 682.24L993.834 679.572L992.752 678.906L988.424 681.573L984.099 678.908ZM1213.51 544.868L1215.67 543.534L1213.51 542.201L1211.35 543.535L1213.51 544.868ZM1157.29 510.222L1159.45 508.888L1157.29 507.555L1155.12 508.889L1157.29 510.222ZM1044.84 440.928L1047 439.595L1044.84 438.262L1042.68 439.596L1044.84 440.928ZM1213.53 510.206L1215.7 508.872L1213.54 507.54L1211.37 508.873L1213.53 510.206ZM1101.06 475.575L1103.23 474.241L1101.06 472.908L1098.9 474.242L1101.06 475.575ZM1157.31 475.56L1159.47 474.226L1157.31 472.893L1155.15 474.227L1157.31 475.56ZM1044.82 475.59L1046.98 474.256L1044.82 472.924L1042.65 474.257L1044.82 475.59ZM1101.01 544.898L1103.18 543.564L1101.02 542.231L1098.85 543.565L1101.01 544.898ZM1157.26 544.883L1159.43 543.549L1157.26 542.217L1155.1 543.55L1157.26 544.883ZM1044.79 507.585L1042.63 508.918L1044.79 510.251L1046.96 508.917L1044.79 507.585ZM1101.04 510.236L1103.2 508.903L1101.04 507.57L1098.88 508.904L1101.04 510.236ZM1157.36 406.237L1159.52 404.903L1157.36 403.571L1155.2 404.904L1157.36 406.237ZM1101.09 440.914L1103.25 439.579L1101.09 438.247L1098.92 439.581L1101.09 440.914ZM1213.58 440.883L1215.75 439.55L1213.58 438.217L1211.42 439.551L1213.58 440.883ZM1269.81 475.53L1271.97 474.196L1269.81 472.864L1267.64 474.197L1269.81 475.53ZM1269.78 510.191L1271.95 508.858L1269.78 507.525L1267.62 508.859L1269.78 510.191ZM1213.56 475.545L1215.72 474.211L1213.56 472.879L1211.4 474.212L1213.56 475.545ZM1157.33 440.898L1159.5 439.564L1157.34 438.232L1155.17 439.565L1157.33 440.898ZM1101.11 406.252L1103.28 404.918L1101.11 403.585L1098.95 404.919L1101.11 406.252ZM984.244 470.939L983.162 471.607L987.486 474.271L983.158 476.939L984.239 477.605L988.568 474.938L992.893 477.603L993.975 476.936L989.65 474.271L993.979 471.604L992.898 470.937L988.568 473.604L984.244 470.939ZM1152.92 574.879L1151.83 575.547L1156.16 578.211L1151.83 580.879L1152.91 581.545L1157.24 578.877L1161.56 581.543L1162.65 580.876L1158.32 578.211L1162.65 575.544L1161.57 574.877L1157.24 577.544L1152.92 574.879ZM1382.33 440.839L1384.49 439.506L1382.33 438.172L1380.16 439.507L1382.33 440.839ZM1326.1 406.193L1328.27 404.859L1326.1 403.527L1323.94 404.86L1326.1 406.193ZM1213.65 336.899L1215.82 335.566L1213.66 334.233L1211.49 335.567L1213.65 336.899ZM1382.35 406.178L1384.51 404.843L1382.35 403.511L1380.19 404.844L1382.35 406.178ZM1269.88 371.546L1272.04 370.212L1269.88 368.88L1267.72 370.214L1269.88 371.546ZM1326.13 371.531L1328.29 370.198L1326.13 368.864L1323.96 370.199L1326.13 371.531ZM1213.63 371.561L1215.8 370.227L1213.63 368.895L1211.47 370.228L1213.63 371.561ZM1269.83 440.869L1271.99 439.535L1269.83 438.203L1267.67 439.536L1269.83 440.869ZM1326.08 440.854L1328.24 439.52L1326.08 438.188L1323.92 439.521L1326.08 440.854ZM1213.61 403.556L1211.44 404.889L1213.61 406.222L1215.77 404.888L1213.61 403.556ZM1269.85 406.207L1272.02 404.874L1269.86 403.541L1267.69 404.875L1269.85 406.207ZM1326.17 302.208L1328.34 300.874L1326.18 299.542L1324.01 300.875L1326.17 302.208ZM1438.65 336.84L1440.81 335.506L1438.65 334.174L1436.48 335.507L1438.65 336.84ZM1382.42 299.527L1380.26 300.861L1382.42 302.193L1384.59 300.859L1382.42 299.527ZM1269.9 336.885L1272.07 335.551L1269.9 334.218L1267.74 335.552L1269.9 336.885ZM1382.4 336.854L1384.56 335.521L1382.4 334.188L1380.24 335.522L1382.4 336.854ZM1438.62 371.501L1440.79 370.167L1438.62 368.835L1436.46 370.168L1438.62 371.501ZM1438.6 406.162L1440.76 404.829L1438.6 403.496L1436.44 404.83L1438.6 406.162ZM1382.37 371.516L1384.54 370.182L1382.38 368.85L1380.21 370.183L1382.37 371.516ZM1326.15 336.87L1328.32 335.535L1326.15 334.203L1323.99 335.537L1326.15 336.87ZM1269.93 302.223L1272.09 300.889L1269.93 299.556L1267.76 300.89L1269.93 302.223ZM1490.55 366.821L1489.46 367.489L1493.79 370.154L1489.46 372.821L1490.54 373.487L1494.87 370.82L1499.2 373.485L1500.28 372.818L1495.95 370.153L1500.28 367.486L1499.2 366.819L1494.87 369.486L1490.55 366.821ZM1321.88 262.881L1320.79 263.549L1325.12 266.214L1320.79 268.881L1321.87 269.547L1326.2 266.88L1330.52 269.545L1331.61 268.878L1327.28 266.213L1331.61 263.546L1330.53 262.879L1326.2 265.547L1321.88 262.881ZM1153.06 366.91L1151.98 367.578L1156.3 370.243L1151.97 372.91L1153.05 373.576L1157.38 370.909L1161.71 373.574L1162.79 372.907L1158.47 370.242L1162.79 367.575L1161.71 366.908L1157.38 369.576L1153.06 366.91ZM1321.73 470.85L1320.65 471.518L1324.97 474.183L1320.64 476.85L1321.73 477.516L1326.05 474.848L1330.38 477.514L1331.46 476.847L1327.14 474.182L1331.46 471.515L1330.38 470.848L1326.06 473.515L1321.73 470.85Z" fill="url(#paint1_radial_3585_10256)"/>
</g>
<defs>
<radialGradient id="paint0_radial_3585_10256" cx="0" cy="0" r="1" gradientUnits="userSpaceOnUse" gradientTransform="translate(988.641 370.288) rotate(31.6425) scale(297.822 266.259)">
<stop stop-color="#8F90A6"/>
<stop offset="0.317708" stop-color="#8F90A6"/>
<stop offset="1" stop-color="#8F90A6" stop-opacity="0"/>
</radialGradient>
<radialGradient id="paint1_radial_3585_10256" cx="0" cy="0" r="1" gradientUnits="userSpaceOnUse" gradientTransform="translate(988.64 370.287) rotate(90) scale(315.287 511.64)">
<stop stop-color="#39D98A"/>
<stop offset="0.317708" stop-color="#39C17E"/>
<stop offset="1" stop-color="#8F90A6" stop-opacity="0"/>
</radialGradient>
<clipPath id="clip0_3585_10256">
<rect width="1500" height="740" fill="white"/>
</clipPath>
</defs>
</svg>
