<svg width="788" height="308" viewBox="0 0 788 308" fill="none" xmlns="http://www.w3.org/2000/svg">
<g opacity="0.25">
<path d="M19.0542 44.8335L-10.6096 27.0426V-8.53918L19.0542 -26.3301L48.718 -8.53918V27.0426L19.0542 44.8335ZM-9.82893 26.5744L19.0542 43.8971L47.9373 26.5744V-8.071L19.0542 -25.3937L-9.82893 -8.071V26.5744Z" fill="white" fill-opacity="0.25"/>
<path d="M19.0541 9.71989L-11 -8.30509L19.0541 -26.3301L49.1082 -8.30509L19.0541 9.71989ZM-9.43875 -8.30509L19.0541 8.78353L47.5469 -8.30509L19.0541 -25.3937L-9.43875 -8.30509Z" fill="white" fill-opacity="0.25"/>
<path d="M19.4444 9.25195H18.6638V44.3656H19.4444V9.25195Z" fill="white" fill-opacity="0.25"/>
<path d="M77.601 44.8335L47.9373 27.0426V-8.53918L77.601 -26.3301L107.265 -8.53918V27.0426L77.601 44.8335ZM48.7179 26.5744L77.601 43.8971L106.484 26.5744V-8.071L77.601 -25.3937L48.7179 -8.071V26.5744Z" fill="white" fill-opacity="0.25"/>
<path d="M77.601 9.71989L47.5469 -8.30509L77.601 -26.3301L107.655 -8.30509L77.601 9.71989ZM49.1081 -8.30509L77.601 8.78353L106.094 -8.30509L77.601 -25.3937L49.1081 -8.30509Z" fill="white" fill-opacity="0.25"/>
<path d="M77.9912 9.25195H77.2106V44.3656H77.9912V9.25195Z" fill="white" fill-opacity="0.25"/>
<path d="M136.148 44.8335L106.484 27.0426V-8.53918L136.148 -26.3301L165.812 -8.53918V27.0426L136.148 44.8335ZM107.265 26.5744L136.148 43.8971L165.031 26.5744V-8.071L136.148 -25.3937L107.265 -8.071V26.5744Z" fill="white" fill-opacity="0.25"/>
<path d="M136.148 9.71989L106.094 -8.30509L136.148 -26.3301L166.202 -8.30509L136.148 9.71989ZM107.655 -8.30509L136.148 8.78353L164.641 -8.30509L136.148 -25.3937L107.655 -8.30509Z" fill="white" fill-opacity="0.25"/>
<path d="M136.538 9.25195H135.758V44.3656H136.538V9.25195Z" fill="white" fill-opacity="0.25"/>
<path d="M194.695 44.8335L165.031 27.0426V-8.53918L194.695 -26.3301L224.359 -8.53918V27.0426L194.695 44.8335ZM165.812 26.5744L194.695 43.8971L223.578 26.5744V-8.071L194.695 -25.3937L165.812 -8.071V26.5744Z" fill="white" fill-opacity="0.25"/>
<path d="M194.695 9.71989L164.641 -8.30509L194.695 -26.3301L224.749 -8.30509L194.695 9.71989ZM166.202 -8.30509L194.695 8.78353L223.188 -8.30509L194.695 -25.3937L166.202 -8.30509Z" fill="white" fill-opacity="0.25"/>
<path d="M195.085 9.25195H194.304V44.3656H195.085V9.25195Z" fill="white" fill-opacity="0.25"/>
<path d="M253.242 44.8335L223.578 27.0426V-8.53918L253.242 -26.3301L282.905 -8.53918V27.0426L282.749 27.1206L253.242 44.8335ZM224.359 26.5744L253.242 43.8971L282.125 26.5744V-8.071L253.242 -25.3937L224.359 -8.071V26.5744Z" fill="white" fill-opacity="0.25"/>
<path d="M253.242 9.71989L223.188 -8.30509L253.242 -26.3301L283.296 -8.30509L253.242 9.71989ZM224.749 -8.30509L253.242 8.78353L281.734 -8.30509L253.242 -25.3937L224.749 -8.30509Z" fill="white" fill-opacity="0.25"/>
<path d="M253.632 9.25195H252.851V44.3656H253.632V9.25195Z" fill="white" fill-opacity="0.25"/>
<path d="M311.789 44.8335L282.125 27.0426V-8.53918L282.281 -8.61722L311.789 -26.3301L341.452 -8.53918V27.0426L341.296 27.1206L311.789 44.8335ZM282.906 26.5744L311.789 43.8971L340.672 26.5744V-8.071L311.789 -25.3937L282.906 -8.071V26.5744Z" fill="white" fill-opacity="0.25"/>
<path d="M311.789 9.71989L281.734 -8.30509L311.789 -26.3301L341.843 -8.30509L311.789 9.71989ZM283.296 -8.30509L311.789 8.78353L340.281 -8.30509L311.789 -25.3937L283.296 -8.30509Z" fill="white" fill-opacity="0.25"/>
<path d="M312.179 9.25195H311.398V44.3656H312.179V9.25195Z" fill="white" fill-opacity="0.25"/>
<path d="M370.336 44.8335L340.672 27.0426V-8.53918L340.828 -8.61722L370.336 -26.3301L399.999 -8.53918V27.0426L399.843 27.1206L370.336 44.8335ZM341.452 26.5744L370.336 43.8971L399.219 26.5744V-8.071L370.336 -25.3937L341.452 -8.071V26.5744Z" fill="white" fill-opacity="0.25"/>
<path d="M370.335 9.71989L340.281 -8.30509L370.335 -26.3301L400.389 -8.30509L370.335 9.71989ZM341.843 -8.30509L370.335 8.78353L398.828 -8.30509L370.335 -25.3937L341.843 -8.30509Z" fill="white" fill-opacity="0.25"/>
<path d="M370.726 9.25195H369.945V44.3656H370.726V9.25195Z" fill="white" fill-opacity="0.25"/>
<path d="M48.3275 97.5049L18.6638 79.714V44.1322L48.3275 26.3413L77.9913 44.1322V79.714L48.3275 97.5049ZM19.4444 79.2458L48.3275 96.5685L77.2107 79.2458V44.6004L48.3275 27.2777L19.4444 44.6004V79.2458Z" fill="white" fill-opacity="0.25"/>
<path d="M48.3276 62.3913L18.2736 44.3663L48.3276 26.3413L78.3817 44.3663L48.3276 62.3913ZM19.8348 44.3663L48.3276 61.4549L76.8205 44.3663L48.3276 27.2777L19.8348 44.3663Z" fill="white" fill-opacity="0.25"/>
<path d="M48.7179 61.9219H47.9373V97.0355H48.7179V61.9219Z" fill="white" fill-opacity="0.25"/>
<path d="M106.874 97.5049L77.2106 79.714V44.1322L106.874 26.3413L136.538 44.1322V79.714L106.874 97.5049ZM77.9912 79.2458L106.874 96.5685L135.757 79.2458V44.6004L106.874 27.2777L77.9912 44.6004V79.2458Z" fill="white" fill-opacity="0.25"/>
<path d="M106.874 62.3913L76.8204 44.3663L106.874 26.3413L136.929 44.3663L106.874 62.3913ZM78.3816 44.3663L106.874 61.4549L135.367 44.3663L106.874 27.2777L78.3816 44.3663Z" fill="white" fill-opacity="0.25"/>
<path d="M107.265 61.9219H106.484V97.0355H107.265V61.9219Z" fill="white" fill-opacity="0.25"/>
<path d="M165.421 97.5049L135.758 79.714V44.1322L165.421 26.3413L195.085 44.1322V79.714L165.421 97.5049ZM136.538 79.2458L165.421 96.5685L194.305 79.2458V44.6004L165.421 27.2777L136.538 44.6004V79.2458Z" fill="white" fill-opacity="0.25"/>
<path d="M165.421 62.3913L135.367 44.3663L165.421 26.3413L195.475 44.3663L165.421 62.3913ZM136.928 44.3663L165.421 61.4549L193.914 44.3663L165.421 27.2777L136.928 44.3663Z" fill="white" fill-opacity="0.25"/>
<path d="M165.812 61.9219H165.031V97.0355H165.812V61.9219Z" fill="white" fill-opacity="0.25"/>
<path d="M223.968 97.5049L194.304 79.714V44.1322L223.968 26.3413L253.632 44.1322V79.714L253.476 79.792L223.968 97.5049ZM195.085 79.2458L223.968 96.5685L252.851 79.2458V44.6004L223.968 27.2777L195.085 44.6004V79.2458Z" fill="white" fill-opacity="0.25"/>
<path d="M223.968 62.3913L193.914 44.3663L223.968 26.3413L254.022 44.3663L223.968 62.3913ZM195.475 44.3663L223.968 61.4549L252.461 44.3663L223.968 27.2777L195.475 44.3663Z" fill="white" fill-opacity="0.25"/>
<path d="M224.359 61.9219H223.578V97.0355H224.359V61.9219Z" fill="white" fill-opacity="0.25"/>
<path d="M282.515 97.5049L252.851 79.714V44.1322L253.007 44.0542L282.515 26.3413L312.179 44.1322V79.714L312.023 79.792L282.515 97.5049ZM253.632 79.2458L282.515 96.5685L311.398 79.2458V44.6004L282.515 27.2777L253.632 44.6004V79.2458Z" fill="white" fill-opacity="0.25"/>
<path d="M282.515 62.3913L252.461 44.3663L282.515 26.3413L312.569 44.3663L282.515 62.3913ZM254.022 44.3663L282.515 61.4549L311.008 44.3663L282.515 27.2777L254.022 44.3663Z" fill="white" fill-opacity="0.25"/>
<path d="M282.906 61.9219H282.125V97.0355H282.906V61.9219Z" fill="white" fill-opacity="0.25"/>
<path d="M341.062 97.5049L311.398 79.714V44.1322L311.554 44.0542L341.062 26.3413L370.726 44.1322V79.714L370.57 79.792L341.062 97.5049ZM312.179 79.2458L341.062 96.5685L369.945 79.2458V44.6004L341.062 27.2777L312.179 44.6004V79.2458Z" fill="white" fill-opacity="0.25"/>
<path d="M341.062 62.3913L311.008 44.3663L341.062 26.3413L371.116 44.3663L341.062 62.3913ZM312.569 44.3663L341.062 61.4549L369.555 44.3663L341.062 27.2777L312.569 44.3663Z" fill="white" fill-opacity="0.25"/>
<path d="M341.452 61.9219H340.672V97.0355H341.452V61.9219Z" fill="white" fill-opacity="0.25"/>
<path d="M399.609 97.5049L369.945 79.714V44.1322L370.101 44.0542L399.609 26.3413L429.273 44.1322V79.714L429.116 79.792L399.609 97.5049ZM370.726 79.2458L399.609 96.5685L428.492 79.2458V44.6004L399.609 27.2777L370.726 44.6004V79.2458Z" fill="white" fill-opacity="0.25"/>
<path d="M399.609 62.3913L369.555 44.3663L399.609 26.3413L429.663 44.3663L399.609 62.3913ZM371.116 44.3663L399.609 61.4549L428.102 44.3663L399.609 27.2777L371.116 44.3663Z" fill="white" fill-opacity="0.25"/>
<path d="M399.999 61.9219H399.219V97.0355H399.999V61.9219Z" fill="white" fill-opacity="0.25"/>
<path d="M19.0542 150.175L-10.6096 132.384V96.8026L19.0542 79.0117L48.718 96.8026V132.384L19.0542 150.175ZM-9.82893 131.916L19.0542 149.239L47.9373 131.916V97.2708L19.0542 79.9481L-9.82893 97.2708V131.916Z" fill="white" fill-opacity="0.25"/>
<path d="M19.0541 115.062L-11 97.0367L19.0541 79.0117L49.1082 97.0367L19.0541 115.062ZM-9.43875 97.0367L19.0541 114.125L47.5469 97.0367L19.0541 79.9481L-9.43875 97.0367Z" fill="white" fill-opacity="0.25"/>
<path d="M19.4444 114.592H18.6638V149.706H19.4444V114.592Z" fill="white" fill-opacity="0.25"/>
<path d="M77.601 150.175L47.9373 132.384V96.8026L77.601 79.0117L107.265 96.8026V132.384L77.601 150.175ZM48.7179 131.916L77.601 149.239L106.484 131.916V97.2708L77.601 79.9481L48.7179 97.2708V131.916Z" fill="white" fill-opacity="0.25"/>
<path d="M77.601 115.062L47.5469 97.0367L77.601 79.0117L107.655 97.0367L77.601 115.062ZM49.1081 97.0367L77.601 114.125L106.094 97.0367L77.601 79.9481L49.1081 97.0367Z" fill="white" fill-opacity="0.25"/>
<path d="M77.9912 114.592H77.2106V149.706H77.9912V114.592Z" fill="white" fill-opacity="0.25"/>
<path d="M136.148 150.175L106.484 132.384V96.8026L136.148 79.0117L165.812 96.8026V132.384L136.148 150.175ZM107.265 131.916L136.148 149.239L165.031 131.916V97.2708L136.148 79.9481L107.265 97.2708V131.916Z" fill="white" fill-opacity="0.25"/>
<path d="M136.148 115.062L106.094 97.0367L136.148 79.0117L166.202 97.0367L136.148 115.062ZM107.655 97.0367L136.148 114.125L164.641 97.0367L136.148 79.9481L107.655 97.0367Z" fill="white" fill-opacity="0.25"/>
<path d="M136.538 114.592H135.758V149.706H136.538V114.592Z" fill="white" fill-opacity="0.25"/>
<path d="M194.695 150.175L165.031 132.384V96.8026L194.695 79.0117L224.359 96.8026V132.384L194.695 150.175ZM165.812 131.916L194.695 149.239L223.578 131.916V97.2708L194.695 79.9481L165.812 97.2708V131.916Z" fill="white" fill-opacity="0.25"/>
<path d="M194.695 115.062L164.641 97.0367L194.695 79.0117L224.749 97.0367L194.695 115.062ZM166.202 97.0367L194.695 114.125L223.188 97.0367L194.695 79.9481L166.202 97.0367Z" fill="white" fill-opacity="0.25"/>
<path d="M195.085 114.592H194.304V149.706H195.085V114.592Z" fill="white" fill-opacity="0.25"/>
<path d="M253.242 150.175L223.578 132.384V96.8026L253.242 79.0117L282.905 96.8026V132.384L282.749 132.462L253.242 150.175ZM224.359 131.916L253.242 149.239L282.125 131.916V97.2708L253.242 79.9481L224.359 97.2708V131.916Z" fill="white" fill-opacity="0.25"/>
<path d="M253.242 115.062L223.188 97.0367L253.242 79.0117L283.296 97.0367L253.242 115.062ZM224.749 97.0367L253.242 114.125L281.734 97.0367L253.242 79.9481L224.749 97.0367Z" fill="white" fill-opacity="0.25"/>
<path d="M253.632 114.592H252.851V149.706H253.632V114.592Z" fill="white" fill-opacity="0.25"/>
<path d="M311.789 150.175L282.125 132.384V96.8026L282.281 96.7246L311.789 79.0117L341.452 96.8026V132.384L341.296 132.462L311.789 150.175ZM282.906 131.916L311.789 149.239L340.672 131.916V97.2708L311.789 79.9481L282.906 97.2708V131.916Z" fill="white" fill-opacity="0.25"/>
<path d="M311.789 115.062L281.734 97.0367L311.789 79.0117L341.843 97.0367L311.789 115.062ZM283.296 97.0367L311.789 114.125L340.281 97.0367L311.789 79.9481L283.296 97.0367Z" fill="white" fill-opacity="0.25"/>
<path d="M312.179 114.592H311.398V149.706H312.179V114.592Z" fill="white" fill-opacity="0.25"/>
<path d="M370.336 150.175L340.672 132.384V96.8026L340.828 96.7246L370.336 79.0117L399.999 96.8026V132.384L399.843 132.462L370.336 150.175ZM341.452 131.916L370.336 149.239L399.219 131.916V97.2708L370.336 79.9481L341.452 97.2708V131.916Z" fill="white" fill-opacity="0.25"/>
<path d="M370.335 115.062L340.281 97.0367L370.335 79.0117L400.389 97.0367L370.335 115.062ZM341.843 97.0367L370.335 114.125L398.828 97.0367L370.335 79.9481L341.843 97.0367Z" fill="white" fill-opacity="0.25"/>
<path d="M370.726 114.592H369.945V149.706H370.726V114.592Z" fill="white" fill-opacity="0.25"/>
<path d="M48.3275 202.844L18.6638 185.053V149.472L48.3275 131.681L77.9913 149.472V185.053L48.3275 202.844ZM19.4444 184.585L48.3275 201.908L77.2107 184.585V149.94L48.3275 132.617L19.4444 149.94V184.585Z" fill="white" fill-opacity="0.25"/>
<path d="M48.3276 167.731L18.2736 149.706L48.3276 131.681L78.3817 149.706L48.3276 167.731ZM19.8348 149.706L48.3276 166.794L76.8205 149.706L48.3276 132.617L19.8348 149.706Z" fill="white" fill-opacity="0.25"/>
<path d="M48.7179 167.264H47.9373V202.377H48.7179V167.264Z" fill="white" fill-opacity="0.25"/>
<path d="M106.874 202.844L77.2106 185.053V149.472L106.874 131.681L136.538 149.472V185.053L106.874 202.844ZM77.9912 184.585L106.874 201.908L135.757 184.585V149.94L106.874 132.617L77.9912 149.94V184.585Z" fill="white" fill-opacity="0.25"/>
<path d="M106.874 167.731L76.8204 149.706L106.874 131.681L136.929 149.706L106.874 167.731ZM78.3816 149.706L106.874 166.794L135.367 149.706L106.874 132.617L78.3816 149.706Z" fill="white" fill-opacity="0.25"/>
<path d="M107.265 167.264H106.484V202.377H107.265V167.264Z" fill="white" fill-opacity="0.25"/>
<path d="M165.421 202.844L135.758 185.053V149.472L165.421 131.681L195.085 149.472V185.053L165.421 202.844ZM136.538 184.585L165.421 201.908L194.305 184.585V149.94L165.421 132.617L136.538 149.94V184.585Z" fill="white" fill-opacity="0.25"/>
<path d="M165.421 167.731L135.367 149.706L165.421 131.681L195.475 149.706L165.421 167.731ZM136.928 149.706L165.421 166.794L193.914 149.706L165.421 132.617L136.928 149.706Z" fill="white" fill-opacity="0.25"/>
<path d="M165.812 167.264H165.031V202.377H165.812V167.264Z" fill="white" fill-opacity="0.25"/>
<path d="M223.968 202.844L194.304 185.053V149.472L223.968 131.681L253.632 149.472V185.053L253.476 185.131L223.968 202.844ZM195.085 184.585L223.968 201.908L252.851 184.585V149.94L223.968 132.617L195.085 149.94V184.585Z" fill="white" fill-opacity="0.25"/>
<path d="M223.968 167.731L193.914 149.706L223.968 131.681L254.022 149.706L223.968 167.731ZM195.475 149.706L223.968 166.794L252.461 149.706L223.968 132.617L195.475 149.706Z" fill="white" fill-opacity="0.25"/>
<path d="M224.359 167.264H223.578V202.377H224.359V167.264Z" fill="white" fill-opacity="0.25"/>
<path d="M282.515 202.844L252.851 185.053V149.472L253.007 149.394L282.515 131.681L312.179 149.472V185.053L312.023 185.131L282.515 202.844ZM253.632 184.585L282.515 201.908L311.398 184.585V149.94L282.515 132.617L253.632 149.94V184.585Z" fill="white" fill-opacity="0.25"/>
<path d="M282.515 167.731L252.461 149.706L282.515 131.681L312.569 149.706L282.515 167.731ZM254.022 149.706L282.515 166.794L311.008 149.706L282.515 132.617L254.022 149.706Z" fill="white" fill-opacity="0.25"/>
<path d="M282.906 167.264H282.125V202.377H282.906V167.264Z" fill="white" fill-opacity="0.25"/>
<path d="M341.062 202.844L311.398 185.053V149.472L311.554 149.394L341.062 131.681L370.726 149.472V185.053L370.57 185.131L341.062 202.844ZM312.179 184.585L341.062 201.908L369.945 184.585V149.94L341.062 132.617L312.179 149.94V184.585Z" fill="white" fill-opacity="0.25"/>
<path d="M341.062 167.731L311.008 149.706L341.062 131.681L371.116 149.706L341.062 167.731ZM312.569 149.706L341.062 166.794L369.555 149.706L341.062 132.617L312.569 149.706Z" fill="white" fill-opacity="0.25"/>
<path d="M341.452 167.264H340.672V202.377H341.452V167.264Z" fill="white" fill-opacity="0.25"/>
<path d="M399.609 202.844L369.945 185.053V149.472L370.101 149.394L399.609 131.681L429.273 149.472V185.053L429.116 185.131L399.609 202.844ZM370.726 184.585L399.609 201.908L428.492 184.585V149.94L399.609 132.617L370.726 149.94V184.585Z" fill="white" fill-opacity="0.25"/>
<path d="M399.609 167.731L369.555 149.706L399.609 131.681L429.663 149.706L399.609 167.731ZM371.116 149.706L399.609 166.794L428.102 149.706L399.609 132.617L371.116 149.706Z" fill="white" fill-opacity="0.25"/>
<path d="M399.999 167.264H399.219V202.377H399.999V167.264Z" fill="white" fill-opacity="0.25"/>
<path d="M19.0542 255.516L-10.6096 237.725V202.143L19.0542 184.352L48.718 202.143V237.725L19.0542 255.516ZM-9.82893 237.257L19.0542 254.579L47.9373 237.257V202.611L19.0542 185.288L-9.82893 202.611V237.257Z" fill="white" fill-opacity="0.25"/>
<path d="M19.0541 220.402L-11 202.377L19.0541 184.352L49.1082 202.377L19.0541 220.402ZM-9.43875 202.377L19.0541 219.466L47.5469 202.377L19.0541 185.288L-9.43875 202.377Z" fill="white" fill-opacity="0.25"/>
<path d="M19.4444 219.934H18.6638V255.047H19.4444V219.934Z" fill="white" fill-opacity="0.25"/>
<path d="M77.601 255.516L47.9373 237.725V202.143L77.601 184.352L107.265 202.143V237.725L77.601 255.516ZM48.7179 237.257L77.601 254.579L106.484 237.257V202.611L77.601 185.288L48.7179 202.611V237.257Z" fill="white" fill-opacity="0.25"/>
<path d="M77.601 220.402L47.5469 202.377L77.601 184.352L107.655 202.377L77.601 220.402ZM49.1081 202.377L77.601 219.466L106.094 202.377L77.601 185.288L49.1081 202.377Z" fill="white" fill-opacity="0.25"/>
<path d="M77.9912 219.934H77.2106V255.047H77.9912V219.934Z" fill="white" fill-opacity="0.25"/>
<path d="M136.148 255.516L106.484 237.725V202.143L136.148 184.352L165.812 202.143V237.725L136.148 255.516ZM107.265 237.257L136.148 254.579L165.031 237.257V202.611L136.148 185.288L107.265 202.611V237.257Z" fill="white" fill-opacity="0.25"/>
<path d="M136.148 220.402L106.094 202.377L136.148 184.352L166.202 202.377L136.148 220.402ZM107.655 202.377L136.148 219.466L164.641 202.377L136.148 185.288L107.655 202.377Z" fill="white" fill-opacity="0.25"/>
<path d="M136.538 219.934H135.758V255.047H136.538V219.934Z" fill="white" fill-opacity="0.25"/>
<path d="M194.695 255.516L165.031 237.725V202.143L194.695 184.352L224.359 202.143V237.725L194.695 255.516ZM165.812 237.257L194.695 254.579L223.578 237.257V202.611L194.695 185.288L165.812 202.611V237.257Z" fill="white" fill-opacity="0.25"/>
<path d="M194.695 220.402L164.641 202.377L194.695 184.352L224.749 202.377L194.695 220.402ZM166.202 202.377L194.695 219.466L223.188 202.377L194.695 185.288L166.202 202.377Z" fill="white" fill-opacity="0.25"/>
<path d="M195.085 219.934H194.304V255.047H195.085V219.934Z" fill="white" fill-opacity="0.25"/>
<path d="M253.242 255.516L223.578 237.725V202.143L253.242 184.352L282.905 202.143V237.725L282.749 237.803L253.242 255.516ZM224.359 237.257L253.242 254.579L282.125 237.257V202.611L253.242 185.288L224.359 202.611V237.257Z" fill="white" fill-opacity="0.25"/>
<path d="M253.242 220.402L223.188 202.377L253.242 184.352L283.296 202.377L253.242 220.402ZM224.749 202.377L253.242 219.466L281.734 202.377L253.242 185.288L224.749 202.377Z" fill="white" fill-opacity="0.25"/>
<path d="M253.632 219.934H252.851V255.047H253.632V219.934Z" fill="white" fill-opacity="0.25"/>
<path d="M311.789 255.516L282.125 237.725V202.143L282.281 202.065L311.789 184.352L341.452 202.143V237.725L341.296 237.803L311.789 255.516ZM282.906 237.257L311.789 254.579L340.672 237.257V202.611L311.789 185.288L282.906 202.611V237.257Z" fill="white" fill-opacity="0.25"/>
<path d="M311.789 220.402L281.734 202.377L311.789 184.352L341.843 202.377L311.789 220.402ZM283.296 202.377L311.789 219.466L340.281 202.377L311.789 185.288L283.296 202.377Z" fill="white" fill-opacity="0.25"/>
<path d="M312.179 219.934H311.398V255.047H312.179V219.934Z" fill="white" fill-opacity="0.25"/>
<path d="M370.336 255.516L340.672 237.725V202.143L340.828 202.065L370.336 184.352L399.999 202.143V237.725L399.843 237.803L370.336 255.516ZM341.452 237.257L370.336 254.579L399.219 237.257V202.611L370.336 185.288L341.452 202.611V237.257Z" fill="white" fill-opacity="0.25"/>
<path d="M370.335 220.402L340.281 202.377L370.335 184.352L400.389 202.377L370.335 220.402ZM341.843 202.377L370.335 219.466L398.828 202.377L370.335 185.288L341.843 202.377Z" fill="white" fill-opacity="0.25"/>
<path d="M370.726 219.934H369.945V255.047H370.726V219.934Z" fill="white" fill-opacity="0.25"/>
<path d="M48.3275 308.186L18.6638 290.395V254.813L48.3275 237.022L77.9913 254.813V290.395L48.3275 308.186ZM19.4444 289.927L48.3275 307.25L77.2107 289.927V255.282L48.3275 237.959L19.4444 255.282V289.927Z" fill="white" fill-opacity="0.25"/>
<path d="M48.3276 273.072L18.2736 255.047L48.3276 237.022L78.3817 255.047L48.3276 273.072ZM19.8348 255.047L48.3276 272.136L76.8205 255.047L48.3276 237.959L19.8348 255.047Z" fill="white" fill-opacity="0.25"/>
<path d="M48.7179 272.604H47.9373V307.718H48.7179V272.604Z" fill="white" fill-opacity="0.25"/>
<path d="M106.874 308.186L77.2106 290.395V254.813L106.874 237.022L136.538 254.813V290.395L106.874 308.186ZM77.9912 289.927L106.874 307.25L135.757 289.927V255.282L106.874 237.959L77.9912 255.282V289.927Z" fill="white" fill-opacity="0.25"/>
<path d="M106.874 273.072L76.8204 255.047L106.874 237.022L136.929 255.047L106.874 273.072ZM78.3816 255.047L106.874 272.136L135.367 255.047L106.874 237.959L78.3816 255.047Z" fill="white" fill-opacity="0.25"/>
<path d="M107.265 272.604H106.484V307.718H107.265V272.604Z" fill="white" fill-opacity="0.25"/>
<path d="M165.421 308.186L135.758 290.395V254.813L165.421 237.022L195.085 254.813V290.395L165.421 308.186ZM136.538 289.927L165.421 307.25L194.305 289.927V255.282L165.421 237.959L136.538 255.282V289.927Z" fill="white" fill-opacity="0.25"/>
<path d="M165.421 273.072L135.367 255.047L165.421 237.022L195.475 255.047L165.421 273.072ZM136.928 255.047L165.421 272.136L193.914 255.047L165.421 237.959L136.928 255.047Z" fill="white" fill-opacity="0.25"/>
<path d="M165.812 272.604H165.031V307.718H165.812V272.604Z" fill="white" fill-opacity="0.25"/>
<path d="M223.968 308.186L194.304 290.395V254.813L223.968 237.022L253.632 254.813V290.395L253.476 290.473L223.968 308.186ZM195.085 289.927L223.968 307.25L252.851 289.927V255.282L223.968 237.959L195.085 255.282V289.927Z" fill="white" fill-opacity="0.25"/>
<path d="M223.968 273.072L193.914 255.047L223.968 237.022L254.022 255.047L223.968 273.072ZM195.475 255.047L223.968 272.136L252.461 255.047L223.968 237.959L195.475 255.047Z" fill="white" fill-opacity="0.25"/>
<path d="M224.359 272.604H223.578V307.718H224.359V272.604Z" fill="white" fill-opacity="0.25"/>
<path d="M282.515 308.186L252.851 290.395V254.813L253.007 254.735L282.515 237.022L312.179 254.813V290.395L312.023 290.473L282.515 308.186ZM253.632 289.927L282.515 307.25L311.398 289.927V255.282L282.515 237.959L253.632 255.282V289.927Z" fill="white" fill-opacity="0.25"/>
<path d="M282.515 273.072L252.461 255.047L282.515 237.022L312.569 255.047L282.515 273.072ZM254.022 255.047L282.515 272.136L311.008 255.047L282.515 237.959L254.022 255.047Z" fill="white" fill-opacity="0.25"/>
<path d="M282.906 272.604H282.125V307.718H282.906V272.604Z" fill="white" fill-opacity="0.25"/>
<path d="M341.062 308.186L311.398 290.395V254.813L311.554 254.735L341.062 237.022L370.726 254.813V290.395L370.57 290.473L341.062 308.186ZM312.179 289.927L341.062 307.25L369.945 289.927V255.282L341.062 237.959L312.179 255.282V289.927Z" fill="white" fill-opacity="0.25"/>
<path d="M341.062 273.072L311.008 255.047L341.062 237.022L371.116 255.047L341.062 273.072ZM312.569 255.047L341.062 272.136L369.555 255.047L341.062 237.959L312.569 255.047Z" fill="white" fill-opacity="0.25"/>
<path d="M341.452 272.604H340.672V307.718H341.452V272.604Z" fill="white" fill-opacity="0.25"/>
<path d="M399.609 308.186L369.945 290.395V254.813L370.101 254.735L399.609 237.022L429.273 254.813V290.395L429.116 290.473L399.609 308.186ZM370.726 289.927L399.609 307.25L428.492 289.927V255.282L399.609 237.959L370.726 255.282V289.927Z" fill="white" fill-opacity="0.25"/>
<path d="M399.609 273.072L369.555 255.047L399.609 237.022L429.663 255.047L399.609 273.072ZM371.116 255.047L399.609 272.136L428.102 255.047L399.609 237.959L371.116 255.047Z" fill="white" fill-opacity="0.25"/>
<path d="M399.999 272.604H399.219V307.718H399.999V272.604Z" fill="white" fill-opacity="0.25"/>
<path d="M19.0542 360.857L-10.6096 343.066V307.484L19.0542 289.693L48.718 307.484V343.066L19.0542 360.857ZM-9.82893 342.598L19.0542 359.921L47.9373 342.598V307.952L19.0542 290.63L-9.82893 307.952V342.598Z" fill="white" fill-opacity="0.25"/>
<path d="M19.0541 325.743L-11 307.718L19.0541 289.693L49.1082 307.718L19.0541 325.743ZM-9.43875 307.718L19.0541 324.807L47.5469 307.718L19.0541 290.63L-9.43875 307.718Z" fill="white" fill-opacity="0.25"/>
<path d="M77.601 360.857L47.9373 343.066V307.484L77.601 289.693L107.265 307.484V343.066L77.601 360.857ZM48.7179 342.598L77.601 359.921L106.484 342.598V307.952L77.601 290.63L48.7179 307.952V342.598Z" fill="white" fill-opacity="0.25"/>
<path d="M77.601 325.743L47.5469 307.718L77.601 289.693L107.655 307.718L77.601 325.743ZM49.1081 307.718L77.601 324.807L106.094 307.718L77.601 290.63L49.1081 307.718Z" fill="white" fill-opacity="0.25"/>
<path d="M136.148 360.857L106.484 343.066V307.484L136.148 289.693L165.812 307.484V343.066L136.148 360.857ZM107.265 342.598L136.148 359.921L165.031 342.598V307.952L136.148 290.63L107.265 307.952V342.598Z" fill="white" fill-opacity="0.25"/>
<path d="M136.148 325.743L106.094 307.718L136.148 289.693L166.202 307.718L136.148 325.743ZM107.655 307.718L136.148 324.807L164.641 307.718L136.148 290.63L107.655 307.718Z" fill="white" fill-opacity="0.25"/>
<path d="M194.695 360.857L165.031 343.066V307.484L194.695 289.693L224.359 307.484V343.066L194.695 360.857ZM165.812 342.598L194.695 359.921L223.578 342.598V307.952L194.695 290.63L165.812 307.952V342.598Z" fill="white" fill-opacity="0.25"/>
<path d="M194.695 325.743L164.641 307.718L194.695 289.693L224.749 307.718L194.695 325.743ZM166.202 307.718L194.695 324.807L223.188 307.718L194.695 290.63L166.202 307.718Z" fill="white" fill-opacity="0.25"/>
<path d="M253.242 360.857L223.578 343.066V307.484L253.242 289.693L282.905 307.484V343.066L282.749 343.144L253.242 360.857ZM224.359 342.598L253.242 359.921L282.125 342.598V307.952L253.242 290.63L224.359 307.952V342.598Z" fill="white" fill-opacity="0.25"/>
<path d="M253.242 325.743L223.188 307.718L253.242 289.693L283.296 307.718L253.242 325.743ZM224.749 307.718L253.242 324.807L281.734 307.718L253.242 290.63L224.749 307.718Z" fill="white" fill-opacity="0.25"/>
<path d="M311.789 360.857L282.125 343.066V307.484L282.281 307.406L311.789 289.693L341.452 307.484V343.066L341.296 343.144L311.789 360.857ZM282.906 342.598L311.789 359.921L340.672 342.598V307.952L311.789 290.63L282.906 307.952V342.598Z" fill="white" fill-opacity="0.25"/>
<path d="M311.789 325.743L281.734 307.718L311.789 289.693L341.843 307.718L311.789 325.743ZM283.296 307.718L311.789 324.807L340.281 307.718L311.789 290.63L283.296 307.718Z" fill="white" fill-opacity="0.25"/>
<path d="M370.336 360.857L340.672 343.066V307.484L340.828 307.406L370.336 289.693L399.999 307.484V343.066L399.843 343.144L370.336 360.857ZM341.452 342.598L370.336 359.921L399.219 342.598V307.952L370.336 290.63L341.452 307.952V342.598Z" fill="white" fill-opacity="0.25"/>
<path d="M370.335 325.743L340.281 307.718L370.335 289.693L400.389 307.718L370.335 325.743ZM341.843 307.718L370.335 324.807L398.828 307.718L370.335 290.63L341.843 307.718Z" fill="white" fill-opacity="0.25"/>
<path d="M429.054 44.8335L399.39 27.0426V-8.53918L429.054 -26.3301L458.718 -8.53918V27.0426L429.054 44.8335ZM400.171 26.5744L429.054 43.8971L457.937 26.5744V-8.071L429.054 -25.3937L400.171 -8.071V26.5744Z" fill="white" fill-opacity="0.25"/>
<path d="M429.054 9.71989L399 -8.30509L429.054 -26.3301L459.108 -8.30509L429.054 9.71989ZM400.561 -8.30509L429.054 8.78353L457.547 -8.30509L429.054 -25.3937L400.561 -8.30509Z" fill="white" fill-opacity="0.25"/>
<path d="M429.444 9.25195H428.664V44.3656H429.444V9.25195Z" fill="white" fill-opacity="0.25"/>
<path d="M487.601 44.8335L457.937 27.0426V-8.53918L487.601 -26.3301L517.265 -8.53918V27.0426L487.601 44.8335ZM458.718 26.5744L487.601 43.8971L516.484 26.5744V-8.071L487.601 -25.3937L458.718 -8.071V26.5744Z" fill="white" fill-opacity="0.25"/>
<path d="M487.601 9.71989L457.547 -8.30509L487.601 -26.3301L517.655 -8.30509L487.601 9.71989ZM459.108 -8.30509L487.601 8.78353L516.094 -8.30509L487.601 -25.3937L459.108 -8.30509Z" fill="white" fill-opacity="0.25"/>
<path d="M487.991 9.25195H487.211V44.3656H487.991V9.25195Z" fill="white" fill-opacity="0.25"/>
<path d="M546.148 44.8335L516.484 27.0426V-8.53918L546.148 -26.3301L575.812 -8.53918V27.0426L546.148 44.8335ZM517.265 26.5744L546.148 43.8971L575.031 26.5744V-8.071L546.148 -25.3937L517.265 -8.071V26.5744Z" fill="white" fill-opacity="0.25"/>
<path d="M546.148 9.71989L516.094 -8.30509L546.148 -26.3301L576.202 -8.30509L546.148 9.71989ZM517.655 -8.30509L546.148 8.78353L574.641 -8.30509L546.148 -25.3937L517.655 -8.30509Z" fill="white" fill-opacity="0.25"/>
<path d="M546.538 9.25195H545.758V44.3656H546.538V9.25195Z" fill="white" fill-opacity="0.25"/>
<path d="M604.695 44.8335L575.031 27.0426V-8.53918L604.695 -26.3301L634.359 -8.53918V27.0426L604.695 44.8335ZM575.812 26.5744L604.695 43.8971L633.578 26.5744V-8.071L604.695 -25.3937L575.812 -8.071V26.5744Z" fill="white" fill-opacity="0.25"/>
<path d="M604.695 9.71989L574.641 -8.30509L604.695 -26.3301L634.749 -8.30509L604.695 9.71989ZM576.202 -8.30509L604.695 8.78353L633.188 -8.30509L604.695 -25.3937L576.202 -8.30509Z" fill="white" fill-opacity="0.25"/>
<path d="M605.085 9.25195H604.304V44.3656H605.085V9.25195Z" fill="white" fill-opacity="0.25"/>
<path d="M663.242 44.8335L633.578 27.0426V-8.53918L663.242 -26.3301L692.905 -8.53918V27.0426L692.749 27.1206L663.242 44.8335ZM634.359 26.5744L663.242 43.8971L692.125 26.5744V-8.071L663.242 -25.3937L634.359 -8.071V26.5744Z" fill="white" fill-opacity="0.25"/>
<path d="M663.242 9.71989L633.188 -8.30509L663.242 -26.3301L693.296 -8.30509L663.242 9.71989ZM634.749 -8.30509L663.242 8.78353L691.734 -8.30509L663.242 -25.3937L634.749 -8.30509Z" fill="white" fill-opacity="0.25"/>
<path d="M663.632 9.25195H662.851V44.3656H663.632V9.25195Z" fill="white" fill-opacity="0.25"/>
<path d="M721.789 44.8335L692.125 27.0426V-8.53918L692.281 -8.61722L721.789 -26.3301L751.452 -8.53918V27.0426L751.296 27.1206L721.789 44.8335ZM692.906 26.5744L721.789 43.8971L750.672 26.5744V-8.071L721.789 -25.3937L692.906 -8.071V26.5744Z" fill="white" fill-opacity="0.25"/>
<path d="M721.788 9.71989L691.734 -8.30509L721.788 -26.3301L751.843 -8.30509L721.788 9.71989ZM693.296 -8.30509L721.788 8.78353L750.281 -8.30509L721.788 -25.3937L693.296 -8.30509Z" fill="white" fill-opacity="0.25"/>
<path d="M722.179 9.25195H721.398V44.3656H722.179V9.25195Z" fill="white" fill-opacity="0.25"/>
<path d="M780.336 44.8335L750.672 27.0426V-8.53918L750.828 -8.61722L780.336 -26.3301L809.999 -8.53918V27.0426L809.843 27.1206L780.336 44.8335ZM751.452 26.5744L780.336 43.8971L809.219 26.5744V-8.071L780.336 -25.3937L751.452 -8.071V26.5744Z" fill="white" fill-opacity="0.25"/>
<path d="M780.335 9.71989L750.281 -8.30509L780.335 -26.3301L810.389 -8.30509L780.335 9.71989ZM751.843 -8.30509L780.335 8.78353L808.828 -8.30509L780.335 -25.3937L751.843 -8.30509Z" fill="white" fill-opacity="0.25"/>
<path d="M780.726 9.25195H779.945V44.3656H780.726V9.25195Z" fill="white" fill-opacity="0.25"/>
<path d="M458.328 97.5049L428.664 79.714V44.1322L458.328 26.3413L487.991 44.1322V79.714L458.328 97.5049ZM429.444 79.2458L458.328 96.5685L487.211 79.2458V44.6004L458.328 27.2777L429.444 44.6004V79.2458Z" fill="white" fill-opacity="0.25"/>
<path d="M458.328 62.3913L428.274 44.3663L458.328 26.3413L488.382 44.3663L458.328 62.3913ZM429.835 44.3663L458.328 61.4549L486.82 44.3663L458.328 27.2777L429.835 44.3663Z" fill="white" fill-opacity="0.25"/>
<path d="M458.718 61.9219H457.937V97.0355H458.718V61.9219Z" fill="white" fill-opacity="0.25"/>
<path d="M516.874 97.5049L487.211 79.714V44.1322L516.874 26.3413L546.538 44.1322V79.714L516.874 97.5049ZM487.991 79.2458L516.874 96.5685L545.757 79.2458V44.6004L516.874 27.2777L487.991 44.6004V79.2458Z" fill="white" fill-opacity="0.25"/>
<path d="M516.875 62.3913L486.82 44.3663L516.875 26.3413L546.929 44.3663L516.875 62.3913ZM488.382 44.3663L516.875 61.4549L545.367 44.3663L516.875 27.2777L488.382 44.3663Z" fill="white" fill-opacity="0.25"/>
<path d="M517.265 61.9219H516.484V97.0355H517.265V61.9219Z" fill="white" fill-opacity="0.25"/>
<path d="M575.421 97.5049L545.758 79.714V44.1322L575.421 26.3413L605.085 44.1322V79.714L575.421 97.5049ZM546.538 79.2458L575.421 96.5685L604.305 79.2458V44.6004L575.421 27.2777L546.538 44.6004V79.2458Z" fill="white" fill-opacity="0.25"/>
<path d="M575.421 62.3913L545.367 44.3663L575.421 26.3413L605.475 44.3663L575.421 62.3913ZM546.928 44.3663L575.421 61.4549L603.914 44.3663L575.421 27.2777L546.928 44.3663Z" fill="white" fill-opacity="0.25"/>
<path d="M575.812 61.9219H575.031V97.0355H575.812V61.9219Z" fill="white" fill-opacity="0.25"/>
<path d="M633.968 97.5049L604.304 79.714V44.1322L633.968 26.3413L663.632 44.1322V79.714L663.476 79.792L633.968 97.5049ZM605.085 79.2458L633.968 96.5685L662.851 79.2458V44.6004L633.968 27.2777L605.085 44.6004V79.2458Z" fill="white" fill-opacity="0.25"/>
<path d="M633.968 62.3913L603.914 44.3663L633.968 26.3413L664.022 44.3663L633.968 62.3913ZM605.475 44.3663L633.968 61.4549L662.461 44.3663L633.968 27.2777L605.475 44.3663Z" fill="white" fill-opacity="0.25"/>
<path d="M634.359 61.9219H633.578V97.0355H634.359V61.9219Z" fill="white" fill-opacity="0.25"/>
<path d="M692.515 97.5049L662.851 79.714V44.1322L663.007 44.0542L692.515 26.3413L722.179 44.1322V79.714L722.023 79.792L692.515 97.5049ZM663.632 79.2458L692.515 96.5685L721.398 79.2458V44.6004L692.515 27.2777L663.632 44.6004V79.2458Z" fill="white" fill-opacity="0.25"/>
<path d="M692.515 62.3913L662.461 44.3663L692.515 26.3413L722.569 44.3663L692.515 62.3913ZM664.022 44.3663L692.515 61.4549L721.008 44.3663L692.515 27.2777L664.022 44.3663Z" fill="white" fill-opacity="0.25"/>
<path d="M692.906 61.9219H692.125V97.0355H692.906V61.9219Z" fill="white" fill-opacity="0.25"/>
<path d="M751.062 97.5049L721.398 79.714V44.1322L721.554 44.0542L751.062 26.3413L780.726 44.1322V79.714L780.57 79.792L751.062 97.5049ZM722.179 79.2458L751.062 96.5685L779.945 79.2458V44.6004L751.062 27.2777L722.179 44.6004V79.2458Z" fill="white" fill-opacity="0.25"/>
<path d="M751.062 62.3913L721.008 44.3663L751.062 26.3413L781.116 44.3663L751.062 62.3913ZM722.569 44.3663L751.062 61.4549L779.555 44.3663L751.062 27.2777L722.569 44.3663Z" fill="white" fill-opacity="0.25"/>
<path d="M751.452 61.9219H750.672V97.0355H751.452V61.9219Z" fill="white" fill-opacity="0.25"/>
<path d="M809.609 97.5049L779.945 79.714V44.1322L780.101 44.0542L809.609 26.3413L839.273 44.1322V79.714L839.116 79.792L809.609 97.5049ZM780.726 79.2458L809.609 96.5685L838.492 79.2458V44.6004L809.609 27.2777L780.726 44.6004V79.2458Z" fill="white" fill-opacity="0.25"/>
<path d="M809.609 62.3913L779.555 44.3663L809.609 26.3413L839.663 44.3663L809.609 62.3913ZM781.116 44.3663L809.609 61.4549L838.102 44.3663L809.609 27.2777L781.116 44.3663Z" fill="white" fill-opacity="0.25"/>
<path d="M429.054 150.175L399.39 132.384V96.8026L429.054 79.0117L458.718 96.8026V132.384L429.054 150.175ZM400.171 131.916L429.054 149.239L457.937 131.916V97.2708L429.054 79.9481L400.171 97.2708V131.916Z" fill="white" fill-opacity="0.25"/>
<path d="M429.054 115.062L399 97.0367L429.054 79.0117L459.108 97.0367L429.054 115.062ZM400.561 97.0367L429.054 114.125L457.547 97.0367L429.054 79.9481L400.561 97.0367Z" fill="white" fill-opacity="0.25"/>
<path d="M429.444 114.592H428.664V149.706H429.444V114.592Z" fill="white" fill-opacity="0.25"/>
<path d="M487.601 150.175L457.937 132.384V96.8026L487.601 79.0117L517.265 96.8026V132.384L487.601 150.175ZM458.718 131.916L487.601 149.239L516.484 131.916V97.2708L487.601 79.9481L458.718 97.2708V131.916Z" fill="white" fill-opacity="0.25"/>
<path d="M487.601 115.062L457.547 97.0367L487.601 79.0117L517.655 97.0367L487.601 115.062ZM459.108 97.0367L487.601 114.125L516.094 97.0367L487.601 79.9481L459.108 97.0367Z" fill="white" fill-opacity="0.25"/>
<path d="M487.991 114.592H487.211V149.706H487.991V114.592Z" fill="white" fill-opacity="0.25"/>
<path d="M546.148 150.175L516.484 132.384V96.8026L546.148 79.0117L575.812 96.8026V132.384L546.148 150.175ZM517.265 131.916L546.148 149.239L575.031 131.916V97.2708L546.148 79.9481L517.265 97.2708V131.916Z" fill="white" fill-opacity="0.25"/>
<path d="M546.148 115.062L516.094 97.0367L546.148 79.0117L576.202 97.0367L546.148 115.062ZM517.655 97.0367L546.148 114.125L574.641 97.0367L546.148 79.9481L517.655 97.0367Z" fill="white" fill-opacity="0.25"/>
<path d="M546.538 114.592H545.758V149.706H546.538V114.592Z" fill="white" fill-opacity="0.25"/>
<path d="M604.695 150.175L575.031 132.384V96.8026L604.695 79.0117L634.359 96.8026V132.384L604.695 150.175ZM575.812 131.916L604.695 149.239L633.578 131.916V97.2708L604.695 79.9481L575.812 97.2708V131.916Z" fill="white" fill-opacity="0.25"/>
<path d="M604.695 115.062L574.641 97.0367L604.695 79.0117L634.749 97.0367L604.695 115.062ZM576.202 97.0367L604.695 114.125L633.188 97.0367L604.695 79.9481L576.202 97.0367Z" fill="white" fill-opacity="0.25"/>
<path d="M605.085 114.592H604.304V149.706H605.085V114.592Z" fill="white" fill-opacity="0.25"/>
<path d="M663.242 150.175L633.578 132.384V96.8026L663.242 79.0117L692.905 96.8026V132.384L692.749 132.462L663.242 150.175ZM634.359 131.916L663.242 149.239L692.125 131.916V97.2708L663.242 79.9481L634.359 97.2708V131.916Z" fill="white" fill-opacity="0.25"/>
<path d="M663.242 115.062L633.188 97.0367L663.242 79.0117L693.296 97.0367L663.242 115.062ZM634.749 97.0367L663.242 114.125L691.734 97.0367L663.242 79.9481L634.749 97.0367Z" fill="white" fill-opacity="0.25"/>
<path d="M663.632 114.592H662.851V149.706H663.632V114.592Z" fill="white" fill-opacity="0.25"/>
<path d="M721.789 150.175L692.125 132.384V96.8026L692.281 96.7246L721.789 79.0117L751.452 96.8026V132.384L751.296 132.462L721.789 150.175ZM692.906 131.916L721.789 149.239L750.672 131.916V97.2708L721.789 79.9481L692.906 97.2708V131.916Z" fill="white" fill-opacity="0.25"/>
<path d="M721.788 115.062L691.734 97.0367L721.788 79.0117L751.843 97.0367L721.788 115.062ZM693.296 97.0367L721.788 114.125L750.281 97.0367L721.788 79.9481L693.296 97.0367Z" fill="white" fill-opacity="0.25"/>
<path d="M722.179 114.592H721.398V149.706H722.179V114.592Z" fill="white" fill-opacity="0.25"/>
<path d="M780.336 150.175L750.672 132.384V96.8026L750.828 96.7246L780.336 79.0117L809.999 96.8026V132.384L809.843 132.462L780.336 150.175ZM751.452 131.916L780.336 149.239L809.219 131.916V97.2708L780.336 79.9481L751.452 97.2708V131.916Z" fill="white" fill-opacity="0.25"/>
<path d="M780.335 115.062L750.281 97.0367L780.335 79.0117L810.389 97.0367L780.335 115.062ZM751.843 97.0367L780.335 114.125L808.828 97.0367L780.335 79.9481L751.843 97.0367Z" fill="white" fill-opacity="0.25"/>
<path d="M780.726 114.592H779.945V149.706H780.726V114.592Z" fill="white" fill-opacity="0.25"/>
<path d="M458.328 202.844L428.664 185.053V149.472L458.328 131.681L487.991 149.472V185.053L458.328 202.844ZM429.444 184.585L458.328 201.908L487.211 184.585V149.94L458.328 132.617L429.444 149.94V184.585Z" fill="white" fill-opacity="0.25"/>
<path d="M458.328 167.731L428.274 149.706L458.328 131.681L488.382 149.706L458.328 167.731ZM429.835 149.706L458.328 166.794L486.82 149.706L458.328 132.617L429.835 149.706Z" fill="white" fill-opacity="0.25"/>
<path d="M458.718 167.264H457.937V202.377H458.718V167.264Z" fill="white" fill-opacity="0.25"/>
<path d="M516.874 202.844L487.211 185.053V149.472L516.874 131.681L546.538 149.472V185.053L516.874 202.844ZM487.991 184.585L516.874 201.908L545.757 184.585V149.94L516.874 132.617L487.991 149.94V184.585Z" fill="white" fill-opacity="0.25"/>
<path d="M516.875 167.731L486.82 149.706L516.875 131.681L546.929 149.706L516.875 167.731ZM488.382 149.706L516.875 166.794L545.367 149.706L516.875 132.617L488.382 149.706Z" fill="white" fill-opacity="0.25"/>
<path d="M517.265 167.264H516.484V202.377H517.265V167.264Z" fill="white" fill-opacity="0.25"/>
<path d="M575.421 202.844L545.758 185.053V149.472L575.421 131.681L605.085 149.472V185.053L575.421 202.844ZM546.538 184.585L575.421 201.908L604.305 184.585V149.94L575.421 132.617L546.538 149.94V184.585Z" fill="white" fill-opacity="0.25"/>
<path d="M575.421 167.731L545.367 149.706L575.421 131.681L605.475 149.706L575.421 167.731ZM546.928 149.706L575.421 166.794L603.914 149.706L575.421 132.617L546.928 149.706Z" fill="white" fill-opacity="0.25"/>
<path d="M575.812 167.264H575.031V202.377H575.812V167.264Z" fill="white" fill-opacity="0.25"/>
<path d="M633.968 202.844L604.304 185.053V149.472L633.968 131.681L663.632 149.472V185.053L663.476 185.131L633.968 202.844ZM605.085 184.585L633.968 201.908L662.851 184.585V149.94L633.968 132.617L605.085 149.94V184.585Z" fill="white" fill-opacity="0.25"/>
<path d="M633.968 167.731L603.914 149.706L633.968 131.681L664.022 149.706L633.968 167.731ZM605.475 149.706L633.968 166.794L662.461 149.706L633.968 132.617L605.475 149.706Z" fill="white" fill-opacity="0.25"/>
<path d="M634.359 167.264H633.578V202.377H634.359V167.264Z" fill="white" fill-opacity="0.25"/>
<path d="M692.515 202.844L662.851 185.053V149.472L663.007 149.394L692.515 131.681L722.179 149.472V185.053L722.023 185.131L692.515 202.844ZM663.632 184.585L692.515 201.908L721.398 184.585V149.94L692.515 132.617L663.632 149.94V184.585Z" fill="white" fill-opacity="0.25"/>
<path d="M692.515 167.731L662.461 149.706L692.515 131.681L722.569 149.706L692.515 167.731ZM664.022 149.706L692.515 166.794L721.008 149.706L692.515 132.617L664.022 149.706Z" fill="white" fill-opacity="0.25"/>
<path d="M692.906 167.264H692.125V202.377H692.906V167.264Z" fill="white" fill-opacity="0.25"/>
<path d="M751.062 202.844L721.398 185.053V149.472L721.554 149.394L751.062 131.681L780.726 149.472V185.053L780.57 185.131L751.062 202.844ZM722.179 184.585L751.062 201.908L779.945 184.585V149.94L751.062 132.617L722.179 149.94V184.585Z" fill="white" fill-opacity="0.25"/>
<path d="M751.062 167.731L721.008 149.706L751.062 131.681L781.116 149.706L751.062 167.731ZM722.569 149.706L751.062 166.794L779.555 149.706L751.062 132.617L722.569 149.706Z" fill="white" fill-opacity="0.25"/>
<path d="M751.452 167.264H750.672V202.377H751.452V167.264Z" fill="white" fill-opacity="0.25"/>
<path d="M809.609 202.844L779.945 185.053V149.472L780.101 149.394L809.609 131.681L839.273 149.472V185.053L839.116 185.131L809.609 202.844ZM780.726 184.585L809.609 201.908L838.492 184.585V149.94L809.609 132.617L780.726 149.94V184.585Z" fill="white" fill-opacity="0.25"/>
<path d="M809.609 167.731L779.555 149.706L809.609 131.681L839.663 149.706L809.609 167.731ZM781.116 149.706L809.609 166.794L838.102 149.706L809.609 132.617L781.116 149.706Z" fill="white" fill-opacity="0.25"/>
<path d="M429.054 255.516L399.39 237.725V202.143L429.054 184.352L458.718 202.143V237.725L429.054 255.516ZM400.171 237.257L429.054 254.579L457.937 237.257V202.611L429.054 185.288L400.171 202.611V237.257Z" fill="white" fill-opacity="0.25"/>
<path d="M429.054 220.402L399 202.377L429.054 184.352L459.108 202.377L429.054 220.402ZM400.561 202.377L429.054 219.466L457.547 202.377L429.054 185.288L400.561 202.377Z" fill="white" fill-opacity="0.25"/>
<path d="M429.444 219.934H428.664V255.047H429.444V219.934Z" fill="white" fill-opacity="0.25"/>
<path d="M487.601 255.516L457.937 237.725V202.143L487.601 184.352L517.265 202.143V237.725L487.601 255.516ZM458.718 237.257L487.601 254.579L516.484 237.257V202.611L487.601 185.288L458.718 202.611V237.257Z" fill="white" fill-opacity="0.25"/>
<path d="M487.601 220.402L457.547 202.377L487.601 184.352L517.655 202.377L487.601 220.402ZM459.108 202.377L487.601 219.466L516.094 202.377L487.601 185.288L459.108 202.377Z" fill="white" fill-opacity="0.25"/>
<path d="M487.991 219.934H487.211V255.047H487.991V219.934Z" fill="white" fill-opacity="0.25"/>
<path d="M546.148 255.516L516.484 237.725V202.143L546.148 184.352L575.812 202.143V237.725L546.148 255.516ZM517.265 237.257L546.148 254.579L575.031 237.257V202.611L546.148 185.288L517.265 202.611V237.257Z" fill="white" fill-opacity="0.25"/>
<path d="M546.148 220.402L516.094 202.377L546.148 184.352L576.202 202.377L546.148 220.402ZM517.655 202.377L546.148 219.466L574.641 202.377L546.148 185.288L517.655 202.377Z" fill="white" fill-opacity="0.25"/>
<path d="M546.538 219.934H545.758V255.047H546.538V219.934Z" fill="white" fill-opacity="0.25"/>
<path d="M604.695 255.516L575.031 237.725V202.143L604.695 184.352L634.359 202.143V237.725L604.695 255.516ZM575.812 237.257L604.695 254.579L633.578 237.257V202.611L604.695 185.288L575.812 202.611V237.257Z" fill="white" fill-opacity="0.25"/>
<path d="M604.695 220.402L574.641 202.377L604.695 184.352L634.749 202.377L604.695 220.402ZM576.202 202.377L604.695 219.466L633.188 202.377L604.695 185.288L576.202 202.377Z" fill="white" fill-opacity="0.25"/>
<path d="M605.085 219.934H604.304V255.047H605.085V219.934Z" fill="white" fill-opacity="0.25"/>
<path d="M663.242 255.516L633.578 237.725V202.143L663.242 184.352L692.905 202.143V237.725L692.749 237.803L663.242 255.516ZM634.359 237.257L663.242 254.579L692.125 237.257V202.611L663.242 185.288L634.359 202.611V237.257Z" fill="white" fill-opacity="0.25"/>
<path d="M663.242 220.402L633.188 202.377L663.242 184.352L693.296 202.377L663.242 220.402ZM634.749 202.377L663.242 219.466L691.734 202.377L663.242 185.288L634.749 202.377Z" fill="white" fill-opacity="0.25"/>
<path d="M663.632 219.934H662.851V255.047H663.632V219.934Z" fill="white" fill-opacity="0.25"/>
<path d="M721.789 255.516L692.125 237.725V202.143L692.281 202.065L721.789 184.352L751.452 202.143V237.725L751.296 237.803L721.789 255.516ZM692.906 237.257L721.789 254.579L750.672 237.257V202.611L721.789 185.288L692.906 202.611V237.257Z" fill="white" fill-opacity="0.25"/>
<path d="M721.788 220.402L691.734 202.377L721.788 184.352L751.843 202.377L721.788 220.402ZM693.296 202.377L721.788 219.466L750.281 202.377L721.788 185.288L693.296 202.377Z" fill="white" fill-opacity="0.25"/>
<path d="M722.179 219.934H721.398V255.047H722.179V219.934Z" fill="white" fill-opacity="0.25"/>
<path d="M780.336 255.516L750.672 237.725V202.143L750.828 202.065L780.336 184.352L809.999 202.143V237.725L809.843 237.803L780.336 255.516ZM751.452 237.257L780.336 254.579L809.219 237.257V202.611L780.336 185.288L751.452 202.611V237.257Z" fill="white" fill-opacity="0.25"/>
<path d="M780.335 220.402L750.281 202.377L780.335 184.352L810.389 202.377L780.335 220.402ZM751.843 202.377L780.335 219.466L808.828 202.377L780.335 185.288L751.843 202.377Z" fill="white" fill-opacity="0.25"/>
<path d="M780.726 219.934H779.945V255.047H780.726V219.934Z" fill="white" fill-opacity="0.25"/>
<path d="M458.328 308.186L428.664 290.395V254.813L458.328 237.022L487.991 254.813V290.395L458.328 308.186ZM429.444 289.927L458.328 307.25L487.211 289.927V255.282L458.328 237.959L429.444 255.282V289.927Z" fill="white" fill-opacity="0.25"/>
<path d="M458.328 273.072L428.274 255.047L458.328 237.022L488.382 255.047L458.328 273.072ZM429.835 255.047L458.328 272.136L486.82 255.047L458.328 237.959L429.835 255.047Z" fill="white" fill-opacity="0.25"/>
<path d="M458.718 272.604H457.937V307.718H458.718V272.604Z" fill="white" fill-opacity="0.25"/>
<path d="M516.874 308.186L487.211 290.395V254.813L516.874 237.022L546.538 254.813V290.395L516.874 308.186ZM487.991 289.927L516.874 307.25L545.757 289.927V255.282L516.874 237.959L487.991 255.282V289.927Z" fill="white" fill-opacity="0.25"/>
<path d="M516.875 273.072L486.82 255.047L516.875 237.022L546.929 255.047L516.875 273.072ZM488.382 255.047L516.875 272.136L545.367 255.047L516.875 237.959L488.382 255.047Z" fill="white" fill-opacity="0.25"/>
<path d="M517.265 272.604H516.484V307.718H517.265V272.604Z" fill="white" fill-opacity="0.25"/>
<path d="M575.421 308.186L545.758 290.395V254.813L575.421 237.022L605.085 254.813V290.395L575.421 308.186ZM546.538 289.927L575.421 307.25L604.305 289.927V255.282L575.421 237.959L546.538 255.282V289.927Z" fill="white" fill-opacity="0.25"/>
<path d="M575.421 273.072L545.367 255.047L575.421 237.022L605.475 255.047L575.421 273.072ZM546.928 255.047L575.421 272.136L603.914 255.047L575.421 237.959L546.928 255.047Z" fill="white" fill-opacity="0.25"/>
<path d="M575.812 272.604H575.031V307.718H575.812V272.604Z" fill="white" fill-opacity="0.25"/>
<path d="M633.968 308.186L604.304 290.395V254.813L633.968 237.022L663.632 254.813V290.395L663.476 290.473L633.968 308.186ZM605.085 289.927L633.968 307.25L662.851 289.927V255.282L633.968 237.959L605.085 255.282V289.927Z" fill="white" fill-opacity="0.25"/>
<path d="M633.968 273.072L603.914 255.047L633.968 237.022L664.022 255.047L633.968 273.072ZM605.475 255.047L633.968 272.136L662.461 255.047L633.968 237.959L605.475 255.047Z" fill="white" fill-opacity="0.25"/>
<path d="M634.359 272.604H633.578V307.718H634.359V272.604Z" fill="white" fill-opacity="0.25"/>
<path d="M692.515 308.186L662.851 290.395V254.813L663.007 254.735L692.515 237.022L722.179 254.813V290.395L722.023 290.473L692.515 308.186ZM663.632 289.927L692.515 307.25L721.398 289.927V255.282L692.515 237.959L663.632 255.282V289.927Z" fill="white" fill-opacity="0.25"/>
<path d="M692.515 273.072L662.461 255.047L692.515 237.022L722.569 255.047L692.515 273.072ZM664.022 255.047L692.515 272.136L721.008 255.047L692.515 237.959L664.022 255.047Z" fill="white" fill-opacity="0.25"/>
<path d="M692.906 272.604H692.125V307.718H692.906V272.604Z" fill="white" fill-opacity="0.25"/>
<path d="M751.062 308.186L721.398 290.395V254.813L721.554 254.735L751.062 237.022L780.726 254.813V290.395L780.57 290.473L751.062 308.186ZM722.179 289.927L751.062 307.25L779.945 289.927V255.282L751.062 237.959L722.179 255.282V289.927Z" fill="white" fill-opacity="0.25"/>
<path d="M751.062 273.072L721.008 255.047L751.062 237.022L781.116 255.047L751.062 273.072ZM722.569 255.047L751.062 272.136L779.555 255.047L751.062 237.959L722.569 255.047Z" fill="white" fill-opacity="0.25"/>
<path d="M751.452 272.604H750.672V307.718H751.452V272.604Z" fill="white" fill-opacity="0.25"/>
<path d="M809.609 308.186L779.945 290.395V254.813L780.101 254.735L809.609 237.022L839.273 254.813V290.395L839.116 290.473L809.609 308.186ZM780.726 289.927L809.609 307.25L838.492 289.927V255.282L809.609 237.959L780.726 255.282V289.927Z" fill="white" fill-opacity="0.25"/>
<path d="M809.609 273.072L779.555 255.047L809.609 237.022L839.663 255.047L809.609 273.072ZM781.116 255.047L809.609 272.136L838.102 255.047L809.609 237.959L781.116 255.047Z" fill="white" fill-opacity="0.25"/>
<path d="M429.054 360.857L399.39 343.066V307.484L429.054 289.693L458.718 307.484V343.066L429.054 360.857ZM400.171 342.598L429.054 359.921L457.937 342.598V307.952L429.054 290.63L400.171 307.952V342.598Z" fill="white" fill-opacity="0.25"/>
<path d="M429.054 325.743L399 307.718L429.054 289.693L459.108 307.718L429.054 325.743ZM400.561 307.718L429.054 324.807L457.547 307.718L429.054 290.63L400.561 307.718Z" fill="white" fill-opacity="0.25"/>
<path d="M487.601 360.857L457.937 343.066V307.484L487.601 289.693L517.265 307.484V343.066L487.601 360.857ZM458.718 342.598L487.601 359.921L516.484 342.598V307.952L487.601 290.63L458.718 307.952V342.598Z" fill="white" fill-opacity="0.25"/>
<path d="M487.601 325.743L457.547 307.718L487.601 289.693L517.655 307.718L487.601 325.743ZM459.108 307.718L487.601 324.807L516.094 307.718L487.601 290.63L459.108 307.718Z" fill="white" fill-opacity="0.25"/>
<path d="M546.148 360.857L516.484 343.066V307.484L546.148 289.693L575.812 307.484V343.066L546.148 360.857ZM517.265 342.598L546.148 359.921L575.031 342.598V307.952L546.148 290.63L517.265 307.952V342.598Z" fill="white" fill-opacity="0.25"/>
<path d="M546.148 325.743L516.094 307.718L546.148 289.693L576.202 307.718L546.148 325.743ZM517.655 307.718L546.148 324.807L574.641 307.718L546.148 290.63L517.655 307.718Z" fill="white" fill-opacity="0.25"/>
<path d="M604.695 360.857L575.031 343.066V307.484L604.695 289.693L634.359 307.484V343.066L604.695 360.857ZM575.812 342.598L604.695 359.921L633.578 342.598V307.952L604.695 290.63L575.812 307.952V342.598Z" fill="white" fill-opacity="0.25"/>
<path d="M604.695 325.743L574.641 307.718L604.695 289.693L634.749 307.718L604.695 325.743ZM576.202 307.718L604.695 324.807L633.188 307.718L604.695 290.63L576.202 307.718Z" fill="white" fill-opacity="0.25"/>
<path d="M663.242 360.857L633.578 343.066V307.484L663.242 289.693L692.905 307.484V343.066L692.749 343.144L663.242 360.857ZM634.359 342.598L663.242 359.921L692.125 342.598V307.952L663.242 290.63L634.359 307.952V342.598Z" fill="white" fill-opacity="0.25"/>
<path d="M663.242 325.743L633.188 307.718L663.242 289.693L693.296 307.718L663.242 325.743ZM634.749 307.718L663.242 324.807L691.734 307.718L663.242 290.63L634.749 307.718Z" fill="white" fill-opacity="0.25"/>
<path d="M721.789 360.857L692.125 343.066V307.484L692.281 307.406L721.789 289.693L751.452 307.484V343.066L751.296 343.144L721.789 360.857ZM692.906 342.598L721.789 359.921L750.672 342.598V307.952L721.789 290.63L692.906 307.952V342.598Z" fill="white" fill-opacity="0.25"/>
<path d="M721.788 325.743L691.734 307.718L721.788 289.693L751.843 307.718L721.788 325.743ZM693.296 307.718L721.788 324.807L750.281 307.718L721.788 290.63L693.296 307.718Z" fill="white" fill-opacity="0.25"/>
<path d="M780.336 360.857L750.672 343.066V307.484L750.828 307.406L780.336 289.693L809.999 307.484V343.066L809.843 343.144L780.336 360.857ZM751.452 342.598L780.336 359.921L809.219 342.598V307.952L780.336 290.63L751.452 307.952V342.598Z" fill="white" fill-opacity="0.25"/>
<path d="M780.335 325.743L750.281 307.718L780.335 289.693L810.389 307.718L780.335 325.743ZM751.843 307.718L780.335 324.807L808.828 307.718L780.335 290.63L751.843 307.718Z" fill="white" fill-opacity="0.25"/>
</g>
</svg>
