<svg width="476" height="320" viewBox="0 0 476 320" fill="none" xmlns="http://www.w3.org/2000/svg">
<mask id="mask0" mask-type="alpha" maskUnits="userSpaceOnUse" x="0" y="0" width="476" height="326">
<ellipse cx="238" cy="163" rx="238" ry="163" fill="url(#paint0_radial)"/>
</mask>
<g mask="url(#mask0)">
<path opacity="0.15" d="M25.0303 448.077H26.263H89.131H90.3637H153.232H154.464H217.332H218.565H281.433H282.666H345.534H346.766H409.634H410.867H473.735H474.967H537.835H539.068V446.846V384.085V382.855V320.094V318.863V256.102V254.872V192.111V190.88V128.119V126.888V64.1273V62.8967V0.135727V-1.09488V-63.8559V-65.0865V-127.848V-129.078H537.835H346.766H345.534H154.464H153.232H-39.0703V62.8967V64.1273V254.872V256.102V446.846V448.077H-37.8376H25.0303ZM474.967 -127.848H537.835V-65.0865H474.967V-127.848ZM474.967 -63.8559H537.835V-1.09488H474.967V-63.8559ZM474.967 0.135727H537.835V62.8967H474.967V0.135727ZM474.967 64.1273H537.835V126.888H474.967V64.1273ZM474.967 128.119H537.835V190.88H474.967V128.119ZM474.967 192.111H537.835V254.872H474.967V192.111ZM474.967 256.102H537.835V318.863H474.967V256.102ZM474.967 320.094H537.835V382.855H474.967V320.094ZM474.967 384.085H537.835V446.846H474.967V384.085ZM410.867 -127.848H473.735V-65.0865H410.867V-127.848ZM410.867 -63.8559H473.735V-1.09488H410.867V-63.8559ZM410.867 0.135727H473.735V62.8967H410.867V0.135727ZM410.867 64.1273H473.735V126.888H410.867V64.1273ZM410.867 128.119H473.735V190.88H410.867V128.119ZM410.867 192.111H473.735V254.872H410.867V192.111ZM410.867 256.102H473.735V318.863H410.867V256.102ZM410.867 320.094H473.735V382.855H410.867V320.094ZM410.867 384.085H473.735V446.846H410.867V384.085ZM346.766 -127.848H409.634V-65.0865H346.766V-127.848ZM346.766 -63.8559H409.634V-1.09488H346.766V-63.8559ZM346.766 0.135727H409.634V62.8967H346.766V0.135727ZM346.766 64.1273H409.634V126.888H346.766V64.1273ZM346.766 128.119H409.634V190.88H346.766V128.119ZM346.766 192.111H409.634V254.872H346.766V192.111ZM346.766 256.102H409.634V318.863H346.766V256.102ZM346.766 320.094H409.634V382.855H346.766V320.094ZM346.766 384.085H409.634V446.846H346.766V384.085ZM282.666 -127.848H345.534V-65.0865H282.666V-127.848ZM282.666 -63.8559H345.534V-1.09488H282.666V-63.8559ZM282.666 0.135727H345.534V62.8967H282.666V0.135727ZM282.666 64.1273H345.534V126.888H282.666V64.1273ZM282.666 128.119H345.534V190.88H282.666V128.119ZM282.666 192.111H345.534V254.872H282.666V192.111ZM282.666 256.102H345.534V318.863H282.666V256.102ZM282.666 320.094H345.534V382.855H282.666V320.094ZM282.666 384.085H345.534V446.846H282.666V384.085ZM218.565 -127.848H281.433V-65.0865H218.565V-127.848ZM218.565 -63.8559H281.433V-1.09488H218.565V-63.8559ZM218.565 0.135727H281.433V62.8967H218.565V0.135727ZM218.565 64.1273H281.433V126.888H218.565V64.1273ZM218.565 128.119H281.433V190.88H218.565V128.119ZM218.565 192.111H281.433V254.872H218.565V192.111ZM218.565 256.102H281.433V318.863H218.565V256.102ZM218.565 320.094H281.433V382.855H218.565V320.094ZM218.565 384.085H281.433V446.846H218.565V384.085ZM154.464 -127.848H217.332V-65.0865H154.464V-127.848ZM154.464 -63.8559H217.332V-1.09488H154.464V-63.8559ZM154.464 0.135727H217.332V62.8967H154.464V0.135727ZM154.464 64.1273H217.332V126.888H154.464V64.1273ZM154.464 128.119H217.332V190.88H154.464V128.119ZM154.464 192.111H217.332V254.872H154.464V192.111ZM154.464 256.102H217.332V318.863H154.464V256.102ZM154.464 320.094H217.332V382.855H154.464V320.094ZM154.464 384.085H217.332V446.846H154.464V384.085ZM90.3637 -127.848H153.232V-65.0865H90.3637V-127.848ZM90.3637 -63.8559H153.232V-1.09488H90.3637V-63.8559ZM90.3637 0.135727H153.232V62.8967H90.3637V0.135727ZM90.3637 64.1273H153.232V126.888H90.3637V64.1273ZM90.3637 128.119H153.232V190.88H90.3637V128.119ZM90.3637 192.111H153.232V254.872H90.3637V192.111ZM90.3637 256.102H153.232V318.863H90.3637V256.102ZM90.3637 320.094H153.232V382.855H90.3637V320.094ZM90.3637 384.085H153.232V446.846H90.3637V384.085ZM26.263 -127.848H89.131V-65.0865H26.263V-127.848ZM26.263 -63.8559H89.131V-1.09488H26.263V-63.8559ZM26.263 0.135727H89.131V62.8967H26.263V0.135727ZM26.263 64.1273H89.131V126.888H26.263V64.1273ZM26.263 128.119H89.131V190.88H26.263V128.119ZM26.263 192.111H89.131V254.872H26.263V192.111ZM26.263 256.102H89.131V318.863H26.263V256.102ZM26.263 320.094H89.131V382.855H26.263V320.094ZM26.263 384.085H89.131V446.846H26.263V384.085ZM-37.8376 -127.848H25.0303V-65.0865H-37.8376V-127.848ZM-37.8376 -63.8559H25.0303V-1.09488H-37.8376V-63.8559ZM-37.8376 0.135727H25.0303V62.8967H-37.8376V0.135727ZM-37.8376 64.1273H25.0303V126.888H-37.8376V64.1273ZM-37.8376 128.119H25.0303V190.88H-37.8376V128.119ZM-37.8376 192.111H25.0303V254.872H-37.8376V192.111ZM-37.8376 256.102H25.0303V318.863H-37.8376V256.102ZM-37.8376 320.094H25.0303V382.855H-37.8376V320.094ZM-37.8376 384.085H25.0303V446.846H-37.8376V384.085Z" fill="#555770"/>
<path d="M24.4151 -1.70964H26.8805V0.751572H24.4151V-1.70964ZM24.4151 -127.232H26.8805V-129.693H24.4151V-127.232ZM56.4654 32.7474H58.9308V30.2862H56.4654V32.7474ZM24.4151 -63.24H26.8805V-65.7013H24.4151V-63.24ZM56.4654 -31.2442H58.9308V-33.7055H56.4654V-31.2442ZM-7.63522 -95.2358H-5.16981V-97.6971H-7.63522V-95.2358ZM-39.6855 0.751572H-37.2201V-1.70964H-39.6855V0.751572ZM-7.63522 32.7474H-5.16981V30.2862H-7.63522V32.7474ZM-37.2201 -65.7013H-39.6855V-63.24H-37.2201V-65.7013ZM-7.63522 -31.2442H-5.16981V-33.7055H-7.63522V-31.2442ZM120.566 -95.2358H123.031V-97.6971H120.566V-95.2358ZM56.4654 -95.2358H58.9308V-97.6971H56.4654V-95.2358ZM120.566 -31.2442H123.031V-33.7055H120.566V-31.2442ZM120.566 32.7474H123.031V30.2862H120.566V32.7474ZM88.5157 0.751572H90.9811V-1.70964H88.5157V0.751572ZM88.5157 -63.24H90.9811V-65.7013H88.5157V-63.24ZM88.5157 -127.232H90.9811V-129.693H88.5157V-127.232ZM-37.8365 -134H-39.0692V-129.078H-44V-127.847H-39.0692V-122.925H-37.8365V-127.847H-32.9057V-129.078H-37.8365V-134ZM216.717 0.751572H219.182V-1.70964H216.717V0.751572ZM216.717 -127.232H219.182V-129.693H216.717V-127.232ZM248.767 32.7474H251.233V30.2862H248.767V32.7474ZM216.717 -63.24H219.182V-65.7013H216.717V-63.24ZM248.767 -31.2442H251.233V-33.7055H248.767V-31.2442ZM184.667 -95.2358H187.132V-97.6971H184.667V-95.2358ZM152.616 0.751572H155.082V-1.70964H152.616V0.751572ZM184.667 32.7474H187.132V30.2862H184.667V32.7474ZM155.082 -65.7013H152.616V-63.24H155.082V-65.7013ZM184.667 -31.2442H187.132V-33.7055H184.667V-31.2442ZM312.868 -95.2358H315.333V-97.6971H312.868V-95.2358ZM248.767 -95.2358H251.233V-97.6971H248.767V-95.2358ZM312.868 -31.2442H315.333V-33.7055H312.868V-31.2442ZM312.868 32.7474H315.333V30.2862H312.868V32.7474ZM280.818 0.751572H283.283V-1.70964H280.818V0.751572ZM280.818 -63.24H283.283V-65.7013H280.818V-63.24ZM280.818 -127.232H283.283V-129.693H280.818V-127.232ZM154.465 -134H153.233V-129.078H148.302V-127.847H153.233V-122.925H154.465V-127.847H159.396V-129.078H154.465V-134ZM409.019 0.751572H411.484V-1.70964H409.019V0.751572ZM409.019 -127.232H411.484V-129.693H409.019V-127.232ZM441.069 32.7474H443.535V30.2862H441.069V32.7474ZM409.019 -63.24H411.484V-65.7013H409.019V-63.24ZM441.069 -31.2442H443.535V-33.7055H441.069V-31.2442ZM376.969 -95.2358H379.434V-97.6971H376.969V-95.2358ZM344.918 0.751572H347.384V-1.70964H344.918V0.751572ZM376.969 32.7474H379.434V30.2862H376.969V32.7474ZM347.384 -65.7013H344.918V-63.24H347.384V-65.7013ZM376.969 -31.2442H379.434V-33.7055H376.969V-31.2442ZM505.17 -95.2358H507.635V-97.6971H505.17V-95.2358ZM537.22 0.751572H539.686V-1.70964H537.22V0.751572ZM539.686 -65.7013H537.22V-63.24H539.686V-65.7013ZM441.069 -95.2358H443.535V-97.6971H441.069V-95.2358ZM505.17 -31.2442H507.635V-33.7055H505.17V-31.2442ZM505.17 32.7474H507.635V30.2862H505.17V32.7474ZM473.12 0.751572H475.585V-1.70964H473.12V0.751572ZM473.12 -63.24H475.585V-65.7013H473.12V-63.24ZM473.12 -127.232H475.585V-129.693H473.12V-127.232ZM539.069 -129.078V-134H537.836V-129.078H532.906V-127.847H537.836V-122.925H539.069V-127.847H544V-129.078H539.069ZM346.767 -134H345.535V-129.078H340.604V-127.847H345.535V-122.925H346.767V-127.847H351.698V-129.078H346.767V-134ZM24.4151 192.726H26.8805V190.265H24.4151V192.726ZM24.4151 64.7432H26.8805V62.282H24.4151V64.7432ZM56.4654 224.722H58.9308V222.261H56.4654V224.722ZM24.4151 128.735H26.8805V126.274H24.4151V128.735ZM56.4654 160.731H58.9308V158.269H56.4654V160.731ZM-7.63522 96.739H-5.16981V94.2778H-7.63522V96.739ZM-39.6855 192.726H-37.2201V190.265H-39.6855V192.726ZM-7.63522 224.722H-5.16981V222.261H-7.63522V224.722ZM-37.2201 126.274H-39.6855V128.735H-37.2201V126.274ZM-7.63522 160.731H-5.16981V158.269H-7.63522V160.731ZM120.566 96.739H123.031V94.2778H120.566V96.739ZM56.4654 96.739H58.9308V94.2778H56.4654V96.739ZM120.566 160.731H123.031V158.269H120.566V160.731ZM120.566 224.722H123.031V222.261H120.566V224.722ZM88.5157 192.726H90.9811V190.265H88.5157V192.726ZM88.5157 128.735H90.9811V126.274H88.5157V128.735ZM88.5157 64.7432H90.9811V62.282H88.5157V64.7432ZM-37.8365 57.9749H-39.0692V62.8973H-44V64.1279H-39.0692V69.0503H-37.8365V64.1279H-32.9057V62.8973H-37.8365V57.9749ZM216.717 192.726H219.182V190.265H216.717V192.726ZM216.717 64.7432H219.182V62.282H216.717V64.7432ZM248.767 224.722H251.233V222.261H248.767V224.722ZM216.717 128.735H219.182V126.274H216.717V128.735ZM248.767 160.731H251.233V158.269H248.767V160.731ZM184.667 96.739H187.132V94.2778H184.667V96.739ZM152.616 192.726H155.082V190.265H152.616V192.726ZM184.667 224.722H187.132V222.261H184.667V224.722ZM155.082 126.274H152.616V128.735H155.082V126.274ZM184.667 160.731H187.132V158.269H184.667V160.731ZM312.868 96.739H315.333V94.2778H312.868V96.739ZM248.767 96.739H251.233V94.2778H248.767V96.739ZM312.868 160.731H315.333V158.269H312.868V160.731ZM312.868 224.722H315.333V222.261H312.868V224.722ZM280.818 192.726H283.283V190.265H280.818V192.726ZM280.818 128.735H283.283V126.274H280.818V128.735ZM280.818 64.7432H283.283V62.282H280.818V64.7432ZM154.465 57.9749H153.233V62.8973H148.302V64.1279H153.233V69.0503H154.465V64.1279H159.396V62.8973H154.465V57.9749ZM409.019 192.726H411.484V190.265H409.019V192.726ZM409.019 64.7432H411.484V62.282H409.019V64.7432ZM441.069 224.722H443.535V222.261H441.069V224.722ZM409.019 128.735H411.484V126.274H409.019V128.735ZM441.069 160.731H443.535V158.269H441.069V160.731ZM376.969 96.739H379.434V94.2778H376.969V96.739ZM344.918 192.726H347.384V190.265H344.918V192.726ZM376.969 224.722H379.434V222.261H376.969V224.722ZM347.384 126.274H344.918V128.735H347.384V126.274ZM376.969 160.731H379.434V158.269H376.969V160.731ZM505.17 96.739H507.635V94.2778H505.17V96.739ZM537.22 192.726H539.686V190.265H537.22V192.726ZM539.686 126.274H537.22V128.735H539.686V126.274ZM441.069 96.739H443.535V94.2778H441.069V96.739ZM505.17 160.731H507.635V158.269H505.17V160.731ZM505.17 224.722H507.635V222.261H505.17V224.722ZM473.12 192.726H475.585V190.265H473.12V192.726ZM473.12 128.735H475.585V126.274H473.12V128.735ZM473.12 64.7432H475.585V62.282H473.12V64.7432ZM539.069 57.9749H537.836V62.8973H532.906V64.1279H537.836V69.0503H539.069V64.1279H544V62.8973H539.069V57.9749ZM346.767 57.9749H345.535V62.8973H340.604V64.1279H345.535V69.0503H346.767V64.1279H351.698V62.8973H346.767V57.9749ZM24.4151 448.693H26.8805V446.232H24.4151V448.693ZM24.4151 384.701H26.8805V382.24H24.4151V384.701ZM24.4151 256.718H26.8805V254.257H24.4151V256.718ZM56.4654 416.697H58.9308V414.236H56.4654V416.697ZM24.4151 320.71H26.8805V318.248H24.4151V320.71ZM56.4654 352.705H58.9308V350.244H56.4654V352.705ZM-7.63522 288.714H-5.16981V286.253H-7.63522V288.714ZM-39.6855 384.701H-37.2201V382.24H-39.6855V384.701ZM-7.63522 416.697H-5.16981V414.236H-7.63522V416.697ZM-37.2201 318.248H-39.6855V320.71H-37.2201V318.248ZM-7.63522 352.705H-5.16981V350.244H-7.63522V352.705ZM120.566 288.714H123.031V286.253H120.566V288.714ZM56.4654 288.714H58.9308V286.253H56.4654V288.714ZM120.566 352.705H123.031V350.244H120.566V352.705ZM120.566 416.697H123.031V414.236H120.566V416.697ZM88.5157 448.693H90.9811V446.232H88.5157V448.693ZM88.5157 384.701H90.9811V382.24H88.5157V384.701ZM88.5157 320.71H90.9811V318.248H88.5157V320.71ZM88.5157 256.718H90.9811V254.257H88.5157V256.718ZM-37.8365 249.95H-39.0692V254.872H-44V256.103H-39.0692V261.025H-37.8365V256.103H-32.9057V254.872H-37.8365V249.95ZM-37.8365 441.925H-39.0692V446.847H-44V448.078H-39.0692V453H-37.8365V448.078H-32.9057V446.847H-37.8365V441.925ZM216.717 448.693H219.182V446.232H216.717V448.693ZM216.717 384.701H219.182V382.24H216.717V384.701ZM216.717 256.718H219.182V254.257H216.717V256.718ZM248.767 416.697H251.233V414.236H248.767V416.697ZM216.717 320.71H219.182V318.248H216.717V320.71ZM248.767 352.705H251.233V350.244H248.767V352.705ZM184.667 288.714H187.132V286.253H184.667V288.714ZM152.616 384.701H155.082V382.24H152.616V384.701ZM184.667 416.697H187.132V414.236H184.667V416.697ZM155.082 318.248H152.616V320.71H155.082V318.248ZM184.667 352.705H187.132V350.244H184.667V352.705ZM312.868 288.714H315.333V286.253H312.868V288.714ZM248.767 288.714H251.233V286.253H248.767V288.714ZM312.868 352.705H315.333V350.244H312.868V352.705ZM312.868 416.697H315.333V414.236H312.868V416.697ZM280.818 448.693H283.283V446.232H280.818V448.693ZM280.818 384.701H283.283V382.24H280.818V384.701ZM280.818 320.71H283.283V318.248H280.818V320.71ZM280.818 256.718H283.283V254.257H280.818V256.718ZM154.465 249.95H153.233V254.872H148.302V256.103H153.233V261.025H154.465V256.103H159.396V254.872H154.465V249.95ZM154.465 441.925H153.233V446.847H148.302V448.078H153.233V453H154.465V448.078H159.396V446.847H154.465V441.925ZM409.019 448.693H411.484V446.232H409.019V448.693ZM409.019 384.701H411.484V382.24H409.019V384.701ZM409.019 256.718H411.484V254.257H409.019V256.718ZM441.069 416.697H443.535V414.236H441.069V416.697ZM409.019 320.71H411.484V318.248H409.019V320.71ZM441.069 352.705H443.535V350.244H441.069V352.705ZM376.969 288.714H379.434V286.253H376.969V288.714ZM344.918 384.701H347.384V382.24H344.918V384.701ZM376.969 416.697H379.434V414.236H376.969V416.697ZM347.384 318.248H344.918V320.71H347.384V318.248ZM376.969 352.705H379.434V350.244H376.969V352.705ZM505.17 288.714H507.635V286.253H505.17V288.714ZM537.22 384.701H539.686V382.24H537.22V384.701ZM539.686 318.248H537.22V320.71H539.686V318.248ZM441.069 288.714H443.535V286.253H441.069V288.714ZM505.17 352.705H507.635V350.244H505.17V352.705ZM505.17 416.697H507.635V414.236H505.17V416.697ZM473.12 448.693H475.585V446.232H473.12V448.693ZM473.12 384.701H475.585V382.24H473.12V384.701ZM473.12 320.71H475.585V318.248H473.12V320.71ZM473.12 256.718H475.585V254.257H473.12V256.718ZM539.069 441.925H537.836V446.847H532.906V448.078H537.836V453H539.069V448.078H544V446.847H539.069V441.925ZM539.069 249.95H537.836V254.872H532.906V256.103H537.836V261.025H539.069V256.103H544V254.872H539.069V249.95ZM346.767 249.95H345.535V254.872H340.604V256.103H345.535V261.025H346.767V256.103H351.698V254.872H346.767V249.95ZM346.767 441.925H345.535V446.847H340.604V448.078H345.535V453H346.767V448.078H351.698V446.847H346.767V441.925Z" fill="#555770"/>
</g>
<defs>
<radialGradient id="paint0_radial" cx="0" cy="0" r="1" gradientUnits="userSpaceOnUse" gradientTransform="translate(238 163) rotate(90) scale(163 238)">
<stop stop-color="#C4C4C4"/>
<stop offset="1" stop-color="#C4C4C4" stop-opacity="0"/>
</radialGradient>
</defs>
</svg>
