<svg width="368" height="210" viewBox="0 0 368 210" fill="none" xmlns="http://www.w3.org/2000/svg">
<rect opacity="0.883997" x="360.832" y="219.782" width="30.5" height="30.5" rx="6.25" transform="rotate(-30 360.832 219.782)" stroke="white" stroke-width="1.5"/>
<rect opacity="0.350574" x="335.832" y="176.478" width="30.5" height="30.5" rx="6.25" transform="rotate(-30 335.832 176.478)" stroke="white" stroke-width="1.5"/>
<rect opacity="0.30704" x="354.133" y="108.177" width="30.5" height="30.5" rx="6.25" transform="rotate(-30 354.133 108.177)" stroke="white" stroke-width="1.5"/>
<rect opacity="0.500001" x="310.832" y="133.177" width="30.5" height="30.5" rx="6.25" transform="rotate(-30 310.832 133.177)" stroke="white" stroke-width="1.5"/>
<rect opacity="0.0584306" x="180.928" y="208.177" width="30.5" height="30.5" rx="6.25" transform="rotate(-30 180.928 208.177)" stroke="white" stroke-width="1.5"/>
<rect opacity="0.924798" x="329.133" y="64.8761" width="30.5" height="30.5" rx="6.25" transform="rotate(-30 329.133 64.8761)" stroke="white" stroke-width="1.5"/>
<rect opacity="0.218008" x="285.832" y="89.8761" width="30.5" height="30.5" rx="6.25" transform="rotate(-30 285.832 89.8761)" stroke="white" stroke-width="1.5"/>
<rect opacity="0.822431" x="242.531" y="114.876" width="30.5" height="30.5" rx="6.25" transform="rotate(-30 242.531 114.876)" stroke="white" stroke-width="1.5"/>
<rect opacity="0.181712" x="199.23" y="139.876" width="30.5" height="30.5" rx="6.25" transform="rotate(-30 199.23 139.876)" stroke="white" stroke-width="1.5"/>
<rect opacity="0.483798" x="155.928" y="164.876" width="30.5" height="30.5" rx="6.25" transform="rotate(-30 155.928 164.876)" stroke="white" stroke-width="1.5"/>
<rect opacity="0.166498" x="112.627" y="189.876" width="30.5" height="30.5" rx="6.25" transform="rotate(-30 112.627 189.876)" stroke="white" stroke-width="1.5"/>
<rect opacity="0.542623" x="69.3258" y="214.876" width="30.5" height="30.5" rx="6.25" transform="rotate(-30 69.3258 214.876)" stroke="white" stroke-width="1.5"/>
<rect opacity="0.739044" x="304.133" y="21.5753" width="30.5" height="30.5" rx="6.25" transform="rotate(-30 304.133 21.5753)" stroke="white" stroke-width="1.5"/>
<rect opacity="0.864593" x="260.832" y="46.5753" width="30.5" height="30.5" rx="6.25" transform="rotate(-30 260.832 46.5753)" stroke="white" stroke-width="1.5"/>
<rect opacity="0.882436" x="217.531" y="71.5753" width="30.5" height="30.5" rx="6.25" transform="rotate(-30 217.531 71.5753)" stroke="white" stroke-width="1.5"/>
<rect opacity="0.407388" x="174.23" y="96.5753" width="30.5" height="30.5" rx="6.25" transform="rotate(-30 174.23 96.5753)" stroke="white" stroke-width="1.5"/>
<rect opacity="0.283833" x="130.928" y="121.575" width="30.5" height="30.5" rx="6.25" transform="rotate(-30 130.928 121.575)" stroke="white" stroke-width="1.5"/>
<rect opacity="0.540144" x="87.6271" y="146.575" width="30.5" height="30.5" rx="6.25" transform="rotate(-30 87.6271 146.575)" stroke="white" stroke-width="1.5"/>
<rect opacity="0.105351" x="44.3258" y="171.575" width="30.5" height="30.5" rx="6.25" transform="rotate(-30 44.3258 171.575)" stroke="white" stroke-width="1.5"/>
<rect opacity="0.0609978" x="1.02452" y="196.575" width="30.5" height="30.5" rx="6.25" transform="rotate(-30 1.02452 196.575)" stroke="white" stroke-width="1.5"/>
<rect opacity="0.316278" x="279.133" y="-21.7255" width="30.5" height="30.5" rx="6.25" transform="rotate(-30 279.133 -21.7255)" stroke="white" stroke-width="1.5"/>
<rect opacity="0.911605" x="235.832" y="3.27452" width="30.5" height="30.5" rx="6.25" transform="rotate(-30 235.832 3.27452)" stroke="white" stroke-width="1.5"/>
<rect opacity="0.607902" x="192.531" y="28.2745" width="30.5" height="30.5" rx="6.25" transform="rotate(-30 192.531 28.2745)" stroke="white" stroke-width="1.5"/>
<rect opacity="0.534543" x="149.23" y="53.2745" width="30.5" height="30.5" rx="6.25" transform="rotate(-30 149.23 53.2745)" stroke="white" stroke-width="1.5"/>
<rect opacity="0.787701" x="105.928" y="78.2745" width="30.5" height="30.5" rx="6.25" transform="rotate(-30 105.928 78.2745)" stroke="white" stroke-width="1.5"/>
<rect opacity="0.643501" x="62.6271" y="103.275" width="30.5" height="30.5" rx="6.25" transform="rotate(-30 62.6271 103.275)" stroke="white" stroke-width="1.5"/>
<rect opacity="0.640225" x="19.3258" y="128.275" width="30.5" height="30.5" rx="6.25" transform="rotate(-30 19.3258 128.275)" stroke="white" stroke-width="1.5"/>
</svg>
