<svg width="384" height="152" viewBox="0 0 384 152" fill="none" xmlns="http://www.w3.org/2000/svg">
<g opacity="0.25">
<path d="M141.853 293.633C141.853 293.633 170.38 279.816 191.23 256.496C212.08 233.175 254.029 235.383 275.475 238.088C296.922 240.794 336.895 240.42 359.142 208.553C381.388 176.687 388.281 146.597 427.966 150.284C467.651 153.97 500.73 167.272 532.896 159.849" stroke="white" stroke-width="2"/>
<path d="M137.051 288.828C137.051 288.828 165.578 275.011 186.428 251.691C207.278 228.371 249.227 230.578 270.673 233.284C292.12 235.989 332.093 235.615 354.34 203.748C376.587 171.882 383.479 141.793 423.164 145.479C462.849 149.165 495.928 162.467 528.094 155.044" stroke="white" stroke-width="2"/>
<path d="M132.249 284.02C132.249 284.02 160.777 270.203 181.626 246.882C202.476 223.562 244.425 225.77 265.872 228.475C287.318 231.18 327.291 230.806 349.538 198.94C371.785 167.073 378.677 136.984 418.362 140.67C458.048 144.357 491.126 157.658 523.292 150.236" stroke="white" stroke-width="2"/>
<path d="M127.448 279.215C127.448 279.215 155.975 265.398 176.825 242.078C197.674 218.757 239.623 220.965 261.07 223.67C282.517 226.376 322.49 226.002 344.736 194.135C366.983 162.269 373.876 132.179 413.561 135.866C453.246 139.552 486.324 152.854 518.491 145.431" stroke="white" stroke-width="2"/>
<path d="M122.646 274.411C122.646 274.411 151.173 260.593 172.023 237.273C192.873 213.953 234.822 216.16 256.268 218.866C277.715 221.571 317.688 221.197 339.935 189.33C362.182 157.464 369.074 127.375 408.759 131.061C448.444 134.747 481.523 148.049 513.689 140.626" stroke="white" stroke-width="2"/>
<path d="M117.844 269.606C117.844 269.606 146.372 255.788 167.221 232.468C188.071 209.148 230.02 211.355 251.467 214.061C272.913 216.766 312.886 216.392 335.133 184.526C357.38 152.659 364.272 122.57 403.957 126.256C443.643 129.943 476.721 143.244 508.887 135.822" stroke="white" stroke-width="2"/>
<path d="M113.042 264.797C113.042 264.797 141.57 250.98 162.42 227.66C183.269 204.339 225.218 206.547 246.665 209.252C268.112 211.958 308.085 211.584 330.331 179.717C352.578 147.851 359.471 117.761 399.156 121.448C438.841 125.134 471.919 138.436 504.086 131.013" stroke="white" stroke-width="2"/>
<path d="M108.241 259.993C108.241 259.993 136.768 246.175 157.618 222.855C178.467 199.535 220.417 201.742 241.863 204.448C263.31 207.153 303.283 206.779 325.53 174.913C347.776 143.046 354.669 112.957 394.354 116.643C434.039 120.329 467.118 133.631 499.284 126.208" stroke="white" stroke-width="2"/>
<path d="M103.439 255.188C103.439 255.188 131.967 241.37 152.816 218.05C173.666 194.73 215.615 196.938 237.062 199.643C258.508 202.348 298.481 201.974 320.728 170.108C342.975 138.241 349.867 108.152 389.552 111.838C429.238 115.525 462.316 128.826 494.482 121.404" stroke="white" stroke-width="2"/>
<path d="M98.6375 250.383C98.6375 250.383 127.165 236.566 148.015 213.246C168.864 189.925 210.813 192.133 232.26 194.838C253.707 197.544 293.68 197.17 315.926 165.303C338.173 133.437 345.065 103.347 384.751 107.034C424.436 110.72 457.514 124.022 489.681 116.599" stroke="white" stroke-width="2"/>
<path d="M93.8357 245.575C93.8357 245.575 122.363 231.757 143.213 208.437C164.062 185.117 206.012 187.324 227.458 190.03C248.905 192.735 288.878 192.361 311.125 160.495C333.371 128.628 340.264 98.5388 379.949 102.225C419.634 105.911 452.713 119.213 484.879 111.791" stroke="white" stroke-width="2"/>
<path d="M89.0339 240.77C89.0339 240.77 117.561 226.953 138.411 203.632C159.261 180.312 201.21 182.52 222.656 185.225C244.103 187.93 284.076 187.556 306.323 155.69C328.57 123.823 335.462 93.7341 375.147 97.4204C414.832 101.107 447.911 114.408 480.077 106.986" stroke="white" stroke-width="2"/>
<path d="M84.2324 235.965C84.2324 235.965 112.76 222.148 133.609 198.828C154.459 175.507 196.408 177.715 217.855 180.42C239.301 183.126 279.275 182.752 301.521 150.885C323.768 119.019 330.66 88.9294 370.346 92.6158C410.031 96.3021 443.109 109.604 475.276 102.181" stroke="white" stroke-width="2"/>
<path d="M79.4307 231.161C79.4307 231.161 107.958 217.343 128.808 194.023C149.657 170.703 191.607 172.91 213.053 175.616C234.5 178.321 274.473 177.947 296.72 146.08C318.966 114.214 325.859 84.1247 365.544 87.8111C405.229 91.4974 438.308 104.799 470.474 97.3765" stroke="white" stroke-width="2"/>
<path d="M74.6289 226.352C74.6289 226.352 103.156 212.535 124.006 189.214C144.856 165.894 186.805 168.102 208.251 170.807C229.698 173.512 269.671 173.138 291.918 141.272C314.165 109.405 321.057 79.3161 360.742 83.0025C400.427 86.6888 433.506 99.9903 465.672 92.5679" stroke="white" stroke-width="2"/>
<path d="M69.8271 221.547C69.8271 221.547 98.3545 207.73 119.204 184.41C140.054 161.089 182.003 163.297 203.45 166.002C224.896 168.708 264.869 168.334 287.116 136.467C309.363 104.601 316.255 74.5115 355.94 78.1978C395.626 81.8841 428.704 95.1856 460.87 87.7632" stroke="white" stroke-width="2"/>
<path d="M65.0254 216.743C65.0254 216.743 93.5528 202.925 114.402 179.605C135.252 156.285 177.201 158.492 198.648 161.198C220.094 163.903 260.068 163.529 282.314 131.663C304.561 99.7959 311.453 69.7068 351.139 73.3931C390.824 77.0794 423.902 90.3809 456.069 82.9585" stroke="white" stroke-width="2"/>
<path d="M60.2239 211.938C60.2239 211.938 88.7513 198.12 109.601 174.8C130.451 151.48 172.4 153.688 193.846 156.393C215.293 159.098 255.266 158.724 277.513 126.858C299.76 94.9912 306.652 64.9021 346.337 68.5884C386.022 72.2747 419.101 85.5762 451.267 78.1538" stroke="white" stroke-width="2"/>
<path d="M55.4221 207.129C55.4221 207.129 83.9495 193.312 104.799 169.992C125.649 146.671 167.598 148.879 189.045 151.584C210.491 154.29 250.464 153.916 272.711 122.049C294.958 90.1826 301.85 60.0935 341.535 63.7798C381.221 67.4661 414.299 80.7676 446.465 73.3452" stroke="white" stroke-width="2"/>
<path d="M50.6204 202.325C50.6204 202.325 79.1478 188.507 99.9974 165.187C120.847 141.867 162.796 144.074 184.243 146.78C205.689 149.485 245.662 149.111 267.909 117.245C290.156 85.3779 297.048 55.2888 336.734 58.9751C376.419 62.6615 409.497 75.963 441.664 68.5405" stroke="white" stroke-width="2"/>
<path d="M45.8186 197.52C45.8186 197.52 74.346 183.703 95.1957 160.382C116.045 137.062 157.994 139.27 179.441 141.975C200.888 144.68 240.861 144.306 263.107 112.44C285.354 80.5732 292.247 50.4841 331.932 54.1704C371.617 57.8568 404.696 71.1583 436.862 63.7358" stroke="white" stroke-width="2"/>
<path d="M41.0171 192.715C41.0171 192.715 69.5445 178.898 90.3941 155.578C111.244 132.257 153.193 134.465 174.64 137.17C196.086 139.876 236.059 139.502 258.306 107.635C280.553 75.7686 287.445 45.6794 327.13 49.3658C366.815 53.0521 399.894 66.3536 432.06 58.9311" stroke="white" stroke-width="2"/>
<path d="M36.2153 187.907C36.2153 187.907 64.7427 174.089 85.5924 150.769C106.442 127.449 148.391 129.656 169.838 132.362C191.284 135.067 231.257 134.693 253.504 102.827C275.751 70.96 282.643 40.8708 322.329 44.5572C362.014 48.2435 395.092 61.545 427.259 54.1226" stroke="white" stroke-width="2"/>
<path d="M31.4136 183.102C31.4136 183.102 59.941 169.285 80.7906 145.964C101.64 122.644 143.589 124.852 165.036 127.557C186.483 130.262 226.456 129.888 248.702 98.0219C270.949 66.1553 277.842 36.0661 317.527 39.7525C357.212 43.4388 390.291 56.7403 422.457 49.3179" stroke="white" stroke-width="2"/>
<path d="M26.6118 178.297C26.6118 178.297 55.1392 164.48 75.9889 141.16C96.8385 117.839 138.788 120.047 160.234 122.752C181.681 125.458 221.654 125.084 243.901 93.2172C266.147 61.3506 273.04 31.2615 312.725 34.9478C352.41 38.6341 385.489 51.9356 417.655 44.5132" stroke="white" stroke-width="2"/>
<path d="M21.8103 173.493C21.8103 173.493 50.3377 159.675 71.1874 136.355C92.037 113.035 133.986 115.242 155.433 117.948C176.879 120.653 216.852 120.279 239.099 88.4125C261.346 56.5459 268.238 26.4568 307.924 30.1431C347.609 33.8294 380.687 47.1309 412.853 39.7085" stroke="white" stroke-width="2"/>
<path d="M17.0085 168.684C17.0085 168.684 45.5359 154.867 66.3856 131.546C87.2353 108.226 129.184 110.434 150.631 113.139C172.078 115.844 212.051 115.471 234.297 83.6039C256.544 51.7373 263.437 21.6482 303.122 25.3345C342.807 29.0208 375.886 42.3223 408.052 34.8999" stroke="white" stroke-width="2"/>
<path d="M12.2068 163.879C12.2068 163.879 40.7342 150.062 61.5838 126.742C82.4335 103.421 124.383 105.629 145.829 108.334C167.276 111.04 207.249 110.666 229.496 78.7992C251.742 46.9326 258.635 16.8435 298.32 20.5298C338.005 24.2161 371.084 37.5176 403.25 30.0952" stroke="white" stroke-width="2"/>
<path d="M7.40503 159.075C7.40503 159.075 35.9324 145.257 56.7821 121.937C77.6318 98.6167 119.581 100.824 141.027 103.53C162.474 106.235 202.447 105.861 224.694 73.9945C246.941 42.1279 253.833 12.0388 293.518 15.7251C333.203 19.4115 366.282 32.713 398.448 25.2905" stroke="white" stroke-width="2"/>
<path d="M2.60352 154.27C2.60352 154.27 31.1309 140.453 51.9806 117.132C72.8302 93.812 114.779 96.0195 136.226 98.725C157.673 101.43 197.646 101.056 219.892 69.1899C242.139 37.3232 249.032 7.23412 288.717 10.9204C328.402 14.6068 361.48 27.9083 393.647 20.4858" stroke="white" stroke-width="2"/>
<path d="M-2.19824 149.461C-2.19824 149.461 26.3291 135.644 47.1788 112.324C68.0285 89.0034 109.978 91.2109 131.424 93.9164C152.871 96.6218 192.844 96.2479 215.091 64.3813C237.337 32.5146 244.23 2.42552 283.915 6.11185C323.6 9.79818 356.679 23.0997 388.845 15.6772" stroke="white" stroke-width="2"/>
<path d="M-7 144.657C-7 144.657 21.5274 130.839 42.3771 107.519C63.2267 84.1987 105.176 86.4063 126.622 89.1117C148.069 91.8171 188.042 91.4432 210.289 59.5766C232.536 27.71 239.428 -2.37917 279.113 1.30716C318.798 4.99349 351.877 18.295 384.043 10.8726" stroke="white" stroke-width="2"/>
</g>
</svg>
