<svg width="351" height="351" viewBox="0 0 351 351" fill="none" xmlns="http://www.w3.org/2000/svg">
  <path d="M102.107 31.4562L110.507 23.053C123.382 10.3133 144.389 11.1265 156.18 24.8158L272.46 160.341C282.625 172.131 282.49 189.614 272.19 201.27L156.316 332.593C144.39 346.01 123.654 346.687 110.916 333.948L102.512 325.545C91.1285 314.161 90.3154 296 100.616 283.532L170.004 200.319C179.491 188.935 179.627 172.536 170.412 160.881L99.9378 72.7899C89.9082 60.594 90.8579 42.7049 102.107 31.4575V31.4562Z" fill="#92D13D"/>
  <path d="M169.869 200.591L100.48 283.804C90.1798 296.138 90.9929 314.433 102.377 325.817L110.779 334.22C123.519 346.96 144.254 346.282 156.181 332.865L181.253 304.405C190.74 285.703 196.026 264.56 196.026 242.199C196.026 214.552 187.894 188.936 174.07 167.389C179.219 177.96 177.865 191.105 169.869 200.592V200.591Z" fill="#49691F"/>
</svg>